  0
SECTION
  2
HEADER
  9
$ACADVER
  1
AC1014
  9
$ACADMAINTVER
 70
     9
  9
$DWGCODEPAGE
  3
ANSI_1252
  9
$INSBASE
 10
0.0
 20
0.0
 30
0.0
  9
$EXTMIN
 10
-0.5
 20
-0.5
 30
-0.5
  9
$EXTMAX
 10
5.0
 20
5.0
 30
5.0
  9
$LIMMIN
 10
-0.5
 20
-0.5
  9
$LIMMAX
 10
5.0
 20
5.0
  9
$ORTHOMODE
 70
     0
  9
$REGENMODE
 70
     1
  9
$FILLMODE
 70
     1
  9
$QTEXTMODE
 70
     0
  9
$MIRRTEXT
 70
     1
  9
$DRAGMODE
 70
     2
  9
$LTSCALE
 40
1.0
  9
$OSMODE
 70
    37
  9
$ATTMODE
 70
     1
  9
$TEXTSIZE
 40
0.2
  9
$TRACEWID
 40
0.05
  9
$TEXTSTYLE
  7
STANDARD
  9
$CLAYER
  8
0
  9
$CELTYPE
  6
BYLAYER
  9
$CECOLOR
 62
   256
  9
$CELTSCALE
 40
1.0
  9
$DELOBJ
 70
     1
  9
$DISPSILH
 70
     0
  9
$DIMSCALE
 40
1.0
  9
$DIMASZ
 40
0.18
  9
$DIMEXO
 40
0.0625
  9
$DIMDLI
 40
0.38
  9
$DIMRND
 40
0.0
  9
$DIMDLE
 40
0.0
  9
$DIMEXE
 40
0.18
  9
$DIMTP
 40
0.0
  9
$DIMTM
 40
0.0
  9
$DIMTXT
 40
0.18
  9
$DIMCEN
 40
0.09
  9
$DIMTSZ
 40
0.0
  9
$DIMTOL
 70
     0
  9
$DIMLIM
 70
     0
  9
$DIMTIH
 70
     1
  9
$DIMTOH
 70
     1
  9
$DIMSE1
 70
     0
  9
$DIMSE2
 70
     0
  9
$DIMTAD
 70
     0
  9
$DIMZIN
 70
     0
  9
$DIMBLK
  1

  9
$DIMASO
 70
     1
  9
$DIMSHO
 70
     1
  9
$DIMPOST
  1

  9
$DIMAPOST
  1

  9
$DIMALT
 70
     0
  9
$DIMALTD
 70
     2
  9
$DIMALTF
 40
25.4
  9
$DIMLFAC
 40
1.0
  9
$DIMTOFL
 70
     0
  9
$DIMTVP
 40
0.0
  9
$DIMTIX
 70
     0
  9
$DIMSOXD
 70
     0
  9
$DIMSAH
 70
     0
  9
$DIMBLK1
  1

  9
$DIMBLK2
  1

  9
$DIMSTYLE
  2
STANDARD
  9
$DIMCLRD
 70
     0
  9
$DIMCLRE
 70
     0
  9
$DIMCLRT
 70
     0
  9
$DIMTFAC
 40
1.0
  9
$DIMGAP
 40
0.09
  9
$DIMJUST
 70
     0
  9
$DIMSD1
 70
     0
  9
$DIMSD2
 70
     0
  9
$DIMTOLJ
 70
     1
  9
$DIMTZIN
 70
     0
  9
$DIMALTZ
 70
     0
  9
$DIMALTTZ
 70
     0
  9
$DIMFIT
 70
     3
  9
$DIMUPT
 70
     0
  9
$DIMUNIT
 70
     2
  9
$DIMDEC
 70
     4
  9
$DIMTDEC
 70
     4
  9
$DIMALTU
 70
     2
  9
$DIMALTTD
 70
     2
  9
$DIMTXSTY
  7
STANDARD
  9
$DIMAUNIT
 70
     0
  9
$LUNITS
 70
     2
  9
$LUPREC
 70
     4
  9
$SKETCHINC
 40
0.1
  9
$FILLETRAD
 40
0.5
  9
$AUNITS
 70
     0
  9
$AUPREC
 70
     0
  9
$MENU
  1
.
  9
$ELEVATION
 40
0.0
  9
$PELEVATION
 40
0.0
  9
$THICKNESS
 40
0.0
  9
$LIMCHECK
 70
     0
  9
$CHAMFERA
 40
0.5
  9
$CHAMFERB
 40
0.5
  9
$CHAMFERC
 40
1.0
  9
$CHAMFERD
 40
0.0
  9
$SKPOLY
 70
     0
  9
$TDCREATE
 40
2457770.382600914
  9
$TDUPDATE
 40
2457770.382600926
  9
$TDINDWG
 40
0.0000000116
  9
$TDUSRTIMER
 40
0.0000000116
  9
$USRTIMER
 70
     1
  9
$ANGBASE
 50
0.0
  9
$ANGDIR
 70
     0
  9
$PDMODE
 70
     0
  9
$PDSIZE
 40
0.0
  9
$PLINEWID
 40
0.0
  9
$COORDS
 70
     1
  9
$SPLFRAME
 70
     0
  9
$SPLINETYPE
 70
     6
  9
$SPLINESEGS
 70
     8
  9
$ATTDIA
 70
     0
  9
$ATTREQ
 70
     1
  9
$HANDLING
 70
     1
  9
$HANDSEED
  5
2F8
  9
$SURFTAB1
 70
     6
  9
$SURFTAB2
 70
     6
  9
$SURFTYPE
 70
     6
  9
$SURFU
 70
     6
  9
$SURFV
 70
     6
  9
$UCSNAME
  2

  9
$UCSORG
 10
0.0
 20
0.0
 30
0.0
  9
$UCSXDIR
 10
1.0
 20
0.0
 30
0.0
  9
$UCSYDIR
 10
0.0
 20
1.0
 30
0.0
  9
$PUCSNAME
  2

  9
$PUCSORG
 10
0.0
 20
0.0
 30
0.0
  9
$PUCSXDIR
 10
1.0
 20
0.0
 30
0.0
  9
$PUCSYDIR
 10
0.0
 20
1.0
 30
0.0
  9
$USERI1
 70
     0
  9
$USERI2
 70
     0
  9
$USERI3
 70
     0
  9
$USERI4
 70
     0
  9
$USERI5
 70
     0
  9
$USERR1
 40
0.0
  9
$USERR2
 40
0.0
  9
$USERR3
 40
0.0
  9
$USERR4
 40
0.0
  9
$USERR5
 40
0.0
  9
$WORLDVIEW
 70
     1
  9
$SHADEDGE
 70
     3
  9
$SHADEDIF
 70
    70
  9
$TILEMODE
 70
     1
  9
$MAXACTVP
 70
    64
  9
$PINSBASE
 10
0.0
 20
0.0
 30
0.0
  9
$PLIMCHECK
 70
     0
  9
$PEXTMIN
 10
-0.5
 20
-0.5
 30
-0.5
  9
$PEXTMAX
 10
5.0
 20
5.0
 30
5.0
  9
$PLIMMIN
 10
-0.5
 20
-0.5
  9
$PLIMMAX
 10
5.0
 20
5.0
  9
$UNITMODE
 70
     0
  9
$VISRETAIN
 70
     1
  9
$PLINEGEN
 70
     0
  9
$PSLTSCALE
 70
     1
  9
$TREEDEPTH
 70
  3020
  9
$PICKSTYLE
 70
     1
  9
$CMLSTYLE
  2
STANDARD
  9
$CMLJUST
 70
     0
  9
$CMLSCALE
 40
1.0
  9
$PROXYGRAPHICS
 70
     1
  9
$MEASUREMENT
 70
     1
  0
ENDSEC
  0
SECTION
  2
CLASSES
  0
CLASS
  1
ACDBDICTIONARYWDFLT
  2
AcDbDictionaryWithDefault
  3
ObjectDBX Classes
 90
        0
280
     0
281
     0
  0
CLASS
  1
VISUALSTYLE
  2
AcDbVisualStyle
  3
ObjectDBX Classes
 90
     4095
280
     0
281
     0
  0
CLASS
  1
MATERIAL
  2
AcDbMaterial
  3
ObjectDBX Classes
 90
     1153
280
     0
281
     0
  0
CLASS
  1
DICTIONARYVAR
  2
AcDbDictionaryVar
  3
ObjectDBX Classes
 90
        0
280
     0
281
     0
  0
CLASS
  1
XRECORD
  2
AcDbXrecord
  3
AutoCAD 2000
 90
        0
280
     0
281
     0
  0
CLASS
  1
LWPOLYLINE
  2
AcDbPolyline
  3
AutoCAD 2000
 90
        0
280
     0
281
     1
  0
CLASS
  1
HATCH
  2
AcDbHatch
  3
AutoCAD 2000
 90
        0
280
     0
281
     1
  0
CLASS
  1
ACDBPLACEHOLDER
  2
AcDbPlaceHolder
  3
ObjectDBX Classes
 90
        0
280
     0
281
     0
  0
CLASS
  1
LAYOUT
  2
AcDbLayout
  3
ObjectDBX Classes
 90
        0
280
     0
281
     0
  0
ENDSEC
  0
SECTION
  2
TABLES
  0
TABLE
  2
VPORT
  5
8
330
0
100
AcDbSymbolTable
 70
    17
  0
VPORT
  5
29
330
8
100
AcDbSymbolTableRecord
100
AcDbViewportTableRecord
  2
DUMMY
 70
     0
 10
0.0
 20
0.0
 11
1.0
 21
1.0
 12
10.429907
 22
4.5
 13
0.0
 23
0.0
 14
0.5
 24
0.5
 15
0.5
 25
0.5
 16
0.0
 26
0.0
 36
1.0
 17
0.0
 27
0.0
 37
0.0
 40
9.0
 41
1.972973
 42
50.0
 43
0.0
 44
0.0
 50
0.0
 51
0.0
 71
     0
 72
   100
 73
     1
 74
     3
 75
     0
 76
     0
 77
     0
 78
     0
  0
VPORT
  5
2BD
330
8
100
AcDbSymbolTableRecord
100
AcDbViewportTableRecord
  2
*ACTIVE
 70
     0
 10
0.0
 20
0.0
 11
1.0
 21
1.0
 12
207.48
 22
148.5
 13
0.0
 23
0.0
 14
0.5
 24
0.5
 15
0.5
 25
0.5
 16
0.0
 26
0.0
 36
1.0
 17
0.0
 27
0.0
 37
0.0
 40
254.0
 41
0.069908
 42
50.0
 43
804.295265
 44
-804.295265
 50
0.0
 51
0.0
 71
     0
 72
   100
 73
     1
 74
     3
 75
     0
 76
     0
 77
     0
 78
     0
  0
VPORT
  5
2BE
330
8
100
AcDbSymbolTableRecord
100
AcDbViewportTableRecord
  2
L1
 70
     0
 10
0.0
 20
0.0
 11
1.0
 21
1.0
 12
207.48
 22
148.5
 13
0.0
 23
0.0
 14
0.5
 24
0.5
 15
0.5
 25
0.5
 16
0.0
 26
0.0
 36
1.0
 17
0.0
 27
0.0
 37
0.0
 40
254.0
 41
0.069908
 42
50.0
 43
804.295265
 44
-804.295265
 50
0.0
 51
0.0
 71
     0
 72
   100
 73
     1
 74
     3
 75
     0
 76
     0
 77
     0
 78
     0
  0
VPORT
  5
2BF
330
8
100
AcDbSymbolTableRecord
100
AcDbViewportTableRecord
  2
L2
 70
     0
 10
0.0
 20
0.0
 11
0.5
 21
1.0
 12
0.0
 22
0.0
 13
0.0
 23
0.0
 14
0.5
 24
0.5
 15
0.5
 25
0.5
 16
0.0
 26
-1.0
 36
0.0
 17
0.0
 27
0.0
 37
0.0
 40
1319.822715
 41
0.013454
 42
50.0
 43
672.020833
 44
-672.020833
 50
0.0
 51
0.0
 71
     0
 72
   100
 73
     1
 74
     3
 75
     0
 76
     0
 77
     0
 78
     0
  0
VPORT
  5
2C0
330
8
100
AcDbSymbolTableRecord
100
AcDbViewportTableRecord
  2
L2
 70
     0
 10
0.5
 20
0.0
 11
1.0
 21
1.0
 12
0.0
 22
0.0
 13
0.0
 23
0.0
 14
0.5
 24
0.5
 15
0.5
 25
0.5
 16
1.0
 26
0.0
 36
0.0
 17
0.0
 27
0.0
 37
0.0
 40
1319.822715
 41
0.013454
 42
50.0
 43
672.020833
 44
-672.020833
 50
0.0
 51
0.0
 71
     0
 72
   100
 73
     1
 74
     3
 75
     0
 76
     0
 77
     0
 78
     0
  0
VPORT
  5
2C1
330
8
100
AcDbSymbolTableRecord
100
AcDbViewportTableRecord
  2
L3
 70
     0
 10
0.0
 20
0.5
 11
1.0
 21
1.0
 12
207.48
 22
148.5
 13
0.0
 23
0.0
 14
0.5
 24
0.5
 15
0.5
 25
0.5
 16
0.0
 26
0.0
 36
1.0
 17
0.0
 27
0.0
 37
0.0
 40
254.0
 41
0.069908
 42
50.0
 43
804.295265
 44
-804.295265
 50
0.0
 51
0.0
 71
     0
 72
   100
 73
     1
 74
     3
 75
     0
 76
     0
 77
     0
 78
     0
  0
VPORT
  5
2C2
330
8
100
AcDbSymbolTableRecord
100
AcDbViewportTableRecord
  2
L3
 70
     0
 10
0.0
 20
0.0
 11
1.0
 21
0.5
 12
0.0
 22
0.0
 13
0.0
 23
0.0
 14
0.5
 24
0.5
 15
0.5
 25
0.5
 16
0.0
 26
-1.0
 36
0.0
 17
0.0
 27
0.0
 37
0.0
 40
1319.822715
 41
0.013454
 42
50.0
 43
672.020833
 44
-672.020833
 50
0.0
 51
0.0
 71
     0
 72
   100
 73
     1
 74
     3
 75
     0
 76
     0
 77
     0
 78
     0
  0
VPORT
  5
2C3
330
8
100
AcDbSymbolTableRecord
100
AcDbViewportTableRecord
  2
L4
 70
     0
 10
0.0
 20
0.5
 11
0.5
 21
1.0
 12
207.48
 22
148.5
 13
0.0
 23
0.0
 14
0.5
 24
0.5
 15
0.5
 25
0.5
 16
0.0
 26
0.0
 36
1.0
 17
0.0
 27
0.0
 37
0.0
 40
254.0
 41
0.069908
 42
50.0
 43
804.295265
 44
-804.295265
 50
0.0
 51
0.0
 71
     0
 72
   100
 73
     1
 74
     3
 75
     0
 76
     0
 77
     0
 78
     0
  0
VPORT
  5
2C4
330
8
100
AcDbSymbolTableRecord
100
AcDbViewportTableRecord
  2
L4
 70
     0
 10
0.0
 20
0.0
 11
0.5
 21
0.5
 12
0.0
 22
0.0
 13
0.0
 23
0.0
 14
0.5
 24
0.5
 15
0.5
 25
0.5
 16
0.0
 26
-1.0
 36
0.0
 17
0.0
 27
0.0
 37
0.0
 40
1319.822715
 41
0.013454
 42
50.0
 43
672.020833
 44
-672.020833
 50
0.0
 51
0.0
 71
     0
 72
   100
 73
     1
 74
     3
 75
     0
 76
     0
 77
     0
 78
     0
  0
VPORT
  5
2C5
330
8
100
AcDbSymbolTableRecord
100
AcDbViewportTableRecord
  2
L4
 70
     0
 10
0.5
 20
0.0
 11
1.0
 21
0.5
 12
0.0
 22
0.0
 13
0.0
 23
0.0
 14
0.5
 24
0.5
 15
0.5
 25
0.5
 16
1.0
 26
0.0
 36
0.0
 17
0.0
 27
0.0
 37
0.0
 40
1319.822715
 41
0.013454
 42
50.0
 43
672.020833
 44
-672.020833
 50
0.0
 51
0.0
 71
     0
 72
   100
 73
     1
 74
     3
 75
     0
 76
     0
 77
     0
 78
     0
  0
VPORT
  5
2C6
330
8
100
AcDbSymbolTableRecord
100
AcDbViewportTableRecord
  2
L4
 70
     0
 10
0.5
 20
0.5
 11
1.0
 21
1.0
 12
0.0
 22
0.0
 13
0.0
 23
0.0
 14
0.5
 24
0.5
 15
0.5
 25
0.5
 16
0.5773502691896258
 26
-0.5773502691896258
 36
0.5773502691896258
 17
0.0
 27
0.0
 37
0.0
 40
1285.020866
 41
0.013818
 42
50.0
 43
667.141407
 44
-667.141407
 50
0.0
 51
0.0
 71
     0
 72
   100
 73
     1
 74
     3
 75
     0
 76
     0
 77
     0
 78
     0
  0
VPORT
  5
2C7
330
8
100
AcDbSymbolTableRecord
100
AcDbViewportTableRecord
  2
L6
 70
     0
 10
0.0
 20
0.5
 11
0.333333
 21
1.0
 12
0.0
 22
0.0
 13
0.0
 23
0.0
 14
0.5
 24
0.5
 15
0.5
 25
0.5
 16
0.7188730927569434
 26
-0.5850486126764431
 36
0.3754192287502549
 17
0.0
 27
0.0
 37
0.0
 40
1357.434192
 41
0.013081
 42
50.0
 43
701.839477
 44
-701.839477
 50
0.0
 51
0.0
 71
     0
 72
   100
 73
     1
 74
     3
 75
     0
 76
     0
 77
     0
 78
     0
  0
VPORT
  5
2C8
330
8
100
AcDbSymbolTableRecord
100
AcDbViewportTableRecord
  2
L6
 70
     0
 10
0.0
 20
0.0
 11
0.333333
 21
0.5
 12
0.0
 22
0.0
 13
0.0
 23
0.0
 14
0.5
 24
0.5
 15
0.5
 25
0.5
 16
-1.0
 26
0.0
 36
0.0
 17
0.0
 27
0.0
 37
0.0
 40
1319.822715
 41
0.013454
 42
50.0
 43
672.020833
 44
-672.020833
 50
0.0
 51
0.0
 71
     0
 72
   100
 73
     1
 74
     3
 75
     0
 76
     0
 77
     0
 78
     0
  0
VPORT
  5
2C9
330
8
100
AcDbSymbolTableRecord
100
AcDbViewportTableRecord
  2
L6
 70
     0
 10
0.333333
 20
0.5
 11
0.666667
 21
1.0
 12
207.48
 22
148.5
 13
0.0
 23
0.0
 14
0.5
 24
0.5
 15
0.5
 25
0.5
 16
0.0
 26
0.0
 36
1.0
 17
0.0
 27
0.0
 37
0.0
 40
254.0
 41
0.069908
 42
50.0
 43
804.295265
 44
-804.295265
 50
0.0
 51
0.0
 71
     0
 72
   100
 73
     1
 74
     3
 75
     0
 76
     0
 77
     0
 78
     0
  0
VPORT
  5
2CA
330
8
100
AcDbSymbolTableRecord
100
AcDbViewportTableRecord
  2
L6
 70
     0
 10
0.333333
 20
0.0
 11
0.666667
 21
0.5
 12
0.0
 22
0.0
 13
0.0
 23
0.0
 14
0.5
 24
0.5
 15
0.5
 25
0.5
 16
0.0
 26
-1.0
 36
0.0
 17
0.0
 27
0.0
 37
0.0
 40
1319.822715
 41
0.013454
 42
50.0
 43
672.020833
 44
-672.020833
 50
0.0
 51
0.0
 71
     0
 72
   100
 73
     1
 74
     3
 75
     0
 76
     0
 77
     0
 78
     0
  0
VPORT
  5
2CB
330
8
100
AcDbSymbolTableRecord
100
AcDbViewportTableRecord
  2
L6
 70
     0
 10
0.666667
 20
0.5
 11
1.0
 21
1.0
 12
0.0
 22
0.0
 13
0.0
 23
0.0
 14
0.5
 24
0.5
 15
0.5
 25
0.5
 16
0.5773502691896258
 26
-0.5773502691896258
 36
0.5773502691896258
 17
0.0
 27
0.0
 37
0.0
 40
1285.020866
 41
0.013818
 42
50.0
 43
667.141407
 44
-667.141407
 50
0.0
 51
0.0
 71
     0
 72
   100
 73
     1
 74
     3
 75
     0
 76
     0
 77
     0
 78
     0
  0
VPORT
  5
2CC
330
8
100
AcDbSymbolTableRecord
100
AcDbViewportTableRecord
  2
L6
 70
     0
 10
0.666667
 20
0.0
 11
1.0
 21
0.5
 12
0.0
 22
0.0
 13
0.0
 23
0.0
 14
0.5
 24
0.5
 15
0.5
 25
0.5
 16
1.0
 26
0.0
 36
0.0
 17
0.0
 27
0.0
 37
0.0
 40
1319.822715
 41
0.013454
 42
50.0
 43
672.020833
 44
-672.020833
 50
0.0
 51
0.0
 71
     0
 72
   100
 73
     1
 74
     3
 75
     0
 76
     0
 77
     0
 78
     0
  0
ENDTAB
  0
TABLE
  2
LTYPE
  5
5
330
0
100
AcDbSymbolTable
 70
     7
  0
LTYPE
  5
14
330
5
100
AcDbSymbolTableRecord
100
AcDbLinetypeTableRecord
  2
BYBLOCK
 70
     0
  3

 72
    65
 73
     0
 40
0.0
  0
LTYPE
  5
15
330
5
100
AcDbSymbolTableRecord
100
AcDbLinetypeTableRecord
  2
BYLAYER
 70
     0
  3

 72
    65
 73
     0
 40
0.0
  0
LTYPE
  5
16
330
5
100
AcDbSymbolTableRecord
100
AcDbLinetypeTableRecord
  2
CONTINUOUS
 70
     0
  3
Solid line
 72
    65
 73
     0
 40
0.0
  0
LTYPE
  5
3F
330
5
100
AcDbSymbolTableRecord
100
AcDbLinetypeTableRecord
  2
DASHED
 70
     0
  3
__ __ __ __ __ __ __ __ __
 72
    65
 73
     2
 40
25.72
 49
12.86
 74
     4
 75
     0
340
0
 46
0.0
 50
0.0
 44
0.0
 45
0.0
 49
-12.86
 74
     4
 75
     0
340
0
 46
0.0
 50
0.0
 44
0.0
 45
0.0
  0
LTYPE
  5
40
330
5
100
AcDbSymbolTableRecord
100
AcDbLinetypeTableRecord
  2
HIDDEN
 70
     0
  3
_ _ _ _ _ _ _ _ _ _ _ _ _ _ _
 72
    65
 73
     2
 40
0.5
 49
0.25
 74
     4
 75
     0
340
0
 46
0.0
 50
0.0
 44
0.0
 45
0.0
 49
-0.25
 74
     4
 75
     0
340
0
 46
0.0
 50
0.0
 44
0.0
 45
0.0
  0
LTYPE
  5
41
330
5
100
AcDbSymbolTableRecord
100
AcDbLinetypeTableRecord
  2
PHANTOM
 70
     0
  3
____ _ _ ____ _ _ _____ _ _ ____
 72
    65
 73
     6
 40
50.5
 49
18.0
 74
     4
 75
     0
340
0
 46
0.0
 50
0.0
 44
0.0
 45
0.0
 49
-6.5
 74
     4
 75
     0
340
0
 46
0.0
 50
0.0
 44
0.0
 45
0.0
 49
6.5
 74
     4
 75
     0
340
0
 46
0.0
 50
0.0
 44
0.0
 45
0.0
 49
-6.5
 74
     4
 75
     0
340
0
 46
0.0
 50
0.0
 44
0.0
 45
0.0
 49
6.5
 74
     4
 75
     0
340
0
 46
0.0
 50
0.0
 44
0.0
 45
0.0
 49
-6.5
 74
     4
 75
     0
340
0
 46
0.0
 50
0.0
 44
0.0
 45
0.0
  0
LTYPE
  5
42
330
5
100
AcDbSymbolTableRecord
100
AcDbLinetypeTableRecord
  2
CENTER
 70
     0
  3
____ _ ____ _ ____ _ ____
 72
    65
 73
     4
 40
47.4
 49
22.0
 74
     4
 75
     0
340
0
 46
0.0
 50
0.0
 44
0.0
 45
0.0
 49
-8.5
 74
     4
 75
     0
340
0
 46
0.0
 50
0.0
 44
0.0
 45
0.0
 49
8.5
 74
     4
 75
     0
340
0
 46
0.0
 50
0.0
 44
0.0
 45
0.0
 49
-8.5
 74
     4
 75
     0
340
0
 46
0.0
 50
0.0
 44
0.0
 45
0.0
  0
LTYPE
  5
43
330
5
100
AcDbSymbolTableRecord
100
AcDbLinetypeTableRecord
  2
DOT
 70
     0
  3
.........................
 72
    65
 73
     2
 40
10.0
 49
0.0
 74
     4
 75
     0
340
0
 46
0.0
 50
0.0
 44
0.0
 45
0.0
 49
-10.0
 74
     4
 75
     0
340
0
 46
0.0
 50
0.0
 44
0.0
 45
0.0
  0
LTYPE
  5
44
330
5
100
AcDbSymbolTableRecord
100
AcDbLinetypeTableRecord
  2
DASHDOT
 70
     0
  3
_._._._._._._._._._._._._._._._.
 72
    65
 73
     4
 40
70.0
 49
31.0
 74
     4
 75
     0
340
0
 46
0.0
 50
0.0
 44
0.0
 45
0.0
 49
-13.0
 74
     4
 75
     0
340
0
 46
0.0
 50
0.0
 44
0.0
 45
0.0
 49
13.0
 74
     4
 75
     0
340
0
 46
0.0
 50
0.0
 44
0.0
 45
0.0
 49
-13.0
 74
     4
 75
     0
340
0
 46
0.0
 50
0.0
 44
0.0
 45
0.0
  0
ENDTAB
  0
TABLE
  2
LAYER
  5
2
330
0
100
AcDbSymbolTable
 70
     5
  0
LAYER
  5
10
330
2
100
AcDbSymbolTableRecord
100
AcDbLayerTableRecord
  2
0
 70
     0
 62
     7
  6
CONTINUOUS
  0
LAYER
  5
46
330
2
100
AcDbSymbolTableRecord
100
AcDbLayerTableRecord
  2
1
 70
     0
 62
     7
  6
CONTINUOUS
  0
LAYER
  5
E8
330
2
100
AcDbSymbolTableRecord
100
AcDbLayerTableRecord
  2
255
 70
     0
 62
     7
  6
CONTINUOUS
  0
LAYER
  5
193
330
2
100
AcDbSymbolTableRecord
100
AcDbLayerTableRecord
  2
256
 70
     0
 62
     7
  6
CONTINUOUS
  0
LAYER
  5
202
330
2
100
AcDbSymbolTableRecord
100
AcDbLayerTableRecord
  2
TOP
 70
     0
 62
     7
  6
CONTINUOUS
  0
ENDTAB
  0
TABLE
  2
STYLE
  5
3
330
0
100
AcDbSymbolTable
 70
     4
  0
STYLE
  5
11
330
3
100
AcDbSymbolTableRecord
100
AcDbTextStyleTableRecord
  2
STANDARD
 70
     0
 40
0.0
 41
1.0
 50
0.0
 71
     0
 42
0.2
  3
txt
  4

  0
STYLE
  5
200
330
3
100
AcDbSymbolTableRecord
100
AcDbTextStyleTableRecord
  2
DEFAULT
 70
     0
 40
0.0
 41
1.0
 50
0.0
 71
     0
 42
0.2
  3
simplex.shx
  4

  0
STYLE
  5
201
330
3
100
AcDbSymbolTableRecord
100
AcDbTextStyleTableRecord
  2
DWGDIRECTTEXTSTYLE
 70
     0
 40
0.0
 41
1.0
 50
0.0
 71
     0
 42
0.2
  3
SIMPLEX
  4
bigfont
  0
STYLE
  5
210
330
3
100
AcDbSymbolTableRecord
100
AcDbTextStyleTableRecord
  2
BLOCKFONT
 70
     0
 40
0.0
 41
1.0
 50
0.0
 71
     0
 42
0.2
  3
simplex.shx
  4

  0
ENDTAB
  0
TABLE
  2
VIEW
  5
6
330
0
100
AcDbSymbolTable
 70
     0
  0
ENDTAB
  0
TABLE
  2
UCS
  5
7
330
0
100
AcDbSymbolTable
 70
     0
  0
ENDTAB
  0
TABLE
  2
APPID
  5
9
330
0
100
AcDbSymbolTable
 70
     1
  0
APPID
  5
12
330
9
100
AcDbSymbolTableRecord
100
AcDbRegAppTableRecord
  2
ACAD
 70
     0
  0
ENDTAB
  0
TABLE
  2
DIMSTYLE
  5
A
330
0
100
AcDbSymbolTable
 70
     1
  0
DIMSTYLE
105
27
102
{ACAD_REACTORS
330
266
330
270
330
27A
330
284
330
28E
330
297
330
2B3
330
2BC
102
}
330
A
100
AcDbSymbolTableRecord
100
AcDbDimStyleTableRecord
  2
STANDARD
 70
     0
  3

  4

  5

  6

  7

 40
1.0
 41
0.18
 42
0.0625
 43
0.38
 44
0.18
 45
0.0
 46
0.0
 47
0.0
 48
0.0
140
0.18
141
0.09
142
0.0
143
25.4
144
1.0
145
0.0
146
1.0
147
0.09
 71
     0
 72
     0
 73
     1
 74
     1
 75
     0
 76
     0
 77
     0
 78
     0
170
     0
171
     2
172
     0
173
     0
174
     0
175
     0
176
     0
177
     0
178
     0
270
     2
271
     4
272
     4
273
     2
274
     2
340
11
275
     0
280
     0
281
     0
282
     0
283
     1
284
     0
285
     0
286
     0
287
     3
288
     0
  0
ENDTAB
  0
TABLE
  2
BLOCK_RECORD
  5
1
330
0
100
AcDbSymbolTable
 70
    11
  0
BLOCK_RECORD
  5
1F
330
1
100
AcDbSymbolTableRecord
100
AcDbBlockTableRecord
  2
*MODEL_SPACE
  0
BLOCK_RECORD
  5
1B
330
1
100
AcDbSymbolTableRecord
100
AcDbBlockTableRecord
  2
*PAPER_SPACE
  0
BLOCK_RECORD
  5
25D
330
1
100
AcDbSymbolTableRecord
100
AcDbBlockTableRecord
  2
DIMNDRAFT3D1
  0
BLOCK_RECORD
  5
267
330
1
100
AcDbSymbolTableRecord
100
AcDbBlockTableRecord
  2
DIMNDRAFT3D2
  0
BLOCK_RECORD
  5
271
330
1
100
AcDbSymbolTableRecord
100
AcDbBlockTableRecord
  2
DIMNDRAFT3D3
  0
BLOCK_RECORD
  5
27B
330
1
100
AcDbSymbolTableRecord
100
AcDbBlockTableRecord
  2
DIMNDRAFT3D4
  0
BLOCK_RECORD
  5
285
330
1
100
AcDbSymbolTableRecord
100
AcDbBlockTableRecord
  2
DIMNDRAFT3D5
  0
BLOCK_RECORD
  5
28F
330
1
100
AcDbSymbolTableRecord
100
AcDbBlockTableRecord
  2
DIMNDRAFT3D6
  0
BLOCK_RECORD
  5
298
330
1
100
AcDbSymbolTableRecord
100
AcDbBlockTableRecord
  2
DIMNDRAFT3D77
  0
BLOCK_RECORD
  5
2A2
330
1
100
AcDbSymbolTableRecord
100
AcDbBlockTableRecord
  2
DIMNDRAFT3D88
  0
BLOCK_RECORD
  5
2AB
330
1
100
AcDbSymbolTableRecord
100
AcDbBlockTableRecord
  2
DIMNDRAFT3D9
  0
BLOCK_RECORD
  5
2B4
330
1
100
AcDbSymbolTableRecord
100
AcDbBlockTableRecord
  2
DIMNDRAFT3D10
  0
ENDTAB
  0
ENDSEC
  0
SECTION
  2
BLOCKS
  0
BLOCK
  5
20
330
1F
100
AcDbEntity
  8
0
100
AcDbBlockBegin
  2
*MODEL_SPACE
 70
     0
 10
0.0
 20
0.0
 30
0.0
  3
*MODEL_SPACE
  1

  0
ENDBLK
  5
21
330
1F
100
AcDbEntity
  8
0
100
AcDbBlockEnd
  0
BLOCK
  5
1C
330
1B
100
AcDbEntity
 67
     1
  8
0
100
AcDbBlockBegin
  2
*PAPER_SPACE
 70
     0
 10
0.0
 20
0.0
 30
0.0
  3
*PAPER_SPACE
  1

  0
ENDBLK
  5
1D
330
1B
100
AcDbEntity
 67
     1
  8
0
100
AcDbBlockEnd
  0
BLOCK
  5
264
330
25D
100
AcDbEntity
  8
0
100
AcDbBlockBegin
  2
DIMNDRAFT3D1
 70
     0
 10
0.0
 20
0.0
 30
0.0
  3
DIMNDRAFT3D1
  1

  0
MTEXT
  5
25E
330
25D
100
AcDbEntity
  8
255
  6
CONTINUOUS
 62
     3
100
AcDbMText
 10
212.401952
 20
211.604909
 30
0.0
 40
3.5
 41
0.0
 71
     7
 72
     5
  1
\W01.000;\W00.842;10 
  7
DEFAULT
 11
6.123031769111886E-17
 21
1.0
 31
0.0
1001
ACAD
1000
MTEXTBEGIN
1070
    73
1070
     2
1070
    44
1040
0.903614
1000
MTEXTEND
1000
ACAD_MTEXT_DEFINED_HEIGHT_BEGIN
1070
    46
1040
0.2
1000
ACAD_MTEXT_DEFINED_HEIGHT_END
  0
LINE
  5
25F
330
25D
100
AcDbEntity
  8
255
  6
CONTINUOUS
 62
     3
100
AcDbLine
 10
235.670187
 20
202.059893
 30
0.0
 11
210.985855
 21
202.059893
 31
0.0
  0
LINE
  5
260
330
25D
100
AcDbEntity
  8
255
  6
CONTINUOUS
 62
     3
100
AcDbLine
 10
239.070187
 20
192.059893
 30
0.0
 11
210.985855
 21
192.059893
 31
0.0
  0
LINE
  5
261
330
25D
100
AcDbEntity
  8
255
  6
CONTINUOUS
 62
     3
100
AcDbLine
 10
212.985855
 20
183.309893
 30
0.0
 11
212.985855
 21
215.970794
 31
0.0
  0
SOLID
  5
262
330
25D
100
AcDbEntity
  8
255
  6
CONTINUOUS
 62
     3
100
AcDbTrace
 10
212.985855
 20
202.059893
 30
0.0
 11
212.048033
 21
205.559889
 31
0.0
 12
213.923677
 22
205.559896
 32
0.0
 13
212.985855
 23
202.059893
 33
0.0
  0
SOLID
  5
263
330
25D
100
AcDbEntity
  8
255
  6
CONTINUOUS
 62
     3
100
AcDbTrace
 10
212.985855
 20
192.059893
 30
0.0
 11
213.923677
 21
188.559896
 31
0.0
 12
212.048033
 22
188.559889
 32
0.0
 13
212.985855
 23
192.059893
 33
0.0
  0
ENDBLK
  5
265
330
25D
100
AcDbEntity
  8
0
100
AcDbBlockEnd
  0
BLOCK
  5
26E
330
267
100
AcDbEntity
  8
0
100
AcDbBlockBegin
  2
DIMNDRAFT3D2
 70
     0
 10
0.0
 20
0.0
 30
0.0
  3
DIMNDRAFT3D2
  1

  0
MTEXT
  5
268
330
267
100
AcDbEntity
  8
255
  6
CONTINUOUS
 62
     3
100
AcDbMText
 10
95.320268
 20
169.055636
 30
0.0
 40
3.5
 41
0.0
 71
     7
 72
     5
  1
\W01.000;\W00.798;98,6 
  7
DEFAULT
1001
ACAD
1000
MTEXTBEGIN
1070
    73
1070
     2
1070
    44
1040
0.903614
1000
MTEXTEND
1000
ACAD_MTEXT_DEFINED_HEIGHT_BEGIN
1070
    46
1040
0.2
1000
ACAD_MTEXT_DEFINED_HEIGHT_END
  0
LINE
  5
269
330
267
100
AcDbEntity
  8
255
  6
CONTINUOUS
 62
     3
100
AcDbLine
 10
148.223941
 20
215.62437
 30
0.0
 11
148.223941
 21
166.471733
 31
0.0
  0
LINE
  5
26A
330
267
100
AcDbEntity
  8
255
  6
CONTINUOUS
 62
     3
100
AcDbLine
 10
49.631358
 20
223.565322
 30
0.0
 11
49.631358
 21
166.471733
 31
0.0
  0
LINE
  5
26B
330
267
100
AcDbEntity
  8
255
  6
CONTINUOUS
 62
     3
100
AcDbLine
 10
148.223941
 20
168.471733
 30
0.0
 11
49.631358
 21
168.471733
 31
0.0
  0
SOLID
  5
26C
330
267
100
AcDbEntity
  8
255
  6
CONTINUOUS
 62
     3
100
AcDbTrace
 10
148.223941
 20
168.471733
 30
0.0
 11
144.723944
 21
167.533911
 31
0.0
 12
144.723937
 22
169.409555
 32
0.0
 13
148.223941
 23
168.471733
 33
0.0
  0
SOLID
  5
26D
330
267
100
AcDbEntity
  8
255
  6
CONTINUOUS
 62
     3
100
AcDbTrace
 10
49.631358
 20
168.471733
 30
0.0
 11
53.131354
 21
169.409555
 31
0.0
 12
53.131361
 22
167.533911
 32
0.0
 13
49.631358
 23
168.471733
 33
0.0
  0
ENDBLK
  5
26F
330
267
100
AcDbEntity
  8
0
100
AcDbBlockEnd
  0
BLOCK
  5
278
330
271
100
AcDbEntity
  8
0
100
AcDbBlockBegin
  2
DIMNDRAFT3D3
 70
     0
 10
0.0
 20
0.0
 30
0.0
  3
DIMNDRAFT3D3
  1

  0
MTEXT
  5
272
330
271
100
AcDbEntity
  8
255
  6
CONTINUOUS
 62
     3
100
AcDbMText
 10
248.156215
 20
158.152268
 30
0.0
 40
3.5
 41
0.0
 71
     7
 72
     5
  1
\W01.000;\W00.842;22 
  7
DEFAULT
1001
ACAD
1000
MTEXTBEGIN
1070
    73
1070
     2
1070
    44
1040
0.903614
1000
MTEXTEND
1000
ACAD_MTEXT_DEFINED_HEIGHT_BEGIN
1070
    46
1040
0.2
1000
ACAD_MTEXT_DEFINED_HEIGHT_END
  0
LINE
  5
273
330
271
100
AcDbEntity
  8
255
  6
CONTINUOUS
 62
     3
100
AcDbLine
 10
260.733129
 20
192.059893
 30
0.0
 11
260.733129
 21
155.568365
 31
0.0
  0
LINE
  5
274
330
271
100
AcDbEntity
  8
255
  6
CONTINUOUS
 62
     3
100
AcDbLine
 10
239.070187
 20
192.059893
 30
0.0
 11
239.070187
 21
155.568365
 31
0.0
  0
LINE
  5
275
330
271
100
AcDbEntity
  8
255
  6
CONTINUOUS
 62
     3
100
AcDbLine
 10
260.733129
 20
157.568365
 30
0.0
 11
239.070187
 21
157.568365
 31
0.0
  0
SOLID
  5
276
330
271
100
AcDbEntity
  8
255
  6
CONTINUOUS
 62
     3
100
AcDbTrace
 10
260.733129
 20
157.568365
 30
0.0
 11
257.233133
 21
156.630542
 31
0.0
 12
257.233126
 22
158.506187
 32
0.0
 13
260.733129
 23
157.568365
 33
0.0
  0
SOLID
  5
277
330
271
100
AcDbEntity
  8
255
  6
CONTINUOUS
 62
     3
100
AcDbTrace
 10
239.070187
 20
157.568365
 30
0.0
 11
242.570183
 21
158.506187
 31
0.0
 12
242.57019
 22
156.630542
 32
0.0
 13
239.070187
 23
157.568365
 33
0.0
  0
ENDBLK
  5
279
330
271
100
AcDbEntity
  8
0
100
AcDbBlockEnd
  0
BLOCK
  5
282
330
27B
100
AcDbEntity
  8
0
100
AcDbBlockBegin
  2
DIMNDRAFT3D4
 70
     0
 10
0.0
 20
0.0
 30
0.0
  3
DIMNDRAFT3D4
  1

  0
MTEXT
  5
27C
330
27B
100
AcDbEntity
  8
255
  6
CONTINUOUS
 62
     3
100
AcDbMText
 10
76.237736
 20
143.401092
 30
0.0
 40
3.5
 41
0.0
 71
     7
 72
     5
  1
\W01.000;\W00.919;90%%d 
  7
DEFAULT
 11
0.7071067811865474
 21
-0.7071067811865477
 31
0.0
1001
ACAD
1000
MTEXTBEGIN
1070
    73
1070
     2
1070
    44
1040
0.903614
1000
MTEXTEND
1000
ACAD_MTEXT_DEFINED_HEIGHT_BEGIN
1070
    46
1040
0.2
1000
ACAD_MTEXT_DEFINED_HEIGHT_END
  0
LINE
  5
27D
330
27B
100
AcDbEntity
  8
255
  6
CONTINUOUS
 62
     3
100
AcDbLine
 10
86.986697
 20
114.621879
 30
0.0
 11
90.650322
 21
114.621879
 31
0.0
  0
LINE
  5
27E
330
27B
100
AcDbEntity
  8
255
  6
CONTINUOUS
 62
     3
100
AcDbLine
 10
51.131358
 20
148.621879
 30
0.0
 11
51.131358
 21
154.140842
 31
0.0
  0
ARC
  5
27F
330
27B
100
AcDbEntity
  8
255
  6
CONTINUOUS
 62
     3
100
AcDbCircle
 10
51.131358
 20
114.621879
 30
0.0
 40
37.51896366048576
100
AcDbArc
 50
0.0
 51
90.0
  0
SOLID
  5
280
330
27B
100
AcDbEntity
  8
255
  6
CONTINUOUS
 62
     3
100
AcDbTrace
 10
88.650322
 20
114.621879
 30
0.0
 11
87.631195
 21
118.099071
 31
0.0
 12
89.50633
 22
118.142786
 32
0.0
 13
88.650322
 23
114.621879
 33
0.0
  0
SOLID
  5
281
330
27B
100
AcDbEntity
  8
255
  6
CONTINUOUS
 62
     3
100
AcDbTrace
 10
51.131358
 20
152.140842
 30
0.0
 11
54.652258
 21
152.996851
 31
0.0
 12
54.608557
 22
151.121716
 32
0.0
 13
51.131358
 23
152.140842
 33
0.0
  0
ENDBLK
  5
283
330
27B
100
AcDbEntity
  8
0
100
AcDbBlockEnd
  0
BLOCK
  5
28C
330
285
100
AcDbEntity
  8
0
100
AcDbBlockBegin
  2
DIMNDRAFT3D5
 70
     0
 10
0.0
 20
0.0
 30
0.0
  3
DIMNDRAFT3D5
  1

  0
MTEXT
  5
286
330
285
100
AcDbEntity
  8
255
  6
CONTINUOUS
 62
     3
100
AcDbMText
 10
248.318267
 20
214.772336
 30
0.0
 40
3.5
 41
0.0
 71
     7
 72
     5
  1
\W01.000;\W00.919;90%%d 
  7
DEFAULT
 11
0.8098667001346013
 21
0.5866139514306594
 31
0.0
1001
ACAD
1000
MTEXTBEGIN
1070
    73
1070
     2
1070
    44
1040
0.903614
1000
MTEXTEND
1000
ACAD_MTEXT_DEFINED_HEIGHT_BEGIN
1070
    46
1040
0.2
1000
ACAD_MTEXT_DEFINED_HEIGHT_END
  0
LINE
  5
287
330
285
100
AcDbEntity
  8
255
  6
CONTINUOUS
 62
     3
100
AcDbLine
 10
260.733129
 20
210.000845
 30
0.0
 11
260.733129
 21
221.054105
 31
0.0
  0
LINE
  5
288
330
285
100
AcDbEntity
  8
255
  6
CONTINUOUS
 62
     3
100
AcDbLine
 10
237.070187
 20
202.059893
 30
0.0
 11
245.738917
 21
202.059893
 31
0.0
  0
ARC
  5
289
330
285
100
AcDbEntity
  8
255
  6
CONTINUOUS
 62
     3
100
AcDbCircle
 10
260.733129
 20
202.059893
 30
0.0
 40
16.99421248745699
100
AcDbArc
 50
90.0
 51
180.0
  0
SOLID
  5
28A
330
285
100
AcDbEntity
  8
255
  6
CONTINUOUS
 62
     3
100
AcDbTrace
 10
260.733129
 20
219.054105
 30
0.0
 11
257.285834
 21
217.938021
 31
0.0
 12
257.189635
 22
219.811197
 32
0.0
 13
260.733129
 23
219.054105
 33
0.0
  0
SOLID
  5
28B
330
285
100
AcDbEntity
  8
255
  6
CONTINUOUS
 62
     3
100
AcDbTrace
 10
243.738917
 20
202.059893
 30
0.0
 11
242.981825
 21
205.60338
 31
0.0
 12
244.855002
 22
205.507195
 32
0.0
 13
243.738917
 23
202.059893
 33
0.0
  0
ENDBLK
  5
28D
330
285
100
AcDbEntity
  8
0
100
AcDbBlockEnd
  0
BLOCK
  5
295
330
28F
100
AcDbEntity
  8
0
100
AcDbBlockBegin
  2
DIMNDRAFT3D6
 70
     0
 10
0.0
 20
0.0
 30
0.0
  3
DIMNDRAFT3D6
  1

  0
MTEXT
  5
290
330
28F
100
AcDbEntity
  8
255
  6
CONTINUOUS
 62
     3
100
AcDbMText
 10
246.818445
 20
181.818044
 30
0.0
 40
3.5
 41
0.0
 71
     7
 72
     5
  1
\W01.000;\W00.919;90%%d 
  7
DEFAULT
 11
0.7071067811865474
 21
-0.7071067811865477
 31
0.0
1001
ACAD
1000
MTEXTBEGIN
1070
    73
1070
     2
1070
    44
1040
0.903614
1000
MTEXTEND
1000
ACAD_MTEXT_DEFINED_HEIGHT_BEGIN
1070
    46
1040
0.2
1000
ACAD_MTEXT_DEFINED_HEIGHT_END
  0
LINE
  5
291
330
28F
100
AcDbEntity
  8
255
  6
CONTINUOUS
 62
     3
100
AcDbLine
 10
260.733129
 20
184.118941
 30
0.0
 11
260.733129
 21
172.394742
 31
0.0
  0
ARC
  5
292
330
28F
100
AcDbEntity
  8
255
  6
CONTINUOUS
 62
     3
100
AcDbCircle
 10
260.733129
 20
192.059893
 30
0.0
 40
17.66515100556654
100
AcDbArc
 50
180.0
 51
270.0
  0
SOLID
  5
293
330
28F
100
AcDbEntity
  8
255
  6
CONTINUOUS
 62
     3
100
AcDbTrace
 10
243.067978
 20
192.059893
 30
0.0
 11
244.177387
 21
188.610444
 31
0.0
 12
242.304029
 22
188.517871
 32
0.0
 13
243.067978
 23
192.059893
 33
0.0
  0
SOLID
  5
294
330
28F
100
AcDbEntity
  8
255
  6
CONTINUOUS
 62
     3
100
AcDbTrace
 10
260.733129
 20
174.394742
 30
0.0
 11
257.191115
 21
173.630792
 31
0.0
 12
257.283673
 22
175.504151
 32
0.0
 13
260.733129
 23
174.394742
 33
0.0
  0
ENDBLK
  5
296
330
28F
100
AcDbEntity
  8
0
100
AcDbBlockEnd
  0
BLOCK
  5
299
330
298
100
AcDbEntity
  8
0
100
AcDbBlockBegin
  2
DIMNDRAFT3D77
 70
     0
 10
0.0
 20
0.0
 30
0.0
  3
DIMNDRAFT3D77
  1

  0
LINE
  5
29B
330
298
100
AcDbEntity
  8
255
  6
CONTINUOUS
 62
     3
100
AcDbLine
 10
148.223941
 20
114.621879
 30
0.0
 11
170.76378
 21
114.621879
 31
0.0
  0
LINE
  5
29C
330
298
100
AcDbEntity
  8
255
  6
CONTINUOUS
 62
     3
100
AcDbLine
 10
148.223941
 20
113.121879
 30
0.0
 11
170.76378
 21
113.121879
 31
0.0
  0
LINE
  5
29D
330
298
100
AcDbEntity
  8
255
  6
CONTINUOUS
 62
     3
100
AcDbLine
 10
168.76378
 20
104.371879
 30
0.0
 11
168.76378
 21
129.345354
 31
0.0
  0
SOLID
  5
29E
330
298
100
AcDbEntity
  8
255
  6
CONTINUOUS
 62
     3
100
AcDbTrace
 10
168.76378
 20
114.621879
 30
0.0
 11
167.825958
 21
118.121875
 31
0.0
 12
169.701602
 22
118.121882
 32
0.0
 13
168.76378
 23
114.621879
 33
0.0
  0
SOLID
  5
29F
330
298
100
AcDbEntity
  8
255
  6
CONTINUOUS
 62
     3
100
AcDbTrace
 10
168.76378
 20
113.121879
 30
0.0
 11
169.701602
 21
109.621882
 31
0.0
 12
167.825958
 22
109.621875
 32
0.0
 13
168.76378
 23
113.121879
 33
0.0
  0
MTEXT
  5
2A0
330
298
100
AcDbEntity
  8
255
  6
CONTINUOUS
 62
     3
100
AcDbMText
 10
168.179877
 20
123.829322
 30
0.0
 40
3.5
 41
0.0
 71
     7
 72
     5
  1
\W00.810;1,5 
  7
DEFAULT
 11
6.123031769111886E-17
 21
1.0
 31
0.0
1001
ACAD
1000
MTEXTBEGIN
1070
    73
1070
     2
1070
    44
1040
0.903614
1000
MTEXTEND
1000
ACAD_MTEXT_DEFINED_HEIGHT_BEGIN
1070
    46
1040
0.2
1000
ACAD_MTEXT_DEFINED_HEIGHT_END
  0
ENDBLK
  5
29A
330
298
100
AcDbEntity
  8
0
100
AcDbBlockEnd
  0
BLOCK
  5
2A3
330
2A2
100
AcDbEntity
  8
0
100
AcDbBlockBegin
  2
DIMNDRAFT3D88
 70
     0
 10
0.0
 20
0.0
 30
0.0
  3
DIMNDRAFT3D88
  1

  0
LINE
  5
2A5
330
2A2
100
AcDbEntity
  8
255
  6
CONTINUOUS
 62
     3
100
AcDbLine
 10
175.739233
 20
233.565322
 30
0.0
 11
175.739233
 21
250.73418
 31
0.0
  0
LINE
  5
2A6
330
2A2
100
AcDbEntity
  8
255
  6
CONTINUOUS
 62
     3
100
AcDbLine
 10
175.739233
 20
248.73418
 30
0.0
 11
196.339233
 21
248.73418
 31
0.0
  0
SOLID
  5
2A7
330
2A2
100
AcDbEntity
  8
255
  6
CONTINUOUS
 62
     3
100
AcDbTrace
 10
175.739233
 20
248.73418
 30
0.0
 11
179.239229
 21
249.672002
 31
0.0
 12
179.239236
 22
247.796358
 32
0.0
 13
175.739233
 23
248.73418
 33
0.0
  0
SOLID
  5
2A8
330
2A2
100
AcDbEntity
  8
255
  6
CONTINUOUS
 62
     3
100
AcDbTrace
 10
196.339233
 20
248.73418
 30
0.0
 11
192.839236
 21
247.796358
 31
0.0
 12
192.839229
 22
249.672002
 32
0.0
 13
196.339233
 23
248.73418
 33
0.0
  0
MTEXT
  5
2A9
330
2A2
100
AcDbEntity
  8
255
  6
CONTINUOUS
 62
     3
100
AcDbMText
 10
181.228904
 20
249.318083
 30
0.0
 40
3.5
 41
0.0
 71
     7
 72
     5
  1
\W00.803;20,6 
  7
DEFAULT
1001
ACAD
1000
MTEXTBEGIN
1070
    73
1070
     2
1070
    44
1040
0.903614
1000
MTEXTEND
1000
ACAD_MTEXT_DEFINED_HEIGHT_BEGIN
1070
    46
1040
0.2
1000
ACAD_MTEXT_DEFINED_HEIGHT_END
  0
ENDBLK
  5
2A4
330
2A2
100
AcDbEntity
  8
0
100
AcDbBlockEnd
  0
BLOCK
  5
2B1
330
2AB
100
AcDbEntity
  8
0
100
AcDbBlockBegin
  2
DIMNDRAFT3D9
 70
     0
 10
0.0
 20
0.0
 30
0.0
  3
DIMNDRAFT3D9
  1

  0
MTEXT
  5
2AC
330
2AB
100
AcDbEntity
  8
255
  6
CONTINUOUS
 62
     3
100
AcDbMText
 10
324.371468
 20
264.199422
 30
0.0
 40
3.5
 41
0.0
 71
     7
 72
     5
  1
\W01.000;\W00.810;3,3 
  7
DEFAULT
 11
0.5817433772437399
 21
-0.8133723889050127
 31
0.0
1001
ACAD
1000
MTEXTBEGIN
1070
    73
1070
     2
1070
    44
1040
0.903614
1000
MTEXTEND
1000
ACAD_MTEXT_DEFINED_HEIGHT_BEGIN
1070
    46
1040
0.2
1000
ACAD_MTEXT_DEFINED_HEIGHT_END
  0
MTEXT
  5
2AD
330
2AB
100
AcDbEntity
  8
255
  6
CONTINUOUS
 62
     3
100
AcDbMText
 10
320.299264
 20
269.893029
 30
0.0
 40
3.5
 41
0.0
 71
     7
 72
     5
  1
\W01.000;%%c 
  7
DEFAULT
 11
0.5817433772437399
 21
-0.8133723889050127
 31
0.0
1001
ACAD
1000
MTEXTBEGIN
1070
    73
1070
     2
1070
    44
1040
0.903614
1000
MTEXTEND
1000
ACAD_MTEXT_DEFINED_HEIGHT_BEGIN
1070
    46
1040
0.2
1000
ACAD_MTEXT_DEFINED_HEIGHT_END
  0
LINE
  5
2AE
330
2AB
100
AcDbEntity
  8
255
  6
CONTINUOUS
 62
     3
100
AcDbLine
 10
318.603607
 20
269.756023
 30
0.0
 11
342.779422
 21
235.954279
 31
0.0
  0
SOLID
  5
2AF
330
2AB
100
AcDbEntity
  8
255
  6
CONTINUOUS
 62
     3
100
AcDbTrace
 10
337.689168
 20
243.071287
 30
0.0
 11
340.488066
 21
240.770058
 31
0.0
 12
338.962473
 22
239.678909
 32
0.0
 13
337.689168
 23
243.071287
 33
0.0
  0
SOLID
  5
2B0
330
2AB
100
AcDbEntity
  8
255
  6
CONTINUOUS
 62
     3
100
AcDbTrace
 10
335.769415
 20
245.755416
 30
0.0
 11
332.970516
 21
248.056645
 31
0.0
 12
334.49611
 22
249.147794
 32
0.0
 13
335.769415
 23
245.755416
 33
0.0
  0
ENDBLK
  5
2B2
330
2AB
100
AcDbEntity
  8
0
100
AcDbBlockEnd
  0
BLOCK
  5
2BA
330
2B4
100
AcDbEntity
  8
0
100
AcDbBlockBegin
  2
DIMNDRAFT3D10
 70
     0
 10
0.0
 20
0.0
 30
0.0
  3
DIMNDRAFT3D10
  1

  0
MTEXT
  5
2B5
330
2B4
100
AcDbEntity
  8
255
  6
CONTINUOUS
 62
     3
100
AcDbMText
 10
289.94132
 20
184.087814
 30
0.0
 40
3.5
 41
0.0
 71
     7
 72
     5
  1
\W01.000;\W00.842;86 
  7
DEFAULT
 11
0.7898988302248242
 21
0.6132371792458888
 31
0.0
1001
ACAD
1000
MTEXTBEGIN
1070
    73
1070
     2
1070
    44
1040
0.903614
1000
MTEXTEND
1000
ACAD_MTEXT_DEFINED_HEIGHT_BEGIN
1070
    46
1040
0.2
1000
ACAD_MTEXT_DEFINED_HEIGHT_END
  0
MTEXT
  5
2B6
330
2B4
100
AcDbEntity
  8
255
  6
CONTINUOUS
 62
     3
100
AcDbMText
 10
284.412028
 20
179.795154
 30
0.0
 40
3.5
 41
0.0
 71
     7
 72
     5
  1
\W01.000;%%c 
  7
DEFAULT
 11
0.7898988302248242
 21
0.6132371792458888
 31
0.0
1001
ACAD
1000
MTEXTBEGIN
1070
    73
1070
     2
1070
    44
1040
0.903614
1000
MTEXTEND
1000
ACAD_MTEXT_DEFINED_HEIGHT_BEGIN
1070
    46
1040
0.2
1000
ACAD_MTEXT_DEFINED_HEIGHT_END
  0
LINE
  5
2B7
330
2B4
100
AcDbEntity
  8
255
  6
CONTINUOUS
 62
     3
100
AcDbLine
 10
342.99507
 20
223.429092
 30
0.0
 11
275.063771
 21
170.690694
 31
0.0
  0
SOLID
  5
2B8
330
2B4
100
AcDbEntity
  8
255
  6
CONTINUOUS
 62
     3
100
AcDbTrace
 10
342.99507
 20
223.429092
 30
0.0
 11
340.805534
 21
220.541979
 31
0.0
 12
339.655314
 22
222.023544
 32
0.0
 13
342.99507
 23
223.429092
 33
0.0
  0
SOLID
  5
2B9
330
2B4
100
AcDbEntity
  8
255
  6
CONTINUOUS
 62
     3
100
AcDbTrace
 10
275.063771
 20
170.690694
 30
0.0
 11
277.253306
 21
173.577807
 31
0.0
 12
278.403527
 22
172.096242
 32
0.0
 13
275.063771
 23
170.690694
 33
0.0
  0
ENDBLK
  5
2BB
330
2B4
100
AcDbEntity
  8
0
100
AcDbBlockEnd
  0
ENDSEC
  0
SECTION
  2
ENTITIES
  0
LINE
  5
45
330
1F
100
AcDbEntity
  8
1
  6
CONTINUOUS
 62
     2
100
AcDbLine
 10
51.631358
 20
223.565322
 30
0.0
 11
51.631358
 21
215.62437
 31
0.0
  0
LINE
  5
47
330
1F
100
AcDbEntity
  8
1
  6
CONTINUOUS
 62
     2
100
AcDbLine
 10
148.223941
 20
215.62437
 30
0.0
 11
148.223941
 21
241.506274
 31
0.0
  0
LINE
  5
48
330
1F
100
AcDbEntity
  8
1
  6
CONTINUOUS
 62
     2
100
AcDbLine
 10
112.868601
 20
276.861613
 30
0.0
 11
86.986697
 21
276.861613
 31
0.0
  0
LINE
  5
49
330
1F
100
AcDbEntity
  8
1
  6
CONTINUOUS
 62
     2
100
AcDbLine
 10
86.986697
 20
180.26903
 30
0.0
 11
112.868601
 21
180.26903
 31
0.0
  0
LINE
  5
4A
330
1F
100
AcDbEntity
  8
1
  6
CONTINUOUS
 62
     2
100
AcDbLine
 10
49.631358
 20
233.565322
 30
0.0
 11
51.631358
 21
233.565322
 31
0.0
  0
LINE
  5
4B
330
1F
100
AcDbEntity
  8
1
  6
CONTINUOUS
 62
     2
100
AcDbLine
 10
51.631358
 20
233.565322
 30
0.0
 11
51.631358
 21
223.565322
 31
0.0
  0
LINE
  5
4C
330
1F
100
AcDbEntity
  8
1
  6
CONTINUOUS
 62
     2
100
AcDbLine
 10
148.223941
 20
241.506274
 30
0.0
 11
135.282988
 21
263.920661
 31
0.0
  0
LINE
  5
4D
330
1F
100
AcDbEntity
  8
1
  6
CONTINUOUS
 62
     2
100
AcDbLine
 10
49.631358
 20
223.565322
 30
0.0
 11
49.631358
 21
233.565322
 31
0.0
  0
LINE
  5
4E
330
1F
100
AcDbEntity
  8
1
  6
CONTINUOUS
 62
     2
100
AcDbLine
 10
64.57231
 20
193.209983
 30
0.0
 11
86.986697
 21
180.26903
 31
0.0
  0
LINE
  5
4F
330
1F
100
AcDbEntity
  8
1
  6
CONTINUOUS
 62
     2
100
AcDbLine
 10
51.631358
 20
215.62437
 30
0.0
 11
64.57231
 21
193.209983
 31
0.0
  0
LINE
  5
50
330
1F
100
AcDbEntity
  8
1
  6
CONTINUOUS
 62
     2
100
AcDbLine
 10
119.745668
 20
272.891137
 30
0.0
 11
112.868601
 21
276.861613
 31
0.0
  0
LINE
  5
51
330
1F
100
AcDbEntity
  8
1
  6
CONTINUOUS
 62
     2
100
AcDbLine
 10
128.405922
 20
267.891137
 30
0.0
 11
119.745668
 21
272.891137
 31
0.0
  0
LINE
  5
52
330
1F
100
AcDbEntity
  8
1
  6
CONTINUOUS
 62
     2
100
AcDbLine
 10
120.745668
 20
182.507456
 30
0.0
 11
119.745668
 21
184.239507
 31
0.0
  0
LINE
  5
53
330
1F
100
AcDbEntity
  8
1
  6
CONTINUOUS
 62
     2
100
AcDbLine
 10
64.57231
 20
263.920661
 30
0.0
 11
51.631358
 21
241.506274
 31
0.0
  0
LINE
  5
54
330
1F
100
AcDbEntity
  8
1
  6
CONTINUOUS
 62
     2
100
AcDbLine
 10
86.986697
 20
276.861613
 30
0.0
 11
64.57231
 21
263.920661
 31
0.0
  0
LINE
  5
55
330
1F
100
AcDbEntity
  8
1
  6
CONTINUOUS
 62
     2
100
AcDbLine
 10
119.745668
 20
184.239507
 30
0.0
 11
128.405922
 21
189.239507
 31
0.0
  0
LINE
  5
56
330
1F
100
AcDbEntity
  8
1
  6
CONTINUOUS
 62
     2
100
AcDbLine
 10
112.868601
 20
180.26903
 30
0.0
 11
119.745668
 21
184.239507
 31
0.0
  0
LINE
  5
57
330
1F
100
AcDbEntity
  8
1
  6
CONTINUOUS
 62
     2
100
AcDbLine
 10
135.282988
 20
193.209983
 30
0.0
 11
148.223941
 21
215.62437
 31
0.0
  0
LINE
  5
58
330
1F
100
AcDbEntity
  8
1
  6
CONTINUOUS
 62
     2
100
AcDbLine
 10
128.405922
 20
189.239507
 30
0.0
 11
135.282988
 21
193.209983
 31
0.0
  0
LINE
  5
59
330
1F
100
AcDbEntity
  8
1
  6
CONTINUOUS
 62
     2
100
AcDbLine
 10
135.282988
 20
263.920661
 30
0.0
 11
128.405922
 21
267.891137
 31
0.0
  0
LINE
  5
5A
330
1F
100
AcDbEntity
  8
1
  6
CONTINUOUS
 62
     2
100
AcDbLine
 10
119.745668
 20
272.891137
 30
0.0
 11
120.745668
 21
274.623188
 31
0.0
  0
LINE
  5
5B
330
1F
100
AcDbEntity
  8
1
  6
CONTINUOUS
 62
     2
100
AcDbLine
 10
120.745668
 20
274.623188
 30
0.0
 11
129.405922
 21
269.623188
 31
0.0
  0
LINE
  5
5C
330
1F
100
AcDbEntity
  8
1
  6
CONTINUOUS
 62
     2
100
AcDbLine
 10
129.405922
 20
187.507456
 30
0.0
 11
120.745668
 21
182.507456
 31
0.0
  0
LINE
  5
5D
330
1F
100
AcDbEntity
  8
1
  6
CONTINUOUS
 62
     2
100
AcDbLine
 10
129.405922
 20
269.623188
 30
0.0
 11
128.405922
 21
267.891137
 31
0.0
  0
LINE
  5
5E
330
1F
100
AcDbEntity
  8
1
  6
CONTINUOUS
 62
     2
100
AcDbLine
 10
128.405922
 20
189.239507
 30
0.0
 11
129.405922
 21
187.507456
 31
0.0
  0
LINE
  5
5F
330
1F
100
AcDbEntity
  8
1
  6
CONTINUOUS
 62
     2
100
AcDbLine
 10
51.631358
 20
241.506274
 30
0.0
 11
51.631358
 21
233.565322
 31
0.0
  0
LINE
  5
60
330
1F
100
AcDbEntity
  8
1
  6
CONTINUOUS
 62
     2
100
AcDbLine
 10
51.631358
 20
223.565322
 30
0.0
 11
49.631358
 21
223.565322
 31
0.0
  0
LINE
  5
61
330
1F
100
AcDbEntity
  8
1
  6
CONTINUOUS
 62
     2
100
AcDbLine
 10
49.631358
 20
135.221879
 30
0.0
 11
49.631358
 21
115.121879
 31
0.0
  0
LINE
  5
62
330
1F
100
AcDbEntity
  8
1
  6
CONTINUOUS
 62
     2
100
AcDbLine
 10
112.868601
 20
113.121879
 30
0.0
 11
86.986697
 21
113.121879
 31
0.0
  0
LINE
  5
63
330
1F
100
AcDbEntity
  8
1
  6
CONTINUOUS
 62
     2
100
AcDbLine
 10
64.57231
 20
114.621879
 30
0.0
 11
86.986697
 21
114.621879
 31
0.0
  0
LINE
  5
64
330
1F
100
AcDbEntity
  8
1
  6
CONTINUOUS
 62
     2
100
AcDbLine
 10
51.131358
 20
148.621879
 30
0.0
 11
51.131358
 21
138.621879
 31
0.0
  0
LINE
  5
65
330
1F
100
AcDbEntity
  8
1
  6
CONTINUOUS
 62
     2
100
AcDbLine
 10
148.223941
 20
113.121879
 30
0.0
 11
135.282988
 21
113.121879
 31
0.0
  0
LINE
  5
66
330
1F
100
AcDbEntity
  8
1
  6
CONTINUOUS
 62
     2
100
AcDbLine
 10
119.745668
 20
113.121879
 30
0.0
 11
112.868601
 21
113.121879
 31
0.0
  0
LINE
  5
67
330
1F
100
AcDbEntity
  8
1
  6
CONTINUOUS
 62
     2
100
AcDbLine
 10
128.405922
 20
113.121879
 30
0.0
 11
119.745668
 21
113.121879
 31
0.0
  0
LINE
  5
68
330
1F
100
AcDbEntity
  8
1
  6
CONTINUOUS
 62
     2
100
AcDbLine
 10
64.57231
 20
113.121879
 30
0.0
 11
51.631358
 21
113.121879
 31
0.0
  0
LINE
  5
69
330
1F
100
AcDbEntity
  8
1
  6
CONTINUOUS
 62
     2
100
AcDbLine
 10
86.986697
 20
113.121879
 30
0.0
 11
64.57231
 21
113.121879
 31
0.0
  0
LINE
  5
6A
330
1F
100
AcDbEntity
  8
1
  6
CONTINUOUS
 62
     2
100
AcDbLine
 10
135.282988
 20
113.121879
 30
0.0
 11
128.405922
 21
113.121879
 31
0.0
  0
LINE
  5
6B
330
1F
100
AcDbEntity
  8
1
  6
CONTINUOUS
 62
     2
100
AcDbLine
 10
120.745668
 20
115.121879
 30
0.0
 11
129.405922
 21
115.121879
 31
0.0
  0
LINE
  5
6C
330
1F
100
AcDbEntity
  8
1
  6
CONTINUOUS
 62
     2
100
AcDbLine
 10
119.745668
 20
114.621879
 30
0.0
 11
119.745668
 21
113.121879
 31
0.0
  0
LINE
  5
6D
330
1F
100
AcDbEntity
  8
1
  6
CONTINUOUS
 62
     2
100
AcDbLine
 10
148.223941
 20
113.121879
 30
0.0
 11
148.223941
 21
114.621879
 31
0.0
  0
LINE
  5
6E
330
1F
100
AcDbEntity
  8
1
  6
CONTINUOUS
 62
     2
100
AcDbLine
 10
112.868601
 20
113.121879
 30
0.0
 11
112.868601
 21
114.621879
 31
0.0
  0
LINE
  5
6F
330
1F
100
AcDbEntity
  8
1
  6
CONTINUOUS
 62
     2
100
AcDbLine
 10
51.631358
 20
113.121879
 30
0.0
 11
51.631358
 21
114.621879
 31
0.0
  0
LINE
  5
70
330
1F
100
AcDbEntity
  8
1
  6
CONTINUOUS
 62
     2
100
AcDbLine
 10
64.57231
 20
113.121879
 30
0.0
 11
64.57231
 21
114.621879
 31
0.0
  0
LINE
  5
71
330
1F
100
AcDbEntity
  8
1
  6
CONTINUOUS
 62
     2
100
AcDbLine
 10
86.986697
 20
113.121879
 30
0.0
 11
86.986697
 21
114.621879
 31
0.0
  0
LINE
  5
72
330
1F
100
AcDbEntity
  8
1
  6
CONTINUOUS
 62
     2
100
AcDbLine
 10
135.282988
 20
113.121879
 30
0.0
 11
135.282988
 21
114.621879
 31
0.0
  0
LINE
  5
73
330
1F
100
AcDbEntity
  8
1
  6
CONTINUOUS
 62
     2
100
AcDbLine
 10
129.374191
 20
114.621879
 30
0.0
 11
135.282988
 21
114.621879
 31
0.0
  0
LINE
  5
74
330
1F
100
AcDbEntity
  8
1
  6
CONTINUOUS
 62
     2
100
AcDbLine
 10
51.631358
 20
114.621879
 30
0.0
 11
64.57231
 21
114.621879
 31
0.0
  0
LINE
  5
75
330
1F
100
AcDbEntity
  8
1
  6
CONTINUOUS
 62
     2
100
AcDbLine
 10
86.986697
 20
114.621879
 30
0.0
 11
112.868601
 21
114.621879
 31
0.0
  0
LINE
  5
76
330
1F
100
AcDbEntity
  8
1
  6
CONTINUOUS
 62
     2
100
AcDbLine
 10
135.282988
 20
114.621879
 30
0.0
 11
148.223941
 21
114.621879
 31
0.0
  0
LINE
  5
77
330
1F
100
AcDbEntity
  8
1
  6
CONTINUOUS
 62
     2
100
AcDbLine
 10
112.868601
 20
114.621879
 30
0.0
 11
119.745668
 21
114.621879
 31
0.0
  0
LINE
  5
78
330
1F
100
AcDbEntity
  8
1
  6
CONTINUOUS
 62
     2
100
AcDbLine
 10
49.631358
 20
138.621879
 30
0.0
 11
49.631358
 21
137.221879
 31
0.0
  0
LINE
  5
79
330
1F
100
AcDbEntity
  8
1
  6
CONTINUOUS
 62
     2
100
AcDbLine
 10
120.745668
 20
138.821879
 30
0.0
 11
120.745668
 21
137.221879
 31
0.0
  0
LINE
  5
7A
330
1F
100
AcDbEntity
  8
1
  6
CONTINUOUS
 62
     2
100
AcDbLine
 10
129.405922
 20
137.221879
 30
0.0
 11
129.405922
 21
138.821879
 31
0.0
  0
LINE
  5
7B
330
1F
100
AcDbEntity
  8
1
  6
CONTINUOUS
 62
     2
100
AcDbLine
 10
119.995668
 20
138.821879
 30
0.0
 11
119.995668
 21
137.221879
 31
0.0
  0
LINE
  5
7C
330
1F
100
AcDbEntity
  8
1
  6
CONTINUOUS
 62
     2
100
AcDbLine
 10
51.131358
 20
138.621879
 30
0.0
 11
51.131358
 21
137.221879
 31
0.0
  0
LINE
  5
7D
330
1F
100
AcDbEntity
  8
1
  6
CONTINUOUS
 62
     2
100
AcDbLine
 10
128.539896
 20
148.821879
 30
0.0
 11
121.611693
 21
148.821879
 31
0.0
  0
LINE
  5
7E
330
1F
100
AcDbEntity
  8
1
  6
CONTINUOUS
 62
     2
100
AcDbLine
 10
120.745668
 20
135.221879
 30
0.0
 11
120.745668
 21
115.121879
 31
0.0
  0
LINE
  5
7F
330
1F
100
AcDbEntity
  8
1
  6
CONTINUOUS
 62
     2
100
AcDbLine
 10
129.405922
 20
115.121879
 30
0.0
 11
129.405922
 21
135.221879
 31
0.0
  0
LINE
  5
80
330
1F
100
AcDbEntity
  8
1
  6
CONTINUOUS
 62
     2
100
AcDbLine
 10
119.995668
 20
135.221879
 30
0.0
 11
119.995668
 21
115.121879
 31
0.0
  0
LINE
  5
81
330
1F
100
AcDbEntity
  8
1
  6
CONTINUOUS
 62
     2
100
AcDbLine
 10
51.131358
 20
135.221879
 30
0.0
 11
51.131358
 21
115.121879
 31
0.0
  0
LINE
  5
82
330
1F
100
AcDbEntity
  8
1
  6
CONTINUOUS
 62
     2
100
AcDbLine
 10
120.745668
 20
135.221879
 30
0.0
 11
124.751302
 21
135.221879
 31
0.0
  0
LINE
  5
83
330
1F
100
AcDbEntity
  8
1
  6
CONTINUOUS
 62
     2
100
AcDbLine
 10
120.745668
 20
135.221879
 30
0.0
 11
119.995668
 21
135.221879
 31
0.0
  0
LINE
  5
84
330
1F
100
AcDbEntity
  8
1
  6
CONTINUOUS
 62
     2
100
AcDbLine
 10
123.891896
 20
137.221879
 30
0.0
 11
123.891896
 21
135.221879
 31
0.0
  0
LINE
  5
85
330
1F
100
AcDbEntity
  8
1
  6
CONTINUOUS
 62
     2
100
AcDbLine
 10
51.131358
 20
135.221879
 30
0.0
 11
51.131358
 21
137.221879
 31
0.0
  0
LINE
  5
86
330
1F
100
AcDbEntity
  8
1
  6
CONTINUOUS
 62
     2
100
AcDbLine
 10
49.631358
 20
137.221879
 30
0.0
 11
49.631358
 21
135.221879
 31
0.0
  0
LINE
  5
87
330
1F
100
AcDbEntity
  8
1
  6
CONTINUOUS
 62
     2
100
AcDbLine
 10
49.631358
 20
135.221879
 30
0.0
 11
51.131358
 21
135.221879
 31
0.0
  0
LINE
  5
88
330
1F
100
AcDbEntity
  8
1
  6
CONTINUOUS
 62
     2
100
AcDbLine
 10
124.001302
 20
135.221879
 30
0.0
 11
124.001302
 21
137.221879
 31
0.0
  0
LINE
  5
89
330
1F
100
AcDbEntity
  8
1
  6
CONTINUOUS
 62
     2
100
AcDbLine
 10
124.751302
 20
135.221879
 30
0.0
 11
124.751302
 21
137.221879
 31
0.0
  0
LINE
  5
8A
330
1F
100
AcDbEntity
  8
1
  6
CONTINUOUS
 62
     2
100
AcDbLine
 10
125.617327
 20
135.221879
 30
0.0
 11
129.405922
 21
135.221879
 31
0.0
  0
LINE
  5
8B
330
1F
100
AcDbEntity
  8
1
  6
CONTINUOUS
 62
     2
100
AcDbLine
 10
125.617327
 20
137.221879
 30
0.0
 11
125.617327
 21
135.221879
 31
0.0
  0
LINE
  5
8C
330
1F
100
AcDbEntity
  8
1
  6
CONTINUOUS
 62
     2
100
AcDbLine
 10
51.131358
 20
137.221879
 30
0.0
 11
49.631358
 21
137.221879
 31
0.0
  0
LINE
  5
8D
330
1F
100
AcDbEntity
  8
1
  6
CONTINUOUS
 62
     2
100
AcDbLine
 10
119.995668
 20
137.221879
 30
0.0
 11
120.745668
 21
137.221879
 31
0.0
  0
LINE
  5
8E
330
1F
100
AcDbEntity
  8
1
  6
CONTINUOUS
 62
     2
100
AcDbLine
 10
124.751302
 20
137.221879
 30
0.0
 11
120.745668
 21
137.221879
 31
0.0
  0
LINE
  5
8F
330
1F
100
AcDbEntity
  8
1
  6
CONTINUOUS
 62
     2
100
AcDbLine
 10
129.405922
 20
137.221879
 30
0.0
 11
125.617327
 21
137.221879
 31
0.0
  0
LINE
  5
90
330
1F
100
AcDbEntity
  8
1
  6
CONTINUOUS
 62
     2
100
AcDbLine
 10
51.131358
 20
138.621879
 30
0.0
 11
49.631358
 21
138.621879
 31
0.0
  0
LINE
  5
91
330
1F
100
AcDbEntity
  8
1
  6
CONTINUOUS
 62
     2
100
AcDbLine
 10
49.631358
 20
138.621879
 30
0.0
 11
49.631358
 21
148.621879
 31
0.0
  0
LINE
  5
92
330
1F
100
AcDbEntity
  8
1
  6
CONTINUOUS
 62
     2
100
AcDbLine
 10
120.745668
 20
138.821879
 30
0.0
 11
119.995668
 21
138.821879
 31
0.0
  0
LINE
  5
93
330
1F
100
AcDbEntity
  8
1
  6
CONTINUOUS
 62
     2
100
AcDbLine
 10
119.995668
 20
138.821879
 30
0.0
 11
120.861693
 21
148.821879
 31
0.0
  0
LINE
  5
94
330
1F
100
AcDbEntity
  8
1
  6
CONTINUOUS
 62
     2
100
AcDbLine
 10
121.611693
 20
148.821879
 30
0.0
 11
120.745668
 21
138.821879
 31
0.0
  0
LINE
  5
95
330
1F
100
AcDbEntity
  8
1
  6
CONTINUOUS
 62
     2
100
AcDbLine
 10
129.405922
 20
138.821879
 30
0.0
 11
128.539896
 21
148.821879
 31
0.0
  0
LINE
  5
96
330
1F
100
AcDbEntity
  8
1
  6
CONTINUOUS
 62
     2
100
AcDbLine
 10
49.631358
 20
148.621879
 30
0.0
 11
51.131358
 21
148.621879
 31
0.0
  0
LINE
  5
97
330
1F
100
AcDbEntity
  8
1
  6
CONTINUOUS
 62
     2
100
AcDbLine
 10
120.861693
 20
148.821879
 30
0.0
 11
121.611693
 21
148.821879
 31
0.0
  0
LINE
  5
98
330
1F
100
AcDbEntity
  8
1
  6
CONTINUOUS
 62
     2
100
AcDbLine
 10
195.839233
 20
223.565322
 30
0.0
 11
175.739233
 21
223.565322
 31
0.0
  0
LINE
  5
99
330
1F
100
AcDbEntity
  8
1
  6
CONTINUOUS
 62
     2
100
AcDbLine
 10
175.739233
 20
233.565322
 30
0.0
 11
195.839233
 21
233.565322
 31
0.0
  0
LINE
  5
9A
330
1F
100
AcDbEntity
  8
1
  6
CONTINUOUS
 62
     2
100
AcDbLine
 10
197.839233
 20
223.565322
 30
0.0
 11
197.839233
 21
215.62437
 31
0.0
  0
LINE
  5
9B
330
1F
100
AcDbEntity
  8
1
  6
CONTINUOUS
 62
     2
100
AcDbLine
 10
196.339233
 20
263.920661
 30
0.0
 11
196.339233
 21
276.861613
 31
0.0
  0
LINE
  5
9C
330
1F
100
AcDbEntity
  8
1
  6
CONTINUOUS
 62
     2
100
AcDbLine
 10
195.839233
 20
233.565322
 30
0.0
 11
197.839233
 21
233.565322
 31
0.0
  0
LINE
  5
9D
330
1F
100
AcDbEntity
  8
1
  6
CONTINUOUS
 62
     2
100
AcDbLine
 10
197.839233
 20
233.565322
 30
0.0
 11
197.839233
 21
223.565322
 31
0.0
  0
LINE
  5
9E
330
1F
100
AcDbEntity
  8
1
  6
CONTINUOUS
 62
     2
100
AcDbLine
 10
195.839233
 20
223.565322
 30
0.0
 11
195.839233
 21
233.565322
 31
0.0
  0
LINE
  5
9F
330
1F
100
AcDbEntity
  8
1
  6
CONTINUOUS
 62
     2
100
AcDbLine
 10
197.839233
 20
193.209983
 30
0.0
 11
197.839233
 21
180.26903
 31
0.0
  0
LINE
  5
A0
330
1F
100
AcDbEntity
  8
1
  6
CONTINUOUS
 62
     2
100
AcDbLine
 10
197.839233
 20
215.62437
 30
0.0
 11
197.839233
 21
193.209983
 31
0.0
  0
LINE
  5
A1
330
1F
100
AcDbEntity
  8
1
  6
CONTINUOUS
 62
     2
100
AcDbLine
 10
197.839233
 20
263.920661
 30
0.0
 11
197.839233
 21
241.506274
 31
0.0
  0
LINE
  5
A2
330
1F
100
AcDbEntity
  8
1
  6
CONTINUOUS
 62
     2
100
AcDbLine
 10
197.839233
 20
276.861613
 30
0.0
 11
197.839233
 21
263.920661
 31
0.0
  0
LINE
  5
A3
330
1F
100
AcDbEntity
  8
1
  6
CONTINUOUS
 62
     2
100
AcDbLine
 10
197.839233
 20
241.506274
 30
0.0
 11
197.839233
 21
233.565322
 31
0.0
  0
LINE
  5
A4
330
1F
100
AcDbEntity
  8
1
  6
CONTINUOUS
 62
     2
100
AcDbLine
 10
197.839233
 20
223.565322
 30
0.0
 11
195.839233
 21
223.565322
 31
0.0
  0
LINE
  5
A5
330
1F
100
AcDbEntity
  8
1
  6
CONTINUOUS
 62
     2
100
AcDbLine
 10
197.839233
 20
241.506274
 30
0.0
 11
196.339233
 21
241.506274
 31
0.0
  0
LINE
  5
A6
330
1F
100
AcDbEntity
  8
1
  6
CONTINUOUS
 62
     2
100
AcDbLine
 10
197.839233
 20
215.62437
 30
0.0
 11
196.339233
 21
215.62437
 31
0.0
  0
LINE
  5
A7
330
1F
100
AcDbEntity
  8
1
  6
CONTINUOUS
 62
     2
100
AcDbLine
 10
197.839233
 20
193.209983
 30
0.0
 11
196.339233
 21
193.209983
 31
0.0
  0
LINE
  5
A8
330
1F
100
AcDbEntity
  8
1
  6
CONTINUOUS
 62
     2
100
AcDbLine
 10
197.839233
 20
180.26903
 30
0.0
 11
196.339233
 21
180.26903
 31
0.0
  0
LINE
  5
A9
330
1F
100
AcDbEntity
  8
1
  6
CONTINUOUS
 62
     2
100
AcDbLine
 10
197.839233
 20
263.920661
 30
0.0
 11
196.339233
 21
263.920661
 31
0.0
  0
LINE
  5
AA
330
1F
100
AcDbEntity
  8
1
  6
CONTINUOUS
 62
     2
100
AcDbLine
 10
197.839233
 20
276.861613
 30
0.0
 11
196.339233
 21
276.861613
 31
0.0
  0
LINE
  5
AB
330
1F
100
AcDbEntity
  8
1
  6
CONTINUOUS
 62
     2
100
AcDbLine
 10
196.339233
 20
180.26903
 30
0.0
 11
196.339233
 21
193.209983
 31
0.0
  0
LINE
  5
AC
330
1F
100
AcDbEntity
  8
1
  6
CONTINUOUS
 62
     2
100
AcDbLine
 10
196.339233
 20
193.209983
 30
0.0
 11
196.339233
 21
215.62437
 31
0.0
  0
LINE
  5
AD
330
1F
100
AcDbEntity
  8
1
  6
CONTINUOUS
 62
     2
100
AcDbLine
 10
196.339233
 20
241.506274
 30
0.0
 11
196.339233
 21
263.920661
 31
0.0
  0
LINE
  5
AE
330
1F
100
AcDbEntity
  8
1
  6
CONTINUOUS
 62
     2
100
AcDbLine
 10
196.339233
 20
233.565322
 30
0.0
 11
196.339233
 21
241.506274
 31
0.0
  0
LINE
  5
AF
330
1F
100
AcDbEntity
  8
1
  6
CONTINUOUS
 62
     2
100
AcDbLine
 10
196.339233
 20
215.62437
 30
0.0
 11
196.339233
 21
223.565322
 31
0.0
  0
LINE
  5
B0
330
1F
100
AcDbEntity
  8
1
  6
CONTINUOUS
 62
     2
100
AcDbLine
 10
195.839233
 20
273.32415
 30
0.0
 11
195.839233
 21
268.32415
 31
0.0
  0
LINE
  5
B1
330
1F
100
AcDbEntity
  8
1
  6
CONTINUOUS
 62
     2
100
AcDbLine
 10
195.839233
 20
188.806494
 30
0.0
 11
195.839233
 21
183.806494
 31
0.0
  0
LINE
  5
B2
330
1F
100
AcDbEntity
  8
1
  6
CONTINUOUS
 62
     2
100
AcDbLine
 10
172.339233
 20
233.565322
 30
0.0
 11
173.739233
 21
233.565322
 31
0.0
  0
LINE
  5
B3
330
1F
100
AcDbEntity
  8
1
  6
CONTINUOUS
 62
     2
100
AcDbLine
 10
173.739233
 20
223.565322
 30
0.0
 11
172.339233
 21
223.565322
 31
0.0
  0
LINE
  5
B4
330
1F
100
AcDbEntity
  8
1
  6
CONTINUOUS
 62
     2
100
AcDbLine
 10
172.139233
 20
274.623188
 30
0.0
 11
173.739233
 21
274.623188
 31
0.0
  0
LINE
  5
B5
330
1F
100
AcDbEntity
  8
1
  6
CONTINUOUS
 62
     2
100
AcDbLine
 10
172.339233
 20
188.806494
 30
0.0
 11
173.739233
 21
188.806494
 31
0.0
  0
LINE
  5
B6
330
1F
100
AcDbEntity
  8
1
  6
CONTINUOUS
 62
     2
100
AcDbLine
 10
173.739233
 20
183.806494
 30
0.0
 11
172.339233
 21
183.806494
 31
0.0
  0
LINE
  5
B7
330
1F
100
AcDbEntity
  8
1
  6
CONTINUOUS
 62
     2
100
AcDbLine
 10
172.139233
 20
273.32415
 30
0.0
 11
173.739233
 21
273.32415
 31
0.0
  0
LINE
  5
B8
330
1F
100
AcDbEntity
  8
1
  6
CONTINUOUS
 62
     2
100
AcDbLine
 10
173.739233
 20
268.32415
 30
0.0
 11
172.139233
 21
268.32415
 31
0.0
  0
LINE
  5
B9
330
1F
100
AcDbEntity
  8
1
  6
CONTINUOUS
 62
     2
100
AcDbLine
 10
173.739233
 20
182.507456
 30
0.0
 11
172.339233
 21
182.507456
 31
0.0
  0
LINE
  5
BA
330
1F
100
AcDbEntity
  8
1
  6
CONTINUOUS
 62
     2
100
AcDbLine
 10
162.339233
 20
184.306494
 30
0.0
 11
162.339233
 21
188.306494
 31
0.0
  0
LINE
  5
BB
330
1F
100
AcDbEntity
  8
1
  6
CONTINUOUS
 62
     2
100
AcDbLine
 10
162.339233
 20
224.565322
 30
0.0
 11
162.339233
 21
232.565322
 31
0.0
  0
LINE
  5
BC
330
1F
100
AcDbEntity
  8
1
  6
CONTINUOUS
 62
     2
100
AcDbLine
 10
162.139233
 20
268.82415
 30
0.0
 11
162.139233
 21
272.82415
 31
0.0
  0
LINE
  5
BD
330
1F
100
AcDbEntity
  8
1
  6
CONTINUOUS
 62
     2
100
AcDbLine
 10
175.739233
 20
274.623188
 30
0.0
 11
195.839233
 21
274.623188
 31
0.0
  0
LINE
  5
BE
330
1F
100
AcDbEntity
  8
1
  6
CONTINUOUS
 62
     2
100
AcDbLine
 10
175.739233
 20
273.32415
 30
0.0
 11
195.839233
 21
273.32415
 31
0.0
  0
LINE
  5
BF
330
1F
100
AcDbEntity
  8
1
  6
CONTINUOUS
 62
     2
100
AcDbLine
 10
195.839233
 20
268.32415
 30
0.0
 11
175.739233
 21
268.32415
 31
0.0
  0
LINE
  5
C0
330
1F
100
AcDbEntity
  8
1
  6
CONTINUOUS
 62
     2
100
AcDbLine
 10
175.739233
 20
188.806494
 30
0.0
 11
195.839233
 21
188.806494
 31
0.0
  0
LINE
  5
C1
330
1F
100
AcDbEntity
  8
1
  6
CONTINUOUS
 62
     2
100
AcDbLine
 10
195.839233
 20
183.806494
 30
0.0
 11
175.739233
 21
183.806494
 31
0.0
  0
LINE
  5
C2
330
1F
100
AcDbEntity
  8
1
  6
CONTINUOUS
 62
     2
100
AcDbLine
 10
195.839233
 20
182.507456
 30
0.0
 11
175.739233
 21
182.507456
 31
0.0
  0
LINE
  5
C3
330
1F
100
AcDbEntity
  8
1
  6
CONTINUOUS
 62
     2
100
AcDbLine
 10
175.739233
 20
188.806494
 30
0.0
 11
175.739233
 21
186.555982
 31
0.0
  0
LINE
  5
C4
330
1F
100
AcDbEntity
  8
1
  6
CONTINUOUS
 62
     2
100
AcDbLine
 10
175.739233
 20
273.32415
 30
0.0
 11
175.739233
 21
271.011496
 31
0.0
  0
LINE
  5
C5
330
1F
100
AcDbEntity
  8
1
  6
CONTINUOUS
 62
     2
100
AcDbLine
 10
175.739233
 20
274.623188
 30
0.0
 11
175.739233
 21
273.32415
 31
0.0
  0
LINE
  5
C6
330
1F
100
AcDbEntity
  8
1
  6
CONTINUOUS
 62
     2
100
AcDbLine
 10
175.739233
 20
223.565322
 30
0.0
 11
175.739233
 21
228.065322
 31
0.0
  0
LINE
  5
C7
330
1F
100
AcDbEntity
  8
1
  6
CONTINUOUS
 62
     2
100
AcDbLine
 10
173.739233
 20
184.756944
 30
0.0
 11
175.739233
 21
184.756944
 31
0.0
  0
LINE
  5
C8
330
1F
100
AcDbEntity
  8
1
  6
CONTINUOUS
 62
     2
100
AcDbLine
 10
173.739233
 20
186.055982
 30
0.0
 11
175.739233
 21
186.055982
 31
0.0
  0
LINE
  5
C9
330
1F
100
AcDbEntity
  8
1
  6
CONTINUOUS
 62
     2
100
AcDbLine
 10
173.739233
 20
229.065322
 30
0.0
 11
175.739233
 21
229.065322
 31
0.0
  0
LINE
  5
CA
330
1F
100
AcDbEntity
  8
1
  6
CONTINUOUS
 62
     2
100
AcDbLine
 10
175.739233
 20
229.065322
 30
0.0
 11
175.739233
 21
233.565322
 31
0.0
  0
LINE
  5
CB
330
1F
100
AcDbEntity
  8
1
  6
CONTINUOUS
 62
     2
100
AcDbLine
 10
175.739233
 20
271.011496
 30
0.0
 11
173.739233
 21
271.011496
 31
0.0
  0
LINE
  5
CC
330
1F
100
AcDbEntity
  8
1
  6
CONTINUOUS
 62
     2
100
AcDbLine
 10
175.739233
 20
272.310534
 30
0.0
 11
173.739233
 21
272.310534
 31
0.0
  0
LINE
  5
CD
330
1F
100
AcDbEntity
  8
1
  6
CONTINUOUS
 62
     2
100
AcDbLine
 10
175.739233
 20
186.555982
 30
0.0
 11
173.739233
 21
186.555982
 31
0.0
  0
LINE
  5
CE
330
1F
100
AcDbEntity
  8
1
  6
CONTINUOUS
 62
     2
100
AcDbLine
 10
175.739233
 20
270.511496
 30
0.0
 11
175.739233
 21
268.32415
 31
0.0
  0
LINE
  5
CF
330
1F
100
AcDbEntity
  8
1
  6
CONTINUOUS
 62
     2
100
AcDbLine
 10
175.739233
 20
228.065322
 30
0.0
 11
173.739233
 21
228.065322
 31
0.0
  0
LINE
  5
D0
330
1F
100
AcDbEntity
  8
1
  6
CONTINUOUS
 62
     2
100
AcDbLine
 10
175.739233
 20
186.055982
 30
0.0
 11
175.739233
 21
183.806494
 31
0.0
  0
LINE
  5
D1
330
1F
100
AcDbEntity
  8
1
  6
CONTINUOUS
 62
     2
100
AcDbLine
 10
175.739233
 20
183.806494
 30
0.0
 11
175.739233
 21
182.507456
 31
0.0
  0
LINE
  5
D2
330
1F
100
AcDbEntity
  8
1
  6
CONTINUOUS
 62
     2
100
AcDbLine
 10
173.739233
 20
270.511496
 30
0.0
 11
175.739233
 21
270.511496
 31
0.0
  0
LINE
  5
D3
330
1F
100
AcDbEntity
  8
1
  6
CONTINUOUS
 62
     2
100
AcDbLine
 10
173.739233
 20
233.565322
 30
0.0
 11
173.739233
 21
229.065322
 31
0.0
  0
LINE
  5
D4
330
1F
100
AcDbEntity
  8
1
  6
CONTINUOUS
 62
     2
100
AcDbLine
 10
173.739233
 20
228.065322
 30
0.0
 11
173.739233
 21
223.565322
 31
0.0
  0
LINE
  5
D5
330
1F
100
AcDbEntity
  8
1
  6
CONTINUOUS
 62
     2
100
AcDbLine
 10
173.739233
 20
273.32415
 30
0.0
 11
173.739233
 21
274.623188
 31
0.0
  0
LINE
  5
D6
330
1F
100
AcDbEntity
  8
1
  6
CONTINUOUS
 62
     2
100
AcDbLine
 10
173.739233
 20
271.011496
 30
0.0
 11
173.739233
 21
273.32415
 31
0.0
  0
LINE
  5
D7
330
1F
100
AcDbEntity
  8
1
  6
CONTINUOUS
 62
     2
100
AcDbLine
 10
173.739233
 20
268.32415
 30
0.0
 11
173.739233
 21
270.511496
 31
0.0
  0
LINE
  5
D8
330
1F
100
AcDbEntity
  8
1
  6
CONTINUOUS
 62
     2
100
AcDbLine
 10
173.739233
 20
186.555982
 30
0.0
 11
173.739233
 21
188.806494
 31
0.0
  0
LINE
  5
D9
330
1F
100
AcDbEntity
  8
1
  6
CONTINUOUS
 62
     2
100
AcDbLine
 10
173.739233
 20
182.507456
 30
0.0
 11
173.739233
 21
183.806494
 31
0.0
  0
LINE
  5
DA
330
1F
100
AcDbEntity
  8
1
  6
CONTINUOUS
 62
     2
100
AcDbLine
 10
173.739233
 20
183.806494
 30
0.0
 11
173.739233
 21
186.055982
 31
0.0
  0
LINE
  5
DB
330
1F
100
AcDbEntity
  8
1
  6
CONTINUOUS
 62
     2
100
AcDbLine
 10
162.339233
 20
224.565322
 30
0.0
 11
172.339233
 21
223.565322
 31
0.0
  0
LINE
  5
DC
330
1F
100
AcDbEntity
  8
1
  6
CONTINUOUS
 62
     2
100
AcDbLine
 10
172.339233
 20
233.565322
 30
0.0
 11
162.339233
 21
232.565322
 31
0.0
  0
LINE
  5
DD
330
1F
100
AcDbEntity
  8
1
  6
CONTINUOUS
 62
     2
100
AcDbLine
 10
172.339233
 20
188.806494
 30
0.0
 11
162.339233
 21
188.306494
 31
0.0
  0
LINE
  5
DE
330
1F
100
AcDbEntity
  8
1
  6
CONTINUOUS
 62
     2
100
AcDbLine
 10
172.339233
 20
183.806494
 30
0.0
 11
172.339233
 21
182.507456
 31
0.0
  0
LINE
  5
DF
330
1F
100
AcDbEntity
  8
1
  6
CONTINUOUS
 62
     2
100
AcDbLine
 10
172.339233
 20
182.507456
 30
0.0
 11
162.339233
 21
183.007456
 31
0.0
  0
LINE
  5
E0
330
1F
100
AcDbEntity
  8
1
  6
CONTINUOUS
 62
     2
100
AcDbLine
 10
162.339233
 20
184.306494
 30
0.0
 11
172.339233
 21
183.806494
 31
0.0
  0
LINE
  5
E1
330
1F
100
AcDbEntity
  8
1
  6
CONTINUOUS
 62
     2
100
AcDbLine
 10
172.139233
 20
274.623188
 30
0.0
 11
172.139233
 21
273.32415
 31
0.0
  0
LINE
  5
E2
330
1F
100
AcDbEntity
  8
1
  6
CONTINUOUS
 62
     2
100
AcDbLine
 10
172.139233
 20
273.32415
 30
0.0
 11
162.139233
 21
272.82415
 31
0.0
  0
LINE
  5
E3
330
1F
100
AcDbEntity
  8
1
  6
CONTINUOUS
 62
     2
100
AcDbLine
 10
162.139233
 20
274.123188
 30
0.0
 11
172.139233
 21
274.623188
 31
0.0
  0
LINE
  5
E4
330
1F
100
AcDbEntity
  8
1
  6
CONTINUOUS
 62
     2
100
AcDbLine
 10
162.139233
 20
268.82415
 30
0.0
 11
172.139233
 21
268.32415
 31
0.0
  0
LINE
  5
E5
330
1F
100
AcDbEntity
  8
1
  6
CONTINUOUS
 62
     2
100
AcDbLine
 10
162.339233
 20
183.007456
 30
0.0
 11
162.339233
 21
184.306494
 31
0.0
  0
LINE
  5
E6
330
1F
100
AcDbEntity
  8
1
  6
CONTINUOUS
 62
     2
100
AcDbLine
 10
162.139233
 20
272.82415
 30
0.0
 11
162.139233
 21
274.123188
 31
0.0
  0
LINE
  5
E7
330
1F
100
AcDbEntity
  8
255
  6
CONTINUOUS
 62
   163
100
AcDbLine
 10
260.733129
 20
210.000845
 30
0.0
 11
260.733129
 21
202.059893
 31
0.0
  0
LINE
  5
E9
330
1F
100
AcDbEntity
  8
255
  6
CONTINUOUS
 62
   163
100
AcDbLine
 10
235.670187
 20
202.059893
 30
0.0
 11
237.070187
 21
202.059893
 31
0.0
  0
LINE
  5
EA
330
1F
100
AcDbEntity
  8
255
  6
CONTINUOUS
 62
   163
100
AcDbLine
 10
260.733129
 20
192.059893
 30
0.0
 11
239.070187
 21
192.059893
 31
0.0
  0
LINE
  5
EB
330
1F
100
AcDbEntity
  8
255
  6
CONTINUOUS
 62
   163
100
AcDbLine
 10
260.733129
 20
192.059893
 30
0.0
 11
260.733129
 21
184.118941
 31
0.0
  0
LINE
  5
EC
330
1F
100
AcDbEntity
  8
255
  6
CONTINUOUS
 62
   163
100
AcDbLine
 10
347.244936
 20
122.868679
 30
0.0
 11
354.173139
 21
126.868679
 31
0.0
  0
LINE
  5
ED
330
1F
100
AcDbEntity
  8
255
  6
CONTINUOUS
 62
   163
100
AcDbLine
 10
340.67891
 20
132.241369
 30
0.0
 11
341.37891
 21
131.028933
 31
0.0
  0
LINE
  5
EE
330
1F
100
AcDbEntity
  8
255
  6
CONTINUOUS
 62
   163
100
AcDbLine
 10
337.507693
 20
157.734078
 30
0.0
 11
348.339164
 21
138.973419
 31
0.0
  0
LINE
  5
EF
330
1F
100
AcDbEntity
  8
255
  6
CONTINUOUS
 62
   163
100
AcDbLine
 10
225.670187
 20
193.059893
 30
0.0
 11
225.670187
 21
201.059893
 31
0.0
  0
LINE
  5
F0
330
1F
100
AcDbEntity
  8
255
  6
CONTINUOUS
 62
   163
100
AcDbLine
 10
354.273139
 20
267.424312
 30
0.0
 11
347.344936
 21
271.424312
 31
0.0
  0
LINE
  5
F1
330
1F
100
AcDbEntity
  8
255
  6
CONTINUOUS
 62
   163
100
AcDbLine
 10
349.339164
 20
256.878417
 30
0.0
 11
350.139164
 21
258.264058
 31
0.0
  0
LINE
  5
F2
330
1F
100
AcDbEntity
  8
255
  6
CONTINUOUS
 62
   163
100
AcDbLine
 10
328.847439
 20
241.385708
 30
0.0
 11
339.67891
 21
260.146367
 31
0.0
  0
LINE
  5
F3
330
1F
100
AcDbEntity
  8
255
  6
CONTINUOUS
 62
   163
100
AcDbLine
 10
273.674081
 20
232.415232
 30
0.0
 11
260.733129
 21
210.000845
 31
0.0
  0
LINE
  5
F4
330
1F
100
AcDbEntity
  8
255
  6
CONTINUOUS
 62
   163
100
AcDbLine
 10
260.733129
 20
184.118941
 30
0.0
 11
273.674081
 21
161.704554
 31
0.0
  0
LINE
  5
F5
330
1F
100
AcDbEntity
  8
255
  6
CONTINUOUS
 62
   163
100
AcDbLine
 10
296.088468
 20
245.356184
 30
0.0
 11
273.674081
 21
232.415232
 31
0.0
  0
LINE
  5
F6
330
1F
100
AcDbEntity
  8
255
  6
CONTINUOUS
 62
   163
100
AcDbLine
 10
321.970373
 20
245.356184
 30
0.0
 11
296.088468
 21
245.356184
 31
0.0
  0
LINE
  5
F7
330
1F
100
AcDbEntity
  8
255
  6
CONTINUOUS
 62
   163
100
AcDbLine
 10
328.847439
 20
241.385708
 30
0.0
 11
321.970373
 21
245.356184
 31
0.0
  0
LINE
  5
F8
330
1F
100
AcDbEntity
  8
255
  6
CONTINUOUS
 62
   163
100
AcDbLine
 10
344.384759
 20
232.415232
 30
0.0
 11
337.507693
 21
236.385708
 31
0.0
  0
LINE
  5
F9
330
1F
100
AcDbEntity
  8
255
  6
CONTINUOUS
 62
   163
100
AcDbLine
 10
357.325712
 20
210.000845
 30
0.0
 11
344.384759
 21
232.415232
 31
0.0
  0
LINE
  5
FA
330
1F
100
AcDbEntity
  8
255
  6
CONTINUOUS
 62
   163
100
AcDbLine
 10
357.325712
 20
184.118941
 30
0.0
 11
357.325712
 21
210.000845
 31
0.0
  0
LINE
  5
FB
330
1F
100
AcDbEntity
  8
255
  6
CONTINUOUS
 62
   163
100
AcDbLine
 10
344.384759
 20
161.704554
 30
0.0
 11
357.325712
 21
184.118941
 31
0.0
  0
LINE
  5
FC
330
1F
100
AcDbEntity
  8
255
  6
CONTINUOUS
 62
   163
100
AcDbLine
 10
337.507693
 20
157.734078
 30
0.0
 11
344.384759
 21
161.704554
 31
0.0
  0
LINE
  5
FD
330
1F
100
AcDbEntity
  8
255
  6
CONTINUOUS
 62
   163
100
AcDbLine
 10
321.970373
 20
148.763602
 30
0.0
 11
328.847439
 21
152.734078
 31
0.0
  0
LINE
  5
FE
330
1F
100
AcDbEntity
  8
255
  6
CONTINUOUS
 62
   163
100
AcDbLine
 10
296.088468
 20
148.763602
 30
0.0
 11
321.970373
 21
148.763602
 31
0.0
  0
LINE
  5
FF
330
1F
100
AcDbEntity
  8
255
  6
CONTINUOUS
 62
   163
100
AcDbLine
 10
273.674081
 20
161.704554
 30
0.0
 11
296.088468
 21
148.763602
 31
0.0
  0
LINE
  5
100
330
1F
100
AcDbEntity
  8
255
  6
CONTINUOUS
 62
   163
100
AcDbLine
 10
239.070187
 20
192.059893
 30
0.0
 11
239.070187
 21
196.559893
 31
0.0
  0
LINE
  5
101
330
1F
100
AcDbEntity
  8
255
  6
CONTINUOUS
 62
   163
100
AcDbLine
 10
237.070187
 20
196.559893
 30
0.0
 11
237.070187
 21
192.059893
 31
0.0
  0
LINE
  5
102
330
1F
100
AcDbEntity
  8
255
  6
CONTINUOUS
 62
   163
100
AcDbLine
 10
237.070187
 20
202.059893
 30
0.0
 11
237.070187
 21
197.559893
 31
0.0
  0
LINE
  5
103
330
1F
100
AcDbEntity
  8
255
  6
CONTINUOUS
 62
   163
100
AcDbLine
 10
237.070187
 20
192.059893
 30
0.0
 11
235.670187
 21
192.059893
 31
0.0
  0
LINE
  5
104
330
1F
100
AcDbEntity
  8
255
  6
CONTINUOUS
 62
   163
100
AcDbLine
 10
237.070187
 20
197.559893
 30
0.0
 11
239.070187
 21
197.559893
 31
0.0
  0
LINE
  5
105
330
1F
100
AcDbEntity
  8
255
  6
CONTINUOUS
 62
   163
100
AcDbLine
 10
239.070187
 20
197.559893
 30
0.0
 11
239.070187
 21
202.059893
 31
0.0
  0
LINE
  5
106
330
1F
100
AcDbEntity
  8
255
  6
CONTINUOUS
 62
   163
100
AcDbLine
 10
239.070187
 20
196.559893
 30
0.0
 11
237.070187
 21
196.559893
 31
0.0
  0
LINE
  5
107
330
1F
100
AcDbEntity
  8
255
  6
CONTINUOUS
 62
   163
100
AcDbLine
 10
239.070187
 20
202.059893
 30
0.0
 11
260.733129
 21
202.059893
 31
0.0
  0
LINE
  5
108
330
1F
100
AcDbEntity
  8
255
  6
CONTINUOUS
 62
   163
100
AcDbLine
 10
340.67891
 20
132.241369
 30
0.0
 11
344.575139
 21
134.490857
 31
0.0
  0
LINE
  5
109
330
1F
100
AcDbEntity
  8
255
  6
CONTINUOUS
 62
   163
100
AcDbLine
 10
344.575139
 20
134.490857
 30
0.0
 11
343.575139
 21
136.222908
 31
0.0
  0
LINE
  5
10A
330
1F
100
AcDbEntity
  8
255
  6
CONTINUOUS
 62
   163
100
AcDbLine
 10
345.441164
 20
134.990857
 30
0.0
 11
349.339164
 21
137.241369
 31
0.0
  0
LINE
  5
10B
330
1F
100
AcDbEntity
  8
255
  6
CONTINUOUS
 62
   163
100
AcDbLine
 10
350.039164
 20
136.028933
 30
0.0
 11
349.339164
 21
137.241369
 31
0.0
  0
LINE
  5
10C
330
1F
100
AcDbEntity
  8
255
  6
CONTINUOUS
 62
   163
100
AcDbLine
 10
348.339164
 20
138.973419
 30
0.0
 11
344.441164
 21
136.722908
 31
0.0
  0
LINE
  5
10D
330
1F
100
AcDbEntity
  8
255
  6
CONTINUOUS
 62
   163
100
AcDbLine
 10
343.575139
 20
136.222908
 30
0.0
 11
339.67891
 21
133.973419
 31
0.0
  0
LINE
  5
10E
330
1F
100
AcDbEntity
  8
255
  6
CONTINUOUS
 62
   163
100
AcDbLine
 10
344.441164
 20
136.722908
 30
0.0
 11
345.441164
 21
134.990857
 31
0.0
  0
LINE
  5
10F
330
1F
100
AcDbEntity
  8
255
  6
CONTINUOUS
 62
   163
100
AcDbLine
 10
339.67891
 20
133.973419
 30
0.0
 11
328.847439
 21
152.734078
 31
0.0
  0
LINE
  5
110
330
1F
100
AcDbEntity
  8
255
  6
CONTINUOUS
 62
   163
100
AcDbLine
 10
344.684544
 20
259.565763
 30
0.0
 11
340.67891
 21
261.878417
 31
0.0
  0
LINE
  5
111
330
1F
100
AcDbEntity
  8
255
  6
CONTINUOUS
 62
   163
100
AcDbLine
 10
341.47891
 20
263.264058
 30
0.0
 11
340.67891
 21
261.878417
 31
0.0
  0
LINE
  5
112
330
1F
100
AcDbEntity
  8
255
  6
CONTINUOUS
 62
   163
100
AcDbLine
 10
345.55057
 20
259.065763
 30
0.0
 11
344.55057
 21
257.333713
 31
0.0
  0
LINE
  5
113
330
1F
100
AcDbEntity
  8
255
  6
CONTINUOUS
 62
   163
100
AcDbLine
 10
339.67891
 20
260.146367
 30
0.0
 11
343.684544
 21
257.833713
 31
0.0
  0
LINE
  5
114
330
1F
100
AcDbEntity
  8
255
  6
CONTINUOUS
 62
   163
100
AcDbLine
 10
344.55057
 20
257.333713
 30
0.0
 11
348.339164
 21
255.146367
 31
0.0
  0
LINE
  5
115
330
1F
100
AcDbEntity
  8
255
  6
CONTINUOUS
 62
   163
100
AcDbLine
 10
343.684544
 20
257.833713
 30
0.0
 11
344.684544
 21
259.565763
 31
0.0
  0
LINE
  5
116
330
1F
100
AcDbEntity
  8
255
  6
CONTINUOUS
 62
   163
100
AcDbLine
 10
349.339164
 20
256.878417
 30
0.0
 11
345.55057
 21
259.065763
 31
0.0
  0
LINE
  5
117
330
1F
100
AcDbEntity
  8
255
  6
CONTINUOUS
 62
   163
100
AcDbLine
 10
348.339164
 20
255.146367
 30
0.0
 11
337.507693
 21
236.385708
 31
0.0
  0
LINE
  5
118
330
1F
100
AcDbEntity
  8
255
  6
CONTINUOUS
 62
   163
100
AcDbLine
 10
354.173139
 20
126.868679
 30
0.0
 11
350.039164
 21
136.028933
 31
0.0
  0
LINE
  5
119
330
1F
100
AcDbEntity
  8
255
  6
CONTINUOUS
 62
   163
100
AcDbLine
 10
225.670187
 20
193.059893
 30
0.0
 11
235.670187
 21
192.059893
 31
0.0
  0
LINE
  5
11A
330
1F
100
AcDbEntity
  8
255
  6
CONTINUOUS
 62
   163
100
AcDbLine
 10
347.344936
 20
271.424312
 30
0.0
 11
341.47891
 21
263.264058
 31
0.0
  0
LINE
  5
11B
330
1F
100
AcDbEntity
  8
255
  6
CONTINUOUS
 62
   163
100
AcDbLine
 10
341.37891
 20
131.028933
 30
0.0
 11
347.244936
 21
122.868679
 31
0.0
  0
LINE
  5
11C
330
1F
100
AcDbEntity
  8
255
  6
CONTINUOUS
 62
   163
100
AcDbLine
 10
235.670187
 20
202.059893
 30
0.0
 11
225.670187
 21
201.059893
 31
0.0
  0
LINE
  5
11D
330
1F
100
AcDbEntity
  8
255
  6
CONTINUOUS
 62
   163
100
AcDbLine
 10
350.139164
 20
258.264058
 30
0.0
 11
354.273139
 21
267.424312
 31
0.0
  0
LINE
  5
11E
330
1F
100
AcDbEntity
  8
1
  6
CONTINUOUS
 62
     2
100
AcDbLine
 10
101.74396
 20
22.641249
 30
0.0
 11
111.419206
 21
20.961583
 31
0.0
  0
LINE
  5
11F
330
1F
100
AcDbEntity
  8
1
  6
CONTINUOUS
 62
     2
100
AcDbLine
 10
101.583814
 20
23.505296
 30
0.0
 11
102.164781
 21
39.905141
 31
0.0
  0
LINE
  5
120
330
1F
100
AcDbEntity
  8
1
  6
CONTINUOUS
 62
     2
100
AcDbLine
 10
111.840027
 20
38.225475
 30
0.0
 11
111.25906
 21
21.82563
 31
0.0
  0
LINE
  5
121
330
1F
100
AcDbEntity
  8
1
  6
CONTINUOUS
 62
     2
100
AcDbLine
 10
101.590429
 20
23.055956
 30
0.0
 11
94.345177
 21
24.313764
 31
0.0
  0
LINE
  5
122
330
1F
100
AcDbEntity
  8
1
  6
CONTINUOUS
 62
     2
100
AcDbLine
 10
168.971543
 20
47.906805
 30
0.0
 11
162.47211
 21
33.587917
 31
0.0
  0
LINE
  5
123
330
1F
100
AcDbEntity
  8
1
  6
CONTINUOUS
 62
     2
100
AcDbLine
 10
144.366101
 20
24.584913
 30
0.0
 11
162.515466
 21
34.811786
 31
0.0
  0
LINE
  5
124
330
1F
100
AcDbEntity
  8
1
  6
CONTINUOUS
 62
     2
100
AcDbLine
 10
111.636492
 20
50.15653
 30
0.0
 11
112.314979
 21
41.829437
 31
0.0
  0
LINE
  5
125
330
1F
100
AcDbEntity
  8
1
  6
CONTINUOUS
 62
     2
100
AcDbLine
 10
101.583814
 20
23.505296
 30
0.0
 11
111.25906
 21
21.82563
 31
0.0
  0
LINE
  5
126
330
1F
100
AcDbEntity
  8
1
  6
CONTINUOUS
 62
     2
100
AcDbLine
 10
75.908423
 20
35.238076
 30
0.0
 11
69.016407
 21
49.812244
 31
0.0
  0
LINE
  5
127
330
1F
100
AcDbEntity
  8
1
  6
CONTINUOUS
 62
     2
100
AcDbLine
 10
94.345177
 20
24.313764
 30
0.0
 11
75.908423
 21
35.238076
 31
0.0
  0
LINE
  5
128
330
1F
100
AcDbEntity
  8
1
  6
CONTINUOUS
 62
     2
100
AcDbLine
 10
144.322745
 20
23.361044
 30
0.0
 11
119.386557
 21
19.966469
 31
0.0
  0
LINE
  5
129
330
1F
100
AcDbEntity
  8
1
  6
CONTINUOUS
 62
     2
100
AcDbLine
 10
162.47211
 20
33.587917
 30
0.0
 11
144.322745
 21
23.361044
 31
0.0
  0
LINE
  5
12A
330
1F
100
AcDbEntity
  8
1
  6
CONTINUOUS
 62
     2
100
AcDbLine
 10
119.386557
 20
19.966469
 30
0.0
 11
111.70349
 21
21.300283
 31
0.0
  0
LINE
  5
12B
330
1F
100
AcDbEntity
  8
1
  6
CONTINUOUS
 62
     2
100
AcDbLine
 10
111.746846
 20
22.524152
 30
0.0
 11
111.70349
 21
21.300283
 31
0.0
  0
LINE
  5
12C
330
1F
100
AcDbEntity
  8
1
  6
CONTINUOUS
 62
     2
100
AcDbLine
 10
168.971543
 20
47.906805
 30
0.0
 11
169.014899
 21
49.130674
 31
0.0
  0
LINE
  5
12D
330
1F
100
AcDbEntity
  8
1
  6
CONTINUOUS
 62
     2
100
AcDbLine
 10
119.386557
 20
19.966469
 30
0.0
 11
119.429913
 21
21.190338
 31
0.0
  0
LINE
  5
12E
330
1F
100
AcDbEntity
  8
1
  6
CONTINUOUS
 62
     2
100
AcDbLine
 10
94.345177
 20
24.313764
 30
0.0
 11
94.388533
 21
25.537633
 31
0.0
  0
LINE
  5
12F
330
1F
100
AcDbEntity
  8
1
  6
CONTINUOUS
 62
     2
100
AcDbLine
 10
75.908423
 20
35.238076
 30
0.0
 11
75.951779
 21
36.461945
 31
0.0
  0
LINE
  5
130
330
1F
100
AcDbEntity
  8
1
  6
CONTINUOUS
 62
     2
100
AcDbLine
 10
69.016407
 20
49.812244
 30
0.0
 11
69.059763
 21
51.036113
 31
0.0
  0
LINE
  5
131
330
1F
100
AcDbEntity
  8
1
  6
CONTINUOUS
 62
     2
100
AcDbLine
 10
144.322745
 20
23.361044
 30
0.0
 11
144.366101
 21
24.584913
 31
0.0
  0
LINE
  5
132
330
1F
100
AcDbEntity
  8
1
  6
CONTINUOUS
 62
     2
100
AcDbLine
 10
162.47211
 20
33.587917
 30
0.0
 11
162.515466
 21
34.811786
 31
0.0
  0
LINE
  5
133
330
1F
100
AcDbEntity
  8
1
  6
CONTINUOUS
 62
     2
100
AcDbLine
 10
164.237456
 20
59.233271
 30
0.0
 11
162.122884
 21
63.704841
 31
0.0
  0
LINE
  5
134
330
1F
100
AcDbEntity
  8
1
  6
CONTINUOUS
 62
     2
100
AcDbLine
 10
69.059763
 20
51.036113
 30
0.0
 11
75.951779
 21
36.461945
 31
0.0
  0
LINE
  5
135
330
1F
100
AcDbEntity
  8
1
  6
CONTINUOUS
 62
     2
100
AcDbLine
 10
75.951779
 20
36.461945
 30
0.0
 11
94.388533
 21
25.537633
 31
0.0
  0
LINE
  5
136
330
1F
100
AcDbEntity
  8
1
  6
CONTINUOUS
 62
     2
100
AcDbLine
 10
93.708561
 20
75.581873
 30
0.0
 11
88.140067
 21
72.444117
 31
0.0
  0
LINE
  5
137
330
1F
100
AcDbEntity
  8
1
  6
CONTINUOUS
 62
     2
100
AcDbLine
 10
119.429913
 20
21.190338
 30
0.0
 11
144.366101
 21
24.584913
 31
0.0
  0
LINE
  5
138
330
1F
100
AcDbEntity
  8
1
  6
CONTINUOUS
 62
     2
100
AcDbLine
 10
162.515466
 20
34.811786
 30
0.0
 11
169.014899
 21
49.130674
 31
0.0
  0
LINE
  5
139
330
1F
100
AcDbEntity
  8
1
  6
CONTINUOUS
 62
     2
100
AcDbLine
 10
162.122884
 20
63.704841
 30
0.0
 11
143.686129
 21
74.629153
 31
0.0
  0
LINE
  5
13A
330
1F
100
AcDbEntity
  8
1
  6
CONTINUOUS
 62
     2
100
AcDbLine
 10
143.686129
 20
74.629153
 30
0.0
 11
118.644749
 21
78.976449
 31
0.0
  0
LINE
  5
13B
330
1F
100
AcDbEntity
  8
1
  6
CONTINUOUS
 62
     2
100
AcDbLine
 10
118.644749
 20
78.976449
 30
0.0
 11
93.708561
 21
75.581873
 31
0.0
  0
LINE
  5
13C
330
1F
100
AcDbEntity
  8
1
  6
CONTINUOUS
 62
     2
100
AcDbLine
 10
75.559197
 20
65.355
 30
0.0
 11
69.059763
 21
51.036113
 31
0.0
  0
LINE
  5
13D
330
1F
100
AcDbEntity
  8
1
  6
CONTINUOUS
 62
     2
100
AcDbLine
 10
169.014899
 20
49.130674
 30
0.0
 11
166.900327
 21
53.602245
 31
0.0
  0
LINE
  5
13E
330
1F
100
AcDbEntity
  8
1
  6
CONTINUOUS
 62
     2
100
AcDbLine
 10
81.127691
 20
68.492756
 30
0.0
 11
75.559197
 21
65.355
 31
0.0
  0
LINE
  5
13F
330
1F
100
AcDbEntity
  8
1
  6
CONTINUOUS
 62
     2
100
AcDbLine
 10
111.746846
 20
22.524152
 30
0.0
 11
119.429913
 21
21.190338
 31
0.0
  0
LINE
  5
140
330
1F
100
AcDbEntity
  8
1
  6
CONTINUOUS
 62
     2
100
AcDbLine
 10
94.388533
 20
25.537633
 30
0.0
 11
101.611336
 21
24.283722
 31
0.0
  0
LINE
  5
141
330
1F
100
AcDbEntity
  8
1
  6
CONTINUOUS
 62
     2
100
AcDbLine
 10
111.746846
 20
22.524152
 30
0.0
 11
111.637395
 21
22.543154
 31
0.0
  0
LINE
  5
142
330
1F
100
AcDbEntity
  8
1
  6
CONTINUOUS
 62
     2
100
AcDbLine
 10
167.396509
 20
54.075779
 30
0.0
 11
164.733638
 21
59.706805
 31
0.0
  0
LINE
  5
143
330
1F
100
AcDbEntity
  8
1
  6
CONTINUOUS
 62
     2
100
AcDbLine
 10
164.237456
 20
59.233271
 30
0.0
 11
166.900327
 21
53.602245
 31
0.0
  0
LINE
  5
144
330
1F
100
AcDbEntity
  8
1
  6
CONTINUOUS
 62
     2
100
AcDbLine
 10
87.798348
 20
73.063114
 30
0.0
 11
80.785972
 21
69.111754
 31
0.0
  0
LINE
  5
145
330
1F
100
AcDbEntity
  8
1
  6
CONTINUOUS
 62
     2
100
AcDbLine
 10
81.127691
 20
68.492756
 30
0.0
 11
88.140067
 21
72.444117
 31
0.0
  0
LINE
  5
146
330
1F
100
AcDbEntity
  8
1
  6
CONTINUOUS
 62
     2
100
AcDbLine
 10
111.9383
 20
40.999578
 30
0.0
 11
111.897835
 21
39.8573
 31
0.0
  0
LINE
  5
147
330
1F
100
AcDbEntity
  8
1
  6
CONTINUOUS
 62
     2
100
AcDbLine
 10
102.222589
 20
41.536966
 30
0.0
 11
102.263054
 21
42.679244
 31
0.0
  0
LINE
  5
148
330
1F
100
AcDbEntity
  8
1
  6
CONTINUOUS
 62
     2
100
AcDbLine
 10
169.52672
 20
73.609644
 30
0.0
 11
169.480474
 21
72.304183
 31
0.0
  0
LINE
  5
149
330
1F
100
AcDbEntity
  8
1
  6
CONTINUOUS
 62
     2
100
AcDbLine
 10
88.477588
 20
92.237062
 30
0.0
 11
88.437123
 21
91.094784
 31
0.0
  0
LINE
  5
14A
330
1F
100
AcDbEntity
  8
1
  6
CONTINUOUS
 62
     2
100
AcDbLine
 10
81.424747
 20
87.143424
 30
0.0
 11
81.465212
 21
88.285702
 31
0.0
  0
LINE
  5
14B
330
1F
100
AcDbEntity
  8
1
  6
CONTINUOUS
 62
     2
100
AcDbLine
 10
168.081529
 20
73.412909
 30
0.0
 11
168.035283
 21
72.107449
 31
0.0
  0
LINE
  5
14C
330
1F
100
AcDbEntity
  8
1
  6
CONTINUOUS
 62
     2
100
AcDbLine
 10
165.372413
 20
77.738475
 30
0.0
 11
165.418659
 21
79.043935
 31
0.0
  0
LINE
  5
14D
330
1F
100
AcDbEntity
  8
1
  6
CONTINUOUS
 62
     2
100
AcDbLine
 10
112.314979
 20
41.829437
 30
0.0
 11
112.274513
 21
40.687159
 31
0.0
  0
LINE
  5
14E
330
1F
100
AcDbEntity
  8
1
  6
CONTINUOUS
 62
     2
100
AcDbLine
 10
80.356235
 20
87.776549
 30
0.0
 11
80.3967
 21
88.918826
 31
0.0
  0
LINE
  5
14F
330
1F
100
AcDbEntity
  8
1
  6
CONTINUOUS
 62
     2
100
AcDbLine
 10
81.386976
 20
97.473089
 30
0.0
 11
86.996877
 21
100.634177
 31
0.0
  0
LINE
  5
150
330
1F
100
AcDbEntity
  8
1
  6
CONTINUOUS
 62
     2
100
AcDbLine
 10
82.455488
 20
96.839964
 30
0.0
 11
88.065389
 21
100.001053
 31
0.0
  0
LINE
  5
151
330
1F
100
AcDbEntity
  8
1
  6
CONTINUOUS
 62
     2
100
AcDbLine
 10
103.896295
 20
51.500263
 30
0.0
 11
111.636492
 21
50.15653
 31
0.0
  0
LINE
  5
152
330
1F
100
AcDbEntity
  8
1
  6
CONTINUOUS
 62
     2
100
AcDbLine
 10
103.519617
 20
50.670404
 30
0.0
 11
111.259814
 21
49.326671
 31
0.0
  0
LINE
  5
153
330
1F
100
AcDbEntity
  8
1
  6
CONTINUOUS
 62
     2
100
AcDbLine
 10
165.973984
 20
86.639959
 30
0.0
 11
168.104281
 21
82.135138
 31
0.0
  0
LINE
  5
154
330
1F
100
AcDbEntity
  8
1
  6
CONTINUOUS
 62
     2
100
AcDbLine
 10
167.419175
 20
86.836694
 30
0.0
 11
169.549471
 21
82.331873
 31
0.0
  0
LINE
  5
155
330
1F
100
AcDbEntity
  8
1
  6
CONTINUOUS
 62
     2
100
AcDbLine
 10
169.422666
 20
70.672358
 30
0.0
 11
168.841699
 21
54.272513
 31
0.0
  0
LINE
  5
156
330
1F
100
AcDbEntity
  8
1
  6
CONTINUOUS
 62
     2
100
AcDbLine
 10
167.977476
 20
70.475623
 30
0.0
 11
167.396509
 21
54.075779
 31
0.0
  0
LINE
  5
157
330
1F
100
AcDbEntity
  8
1
  6
CONTINUOUS
 62
     2
100
AcDbLine
 10
164.733638
 20
59.706805
 30
0.0
 11
165.314605
 21
76.10665
 31
0.0
  0
LINE
  5
158
330
1F
100
AcDbEntity
  8
1
  6
CONTINUOUS
 62
     2
100
AcDbLine
 10
88.379315
 20
89.462959
 30
0.0
 11
87.798348
 21
73.063114
 31
0.0
  0
LINE
  5
159
330
1F
100
AcDbEntity
  8
1
  6
CONTINUOUS
 62
     2
100
AcDbLine
 10
80.785972
 20
69.111754
 30
0.0
 11
81.366939
 21
85.511599
 31
0.0
  0
LINE
  5
15A
330
1F
100
AcDbEntity
  8
1
  6
CONTINUOUS
 62
     2
100
AcDbLine
 10
79.71746
 20
69.744879
 30
0.0
 11
80.298427
 21
86.144723
 31
0.0
  0
LINE
  5
15B
330
1F
100
AcDbEntity
  8
1
  6
CONTINUOUS
 62
     2
100
AcDbLine
 10
112.216706
 20
39.055334
 30
0.0
 11
111.635739
 21
22.655489
 31
0.0
  0
LINE
  5
15C
330
1F
100
AcDbEntity
  8
1
  6
CONTINUOUS
 62
     2
100
AcDbLine
 10
87.310803
 20
90.096083
 30
0.0
 11
85.267699
 21
88.944828
 31
0.0
  0
LINE
  5
15D
330
1F
100
AcDbEntity
  8
1
  6
CONTINUOUS
 62
     2
100
AcDbLine
 10
88.379315
 20
89.462959
 30
0.0
 11
85.223029
 21
87.684443
 31
0.0
  0
LINE
  5
15E
330
1F
100
AcDbEntity
  8
1
  6
CONTINUOUS
 62
     2
100
AcDbLine
 10
87.310803
 20
90.096083
 30
0.0
 11
88.379315
 21
89.462959
 31
0.0
  0
LINE
  5
15F
330
1F
100
AcDbEntity
  8
1
  6
CONTINUOUS
 62
     2
100
AcDbLine
 10
167.977476
 20
70.475623
 30
0.0
 11
166.745816
 21
73.080146
 31
0.0
  0
LINE
  5
160
330
1F
100
AcDbEntity
  8
1
  6
CONTINUOUS
 62
     2
100
AcDbLine
 10
169.422666
 20
70.672358
 30
0.0
 11
168.701164
 21
72.198079
 31
0.0
  0
LINE
  5
161
330
1F
100
AcDbEntity
  8
1
  6
CONTINUOUS
 62
     2
100
AcDbLine
 10
169.422666
 20
70.672358
 30
0.0
 11
167.977476
 21
70.475623
 31
0.0
  0
LINE
  5
162
330
1F
100
AcDbEntity
  8
1
  6
CONTINUOUS
 62
     2
100
AcDbLine
 10
106.550141
 20
40.039075
 30
0.0
 11
102.541459
 21
40.735
 31
0.0
  0
LINE
  5
163
330
1F
100
AcDbEntity
  8
1
  6
CONTINUOUS
 62
     2
100
AcDbLine
 10
102.164781
 20
39.905141
 30
0.0
 11
106.518642
 21
39.149291
 31
0.0
  0
LINE
  5
164
330
1F
100
AcDbEntity
  8
1
  6
CONTINUOUS
 62
     2
100
AcDbLine
 10
102.541459
 20
40.735
 30
0.0
 11
102.164781
 21
39.905141
 31
0.0
  0
LINE
  5
165
330
1F
100
AcDbEntity
  8
1
  6
CONTINUOUS
 62
     2
100
AcDbLine
 10
83.466438
 20
88.293901
 30
0.0
 11
83.453279
 21
87.922431
 31
0.0
  0
LINE
  5
166
330
1F
100
AcDbEntity
  8
1
  6
CONTINUOUS
 62
     2
100
AcDbLine
 10
84.579599
 20
88.921132
 30
0.0
 11
84.521791
 21
87.289307
 31
0.0
  0
LINE
  5
167
330
1F
100
AcDbEntity
  8
1
  6
CONTINUOUS
 62
     2
100
AcDbLine
 10
107.862845
 20
39.811183
 30
0.0
 11
107.889132
 21
40.55323
 31
0.0
  0
LINE
  5
168
330
1F
100
AcDbEntity
  8
1
  6
CONTINUOUS
 62
     2
100
AcDbLine
 10
107.543974
 20
40.61315
 30
0.0
 11
107.486166
 21
38.981324
 31
0.0
  0
LINE
  5
169
330
1F
100
AcDbEntity
  8
1
  6
CONTINUOUS
 62
     2
100
AcDbLine
 10
107.862845
 20
39.811183
 30
0.0
 11
107.486166
 21
38.981324
 31
0.0
  0
LINE
  5
16A
330
1F
100
AcDbEntity
  8
1
  6
CONTINUOUS
 62
     2
100
AcDbLine
 10
112.216706
 20
39.055334
 30
0.0
 11
107.862845
 21
39.811183
 31
0.0
  0
LINE
  5
16B
330
1F
100
AcDbEntity
  8
1
  6
CONTINUOUS
 62
     2
100
AcDbLine
 10
107.486166
 20
38.981324
 30
0.0
 11
111.840027
 21
38.225475
 31
0.0
  0
LINE
  5
16C
330
1F
100
AcDbEntity
  8
1
  6
CONTINUOUS
 62
     2
100
AcDbLine
 10
111.840027
 20
38.225475
 30
0.0
 11
112.216706
 21
39.055334
 31
0.0
  0
LINE
  5
16D
330
1F
100
AcDbEntity
  8
1
  6
CONTINUOUS
 62
     2
100
AcDbLine
 10
166.745816
 20
73.080146
 30
0.0
 11
167.525113
 21
73.186232
 31
0.0
  0
LINE
  5
16E
330
1F
100
AcDbEntity
  8
1
  6
CONTINUOUS
 62
     2
100
AcDbLine
 10
166.745816
 20
73.080146
 30
0.0
 11
166.803624
 21
74.711972
 31
0.0
  0
LINE
  5
16F
330
1F
100
AcDbEntity
  8
1
  6
CONTINUOUS
 62
     2
100
AcDbLine
 10
85.223029
 20
87.684443
 30
0.0
 11
85.280836
 21
89.316268
 31
0.0
  0
LINE
  5
170
330
1F
100
AcDbEntity
  8
1
  6
CONTINUOUS
 62
     2
100
AcDbLine
 10
166.479529
 20
73.643249
 30
0.0
 11
165.314605
 21
76.10665
 31
0.0
  0
LINE
  5
171
330
1F
100
AcDbEntity
  8
1
  6
CONTINUOUS
 62
     2
100
AcDbLine
 10
165.314605
 20
76.10665
 30
0.0
 11
166.093902
 21
76.212736
 31
0.0
  0
LINE
  5
172
330
1F
100
AcDbEntity
  8
1
  6
CONTINUOUS
 62
     2
100
AcDbLine
 10
106.518642
 20
39.149291
 30
0.0
 11
106.576449
 21
40.781116
 31
0.0
  0
LINE
  5
173
330
1F
100
AcDbEntity
  8
1
  6
CONTINUOUS
 62
     2
100
AcDbLine
 10
84.521791
 20
87.289307
 30
0.0
 11
83.453279
 21
87.922431
 31
0.0
  0
LINE
  5
174
330
1F
100
AcDbEntity
  8
1
  6
CONTINUOUS
 62
     2
100
AcDbLine
 10
83.453279
 20
87.922431
 30
0.0
 11
80.298427
 21
86.144723
 31
0.0
  0
LINE
  5
175
330
1F
100
AcDbEntity
  8
1
  6
CONTINUOUS
 62
     2
100
AcDbLine
 10
84.521791
 20
87.289307
 30
0.0
 11
81.366939
 21
85.511599
 31
0.0
  0
LINE
  5
176
330
1F
100
AcDbEntity
  8
1
  6
CONTINUOUS
 62
     2
100
AcDbLine
 10
81.366939
 20
85.511599
 30
0.0
 11
80.298427
 21
86.144723
 31
0.0
  0
LINE
  5
177
330
1F
100
AcDbEntity
  8
1
  6
CONTINUOUS
 62
     2
100
AcDbLine
 10
166.537337
 20
75.275074
 30
0.0
 11
166.479529
 21
73.643249
 31
0.0
  0
LINE
  5
178
330
1F
100
AcDbEntity
  8
1
  6
CONTINUOUS
 62
     2
100
AcDbLine
 10
112.274513
 20
40.687159
 30
0.0
 11
111.897835
 21
39.8573
 31
0.0
  0
LINE
  5
179
330
1F
100
AcDbEntity
  8
1
  6
CONTINUOUS
 62
     2
100
AcDbLine
 10
111.897835
 20
39.8573
 30
0.0
 11
107.543974
 21
40.61315
 31
0.0
  0
LINE
  5
17A
330
1F
100
AcDbEntity
  8
1
  6
CONTINUOUS
 62
     2
100
AcDbLine
 10
106.576449
 20
40.781116
 30
0.0
 11
102.222589
 21
41.536966
 31
0.0
  0
LINE
  5
17B
330
1F
100
AcDbEntity
  8
1
  6
CONTINUOUS
 62
     2
100
AcDbLine
 10
168.035283
 20
72.107449
 30
0.0
 11
169.480474
 21
72.304183
 31
0.0
  0
LINE
  5
17C
330
1F
100
AcDbEntity
  8
1
  6
CONTINUOUS
 62
     2
100
AcDbLine
 10
166.803624
 20
74.711972
 30
0.0
 11
168.035283
 21
72.107449
 31
0.0
  0
LINE
  5
17D
330
1F
100
AcDbEntity
  8
1
  6
CONTINUOUS
 62
     2
100
AcDbLine
 10
165.372413
 20
77.738475
 30
0.0
 11
166.537337
 21
75.275074
 31
0.0
  0
LINE
  5
17E
330
1F
100
AcDbEntity
  8
1
  6
CONTINUOUS
 62
     2
100
AcDbLine
 10
85.280836
 20
89.316268
 30
0.0
 11
88.437123
 21
91.094784
 31
0.0
  0
LINE
  5
17F
330
1F
100
AcDbEntity
  8
1
  6
CONTINUOUS
 62
     2
100
AcDbLine
 10
80.356235
 20
87.776549
 30
0.0
 11
81.424747
 21
87.143424
 31
0.0
  0
LINE
  5
180
330
1F
100
AcDbEntity
  8
1
  6
CONTINUOUS
 62
     2
100
AcDbLine
 10
81.424747
 20
87.143424
 30
0.0
 11
84.579599
 21
88.921132
 31
0.0
  0
LINE
  5
181
330
1F
100
AcDbEntity
  8
1
  6
CONTINUOUS
 62
     2
100
AcDbLine
 10
103.519617
 20
50.670404
 30
0.0
 11
102.263054
 21
42.679244
 31
0.0
  0
LINE
  5
182
330
1F
100
AcDbEntity
  8
1
  6
CONTINUOUS
 62
     2
100
AcDbLine
 10
112.314979
 20
41.829437
 30
0.0
 11
111.9383
 21
40.999578
 31
0.0
  0
LINE
  5
183
330
1F
100
AcDbEntity
  8
1
  6
CONTINUOUS
 62
     2
100
AcDbLine
 10
111.9383
 20
40.999578
 30
0.0
 11
111.259814
 21
49.326671
 31
0.0
  0
LINE
  5
184
330
1F
100
AcDbEntity
  8
1
  6
CONTINUOUS
 62
     2
100
AcDbLine
 10
88.477588
 20
92.237062
 30
0.0
 11
88.065389
 21
100.001053
 31
0.0
  0
LINE
  5
185
330
1F
100
AcDbEntity
  8
1
  6
CONTINUOUS
 62
     2
100
AcDbLine
 10
81.465212
 20
88.285702
 30
0.0
 11
80.3967
 21
88.918826
 31
0.0
  0
LINE
  5
186
330
1F
100
AcDbEntity
  8
1
  6
CONTINUOUS
 62
     2
100
AcDbLine
 10
80.3967
 20
88.918826
 30
0.0
 11
81.386976
 21
97.473089
 31
0.0
  0
LINE
  5
187
330
1F
100
AcDbEntity
  8
1
  6
CONTINUOUS
 62
     2
100
AcDbLine
 10
82.455488
 20
96.839964
 30
0.0
 11
81.465212
 21
88.285702
 31
0.0
  0
LINE
  5
188
330
1F
100
AcDbEntity
  8
1
  6
CONTINUOUS
 62
     2
100
AcDbLine
 10
169.52672
 20
73.609644
 30
0.0
 11
168.081529
 21
73.412909
 31
0.0
  0
LINE
  5
189
330
1F
100
AcDbEntity
  8
1
  6
CONTINUOUS
 62
     2
100
AcDbLine
 10
168.081529
 20
73.412909
 30
0.0
 11
168.104281
 21
82.135138
 31
0.0
  0
LINE
  5
18A
330
1F
100
AcDbEntity
  8
1
  6
CONTINUOUS
 62
     2
100
AcDbLine
 10
169.549471
 20
82.331873
 30
0.0
 11
169.52672
 21
73.609644
 31
0.0
  0
LINE
  5
18B
330
1F
100
AcDbEntity
  8
1
  6
CONTINUOUS
 62
     2
100
AcDbLine
 10
165.973984
 20
86.639959
 30
0.0
 11
165.418659
 21
79.043935
 31
0.0
  0
LINE
  5
18C
330
1F
100
AcDbEntity
  8
1
  6
CONTINUOUS
 62
     2
100
AcDbLine
 10
81.386976
 20
97.473089
 30
0.0
 11
82.455488
 21
96.839964
 31
0.0
  0
LINE
  5
18D
330
1F
100
AcDbEntity
  8
1
  6
CONTINUOUS
 62
     2
100
AcDbLine
 10
88.065389
 20
100.001053
 30
0.0
 11
86.996877
 21
100.634177
 31
0.0
  0
LINE
  5
18E
330
1F
100
AcDbEntity
  8
1
  6
CONTINUOUS
 62
     2
100
AcDbLine
 10
111.259814
 20
49.326671
 30
0.0
 11
111.636492
 21
50.15653
 31
0.0
  0
LINE
  5
18F
330
1F
100
AcDbEntity
  8
1
  6
CONTINUOUS
 62
     2
100
AcDbLine
 10
103.896295
 20
51.500263
 30
0.0
 11
103.519617
 21
50.670404
 31
0.0
  0
LINE
  5
190
330
1F
100
AcDbEntity
  8
1
  6
CONTINUOUS
 62
     2
100
AcDbLine
 10
167.419175
 20
86.836694
 30
0.0
 11
165.973984
 21
86.639959
 31
0.0
  0
LINE
  5
191
330
1F
100
AcDbEntity
  8
1
  6
CONTINUOUS
 62
     2
100
AcDbLine
 10
168.104281
 20
82.135138
 30
0.0
 11
169.549471
 21
82.331873
 31
0.0
  0
LINE
  5
192
330
1F
100
AcDbEntity
  8
256
  6
CONTINUOUS
 62
     2
100
AcDbLine
 10
15.0
 20
287.0
 30
0.0
 11
405.0
 21
287.0
 31
0.0
  0
LINE
  5
194
330
1F
100
AcDbEntity
  8
256
  6
CONTINUOUS
 62
     2
100
AcDbLine
 10
400.0
 20
100.0
 30
0.0
 11
400.0
 21
287.0
 31
0.0
  0
LINE
  5
195
330
1F
100
AcDbEntity
  8
256
  6
CONTINUOUS
 62
     3
100
AcDbLine
 10
375.0
 20
287.0
 30
0.0
 11
375.0
 21
100.0
 31
0.0
  0
LINE
  5
196
330
1F
100
AcDbEntity
  8
256
  6
CONTINUOUS
 62
     2
100
AcDbLine
 10
370.0
 20
287.0
 30
0.0
 11
370.0
 21
100.0
 31
0.0
  0
LINE
  5
197
330
1F
100
AcDbEntity
  8
256
  6
CONTINUOUS
 62
     2
100
AcDbLine
 10
15.0
 20
287.0
 30
0.0
 11
15.0
 21
10.0
 31
0.0
  0
LINE
  5
198
330
1F
100
AcDbEntity
  8
256
  6
CONTINUOUS
 62
     3
100
AcDbLine
 10
205.0
 20
297.0
 30
0.0
 11
205.0
 21
287.0
 31
0.0
  0
LINE
  5
199
330
1F
100
AcDbEntity
  8
256
  6
CONTINUOUS
 62
     3
100
AcDbLine
 10
395.0
 20
287.0
 30
0.0
 11
395.0
 21
100.0
 31
0.0
  0
LINE
  5
19A
330
1F
100
AcDbEntity
  8
256
  6
CONTINUOUS
 62
     2
100
AcDbLine
 10
15.0
 20
10.0
 30
0.0
 11
405.0
 21
10.0
 31
0.0
  0
LINE
  5
19B
330
1F
100
AcDbEntity
  8
256
  6
CONTINUOUS
 62
     3
100
AcDbLine
 10
380.0
 20
287.0
 30
0.0
 11
380.0
 21
100.0
 31
0.0
  0
LINE
  5
19C
330
1F
100
AcDbEntity
  8
256
  6
CONTINUOUS
 62
     3
100
AcDbLine
 10
-0.04
 20
148.5
 30
0.0
 11
15.0
 21
148.5
 31
0.0
  0
LINE
  5
19D
330
1F
100
AcDbEntity
  8
256
  6
CONTINUOUS
 62
     3
100
AcDbLine
 10
205.0
 20
0.0
 30
0.0
 11
205.0
 21
10.0
 31
0.0
  0
LINE
  5
19E
330
1F
100
AcDbEntity
  8
256
  6
CONTINUOUS
 62
     3
100
AcDbLine
 10
390.0
 20
287.0
 30
0.0
 11
390.0
 21
100.0
 31
0.0
  0
LINE
  5
19F
330
1F
100
AcDbEntity
  8
256
  6
CONTINUOUS
 62
     2
100
AcDbLine
 10
405.0
 20
10.0
 30
0.0
 11
405.0
 21
287.0
 31
0.0
  0
LINE
  5
1A0
330
1F
100
AcDbEntity
  8
256
  6
CONTINUOUS
 62
     3
100
AcDbLine
 10
385.0
 20
287.0
 30
0.0
 11
385.0
 21
100.0
 31
0.0
  0
LINE
  5
1A1
330
1F
100
AcDbEntity
  8
256
  6
CONTINUOUS
 62
     3
100
AcDbLine
 10
0.0
 20
297.0
 30
0.0
 11
415.0
 21
297.0
 31
0.0
  0
LINE
  5
1A2
330
1F
100
AcDbEntity
  8
256
  6
CONTINUOUS
 62
     3
100
AcDbLine
 10
415.0
 20
0.0
 30
0.0
 11
415.0
 21
297.0
 31
0.0
  0
LINE
  5
1A3
330
1F
100
AcDbEntity
  8
256
  6
CONTINUOUS
 62
     3
100
AcDbLine
 10
0.0
 20
0.0
 30
0.0
 11
415.0
 21
0.0
 31
0.0
  0
LINE
  5
1A4
330
1F
100
AcDbEntity
  8
256
  6
CONTINUOUS
 62
     3
100
AcDbLine
 10
0.0
 20
297.0
 30
0.0
 11
0.0
 21
0.0
 31
0.0
  0
LINE
  5
1A5
330
1F
100
AcDbEntity
  8
256
  6
CONTINUOUS
 62
     2
100
AcDbLine
 10
325.0
 20
67.5
 30
0.0
 11
405.0
 21
67.5
 31
0.0
  0
LINE
  5
1A6
330
1F
100
AcDbEntity
  8
256
  6
CONTINUOUS
 62
     2
100
AcDbLine
 10
267.5
 20
51.0
 30
0.0
 11
365.0
 21
51.0
 31
0.0
  0
LINE
  5
1A7
330
1F
100
AcDbEntity
  8
256
  6
CONTINUOUS
 62
     3
100
AcDbLine
 10
383.0
 20
56.579805
 30
0.0
 11
383.0
 21
49.500705
 31
0.0
  0
LINE
  5
1A8
330
1F
100
AcDbEntity
  8
256
  6
CONTINUOUS
 62
     3
100
AcDbLine
 10
256.875
 20
22.0
 30
0.0
 11
256.875
 21
10.0
 31
0.0
  0
LINE
  5
1A9
330
1F
100
AcDbEntity
  8
256
  6
CONTINUOUS
 62
     2
100
AcDbLine
 10
225.0
 20
100.0
 30
0.0
 11
405.0
 21
100.0
 31
0.0
  0
LINE
  5
1AA
330
1F
100
AcDbEntity
  8
256
  6
CONTINUOUS
 62
     3
100
AcDbLine
 10
325.0
 20
62.0
 30
0.0
 11
365.0
 21
62.0
 31
0.0
  0
LINE
  5
1AB
330
1F
100
AcDbEntity
  8
256
  6
CONTINUOUS
 62
     3
100
AcDbLine
 10
383.0
 20
49.500705
 30
0.0
 11
374.97
 21
51.256405
 31
0.0
  0
LINE
  5
1AC
330
1F
100
AcDbEntity
  8
256
  6
CONTINUOUS
 62
     2
100
AcDbLine
 10
225.0
 20
10.0
 30
0.0
 11
405.0
 21
10.0
 31
0.0
  0
LINE
  5
1AD
330
1F
100
AcDbEntity
  8
256
  6
CONTINUOUS
 62
     2
100
AcDbLine
 10
267.5
 20
44.0
 30
0.0
 11
405.0
 21
44.0
 31
0.0
  0
LINE
  5
1AE
330
1F
100
AcDbEntity
  8
256
  6
CONTINUOUS
 62
     3
100
AcDbLine
 10
374.97
 20
54.824205
 30
0.0
 11
374.97
 21
51.256405
 31
0.0
  0
LINE
  5
1AF
330
1F
100
AcDbEntity
  8
256
  6
CONTINUOUS
 62
     2
100
AcDbLine
 10
225.0
 20
28.0
 30
0.0
 11
267.5
 21
28.0
 31
0.0
  0
LINE
  5
1B0
330
1F
100
AcDbEntity
  8
256
  6
CENTER
 62
     3
100
AcDbLine
 10
391.579
 20
57.640305
 30
0.0
 11
391.579
 21
48.487505
 31
0.0
  0
LINE
  5
1B1
330
1F
100
AcDbEntity
  8
256
  6
CONTINUOUS
 62
     3
100
AcDbLine
 10
383.0
 20
56.579805
 30
0.0
 11
374.97
 21
54.824205
 31
0.0
  0
LINE
  5
1B2
330
1F
100
AcDbEntity
  8
256
  6
CONTINUOUS
 62
     3
100
AcDbLine
 10
325.0
 20
56.5
 30
0.0
 11
365.0
 21
56.5
 31
0.0
  0
LINE
  5
1B3
330
1F
100
AcDbEntity
  8
256
  6
CENTER
 62
     3
100
AcDbLine
 10
386.745
 20
53.040305
 30
0.0
 11
396.158
 21
53.040305
 31
0.0
  0
LINE
  5
1B4
330
1F
100
AcDbEntity
  8
256
  6
CONTINUOUS
 62
     2
100
AcDbLine
 10
365.0
 20
67.5
 30
0.0
 11
365.0
 21
10.0
 31
0.0
  0
LINE
  5
1B5
330
1F
100
AcDbEntity
  8
256
  6
CONTINUOUS
 62
     3
100
AcDbLine
 10
365.0
 20
28.0
 30
0.0
 11
405.0
 21
28.0
 31
0.0
  0
LINE
  5
1B6
330
1F
100
AcDbEntity
  8
256
  6
CONTINUOUS
 62
     3
100
AcDbLine
 10
345.0
 20
51.0
 30
0.0
 11
345.0
 21
67.5
 31
0.0
  0
LINE
  5
1B7
330
1F
100
AcDbEntity
  8
256
  6
CONTINUOUS
 62
     2
100
AcDbLine
 10
225.0
 20
100.0
 30
0.0
 11
225.0
 21
10.0
 31
0.0
  0
LINE
  5
1B8
330
1F
100
AcDbEntity
  8
256
  6
CONTINUOUS
 62
     3
100
AcDbLine
 10
225.0
 20
35.9
 30
0.0
 11
267.5
 21
35.9
 31
0.0
  0
LINE
  5
1B9
330
1F
100
AcDbEntity
  8
256
  6
CONTINUOUS
 62
     3
100
AcDbLine
 10
246.25
 20
16.0
 30
0.0
 11
267.5
 21
16.0
 31
0.0
  0
LINE
  5
1BA
330
1F
100
AcDbEntity
  8
256
  6
CONTINUOUS
 62
     2
100
AcDbLine
 10
225.0
 20
58.0
 30
0.0
 11
267.5
 21
58.0
 31
0.0
  0
LINE
  5
1BB
330
1F
100
AcDbEntity
  8
256
  6
CONTINUOUS
 62
     3
100
AcDbLine
 10
267.5
 20
43.8
 30
0.0
 11
225.0
 21
43.8
 31
0.0
  0
LINE
  5
1BC
330
1F
100
AcDbEntity
  8
256
  6
CONTINUOUS
 62
     3
100
AcDbLine
 10
307.189666
 20
60.322391
 30
0.0
 11
305.409666
 21
59.762391
 31
0.0
  0
LINE
  5
1BD
330
1F
100
AcDbEntity
  8
256
  6
CONTINUOUS
 62
     3
100
AcDbLine
 10
225.0
 20
71.88581
 30
0.0
 11
267.5
 21
71.88581
 31
0.0
  0
LINE
  5
1BE
330
1F
100
AcDbEntity
  8
256
  6
CONTINUOUS
 62
     2
100
AcDbLine
 10
225.0
 20
79.88581
 30
0.0
 11
325.0
 21
79.88581
 31
0.0
  0
LINE
  5
1BF
330
1F
100
AcDbEntity
  8
256
  6
CONTINUOUS
 62
     3
100
AcDbLine
 10
307.189666
 20
60.322391
 30
0.0
 11
305.409666
 21
60.882391
 31
0.0
  0
LINE
  5
1C0
330
1F
100
AcDbEntity
  8
256
  6
CONTINUOUS
 62
     2
100
AcDbLine
 10
267.5
 20
58.0
 30
0.0
 11
325.0
 21
58.0
 31
0.0
  0
LINE
  5
1C1
330
1F
100
AcDbEntity
  8
256
  6
CONTINUOUS
 62
     3
100
AcDbLine
 10
267.5
 20
51.0
 30
0.0
 11
225.0
 21
51.0
 31
0.0
  0
LINE
  5
1C2
330
1F
100
AcDbEntity
  8
256
  6
CONTINUOUS
 62
     3
100
AcDbLine
 10
297.599666
 20
71.897391
 30
0.0
 11
297.599666
 21
58.842391
 31
0.0
  0
LINE
  5
1C3
330
1F
100
AcDbEntity
  8
256
  6
CONTINUOUS
 62
     2
100
AcDbLine
 10
256.875
 20
22.0
 30
0.0
 11
246.25
 21
22.0
 31
0.0
  0
LINE
  5
1C4
330
1F
100
AcDbEntity
  8
256
  6
CONTINUOUS
 62
     2
100
AcDbLine
 10
225.0
 20
87.88581
 30
0.0
 11
325.0
 21
87.88581
 31
0.0
  0
LINE
  5
1C5
330
1F
100
AcDbEntity
  8
256
  6
CONTINUOUS
 62
     3
100
AcDbLine
 10
251.563
 20
22.0
 30
0.0
 11
251.563
 21
10.0
 31
0.0
  0
LINE
  5
1C6
330
1F
100
AcDbEntity
  8
256
  6
CENTER
 62
     3
100
AcDbLine
 10
373.719
 20
53.040305
 30
0.0
 11
384.383
 21
53.040305
 31
0.0
  0
LINE
  5
1C7
330
1F
100
AcDbEntity
  8
256
  6
CONTINUOUS
 62
     2
100
AcDbLine
 10
325.0
 20
51.0
 30
0.0
 11
325.0
 21
100.0
 31
0.0
  0
LINE
  5
1C8
330
1F
100
AcDbEntity
  8
256
  6
CONTINUOUS
 62
     2
100
AcDbLine
 10
246.25
 20
28.0
 30
0.0
 11
246.25
 21
10.0
 31
0.0
  0
LINE
  5
1C9
330
1F
100
AcDbEntity
  8
256
  6
CONTINUOUS
 62
     3
100
AcDbLine
 10
262.188
 20
28.0
 30
0.0
 11
262.188
 21
10.0
 31
0.0
  0
LINE
  5
1CA
330
1F
100
AcDbEntity
  8
256
  6
CONTINUOUS
 62
     2
100
AcDbLine
 10
246.25
 20
58.0
 30
0.0
 11
246.25
 21
27.9773
 31
0.0
  0
LINE
  5
1CB
330
1F
100
AcDbEntity
  8
256
  6
CONTINUOUS
 62
     3
100
AcDbLine
 10
365.0
 20
36.0
 30
0.0
 11
405.0
 21
36.0
 31
0.0
  0
LINE
  5
1CC
330
1F
100
AcDbEntity
  8
256
  6
CONTINUOUS
 62
     3
100
AcDbLine
 10
256.875
 20
22.0
 30
0.0
 11
267.5
 21
22.0
 31
0.0
  0
LINE
  5
1CD
330
1F
100
AcDbEntity
  8
256
  6
CONTINUOUS
 62
     2
100
AcDbLine
 10
267.5
 20
10.0
 30
0.0
 11
267.5
 21
79.88581
 31
0.0
  0
LINE
  5
1CE
330
1F
100
AcDbEntity
  8
256
  6
CONTINUOUS
 62
     2
100
AcDbLine
 10
256.875
 20
22.0
 30
0.0
 11
256.875
 21
28.0
 31
0.0
  0
LINE
  5
1CF
330
1F
100
AcDbEntity
  8
256
  6
CONTINUOUS
 62
     2
100
AcDbLine
 10
370.0
 20
107.0
 30
0.0
 11
405.0
 21
107.0
 31
0.0
  0
CIRCLE
  5
1D0
330
1F
100
AcDbEntity
  8
1
  6
CONTINUOUS
 62
     2
100
AcDbCircle
 10
99.927649
 20
228.565322
 30
0.0
 40
43.0
  0
ARC
  5
1D1
330
1F
100
AcDbEntity
  8
1
  6
CONTINUOUS
 62
     2
100
AcDbCircle
 10
51.631358
 20
115.121879
 30
0.0
 40
2.0
100
AcDbArc
 50
180.0
 51
270.0
  0
ARC
  5
1D2
330
1F
100
AcDbEntity
  8
1
  6
CONTINUOUS
 62
     2
100
AcDbCircle
 10
51.631358
 20
115.121879
 30
0.0
 40
0.5
100
AcDbArc
 50
180.0
 51
270.0
  0
CIRCLE
  5
1D3
330
1F
100
AcDbEntity
  8
1
  6
CONTINUOUS
 62
     2
100
AcDbCircle
 10
190.839233
 20
228.565322
 30
0.0
 40
1.65
  0
CIRCLE
  5
1D4
330
1F
100
AcDbEntity
  8
255
  6
CONTINUOUS
 62
   150
100
AcDbCircle
 10
254.170187
 20
197.059893
 30
0.0
 40
1.65
  0
CIRCLE
  5
1D5
330
1F
100
AcDbEntity
  8
255
  6
CONTINUOUS
 62
   150
100
AcDbCircle
 10
309.02942
 20
197.059893
 30
0.0
 40
43.0
  0
CIRCLE
  5
1D6
330
1F
100
AcDbEntity
  8
255
  6
CONTINUOUS
 62
   150
100
AcDbCircle
 10
336.453474
 20
149.547191
 30
0.0
 40
1.65
  0
CIRCLE
  5
1D7
330
1F
100
AcDbEntity
  8
255
  6
CONTINUOUS
 62
   150
100
AcDbCircle
 10
336.729291
 20
244.413352
 30
0.0
 40
1.65
  0
CIRCLE
  5
1D8
330
1F
100
AcDbEntity
  8
256
  6
CONTINUOUS
 62
     3
100
AcDbCircle
 10
391.579
 20
53.040305
 30
0.0
 40
1.78392
  0
CIRCLE
  5
1D9
330
1F
100
AcDbEntity
  8
256
  6
CONTINUOUS
 62
     3
100
AcDbCircle
 10
294.709666
 20
61.202391
 30
0.0
 40
0.197989
  0
CIRCLE
  5
1DA
330
1F
100
AcDbEntity
  8
256
  6
CONTINUOUS
 62
     3
100
AcDbCircle
 10
391.579
 20
53.040305
 30
0.0
 40
3.53955
  0
ELLIPSE
  5
1DB
330
1F
100
AcDbEntity
  8
1
  6
CONTINUOUS
 62
     2
100
AcDbEllipse
 10
119.745668
 20
115.121879
 30
0.0
 11
-1.224606353822377E-16
 21
-2.0
 31
0.0
210
0.0
220
0.0
230
1.0
 40
0.5
 41
0.0
 42
1.570796326794896
  0
ELLIPSE
  5
1DC
330
1F
100
AcDbEntity
  8
1
  6
CONTINUOUS
 62
     2
100
AcDbEllipse
 10
128.405922
 20
115.121879
 30
0.0
 11
0.0
 21
2.0
 31
-1.224606353822377E-16
210
6.123031769111886E-17
220
6.123031769111886E-17
230
1.0
 40
0.5
 41
3.141592653589775
 42
4.712388980384672
  0
ELLIPSE
  5
1DD
330
1F
100
AcDbEntity
  8
1
  6
CONTINUOUS
 62
     2
100
AcDbEllipse
 10
119.745668
 20
115.121879
 30
0.0
 11
-3.061515884555943E-17
 21
-0.5
 31
0.0
210
0.0
220
0.0
230
1.0
 40
0.5
 41
0.0
 42
1.570796326794893
  0
ELLIPSE
  5
1DE
330
1F
100
AcDbEntity
  8
1
  6
CONTINUOUS
 62
     2
100
AcDbEllipse
 10
124.596049
 20
120.121879
 30
0.0
 11
0.0
 21
1.65
 31
-1.010300241903461E-16
210
6.123031769111886E-17
220
6.123031769111886E-17
230
1.0
 40
0.866025
 41
3.407056898086215
 42
6.017622318918132
  0
ELLIPSE
  5
1DF
330
1F
100
AcDbEntity
  8
1
  6
CONTINUOUS
 62
     2
100
AcDbEllipse
 10
125.346049
 20
120.121879
 30
0.0
 11
0.0
 21
1.65
 31
-1.010300241903461E-16
210
6.123031769111886E-17
220
6.123031769111886E-17
230
1.0
 40
0.866025
 41
0.0
 42
6.283185307179586
  0
ELLIPSE
  5
1E0
330
1F
100
AcDbEntity
  8
1
  6
CONTINUOUS
 62
     2
100
AcDbEllipse
 10
124.320232
 20
120.121879
 30
0.0
 11
0.0
 21
1.65
 31
-1.010300241903461E-16
210
6.123031769111886E-17
220
6.123031769111886E-17
230
1.0
 40
0.866025
 41
3.50876621452507
 42
5.916109937595145
  0
ELLIPSE
  5
1E1
330
1F
100
AcDbEntity
  8
1
  6
CONTINUOUS
 62
     2
100
AcDbEllipse
 10
195.839233
 20
184.239507
 30
0.0
 11
2.0
 21
0.0
 31
0.0
210
0.0
220
0.0
230
1.0
 40
0.866025
 41
4.71238898038468
 42
4.965090895063757
  0
ELLIPSE
  5
1E2
330
1F
100
AcDbEntity
  8
1
  6
CONTINUOUS
 62
     2
100
AcDbEllipse
 10
195.839233
 20
272.891137
 30
0.0
 11
-2.0
 21
-2.121080424092023E-16
 31
0.0
210
0.0
220
0.0
230
1.0
 40
0.866025
 41
4.459687065705608
 42
4.712388980384688
  0
ELLIPSE
  5
1E3
330
1F
100
AcDbEntity
  8
1
  6
CONTINUOUS
 62
     2
100
AcDbEllipse
 10
195.839233
 20
272.891137
 30
0.0
 11
-0.5
 21
-5.302701060230057E-17
 31
0.0
210
0.0
220
0.0
230
1.0
 40
0.866025
 41
3.141592653589744
 42
4.712388980384686
  0
ELLIPSE
  5
1E4
330
1F
100
AcDbEntity
  8
1
  6
CONTINUOUS
 62
     2
100
AcDbEllipse
 10
195.839233
 20
267.891137
 30
0.0
 11
0.5
 21
0.0
 31
0.0
210
0.0
220
0.0
230
1.0
 40
0.866025
 41
0.0
 42
1.570796326794896
  0
ELLIPSE
  5
1E5
330
1F
100
AcDbEntity
  8
1
  6
CONTINUOUS
 62
     2
100
AcDbEllipse
 10
195.839233
 20
189.239507
 30
0.0
 11
-0.5
 21
-5.302701060230057E-17
 31
0.0
210
0.0
220
0.0
230
1.0
 40
0.866025
 41
1.570796326794901
 42
3.141592653589793
  0
ELLIPSE
  5
1E6
330
1F
100
AcDbEntity
  8
1
  6
CONTINUOUS
 62
     2
100
AcDbEllipse
 10
195.839233
 20
184.239507
 30
0.0
 11
0.5
 21
0.0
 31
0.0
210
0.0
220
0.0
230
1.0
 40
0.866025
 41
4.712388980384691
 42
6.283185307179586
  0
ELLIPSE
  5
1E7
330
1F
100
AcDbEntity
  8
1
  6
CONTINUOUS
 62
     2
100
AcDbEllipse
 10
190.839233
 20
270.668118
 30
0.0
 11
-1.65
 21
-1.749891349875919E-16
 31
0.0
210
0.0
220
0.0
230
1.0
 40
0.5
 41
0.0
 42
6.283185307179586
  0
ELLIPSE
  5
1E8
330
1F
100
AcDbEntity
  8
1
  6
CONTINUOUS
 62
     2
100
AcDbEllipse
 10
190.839233
 20
271.967157
 30
0.0
 11
-1.65
 21
-1.749891349875919E-16
 31
0.0
210
0.0
220
0.0
230
1.0
 40
0.5
 41
0.9064473027491327
 42
2.23524260239956
  0
ELLIPSE
  5
1E9
330
1F
100
AcDbEntity
  8
1
  6
CONTINUOUS
 62
     2
100
AcDbEllipse
 10
190.839233
 20
185.004244
 30
0.0
 11
1.65
 21
0.0
 31
0.0
210
0.0
220
0.0
230
1.0
 40
0.5
 41
0.9064473027491368
 42
2.235242602399564
  0
ELLIPSE
  5
1EA
330
1F
100
AcDbEntity
  8
1
  6
CONTINUOUS
 62
     2
100
AcDbEllipse
 10
190.839233
 20
186.303282
 30
0.0
 11
1.65
 21
0.0
 31
0.0
210
0.0
220
0.0
230
1.0
 40
0.5
 41
0.0
 42
6.283185307179586
  0
ELLIPSE
  5
1EB
330
1F
100
AcDbEntity
  8
1
  6
CONTINUOUS
 62
     2
100
AcDbEllipse
 10
111.761298
 20
22.932109
 30
0.0
 11
0.3420921121907303
 21
1.970526068535224
 31
1.110223024625156E-16
210
-2.316823481186936E-17
220
-5.231934442594233E-17
230
0.9999999999999998
 40
0.1889
 41
2.199428721569798
 42
3.770225048364695
  0
ELLIPSE
  5
1EC
330
1F
100
AcDbEntity
  8
1
  6
CONTINUOUS
 62
     2
100
AcDbEllipse
 10
81.142143
 20
68.900713
 30
0.0
 11
0.9818243620027596
 21
-1.742418124956773
 31
1.110223024625157E-16
210
2.111071770044585E-17
220
7.561291834211427E-17
230
1.0
 40
0.593408
 41
3.912297753310578
 42
4.887418742887009
  0
ELLIPSE
  5
1ED
330
1F
100
AcDbEntity
  8
1
  6
CONTINUOUS
 62
     2
100
AcDbEllipse
 10
118.993975
 20
48.859524
 30
0.0
 11
42.97304413492157
 21
-1.522326436111302
 31
-3.445916696086463E-16
210
9.973994065119666E-18
220
5.519264170949723E-17
230
0.9999999999999998
 40
0.577452
 41
0.0247087249489245
 42
3.116919453860046
  0
ELLIPSE
  5
1EE
330
1F
100
AcDbEntity
  8
1
  6
CONTINUOUS
 62
     2
100
AcDbEllipse
 10
166.914779
 20
54.010201
 30
0.0
 11
1.808029057994194
 21
0.8550034651676155
 31
-5.551115123125784E-17
210
1.360330288121580E-18
220
6.204844389895441E-17
230
0.9999999999999999
 40
0.782309
 41
4.618538614033001
 42
5.898860206678534
  0
ELLIPSE
  5
1EF
330
1F
100
AcDbEntity
  8
1
  6
CONTINUOUS
 62
     2
100
AcDbEllipse
 10
102.086052
 20
24.611775
 30
0.0
 11
-0.3420921121907303
 21
-1.970526068535224
 31
-1.110223024625156E-16
210
-2.316823481186936E-17
220
-5.231934442594233E-17
230
0.9999999999999998
 40
0.1889
 41
5.341021375159565
 42
6.283180423951343
  0
ELLIPSE
  5
1F0
330
1F
100
AcDbEntity
  8
1
  6
CONTINUOUS
 62
     2
100
AcDbEllipse
 10
111.761298
 20
22.932109
 30
0.0
 11
0.08552302804768257
 21
0.492631517133806
 31
2.775557561562891E-17
210
-2.316823481186936E-17
220
-5.231934442594233E-17
230
0.9999999999999998
 40
0.1889
 41
2.199428721569775
 42
3.770225048364673
  0
ELLIPSE
  5
1F1
330
1F
100
AcDbEntity
  8
1
  6
CONTINUOUS
 62
     2
100
AcDbEllipse
 10
166.914779
 20
54.010201
 30
0.0
 11
0.4520072644985484
 21
0.2137508662919039
 31
-1.387778780781446E-17
210
1.360330288121580E-18
220
6.204844389895441E-17
230
0.9999999999999999
 40
0.782309
 41
4.32806387988359
 42
5.898860206678527
  0
ELLIPSE
  5
1F2
330
1F
100
AcDbEntity
  8
1
  6
CONTINUOUS
 62
     2
100
AcDbEllipse
 10
164.251908
 20
59.641227
 30
0.0
 11
-0.4520072644985484
 21
-0.2137508662919039
 31
1.387778780781446E-17
210
1.360330288121580E-18
220
6.204844389895441E-17
230
0.9999999999999999
 40
0.782309
 41
1.186471226293837
 42
2.757267553088746
  0
ELLIPSE
  5
1F3
330
1F
100
AcDbEntity
  8
1
  6
CONTINUOUS
 62
     2
100
AcDbEllipse
 10
88.154519
 20
72.852073
 30
0.0
 11
-0.2454560905006899
 21
0.4356045312391931
 31
-2.775557561562892E-17
210
2.111071770044585E-17
220
7.561291834211427E-17
230
1.0
 40
0.593408
 41
0.7707050997207963
 42
2.341501426515664
  0
ELLIPSE
  5
1F4
330
1F
100
AcDbEntity
  8
1
  6
CONTINUOUS
 62
     2
100
AcDbEllipse
 10
81.142143
 20
68.900713
 30
0.0
 11
0.2454560905006899
 21
-0.4356045312391931
 31
2.775557561562892E-17
210
2.111071770044585E-17
220
7.561291834211427E-17
230
1.0
 40
0.593408
 41
3.912297753310578
 42
5.483094080105494
  0
ELLIPSE
  5
1F5
330
1F
100
AcDbEntity
  8
1
  6
CONTINUOUS
 62
     2
100
AcDbEllipse
 10
119.037331
 20
50.083393
 30
0.0
 11
-42.97304413492157
 21
1.522326436111302
 31
3.445916696086463E-16
210
9.973994065119666E-18
220
5.519264170949723E-17
230
0.9999999999999998
 40
0.577452
 41
6.049694386472066
 42
6.283185307179586
  0
ELLIPSE
  5
1F6
330
1F
100
AcDbEntity
  8
1
  6
CONTINUOUS
 62
     2
100
AcDbEllipse
 10
119.037331
 20
50.083393
 30
0.0
 11
-42.97304413492157
 21
1.522326436111302
 31
3.445916696086463E-16
210
9.973994065119666E-18
220
5.519264170949723E-17
230
0.9999999999999998
 40
0.577452
 41
0.0
 42
1.176986008549727
  0
ELLIPSE
  5
1F7
330
1F
100
AcDbEntity
  8
1
  6
CONTINUOUS
 62
     2
100
AcDbEllipse
 10
119.037331
 20
50.083393
 30
0.0
 11
-42.97304413492157
 21
1.522326436111302
 31
3.445916696086463E-16
210
9.973994065119666E-18
220
5.519264170949723E-17
230
0.9999999999999998
 40
0.577452
 41
1.420852138719157
 42
6.049694386472
  0
ELLIPSE
  5
1F8
330
1F
100
AcDbEntity
  8
1
  6
CONTINUOUS
 62
     2
100
AcDbEllipse
 10
106.942635
 20
27.574885
 30
0.0
 11
-1.502466221813606
 21
0.6819789236546451
 31
-4.579669976578770E-17
210
-4.821772727090864E-17
220
-3.907570428799389E-17
230
1.0
 40
0.79427
 41
0.3550318502374905
 42
1.886950780447254
  0
ELLIPSE
  5
1F9
330
1F
100
AcDbEntity
  8
1
  6
CONTINUOUS
 62
     2
100
AcDbEllipse
 10
106.942635
 20
27.574885
 30
0.0
 11
-1.502466221813606
 21
0.6819789236546451
 31
-4.579669976578770E-17
210
-4.821772727090864E-17
220
-3.907570428799389E-17
230
1.0
 40
0.79427
 41
1.886950780447254
 42
2.786525941909424
  0
ELLIPSE
  5
1FA
330
1F
100
AcDbEntity
  8
1
  6
CONTINUOUS
 62
     2
100
AcDbEllipse
 10
106.565956
 20
26.745026
 30
0.0
 11
1.502466221813606
 21
-0.6819789236546451
 31
4.579669976578770E-17
210
-4.821772727090864E-17
220
-3.907570428799389E-17
230
1.0
 40
0.79427
 41
0.0
 42
6.283185307179586
  0
ELLIPSE
  5
1FB
330
1F
100
AcDbEntity
  8
1
  6
CONTINUOUS
 62
     2
100
AcDbEllipse
 10
166.126495
 20
61.146579
 30
0.0
 11
-0.2225625734164476
 21
1.634920762885544
 31
-1.831867990631508E-16
210
-1.497539960162224E-17
220
1.100076772359549E-16
230
1.0
 40
0.233543
 41
0.0
 42
6.283185307179586
  0
ELLIPSE
  5
1FC
330
1F
100
AcDbEntity
  8
1
  6
CONTINUOUS
 62
     2
100
AcDbEllipse
 10
83.363663
 20
75.797584
 30
0.0
 11
-0.8411071438544563
 21
-1.419520613642858
 31
0.0
210
-5.969638140895199E-18
220
3.537183777590610E-18
230
0.9999999999999998
 40
0.560728
 41
0.7357412838995429
 42
0.7717715704454446
  0
ELLIPSE
  5
1FD
330
1F
100
AcDbEntity
  8
1
  6
CONTINUOUS
 62
     2
100
AcDbEllipse
 10
83.363663
 20
75.797584
 30
0.0
 11
-0.8411071438544563
 21
-1.419520613642858
 31
0.0
210
-5.969638140895199E-18
220
3.537183777590610E-18
230
0.9999999999999998
 40
0.560728
 41
0.7717715704454433
 42
2.405792443877062
  0
ELLIPSE
  5
1FE
330
1F
100
AcDbEntity
  8
1
  6
CONTINUOUS
 62
     2
100
AcDbEllipse
 10
84.432175
 20
75.16446
 30
0.0
 11
-0.8411071438544563
 21
-1.419520613642858
 31
0.0
210
-5.969638140895199E-18
220
3.537183777590610E-18
230
0.9999999999999998
 40
0.560728
 41
0.0
 42
6.283185307179586
  0
MTEXT
  5
1FF
330
1F
100
AcDbEntity
  8
256
  6
CONTINUOUS
 62
     3
100
AcDbMText
 10
404.150173
 20
172.859201
 30
0.0
 40
2.0
 41
0.0
 71
     7
 72
     5
  1
\W00.772;MODIFICACIONES / 
  7
DEFAULT
 11
4.502122416191745E-15
 21
1.0
 31
0.0
1001
ACAD
1000
MTEXTBEGIN
1070
    73
1070
     2
1070
    44
1040
0.903614
1000
MTEXTEND
1000
ACAD_MTEXT_DEFINED_HEIGHT_BEGIN
1070
    46
1040
0.2
1000
ACAD_MTEXT_DEFINED_HEIGHT_END
  0
MTEXT
  5
203
330
1F
100
AcDbEntity
  8
255
  6
CONTINUOUS
 62
     3
100
AcDbMText
 10
250.04089
 20
52.115912
 30
0.0
 40
3.0
 41
0.0
 71
     7
 72
     5
  1
\W00.727;C. Alvarez 
  7
DEFAULT
1001
ACAD
1000
MTEXTBEGIN
1070
    73
1070
     2
1070
    44
1040
0.903614
1000
MTEXTEND
1000
ACAD_MTEXT_DEFINED_HEIGHT_BEGIN
1070
    46
1040
0.2
1000
ACAD_MTEXT_DEFINED_HEIGHT_END
  0
MTEXT
  5
204
330
1F
100
AcDbEntity
  8
256
  6
CONTINUOUS
 62
     3
100
AcDbMText
 10
404.150173
 20
195.041874
 30
0.0
 40
2.0
 41
0.0
 71
     7
 72
     5
  1
\W00.817;\Q20.000000;MODIFICATIONS\Q0; 
  7
DEFAULT
 11
2.503720971866463E-15
 21
1.0
 31
0.0
1001
ACAD
1000
MTEXTBEGIN
1070
    73
1070
     2
1070
    44
1040
0.903614
1000
MTEXTEND
1000
ACAD_MTEXT_DEFINED_HEIGHT_BEGIN
1070
    46
1040
0.2
1000
ACAD_MTEXT_DEFINED_HEIGHT_END
  0
MTEXT
  5
205
330
1F
100
AcDbEntity
  8
256
  6
CONTINUOUS
 62
     3
100
AcDbMText
 10
354.80185
 20
56.431485
 30
0.0
 40
3.5
 41
0.0
 71
     7
 72
     5
  1
\W01.000; 
  7
DEFAULT
1001
ACAD
1000
MTEXTBEGIN
1070
    73
1070
     2
1070
    44
1040
0.903614
1000
MTEXTEND
1000
ACAD_MTEXT_DEFINED_HEIGHT_BEGIN
1070
    46
1040
0.2
1000
ACAD_MTEXT_DEFINED_HEIGHT_END
  0
MTEXT
  5
206
330
1F
100
AcDbEntity
  8
255
  6
CONTINUOUS
 62
     3
100
AcDbMText
 10
287.178019
 20
122.329158
 30
0.0
 40
3.5
 41
0.0
 71
     7
 72
     5
  1
\W00.774;DESARROLLO PLANO 
  7
DEFAULT
1001
ACAD
1000
MTEXTBEGIN
1070
    73
1070
     2
1070
    44
1040
0.903614
1000
MTEXTEND
1000
ACAD_MTEXT_DEFINED_HEIGHT_BEGIN
1070
    46
1040
0.2
1000
ACAD_MTEXT_DEFINED_HEIGHT_END
  0
MTEXT
  5
207
330
1F
100
AcDbEntity
  8
255
  6
CONTINUOUS
 62
     2
100
AcDbMText
 10
373.918738
 20
14.511633
 30
0.0
 40
4.5
 41
0.0
 71
     7
 72
     5
  1
\W01.000; 
  7
DEFAULT
1001
ACAD
1000
MTEXTBEGIN
1070
    73
1070
     2
1070
    44
1040
0.903614
1000
MTEXTEND
1000
ACAD_MTEXT_DEFINED_HEIGHT_BEGIN
1070
    46
1040
0.2
1000
ACAD_MTEXT_DEFINED_HEIGHT_END
  0
MTEXT
  5
208
330
1F
100
AcDbEntity
  8
256
  6
CONTINUOUS
 62
     3
100
AcDbMText
 10
268.7503
 20
45.497799
 30
0.0
 40
1.4
 41
0.0
 71
     7
 72
     5
  1
\W00.695;\Q20.000000;It cancels and substitutes the precedents date\Q0; 
  7
DEFAULT
1001
ACAD
1000
MTEXTBEGIN
1070
    73
1070
     2
1070
    44
1040
0.903614
1000
MTEXTEND
1000
ACAD_MTEXT_DEFINED_HEIGHT_BEGIN
1070
    46
1040
0.2
1000
ACAD_MTEXT_DEFINED_HEIGHT_END
  0
MTEXT
  5
209
330
1F
100
AcDbEntity
  8
256
  6
CONTINUOUS
 62
     3
100
AcDbMText
 10
309.377174
 20
58.908527
 30
0.0
 40
1.7
 41
0.0
 71
     7
 72
     5
  1
\W00.797;50     0,25 
  7
DEFAULT
1001
ACAD
1000
MTEXTBEGIN
1070
    73
1070
     2
1070
    44
1040
0.903614
1000
MTEXTEND
1000
ACAD_MTEXT_DEFINED_HEIGHT_BEGIN
1070
    46
1040
0.2
1000
ACAD_MTEXT_DEFINED_HEIGHT_END
  0
MTEXT
  5
20A
330
1F
100
AcDbEntity
  8
256
  6
CONTINUOUS
 62
     3
100
AcDbMText
 10
326.17134
 20
62.54831
 30
0.0
 40
1.5
 41
0.0
 71
     7
 72
     5
  1
\W00.794;\Q20.000000;DEMOULD\Q0; 
  7
DEFAULT
1001
ACAD
1000
MTEXTBEGIN
1070
    73
1070
     2
1070
    44
1040
0.903614
1000
MTEXTEND
1000
ACAD_MTEXT_DEFINED_HEIGHT_BEGIN
1070
    46
1040
0.2
1000
ACAD_MTEXT_DEFINED_HEIGHT_END
  0
MTEXT
  5
20B
330
1F
100
AcDbEntity
  8
256
  6
CONTINUOUS
 62
     3
100
AcDbMText
 10
225.71949
 20
69.268308
 30
0.0
 40
1.5
 41
0.0
 71
     7
 72
     5
  1
\W00.777;ACABADO / TRATAMIENTO 
  7
DEFAULT
1001
ACAD
1000
MTEXTBEGIN
1070
    73
1070
     2
1070
    44
1040
0.903614
1000
MTEXTEND
1000
ACAD_MTEXT_DEFINED_HEIGHT_BEGIN
1070
    46
1040
0.2
1000
ACAD_MTEXT_DEFINED_HEIGHT_END
  0
MTEXT
  5
20C
330
1F
100
AcDbEntity
  8
256
  6
CONTINUOUS
 62
     3
100
AcDbMText
 10
231.368239
 20
92.056025
 30
0.0
 40
1.7
 41
0.0
 71
     7
 72
     5
  1
\W00.733;PROPIEDAD DE J. FELIU DE LA PENYA, S.L. NO SERA REPRODUCIDO TOTAL O PARCIALMENTE\P NI ENTREGADO A TERCEROS SIN AUTORIZACION ESCRITA\P 
  7
DEFAULT
1001
ACAD
1000
MTEXTBEGIN
1070
    44
1040
0.903614
1000
MTEXTEND
1000
ACAD_MTEXT_DEFINED_HEIGHT_BEGIN
1070
    46
1040
0.2
1000
ACAD_MTEXT_DEFINED_HEIGHT_END
  0
MTEXT
  5
20D
330
1F
100
AcDbEntity
  8
256
  6
CONTINUOUS
 62
     3
100
AcDbMText
 10
325.94083
 20
64.848826
 30
0.0
 40
1.5
 41
0.0
 71
     7
 72
     5
  1
\W00.790;DESMOLDEO 
  7
DEFAULT
1001
ACAD
1000
MTEXTBEGIN
1070
    73
1070
     2
1070
    44
1040
0.903614
1000
MTEXTEND
1000
ACAD_MTEXT_DEFINED_HEIGHT_BEGIN
1070
    46
1040
0.2
1000
ACAD_MTEXT_DEFINED_HEIGHT_END
  0
MTEXT
  5
20E
330
1F
100
AcDbEntity
  8
256
  6
CONTINUOUS
 62
     3
100
AcDbMText
 10
326.17134
 20
53.861182
 30
0.0
 40
1.5
 41
0.0
 71
     7
 72
     5
  1
\W00.784;ESPESOR 
  7
DEFAULT
1001
ACAD
1000
MTEXTBEGIN
1070
    73
1070
     2
1070
    44
1040
0.903614
1000
MTEXTEND
1000
ACAD_MTEXT_DEFINED_HEIGHT_BEGIN
1070
    46
1040
0.2
1000
ACAD_MTEXT_DEFINED_HEIGHT_END
  0
MTEXT
  5
20F
330
1F
100
AcDbEntity
  8
256
  6
CONTINUOUS
 62
     3
100
AcDbMText
 10
305.617997
 20
64.087216
 30
0.0
 40
1.5
 41
0.0
 71
     7
 72
     5
  1
\W00.701;- 
  7
BLOCKFONT
1001
ACAD
1000
MTEXTBEGIN
1070
    73
1070
     2
1070
    44
1040
0.903614
1000
MTEXTEND
1000
ACAD_MTEXT_DEFINED_HEIGHT_BEGIN
1070
    46
1040
0.2
1000
ACAD_MTEXT_DEFINED_HEIGHT_END
  0
MTEXT
  5
211
330
1F
100
AcDbEntity
  8
256
  6
CONTINUOUS
 62
     3
100
AcDbMText
 10
302.000916
 20
68.556001
 30
0.0
 40
1.7
 41
0.0
 71
     7
 72
     5
  1
\W00.744;0     20     0,1 
  7
DEFAULT
1001
ACAD
1000
MTEXTBEGIN
1070
    73
1070
     2
1070
    44
1040
0.903614
1000
MTEXTEND
1000
ACAD_MTEXT_DEFINED_HEIGHT_BEGIN
1070
    46
1040
0.2
1000
ACAD_MTEXT_DEFINED_HEIGHT_END
  0
MTEXT
  5
212
330
1F
100
AcDbEntity
  8
256
  6
CONTINUOUS
 62
     3
100
AcDbMText
 10
234.377317
 20
29.687513
 30
0.0
 40
1.5
 41
0.0
 71
     8
 72
     5
  1
\W00.834;\Q20.000000;DATE\Q0; 
  7
DEFAULT
1001
ACAD
1000
MTEXTBEGIN
1070
    73
1070
     2
1070
    44
1040
0.903614
1000
MTEXTEND
1000
ACAD_MTEXT_DEFINED_HEIGHT_BEGIN
1070
    46
1040
0.2
1000
ACAD_MTEXT_DEFINED_HEIGHT_END
  0
MTEXT
  5
213
330
1F
100
AcDbEntity
  8
255
  6
CONTINUOUS
 62
     3
100
AcDbMText
 10
248.54969
 20
29.669488
 30
0.0
 40
3.0
 41
0.0
 71
     7
 72
     5
  1
\W00.776;07/07/15 
  7
DEFAULT
1001
ACAD
1000
MTEXTBEGIN
1070
    73
1070
     2
1070
    44
1040
0.903614
1000
MTEXTEND
1000
ACAD_MTEXT_DEFINED_HEIGHT_BEGIN
1070
    46
1040
0.2
1000
ACAD_MTEXT_DEFINED_HEIGHT_END
  0
MTEXT
  5
214
330
1F
100
AcDbEntity
  8
256
  6
CONTINUOUS
 62
     3
100
AcDbMText
 10
314.901997
 20
63.288016
 30
0.0
 40
1.5
 41
0.0
 71
     7
 72
     5
  1
\W00.701;- 
  7
BLOCKFONT
1001
ACAD
1000
MTEXTBEGIN
1070
    73
1070
     2
1070
    44
1040
0.903614
1000
MTEXTEND
1000
ACAD_MTEXT_DEFINED_HEIGHT_BEGIN
1070
    46
1040
0.2
1000
ACAD_MTEXT_DEFINED_HEIGHT_END
  0
MTEXT
  5
215
330
1F
100
AcDbEntity
  8
256
  6
CONTINUOUS
 62
     3
100
AcDbMText
 10
381.16911
 20
40.224858
 30
0.0
 40
1.5
 41
0.0
 71
     7
 72
     5
  1
\W00.811;\Q20.000000;SUBSTITUTES\Q0; 
  7
DEFAULT
1001
ACAD
1000
MTEXTBEGIN
1070
    73
1070
     2
1070
    44
1040
0.903614
1000
MTEXTEND
1000
ACAD_MTEXT_DEFINED_HEIGHT_BEGIN
1070
    46
1040
0.2
1000
ACAD_MTEXT_DEFINED_HEIGHT_END
  0
MTEXT
  5
216
330
1F
100
AcDbEntity
  8
256
  6
CONTINUOUS
 62
     3
100
AcDbMText
 10
366.16847
 20
25.078575
 30
0.0
 40
1.5
 41
0.0
 71
     7
 72
     5
  1
\W00.783;CODIGO/ 
  7
DEFAULT
1001
ACAD
1000
MTEXTBEGIN
1070
    73
1070
     2
1070
    44
1040
0.903614
1000
MTEXTEND
1000
ACAD_MTEXT_DEFINED_HEIGHT_BEGIN
1070
    46
1040
0.2
1000
ACAD_MTEXT_DEFINED_HEIGHT_END
  0
MTEXT
  5
217
330
1F
100
AcDbEntity
  8
256
  6
CONTINUOUS
 62
     3
100
AcDbMText
 10
314.901997
 20
64.558016
 30
0.0
 40
1.5
 41
0.0
 71
     7
 72
     5
  1
\W00.701;+ 
  7
BLOCKFONT
1001
ACAD
1000
MTEXTBEGIN
1070
    73
1070
     2
1070
    44
1040
0.903614
1000
MTEXTEND
1000
ACAD_MTEXT_DEFINED_HEIGHT_BEGIN
1070
    46
1040
0.2
1000
ACAD_MTEXT_DEFINED_HEIGHT_END
  0
MTEXT
  5
218
330
1F
100
AcDbEntity
  8
256
  6
CONTINUOUS
 62
     3
100
AcDbMText
 10
300.660916
 20
63.876001
 30
0.0
 40
1.7
 41
0.0
 71
     7
 72
     5
  1
\W00.758;20     50     0,15 
  7
DEFAULT
1001
ACAD
1000
MTEXTBEGIN
1070
    73
1070
     2
1070
    44
1040
0.903614
1000
MTEXTEND
1000
ACAD_MTEXT_DEFINED_HEIGHT_BEGIN
1070
    46
1040
0.2
1000
ACAD_MTEXT_DEFINED_HEIGHT_END
  0
MTEXT
  5
219
330
1F
100
AcDbEntity
  8
256
  6
CONTINUOUS
 62
     3
100
AcDbMText
 10
353.400865
 20
51.338002
 30
0.0
 40
3.0
 41
0.0
 71
     7
 72
     5
  1
\W01.000; 
  7
DEFAULT
1001
ACAD
1000
MTEXTBEGIN
1070
    73
1070
     2
1070
    44
1040
0.903614
1000
MTEXTEND
1000
ACAD_MTEXT_DEFINED_HEIGHT_BEGIN
1070
    46
1040
0.2
1000
ACAD_MTEXT_DEFINED_HEIGHT_END
  0
MTEXT
  5
21A
330
1F
100
AcDbEntity
  8
256
  6
CONTINUOUS
 62
     3
100
AcDbMText
 10
326.17134
 20
57.065014
 30
0.0
 40
1.5
 41
0.0
 71
     7
 72
     5
  1
\W00.818;\Q20.000000;RADIUS\Q0; 
  7
DEFAULT
1001
ACAD
1000
MTEXTBEGIN
1070
    73
1070
     2
1070
    44
1040
0.903614
1000
MTEXTEND
1000
ACAD_MTEXT_DEFINED_HEIGHT_BEGIN
1070
    46
1040
0.2
1000
ACAD_MTEXT_DEFINED_HEIGHT_END
  0
MTEXT
  5
21B
330
1F
100
AcDbEntity
  8
256
  6
CONTINUOUS
 62
     3
100
AcDbMText
 10
269.18386
 20
55.191929
 30
0.0
 40
1.5
 41
0.0
 71
     7
 72
     5
  1
\W00.768;DUREZA/ 
  7
DEFAULT
1001
ACAD
1000
MTEXTBEGIN
1070
    73
1070
     2
1070
    44
1040
0.903614
1000
MTEXTEND
1000
ACAD_MTEXT_DEFINED_HEIGHT_BEGIN
1070
    46
1040
0.2
1000
ACAD_MTEXT_DEFINED_HEIGHT_END
  0
MTEXT
  5
21C
330
1F
100
AcDbEntity
  8
256
  6
CONTINUOUS
 62
     3
100
AcDbMText
 10
234.65774
 20
45.203784
 30
0.0
 40
1.5
 41
0.0
 71
     8
 72
     5
  1
\W00.793;\Q20.000000;PROJECTED\Q0; 
  7
DEFAULT
1001
ACAD
1000
MTEXTBEGIN
1070
    73
1070
     2
1070
    44
1040
0.903614
1000
MTEXTEND
1000
ACAD_MTEXT_DEFINED_HEIGHT_BEGIN
1070
    46
1040
0.2
1000
ACAD_MTEXT_DEFINED_HEIGHT_END
  0
MTEXT
  5
21D
330
1F
100
AcDbEntity
  8
255
  6
CONTINUOUS
 62
     2
100
AcDbMText
 10
275.738672
 20
18.194404
 30
0.0
 40
6.0
 41
0.0
 71
     7
 72
     5
  1
\W00.727;FRONTAL LENTE 12/ 24 
  7
DEFAULT
1001
ACAD
1000
MTEXTBEGIN
1070
    73
1070
     2
1070
    44
1040
0.903614
1000
MTEXTEND
1000
ACAD_MTEXT_DEFINED_HEIGHT_BEGIN
1070
    46
1040
0.2
1000
ACAD_MTEXT_DEFINED_HEIGHT_END
  0
MTEXT
  5
21E
330
1F
100
AcDbEntity
  8
256
  6
CONTINUOUS
 62
     3
100
AcDbMText
 10
366.65916
 20
32.604203
 30
0.0
 40
1.5
 41
0.0
 71
     7
 72
     5
  1
\W00.768;SUSTITUIDO POR/ 
  7
DEFAULT
1001
ACAD
1000
MTEXTBEGIN
1070
    73
1070
     2
1070
    44
1040
0.903614
1000
MTEXTEND
1000
ACAD_MTEXT_DEFINED_HEIGHT_BEGIN
1070
    46
1040
0.2
1000
ACAD_MTEXT_DEFINED_HEIGHT_END
  0
MTEXT
  5
21F
330
1F
100
AcDbEntity
  8
256
  6
CONTINUOUS
 62
     3
100
AcDbMText
 10
271.08378
 20
62.058932
 30
0.0
 40
1.7
 41
0.0
 71
     7
 72
     5
  1
\W00.732;ejes/axis\P 
  7
DEFAULT
1001
ACAD
1000
MTEXTBEGIN
1070
    44
1040
0.903614
1000
MTEXTEND
1000
ACAD_MTEXT_DEFINED_HEIGHT_BEGIN
1070
    46
1040
0.2
1000
ACAD_MTEXT_DEFINED_HEIGHT_END
  0
MTEXT
  5
220
330
1F
100
AcDbEntity
  8
256
  6
CONTINUOUS
 62
     3
100
AcDbMText
 10
293.555666
 20
68.556001
 30
0.0
 40
1.7
 41
0.0
 71
     7
 72
     5
  1
\W01.006;11 
  7
DEFAULT
1001
ACAD
1000
MTEXTBEGIN
1070
    73
1070
     2
1070
    44
1040
0.903614
1000
MTEXTEND
1000
ACAD_MTEXT_DEFINED_HEIGHT_BEGIN
1070
    46
1040
0.2
1000
ACAD_MTEXT_DEFINED_HEIGHT_END
  0
MTEXT
  5
221
330
1F
100
AcDbEntity
  8
256
  6
CONTINUOUS
 62
     3
100
AcDbMText
 10
235.140186
 20
48.128729
 30
0.0
 40
1.5
 41
0.0
 71
     8
 72
     5
  1
\W00.807;PROYECTADO 
  7
DEFAULT
1001
ACAD
1000
MTEXTBEGIN
1070
    73
1070
     2
1070
    44
1040
0.903614
1000
MTEXTEND
1000
ACAD_MTEXT_DEFINED_HEIGHT_BEGIN
1070
    46
1040
0.2
1000
ACAD_MTEXT_DEFINED_HEIGHT_END
  0
MTEXT
  5
222
330
1F
100
AcDbEntity
  8
256
  6
CONTINUOUS
 62
     3
100
AcDbMText
 10
314.901997
 20
59.718016
 30
0.0
 40
1.5
 41
0.0
 71
     7
 72
     5
  1
\W00.701;+ 
  7
BLOCKFONT
1001
ACAD
1000
MTEXTBEGIN
1070
    73
1070
     2
1070
    44
1040
0.903614
1000
MTEXTEND
1000
ACAD_MTEXT_DEFINED_HEIGHT_BEGIN
1070
    46
1040
0.2
1000
ACAD_MTEXT_DEFINED_HEIGHT_END
  0
MTEXT
  5
223
330
1F
100
AcDbEntity
  8
256
  6
CONTINUOUS
 62
     3
100
AcDbMText
 10
290.914666
 20
68.596001
 30
0.0
 40
1.7
 41
0.0
 71
     7
 72
     5
  1
\W00.930;H 
  7
DEFAULT
1001
ACAD
1000
MTEXTBEGIN
1070
    73
1070
     2
1070
    44
1040
0.903614
1000
MTEXTEND
1000
ACAD_MTEXT_DEFINED_HEIGHT_BEGIN
1070
    46
1040
0.2
1000
ACAD_MTEXT_DEFINED_HEIGHT_END
  0
MTEXT
  5
224
330
1F
100
AcDbEntity
  8
256
  6
CONTINUOUS
 62
     3
100
AcDbMText
 10
276.246514
 20
80.076596
 30
0.0
 40
3.0
 41
0.0
 71
     7
 72
     5
  1
\W01.000; 
  7
DEFAULT
1001
ACAD
1000
MTEXTBEGIN
1070
    73
1070
     2
1070
    44
1040
0.903614
1000
MTEXTEND
1000
ACAD_MTEXT_DEFINED_HEIGHT_BEGIN
1070
    46
1040
0.2
1000
ACAD_MTEXT_DEFINED_HEIGHT_END
  0
MTEXT
  5
225
330
1F
100
AcDbEntity
  8
256
  6
CONTINUOUS
 62
     3
100
AcDbMText
 10
247.271915
 20
25.693186
 30
0.0
 40
1.2
 41
0.0
 71
     7
 72
     5
  1
\W00.815;MODIFIC. 
  7
DEFAULT
1001
ACAD
1000
MTEXTBEGIN
1070
    73
1070
     2
1070
    44
1040
0.903614
1000
MTEXTEND
1000
ACAD_MTEXT_DEFINED_HEIGHT_BEGIN
1070
    46
1040
0.2
1000
ACAD_MTEXT_DEFINED_HEIGHT_END
  0
MTEXT
  5
226
330
1F
100
AcDbEntity
  8
256
  6
CONTINUOUS
 62
     3
100
AcDbMText
 10
293.514666
 20
63.916001
 30
0.0
 40
1.7
 41
0.0
 71
     7
 72
     5
  1
\W01.006;11 
  7
DEFAULT
1001
ACAD
1000
MTEXTBEGIN
1070
    73
1070
     2
1070
    44
1040
0.903614
1000
MTEXTEND
1000
ACAD_MTEXT_DEFINED_HEIGHT_BEGIN
1070
    46
1040
0.2
1000
ACAD_MTEXT_DEFINED_HEIGHT_END
  0
MTEXT
  5
227
330
1F
100
AcDbEntity
  8
256
  6
CONTINUOUS
 62
     3
100
AcDbMText
 10
279.47946
 20
55.126635
 30
0.0
 40
1.5
 41
0.0
 71
     7
 72
     5
  1
\W00.795;\Q20.000000;HARDNESS\Q0; 
  7
DEFAULT
1001
ACAD
1000
MTEXTBEGIN
1070
    73
1070
     2
1070
    44
1040
0.903614
1000
MTEXTEND
1000
ACAD_MTEXT_DEFINED_HEIGHT_BEGIN
1070
    46
1040
0.2
1000
ACAD_MTEXT_DEFINED_HEIGHT_END
  0
MTEXT
  5
228
330
1F
100
AcDbEntity
  8
255
  6
CONTINUOUS
 62
     2
100
AcDbMText
 10
231.342694
 20
12.93072
 30
0.0
 40
6.0
 41
0.0
 71
     7
 72
     5
  1
\W00.928;1:1 
  7
DEFAULT
1001
ACAD
1000
MTEXTBEGIN
1070
    73
1070
     2
1070
    44
1040
0.903614
1000
MTEXTEND
1000
ACAD_MTEXT_DEFINED_HEIGHT_BEGIN
1070
    46
1040
0.2
1000
ACAD_MTEXT_DEFINED_HEIGHT_END
  0
MTEXT
  5
229
330
1F
100
AcDbEntity
  8
256
  6
CONTINUOUS
 62
     3
100
AcDbMText
 10
336.29453
 20
45.38736
 30
0.0
 40
1.4
 41
0.0
 71
     7
 72
     5
  1
\W00.746;\Q20.000000;signature\Q0; 
  7
DEFAULT
1001
ACAD
1000
MTEXTBEGIN
1070
    73
1070
     2
1070
    44
1040
0.903614
1000
MTEXTEND
1000
ACAD_MTEXT_DEFINED_HEIGHT_BEGIN
1070
    46
1040
0.2
1000
ACAD_MTEXT_DEFINED_HEIGHT_END
  0
MTEXT
  5
22A
330
1F
100
AcDbEntity
  8
256
  6
CONTINUOUS
 62
     3
100
AcDbMText
 10
326.17134
 20
59.316586
 30
0.0
 40
1.5
 41
0.0
 71
     7
 72
     5
  1
\W00.819;RADIOS 
  7
DEFAULT
1001
ACAD
1000
MTEXTBEGIN
1070
    73
1070
     2
1070
    44
1040
0.903614
1000
MTEXTEND
1000
ACAD_MTEXT_DEFINED_HEIGHT_BEGIN
1070
    46
1040
0.2
1000
ACAD_MTEXT_DEFINED_HEIGHT_END
  0
MTEXT
  5
22B
330
1F
100
AcDbEntity
  8
256
  6
CONTINUOUS
 62
     3
100
AcDbMText
 10
269.1176
 20
48.306201
 30
0.0
 40
1.4
 41
0.0
 71
     7
 72
     5
  1
\W00.688;anula y sustituye a los precedentes fecha 
  7
DEFAULT
1001
ACAD
1000
MTEXTBEGIN
1070
    73
1070
     2
1070
    44
1040
0.903614
1000
MTEXTEND
1000
ACAD_MTEXT_DEFINED_HEIGHT_BEGIN
1070
    46
1040
0.2
1000
ACAD_MTEXT_DEFINED_HEIGHT_END
  0
MTEXT
  5
22C
330
1F
100
AcDbEntity
  8
256
  6
CONTINUOUS
 62
     3
100
AcDbMText
 10
314.901997
 20
68.028016
 30
0.0
 40
1.5
 41
0.0
 71
     7
 72
     5
  1
\W00.701;- 
  7
BLOCKFONT
1001
ACAD
1000
MTEXTBEGIN
1070
    73
1070
     2
1070
    44
1040
0.903614
1000
MTEXTEND
1000
ACAD_MTEXT_DEFINED_HEIGHT_BEGIN
1070
    46
1040
0.2
1000
ACAD_MTEXT_DEFINED_HEIGHT_END
  0
MTEXT
  5
22D
330
1F
100
AcDbEntity
  8
256
  6
CONTINUOUS
 62
     3
100
AcDbMText
 10
305.617997
 20
68.747216
 30
0.0
 40
1.5
 41
0.0
 71
     7
 72
     5
  1
\W00.701;- 
  7
BLOCKFONT
1001
ACAD
1000
MTEXTBEGIN
1070
    73
1070
     2
1070
    44
1040
0.903614
1000
MTEXTEND
1000
ACAD_MTEXT_DEFINED_HEIGHT_BEGIN
1070
    46
1040
0.2
1000
ACAD_MTEXT_DEFINED_HEIGHT_END
  0
MTEXT
  5
22E
330
1F
100
AcDbEntity
  8
256
  6
CONTINUOUS
 62
     3
100
AcDbMText
 10
384.51877
 20
32.651717
 30
0.0
 40
1.5
 41
0.0
 71
     7
 72
     5
  1
\W00.778;\Q20.000000;SUBSTITUTED BY\Q0; 
  7
DEFAULT
1001
ACAD
1000
MTEXTBEGIN
1070
    73
1070
     2
1070
    44
1040
0.903614
1000
MTEXTEND
1000
ACAD_MTEXT_DEFINED_HEIGHT_BEGIN
1070
    46
1040
0.2
1000
ACAD_MTEXT_DEFINED_HEIGHT_END
  0
MTEXT
  5
22F
330
1F
100
AcDbEntity
  8
256
  6
CONTINUOUS
 62
     3
100
AcDbMText
 10
245.278503
 20
60.490742
 30
0.0
 40
3.0
 41
0.0
 71
     7
 72
     5
  1
\W01.000; 
  7
DEFAULT
1001
ACAD
1000
MTEXTBEGIN
1070
    73
1070
     2
1070
    44
1040
0.903614
1000
MTEXTEND
1000
ACAD_MTEXT_DEFINED_HEIGHT_BEGIN
1070
    46
1040
0.2
1000
ACAD_MTEXT_DEFINED_HEIGHT_END
  0
MTEXT
  5
230
330
1F
100
AcDbEntity
  8
256
  6
CONTINUOUS
 62
     3
100
AcDbMText
 10
305.382147
 20
69.798016
 30
0.0
 40
1.5
 41
0.0
 71
     7
 72
     5
  1
\W00.273;. 
  7
BLOCKFONT
1001
ACAD
1000
MTEXTBEGIN
1070
    73
1070
     2
1070
    44
1040
0.903614
1000
MTEXTEND
1000
ACAD_MTEXT_DEFINED_HEIGHT_BEGIN
1070
    46
1040
0.2
1000
ACAD_MTEXT_DEFINED_HEIGHT_END
  0
MTEXT
  5
231
330
1F
100
AcDbEntity
  8
256
  6
CONTINUOUS
 62
     3
100
AcDbMText
 10
225.6298
 20
66.936464
 30
0.0
 40
1.5
 41
0.0
 71
     7
 72
     5
  1
\W00.757;\Q20.000000;FINISH / TREATMENT\Q0; 
  7
DEFAULT
1001
ACAD
1000
MTEXTBEGIN
1070
    73
1070
     2
1070
    44
1040
0.903614
1000
MTEXTEND
1000
ACAD_MTEXT_DEFINED_HEIGHT_BEGIN
1070
    46
1040
0.2
1000
ACAD_MTEXT_DEFINED_HEIGHT_END
  0
MTEXT
  5
232
330
1F
100
AcDbEntity
  8
256
  6
CONTINUOUS
 62
     3
100
AcDbMText
 10
235.209972
 20
37.729159
 30
0.0
 40
3.0
 41
0.0
 71
     8
 72
     5
  1
\W00.693;V.B.  
  7
DEFAULT
1001
ACAD
1000
MTEXTBEGIN
1070
    73
1070
     2
1070
    44
1040
0.903614
1000
MTEXTEND
1000
ACAD_MTEXT_DEFINED_HEIGHT_BEGIN
1070
    46
1040
0.2
1000
ACAD_MTEXT_DEFINED_HEIGHT_END
  0
MTEXT
  5
233
330
1F
100
AcDbEntity
  8
255
  6
CONTINUOUS
 62
     3
100
AcDbMText
 10
249.88392
 20
45.444772
 30
0.0
 40
3.0
 41
0.0
 71
     7
 72
     5
  1
\W00.727;C. Alvarez 
  7
DEFAULT
1001
ACAD
1000
MTEXTBEGIN
1070
    73
1070
     2
1070
    44
1040
0.903614
1000
MTEXTEND
1000
ACAD_MTEXT_DEFINED_HEIGHT_BEGIN
1070
    46
1040
0.2
1000
ACAD_MTEXT_DEFINED_HEIGHT_END
  0
MTEXT
  5
234
330
1F
100
AcDbEntity
  8
256
  6
CONTINUOUS
 62
     3
100
AcDbMText
 10
314.901997
 20
58.448016
 30
0.0
 40
1.5
 41
0.0
 71
     7
 72
     5
  1
\W00.701;- 
  7
BLOCKFONT
1001
ACAD
1000
MTEXTBEGIN
1070
    73
1070
     2
1070
    44
1040
0.903614
1000
MTEXTEND
1000
ACAD_MTEXT_DEFINED_HEIGHT_BEGIN
1070
    46
1040
0.2
1000
ACAD_MTEXT_DEFINED_HEIGHT_END
  0
MTEXT
  5
235
330
1F
100
AcDbEntity
  8
256
  6
CONTINUOUS
 62
     3
100
AcDbMText
 10
233.600858
 20
52.763642
 30
0.0
 40
1.5
 41
0.0
 71
     8
 72
     5
  1
\W00.819;\Q20.000000;DRAWN\Q0; 
  7
DEFAULT
1001
ACAD
1000
MTEXTBEGIN
1070
    73
1070
     2
1070
    44
1040
0.903614
1000
MTEXTEND
1000
ACAD_MTEXT_DEFINED_HEIGHT_BEGIN
1070
    46
1040
0.2
1000
ACAD_MTEXT_DEFINED_HEIGHT_END
  0
MTEXT
  5
236
330
1F
100
AcDbEntity
  8
256
  6
CONTINUOUS
 62
     3
100
AcDbMText
 10
270.954666
 20
68.776001
 30
0.0
 40
1.7
 41
0.0
 71
     7
 72
     5
  1
\W00.735;agujeros/holes 
  7
DEFAULT
1001
ACAD
1000
MTEXTBEGIN
1070
    73
1070
     2
1070
    44
1040
0.903614
1000
MTEXTEND
1000
ACAD_MTEXT_DEFINED_HEIGHT_BEGIN
1070
    46
1040
0.2
1000
ACAD_MTEXT_DEFINED_HEIGHT_END
  0
MTEXT
  5
237
330
1F
100
AcDbEntity
  8
256
  6
CONTINUOUS
 62
     3
100
AcDbMText
 10
269.155
 20
40.400244
 30
0.0
 40
1.5
 41
0.0
 71
     7
 72
     5
  1
\W00.789;DENOMINACION/ 
  7
DEFAULT
1001
ACAD
1000
MTEXTBEGIN
1070
    73
1070
     2
1070
    44
1040
0.903614
1000
MTEXTEND
1000
ACAD_MTEXT_DEFINED_HEIGHT_BEGIN
1070
    46
1040
0.2
1000
ACAD_MTEXT_DEFINED_HEIGHT_END
  0
MTEXT
  5
238
330
1F
100
AcDbEntity
  8
256
  6
CONTINUOUS
 62
     3
100
AcDbMText
 10
238.356613
 20
77.001059
 30
0.0
 40
1.7
 41
0.0
 71
     8
 72
     5
  1
\W00.798;\Q20.000000;COLOUR\Q0; 
  7
DEFAULT
1001
ACAD
1000
MTEXTBEGIN
1070
    73
1070
     2
1070
    44
1040
0.903614
1000
MTEXTEND
1000
ACAD_MTEXT_DEFINED_HEIGHT_BEGIN
1070
    46
1040
0.2
1000
ACAD_MTEXT_DEFINED_HEIGHT_END
  0
MTEXT
  5
239
330
1F
100
AcDbEntity
  8
256
  6
CONTINUOUS
 62
     3
100
AcDbMText
 10
305.382147
 20
65.138016
 30
0.0
 40
1.5
 41
0.0
 71
     7
 72
     5
  1
\W00.273;. 
  7
BLOCKFONT
1001
ACAD
1000
MTEXTBEGIN
1070
    73
1070
     2
1070
    44
1040
0.903614
1000
MTEXTEND
1000
ACAD_MTEXT_DEFINED_HEIGHT_BEGIN
1070
    46
1040
0.2
1000
ACAD_MTEXT_DEFINED_HEIGHT_END
  0
MTEXT
  5
23A
330
1F
100
AcDbEntity
  8
256
  6
CONTINUOUS
 62
     3
100
AcDbMText
 10
290.914666
 20
63.906001
 30
0.0
 40
1.7
 41
0.0
 71
     7
 72
     5
  1
\W00.919;h 
  7
DEFAULT
1001
ACAD
1000
MTEXTBEGIN
1070
    73
1070
     2
1070
    44
1040
0.903614
1000
MTEXTEND
1000
ACAD_MTEXT_DEFINED_HEIGHT_BEGIN
1070
    46
1040
0.2
1000
ACAD_MTEXT_DEFINED_HEIGHT_END
  0
MTEXT
  5
23B
330
1F
100
AcDbEntity
  8
256
  6
CONTINUOUS
 62
     3
100
AcDbMText
 10
314.901997
 20
69.298016
 30
0.0
 40
1.5
 41
0.0
 71
     7
 72
     5
  1
\W00.701;+ 
  7
BLOCKFONT
1001
ACAD
1000
MTEXTBEGIN
1070
    73
1070
     2
1070
    44
1040
0.903614
1000
MTEXTEND
1000
ACAD_MTEXT_DEFINED_HEIGHT_BEGIN
1070
    46
1040
0.2
1000
ACAD_MTEXT_DEFINED_HEIGHT_END
  0
MTEXT
  5
23C
330
1F
100
AcDbEntity
  8
256
  6
CONTINUOUS
 62
     3
100
AcDbMText
 10
246.379012
 20
72.649
 30
0.0
 40
2.5
 41
0.0
 71
     7
 72
     5
  1
\W01.000; 
  7
DEFAULT
1001
ACAD
1000
MTEXTBEGIN
1070
    73
1070
     2
1070
    44
1040
0.903614
1000
MTEXTEND
1000
ACAD_MTEXT_DEFINED_HEIGHT_BEGIN
1070
    46
1040
0.2
1000
ACAD_MTEXT_DEFINED_HEIGHT_END
  0
MTEXT
  5
23D
330
1F
100
AcDbEntity
  8
256
  6
CONTINUOUS
 62
     3
100
AcDbMText
 10
229.32129
 20
77.090745
 30
0.0
 40
1.7
 41
0.0
 71
     8
 72
     5
  1
\W00.776;COLOR/ 
  7
DEFAULT
1001
ACAD
1000
MTEXTBEGIN
1070
    73
1070
     2
1070
    44
1040
0.903614
1000
MTEXTEND
1000
ACAD_MTEXT_DEFINED_HEIGHT_BEGIN
1070
    46
1040
0.2
1000
ACAD_MTEXT_DEFINED_HEIGHT_END
  0
MTEXT
  5
23E
330
1F
100
AcDbEntity
  8
256
  6
CONTINUOUS
 62
     3
100
AcDbMText
 10
366.65916
 20
40.260901
 30
0.0
 40
1.5
 41
0.0
 71
     7
 72
     5
  1
\W00.776;SUSTITUYE A/ 
  7
DEFAULT
1001
ACAD
1000
MTEXTBEGIN
1070
    73
1070
     2
1070
    44
1040
0.903614
1000
MTEXTEND
1000
ACAD_MTEXT_DEFINED_HEIGHT_BEGIN
1070
    46
1040
0.2
1000
ACAD_MTEXT_DEFINED_HEIGHT_END
  0
MTEXT
  5
23F
330
1F
100
AcDbEntity
  8
256
  6
CONTINUOUS
 62
     3
100
AcDbMText
 10
229.092715
 20
24.484486
 30
0.0
 40
1.5
 41
0.0
 71
     7
 72
     5
  1
\W00.799;ESCALA/ 
  7
DEFAULT
1001
ACAD
1000
MTEXTBEGIN
1070
    73
1070
     2
1070
    44
1040
0.903614
1000
MTEXTEND
1000
ACAD_MTEXT_DEFINED_HEIGHT_BEGIN
1070
    46
1040
0.2
1000
ACAD_MTEXT_DEFINED_HEIGHT_END
  0
MTEXT
  5
240
330
1F
100
AcDbEntity
  8
256
  6
CONTINUOUS
 62
     3
100
AcDbMText
 10
289.094349
 20
76.683737
 30
0.0
 40
1.5
 41
0.0
 71
     7
 72
     5
  1
\W00.769;COTAS SIN TOLERANCIA 
  7
DEFAULT
1001
ACAD
1000
MTEXTBEGIN
1070
    73
1070
     2
1070
    44
1040
0.903614
1000
MTEXTEND
1000
ACAD_MTEXT_DEFINED_HEIGHT_BEGIN
1070
    46
1040
0.2
1000
ACAD_MTEXT_DEFINED_HEIGHT_END
  0
MTEXT
  5
241
330
1F
100
AcDbEntity
  8
256
  6
CONTINUOUS
 62
     3
100
AcDbMText
 10
231.003064
 20
88.849003
 30
0.0
 40
1.5
 41
0.0
 71
     7
 72
     5
  1
\W00.729;\Q20.000000;\Q40.000000;\Q20.000000;PROPERTY OF J. FELIU DE LA PENYA, S.L. IT WILL NOT BE TOTALLY OR PARTIALLY  REPRODUCED\P NOR GIVEN TO THIRDS WITHOUT WRITTEN AUTHORIZATION\Q0;\Q0;\Q0; 
  7
DEFAULT
1001
ACAD
1000
MTEXTBEGIN
1070
    44
1040
0.903614
1000
MTEXTEND
1000
ACAD_MTEXT_DEFINED_HEIGHT_BEGIN
1070
    46
1040
0.2
1000
ACAD_MTEXT_DEFINED_HEIGHT_END
  0
MTEXT
  5
242
330
1F
100
AcDbEntity
  8
256
  6
CONTINUOUS
 62
     3
100
AcDbMText
 10
298.514728
 20
73.783401
 30
0.0
 40
1.5
 41
0.0
 71
     8
 72
     5
  1
\W00.771;\Q20.000000;DIMENSIONS WITHOUT TOLERANCE\Q0; 
  7
DEFAULT
1001
ACAD
1000
MTEXTBEGIN
1070
    73
1070
     2
1070
    44
1040
0.903614
1000
MTEXTEND
1000
ACAD_MTEXT_DEFINED_HEIGHT_BEGIN
1070
    46
1040
0.2
1000
ACAD_MTEXT_DEFINED_HEIGHT_END
  0
MTEXT
  5
243
330
1F
100
AcDbEntity
  8
256
  6
CONTINUOUS
 62
     3
100
AcDbMText
 10
305.402147
 20
64.348016
 30
0.0
 40
1.5
 41
0.0
 71
     7
 72
     5
  1
\W00.273;. 
  7
BLOCKFONT
1001
ACAD
1000
MTEXTBEGIN
1070
    73
1070
     2
1070
    44
1040
0.903614
1000
MTEXTEND
1000
ACAD_MTEXT_DEFINED_HEIGHT_BEGIN
1070
    46
1040
0.2
1000
ACAD_MTEXT_DEFINED_HEIGHT_END
  0
MTEXT
  5
244
330
1F
100
AcDbEntity
  8
256
  6
CONTINUOUS
 62
     3
100
AcDbMText
 10
234.679196
 20
55.275157
 30
0.0
 40
1.5
 41
0.0
 71
     8
 72
     5
  1
\W00.809;DIBUJADO 
  7
DEFAULT
1001
ACAD
1000
MTEXTBEGIN
1070
    73
1070
     2
1070
    44
1040
0.903614
1000
MTEXTEND
1000
ACAD_MTEXT_DEFINED_HEIGHT_BEGIN
1070
    46
1040
0.2
1000
ACAD_MTEXT_DEFINED_HEIGHT_END
  0
MTEXT
  5
245
330
1F
100
AcDbEntity
  8
256
  6
CONTINUOUS
 62
     3
100
AcDbMText
 10
290.864666
 20
60.002635
 30
0.0
 40
1.5
 41
0.0
 71
     7
 72
     5
  1
\W00.925;+ 
  7
DEFAULT
1001
ACAD
1000
MTEXTBEGIN
1070
    73
1070
     2
1070
    44
1040
0.903614
1000
MTEXTEND
1000
ACAD_MTEXT_DEFINED_HEIGHT_BEGIN
1070
    46
1040
0.2
1000
ACAD_MTEXT_DEFINED_HEIGHT_END
  0
MTEXT
  5
246
330
1F
100
AcDbEntity
  8
256
  6
CONTINUOUS
 62
     3
100
AcDbMText
 10
270.884666
 20
59.182635
 30
0.0
 40
1.5
 41
0.0
 71
     7
 72
     5
  1
\W00.730;angular 
  7
DEFAULT
1001
ACAD
1000
MTEXTBEGIN
1070
    73
1070
     2
1070
    44
1040
0.903614
1000
MTEXTEND
1000
ACAD_MTEXT_DEFINED_HEIGHT_BEGIN
1070
    46
1040
0.2
1000
ACAD_MTEXT_DEFINED_HEIGHT_END
  0
MTEXT
  5
247
330
1F
100
AcDbEntity
  8
256
  6
CONTINUOUS
 62
     3
100
AcDbMText
 10
290.864666
 20
58.392635
 30
0.0
 40
1.5
 41
0.0
 71
     7
 72
     5
  1
\W00.612;- 
  7
DEFAULT
1001
ACAD
1000
MTEXTBEGIN
1070
    73
1070
     2
1070
    44
1040
0.903614
1000
MTEXTEND
1000
ACAD_MTEXT_DEFINED_HEIGHT_BEGIN
1070
    46
1040
0.2
1000
ACAD_MTEXT_DEFINED_HEIGHT_END
  0
MTEXT
  5
248
330
1F
100
AcDbEntity
  8
256
  6
CONTINUOUS
 62
     3
100
AcDbMText
 10
288.9728
 20
40.400244
 30
0.0
 40
1.5
 41
0.0
 71
     7
 72
     5
  1
\W00.812;\Q20.000000;DENOMINATION\Q0; 
  7
DEFAULT
1001
ACAD
1000
MTEXTBEGIN
1070
    73
1070
     2
1070
    44
1040
0.903614
1000
MTEXTEND
1000
ACAD_MTEXT_DEFINED_HEIGHT_BEGIN
1070
    46
1040
0.2
1000
ACAD_MTEXT_DEFINED_HEIGHT_END
  0
MTEXT
  5
249
330
1F
100
AcDbEntity
  8
256
  6
CONTINUOUS
 62
     3
100
AcDbMText
 10
326.17134
 20
51.581718
 30
0.0
 40
1.5
 41
0.0
 71
     7
 72
     5
  1
\W00.797;\Q20.000000;THICKNESS\Q0; 
  7
DEFAULT
1001
ACAD
1000
MTEXTBEGIN
1070
    73
1070
     2
1070
    44
1040
0.903614
1000
MTEXTEND
1000
ACAD_MTEXT_DEFINED_HEIGHT_BEGIN
1070
    46
1040
0.2
1000
ACAD_MTEXT_DEFINED_HEIGHT_END
  0
MTEXT
  5
24A
330
1F
100
AcDbEntity
  8
256
  6
CONTINUOUS
 62
     3
100
AcDbMText
 10
376.79999
 20
24.787301
 30
0.0
 40
1.5
 41
0.0
 71
     7
 72
     5
  1
\W00.794;\Q20.000000;CODE\Q0; 
  7
DEFAULT
1001
ACAD
1000
MTEXTBEGIN
1070
    73
1070
     2
1070
    44
1040
0.903614
1000
MTEXTEND
1000
ACAD_MTEXT_DEFINED_HEIGHT_BEGIN
1070
    46
1040
0.2
1000
ACAD_MTEXT_DEFINED_HEIGHT_END
  0
MTEXT
  5
24B
330
1F
100
AcDbEntity
  8
256
  6
CONTINUOUS
 62
     3
100
AcDbMText
 10
336.29453
 20
47.955865
 30
0.0
 40
1.4
 41
0.0
 71
     7
 72
     5
  1
\W00.766;firma 
  7
DEFAULT
1001
ACAD
1000
MTEXTBEGIN
1070
    73
1070
     2
1070
    44
1040
0.903614
1000
MTEXTEND
1000
ACAD_MTEXT_DEFINED_HEIGHT_BEGIN
1070
    46
1040
0.2
1000
ACAD_MTEXT_DEFINED_HEIGHT_END
  0
MTEXT
  5
24C
330
1F
100
AcDbEntity
  8
256
  6
CONTINUOUS
 62
     3
100
AcDbMText
 10
293.555666
 20
58.976001
 30
0.0
 40
1.7
 41
0.0
 71
     7
 72
     5
  1
\W01.402;1 
  7
DEFAULT
1001
ACAD
1000
MTEXTBEGIN
1070
    73
1070
     2
1070
    44
1040
0.903614
1000
MTEXTEND
1000
ACAD_MTEXT_DEFINED_HEIGHT_BEGIN
1070
    46
1040
0.2
1000
ACAD_MTEXT_DEFINED_HEIGHT_END
  0
MTEXT
  5
24D
330
1F
100
AcDbEntity
  8
256
  6
CONTINUOUS
 62
     3
100
AcDbMText
 10
235.568839
 20
82.36733
 30
0.0
 40
1.7
 41
0.0
 71
     8
 72
     5
  1
\W00.809;MATERIAL/\Q20.000000;MATERIAL\Q0;\P                                                                              
  7
DEFAULT
1001
ACAD
1000
MTEXTBEGIN
1070
    44
1040
0.903614
1000
MTEXTEND
1000
ACAD_MTEXT_DEFINED_HEIGHT_BEGIN
1070
    46
1040
0.2
1000
ACAD_MTEXT_DEFINED_HEIGHT_END
  0
MTEXT
  5
24E
330
1F
100
AcDbEntity
  8
256
  6
CONTINUOUS
 62
     2
100
AcDbMText
 10
378.959122
 20
57.84245
 30
0.0
 40
3.5
 41
0.0
 71
     7
 72
     5
  1
\W00.817;METRIC 
  7
DEFAULT
1001
ACAD
1000
MTEXTBEGIN
1070
    73
1070
     2
1070
    44
1040
0.903614
1000
MTEXTEND
1000
ACAD_MTEXT_DEFINED_HEIGHT_BEGIN
1070
    46
1040
0.2
1000
ACAD_MTEXT_DEFINED_HEIGHT_END
  0
MTEXT
  5
24F
330
1F
100
AcDbEntity
  8
256
  6
CONTINUOUS
 62
     3
100
AcDbMText
 10
234.733524
 20
32.781205
 30
0.0
 40
1.5
 41
0.0
 71
     8
 72
     5
  1
\W00.802;FECHA 
  7
DEFAULT
1001
ACAD
1000
MTEXTBEGIN
1070
    73
1070
     2
1070
    44
1040
0.903614
1000
MTEXTEND
1000
ACAD_MTEXT_DEFINED_HEIGHT_BEGIN
1070
    46
1040
0.2
1000
ACAD_MTEXT_DEFINED_HEIGHT_END
  0
MTEXT
  5
250
330
1F
100
AcDbEntity
  8
256
  6
CONTINUOUS
 62
     3
100
AcDbMText
 10
305.402147
 20
69.008016
 30
0.0
 40
1.5
 41
0.0
 71
     7
 72
     5
  1
\W00.273;. 
  7
BLOCKFONT
1001
ACAD
1000
MTEXTBEGIN
1070
    73
1070
     2
1070
    44
1040
0.903614
1000
MTEXTEND
1000
ACAD_MTEXT_DEFINED_HEIGHT_BEGIN
1070
    46
1040
0.2
1000
ACAD_MTEXT_DEFINED_HEIGHT_END
  0
MTEXT
  5
251
330
1F
100
AcDbEntity
  8
255
  6
CONTINUOUS
 62
     3
100
AcDbMText
 10
367.834122
 20
15.312792
 30
0.0
 40
3.5
 41
0.0
 71
     7
 72
     5
  1
\W00.787;101523.1409.000 
  7
DEFAULT
1001
ACAD
1000
MTEXTBEGIN
1070
    73
1070
     2
1070
    44
1040
0.903614
1000
MTEXTEND
1000
ACAD_MTEXT_DEFINED_HEIGHT_BEGIN
1070
    46
1040
0.2
1000
ACAD_MTEXT_DEFINED_HEIGHT_END
  0
MTEXT
  5
252
330
1F
100
AcDbEntity
  8
255
  6
CONTINUOUS
 62
     3
100
AcDbMText
 10
263.70143
 20
81.620769
 30
0.0
 40
3.5
 41
0.0
 71
     7
 72
     5
  1
\W00.725;Chapa galvanizada 
  7
DEFAULT
1001
ACAD
1000
MTEXTBEGIN
1070
    73
1070
     2
1070
    44
1040
0.903614
1000
MTEXTEND
1000
ACAD_MTEXT_DEFINED_HEIGHT_BEGIN
1070
    46
1040
0.2
1000
ACAD_MTEXT_DEFINED_HEIGHT_END
  0
MTEXT
  5
253
330
1F
100
AcDbEntity
  8
255
  6
CONTINUOUS
 62
     3
100
AcDbMText
 10
242.933183
 20
60.714543
 30
0.0
 40
3.5
 41
0.0
 71
     7
 72
     5
  1
\W00.760;Pintado 
  7
DEFAULT
1001
ACAD
1000
MTEXTBEGIN
1070
    73
1070
     2
1070
    44
1040
0.903614
1000
MTEXTEND
1000
ACAD_MTEXT_DEFINED_HEIGHT_BEGIN
1070
    46
1040
0.2
1000
ACAD_MTEXT_DEFINED_HEIGHT_END
  0
MTEXT
  5
254
330
1F
100
AcDbEntity
  8
255
  6
CONTINUOUS
 62
     3
100
AcDbMText
 10
244.473366
 20
73.08916
 30
0.0
 40
3.5
 41
0.0
 71
     7
 72
     5
  1
\W00.724;Negro mate 
  7
DEFAULT
1001
ACAD
1000
MTEXTBEGIN
1070
    73
1070
     2
1070
    44
1040
0.903614
1000
MTEXTEND
1000
ACAD_MTEXT_DEFINED_HEIGHT_BEGIN
1070
    46
1040
0.2
1000
ACAD_MTEXT_DEFINED_HEIGHT_END
  0
MTEXT
  5
255
330
1F
100
AcDbEntity
  8
255
  6
CONTINUOUS
 62
     3
100
AcDbMText
 10
240.767105
 20
142.017746
 30
0.0
 40
3.5
 41
0.0
 71
     7
 72
     5
  1
\W00.773;(COTA IMPORTANTE)\P 
  7
DEFAULT
 11
2.947810181716526E-15
 21
1.0
 31
0.0
1001
ACAD
1000
MTEXTBEGIN
1070
    44
1040
0.903614
1000
MTEXTEND
1000
ACAD_MTEXT_DEFINED_HEIGHT_BEGIN
1070
    46
1040
0.2
1000
ACAD_MTEXT_DEFINED_HEIGHT_END
  0
MTEXT
  5
256
330
1F
100
AcDbEntity
  8
255
  6
CONTINUOUS
 62
     3
100
AcDbMText
 10
150.741598
 20
251.323671
 30
0.0
 40
3.5
 41
0.0
 71
     7
 72
     5
  1
\W00.773;(COTA IMPORTANTE)\P 
  7
DEFAULT
1001
ACAD
1000
MTEXTBEGIN
1070
    44
1040
0.903614
1000
MTEXTEND
1000
ACAD_MTEXT_DEFINED_HEIGHT_BEGIN
1070
    46
1040
0.2
1000
ACAD_MTEXT_DEFINED_HEIGHT_END
  0
MTEXT
  5
257
330
1F
100
AcDbEntity
  8
255
  6
CONTINUOUS
 62
     3
100
AcDbMText
 10
79.877031
 20
155.767267
 30
0.0
 40
3.5
 41
0.0
 71
     7
 72
     5
  1
\W00.773;(COTA IMPORTANTE)\P 
  7
DEFAULT
1001
ACAD
1000
MTEXTBEGIN
1070
    44
1040
0.903614
1000
MTEXTEND
1000
ACAD_MTEXT_DEFINED_HEIGHT_BEGIN
1070
    46
1040
0.2
1000
ACAD_MTEXT_DEFINED_HEIGHT_END
  0
MTEXT
  5
258
330
1F
100
AcDbEntity
  8
255
  6
CONTINUOUS
 62
     3
100
AcDbMText
 10
308.188405
 20
44.671323
 30
0.0
 40
3.5
 41
0.0
 71
     7
 72
     5
  1
\W00.777;01/10/2015 
  7
DEFAULT
1001
ACAD
1000
MTEXTBEGIN
1070
    73
1070
     2
1070
    44
1040
0.903614
1000
MTEXTEND
1000
ACAD_MTEXT_DEFINED_HEIGHT_BEGIN
1070
    46
1040
0.2
1000
ACAD_MTEXT_DEFINED_HEIGHT_END
  0
MTEXT
  5
259
330
1F
100
AcDbEntity
  8
255
  6
CONTINUOUS
 62
     3
100
AcDbMText
 10
345.819559
 20
44.671323
 30
0.0
 40
3.5
 41
0.0
 71
     7
 72
     5
  1
\W00.727;C. Alvarez 
  7
DEFAULT
1001
ACAD
1000
MTEXTBEGIN
1070
    73
1070
     2
1070
    44
1040
0.903614
1000
MTEXTEND
1000
ACAD_MTEXT_DEFINED_HEIGHT_BEGIN
1070
    46
1040
0.2
1000
ACAD_MTEXT_DEFINED_HEIGHT_END
  0
SPLINE
  5
25A
330
1F
100
AcDbEntity
  8
255
  6
CENTER
 62
     3
100
AcDbSpline
210
0.0
220
0.0
230
1.0
 70
    24
 71
     1
 72
     5
 73
     3
 74
     0
 42
0.000000001
 43
0.0000000001
 40
0.0
 40
0.0
 40
0.384333822240752
 40
1.0
 40
1.0
 10
43.9866969636239
 20
228.5653218114093
 30
0.0
 10
86.9866969636239
 20
228.5653218114093
 30
0.0
 10
155.868601473876
 20
228.5653218114093
 30
0.0
  0
SPLINE
  5
25B
330
1F
100
AcDbEntity
  8
255
  6
CENTER
 62
     3
100
AcDbSpline
210
0.0
220
0.0
230
1.0
 70
    24
 71
     1
 72
     5
 73
     3
 74
     0
 42
0.000000001
 43
0.0000000001
 40
0.0
 40
0.0
 40
0.6333418266592769
 40
1.0
 40
1.0
 10
99.92764921874996
 20
279.5357979389723
 30
0.0
 10
99.92764921874996
 20
215.6243695562832
 30
0.0
 10
99.92764921874996
 20
178.6243695562832
 30
0.0
  0
SPLINE
  5
25C
330
1F
100
AcDbEntity
  8
255
  6
CENTER
 62
     3
100
AcDbSpline
210
0.0
220
0.0
230
1.0
 70
    24
 71
     1
 72
     5
 73
     3
 74
     0
 42
0.000000001
 43
0.0000000001
 40
0.0
 40
0.0
 40
0.3142329020332716
 40
1.0
 40
1.0
 10
212.8392328125
 20
228.5653218114093
 30
0.0
 10
195.8392328125
 20
228.5653218114093
 30
0.0
 10
158.7392328124999
 20
228.5653218114093
 30
-0.0000000000000013
  0
DIMENSION
  5
266
330
1F
100
AcDbEntity
  8
255
  6
CONTINUOUS
 62
     3
100
AcDbDimension
  2
DIMNDRAFT3D1
 10
212.985855
 20
192.059893
 30
0.0
 11
212.985855
 21
213.350351
 31
0.0
 70
   160
  1
\C3;10
  3
STANDARD
100
AcDbAlignedDimension
 13
235.670187
 23
202.059893
 33
0.0
 14
239.070187
 24
192.059893
 34
0.0
 50
90.0
100
AcDbRotatedDimension
1001
ACAD
1000
DSTYLE
1002
{
1070
   287
1070
     3
1070
     7
1000

1070
     6
1000

1070
    74
1070
     0
1070
   279
1070
     0
1070
   172
1070
     1
1070
   173
1070
     1
1070
   340
1005
200
1070
   271
1070
     0
1070
   272
1070
     2
1070
    77
1070
     1
1070
    73
1070
     0
1070
   171
1070
     3
1070
   274
1070
     4
1070
   177
1070
     3
1070
   176
1070
     3
1070
   178
1070
     3
1070
    48
1040
-0.005
1070
    41
1041
3.5
1070
   147
1041
1.75
1070
    42
1041
0.0
1070
    44
1041
2.0
1070
   140
1041
3.5
1002
}
  0
DIMENSION
  5
270
330
1F
100
AcDbEntity
  8
255
  6
CONTINUOUS
 62
     3
100
AcDbDimension
  2
DIMNDRAFT3D2
 10
49.631358
 20
168.471733
 30
0.0
 11
98.927649
 21
168.471733
 31
0.0
 70
   160
  1
\C3;98,6
  3
STANDARD
100
AcDbAlignedDimension
 13
148.223941
 23
215.62437
 33
0.0
 14
49.631358
 24
223.565322
 34
0.0
100
AcDbRotatedDimension
1001
ACAD
1000
DSTYLE
1002
{
1070
   287
1070
     3
1070
     7
1000

1070
     6
1000

1070
   279
1070
     0
1070
   172
1070
     1
1070
   173
1070
     1
1070
   340
1005
200
1070
   271
1070
     1
1070
   272
1070
     2
1070
    77
1070
     1
1070
    73
1070
     0
1070
   171
1070
     3
1070
   274
1070
     4
1070
   177
1070
     3
1070
   176
1070
     3
1070
   178
1070
     3
1070
    48
1040
-0.005
1070
    41
1041
3.5
1070
   147
1041
1.75
1070
    42
1041
0.0
1070
    44
1041
2.0
1070
   140
1041
3.5
1002
}
  0
DIMENSION
  5
27A
330
1F
100
AcDbEntity
  8
255
  6
CONTINUOUS
 62
     3
100
AcDbDimension
  2
DIMNDRAFT3D3
 10
239.070187
 20
157.568365
 30
0.0
 11
249.901658
 21
157.568365
 31
0.0
 70
   160
  1
\C3;22
  3
STANDARD
100
AcDbAlignedDimension
 13
260.733129
 23
192.059893
 33
0.0
 14
239.070187
 24
192.059893
 34
0.0
100
AcDbRotatedDimension
1001
ACAD
1000
DSTYLE
1002
{
1070
   287
1070
     3
1070
     7
1000

1070
     6
1000

1070
   279
1070
     0
1070
   172
1070
     1
1070
   173
1070
     1
1070
   340
1005
200
1070
   271
1070
     0
1070
   272
1070
     2
1070
    77
1070
     1
1070
    73
1070
     0
1070
   171
1070
     3
1070
   274
1070
     4
1070
   177
1070
     3
1070
   176
1070
     3
1070
   178
1070
     3
1070
    48
1040
-0.005
1070
    41
1041
3.5
1070
   147
1041
1.75
1070
    42
1041
0.0
1070
    44
1041
2.0
1070
   140
1041
3.5
1002
}
  0
DIMENSION
  5
284
330
1F
100
AcDbEntity
  8
255
  6
CONTINUOUS
 62
     3
100
AcDbDimension
  2
DIMNDRAFT3D4
 10
51.131358
 20
138.621879
 30
0.0
 11
80.136145
 21
143.626666
 31
0.0
 70
    34
  1
\C3;90%%d
 53
315.0
  3
STANDARD
100
AcDb2LineAngularDimension
 13
64.57231
 23
114.621879
 33
0.0
 14
86.986697
 24
114.621879
 34
0.0
 15
51.131358
 25
148.621879
 35
0.0
 16
77.661272
 26
141.151792
 36
0.0
1001
ACAD
1000
DSTYLE
1002
{
1070
     7
1000

1070
     6
1000

1070
   173
1070
     1
1070
   340
1005
200
1070
   271
1070
     0
1070
   272
1070
     2
1070
    77
1070
     1
1070
    73
1070
     0
1070
   171
1070
     3
1070
   274
1070
     4
1070
   177
1070
     3
1070
   176
1070
     3
1070
   178
1070
     3
1070
    48
1040
-0.005
1070
    41
1041
3.5
1070
   147
1041
1.75
1070
    42
1041
0.0
1070
    44
1041
2.0
1070
   140
1041
3.5
1002
}
  0
DIMENSION
  5
28E
330
1F
100
AcDbEntity
  8
255
  6
CONTINUOUS
 62
     3
100
AcDbDimension
  2
DIMNDRAFT3D5
 10
237.070187
 20
202.059893
 30
0.0
 11
248.710938
 21
218.657473
 31
0.0
 70
    34
  1
\C3;90%%d
 53
35.91709
  3
STANDARD
100
AcDb2LineAngularDimension
 13
260.733129
 23
210.000845
 33
0.0
 14
260.733129
 24
202.059893
 34
0.0
 15
235.670187
 25
202.059893
 35
0.0
 16
248.716406
 26
214.076616
 36
0.0
1001
ACAD
1000
DSTYLE
1002
{
1070
     7
1000

1070
     6
1000

1070
   173
1070
     1
1070
   340
1005
200
1070
   271
1070
     0
1070
   272
1070
     2
1070
    77
1070
     1
1070
    73
1070
     0
1070
   171
1070
     3
1070
   274
1070
     4
1070
   177
1070
     3
1070
   176
1070
     3
1070
   178
1070
     3
1070
    48
1040
-0.005
1070
    41
1041
3.5
1070
   147
1041
1.75
1070
    42
1041
0.0
1070
    44
1041
2.0
1070
   140
1041
3.5
1002
}
  0
DIMENSION
  5
297
330
1F
100
AcDbEntity
  8
255
  6
CONTINUOUS
 62
     3
100
AcDbDimension
  2
DIMNDRAFT3D6
 10
260.733129
 20
184.118941
 30
0.0
 11
250.716855
 21
182.043619
 31
0.0
 70
    34
  1
\C3;90%%d
 53
315.0
  3
STANDARD
100
AcDb2LineAngularDimension
 13
260.733129
 23
192.059893
 33
0.0
 14
239.070187
 24
192.059893
 34
0.0
 15
260.733129
 25
192.059893
 35
0.0
 16
248.241981
 26
179.568745
 36
0.0
1001
ACAD
1000
DSTYLE
1002
{
1070
     7
1000

1070
     6
1000

1070
   173
1070
     1
1070
   340
1005
200
1070
   271
1070
     0
1070
   272
1070
     2
1070
    77
1070
     1
1070
    73
1070
     0
1070
   171
1070
     3
1070
   274
1070
     4
1070
   177
1070
     3
1070
   176
1070
     3
1070
   178
1070
     3
1070
    48
1040
-0.005
1070
    41
1041
3.5
1070
   147
1041
1.75
1070
    42
1041
0.0
1070
    44
1041
2.0
1070
   140
1041
3.5
1002
}
  0
INSERT
  5
2A1
330
1F
100
AcDbEntity
  8
255
  6
CONTINUOUS
 62
     3
100
AcDbBlockReference
  2
DIMNDRAFT3D77
 10
0.0
 20
0.0
 30
0.0
  0
INSERT
  5
2AA
330
1F
100
AcDbEntity
  8
255
  6
CONTINUOUS
 62
     3
100
AcDbBlockReference
  2
DIMNDRAFT3D88
 10
0.0
 20
0.0
 30
0.0
  0
DIMENSION
  5
2B3
330
1F
100
AcDbEntity
  8
255
  6
CONTINUOUS
 62
     3
100
AcDbDimension
  2
DIMNDRAFT3D9
 10
337.689168
 20
243.071287
 30
0.0
 11
324.810913
 21
265.589492
 31
0.0
 70
   163
  1
\C3;%%c 3,3
  3
STANDARD
100
AcDbDiametricDimension
 15
335.769415
 25
245.755416
 35
0.0
 40
0.0
1001
ACAD
1000
DSTYLE
1002
{
1070
   287
1070
     3
1070
     7
1000

1070
     6
1000

1070
   172
1070
     1
1070
   279
1070
     0
1070
   173
1070
     1
1070
   340
1005
200
1070
    75
1070
     1
1070
    76
1070
     1
1070
   271
1070
     1
1070
   272
1070
     2
1070
    77
1070
     1
1070
    73
1070
     0
1070
   171
1070
     3
1070
   274
1070
     4
1070
   177
1070
     3
1070
   176
1070
     3
1070
   178
1070
     3
1070
    48
1040
-0.005
1070
    41
1041
3.5
1070
   147
1041
1.75
1070
    42
1041
0.0
1070
    44
1041
2.0
1070
   140
1041
3.5
1002
}
  0
DIMENSION
  5
2BC
330
1F
100
AcDbEntity
  8
255
  6
CONTINUOUS
 62
     3
100
AcDbDimension
  2
DIMNDRAFT3D10
 10
342.99507
 20
223.429092
 30
0.0
 11
288.535064
 21
184.47233
 31
0.0
 70
   163
  1
\C3;%%c 86
  3
STANDARD
100
AcDbDiametricDimension
 15
275.063771
 25
170.690694
 35
0.0
 40
0.0
1001
ACAD
1000
DSTYLE
1002
{
1070
   287
1070
     3
1070
     7
1000

1070
     6
1000

1070
   172
1070
     1
1070
   279
1070
     0
1070
   173
1070
     1
1070
   340
1005
200
1070
    75
1070
     1
1070
    76
1070
     1
1070
   271
1070
     0
1070
   272
1070
     2
1070
    77
1070
     1
1070
    73
1070
     0
1070
   171
1070
     3
1070
   274
1070
     4
1070
   177
1070
     3
1070
   176
1070
     3
1070
   178
1070
     3
1070
    48
1040
-0.005
1070
    41
1041
3.5
1070
   147
1041
1.75
1070
    42
1041
0.0
1070
    44
1041
2.0
1070
   140
1041
3.5
1002
}
  0
ENDSEC
  0
SECTION
  2
OBJECTS
  0
DICTIONARY
  5
C
330
0
100
AcDbDictionary
  3
ACAD_GROUP
350
D
  3
ACAD_LAYOUT
350
1A
  3
ACAD_MATERIAL
350
3B
  3
ACAD_MLEADERSTYLE
350
2EF
  3
ACAD_MLINESTYLE
350
17
  3
ACAD_PLOTSETTINGS
350
19
  3
ACAD_VISUALSTYLE
350
2A
  3
ACDBHEADERROUNDTRIPXREC
350
2CD
  3
ACDBVARIABLEDICTIONARY
350
2ED
  0
DICTIONARY
  5
D
102
{ACAD_REACTORS
330
C
102
}
330
C
100
AcDbDictionary
  0
DICTIONARY
  5
1A
102
{ACAD_REACTORS
330
C
102
}
330
C
100
AcDbDictionary
  0
DICTIONARY
  5
3B
102
{ACAD_REACTORS
330
C
102
}
330
C
100
AcDbDictionary
  3
BYBLOCK
350
3D
  3
BYLAYER
350
3C
  3
GLOBAL
350
3E
  0
DICTIONARY
  5
2EF
102
{ACAD_REACTORS
330
C
102
}
330
C
100
AcDbDictionary
  0
DICTIONARY
  5
17
102
{ACAD_REACTORS
330
C
102
}
330
C
100
AcDbDictionary
  3
STANDARD
350
18
  0
DICTIONARY
  5
19
102
{ACAD_REACTORS
330
C
102
}
330
C
100
AcDbDictionary
  0
DICTIONARY
  5
2A
102
{ACAD_REACTORS
330
C
102
}
330
C
100
AcDbDictionary
  3
2DWIREFRAME
350
2F
  3
3D_HIDDEN
350
31
  3
3DWIREFRAME
350
30
  3
BASIC
350
32
  3
BRIGHTEN
350
36
  3
COLORCHANGE
350
3A
  3
CONCEPTUAL
350
34
  3
DIM
350
35
  3
FACEPATTERN
350
39
  3
FLAT
350
2B
  3
FLATWITHEDGES
350
2C
  3
GOURAUD
350
2D
  3
GOURAUDWITHEDGES
350
2E
  3
LINEPATTERN
350
38
  3
REALISTIC
350
33
  3
THICKEN
350
37
  0
DICTIONARY
  5
2CD
102
{ACAD_REACTORS
330
C
102
}
330
C
100
AcDbDictionary
  3
CEPSNTYPE
350
2D6
  3
DIMSTYLEDATA
350
2EC
  3
FINGERPRINTGUID
350
2D7
  3
HYPERLINKBASE
350
2D0
  3
INSUNITS
350
2D5
  3
LAYOUTDICT
350
2D2
  3
LWETCUNION
350
2D4
  3
PLOTSETDICT
350
2D3
  3
PSVPSCALE
350
2D9
  3
PUCSBASE
350
2DC
  3
PUCSORGBACK
350
2E2
  3
PUCSORGBOTTOM
350
2DE
  3
PUCSORGFRONT
350
2E1
  3
PUCSORGLEFT
350
2DF
  3
PUCSORGRIGHT
350
2E0
  3
PUCSORGTOP
350
2DD
  3
PUCSORTHOREF
350
2DA
  3
PUCSORTHOVIEW
350
2DB
  3
STYLESHEET
350
2D1
  3
TSTACKALIGN
350
2CE
  3
TSTACKSIZE
350
2CF
  3
UCSBASE
350
2E5
  3
UCSORGBACK
350
2EB
  3
UCSORGBOTTOM
350
2E7
  3
UCSORGFRONT
350
2EA
  3
UCSORGLEFT
350
2E8
  3
UCSORGRIGHT
350
2E9
  3
UCSORGTOP
350
2E6
  3
UCSORTHOREF
350
2E3
  3
UCSORTHOVIEW
350
2E4
  3
VERSIONGUID
350
2D8
  0
DICTIONARY
  5
2ED
102
{ACAD_REACTORS
330
C
102
}
330
C
100
AcDbDictionary
  3
DIMASSOC
350
2F0
  3
HIDETEXT
350
2F1
  0
MATERIAL
  5
3D
102
{ACAD_REACTORS
330
3B
102
}
102
{ACAD_XDICTIONARY
360
2F4
102
}
330
3B
100
AcDbMaterial
  1
ByBlock
  0
MATERIAL
  5
3C
102
{ACAD_REACTORS
330
3B
102
}
102
{ACAD_XDICTIONARY
360
2F2
102
}
330
3B
100
AcDbMaterial
  1
ByLayer
  0
MATERIAL
  5
3E
102
{ACAD_REACTORS
330
3B
102
}
102
{ACAD_XDICTIONARY
360
2F6
102
}
330
3B
100
AcDbMaterial
  1
Global
  0
MLINESTYLE
  5
18
102
{ACAD_REACTORS
330
17
102
}
330
17
100
AcDbMlineStyle
  2
Standard
 70
     0
  3

 62
   256
 51
90.0
 52
90.0
 71
     2
 49
0.5
 62
   256
  6
BYLAYER
 49
-0.5
 62
   256
  6
BYLAYER
  0
ACAD_PROXY_OBJECT
  5
2F
102
{ACAD_REACTORS
330
2A
102
}
330
2A
100
AcDbProxyObject
 90
      499
 91
      501
 93
      436
310
42CC9915DA5C99599C985B595049028333333333333E3BF0000000000000FB0107901411070040501600405405064090741402480A0340
1001
ACAD
1000
AcDbSavedByObjectVersion
1070
     0
  0
ACAD_PROXY_OBJECT
  5
31
102
{ACAD_REACTORS
330
2A
102
}
330
2A
100
AcDbProxyObject
 90
      499
 91
      501
 93
      500
310
424CD108121A5919195B90640502408333333333333E3BF0000000000000FB01079024090700405020000000000001110200405405064090740C02480A0340
1001
ACAD
1000
AcDbSavedByObjectVersion
1070
     0
  0
ACAD_PROXY_OBJECT
  5
30
102
{ACAD_REACTORS
330
2A
102
}
330
2A
100
AcDbProxyObject
 90
      499
 91
      501
 93
      436
310
42CCD915DA5C99599C985B595059028333333333333E3BF0000000000000FB0107901411070040501600405405064090741402480A0340
1001
ACAD
1000
AcDbSavedByObjectVersion
1070
     0
  0
ACAD_PROXY_OBJECT
  5
32
102
{ACAD_REACTORS
330
2A
102
}
330
2A
100
AcDbProxyObject
 90
      499
 91
      501
 93
      388
310
4150985CDA58D07406404333333333333E3BF0000000000000FB0107A41107004050150841D405064090741402480A0350
1001
ACAD
1000
AcDbSavedByObjectVersion
1070
     0
  0
ACAD_PROXY_OBJECT
  5
36
102
{ACAD_REACTORS
330
2A
102
}
330
2A
100
AcDbProxyObject
 90
      499
 91
      501
 93
      428
310
42109C9A59DA1D195B90C409028333333333333E3BF0000000000000FB010790141107004050150841D405064090741402480A029950
1001
ACAD
1000
AcDbSavedByObjectVersion
1070
     0
  0
ACAD_PROXY_OBJECT
  5
3A
102
{ACAD_REACTORS
330
2A
102
}
330
2A
100
AcDbProxyObject
 90
      499
 91
      501
 93
      452
310
42D0DBDB1BDC90DA185B99D95104090240C333333333333E3BF0000000000000FB0108901411070040501508421405064090741402480A0350
1001
ACAD
1000
AcDbSavedByObjectVersion
1070
     0
  0
ACAD_PROXY_OBJECT
  5
34
102
{ACAD_REACTORS
330
2A
102
}
330
2A
100
AcDbProxyObject
 90
      499
 91
      501
 93
      500
310
4290DBDB98D95C1D1D585B10940D028333333333333E3BF0000000000000FB0107902409070040501000000000000111010841D405064090740C02480A0340
1001
ACAD
1000
AcDbSavedByObjectVersion
1070
     0
  0
ACAD_PROXY_OBJECT
  5
35
102
{ACAD_REACTORS
330
2A
102
}
330
2A
100
AcDbProxyObject
 90
      499
 91
      501
 93
      412
310
40D11A5B50B409028333333333333E3BF0000000000000FB010790141107004050150841D405064090741402480A02677FFFFFD0
1001
ACAD
1000
AcDbSavedByObjectVersion
1070
     0
  0
ACAD_PROXY_OBJECT
  5
39
102
{ACAD_REACTORS
330
2A
102
}
330
2A
100
AcDbProxyObject
 90
      499
 91
      501
 93
      444
310
42D19858D95C185D1D195C9B90F409028333333333333E3BF0000000000000FB010790141107004050150841D405064090741402480A0350
1001
ACAD
1000
AcDbSavedByObjectVersion
1070
     0
  0
ACAD_PROXY_OBJECT
  5
2B
102
{ACAD_REACTORS
330
2A
102
}
330
2A
100
AcDbProxyObject
 90
      499
 91
      501
 93
      388
310
41119B185D240901404333333333333E3BF0000000000000F9010740A41107004050150841D405064090741402480A1B50
1001
ACAD
1000
AcDbSavedByObjectVersion
1070
     0
  0
ACAD_PROXY_OBJECT
  5
2C
102
{ACAD_REACTORS
330
2A
102
}
330
2A
100
AcDbProxyObject
 90
      499
 91
      501
 93
      476
310
43519B185D15DA5D1A115919D95CD0140901404333333333333E3BF0000000000000F9010740901411070040501600405405064090741402480A1B50
1001
ACAD
1000
AcDbSavedByObjectVersion
1070
     0
  0
ACAD_PROXY_OBJECT
  5
2D
102
{ACAD_REACTORS
330
2A
102
}
330
2A
100
AcDbProxyObject
 90
      499
 91
      501
 93
      412
310
41D1DBDD5C985D5910240902404333333333333E3BF0000000000000F9010740A411070040501641D405064090741402480A1B50
1001
ACAD
1000
AcDbSavedByObjectVersion
1070
     0
  0
ACAD_PROXY_OBJECT
  5
2E
102
{ACAD_REACTORS
330
2A
102
}
330
2A
100
AcDbProxyObject
 90
      499
 91
      501
 93
      500
310
4411DBDD5C985D5915DA5D1A115919D95CD0340902404333333333333E3BF0000000000000F9010740901411070040501600405405064090741402480A1B50
1001
ACAD
1000
AcDbSavedByObjectVersion
1070
     0
  0
ACAD_PROXY_OBJECT
  5
38
102
{ACAD_REACTORS
330
2A
102
}
330
2A
100
AcDbProxyObject
 90
      499
 91
      501
 93
      444
310
42D31A5B995C185D1D195C9B90E409028333333333333E3BF0000000000000FB010790141107004050750841D405064090741402483A0350
1001
ACAD
1000
AcDbSavedByObjectVersion
1070
     0
  0
ACAD_PROXY_OBJECT
  5
33
102
{ACAD_REACTORS
330
2A
102
}
330
2A
100
AcDbProxyObject
 90
      499
 91
      501
 93
      420
310
425499585B1A5CDD1A58D08409028333333333333E3BF0000000000000FB01079019070040501508421405064090741402480A1B40
1001
ACAD
1000
AcDbSavedByObjectVersion
1070
     0
  0
ACAD_PROXY_OBJECT
  5
37
102
{ACAD_REACTORS
330
2A
102
}
330
2A
100
AcDbProxyObject
 90
      499
 91
      501
 93
      412
310
41D51A1A58DAD95B90D409028333333333333E3BF0000000000000FB010790141107004050150C41D405064090741402480A0350
1001
ACAD
1000
AcDbSavedByObjectVersion
1070
     0
  0
XRECORD
  5
2D6
102
{ACAD_REACTORS
330
2CD
102
}
330
2CD
100
AcDbXrecord
 90
        0
  0
XRECORD
  5
2EC
102
{ACAD_REACTORS
330
2CD
102
}
330
2CD
100
AcDbXrecord
1000
DSTYLE
1002
{
1070
   171
 70
     2
1070
   143
 40
25.4
1070
   274
 70
     2
1070
    41
 40
0.18
1070
   141
 40
0.09
1070
   271
 70
     4
1070
    43
 40
0.38
1070
   278
 70
    46
1070
    44
 40
0.18
1070
    42
 40
0.0625
1070
   147
 40
0.09
1070
    77
 70
     0
1070
   272
 70
     4
1070
    73
 70
     1
1070
   172
 70
     0
1070
    74
 70
     1
1070
   283
 70
     1
1070
   340
340
11
1070
   140
 40
0.18
1070
   284
 70
     0
1070
    78
 70
     0
1002
}
  0
XRECORD
  5
2D7
102
{ACAD_REACTORS
330
2CD
102
}
330
2CD
100
AcDbXrecord
  1
{DF57DA38-555B-4424-A9FF-AA7DB815951C}
  0
XRECORD
  5
2D0
102
{ACAD_REACTORS
330
2CD
102
}
330
2CD
100
AcDbXrecord
  1

  0
XRECORD
  5
2D5
102
{ACAD_REACTORS
330
2CD
102
}
330
2CD
100
AcDbXrecord
 90
        4
  0
XRECORD
  5
2D2
102
{ACAD_REACTORS
330
2CD
102
}
330
2CD
100
AcDbXrecord
340
1A
  0
XRECORD
  5
2D4
102
{ACAD_REACTORS
330
2CD
102
}
330
2CD
100
AcDbXrecord
 90
    10781
  0
XRECORD
  5
2D3
102
{ACAD_REACTORS
330
2CD
102
}
330
2CD
100
AcDbXrecord
340
19
  0
XRECORD
  5
2D9
102
{ACAD_REACTORS
330
2CD
102
}
330
2CD
100
AcDbXrecord
 40
0.0
  0
XRECORD
  5
2DC
102
{ACAD_REACTORS
330
2CD
102
}
330
2CD
100
AcDbXrecord
340
0
  0
XRECORD
  5
2E2
102
{ACAD_REACTORS
330
2CD
102
}
330
2CD
100
AcDbXrecord
 10
0.0
 20
0.0
 30
0.0
  0
XRECORD
  5
2DE
102
{ACAD_REACTORS
330
2CD
102
}
330
2CD
100
AcDbXrecord
 10
0.0
 20
0.0
 30
0.0
  0
XRECORD
  5
2E1
102
{ACAD_REACTORS
330
2CD
102
}
330
2CD
100
AcDbXrecord
 10
0.0
 20
0.0
 30
0.0
  0
XRECORD
  5
2DF
102
{ACAD_REACTORS
330
2CD
102
}
330
2CD
100
AcDbXrecord
 10
0.0
 20
0.0
 30
0.0
  0
XRECORD
  5
2E0
102
{ACAD_REACTORS
330
2CD
102
}
330
2CD
100
AcDbXrecord
 10
0.0
 20
0.0
 30
0.0
  0
XRECORD
  5
2DD
102
{ACAD_REACTORS
330
2CD
102
}
330
2CD
100
AcDbXrecord
 10
0.0
 20
0.0
 30
0.0
  0
XRECORD
  5
2DA
102
{ACAD_REACTORS
330
2CD
102
}
330
2CD
100
AcDbXrecord
340
0
  0
XRECORD
  5
2DB
102
{ACAD_REACTORS
330
2CD
102
}
330
2CD
100
AcDbXrecord
 70
     0
  0
XRECORD
  5
2D1
102
{ACAD_REACTORS
330
2CD
102
}
330
2CD
100
AcDbXrecord
  1

  0
XRECORD
  5
2CE
102
{ACAD_REACTORS
330
2CD
102
}
330
2CD
100
AcDbXrecord
 90
        1
  0
XRECORD
  5
2CF
102
{ACAD_REACTORS
330
2CD
102
}
330
2CD
100
AcDbXrecord
 90
       70
  0
XRECORD
  5
2E5
102
{ACAD_REACTORS
330
2CD
102
}
330
2CD
100
AcDbXrecord
340
0
  0
XRECORD
  5
2EB
102
{ACAD_REACTORS
330
2CD
102
}
330
2CD
100
AcDbXrecord
 10
0.0
 20
0.0
 30
0.0
  0
XRECORD
  5
2E7
102
{ACAD_REACTORS
330
2CD
102
}
330
2CD
100
AcDbXrecord
 10
0.0
 20
0.0
 30
0.0
  0
XRECORD
  5
2EA
102
{ACAD_REACTORS
330
2CD
102
}
330
2CD
100
AcDbXrecord
 10
0.0
 20
0.0
 30
0.0
  0
XRECORD
  5
2E8
102
{ACAD_REACTORS
330
2CD
102
}
330
2CD
100
AcDbXrecord
 10
0.0
 20
0.0
 30
0.0
  0
XRECORD
  5
2E9
102
{ACAD_REACTORS
330
2CD
102
}
330
2CD
100
AcDbXrecord
 10
0.0
 20
0.0
 30
0.0
  0
XRECORD
  5
2E6
102
{ACAD_REACTORS
330
2CD
102
}
330
2CD
100
AcDbXrecord
 10
0.0
 20
0.0
 30
0.0
  0
XRECORD
  5
2E3
102
{ACAD_REACTORS
330
2CD
102
}
330
2CD
100
AcDbXrecord
340
0
  0
XRECORD
  5
2E4
102
{ACAD_REACTORS
330
2CD
102
}
330
2CD
100
AcDbXrecord
 70
     0
  0
XRECORD
  5
2D8
102
{ACAD_REACTORS
330
2CD
102
}
330
2CD
100
AcDbXrecord
  1
{FAEB1C32-E019-11D5-929B-00C0DF256EC4}
  0
DICTIONARYVAR
  5
2F0
102
{ACAD_REACTORS
330
2ED
102
}
330
2ED
100
DictionaryVariables
280
     0
  1
2
  0
DICTIONARYVAR
  5
2F1
102
{ACAD_REACTORS
330
2ED
102
}
330
2ED
100
DictionaryVariables
280
     0
  1
1
  0
DICTIONARY
  5
2F4
330
3D
100
AcDbDictionary
280
     1
  3
ACAD_XREC_ROUNDTRIP
360
2F5
  0
DICTIONARY
  5
2F2
330
3C
100
AcDbDictionary
280
     1
  3
ACAD_XREC_ROUNDTRIP
360
2F3
  0
DICTIONARY
  5
2F6
330
3E
100
AcDbDictionary
280
     1
  3
ACAD_XREC_ROUNDTRIP
360
2F7
  0
XRECORD
  5
2F5
102
{ACAD_REACTORS
330
2F4
102
}
330
2F4
100
AcDbXrecord
102
MATERIAL
148
0.0
149
0.0
149
0.0
 93
        0
 94
      127
282
     0
 72
     1
 77
     1
171
     1
175
     1
179
     1
273
     0
  0
XRECORD
  5
2F3
102
{ACAD_REACTORS
330
2F2
102
}
330
2F2
100
AcDbXrecord
102
MATERIAL
148
0.0
149
0.0
149
0.0
 93
        0
 94
      127
282
     0
 72
     1
 77
     1
171
     1
175
     1
179
     1
273
     0
  0
XRECORD
  5
2F7
102
{ACAD_REACTORS
330
2F6
102
}
330
2F6
100
AcDbXrecord
102
MATERIAL
148
0.0
149
0.0
149
0.0
 93
        0
 94
      127
282
     0
 72
     1
 77
     1
171
     1
175
     1
179
     1
273
     0
  0
ENDSEC
  0
EOF
