  0
SECTION
  2
HEADER
  9
$ACADVER
  1
AC1014
  9
$ACADMAINTVER
 70
     9
  9
$DWGCODEPAGE
  3
ANSI_1252
  9
$INSBASE
 10
0.0
 20
0.0
 30
0.0
  9
$EXTMIN
 10
-0.5
 20
-0.5
 30
-0.5
  9
$EXTMAX
 10
5.0
 20
5.0
 30
5.0
  9
$LIMMIN
 10
-0.5
 20
-0.5
  9
$LIMMAX
 10
5.0
 20
5.0
  9
$ORTHOMODE
 70
     0
  9
$REGENMODE
 70
     1
  9
$FILLMODE
 70
     1
  9
$QTEXTMODE
 70
     0
  9
$MIRRTEXT
 70
     1
  9
$DRAGMODE
 70
     2
  9
$LTSCALE
 40
1.0
  9
$OSMODE
 70
    37
  9
$ATTMODE
 70
     1
  9
$TEXTSIZE
 40
0.2
  9
$TRACEWID
 40
0.05
  9
$TEXTSTYLE
  7
STANDARD
  9
$CLAYER
  8
0
  9
$CELTYPE
  6
BYLAYER
  9
$CECOLOR
 62
   256
  9
$CELTSCALE
 40
1.0
  9
$DELOBJ
 70
     1
  9
$DISPSILH
 70
     0
  9
$DIMSCALE
 40
1.0
  9
$DIMASZ
 40
0.18
  9
$DIMEXO
 40
0.0625
  9
$DIMDLI
 40
0.38
  9
$DIMRND
 40
0.0
  9
$DIMDLE
 40
0.0
  9
$DIMEXE
 40
0.18
  9
$DIMTP
 40
0.0
  9
$DIMTM
 40
0.0
  9
$DIMTXT
 40
0.18
  9
$DIMCEN
 40
0.09
  9
$DIMTSZ
 40
0.0
  9
$DIMTOL
 70
     0
  9
$DIMLIM
 70
     0
  9
$DIMTIH
 70
     1
  9
$DIMTOH
 70
     1
  9
$DIMSE1
 70
     0
  9
$DIMSE2
 70
     0
  9
$DIMTAD
 70
     0
  9
$DIMZIN
 70
     0
  9
$DIMBLK
  1

  9
$DIMASO
 70
     1
  9
$DIMSHO
 70
     1
  9
$DIMPOST
  1

  9
$DIMAPOST
  1

  9
$DIMALT
 70
     0
  9
$DIMALTD
 70
     2
  9
$DIMALTF
 40
25.4
  9
$DIMLFAC
 40
1.0
  9
$DIMTOFL
 70
     0
  9
$DIMTVP
 40
0.0
  9
$DIMTIX
 70
     0
  9
$DIMSOXD
 70
     0
  9
$DIMSAH
 70
     0
  9
$DIMBLK1
  1

  9
$DIMBLK2
  1

  9
$DIMSTYLE
  2
STANDARD
  9
$DIMCLRD
 70
     0
  9
$DIMCLRE
 70
     0
  9
$DIMCLRT
 70
     0
  9
$DIMTFAC
 40
1.0
  9
$DIMGAP
 40
0.09
  9
$DIMJUST
 70
     0
  9
$DIMSD1
 70
     0
  9
$DIMSD2
 70
     0
  9
$DIMTOLJ
 70
     1
  9
$DIMTZIN
 70
     0
  9
$DIMALTZ
 70
     0
  9
$DIMALTTZ
 70
     0
  9
$DIMFIT
 70
     3
  9
$DIMUPT
 70
     0
  9
$DIMUNIT
 70
     2
  9
$DIMDEC
 70
     4
  9
$DIMTDEC
 70
     4
  9
$DIMALTU
 70
     2
  9
$DIMALTTD
 70
     2
  9
$DIMTXSTY
  7
STANDARD
  9
$DIMAUNIT
 70
     0
  9
$LUNITS
 70
     2
  9
$LUPREC
 70
     4
  9
$SKETCHINC
 40
0.1
  9
$FILLETRAD
 40
0.5
  9
$AUNITS
 70
     0
  9
$AUPREC
 70
     0
  9
$MENU
  1
.
  9
$ELEVATION
 40
0.0
  9
$PELEVATION
 40
0.0
  9
$THICKNESS
 40
0.0
  9
$LIMCHECK
 70
     0
  9
$CHAMFERA
 40
0.5
  9
$CHAMFERB
 40
0.5
  9
$CHAMFERC
 40
1.0
  9
$CHAMFERD
 40
0.0
  9
$SKPOLY
 70
     0
  9
$TDCREATE
 40
2457770.373794838
  9
$TDUPDATE
 40
2457770.373794849
  9
$TDINDWG
 40
0.0000000116
  9
$TDUSRTIMER
 40
0.0000000116
  9
$USRTIMER
 70
     1
  9
$ANGBASE
 50
0.0
  9
$ANGDIR
 70
     0
  9
$PDMODE
 70
     0
  9
$PDSIZE
 40
0.0
  9
$PLINEWID
 40
0.0
  9
$COORDS
 70
     1
  9
$SPLFRAME
 70
     0
  9
$SPLINETYPE
 70
     6
  9
$SPLINESEGS
 70
     8
  9
$ATTDIA
 70
     0
  9
$ATTREQ
 70
     1
  9
$HANDLING
 70
     1
  9
$HANDSEED
  5
25D
  9
$SURFTAB1
 70
     6
  9
$SURFTAB2
 70
     6
  9
$SURFTYPE
 70
     6
  9
$SURFU
 70
     6
  9
$SURFV
 70
     6
  9
$UCSNAME
  2

  9
$UCSORG
 10
0.0
 20
0.0
 30
0.0
  9
$UCSXDIR
 10
1.0
 20
0.0
 30
0.0
  9
$UCSYDIR
 10
0.0
 20
1.0
 30
0.0
  9
$PUCSNAME
  2

  9
$PUCSORG
 10
0.0
 20
0.0
 30
0.0
  9
$PUCSXDIR
 10
1.0
 20
0.0
 30
0.0
  9
$PUCSYDIR
 10
0.0
 20
1.0
 30
0.0
  9
$USERI1
 70
     0
  9
$USERI2
 70
     0
  9
$USERI3
 70
     0
  9
$USERI4
 70
     0
  9
$USERI5
 70
     0
  9
$USERR1
 40
0.0
  9
$USERR2
 40
0.0
  9
$USERR3
 40
0.0
  9
$USERR4
 40
0.0
  9
$USERR5
 40
0.0
  9
$WORLDVIEW
 70
     1
  9
$SHADEDGE
 70
     3
  9
$SHADEDIF
 70
    70
  9
$TILEMODE
 70
     1
  9
$MAXACTVP
 70
    64
  9
$PINSBASE
 10
0.0
 20
0.0
 30
0.0
  9
$PLIMCHECK
 70
     0
  9
$PEXTMIN
 10
-0.5
 20
-0.5
 30
-0.5
  9
$PEXTMAX
 10
5.0
 20
5.0
 30
5.0
  9
$PLIMMIN
 10
-0.5
 20
-0.5
  9
$PLIMMAX
 10
5.0
 20
5.0
  9
$UNITMODE
 70
     0
  9
$VISRETAIN
 70
     1
  9
$PLINEGEN
 70
     0
  9
$PSLTSCALE
 70
     1
  9
$TREEDEPTH
 70
  3020
  9
$PICKSTYLE
 70
     1
  9
$CMLSTYLE
  2
STANDARD
  9
$CMLJUST
 70
     0
  9
$CMLSCALE
 40
1.0
  9
$PROXYGRAPHICS
 70
     1
  9
$MEASUREMENT
 70
     1
  0
ENDSEC
  0
SECTION
  2
CLASSES
  0
CLASS
  1
ACDBDICTIONARYWDFLT
  2
AcDbDictionaryWithDefault
  3
ObjectDBX Classes
 90
        0
280
     0
281
     0
  0
CLASS
  1
VISUALSTYLE
  2
AcDbVisualStyle
  3
ObjectDBX Classes
 90
     4095
280
     0
281
     0
  0
CLASS
  1
MATERIAL
  2
AcDbMaterial
  3
ObjectDBX Classes
 90
     1153
280
     0
281
     0
  0
CLASS
  1
DICTIONARYVAR
  2
AcDbDictionaryVar
  3
ObjectDBX Classes
 90
        0
280
     0
281
     0
  0
CLASS
  1
XRECORD
  2
AcDbXrecord
  3
AutoCAD 2000
 90
        0
280
     0
281
     0
  0
CLASS
  1
LWPOLYLINE
  2
AcDbPolyline
  3
AutoCAD 2000
 90
        0
280
     0
281
     1
  0
CLASS
  1
HATCH
  2
AcDbHatch
  3
AutoCAD 2000
 90
        0
280
     0
281
     1
  0
CLASS
  1
ACDBPLACEHOLDER
  2
AcDbPlaceHolder
  3
ObjectDBX Classes
 90
        0
280
     0
281
     0
  0
CLASS
  1
LAYOUT
  2
AcDbLayout
  3
ObjectDBX Classes
 90
        0
280
     0
281
     0
  0
ENDSEC
  0
SECTION
  2
TABLES
  0
TABLE
  2
VPORT
  5
8
330
0
100
AcDbSymbolTable
 70
    17
  0
VPORT
  5
29
330
8
100
AcDbSymbolTableRecord
100
AcDbViewportTableRecord
  2
DUMMY
 70
     0
 10
0.0
 20
0.0
 11
1.0
 21
1.0
 12
10.429907
 22
4.5
 13
0.0
 23
0.0
 14
0.5
 24
0.5
 15
0.5
 25
0.5
 16
0.0
 26
0.0
 36
1.0
 17
0.0
 27
0.0
 37
0.0
 40
9.0
 41
1.972973
 42
50.0
 43
0.0
 44
0.0
 50
0.0
 51
0.0
 71
     0
 72
   100
 73
     1
 74
     3
 75
     0
 76
     0
 77
     0
 78
     0
  0
VPORT
  5
222
330
8
100
AcDbSymbolTableRecord
100
AcDbViewportTableRecord
  2
*ACTIVE
 70
     0
 10
0.0
 20
0.0
 11
1.0
 21
1.0
 12
207.48
 22
148.5
 13
0.0
 23
0.0
 14
0.5
 24
0.5
 15
0.5
 25
0.5
 16
0.0
 26
0.0
 36
1.0
 17
0.0
 27
0.0
 37
0.0
 40
254.0
 41
0.069908
 42
50.0
 43
804.295265
 44
-804.295265
 50
0.0
 51
0.0
 71
     0
 72
   100
 73
     1
 74
     3
 75
     0
 76
     0
 77
     0
 78
     0
  0
VPORT
  5
223
330
8
100
AcDbSymbolTableRecord
100
AcDbViewportTableRecord
  2
L1
 70
     0
 10
0.0
 20
0.0
 11
1.0
 21
1.0
 12
207.48
 22
148.5
 13
0.0
 23
0.0
 14
0.5
 24
0.5
 15
0.5
 25
0.5
 16
0.0
 26
0.0
 36
1.0
 17
0.0
 27
0.0
 37
0.0
 40
254.0
 41
0.069908
 42
50.0
 43
804.295265
 44
-804.295265
 50
0.0
 51
0.0
 71
     0
 72
   100
 73
     1
 74
     3
 75
     0
 76
     0
 77
     0
 78
     0
  0
VPORT
  5
224
330
8
100
AcDbSymbolTableRecord
100
AcDbViewportTableRecord
  2
L2
 70
     0
 10
0.0
 20
0.0
 11
0.5
 21
1.0
 12
0.0
 22
0.0
 13
0.0
 23
0.0
 14
0.5
 24
0.5
 15
0.5
 25
0.5
 16
0.0
 26
-1.0
 36
0.0
 17
0.0
 27
0.0
 37
0.0
 40
1319.822715
 41
0.013454
 42
50.0
 43
672.020833
 44
-672.020833
 50
0.0
 51
0.0
 71
     0
 72
   100
 73
     1
 74
     3
 75
     0
 76
     0
 77
     0
 78
     0
  0
VPORT
  5
225
330
8
100
AcDbSymbolTableRecord
100
AcDbViewportTableRecord
  2
L2
 70
     0
 10
0.5
 20
0.0
 11
1.0
 21
1.0
 12
0.0
 22
0.0
 13
0.0
 23
0.0
 14
0.5
 24
0.5
 15
0.5
 25
0.5
 16
1.0
 26
0.0
 36
0.0
 17
0.0
 27
0.0
 37
0.0
 40
1319.822715
 41
0.013454
 42
50.0
 43
672.020833
 44
-672.020833
 50
0.0
 51
0.0
 71
     0
 72
   100
 73
     1
 74
     3
 75
     0
 76
     0
 77
     0
 78
     0
  0
VPORT
  5
226
330
8
100
AcDbSymbolTableRecord
100
AcDbViewportTableRecord
  2
L3
 70
     0
 10
0.0
 20
0.5
 11
1.0
 21
1.0
 12
207.48
 22
148.5
 13
0.0
 23
0.0
 14
0.5
 24
0.5
 15
0.5
 25
0.5
 16
0.0
 26
0.0
 36
1.0
 17
0.0
 27
0.0
 37
0.0
 40
254.0
 41
0.069908
 42
50.0
 43
804.295265
 44
-804.295265
 50
0.0
 51
0.0
 71
     0
 72
   100
 73
     1
 74
     3
 75
     0
 76
     0
 77
     0
 78
     0
  0
VPORT
  5
227
330
8
100
AcDbSymbolTableRecord
100
AcDbViewportTableRecord
  2
L3
 70
     0
 10
0.0
 20
0.0
 11
1.0
 21
0.5
 12
0.0
 22
0.0
 13
0.0
 23
0.0
 14
0.5
 24
0.5
 15
0.5
 25
0.5
 16
0.0
 26
-1.0
 36
0.0
 17
0.0
 27
0.0
 37
0.0
 40
1319.822715
 41
0.013454
 42
50.0
 43
672.020833
 44
-672.020833
 50
0.0
 51
0.0
 71
     0
 72
   100
 73
     1
 74
     3
 75
     0
 76
     0
 77
     0
 78
     0
  0
VPORT
  5
228
330
8
100
AcDbSymbolTableRecord
100
AcDbViewportTableRecord
  2
L4
 70
     0
 10
0.0
 20
0.5
 11
0.5
 21
1.0
 12
207.48
 22
148.5
 13
0.0
 23
0.0
 14
0.5
 24
0.5
 15
0.5
 25
0.5
 16
0.0
 26
0.0
 36
1.0
 17
0.0
 27
0.0
 37
0.0
 40
254.0
 41
0.069908
 42
50.0
 43
804.295265
 44
-804.295265
 50
0.0
 51
0.0
 71
     0
 72
   100
 73
     1
 74
     3
 75
     0
 76
     0
 77
     0
 78
     0
  0
VPORT
  5
229
330
8
100
AcDbSymbolTableRecord
100
AcDbViewportTableRecord
  2
L4
 70
     0
 10
0.0
 20
0.0
 11
0.5
 21
0.5
 12
0.0
 22
0.0
 13
0.0
 23
0.0
 14
0.5
 24
0.5
 15
0.5
 25
0.5
 16
0.0
 26
-1.0
 36
0.0
 17
0.0
 27
0.0
 37
0.0
 40
1319.822715
 41
0.013454
 42
50.0
 43
672.020833
 44
-672.020833
 50
0.0
 51
0.0
 71
     0
 72
   100
 73
     1
 74
     3
 75
     0
 76
     0
 77
     0
 78
     0
  0
VPORT
  5
22A
330
8
100
AcDbSymbolTableRecord
100
AcDbViewportTableRecord
  2
L4
 70
     0
 10
0.5
 20
0.0
 11
1.0
 21
0.5
 12
0.0
 22
0.0
 13
0.0
 23
0.0
 14
0.5
 24
0.5
 15
0.5
 25
0.5
 16
1.0
 26
0.0
 36
0.0
 17
0.0
 27
0.0
 37
0.0
 40
1319.822715
 41
0.013454
 42
50.0
 43
672.020833
 44
-672.020833
 50
0.0
 51
0.0
 71
     0
 72
   100
 73
     1
 74
     3
 75
     0
 76
     0
 77
     0
 78
     0
  0
VPORT
  5
22B
330
8
100
AcDbSymbolTableRecord
100
AcDbViewportTableRecord
  2
L4
 70
     0
 10
0.5
 20
0.5
 11
1.0
 21
1.0
 12
0.0
 22
0.0
 13
0.0
 23
0.0
 14
0.5
 24
0.5
 15
0.5
 25
0.5
 16
0.5773502691896258
 26
-0.5773502691896258
 36
0.5773502691896258
 17
0.0
 27
0.0
 37
0.0
 40
1285.020866
 41
0.013818
 42
50.0
 43
667.141407
 44
-667.141407
 50
0.0
 51
0.0
 71
     0
 72
   100
 73
     1
 74
     3
 75
     0
 76
     0
 77
     0
 78
     0
  0
VPORT
  5
22C
330
8
100
AcDbSymbolTableRecord
100
AcDbViewportTableRecord
  2
L6
 70
     0
 10
0.0
 20
0.5
 11
0.333333
 21
1.0
 12
0.0
 22
0.0
 13
0.0
 23
0.0
 14
0.5
 24
0.5
 15
0.5
 25
0.5
 16
0.7188730927569434
 26
-0.5850486126764431
 36
0.3754192287502549
 17
0.0
 27
0.0
 37
0.0
 40
1357.434192
 41
0.013081
 42
50.0
 43
701.839477
 44
-701.839477
 50
0.0
 51
0.0
 71
     0
 72
   100
 73
     1
 74
     3
 75
     0
 76
     0
 77
     0
 78
     0
  0
VPORT
  5
22D
330
8
100
AcDbSymbolTableRecord
100
AcDbViewportTableRecord
  2
L6
 70
     0
 10
0.0
 20
0.0
 11
0.333333
 21
0.5
 12
0.0
 22
0.0
 13
0.0
 23
0.0
 14
0.5
 24
0.5
 15
0.5
 25
0.5
 16
-1.0
 26
0.0
 36
0.0
 17
0.0
 27
0.0
 37
0.0
 40
1319.822715
 41
0.013454
 42
50.0
 43
672.020833
 44
-672.020833
 50
0.0
 51
0.0
 71
     0
 72
   100
 73
     1
 74
     3
 75
     0
 76
     0
 77
     0
 78
     0
  0
VPORT
  5
22E
330
8
100
AcDbSymbolTableRecord
100
AcDbViewportTableRecord
  2
L6
 70
     0
 10
0.333333
 20
0.5
 11
0.666667
 21
1.0
 12
207.48
 22
148.5
 13
0.0
 23
0.0
 14
0.5
 24
0.5
 15
0.5
 25
0.5
 16
0.0
 26
0.0
 36
1.0
 17
0.0
 27
0.0
 37
0.0
 40
254.0
 41
0.069908
 42
50.0
 43
804.295265
 44
-804.295265
 50
0.0
 51
0.0
 71
     0
 72
   100
 73
     1
 74
     3
 75
     0
 76
     0
 77
     0
 78
     0
  0
VPORT
  5
22F
330
8
100
AcDbSymbolTableRecord
100
AcDbViewportTableRecord
  2
L6
 70
     0
 10
0.333333
 20
0.0
 11
0.666667
 21
0.5
 12
0.0
 22
0.0
 13
0.0
 23
0.0
 14
0.5
 24
0.5
 15
0.5
 25
0.5
 16
0.0
 26
-1.0
 36
0.0
 17
0.0
 27
0.0
 37
0.0
 40
1319.822715
 41
0.013454
 42
50.0
 43
672.020833
 44
-672.020833
 50
0.0
 51
0.0
 71
     0
 72
   100
 73
     1
 74
     3
 75
     0
 76
     0
 77
     0
 78
     0
  0
VPORT
  5
230
330
8
100
AcDbSymbolTableRecord
100
AcDbViewportTableRecord
  2
L6
 70
     0
 10
0.666667
 20
0.5
 11
1.0
 21
1.0
 12
0.0
 22
0.0
 13
0.0
 23
0.0
 14
0.5
 24
0.5
 15
0.5
 25
0.5
 16
0.5773502691896258
 26
-0.5773502691896258
 36
0.5773502691896258
 17
0.0
 27
0.0
 37
0.0
 40
1285.020866
 41
0.013818
 42
50.0
 43
667.141407
 44
-667.141407
 50
0.0
 51
0.0
 71
     0
 72
   100
 73
     1
 74
     3
 75
     0
 76
     0
 77
     0
 78
     0
  0
VPORT
  5
231
330
8
100
AcDbSymbolTableRecord
100
AcDbViewportTableRecord
  2
L6
 70
     0
 10
0.666667
 20
0.0
 11
1.0
 21
0.5
 12
0.0
 22
0.0
 13
0.0
 23
0.0
 14
0.5
 24
0.5
 15
0.5
 25
0.5
 16
1.0
 26
0.0
 36
0.0
 17
0.0
 27
0.0
 37
0.0
 40
1319.822715
 41
0.013454
 42
50.0
 43
672.020833
 44
-672.020833
 50
0.0
 51
0.0
 71
     0
 72
   100
 73
     1
 74
     3
 75
     0
 76
     0
 77
     0
 78
     0
  0
ENDTAB
  0
TABLE
  2
LTYPE
  5
5
330
0
100
AcDbSymbolTable
 70
     7
  0
LTYPE
  5
14
330
5
100
AcDbSymbolTableRecord
100
AcDbLinetypeTableRecord
  2
BYBLOCK
 70
     0
  3

 72
    65
 73
     0
 40
0.0
  0
LTYPE
  5
15
330
5
100
AcDbSymbolTableRecord
100
AcDbLinetypeTableRecord
  2
BYLAYER
 70
     0
  3

 72
    65
 73
     0
 40
0.0
  0
LTYPE
  5
16
330
5
100
AcDbSymbolTableRecord
100
AcDbLinetypeTableRecord
  2
CONTINUOUS
 70
     0
  3
Solid line
 72
    65
 73
     0
 40
0.0
  0
LTYPE
  5
3F
330
5
100
AcDbSymbolTableRecord
100
AcDbLinetypeTableRecord
  2
DASHED
 70
     0
  3
__ __ __ __ __ __ __ __ __
 72
    65
 73
     2
 40
25.72
 49
12.86
 74
     4
 75
     0
340
0
 46
0.0
 50
0.0
 44
0.0
 45
0.0
 49
-12.86
 74
     4
 75
     0
340
0
 46
0.0
 50
0.0
 44
0.0
 45
0.0
  0
LTYPE
  5
40
330
5
100
AcDbSymbolTableRecord
100
AcDbLinetypeTableRecord
  2
HIDDEN
 70
     0
  3
_ _ _ _ _ _ _ _ _ _ _ _ _ _ _
 72
    65
 73
     2
 40
0.5
 49
0.25
 74
     4
 75
     0
340
0
 46
0.0
 50
0.0
 44
0.0
 45
0.0
 49
-0.25
 74
     4
 75
     0
340
0
 46
0.0
 50
0.0
 44
0.0
 45
0.0
  0
LTYPE
  5
41
330
5
100
AcDbSymbolTableRecord
100
AcDbLinetypeTableRecord
  2
PHANTOM
 70
     0
  3
____ _ _ ____ _ _ _____ _ _ ____
 72
    65
 73
     6
 40
50.5
 49
18.0
 74
     4
 75
     0
340
0
 46
0.0
 50
0.0
 44
0.0
 45
0.0
 49
-6.5
 74
     4
 75
     0
340
0
 46
0.0
 50
0.0
 44
0.0
 45
0.0
 49
6.5
 74
     4
 75
     0
340
0
 46
0.0
 50
0.0
 44
0.0
 45
0.0
 49
-6.5
 74
     4
 75
     0
340
0
 46
0.0
 50
0.0
 44
0.0
 45
0.0
 49
6.5
 74
     4
 75
     0
340
0
 46
0.0
 50
0.0
 44
0.0
 45
0.0
 49
-6.5
 74
     4
 75
     0
340
0
 46
0.0
 50
0.0
 44
0.0
 45
0.0
  0
LTYPE
  5
42
330
5
100
AcDbSymbolTableRecord
100
AcDbLinetypeTableRecord
  2
CENTER
 70
     0
  3
____ _ ____ _ ____ _ ____
 72
    65
 73
     4
 40
47.4
 49
22.0
 74
     4
 75
     0
340
0
 46
0.0
 50
0.0
 44
0.0
 45
0.0
 49
-8.5
 74
     4
 75
     0
340
0
 46
0.0
 50
0.0
 44
0.0
 45
0.0
 49
8.5
 74
     4
 75
     0
340
0
 46
0.0
 50
0.0
 44
0.0
 45
0.0
 49
-8.5
 74
     4
 75
     0
340
0
 46
0.0
 50
0.0
 44
0.0
 45
0.0
  0
LTYPE
  5
43
330
5
100
AcDbSymbolTableRecord
100
AcDbLinetypeTableRecord
  2
DOT
 70
     0
  3
.........................
 72
    65
 73
     2
 40
10.0
 49
0.0
 74
     4
 75
     0
340
0
 46
0.0
 50
0.0
 44
0.0
 45
0.0
 49
-10.0
 74
     4
 75
     0
340
0
 46
0.0
 50
0.0
 44
0.0
 45
0.0
  0
LTYPE
  5
44
330
5
100
AcDbSymbolTableRecord
100
AcDbLinetypeTableRecord
  2
DASHDOT
 70
     0
  3
_._._._._._._._._._._._._._._._.
 72
    65
 73
     4
 40
70.0
 49
31.0
 74
     4
 75
     0
340
0
 46
0.0
 50
0.0
 44
0.0
 45
0.0
 49
-13.0
 74
     4
 75
     0
340
0
 46
0.0
 50
0.0
 44
0.0
 45
0.0
 49
13.0
 74
     4
 75
     0
340
0
 46
0.0
 50
0.0
 44
0.0
 45
0.0
 49
-13.0
 74
     4
 75
     0
340
0
 46
0.0
 50
0.0
 44
0.0
 45
0.0
  0
ENDTAB
  0
TABLE
  2
LAYER
  5
2
330
0
100
AcDbSymbolTable
 70
     5
  0
LAYER
  5
10
330
2
100
AcDbSymbolTableRecord
100
AcDbLayerTableRecord
  2
0
 70
     0
 62
     7
  6
CONTINUOUS
  0
LAYER
  5
46
330
2
100
AcDbSymbolTableRecord
100
AcDbLayerTableRecord
  2
255
 70
     0
 62
     7
  6
CONTINUOUS
  0
LAYER
  5
4A
330
2
100
AcDbSymbolTableRecord
100
AcDbLayerTableRecord
  2
1
 70
     0
 62
     7
  6
CONTINUOUS
  0
LAYER
  5
BD
330
2
100
AcDbSymbolTableRecord
100
AcDbLayerTableRecord
  2
256
 70
     0
 62
     7
  6
CONTINUOUS
  0
LAYER
  5
136
330
2
100
AcDbSymbolTableRecord
100
AcDbLayerTableRecord
  2
TOP
 70
     0
 62
     7
  6
CONTINUOUS
  0
ENDTAB
  0
TABLE
  2
STYLE
  5
3
330
0
100
AcDbSymbolTable
 70
     4
  0
STYLE
  5
11
330
3
100
AcDbSymbolTableRecord
100
AcDbTextStyleTableRecord
  2
STANDARD
 70
     0
 40
0.0
 41
1.0
 50
0.0
 71
     0
 42
0.2
  3
txt
  4

  0
STYLE
  5
131
330
3
100
AcDbSymbolTableRecord
100
AcDbTextStyleTableRecord
  2
DEFAULT
 70
     0
 40
0.0
 41
1.0
 50
0.0
 71
     0
 42
0.2
  3
simplex.shx
  4

  0
STYLE
  5
132
330
3
100
AcDbSymbolTableRecord
100
AcDbTextStyleTableRecord
  2
DWGDIRECTTEXTSTYLE
 70
     0
 40
0.0
 41
1.0
 50
0.0
 71
     0
 42
0.2
  3
SIMPLEX
  4
bigfont
  0
STYLE
  5
14E
330
3
100
AcDbSymbolTableRecord
100
AcDbTextStyleTableRecord
  2
BLOCKFONT
 70
     0
 40
0.0
 41
1.0
 50
0.0
 71
     0
 42
0.2
  3
simplex.shx
  4

  0
ENDTAB
  0
TABLE
  2
VIEW
  5
6
330
0
100
AcDbSymbolTable
 70
     0
  0
ENDTAB
  0
TABLE
  2
UCS
  5
7
330
0
100
AcDbSymbolTable
 70
     0
  0
ENDTAB
  0
TABLE
  2
APPID
  5
9
330
0
100
AcDbSymbolTable
 70
     1
  0
APPID
  5
12
330
9
100
AcDbSymbolTableRecord
100
AcDbRegAppTableRecord
  2
ACAD
 70
     0
  0
ENDTAB
  0
TABLE
  2
DIMSTYLE
  5
A
330
0
100
AcDbSymbolTable
 70
     1
  0
DIMSTYLE
105
27
102
{ACAD_REACTORS
330
1B6
330
1C0
330
1DD
330
1E7
330
1F1
330
1FB
330
203
330
20C
330
214
330
21F
102
}
330
A
100
AcDbSymbolTableRecord
100
AcDbDimStyleTableRecord
  2
STANDARD
 70
     0
  3

  4

  5

  6

  7

 40
1.0
 41
0.18
 42
0.0625
 43
0.38
 44
0.18
 45
0.0
 46
0.0
 47
0.0
 48
0.0
140
0.18
141
0.09
142
0.0
143
25.4
144
1.0
145
0.0
146
1.0
147
0.09
 71
     0
 72
     0
 73
     1
 74
     1
 75
     0
 76
     0
 77
     0
 78
     0
170
     0
171
     2
172
     0
173
     0
174
     0
175
     0
176
     0
177
     0
178
     0
270
     2
271
     4
272
     4
273
     2
274
     2
340
11
275
     0
280
     0
281
     0
282
     0
283
     1
284
     0
285
     0
286
     0
287
     3
288
     0
  0
ENDTAB
  0
TABLE
  2
BLOCK_RECORD
  5
1
330
0
100
AcDbSymbolTable
 70
    16
  0
BLOCK_RECORD
  5
1F
330
1
100
AcDbSymbolTableRecord
100
AcDbBlockTableRecord
  2
*MODEL_SPACE
  0
BLOCK_RECORD
  5
1B
330
1
100
AcDbSymbolTableRecord
100
AcDbBlockTableRecord
  2
*PAPER_SPACE
  0
BLOCK_RECORD
  5
12E
330
1
100
AcDbSymbolTableRecord
100
AcDbBlockTableRecord
  2
LABLE3D_1
  0
BLOCK_RECORD
  5
137
330
1
100
AcDbSymbolTableRecord
100
AcDbBlockTableRecord
  2
LABLE3D_2
  0
BLOCK_RECORD
  5
13D
330
1
100
AcDbSymbolTableRecord
100
AcDbBlockTableRecord
  2
LABLE3D_3
  0
BLOCK_RECORD
  5
1AD
330
1
100
AcDbSymbolTableRecord
100
AcDbBlockTableRecord
  2
DIMNDRAFT3D1
  0
BLOCK_RECORD
  5
1B7
330
1
100
AcDbSymbolTableRecord
100
AcDbBlockTableRecord
  2
DIMNDRAFT3D2
  0
BLOCK_RECORD
  5
1C1
330
1
100
AcDbSymbolTableRecord
100
AcDbBlockTableRecord
  2
DIMNDRAFT3D33
  0
BLOCK_RECORD
  5
1CB
330
1
100
AcDbSymbolTableRecord
100
AcDbBlockTableRecord
  2
DIMNDRAFT3D44
  0
BLOCK_RECORD
  5
1D5
330
1
100
AcDbSymbolTableRecord
100
AcDbBlockTableRecord
  2
DIMNDRAFT3D5
  0
BLOCK_RECORD
  5
1DE
330
1
100
AcDbSymbolTableRecord
100
AcDbBlockTableRecord
  2
DIMNDRAFT3D6
  0
BLOCK_RECORD
  5
1E8
330
1
100
AcDbSymbolTableRecord
100
AcDbBlockTableRecord
  2
DIMNDRAFT3D7
  0
BLOCK_RECORD
  5
1F2
330
1
100
AcDbSymbolTableRecord
100
AcDbBlockTableRecord
  2
DIMNDRAFT3D8
  0
BLOCK_RECORD
  5
1FC
330
1
100
AcDbSymbolTableRecord
100
AcDbBlockTableRecord
  2
DIMNDRAFT3D9
  0
BLOCK_RECORD
  5
204
330
1
100
AcDbSymbolTableRecord
100
AcDbBlockTableRecord
  2
DIMNDRAFT3D10
  0
BLOCK_RECORD
  5
20D
330
1
100
AcDbSymbolTableRecord
100
AcDbBlockTableRecord
  2
DIMNDRAFT3D11
  0
BLOCK_RECORD
  5
215
330
1
100
AcDbSymbolTableRecord
100
AcDbBlockTableRecord
  2
DIMNDRAFT3D12
  0
ENDTAB
  0
ENDSEC
  0
SECTION
  2
BLOCKS
  0
BLOCK
  5
20
330
1F
100
AcDbEntity
  8
0
100
AcDbBlockBegin
  2
*MODEL_SPACE
 70
     0
 10
0.0
 20
0.0
 30
0.0
  3
*MODEL_SPACE
  1

  0
ENDBLK
  5
21
330
1F
100
AcDbEntity
  8
0
100
AcDbBlockEnd
  0
BLOCK
  5
1C
330
1B
100
AcDbEntity
 67
     1
  8
0
100
AcDbBlockBegin
  2
*PAPER_SPACE
 70
     0
 10
0.0
 20
0.0
 30
0.0
  3
*PAPER_SPACE
  1

  0
ENDBLK
  5
1D
330
1B
100
AcDbEntity
 67
     1
  8
0
100
AcDbBlockEnd
  0
BLOCK
  5
134
330
12E
100
AcDbEntity
  8
0
100
AcDbBlockBegin
  2
LABLE3D_1
 70
     0
 10
0.0
 20
0.0
 30
0.0
  3
LABLE3D_1
  1

  0
MTEXT
  5
130
330
12E
100
AcDbEntity
  8
255
  6
CONTINUOUS
 62
     3
100
AcDbMText
 10
221.02677
 20
218.270876
 30
0.0
 40
3.5
 41
0.0
 71
     7
 72
     5
  1
\W00.751;LIBRE DE MARCAS 
  7
DEFAULT
1001
ACAD
1000
MTEXTBEGIN
1070
    73
1070
     2
1070
    44
1040
0.903614
1000
MTEXTEND
1000
ACAD_MTEXT_DEFINED_HEIGHT_BEGIN
1070
    46
1040
0.2
1000
ACAD_MTEXT_DEFINED_HEIGHT_END
  0
ENDBLK
  5
135
330
12E
100
AcDbEntity
  8
0
100
AcDbBlockEnd
  0
BLOCK
  5
13B
330
137
100
AcDbEntity
  8
0
100
AcDbBlockBegin
  2
LABLE3D_2
 70
     0
 10
0.0
 20
0.0
 30
0.0
  3
LABLE3D_2
  1

  0
MTEXT
  5
139
330
137
100
AcDbEntity
  8
255
  6
CONTINUOUS
 62
     3
100
AcDbMText
 10
328.06481
 20
128.555553
 30
0.0
 40
3.5
 41
0.0
 71
     7
 72
     5
  1
\W00.751;LIBRE DE MARCAS 
  7
DEFAULT
1001
ACAD
1000
MTEXTBEGIN
1070
    73
1070
     2
1070
    44
1040
0.903614
1000
MTEXTEND
1000
ACAD_MTEXT_DEFINED_HEIGHT_BEGIN
1070
    46
1040
0.2
1000
ACAD_MTEXT_DEFINED_HEIGHT_END
  0
ENDBLK
  5
13C
330
137
100
AcDbEntity
  8
0
100
AcDbBlockEnd
  0
BLOCK
  5
141
330
13D
100
AcDbEntity
  8
0
100
AcDbBlockBegin
  2
LABLE3D_3
 70
     0
 10
0.0
 20
0.0
 30
0.0
  3
LABLE3D_3
  1

  0
MTEXT
  5
13F
330
13D
100
AcDbEntity
  8
255
  6
CONTINUOUS
 62
     3
100
AcDbMText
 10
328.296506
 20
189.866798
 30
0.0
 40
3.5
 41
0.0
 71
     7
 72
     5
  1
\W00.751;LIBRE DE MARCAS 
  7
DEFAULT
1001
ACAD
1000
MTEXTBEGIN
1070
    73
1070
     2
1070
    44
1040
0.903614
1000
MTEXTEND
1000
ACAD_MTEXT_DEFINED_HEIGHT_BEGIN
1070
    46
1040
0.2
1000
ACAD_MTEXT_DEFINED_HEIGHT_END
  0
ENDBLK
  5
142
330
13D
100
AcDbEntity
  8
0
100
AcDbBlockEnd
  0
BLOCK
  5
1B4
330
1AD
100
AcDbEntity
  8
0
100
AcDbBlockBegin
  2
DIMNDRAFT3D1
 70
     0
 10
0.0
 20
0.0
 30
0.0
  3
DIMNDRAFT3D1
  1

  0
MTEXT
  5
1AE
330
1AD
100
AcDbEntity
  8
255
  6
CONTINUOUS
 62
     3
100
AcDbMText
 10
181.345073
 20
151.787179
 30
0.0
 40
3.5
 41
0.0
 71
     7
 72
     5
  1
\W01.000;\W00.810;2,5 
  7
DEFAULT
1001
ACAD
1000
MTEXTBEGIN
1070
    73
1070
     2
1070
    44
1040
0.903614
1000
MTEXTEND
1000
ACAD_MTEXT_DEFINED_HEIGHT_BEGIN
1070
    46
1040
0.2
1000
ACAD_MTEXT_DEFINED_HEIGHT_END
  0
LINE
  5
1AF
330
1AD
100
AcDbEntity
  8
255
  6
CONTINUOUS
 62
     3
100
AcDbLine
 10
197.180053
 20
167.831956
 30
0.0
 11
197.180053
 21
149.203276
 31
0.0
  0
LINE
  5
1B0
330
1AD
100
AcDbEntity
  8
255
  6
CONTINUOUS
 62
     3
100
AcDbLine
 10
194.680053
 20
167.831956
 30
0.0
 11
194.680053
 21
149.203276
 31
0.0
  0
LINE
  5
1B1
330
1AD
100
AcDbEntity
  8
255
  6
CONTINUOUS
 62
     3
100
AcDbLine
 10
180.470073
 20
151.203276
 30
0.0
 11
205.930053
 21
151.203276
 31
0.0
  0
SOLID
  5
1B2
330
1AD
100
AcDbEntity
  8
255
  6
CONTINUOUS
 62
     3
100
AcDbTrace
 10
197.180053
 20
151.203276
 30
0.0
 11
200.68005
 21
152.141098
 31
0.0
 12
200.680057
 22
150.265454
 32
0.0
 13
197.180053
 23
151.203276
 33
0.0
  0
SOLID
  5
1B3
330
1AD
100
AcDbEntity
  8
255
  6
CONTINUOUS
 62
     3
100
AcDbTrace
 10
194.680053
 20
151.203276
 30
0.0
 11
191.180057
 21
150.265454
 31
0.0
 12
191.18005
 22
152.141098
 32
0.0
 13
194.680053
 23
151.203276
 33
0.0
  0
ENDBLK
  5
1B5
330
1AD
100
AcDbEntity
  8
0
100
AcDbBlockEnd
  0
BLOCK
  5
1BE
330
1B7
100
AcDbEntity
  8
0
100
AcDbBlockBegin
  2
DIMNDRAFT3D2
 70
     0
 10
0.0
 20
0.0
 30
0.0
  3
DIMNDRAFT3D2
  1

  0
MTEXT
  5
1B8
330
1B7
100
AcDbEntity
  8
255
  6
CONTINUOUS
 62
     3
100
AcDbMText
 10
261.222672
 20
127.459741
 30
0.0
 40
3.5
 41
0.0
 71
     7
 72
     5
  1
\W01.000;\W00.798;29,5 
  7
DEFAULT
1001
ACAD
1000
MTEXTBEGIN
1070
    73
1070
     2
1070
    44
1040
0.903614
1000
MTEXTEND
1000
ACAD_MTEXT_DEFINED_HEIGHT_BEGIN
1070
    46
1040
0.2
1000
ACAD_MTEXT_DEFINED_HEIGHT_END
  0
LINE
  5
1B9
330
1B7
100
AcDbEntity
  8
255
  6
CONTINUOUS
 62
     3
100
AcDbLine
 10
250.083802
 20
147.25065
 30
0.0
 11
250.083802
 21
124.875838
 31
0.0
  0
LINE
  5
1BA
330
1B7
100
AcDbEntity
  8
255
  6
CONTINUOUS
 62
     3
100
AcDbLine
 10
279.576305
 20
147.25065
 30
0.0
 11
279.576305
 21
124.875838
 31
0.0
  0
LINE
  5
1BB
330
1B7
100
AcDbEntity
  8
255
  6
CONTINUOUS
 62
     3
100
AcDbLine
 10
250.083802
 20
126.875838
 30
0.0
 11
279.576305
 21
126.875838
 31
0.0
  0
SOLID
  5
1BC
330
1B7
100
AcDbEntity
  8
255
  6
CONTINUOUS
 62
     3
100
AcDbTrace
 10
250.083802
 20
126.875838
 30
0.0
 11
253.583798
 21
127.81366
 31
0.0
 12
253.583805
 22
125.938016
 32
0.0
 13
250.083802
 23
126.875838
 33
0.0
  0
SOLID
  5
1BD
330
1B7
100
AcDbEntity
  8
255
  6
CONTINUOUS
 62
     3
100
AcDbTrace
 10
279.576305
 20
126.875838
 30
0.0
 11
276.076308
 21
125.938016
 31
0.0
 12
276.076301
 22
127.81366
 32
0.0
 13
279.576305
 23
126.875838
 33
0.0
  0
ENDBLK
  5
1BF
330
1B7
100
AcDbEntity
  8
0
100
AcDbBlockEnd
  0
BLOCK
  5
1C2
330
1C1
100
AcDbEntity
  8
0
100
AcDbBlockBegin
  2
DIMNDRAFT3D33
 70
     0
 10
0.0
 20
0.0
 30
0.0
  3
DIMNDRAFT3D33
  1

  0
LINE
  5
1C4
330
1C1
100
AcDbEntity
  8
255
  6
CONTINUOUS
 62
     3
100
AcDbLine
 10
169.680053
 20
238.831956
 30
0.0
 11
169.680053
 21
266.269007
 31
0.0
  0
LINE
  5
1C5
330
1C1
100
AcDbEntity
  8
255
  6
CONTINUOUS
 62
     3
100
AcDbLine
 10
197.180053
 20
235.831956
 30
0.0
 11
197.180053
 21
266.269007
 31
0.0
  0
LINE
  5
1C6
330
1C1
100
AcDbEntity
  8
255
  6
CONTINUOUS
 62
     3
100
AcDbLine
 10
169.680053
 20
264.269007
 30
0.0
 11
197.180053
 21
264.269007
 31
0.0
  0
SOLID
  5
1C7
330
1C1
100
AcDbEntity
  8
255
  6
CONTINUOUS
 62
     3
100
AcDbTrace
 10
169.680053
 20
264.269007
 30
0.0
 11
173.18005
 21
265.206829
 31
0.0
 12
173.180057
 22
263.331185
 32
0.0
 13
169.680053
 23
264.269007
 33
0.0
  0
SOLID
  5
1C8
330
1C1
100
AcDbEntity
  8
255
  6
CONTINUOUS
 62
     3
100
AcDbTrace
 10
197.180053
 20
264.269007
 30
0.0
 11
193.680057
 21
263.331185
 31
0.0
 12
193.68005
 22
265.206829
 32
0.0
 13
197.180053
 23
264.269007
 33
0.0
  0
MTEXT
  5
1C9
330
1C1
100
AcDbEntity
  8
255
  6
CONTINUOUS
 62
     3
100
AcDbMText
 10
176.299316
 20
266.38416
 30
0.0
 40
3.5
 41
0.0
 71
     7
 72
     5
  1
\W01.019;(27,5) 
  7
DEFAULT
1001
ACAD
1000
MTEXTBEGIN
1070
    73
1070
     2
1070
    44
1040
0.903614
1000
MTEXTEND
1000
ACAD_MTEXT_DEFINED_HEIGHT_BEGIN
1070
    46
1040
0.2
1000
ACAD_MTEXT_DEFINED_HEIGHT_END
  0
ENDBLK
  5
1C3
330
1C1
100
AcDbEntity
  8
0
100
AcDbBlockEnd
  0
BLOCK
  5
1CC
330
1CB
100
AcDbEntity
  8
0
100
AcDbBlockBegin
  2
DIMNDRAFT3D44
 70
     0
 10
0.0
 20
0.0
 30
0.0
  3
DIMNDRAFT3D44
  1

  0
LINE
  5
1CE
330
1CB
100
AcDbEntity
  8
255
  6
CONTINUOUS
 62
     3
100
AcDbLine
 10
277.920191
 20
165.836868
 30
0.0
 11
342.552832
 21
165.836868
 31
0.0
  0
LINE
  5
1CF
330
1CB
100
AcDbEntity
  8
255
  6
CONTINUOUS
 62
     3
100
AcDbLine
 10
279.576305
 20
147.25065
 30
0.0
 11
342.552832
 21
147.25065
 31
0.0
  0
LINE
  5
1D0
330
1CB
100
AcDbEntity
  8
255
  6
CONTINUOUS
 62
     3
100
AcDbLine
 10
340.552832
 20
165.836868
 30
0.0
 11
340.552832
 21
147.25065
 31
0.0
  0
SOLID
  5
1D1
330
1CB
100
AcDbEntity
  8
255
  6
CONTINUOUS
 62
     3
100
AcDbTrace
 10
340.552832
 20
165.836868
 30
0.0
 11
341.490654
 21
162.336872
 31
0.0
 12
339.61501
 22
162.336865
 32
0.0
 13
340.552832
 23
165.836868
 33
0.0
  0
SOLID
  5
1D2
330
1CB
100
AcDbEntity
  8
255
  6
CONTINUOUS
 62
     3
100
AcDbTrace
 10
340.552832
 20
147.25065
 30
0.0
 11
339.61501
 21
150.750647
 31
0.0
 12
341.490654
 22
150.750654
 32
0.0
 13
340.552832
 23
147.25065
 33
0.0
  0
MTEXT
  5
1D3
330
1CB
100
AcDbEntity
  8
255
  6
CONTINUOUS
 62
     3
100
AcDbMText
 10
339.968929
 20
152.913022
 30
0.0
 40
3.5
 41
0.0
 71
     7
 72
     5
  1
\W00.803;18,6 
  7
DEFAULT
 11
6.123031769111886E-17
 21
1.0
 31
0.0
1001
ACAD
1000
MTEXTBEGIN
1070
    73
1070
     2
1070
    44
1040
0.903614
1000
MTEXTEND
1000
ACAD_MTEXT_DEFINED_HEIGHT_BEGIN
1070
    46
1040
0.2
1000
ACAD_MTEXT_DEFINED_HEIGHT_END
  0
ENDBLK
  5
1CD
330
1CB
100
AcDbEntity
  8
0
100
AcDbBlockEnd
  0
BLOCK
  5
1DB
330
1D5
100
AcDbEntity
  8
0
100
AcDbBlockBegin
  2
DIMNDRAFT3D5
 70
     0
 10
0.0
 20
0.0
 30
0.0
  3
DIMNDRAFT3D5
  1

  0
MTEXT
  5
1D6
330
1D5
100
AcDbEntity
  8
255
  6
CONTINUOUS
 62
     3
100
AcDbMText
 10
242.150791
 20
185.442416
 30
0.0
 40
3.5
 41
0.0
 71
     7
 72
     5
  1
\W01.000;\W00.907;6 
  7
DEFAULT
 11
0.7954295723767409
 21
-0.6060460340506776
 31
0.0
1001
ACAD
1000
MTEXTBEGIN
1070
    73
1070
     2
1070
    44
1040
0.903614
1000
MTEXTEND
1000
ACAD_MTEXT_DEFINED_HEIGHT_BEGIN
1070
    46
1040
0.2
1000
ACAD_MTEXT_DEFINED_HEIGHT_END
  0
MTEXT
  5
1D7
330
1D5
100
AcDbEntity
  8
255
  6
CONTINUOUS
 62
     3
100
AcDbMText
 10
236.582784
 20
189.684738
 30
0.0
 40
3.5
 41
0.0
 71
     7
 72
     5
  1
\W01.000;%%c 
  7
DEFAULT
 11
0.7954295723767409
 21
-0.6060460340506776
 31
0.0
1001
ACAD
1000
MTEXTBEGIN
1070
    73
1070
     2
1070
    44
1040
0.903614
1000
MTEXTEND
1000
ACAD_MTEXT_DEFINED_HEIGHT_BEGIN
1070
    46
1040
0.2
1000
ACAD_MTEXT_DEFINED_HEIGHT_END
  0
LINE
  5
1D8
330
1D5
100
AcDbEntity
  8
255
  6
CONTINUOUS
 62
     3
100
AcDbLine
 10
235.00262
 20
189.054574
 30
0.0
 11
273.622602
 21
159.62961
 31
0.0
  0
SOLID
  5
1D9
330
1D5
100
AcDbEntity
  8
255
  6
CONTINUOUS
 62
     3
100
AcDbTrace
 10
266.662593
 20
164.932512
 30
0.0
 11
270.014958
 21
163.557325
 31
0.0
 12
268.878236
 22
162.065378
 32
0.0
 13
266.662593
 23
164.932512
 33
0.0
  0
SOLID
  5
1DA
330
1D5
100
AcDbEntity
  8
255
  6
CONTINUOUS
 62
     3
100
AcDbTrace
 10
261.890016
 20
168.568789
 30
0.0
 11
258.537652
 21
169.943976
 31
0.0
 12
259.674373
 22
171.435923
 32
0.0
 13
261.890016
 23
168.568789
 33
0.0
  0
ENDBLK
  5
1DC
330
1D5
100
AcDbEntity
  8
0
100
AcDbBlockEnd
  0
BLOCK
  5
1E5
330
1DE
100
AcDbEntity
  8
0
100
AcDbBlockBegin
  2
DIMNDRAFT3D6
 70
     0
 10
0.0
 20
0.0
 30
0.0
  3
DIMNDRAFT3D6
  1

  0
MTEXT
  5
1DF
330
1DE
100
AcDbEntity
  8
255
  6
CONTINUOUS
 62
     3
100
AcDbMText
 10
262.57576
 20
191.668727
 30
0.0
 40
3.5
 41
0.0
 71
     7
 72
     5
  1
\W01.000;\W00.810;5,3 
  7
DEFAULT
 11
0.5005015333976272
 21
-0.8657356496452159
 31
0.0
1001
ACAD
1000
MTEXTBEGIN
1070
    73
1070
     2
1070
    44
1040
0.903614
1000
MTEXTEND
1000
ACAD_MTEXT_DEFINED_HEIGHT_BEGIN
1070
    46
1040
0.2
1000
ACAD_MTEXT_DEFINED_HEIGHT_END
  0
MTEXT
  5
1E0
330
1DE
100
AcDbEntity
  8
255
  6
CONTINUOUS
 62
     3
100
AcDbMText
 10
259.07225
 20
197.728876
 30
0.0
 40
3.5
 41
0.0
 71
     7
 72
     5
  1
\W01.000;%%c 
  7
DEFAULT
 11
0.5005015333976272
 21
-0.8657356496452159
 31
0.0
1001
ACAD
1000
MTEXTBEGIN
1070
    73
1070
     2
1070
    44
1040
0.903614
1000
MTEXTEND
1000
ACAD_MTEXT_DEFINED_HEIGHT_BEGIN
1070
    46
1040
0.2
1000
ACAD_MTEXT_DEFINED_HEIGHT_END
  0
LINE
  5
1E1
330
1DE
100
AcDbEntity
  8
255
  6
CONTINUOUS
 62
     3
100
AcDbLine
 10
257.371287
 20
197.756212
 30
0.0
 11
283.022021
 21
153.387207
 31
0.0
  0
ARC
  5
1E2
330
1DE
100
AcDbEntity
  8
255
  6
CONTINUOUS
 62
     3
100
AcDbCircle
 10
277.316303
 20
163.256593
 30
0.0
 40
2.650000000000012
100
AcDbArc
 50
262.990712
 51
328.520899
  0
SOLID
  5
1E3
330
1DE
100
AcDbEntity
  8
255
  6
CONTINUOUS
 62
     3
100
AcDbTrace
 10
278.642632
 20
160.962394
 30
0.0
 11
281.206292
 21
158.401703
 31
0.0
 12
279.582483
 22
157.462935
 32
0.0
 13
278.642632
 23
160.962394
 33
0.0
  0
SOLID
  5
1E4
330
1DE
100
AcDbEntity
  8
255
  6
CONTINUOUS
 62
     3
100
AcDbTrace
 10
275.989974
 20
165.550793
 30
0.0
 11
273.426314
 21
168.111483
 31
0.0
 12
275.050123
 22
169.050252
 32
0.0
 13
275.989974
 23
165.550793
 33
0.0
  0
ENDBLK
  5
1E6
330
1DE
100
AcDbEntity
  8
0
100
AcDbBlockEnd
  0
BLOCK
  5
1EF
330
1E8
100
AcDbEntity
  8
0
100
AcDbBlockBegin
  2
DIMNDRAFT3D7
 70
     0
 10
0.0
 20
0.0
 30
0.0
  3
DIMNDRAFT3D7
  1

  0
MTEXT
  5
1E9
330
1E8
100
AcDbEntity
  8
255
  6
CONTINUOUS
 62
     3
100
AcDbMText
 10
328.263142
 20
224.01144
 30
0.0
 40
3.5
 41
0.0
 71
     7
 72
     5
  1
\W01.000;\W00.810;8,6 
  7
DEFAULT
 11
6.123031769111886E-17
 21
1.0
 31
0.0
1001
ACAD
1000
MTEXTBEGIN
1070
    73
1070
     2
1070
    44
1040
0.903614
1000
MTEXTEND
1000
ACAD_MTEXT_DEFINED_HEIGHT_BEGIN
1070
    46
1040
0.2
1000
ACAD_MTEXT_DEFINED_HEIGHT_END
  0
LINE
  5
1EA
330
1E8
100
AcDbEntity
  8
255
  6
CONTINUOUS
 62
     3
100
AcDbLine
 10
299.288364
 20
230.631956
 30
0.0
 11
330.847045
 21
230.631956
 31
0.0
  0
LINE
  5
1EB
330
1E8
100
AcDbEntity
  8
255
  6
CONTINUOUS
 62
     3
100
AcDbLine
 10
296.277305
 20
222.031956
 30
0.0
 11
330.847045
 21
222.031956
 31
0.0
  0
LINE
  5
1EC
330
1E8
100
AcDbEntity
  8
255
  6
CONTINUOUS
 62
     3
100
AcDbLine
 10
328.847045
 20
239.381956
 30
0.0
 11
328.847045
 21
213.281956
 31
0.0
  0
SOLID
  5
1ED
330
1E8
100
AcDbEntity
  8
255
  6
CONTINUOUS
 62
     3
100
AcDbTrace
 10
328.847045
 20
230.631956
 30
0.0
 11
327.909223
 21
234.131952
 31
0.0
 12
329.784867
 22
234.131959
 32
0.0
 13
328.847045
 23
230.631956
 33
0.0
  0
SOLID
  5
1EE
330
1E8
100
AcDbEntity
  8
255
  6
CONTINUOUS
 62
     3
100
AcDbTrace
 10
328.847045
 20
222.031956
 30
0.0
 11
329.784867
 21
218.531959
 31
0.0
 12
327.909223
 22
218.531952
 32
0.0
 13
328.847045
 23
222.031956
 33
0.0
  0
ENDBLK
  5
1F0
330
1E8
100
AcDbEntity
  8
0
100
AcDbBlockEnd
  0
BLOCK
  5
1F9
330
1F2
100
AcDbEntity
  8
0
100
AcDbBlockBegin
  2
DIMNDRAFT3D8
 70
     0
 10
0.0
 20
0.0
 30
0.0
  3
DIMNDRAFT3D8
  1

  0
MTEXT
  5
1F3
330
1F2
100
AcDbEntity
  8
255
  6
CONTINUOUS
 62
     3
100
AcDbMText
 10
225.023411
 20
149.618866
 30
0.0
 40
3.5
 41
0.0
 71
     7
 72
     5
  1
\W01.000;\W00.810;9,3 
  7
DEFAULT
 11
6.123031769111886E-17
 21
1.0
 31
0.0
1001
ACAD
1000
MTEXTBEGIN
1070
    73
1070
     2
1070
    44
1040
0.903614
1000
MTEXTEND
1000
ACAD_MTEXT_DEFINED_HEIGHT_BEGIN
1070
    46
1040
0.2
1000
ACAD_MTEXT_DEFINED_HEIGHT_END
  0
LINE
  5
1F4
330
1F2
100
AcDbEntity
  8
255
  6
CONTINUOUS
 62
     3
100
AcDbLine
 10
250.083802
 20
156.581402
 30
0.0
 11
223.607314
 21
156.581402
 31
0.0
  0
LINE
  5
1F5
330
1F2
100
AcDbEntity
  8
255
  6
CONTINUOUS
 62
     3
100
AcDbLine
 10
250.083802
 20
147.25065
 30
0.0
 11
223.607314
 21
147.25065
 31
0.0
  0
LINE
  5
1F6
330
1F2
100
AcDbEntity
  8
255
  6
CONTINUOUS
 62
     3
100
AcDbLine
 10
225.607314
 20
165.331402
 30
0.0
 11
225.607314
 21
138.50065
 31
0.0
  0
SOLID
  5
1F7
330
1F2
100
AcDbEntity
  8
255
  6
CONTINUOUS
 62
     3
100
AcDbTrace
 10
225.607314
 20
156.581402
 30
0.0
 11
224.669492
 21
160.081399
 31
0.0
 12
226.545136
 22
160.081406
 32
0.0
 13
225.607314
 23
156.581402
 33
0.0
  0
SOLID
  5
1F8
330
1F2
100
AcDbEntity
  8
255
  6
CONTINUOUS
 62
     3
100
AcDbTrace
 10
225.607314
 20
147.25065
 30
0.0
 11
226.545136
 21
143.750654
 31
0.0
 12
224.669492
 22
143.750647
 32
0.0
 13
225.607314
 23
147.25065
 33
0.0
  0
ENDBLK
  5
1FA
330
1F2
100
AcDbEntity
  8
0
100
AcDbBlockEnd
  0
BLOCK
  5
201
330
1FC
100
AcDbEntity
  8
0
100
AcDbBlockBegin
  2
DIMNDRAFT3D9
 70
     0
 10
0.0
 20
0.0
 30
0.0
  3
DIMNDRAFT3D9
  1

  0
MTEXT
  5
1FD
330
1FC
100
AcDbEntity
  8
255
  6
CONTINUOUS
 62
     3
100
AcDbMText
 10
300.777273
 20
141.737637
 30
0.0
 40
3.5
 41
0.0
 71
     7
 72
     5
  1
\W01.000;\W00.842;10 
  7
DEFAULT
 11
0.4923557546463846
 21
-0.8703940549352284
 31
0.0
1001
ACAD
1000
MTEXTBEGIN
1070
    73
1070
     2
1070
    44
1040
0.903614
1000
MTEXTEND
1000
ACAD_MTEXT_DEFINED_HEIGHT_BEGIN
1070
    46
1040
0.2
1000
ACAD_MTEXT_DEFINED_HEIGHT_END
  0
MTEXT
  5
1FE
330
1FC
100
AcDbEntity
  8
255
  6
CONTINUOUS
 62
     3
100
AcDbMText
 10
299.467169
 20
144.053659
 30
0.0
 40
3.5
 41
0.0
 71
     7
 72
     5
  1
\W01.000;\W00.875;R 
  7
DEFAULT
 11
0.4923557546463846
 21
-0.8703940549352284
 31
0.0
1001
ACAD
1000
MTEXTBEGIN
1070
    73
1070
     2
1070
    44
1040
0.903614
1000
MTEXTEND
1000
ACAD_MTEXT_DEFINED_HEIGHT_BEGIN
1070
    46
1040
0.2
1000
ACAD_MTEXT_DEFINED_HEIGHT_END
  0
LINE
  5
1FF
330
1FC
100
AcDbEntity
  8
255
  6
CONTINUOUS
 62
     3
100
AcDbLine
 10
294.557727
 20
151.54671
 30
0.0
 11
302.418616
 21
137.650108
 31
0.0
  0
SOLID
  5
200
330
1FC
100
AcDbEntity
  8
255
  6
CONTINUOUS
 62
     3
100
AcDbTrace
 10
294.557727
 20
151.54671
 30
0.0
 11
297.097245
 21
148.962076
 31
0.0
 12
295.464699
 22
148.038586
 32
0.0
 13
294.557727
 23
151.54671
 33
0.0
  0
ENDBLK
  5
202
330
1FC
100
AcDbEntity
  8
0
100
AcDbBlockEnd
  0
BLOCK
  5
20A
330
204
100
AcDbEntity
  8
0
100
AcDbBlockBegin
  2
DIMNDRAFT3D10
 70
     0
 10
0.0
 20
0.0
 30
0.0
  3
DIMNDRAFT3D10
  1

  0
MTEXT
  5
205
330
204
100
AcDbEntity
  8
255
  6
CONTINUOUS
 62
     3
100
AcDbMText
 10
317.632035
 20
156.23641
 30
0.0
 40
3.5
 41
0.0
 71
     7
 72
     5
  1
\W01.000;\W00.842;10 
  7
DEFAULT
 11
0.8053056058785539
 21
-0.5928599169623252
 31
0.0
1001
ACAD
1000
MTEXTBEGIN
1070
    73
1070
     2
1070
    44
1040
0.903614
1000
MTEXTEND
1000
ACAD_MTEXT_DEFINED_HEIGHT_BEGIN
1070
    46
1040
0.2
1000
ACAD_MTEXT_DEFINED_HEIGHT_END
  0
MTEXT
  5
206
330
204
100
AcDbEntity
  8
255
  6
CONTINUOUS
 62
     3
100
AcDbMText
 10
315.489206
 20
157.813944
 30
0.0
 40
3.5
 41
0.0
 71
     7
 72
     5
  1
\W01.000;\W00.875;R 
  7
DEFAULT
 11
0.8053056058785539
 21
-0.5928599169623252
 31
0.0
1001
ACAD
1000
MTEXTBEGIN
1070
    73
1070
     2
1070
    44
1040
0.903614
1000
MTEXTEND
1000
ACAD_MTEXT_DEFINED_HEIGHT_BEGIN
1070
    46
1040
0.2
1000
ACAD_MTEXT_DEFINED_HEIGHT_END
  0
LINE
  5
207
330
204
100
AcDbEntity
  8
255
  6
CONTINUOUS
 62
     3
100
AcDbLine
 10
306.829361
 20
163.464187
 30
0.0
 11
320.801734
 21
153.177831
 31
0.0
  0
ARC
  5
208
330
204
100
AcDbEntity
  8
255
  6
CONTINUOUS
 62
     3
100
AcDbCircle
 10
298.776305
 20
169.392786
 30
0.0
 40
10.0
100
AcDbArc
 50
312.329847
 51
315.0
  0
SOLID
  5
209
330
204
100
AcDbEntity
  8
255
  6
CONTINUOUS
 62
     3
100
AcDbTrace
 10
306.829361
 20
163.464187
 30
0.0
 11
310.203925
 21
162.144413
 31
0.0
 12
309.091936
 22
160.633942
 32
0.0
 13
306.829361
 23
163.464187
 33
0.0
  0
ENDBLK
  5
20B
330
204
100
AcDbEntity
  8
0
100
AcDbBlockEnd
  0
BLOCK
  5
212
330
20D
100
AcDbEntity
  8
0
100
AcDbBlockBegin
  2
DIMNDRAFT3D11
 70
     0
 10
0.0
 20
0.0
 30
0.0
  3
DIMNDRAFT3D11
  1

  0
MTEXT
  5
20E
330
20D
100
AcDbEntity
  8
255
  6
CONTINUOUS
 62
     3
100
AcDbMText
 10
312.908087
 20
248.959376
 30
0.0
 40
3.5
 41
0.0
 71
     7
 72
     5
  1
\W01.000;\W00.803;12,5 
  7
DEFAULT
 11
0.6088767863465715
 21
0.7932648101663602
 31
0.0
1001
ACAD
1000
MTEXTBEGIN
1070
    73
1070
     2
1070
    44
1040
0.903614
1000
MTEXTEND
1000
ACAD_MTEXT_DEFINED_HEIGHT_BEGIN
1070
    46
1040
0.2
1000
ACAD_MTEXT_DEFINED_HEIGHT_END
  0
MTEXT
  5
20F
330
20D
100
AcDbEntity
  8
255
  6
CONTINUOUS
 62
     3
100
AcDbMText
 10
311.287934
 20
246.848587
 30
0.0
 40
3.5
 41
0.0
 71
     7
 72
     5
  1
\W01.000;\W00.875;R 
  7
DEFAULT
 11
0.6088767863465715
 21
0.7932648101663602
 31
0.0
1001
ACAD
1000
MTEXTBEGIN
1070
    73
1070
     2
1070
    44
1040
0.903614
1000
MTEXTEND
1000
ACAD_MTEXT_DEFINED_HEIGHT_BEGIN
1070
    46
1040
0.2
1000
ACAD_MTEXT_DEFINED_HEIGHT_END
  0
LINE
  5
210
330
20D
100
AcDbEntity
  8
255
  6
CONTINUOUS
 62
     3
100
AcDbLine
 10
303.887264
 20
236.247766
 30
0.0
 11
318.325388
 21
255.05823
 31
0.0
  0
SOLID
  5
211
330
20D
100
AcDbEntity
  8
255
  6
CONTINUOUS
 62
     3
100
AcDbTrace
 10
303.887264
 20
236.247766
 30
0.0
 11
305.27439
 21
239.595208
 31
0.0
 12
306.762277
 22
238.453177
 32
0.0
 13
303.887264
 23
236.247766
 33
0.0
  0
ENDBLK
  5
213
330
20D
100
AcDbEntity
  8
0
100
AcDbBlockEnd
  0
BLOCK
  5
21D
330
215
100
AcDbEntity
  8
0
100
AcDbBlockBegin
  2
DIMNDRAFT3D12
 70
     0
 10
0.0
 20
0.0
 30
0.0
  3
DIMNDRAFT3D12
  1

  0
MTEXT
  5
216
330
215
100
AcDbEntity
  8
255
  6
CONTINUOUS
 62
     3
100
AcDbMText
 10
272.938145
 20
250.110075
 30
0.0
 40
3.5
 41
0.0
 71
     7
 72
     5
  1
\W01.000;\W00.803;10,5 
  7
DEFAULT
1001
ACAD
1000
MTEXTBEGIN
1070
    73
1070
     2
1070
    44
1040
0.903614
1000
MTEXTEND
1000
ACAD_MTEXT_DEFINED_HEIGHT_BEGIN
1070
    46
1040
0.2
1000
ACAD_MTEXT_DEFINED_HEIGHT_END
  0
MTEXT
  5
217
330
215
100
AcDbEntity
  8
255
  6
CONTINUOUS
 62
     3
100
AcDbMText
 10
265.938145
 20
250.110075
 30
0.0
 40
3.5
 41
0.0
 71
     7
 72
     5
  1
\W01.000;%%c 
  7
DEFAULT
1001
ACAD
1000
MTEXTBEGIN
1070
    73
1070
     2
1070
    44
1040
0.903614
1000
MTEXTEND
1000
ACAD_MTEXT_DEFINED_HEIGHT_BEGIN
1070
    46
1040
0.2
1000
ACAD_MTEXT_DEFINED_HEIGHT_END
  0
LINE
  5
218
330
215
100
AcDbEntity
  8
255
  6
CONTINUOUS
 62
     3
100
AcDbLine
 10
291.026305
 20
226.331956
 30
0.0
 11
291.026305
 21
250.651172
 31
0.0
  0
LINE
  5
219
330
215
100
AcDbEntity
  8
255
  6
CONTINUOUS
 62
     3
100
AcDbLine
 10
301.526305
 20
226.331956
 30
0.0
 11
301.526305
 21
250.651172
 31
0.0
  0
LINE
  5
21A
330
215
100
AcDbEntity
  8
255
  6
CONTINUOUS
 62
     3
100
AcDbLine
 10
301.526305
 20
248.651172
 30
0.0
 11
265.063145
 21
248.651172
 31
0.0
  0
SOLID
  5
21B
330
215
100
AcDbEntity
  8
255
  6
CONTINUOUS
 62
     3
100
AcDbTrace
 10
291.026305
 20
248.651172
 30
0.0
 11
294.526301
 21
249.588994
 31
0.0
 12
294.526308
 22
247.71335
 32
0.0
 13
291.026305
 23
248.651172
 33
0.0
  0
SOLID
  5
21C
330
215
100
AcDbEntity
  8
255
  6
CONTINUOUS
 62
     3
100
AcDbTrace
 10
301.526305
 20
248.651172
 30
0.0
 11
298.026308
 21
247.71335
 31
0.0
 12
298.026301
 22
249.588994
 32
0.0
 13
301.526305
 23
248.651172
 33
0.0
  0
ENDBLK
  5
21E
330
215
100
AcDbEntity
  8
0
100
AcDbBlockEnd
  0
ENDSEC
  0
SECTION
  2
ENTITIES
  0
POINT
  5
45
330
1F
100
AcDbEntity
  8
255
  6
CONTINUOUS
 62
   172
 60
     1
100
AcDbPoint
 10
277.920191
 20
165.836868
 30
0.0
  0
POINT
  5
47
330
1F
100
AcDbEntity
  8
255
  6
CONTINUOUS
 62
   172
 60
     1
100
AcDbPoint
 10
291.026305
 20
226.331956
 30
0.0
  0
POINT
  5
48
330
1F
100
AcDbEntity
  8
255
  6
CONTINUOUS
 62
   172
 60
     1
100
AcDbPoint
 10
301.526305
 20
226.331956
 30
0.0
  0
LINE
  5
49
330
1F
100
AcDbEntity
  8
1
  6
CONTINUOUS
 62
     2
100
AcDbLine
 10
74.518825
 20
170.831956
 30
0.0
 11
104.011328
 21
170.831956
 31
0.0
  0
LINE
  5
4B
330
1F
100
AcDbEntity
  8
1
  6
CONTINUOUS
 62
     2
100
AcDbLine
 10
133.211328
 20
235.831956
 30
0.0
 11
108.211328
 21
235.831956
 31
0.0
  0
LINE
  5
4C
330
1F
100
AcDbEntity
  8
1
  6
CONTINUOUS
 62
     2
100
AcDbLine
 10
85.482021
 20
201.131956
 30
0.0
 11
101.511328
 21
201.131956
 31
0.0
  0
LINE
  5
4D
330
1F
100
AcDbEntity
  8
1
  6
CONTINUOUS
 62
     2
100
AcDbLine
 10
78.711328
 20
194.456956
 30
0.0
 11
85.482021
 21
201.131956
 31
0.0
  0
LINE
  5
4E
330
1F
100
AcDbEntity
  8
1
  6
CONTINUOUS
 62
     2
100
AcDbLine
 10
78.711328
 20
191.831956
 30
0.0
 11
71.711328
 21
184.831956
 31
0.0
  0
LINE
  5
4F
330
1F
100
AcDbEntity
  8
1
  6
CONTINUOUS
 62
     2
100
AcDbLine
 10
71.711328
 20
167.831956
 30
0.0
 11
71.711328
 21
184.831956
 31
0.0
  0
LINE
  5
50
330
1F
100
AcDbEntity
  8
1
  6
CONTINUOUS
 62
     2
100
AcDbLine
 10
133.211328
 20
238.831956
 30
0.0
 11
133.211328
 21
235.831956
 31
0.0
  0
LINE
  5
51
330
1F
100
AcDbEntity
  8
1
  6
CONTINUOUS
 62
     2
100
AcDbLine
 10
108.211328
 20
238.831956
 30
0.0
 11
133.211328
 21
238.831956
 31
0.0
  0
LINE
  5
52
330
1F
100
AcDbEntity
  8
1
  6
CONTINUOUS
 62
     2
100
AcDbLine
 10
74.518825
 20
180.162707
 30
0.0
 11
74.518825
 21
170.831956
 31
0.0
  0
LINE
  5
53
330
1F
100
AcDbEntity
  8
1
  6
CONTINUOUS
 62
     2
100
AcDbLine
 10
78.711328
 20
191.831956
 30
0.0
 11
78.711328
 21
194.456956
 31
0.0
  0
LINE
  5
54
330
1F
100
AcDbEntity
  8
1
  6
CONTINUOUS
 62
     2
100
AcDbLine
 10
104.011328
 20
170.831956
 30
0.0
 11
104.011328
 21
185.454102
 31
0.0
  0
LINE
  5
55
330
1F
100
AcDbEntity
  8
1
  6
CONTINUOUS
 62
     2
100
AcDbLine
 10
99.111959
 20
186.600751
 30
0.0
 11
92.58162
 21
180.162707
 31
0.0
  0
LINE
  5
56
330
1F
100
AcDbEntity
  8
1
  6
CONTINUOUS
 62
     2
100
AcDbLine
 10
101.511328
 20
201.131956
 30
0.0
 11
108.211328
 21
207.831956
 31
0.0
  0
LINE
  5
57
330
1F
100
AcDbEntity
  8
1
  6
CONTINUOUS
 62
     2
100
AcDbLine
 10
108.211328
 20
235.831956
 30
0.0
 11
108.211328
 21
207.831956
 31
0.0
  0
LINE
  5
58
330
1F
100
AcDbEntity
  8
1
  6
CONTINUOUS
 62
     2
100
AcDbLine
 10
133.211328
 20
192.974091
 30
0.0
 11
133.211328
 21
235.831956
 31
0.0
  0
LINE
  5
59
330
1F
100
AcDbEntity
  8
1
  6
CONTINUOUS
 62
     2
100
AcDbLine
 10
121.14026
 20
176.760888
 30
0.0
 11
130.282396
 21
185.903023
 31
0.0
  0
LINE
  5
5A
330
1F
100
AcDbEntity
  8
1
  6
CONTINUOUS
 62
     2
100
AcDbLine
 10
107.13249
 20
173.831956
 30
0.0
 11
114.069193
 21
173.831956
 31
0.0
  0
LINE
  5
5B
330
1F
100
AcDbEntity
  8
1
  6
CONTINUOUS
 62
     2
100
AcDbLine
 10
107.13249
 20
173.831956
 30
0.0
 11
107.13249
 21
167.831956
 31
0.0
  0
LINE
  5
5C
330
1F
100
AcDbEntity
  8
1
  6
CONTINUOUS
 62
     2
100
AcDbLine
 10
107.13249
 20
167.831956
 30
0.0
 11
71.711328
 21
167.831956
 31
0.0
  0
LINE
  5
5D
330
1F
100
AcDbEntity
  8
1
  6
CONTINUOUS
 62
     2
100
AcDbLine
 10
92.58162
 20
180.162707
 30
0.0
 11
74.518825
 21
180.162707
 31
0.0
  0
LINE
  5
5E
330
1F
100
AcDbEntity
  8
1
  6
CONTINUOUS
 62
     2
100
AcDbLine
 10
108.211328
 20
238.831956
 30
0.0
 11
108.211328
 21
235.831956
 31
0.0
  0
LINE
  5
5F
330
1F
100
AcDbEntity
  8
1
  6
CONTINUOUS
 62
     2
100
AcDbLine
 10
169.680053
 20
238.831956
 30
0.0
 11
169.680053
 21
236.331956
 31
0.0
  0
LINE
  5
60
330
1F
100
AcDbEntity
  8
1
  6
CONTINUOUS
 62
     2
100
AcDbLine
 10
197.180053
 20
194.456956
 30
0.0
 11
197.180053
 21
201.131956
 31
0.0
  0
LINE
  5
61
330
1F
100
AcDbEntity
  8
1
  6
CONTINUOUS
 62
     2
100
AcDbLine
 10
197.180053
 20
191.831956
 30
0.0
 11
197.180053
 21
184.831956
 31
0.0
  0
LINE
  5
62
330
1F
100
AcDbEntity
  8
1
  6
CONTINUOUS
 62
     2
100
AcDbLine
 10
197.180053
 20
167.831956
 30
0.0
 11
197.180053
 21
184.831956
 31
0.0
  0
LINE
  5
63
330
1F
100
AcDbEntity
  8
1
  6
CONTINUOUS
 62
     2
100
AcDbLine
 10
197.180053
 20
191.831956
 30
0.0
 11
197.180053
 21
194.456956
 31
0.0
  0
LINE
  5
64
330
1F
100
AcDbEntity
  8
1
  6
CONTINUOUS
 62
     2
100
AcDbLine
 10
197.180053
 20
201.131956
 30
0.0
 11
197.180053
 21
207.831956
 31
0.0
  0
LINE
  5
65
330
1F
100
AcDbEntity
  8
1
  6
CONTINUOUS
 62
     2
100
AcDbLine
 10
197.180053
 20
235.831956
 30
0.0
 11
197.180053
 21
207.831956
 31
0.0
  0
LINE
  5
66
330
1F
100
AcDbEntity
  8
1
  6
CONTINUOUS
 62
     2
100
AcDbLine
 10
197.180053
 20
207.831956
 30
0.0
 11
194.680053
 21
207.831956
 31
0.0
  0
LINE
  5
67
330
1F
100
AcDbEntity
  8
1
  6
CONTINUOUS
 62
     2
100
AcDbLine
 10
194.180053
 20
236.331956
 30
0.0
 11
182.180053
 21
236.331956
 31
0.0
  0
LINE
  5
68
330
1F
100
AcDbEntity
  8
1
  6
CONTINUOUS
 62
     2
100
AcDbLine
 10
194.180053
 20
238.831956
 30
0.0
 11
182.180053
 21
238.831956
 31
0.0
  0
LINE
  5
69
330
1F
100
AcDbEntity
  8
1
  6
CONTINUOUS
 62
     2
100
AcDbLine
 10
194.680053
 20
201.131956
 30
0.0
 11
194.680053
 21
207.831956
 31
0.0
  0
LINE
  5
6A
330
1F
100
AcDbEntity
  8
1
  6
CONTINUOUS
 62
     2
100
AcDbLine
 10
194.680053
 20
207.831956
 30
0.0
 11
194.680053
 21
235.831956
 31
0.0
  0
LINE
  5
6B
330
1F
100
AcDbEntity
  8
1
  6
CONTINUOUS
 62
     2
100
AcDbLine
 10
194.680053
 20
191.831956
 30
0.0
 11
197.180053
 21
191.831956
 31
0.0
  0
LINE
  5
6C
330
1F
100
AcDbEntity
  8
1
  6
CONTINUOUS
 62
     2
100
AcDbLine
 10
197.180053
 20
184.831956
 30
0.0
 11
194.680053
 21
184.831956
 31
0.0
  0
LINE
  5
6D
330
1F
100
AcDbEntity
  8
1
  6
CONTINUOUS
 62
     2
100
AcDbLine
 10
194.680053
 20
201.131956
 30
0.0
 11
197.180053
 21
201.131956
 31
0.0
  0
LINE
  5
6E
330
1F
100
AcDbEntity
  8
1
  6
CONTINUOUS
 62
     2
100
AcDbLine
 10
194.680053
 20
194.456956
 30
0.0
 11
197.180053
 21
194.456956
 31
0.0
  0
LINE
  5
6F
330
1F
100
AcDbEntity
  8
1
  6
CONTINUOUS
 62
     2
100
AcDbLine
 10
194.680053
 20
201.131956
 30
0.0
 11
194.680053
 21
194.456956
 31
0.0
  0
LINE
  5
70
330
1F
100
AcDbEntity
  8
1
  6
CONTINUOUS
 62
     2
100
AcDbLine
 10
194.680053
 20
167.831956
 30
0.0
 11
194.680053
 21
184.831956
 31
0.0
  0
LINE
  5
71
330
1F
100
AcDbEntity
  8
1
  6
CONTINUOUS
 62
     2
100
AcDbLine
 10
194.680053
 20
194.456956
 30
0.0
 11
194.680053
 21
191.831956
 31
0.0
  0
LINE
  5
72
330
1F
100
AcDbEntity
  8
1
  6
CONTINUOUS
 62
     2
100
AcDbLine
 10
194.680053
 20
184.831956
 30
0.0
 11
194.680053
 21
191.831956
 31
0.0
  0
LINE
  5
73
330
1F
100
AcDbEntity
  8
1
  6
CONTINUOUS
 62
     2
100
AcDbLine
 10
182.180053
 20
238.831956
 30
0.0
 11
169.680053
 21
238.831956
 31
0.0
  0
LINE
  5
74
330
1F
100
AcDbEntity
  8
1
  6
CONTINUOUS
 62
     2
100
AcDbLine
 10
182.180053
 20
236.331956
 30
0.0
 11
169.680053
 21
236.331956
 31
0.0
  0
LINE
  5
75
330
1F
100
AcDbEntity
  8
1
  6
CONTINUOUS
 62
     2
100
AcDbLine
 10
182.180053
 20
238.831956
 30
0.0
 11
182.180053
 21
236.331956
 31
0.0
  0
LINE
  5
76
330
1F
100
AcDbEntity
  8
1
  6
CONTINUOUS
 62
     2
100
AcDbLine
 10
194.680053
 20
167.831956
 30
0.0
 11
197.180053
 21
167.831956
 31
0.0
  0
LINE
  5
77
330
1F
100
AcDbEntity
  8
1
  6
CONTINUOUS
 62
     2
100
AcDbLine
 10
111.090924
 20
47.483936
 30
0.0
 11
112.892722
 21
46.743541
 31
0.0
  0
LINE
  5
78
330
1F
100
AcDbEntity
  8
1
  6
CONTINUOUS
 62
     2
100
AcDbLine
 10
87.239564
 20
106.752447
 30
0.0
 11
87.30996
 21
104.525207
 31
0.0
  0
LINE
  5
79
330
1F
100
AcDbEntity
  8
1
  6
CONTINUOUS
 62
     2
100
AcDbLine
 10
140.885153
 20
77.635221
 30
0.0
 11
136.007441
 21
81.250292
 31
0.0
  0
LINE
  5
7A
330
1F
100
AcDbEntity
  8
1
  6
CONTINUOUS
 62
     2
100
AcDbLine
 10
140.959069
 20
75.296619
 30
0.0
 11
146.004762
 21
71.470975
 31
0.0
  0
LINE
  5
7B
330
1F
100
AcDbEntity
  8
1
  6
CONTINUOUS
 62
     2
100
AcDbLine
 10
146.483458
 20
56.325742
 30
0.0
 11
146.004762
 21
71.470975
 31
0.0
  0
LINE
  5
7C
330
1F
100
AcDbEntity
  8
1
  6
CONTINUOUS
 62
     2
100
AcDbLine
 10
140.959069
 20
75.296619
 30
0.0
 11
140.885153
 21
77.635221
 31
0.0
  0
LINE
  5
7D
330
1F
100
AcDbEntity
  8
1
  6
CONTINUOUS
 62
     2
100
AcDbLine
 10
123.975311
 20
49.486152
 30
0.0
 11
123.614493
 21
60.901914
 31
0.0
  0
LINE
  5
7E
330
1F
100
AcDbEntity
  8
1
  6
CONTINUOUS
 62
     2
100
AcDbLine
 10
123.601241
 20
76.718446
 30
0.0
 11
120.075215
 21
79.391879
 31
0.0
  0
LINE
  5
7F
330
1F
100
AcDbEntity
  8
1
  6
CONTINUOUS
 62
     2
100
AcDbLine
 10
119.286776
 20
104.336969
 30
0.0
 11
120.075215
 21
79.391879
 31
0.0
  0
LINE
  5
80
330
1F
100
AcDbEntity
  8
1
  6
CONTINUOUS
 62
     2
100
AcDbLine
 10
120.028915
 20
48.602396
 30
0.0
 11
116.975127
 21
47.084108
 31
0.0
  0
LINE
  5
81
330
1F
100
AcDbEntity
  8
1
  6
CONTINUOUS
 62
     2
100
AcDbLine
 10
121.948819
 20
44.127562
 30
0.0
 11
146.483458
 21
56.325742
 31
0.0
  0
LINE
  5
82
330
1F
100
AcDbEntity
  8
1
  6
CONTINUOUS
 62
     2
100
AcDbLine
 10
131.680333
 20
60.123943
 30
0.0
 11
142.440622
 21
65.473765
 31
0.0
  0
LINE
  5
83
330
1F
100
AcDbEntity
  8
1
  6
CONTINUOUS
 62
     2
100
AcDbLine
 10
120.075215
 20
79.391879
 30
0.0
 11
118.273417
 21
80.132275
 31
0.0
  0
LINE
  5
84
330
1F
100
AcDbEntity
  8
1
  6
CONTINUOUS
 62
     2
100
AcDbLine
 10
91.145536
 20
100.615404
 30
0.0
 11
99.794168
 21
97.061504
 31
0.0
  0
LINE
  5
85
330
1F
100
AcDbEntity
  8
1
  6
CONTINUOUS
 62
     2
100
AcDbLine
 10
117.110539
 20
105.670892
 30
0.0
 11
108.461906
 21
109.224791
 31
0.0
  0
LINE
  5
86
330
1F
100
AcDbEntity
  8
1
  6
CONTINUOUS
 62
     2
100
AcDbLine
 10
117.040142
 20
107.898132
 30
0.0
 11
108.39151
 21
111.452031
 31
0.0
  0
LINE
  5
87
330
1F
100
AcDbEntity
  8
1
  6
CONTINUOUS
 62
     2
100
AcDbLine
 10
104.989131
 20
104.683896
 30
0.0
 11
104.963865
 21
105.483301
 31
0.0
  0
LINE
  5
88
330
1F
100
AcDbEntity
  8
1
  6
CONTINUOUS
 62
     2
100
AcDbLine
 10
98.790945
 20
107.230857
 30
0.0
 11
94.61831
 21
105.156299
 31
0.0
  0
LINE
  5
89
330
1F
100
AcDbEntity
  8
1
  6
CONTINUOUS
 62
     2
100
AcDbLine
 10
100.816497
 20
102.609337
 30
0.0
 11
100.746101
 21
104.836578
 31
0.0
  0
LINE
  5
8A
330
1F
100
AcDbEntity
  8
1
  6
CONTINUOUS
 62
     2
100
AcDbLine
 10
104.000821
 20
106.454766
 30
0.0
 11
100.746101
 21
104.836578
 31
0.0
  0
LINE
  5
8B
330
1F
100
AcDbEntity
  8
1
  6
CONTINUOUS
 62
     2
100
AcDbLine
 10
100.168607
 20
96.467977
 30
0.0
 11
101.375422
 21
58.286075
 31
0.0
  0
LINE
  5
8C
330
1F
100
AcDbEntity
  8
1
  6
CONTINUOUS
 62
     2
100
AcDbLine
 10
119.97807
 20
50.213334
 30
0.0
 11
115.173329
 21
47.824504
 31
0.0
  0
LINE
  5
8D
330
1F
100
AcDbEntity
  8
1
  6
CONTINUOUS
 62
     2
100
AcDbLine
 10
100.816497
 20
102.609337
 30
0.0
 11
104.989131
 21
104.683896
 31
0.0
  0
LINE
  5
8E
330
1F
100
AcDbEntity
  8
1
  6
CONTINUOUS
 62
     2
100
AcDbLine
 10
123.102866
 20
76.470587
 30
0.0
 11
118.273417
 21
80.132275
 31
0.0
  0
LINE
  5
8F
330
1F
100
AcDbEntity
  8
1
  6
CONTINUOUS
 62
     2
100
AcDbLine
 10
118.273417
 20
80.132275
 30
0.0
 11
117.484977
 21
105.077364
 31
0.0
  0
LINE
  5
90
330
1F
100
AcDbEntity
  8
1
  6
CONTINUOUS
 62
     2
100
AcDbLine
 10
117.110539
 20
105.670892
 30
0.0
 11
99.794168
 21
97.061504
 31
0.0
  0
LINE
  5
91
330
1F
100
AcDbEntity
  8
1
  6
CONTINUOUS
 62
     2
100
AcDbLine
 10
100.168607
 20
96.467977
 30
0.0
 11
117.484977
 21
105.077364
 31
0.0
  0
LINE
  5
92
330
1F
100
AcDbEntity
  8
1
  6
CONTINUOUS
 62
     2
100
AcDbLine
 10
139.15727
 20
76.037015
 30
0.0
 11
140.959069
 21
75.296619
 31
0.0
  0
LINE
  5
93
330
1F
100
AcDbEntity
  8
1
  6
CONTINUOUS
 62
     2
100
AcDbLine
 10
121.812695
 20
61.64231
 30
0.0
 11
123.614493
 21
60.901914
 31
0.0
  0
LINE
  5
94
330
1F
100
AcDbEntity
  8
1
  6
CONTINUOUS
 62
     2
100
AcDbLine
 10
129.878535
 20
60.864339
 30
0.0
 11
131.680333
 21
60.123943
 31
0.0
  0
LINE
  5
95
330
1F
100
AcDbEntity
  8
1
  6
CONTINUOUS
 62
     2
100
AcDbLine
 10
115.173329
 20
47.824504
 30
0.0
 11
116.975127
 21
47.084108
 31
0.0
  0
LINE
  5
96
330
1F
100
AcDbEntity
  8
1
  6
CONTINUOUS
 62
     2
100
AcDbLine
 10
146.004762
 20
71.470975
 30
0.0
 11
144.202964
 21
72.211371
 31
0.0
  0
LINE
  5
97
330
1F
100
AcDbEntity
  8
1
  6
CONTINUOUS
 62
     2
100
AcDbLine
 10
134.205643
 20
81.990688
 30
0.0
 11
136.007441
 21
81.250292
 31
0.0
  0
LINE
  5
98
330
1F
100
AcDbEntity
  8
1
  6
CONTINUOUS
 62
     2
100
AcDbLine
 10
139.083354
 20
78.375617
 30
0.0
 11
140.885153
 21
77.635221
 31
0.0
  0
LINE
  5
99
330
1F
100
AcDbEntity
  8
1
  6
CONTINUOUS
 62
     2
100
AcDbLine
 10
120.147021
 20
44.867958
 30
0.0
 11
121.948819
 21
44.127562
 31
0.0
  0
LINE
  5
9A
330
1F
100
AcDbEntity
  8
1
  6
CONTINUOUS
 62
     2
100
AcDbLine
 10
120.147021
 20
44.867958
 30
0.0
 11
144.681659
 21
57.066138
 31
0.0
  0
LINE
  5
9B
330
1F
100
AcDbEntity
  8
1
  6
CONTINUOUS
 62
     2
100
AcDbLine
 10
134.205643
 20
81.990688
 30
0.0
 11
139.083354
 21
78.375617
 31
0.0
  0
LINE
  5
9C
330
1F
100
AcDbEntity
  8
1
  6
CONTINUOUS
 62
     2
100
AcDbLine
 10
144.681659
 20
57.066138
 30
0.0
 11
144.202964
 21
72.211371
 31
0.0
  0
LINE
  5
9D
330
1F
100
AcDbEntity
  8
1
  6
CONTINUOUS
 62
     2
100
AcDbLine
 10
142.652557
 20
58.771993
 30
0.0
 11
122.224433
 21
48.615498
 31
0.0
  0
LINE
  5
9E
330
1F
100
AcDbEntity
  8
1
  6
CONTINUOUS
 62
     2
100
AcDbLine
 10
123.102866
 20
76.470587
 30
0.0
 11
134.205643
 21
81.990688
 31
0.0
  0
LINE
  5
9F
330
1F
100
AcDbEntity
  8
1
  6
CONTINUOUS
 62
     2
100
AcDbLine
 10
103.603272
 20
52.995141
 30
0.0
 11
110.193045
 21
47.998776
 31
0.0
  0
LINE
  5
A0
330
1F
100
AcDbEntity
  8
1
  6
CONTINUOUS
 62
     2
100
AcDbLine
 10
119.97807
 20
50.213334
 30
0.0
 11
120.147021
 21
44.867958
 31
0.0
  0
LINE
  5
A1
330
1F
100
AcDbEntity
  8
1
  6
CONTINUOUS
 62
     2
100
AcDbLine
 10
142.389817
 20
67.084723
 30
0.0
 11
129.878535
 21
60.864339
 31
0.0
  0
LINE
  5
A2
330
1F
100
AcDbEntity
  8
1
  6
CONTINUOUS
 62
     2
100
AcDbLine
 10
129.878535
 20
60.864339
 30
0.0
 11
125.173978
 21
64.351078
 31
0.0
  0
LINE
  5
A3
330
1F
100
AcDbEntity
  8
1
  6
CONTINUOUS
 62
     2
100
AcDbLine
 10
139.083354
 20
78.375617
 30
0.0
 11
139.15727
 21
76.037015
 31
0.0
  0
LINE
  5
A4
330
1F
100
AcDbEntity
  8
1
  6
CONTINUOUS
 62
     2
100
AcDbLine
 10
144.202964
 20
72.211371
 30
0.0
 11
139.15727
 21
76.037015
 31
0.0
  0
LINE
  5
A5
330
1F
100
AcDbEntity
  8
1
  6
CONTINUOUS
 62
     2
100
AcDbLine
 10
121.812695
 20
61.64231
 30
0.0
 11
122.224433
 21
48.615498
 31
0.0
  0
LINE
  5
A6
330
1F
100
AcDbEntity
  8
1
  6
CONTINUOUS
 62
     2
100
AcDbLine
 10
108.39151
 20
111.452031
 30
0.0
 11
108.461906
 21
109.224791
 31
0.0
  0
LINE
  5
A7
330
1F
100
AcDbEntity
  8
1
  6
CONTINUOUS
 62
     2
100
AcDbLine
 10
144.681659
 20
57.066138
 30
0.0
 11
146.483458
 21
56.325742
 31
0.0
  0
LINE
  5
A8
330
1F
100
AcDbEntity
  8
1
  6
CONTINUOUS
 62
     2
100
AcDbLine
 10
142.652557
 20
58.771993
 30
0.0
 11
142.389817
 21
67.084723
 31
0.0
  0
LINE
  5
A9
330
1F
100
AcDbEntity
  8
255
  6
CONTINUOUS
 62
   163
100
AcDbLine
 10
308.776305
 20
226.331956
 30
0.0
 11
308.776305
 21
169.392786
 31
0.0
  0
LINE
  5
AA
330
1F
100
AcDbEntity
  8
255
  6
CONTINUOUS
 62
   163
100
AcDbLine
 10
283.776305
 20
184.25065
 30
0.0
 11
283.776305
 21
226.331956
 31
0.0
  0
LINE
  5
AB
330
1F
100
AcDbEntity
  8
255
  6
CONTINUOUS
 62
   163
100
AcDbLine
 10
296.705237
 20
153.179583
 30
0.0
 11
305.847372
 21
162.321718
 31
0.0
  0
LINE
  5
AC
330
1F
100
AcDbEntity
  8
255
  6
CONTINUOUS
 62
   163
100
AcDbLine
 10
282.697466
 20
150.25065
 30
0.0
 11
289.634169
 21
150.25065
 31
0.0
  0
LINE
  5
AD
330
1F
100
AcDbEntity
  8
255
  6
CONTINUOUS
 62
   163
100
AcDbLine
 10
254.276305
 20
168.25065
 30
0.0
 11
247.276305
 21
161.25065
 31
0.0
  0
LINE
  5
AE
330
1F
100
AcDbEntity
  8
255
  6
CONTINUOUS
 62
   150
100
AcDbLine
 10
274.676936
 20
163.019446
 30
0.0
 11
268.146596
 21
156.581402
 31
0.0
  0
LINE
  5
AF
330
1F
100
AcDbEntity
  8
255
  6
CONTINUOUS
 62
   163
100
AcDbLine
 10
254.276305
 20
170.87565
 30
0.0
 11
261.046997
 21
177.55065
 31
0.0
  0
LINE
  5
B0
330
1F
100
AcDbEntity
  8
255
  6
CONTINUOUS
 62
   150
100
AcDbLine
 10
279.576305
 20
147.25065
 30
0.0
 11
279.576305
 21
161.872796
 31
0.0
  0
LINE
  5
B1
330
1F
100
AcDbEntity
  8
255
  6
CONTINUOUS
 62
   163
100
AcDbLine
 10
261.046997
 20
177.55065
 30
0.0
 11
277.076305
 21
177.55065
 31
0.0
  0
LINE
  5
B2
330
1F
100
AcDbEntity
  8
255
  6
CONTINUOUS
 62
   163
100
AcDbLine
 10
254.276305
 20
168.25065
 30
0.0
 11
254.276305
 21
170.87565
 31
0.0
  0
LINE
  5
B3
330
1F
100
AcDbEntity
  8
255
  6
CONTINUOUS
 62
   163
100
AcDbLine
 10
247.276305
 20
144.25065
 30
0.0
 11
247.276305
 21
161.25065
 31
0.0
  0
LINE
  5
B4
330
1F
100
AcDbEntity
  8
255
  6
CONTINUOUS
 62
   150
100
AcDbLine
 10
268.146596
 20
156.581402
 30
0.0
 11
250.083802
 21
156.581402
 31
0.0
  0
LINE
  5
B5
330
1F
100
AcDbEntity
  8
255
  6
CONTINUOUS
 62
   163
100
AcDbLine
 10
282.697466
 20
144.25065
 30
0.0
 11
247.276305
 21
144.25065
 31
0.0
  0
LINE
  5
B6
330
1F
100
AcDbEntity
  8
255
  6
CONTINUOUS
 62
   150
100
AcDbLine
 10
250.083802
 20
147.25065
 30
0.0
 11
279.576305
 21
147.25065
 31
0.0
  0
LINE
  5
B7
330
1F
100
AcDbEntity
  8
255
  6
CONTINUOUS
 62
   150
100
AcDbLine
 10
293.264246
 20
222.031956
 30
0.0
 11
299.288364
 21
222.031956
 31
0.0
  0
LINE
  5
B8
330
1F
100
AcDbEntity
  8
255
  6
CONTINUOUS
 62
   150
100
AcDbLine
 10
299.288364
 20
230.631956
 30
0.0
 11
293.264246
 21
230.631956
 31
0.0
  0
LINE
  5
B9
330
1F
100
AcDbEntity
  8
255
  6
CONTINUOUS
 62
   163
100
AcDbLine
 10
282.697466
 20
150.25065
 30
0.0
 11
282.697466
 21
144.25065
 31
0.0
  0
LINE
  5
BA
330
1F
100
AcDbEntity
  8
255
  6
CONTINUOUS
 62
   163
100
AcDbLine
 10
277.076305
 20
177.55065
 30
0.0
 11
283.776305
 21
184.25065
 31
0.0
  0
LINE
  5
BB
330
1F
100
AcDbEntity
  8
255
  6
CONTINUOUS
 62
   150
100
AcDbLine
 10
250.083802
 20
156.581402
 30
0.0
 11
250.083802
 21
147.25065
 31
0.0
  0
LINE
  5
BC
330
1F
100
AcDbEntity
  8
256
  6
CONTINUOUS
 62
     2
100
AcDbLine
 10
15.0
 20
287.0
 30
0.0
 11
405.0
 21
287.0
 31
0.0
  0
LINE
  5
BE
330
1F
100
AcDbEntity
  8
256
  6
CONTINUOUS
 62
     2
100
AcDbLine
 10
400.0
 20
100.0
 30
0.0
 11
400.0
 21
287.0
 31
0.0
  0
LINE
  5
BF
330
1F
100
AcDbEntity
  8
256
  6
CONTINUOUS
 62
     3
100
AcDbLine
 10
375.0
 20
287.0
 30
0.0
 11
375.0
 21
100.0
 31
0.0
  0
LINE
  5
C0
330
1F
100
AcDbEntity
  8
256
  6
CONTINUOUS
 62
     2
100
AcDbLine
 10
370.0
 20
287.0
 30
0.0
 11
370.0
 21
100.0
 31
0.0
  0
LINE
  5
C1
330
1F
100
AcDbEntity
  8
256
  6
CONTINUOUS
 62
     2
100
AcDbLine
 10
15.0
 20
287.0
 30
0.0
 11
15.0
 21
10.0
 31
0.0
  0
LINE
  5
C2
330
1F
100
AcDbEntity
  8
256
  6
CONTINUOUS
 62
     3
100
AcDbLine
 10
205.0
 20
297.0
 30
0.0
 11
205.0
 21
287.0
 31
0.0
  0
LINE
  5
C3
330
1F
100
AcDbEntity
  8
256
  6
CONTINUOUS
 62
     3
100
AcDbLine
 10
395.0
 20
287.0
 30
0.0
 11
395.0
 21
100.0
 31
0.0
  0
LINE
  5
C4
330
1F
100
AcDbEntity
  8
256
  6
CONTINUOUS
 62
     2
100
AcDbLine
 10
15.0
 20
10.0
 30
0.0
 11
405.0
 21
10.0
 31
0.0
  0
LINE
  5
C5
330
1F
100
AcDbEntity
  8
256
  6
CONTINUOUS
 62
     3
100
AcDbLine
 10
380.0
 20
287.0
 30
0.0
 11
380.0
 21
100.0
 31
0.0
  0
LINE
  5
C6
330
1F
100
AcDbEntity
  8
256
  6
CONTINUOUS
 62
     3
100
AcDbLine
 10
-0.04
 20
148.5
 30
0.0
 11
15.0
 21
148.5
 31
0.0
  0
LINE
  5
C7
330
1F
100
AcDbEntity
  8
256
  6
CONTINUOUS
 62
     3
100
AcDbLine
 10
205.0
 20
0.0
 30
0.0
 11
205.0
 21
10.0
 31
0.0
  0
LINE
  5
C8
330
1F
100
AcDbEntity
  8
256
  6
CONTINUOUS
 62
     3
100
AcDbLine
 10
390.0
 20
287.0
 30
0.0
 11
390.0
 21
100.0
 31
0.0
  0
LINE
  5
C9
330
1F
100
AcDbEntity
  8
256
  6
CONTINUOUS
 62
     2
100
AcDbLine
 10
405.0
 20
10.0
 30
0.0
 11
405.0
 21
287.0
 31
0.0
  0
LINE
  5
CA
330
1F
100
AcDbEntity
  8
256
  6
CONTINUOUS
 62
     3
100
AcDbLine
 10
385.0
 20
287.0
 30
0.0
 11
385.0
 21
100.0
 31
0.0
  0
LINE
  5
CB
330
1F
100
AcDbEntity
  8
256
  6
CONTINUOUS
 62
     3
100
AcDbLine
 10
0.0
 20
297.0
 30
0.0
 11
415.0
 21
297.0
 31
0.0
  0
LINE
  5
CC
330
1F
100
AcDbEntity
  8
256
  6
CONTINUOUS
 62
     3
100
AcDbLine
 10
415.0
 20
0.0
 30
0.0
 11
415.0
 21
297.0
 31
0.0
  0
LINE
  5
CD
330
1F
100
AcDbEntity
  8
256
  6
CONTINUOUS
 62
     3
100
AcDbLine
 10
0.0
 20
0.0
 30
0.0
 11
415.0
 21
0.0
 31
0.0
  0
LINE
  5
CE
330
1F
100
AcDbEntity
  8
256
  6
CONTINUOUS
 62
     3
100
AcDbLine
 10
0.0
 20
297.0
 30
0.0
 11
0.0
 21
0.0
 31
0.0
  0
LINE
  5
CF
330
1F
100
AcDbEntity
  8
256
  6
CONTINUOUS
 62
     2
100
AcDbLine
 10
325.0
 20
67.5
 30
0.0
 11
405.0
 21
67.5
 31
0.0
  0
LINE
  5
D0
330
1F
100
AcDbEntity
  8
256
  6
CONTINUOUS
 62
     2
100
AcDbLine
 10
267.5
 20
51.0
 30
0.0
 11
365.0
 21
51.0
 31
0.0
  0
LINE
  5
D1
330
1F
100
AcDbEntity
  8
256
  6
CONTINUOUS
 62
     3
100
AcDbLine
 10
383.0
 20
56.579805
 30
0.0
 11
383.0
 21
49.500705
 31
0.0
  0
LINE
  5
D2
330
1F
100
AcDbEntity
  8
256
  6
CONTINUOUS
 62
     3
100
AcDbLine
 10
256.875
 20
22.0
 30
0.0
 11
256.875
 21
10.0
 31
0.0
  0
LINE
  5
D3
330
1F
100
AcDbEntity
  8
256
  6
CONTINUOUS
 62
     2
100
AcDbLine
 10
225.0
 20
100.0
 30
0.0
 11
405.0
 21
100.0
 31
0.0
  0
LINE
  5
D4
330
1F
100
AcDbEntity
  8
256
  6
CONTINUOUS
 62
     3
100
AcDbLine
 10
325.0
 20
62.0
 30
0.0
 11
365.0
 21
62.0
 31
0.0
  0
LINE
  5
D5
330
1F
100
AcDbEntity
  8
256
  6
CONTINUOUS
 62
     3
100
AcDbLine
 10
383.0
 20
49.500705
 30
0.0
 11
374.97
 21
51.256405
 31
0.0
  0
LINE
  5
D6
330
1F
100
AcDbEntity
  8
256
  6
CONTINUOUS
 62
     2
100
AcDbLine
 10
225.0
 20
10.0
 30
0.0
 11
405.0
 21
10.0
 31
0.0
  0
LINE
  5
D7
330
1F
100
AcDbEntity
  8
256
  6
CONTINUOUS
 62
     2
100
AcDbLine
 10
267.5
 20
44.0
 30
0.0
 11
405.0
 21
44.0
 31
0.0
  0
LINE
  5
D8
330
1F
100
AcDbEntity
  8
256
  6
CONTINUOUS
 62
     3
100
AcDbLine
 10
374.97
 20
54.824205
 30
0.0
 11
374.97
 21
51.256405
 31
0.0
  0
LINE
  5
D9
330
1F
100
AcDbEntity
  8
256
  6
CONTINUOUS
 62
     2
100
AcDbLine
 10
225.0
 20
28.0
 30
0.0
 11
267.5
 21
28.0
 31
0.0
  0
LINE
  5
DA
330
1F
100
AcDbEntity
  8
256
  6
CENTER
 62
     3
100
AcDbLine
 10
391.579
 20
57.640305
 30
0.0
 11
391.579
 21
48.487505
 31
0.0
  0
LINE
  5
DB
330
1F
100
AcDbEntity
  8
256
  6
CONTINUOUS
 62
     3
100
AcDbLine
 10
383.0
 20
56.579805
 30
0.0
 11
374.97
 21
54.824205
 31
0.0
  0
LINE
  5
DC
330
1F
100
AcDbEntity
  8
256
  6
CONTINUOUS
 62
     3
100
AcDbLine
 10
325.0
 20
56.5
 30
0.0
 11
365.0
 21
56.5
 31
0.0
  0
LINE
  5
DD
330
1F
100
AcDbEntity
  8
256
  6
CENTER
 62
     3
100
AcDbLine
 10
386.745
 20
53.040305
 30
0.0
 11
396.158
 21
53.040305
 31
0.0
  0
LINE
  5
DE
330
1F
100
AcDbEntity
  8
256
  6
CONTINUOUS
 62
     2
100
AcDbLine
 10
365.0
 20
67.5
 30
0.0
 11
365.0
 21
10.0
 31
0.0
  0
LINE
  5
DF
330
1F
100
AcDbEntity
  8
256
  6
CONTINUOUS
 62
     3
100
AcDbLine
 10
365.0
 20
28.0
 30
0.0
 11
405.0
 21
28.0
 31
0.0
  0
LINE
  5
E0
330
1F
100
AcDbEntity
  8
256
  6
CONTINUOUS
 62
     3
100
AcDbLine
 10
345.0
 20
51.0
 30
0.0
 11
345.0
 21
67.5
 31
0.0
  0
LINE
  5
E1
330
1F
100
AcDbEntity
  8
256
  6
CONTINUOUS
 62
     2
100
AcDbLine
 10
225.0
 20
100.0
 30
0.0
 11
225.0
 21
10.0
 31
0.0
  0
LINE
  5
E2
330
1F
100
AcDbEntity
  8
256
  6
CONTINUOUS
 62
     3
100
AcDbLine
 10
225.0
 20
35.9
 30
0.0
 11
267.5
 21
35.9
 31
0.0
  0
LINE
  5
E3
330
1F
100
AcDbEntity
  8
256
  6
CONTINUOUS
 62
     3
100
AcDbLine
 10
246.25
 20
16.0
 30
0.0
 11
267.5
 21
16.0
 31
0.0
  0
LINE
  5
E4
330
1F
100
AcDbEntity
  8
256
  6
CONTINUOUS
 62
     2
100
AcDbLine
 10
225.0
 20
58.0
 30
0.0
 11
267.5
 21
58.0
 31
0.0
  0
LINE
  5
E5
330
1F
100
AcDbEntity
  8
256
  6
CONTINUOUS
 62
     3
100
AcDbLine
 10
267.5
 20
43.8
 30
0.0
 11
225.0
 21
43.8
 31
0.0
  0
LINE
  5
E6
330
1F
100
AcDbEntity
  8
256
  6
CONTINUOUS
 62
     3
100
AcDbLine
 10
307.189666
 20
60.322391
 30
0.0
 11
305.409666
 21
59.762391
 31
0.0
  0
LINE
  5
E7
330
1F
100
AcDbEntity
  8
256
  6
CONTINUOUS
 62
     3
100
AcDbLine
 10
225.0
 20
71.88581
 30
0.0
 11
267.5
 21
71.88581
 31
0.0
  0
LINE
  5
E8
330
1F
100
AcDbEntity
  8
256
  6
CONTINUOUS
 62
     2
100
AcDbLine
 10
225.0
 20
79.88581
 30
0.0
 11
325.0
 21
79.88581
 31
0.0
  0
LINE
  5
E9
330
1F
100
AcDbEntity
  8
256
  6
CONTINUOUS
 62
     3
100
AcDbLine
 10
307.189666
 20
60.322391
 30
0.0
 11
305.409666
 21
60.882391
 31
0.0
  0
LINE
  5
EA
330
1F
100
AcDbEntity
  8
256
  6
CONTINUOUS
 62
     2
100
AcDbLine
 10
267.5
 20
58.0
 30
0.0
 11
325.0
 21
58.0
 31
0.0
  0
LINE
  5
EB
330
1F
100
AcDbEntity
  8
256
  6
CONTINUOUS
 62
     3
100
AcDbLine
 10
267.5
 20
51.0
 30
0.0
 11
225.0
 21
51.0
 31
0.0
  0
LINE
  5
EC
330
1F
100
AcDbEntity
  8
256
  6
CONTINUOUS
 62
     3
100
AcDbLine
 10
297.599666
 20
71.897391
 30
0.0
 11
297.599666
 21
58.842391
 31
0.0
  0
LINE
  5
ED
330
1F
100
AcDbEntity
  8
256
  6
CONTINUOUS
 62
     2
100
AcDbLine
 10
256.875
 20
22.0
 30
0.0
 11
246.25
 21
22.0
 31
0.0
  0
LINE
  5
EE
330
1F
100
AcDbEntity
  8
256
  6
CONTINUOUS
 62
     2
100
AcDbLine
 10
225.0
 20
87.88581
 30
0.0
 11
325.0
 21
87.88581
 31
0.0
  0
LINE
  5
EF
330
1F
100
AcDbEntity
  8
256
  6
CONTINUOUS
 62
     3
100
AcDbLine
 10
251.563
 20
22.0
 30
0.0
 11
251.563
 21
10.0
 31
0.0
  0
LINE
  5
F0
330
1F
100
AcDbEntity
  8
256
  6
CENTER
 62
     3
100
AcDbLine
 10
373.719
 20
53.040305
 30
0.0
 11
384.383
 21
53.040305
 31
0.0
  0
LINE
  5
F1
330
1F
100
AcDbEntity
  8
256
  6
CONTINUOUS
 62
     2
100
AcDbLine
 10
325.0
 20
51.0
 30
0.0
 11
325.0
 21
100.0
 31
0.0
  0
LINE
  5
F2
330
1F
100
AcDbEntity
  8
256
  6
CONTINUOUS
 62
     2
100
AcDbLine
 10
246.25
 20
28.0
 30
0.0
 11
246.25
 21
10.0
 31
0.0
  0
LINE
  5
F3
330
1F
100
AcDbEntity
  8
256
  6
CONTINUOUS
 62
     3
100
AcDbLine
 10
262.188
 20
28.0
 30
0.0
 11
262.188
 21
10.0
 31
0.0
  0
LINE
  5
F4
330
1F
100
AcDbEntity
  8
256
  6
CONTINUOUS
 62
     2
100
AcDbLine
 10
246.25
 20
58.0
 30
0.0
 11
246.25
 21
27.9773
 31
0.0
  0
LINE
  5
F5
330
1F
100
AcDbEntity
  8
256
  6
CONTINUOUS
 62
     3
100
AcDbLine
 10
365.0
 20
36.0
 30
0.0
 11
405.0
 21
36.0
 31
0.0
  0
LINE
  5
F6
330
1F
100
AcDbEntity
  8
256
  6
CONTINUOUS
 62
     3
100
AcDbLine
 10
256.875
 20
22.0
 30
0.0
 11
267.5
 21
22.0
 31
0.0
  0
LINE
  5
F7
330
1F
100
AcDbEntity
  8
256
  6
CONTINUOUS
 62
     2
100
AcDbLine
 10
267.5
 20
10.0
 30
0.0
 11
267.5
 21
79.88581
 31
0.0
  0
LINE
  5
F8
330
1F
100
AcDbEntity
  8
256
  6
CONTINUOUS
 62
     2
100
AcDbLine
 10
256.875
 20
22.0
 30
0.0
 11
256.875
 21
28.0
 31
0.0
  0
LINE
  5
F9
330
1F
100
AcDbEntity
  8
256
  6
CONTINUOUS
 62
     2
100
AcDbLine
 10
370.0
 20
107.0
 30
0.0
 11
405.0
 21
107.0
 31
0.0
  0
LINE
  5
FA
330
1F
100
AcDbEntity
  8
255
  6
CONTINUOUS
 62
   172
 60
     1
100
AcDbLine
 10
169.680053
 20
237.581956
 30
0.0
 11
169.680053
 21
237.580956
 31
0.0
  0
LINE
  5
FB
102
{ACAD_REACTORS
330
220
102
}
330
1F
100
AcDbEntity
  8
255
  6
CONTINUOUS
 62
     3
100
AcDbLine
 10
169.680053
 20
253.989162
 30
0.0
 11
194.180053
 21
253.989162
 31
0.0
  0
LINE
  5
FC
102
{ACAD_REACTORS
330
220
102
}
330
1F
100
AcDbEntity
  8
255
  6
CONTINUOUS
 62
     3
100
AcDbLine
 10
194.180053
 20
237.331956
 30
0.0
 11
194.180053
 21
255.989162
 31
0.0
  0
LINE
  5
FD
102
{ACAD_REACTORS
330
220
102
}
330
1F
100
AcDbEntity
  8
255
  6
CONTINUOUS
 62
     3
100
AcDbLine
 10
169.680053
 20
238.831956
 30
0.0
 11
169.680053
 21
255.989162
 31
0.0
  0
LINE
  5
FE
330
1F
100
AcDbEntity
  8
255
  6
CONTINUOUS
 62
     3
 60
     1
100
AcDbLine
 10
194.180053
 20
253.989162
 30
0.0
 11
190.680057
 21
253.051339
 31
0.0
  0
LINE
  5
FF
330
1F
100
AcDbEntity
  8
255
  6
CONTINUOUS
 62
     3
 60
     1
100
AcDbLine
 10
190.680057
 20
253.051339
 30
0.0
 11
190.68005
 21
254.926984
 31
0.0
  0
LINE
  5
100
330
1F
100
AcDbEntity
  8
255
  6
CONTINUOUS
 62
     3
 60
     1
100
AcDbLine
 10
190.68005
 20
254.926984
 30
0.0
 11
194.180053
 21
253.989162
 31
0.0
  0
LINE
  5
101
330
1F
100
AcDbEntity
  8
255
  6
CONTINUOUS
 62
     3
 60
     1
100
AcDbLine
 10
169.680053
 20
253.989162
 30
0.0
 11
173.18005
 21
254.926984
 31
0.0
  0
LINE
  5
102
330
1F
100
AcDbEntity
  8
255
  6
CONTINUOUS
 62
     3
 60
     1
100
AcDbLine
 10
173.18005
 20
254.926984
 30
0.0
 11
173.180057
 21
253.051339
 31
0.0
  0
LINE
  5
103
330
1F
100
AcDbEntity
  8
255
  6
CONTINUOUS
 62
     3
 60
     1
100
AcDbLine
 10
173.180057
 20
253.051339
 30
0.0
 11
169.680053
 21
253.989162
 31
0.0
  0
LINE
  5
104
102
{ACAD_REACTORS
330
221
102
}
330
1F
100
AcDbEntity
  8
255
  6
CONTINUOUS
 62
     3
100
AcDbLine
 10
194.680053
 20
207.831956
 30
0.0
 11
194.680053
 21
197.213894
 31
0.0
  0
LINE
  5
105
102
{ACAD_REACTORS
330
221
102
}
330
1F
100
AcDbEntity
  8
255
  6
CONTINUOUS
 62
     3
100
AcDbLine
 10
169.680053
 20
236.331956
 30
0.0
 11
155.561991
 21
236.331956
 31
0.0
  0
LINE
  5
106
330
1F
100
AcDbEntity
  8
255
  6
CONTINUOUS
 62
     3
 60
     1
100
AcDbLine
 10
194.680053
 20
199.213894
 30
0.0
 11
191.158938
 21
198.35877
 31
0.0
  0
LINE
  5
107
330
1F
100
AcDbEntity
  8
255
  6
CONTINUOUS
 62
     3
 60
     1
100
AcDbLine
 10
191.158938
 20
198.35877
 30
0.0
 11
191.20311
 21
200.233894
 31
0.0
  0
LINE
  5
108
330
1F
100
AcDbEntity
  8
255
  6
CONTINUOUS
 62
     3
 60
     1
100
AcDbLine
 10
191.20311
 20
200.233894
 30
0.0
 11
194.680053
 21
199.213894
 31
0.0
  0
LINE
  5
109
330
1F
100
AcDbEntity
  8
255
  6
CONTINUOUS
 62
     3
 60
     1
100
AcDbLine
 10
157.561991
 20
236.331956
 30
0.0
 11
158.581992
 21
232.855019
 31
0.0
  0
LINE
  5
10A
330
1F
100
AcDbEntity
  8
255
  6
CONTINUOUS
 62
     3
 60
     1
100
AcDbLine
 10
158.581992
 20
232.855019
 30
0.0
 11
156.706868
 21
232.810834
 31
0.0
  0
LINE
  5
10B
330
1F
100
AcDbEntity
  8
255
  6
CONTINUOUS
 62
     3
 60
     1
100
AcDbLine
 10
156.706868
 20
232.810834
 30
0.0
 11
157.561991
 21
236.331956
 31
0.0
  0
LINE
  5
10C
330
1F
100
AcDbEntity
  8
255
  6
CONTINUOUS
 62
   172
 60
     1
100
AcDbLine
 10
296.276305
 20
222.031956
 30
0.0
 11
296.277305
 21
222.031956
 31
0.0
  0
CIRCLE
  5
10D
330
1F
100
AcDbEntity
  8
1
  6
CONTINUOUS
 62
     2
100
AcDbCircle
 10
-88.711328
 20
190.331956
 30
0.0
 40
3.0
210
0.0
220
0.0
230
-1.0
  0
ARC
  5
10E
330
1F
100
AcDbEntity
  8
1
  6
CONTINUOUS
 62
     2
100
AcDbCircle
 10
123.211328
 20
192.974091
 30
0.0
 40
10.0
100
AcDbArc
 50
315.0
 51
0.0
  0
ARC
  5
10F
330
1F
100
AcDbEntity
  8
1
  6
CONTINUOUS
 62
     2
100
AcDbCircle
 10
101.751327
 20
186.837898
 30
0.0
 40
2.65
100
AcDbArc
 50
328.520899
 51
185.134248
  0
ARC
  5
110
330
1F
100
AcDbEntity
  8
1
  6
CONTINUOUS
 62
     2
100
AcDbCircle
 10
114.069193
 20
183.831956
 30
0.0
 40
10.0
100
AcDbArc
 50
270.0
 51
315.0
  0
ARC
  5
111
330
1F
100
AcDbEntity
  8
1
  6
CONTINUOUS
 62
     2
100
AcDbCircle
 10
-194.180053
 20
235.831956
 30
0.0
 40
0.5
210
0.0
220
0.0
230
-1.0
100
AcDbArc
 50
90.0
 51
180.0
  0
ARC
  5
112
330
1F
100
AcDbEntity
  8
1
  6
CONTINUOUS
 62
     2
100
AcDbCircle
 10
-194.180053
 20
235.831956
 30
0.0
 40
3.0
210
0.0
220
0.0
230
-1.0
100
AcDbArc
 50
90.0
 51
180.0
  0
ARC
  5
113
330
1F
100
AcDbEntity
  8
255
  6
CONTINUOUS
 62
   163
100
AcDbCircle
 10
296.276305
 20
226.331956
 30
0.0
 40
12.5
100
AcDbArc
 50
0.0
 51
180.0
  0
ARC
  5
114
330
1F
100
AcDbEntity
  8
255
  6
CONTINUOUS
 62
   163
100
AcDbCircle
 10
289.634169
 20
160.25065
 30
0.0
 40
10.0
100
AcDbArc
 50
270.0
 51
315.0
  0
CIRCLE
  5
115
330
1F
100
AcDbEntity
  8
255
  6
CONTINUOUS
 62
   150
100
AcDbCircle
 10
-264.276305
 20
166.75065
 30
0.0
 40
3.0
210
0.0
220
0.0
230
-1.0
  0
ARC
  5
116
330
1F
100
AcDbEntity
  8
255
  6
CONTINUOUS
 62
   150
100
AcDbCircle
 10
296.276305
 20
226.331956
 30
0.0
 40
5.250000000000005
100
AcDbArc
 50
125.01043
 51
234.98957
  0
ARC
  5
117
330
1F
100
AcDbEntity
  8
255
  6
CONTINUOUS
 62
   150
100
AcDbCircle
 10
277.316303
 20
163.256593
 30
0.0
 40
2.650000000000001
100
AcDbArc
 50
328.520899
 51
185.134248
  0
ARC
  5
118
330
1F
100
AcDbEntity
  8
255
  6
CONTINUOUS
 62
   163
100
AcDbCircle
 10
298.776305
 20
169.392786
 30
0.0
 40
9.999999999999995
100
AcDbArc
 50
315.0
 51
0.0
  0
ARC
  5
119
330
1F
100
AcDbEntity
  8
255
  6
CONTINUOUS
 62
   150
100
AcDbCircle
 10
296.276305
 20
226.331956
 30
0.0
 40
5.249999999999992
100
AcDbArc
 50
305.01043
 51
54.98957
  0
CIRCLE
  5
11A
330
1F
100
AcDbEntity
  8
256
  6
CONTINUOUS
 62
     3
100
AcDbCircle
 10
391.579
 20
53.040305
 30
0.0
 40
1.78392
  0
CIRCLE
  5
11B
330
1F
100
AcDbEntity
  8
256
  6
CONTINUOUS
 62
     3
100
AcDbCircle
 10
294.709666
 20
61.202391
 30
0.0
 40
0.197989
  0
CIRCLE
  5
11C
330
1F
100
AcDbEntity
  8
256
  6
CONTINUOUS
 62
     3
100
AcDbCircle
 10
391.579
 20
53.040305
 30
0.0
 40
3.53955
  0
ARC
  5
11D
102
{ACAD_REACTORS
330
221
102
}
330
1F
100
AcDbEntity
  8
255
  6
CONTINUOUS
 62
     3
100
AcDbCircle
 10
194.680053
 20
236.331956
 30
0.0
 40
37.11806174168371
100
AcDbArc
 50
180.0
 51
270.0
  0
ELLIPSE
  5
11E
330
1F
100
AcDbEntity
  8
1
  6
CONTINUOUS
 62
     2
100
AcDbEllipse
 10
134.074758
 20
70.51652
 30
0.0
 11
-1.140245924547931
 21
-2.774858416487557
 31
0.0
210
5.134519506765645E-17
220
-2.109878798613520E-17
230
1.0
 40
0.626781
 41
5.333325083411443
 42
5.738688659677097
  0
ELLIPSE
  5
11F
330
1F
100
AcDbEntity
  8
1
  6
CONTINUOUS
 62
     2
100
AcDbEllipse
 10
134.074758
 20
70.51652
 30
0.0
 11
-1.140245924547931
 21
-2.774858416487557
 31
0.0
210
5.134519506765645E-17
220
-2.109878798613520E-17
230
1.0
 40
0.626781
 41
3.686050589105208
 42
5.333325083411449
  0
ELLIPSE
  5
120
330
1F
100
AcDbEntity
  8
1
  6
CONTINUOUS
 62
     2
100
AcDbEllipse
 10
117.124618
 20
105.225444
 30
0.0
 11
0.2225968863998463
 21
-0.4477171273975277
 31
-2.775557561562891E-17
210
-2.499336748647900E-17
220
-7.441980518467492E-17
230
1.0
 40
0.633747
 41
0.9446209616316388
 42
2.515417288426523
  0
ELLIPSE
  5
121
330
1F
100
AcDbEntity
  8
1
  6
CONTINUOUS
 62
     2
100
AcDbEllipse
 10
125.140928
 20
62.913022
 30
0.0
 11
1.007217233350672
 21
2.451124934564008
 31
0.0
210
5.134519506765646E-17
220
-2.109878798613520E-17
230
1.0
 40
0.626781
 41
0.6266596731472358
 42
2.741146268859289
  0
ELLIPSE
  5
122
330
1F
100
AcDbEntity
  8
1
  6
CONTINUOUS
 62
     2
100
AcDbEllipse
 10
116.693542
 20
55.993069
 30
0.0
 11
3.800819748493103
 21
9.249528054958523
 31
0.0
210
5.134519506765645E-17
220
-2.109878798613520E-17
230
1.0
 40
0.626781
 41
3.141597743113617
 42
3.762528645218755
  0
ELLIPSE
  5
123
330
1F
100
AcDbEntity
  8
1
  6
CONTINUOUS
 62
     2
100
AcDbEllipse
 10
117.124618
 20
105.225444
 30
0.0
 11
1.335581318399078
 21
-2.686302764385166
 31
-1.665334536937735E-16
210
-2.499336748647900E-17
220
-7.441980518467492E-17
230
1.0
 40
0.633747
 41
0.9446209616316297
 42
2.515417288426525
  0
ELLIPSE
  5
124
330
1F
100
AcDbEntity
  8
1
  6
CONTINUOUS
 62
     2
100
AcDbEllipse
 10
99.803721
 20
104.920097
 30
0.0
 11
5.247379583786152
 21
0.1658538623736036
 31
0.0
210
0.0
220
0.0
230
1.0
 40
0.453334
 41
6.11436069501876
 42
8.0338587998299
  0
ELLIPSE
  5
125
330
1F
100
AcDbEntity
  8
1
  6
CONTINUOUS
 62
     2
100
AcDbEllipse
 10
99.733325
 20
107.147338
 30
0.0
 11
-5.247379583786152
 21
-0.1658538623736036
 31
0.0
210
0.0
220
0.0
230
1.0
 40
0.453334
 41
0.6295667238309459
 42
1.750673492650629
  0
ELLIPSE
  5
126
330
1F
100
AcDbEntity
  8
1
  6
CONTINUOUS
 62
     2
100
AcDbEllipse
 10
99.803721
 20
104.920097
 30
0.0
 11
5.247379583786152
 21
0.1658538623736036
 31
0.0
210
0.0
220
0.0
230
1.0
 40
0.453334
 41
2.972768041429095
 42
4.892266146240421
  0
ELLIPSE
  5
127
330
1F
100
AcDbEntity
  8
1
  6
CONTINUOUS
 62
     2
100
AcDbEllipse
 10
132.27296
 20
71.256916
 30
0.0
 11
-1.140245924547931
 21
-2.774858416487557
 31
0.0
210
5.134519506765645E-17
220
-2.109878798613520E-17
230
1.0
 40
0.626781
 41
0.0
 42
6.283185307179586
  0
ELLIPSE
  5
128
330
1F
100
AcDbEntity
  8
1
  6
CONTINUOUS
 62
     2
100
AcDbEllipse
 10
99.808247
 20
96.616056
 30
0.0
 11
-0.2225968863998463
 21
0.4477171273975277
 31
2.775557561562891E-17
210
-2.499336748647900E-17
220
-7.441980518467492E-17
230
1.0
 40
0.633747
 41
4.086213615221428
 42
5.657009942016316
  0
ELLIPSE
  5
129
330
1F
100
AcDbEntity
  8
1
  6
CONTINUOUS
 62
     2
100
AcDbEllipse
 10
114.891744
 20
56.733464
 30
0.0
 11
-3.800819748493103
 21
-9.249528054958523
 31
0.0
210
5.134519506765645E-17
220
-2.109878798613520E-17
230
1.0
 40
0.626781
 41
6.118723135411099
 42
6.904121298808548
  0
ELLIPSE
  5
12A
330
1F
100
AcDbEntity
  8
1
  6
CONTINUOUS
 62
     2
100
AcDbEllipse
 10
108.30197
 20
61.72983
 30
0.0
 11
-3.800819748493103
 21
-9.249528054958523
 31
0.0
210
5.134519506765645E-17
220
-2.109878798613520E-17
230
1.0
 40
0.626781
 41
5.333324972013651
 42
6.118723135411099
  0
ELLIPSE
  5
12B
330
1F
100
AcDbEntity
  8
1
  6
CONTINUOUS
 62
     2
100
AcDbEllipse
 10
123.33913
 20
63.653418
 30
0.0
 11
-1.007217233350672
 21
-2.451124934564008
 31
0.0
210
5.134519506765646E-17
220
-2.109878798613520E-17
230
1.0
 40
0.626781
 41
2.102122783553592
 42
5.88273892244908
  0
ELLIPSE
  5
12C
330
1F
100
AcDbEntity
  8
1
  6
CONTINUOUS
 62
     2
100
AcDbEllipse
 10
99.733325
 20
107.147338
 30
0.0
 11
-12.49376091377656
 21
-0.3948901485085802
 31
0.0
210
0.0
220
0.0
230
1.0
 40
0.453334
 41
3.9325170938346
 42
6.283164697594447
  0
ELLIPSE
  5
12D
330
1F
100
AcDbEntity
  8
1
  6
CONTINUOUS
 62
     2
100
AcDbEllipse
 10
99.803721
 20
104.920097
 30
0.0
 11
12.49376091377656
 21
0.3948901485085802
 31
0.0
210
0.0
220
0.0
230
1.0
 40
0.453334
 41
0.7909244402448079
 42
3.932517093834599
  0
LEADER
  5
12F
330
1F
100
AcDbEntity
  8
255
  6
CONTINUOUS
 62
     3
100
AcDbLeader
  3
STANDARD
 73
     2
 76
     3
 10
283.776305
 20
205.291303
 30
0.0
 10
262.635005
 20
221.186973
 30
0.0
 10
257.635005
 20
221.186973
 30
0.0
340
133
212
257.6350054420571
222
221.1869732209905
232
0.0
1001
ACAD
1000
DSTYLE
1002
{
1070
     5
1000

1070
   341
1005
0
1070
    41
1040
3.5
1002
}
  0
INSERT
  5
133
102
{ACAD_REACTORS
330
12F
102
}
330
1F
100
AcDbEntity
  8
255
  6
CONTINUOUS
 62
     3
100
AcDbBlockReference
  2
LABLE3D_1
 10
0.0
 20
0.0
 30
0.0
  0
LEADER
  5
138
330
1F
100
AcDbEntity
  8
255
  6
CONTINUOUS
 62
     3
100
AcDbLeader
  3
STANDARD
 73
     2
 76
     3
 10
301.276305
 20
157.75065
 30
0.0
 10
320.68981
 20
131.47165
 30
0.0
 10
325.68981
 20
131.47165
 30
0.0
340
13A
212
325.6898099212239
222
131.4716501074972
232
0.0
1001
ACAD
1000
DSTYLE
1002
{
1070
     5
1000

1070
   341
1005
0
1070
    41
1040
3.5
1002
}
  0
INSERT
  5
13A
102
{ACAD_REACTORS
330
138
102
}
330
1F
100
AcDbEntity
  8
255
  6
CONTINUOUS
 62
     3
100
AcDbBlockReference
  2
LABLE3D_2
 10
0.0
 20
0.0
 30
0.0
  0
LEADER
  5
13E
330
1F
100
AcDbEntity
  8
255
  6
CONTINUOUS
 62
     3
100
AcDbLeader
  3
STANDARD
 73
     2
 76
     3
 10
308.776305
 20
197.862371
 30
0.0
 10
320.921506
 20
192.782895
 30
0.0
 10
325.921506
 20
192.782895
 30
0.0
340
140
212
325.9215063665361
222
192.7828952587506
232
0.0
1001
ACAD
1000
DSTYLE
1002
{
1070
     5
1000

1070
   341
1005
0
1070
    41
1040
3.5
1002
}
  0
INSERT
  5
140
102
{ACAD_REACTORS
330
13E
102
}
330
1F
100
AcDbEntity
  8
255
  6
CONTINUOUS
 62
     3
100
AcDbBlockReference
  2
LABLE3D_3
 10
0.0
 20
0.0
 30
0.0
  0
MTEXT
  5
143
330
1F
100
AcDbEntity
  8
256
  6
CONTINUOUS
 62
     3
100
AcDbMText
 10
404.150173
 20
172.859201
 30
0.0
 40
2.0
 41
0.0
 71
     7
 72
     5
  1
\W00.772;MODIFICACIONES / 
  7
DEFAULT
 11
4.502122416191745E-15
 21
1.0
 31
0.0
1001
ACAD
1000
MTEXTBEGIN
1070
    73
1070
     2
1070
    44
1040
0.903614
1000
MTEXTEND
1000
ACAD_MTEXT_DEFINED_HEIGHT_BEGIN
1070
    46
1040
0.2
1000
ACAD_MTEXT_DEFINED_HEIGHT_END
  0
MTEXT
  5
144
330
1F
100
AcDbEntity
  8
256
  6
CONTINUOUS
 62
     3
100
AcDbMText
 10
404.150173
 20
195.041874
 30
0.0
 40
2.0
 41
0.0
 71
     7
 72
     5
  1
\W00.817;\Q20.000000;MODIFICATIONS\Q0; 
  7
DEFAULT
 11
2.503720971866463E-15
 21
1.0
 31
0.0
1001
ACAD
1000
MTEXTBEGIN
1070
    73
1070
     2
1070
    44
1040
0.903614
1000
MTEXTEND
1000
ACAD_MTEXT_DEFINED_HEIGHT_BEGIN
1070
    46
1040
0.2
1000
ACAD_MTEXT_DEFINED_HEIGHT_END
  0
MTEXT
  5
145
330
1F
100
AcDbEntity
  8
255
  6
CONTINUOUS
 62
     2
100
AcDbMText
 10
373.918738
 20
14.511633
 30
0.0
 40
4.5
 41
0.0
 71
     7
 72
     5
  1
\W01.000; 
  7
DEFAULT
1001
ACAD
1000
MTEXTBEGIN
1070
    73
1070
     2
1070
    44
1040
0.903614
1000
MTEXTEND
1000
ACAD_MTEXT_DEFINED_HEIGHT_BEGIN
1070
    46
1040
0.2
1000
ACAD_MTEXT_DEFINED_HEIGHT_END
  0
MTEXT
  5
146
330
1F
100
AcDbEntity
  8
256
  6
CONTINUOUS
 62
     3
100
AcDbMText
 10
268.7503
 20
45.497799
 30
0.0
 40
1.4
 41
0.0
 71
     7
 72
     5
  1
\W00.695;\Q20.000000;It cancels and substitutes the precedents date\Q0; 
  7
DEFAULT
1001
ACAD
1000
MTEXTBEGIN
1070
    73
1070
     2
1070
    44
1040
0.903614
1000
MTEXTEND
1000
ACAD_MTEXT_DEFINED_HEIGHT_BEGIN
1070
    46
1040
0.2
1000
ACAD_MTEXT_DEFINED_HEIGHT_END
  0
MTEXT
  5
147
330
1F
100
AcDbEntity
  8
256
  6
CONTINUOUS
 62
     3
100
AcDbMText
 10
309.377174
 20
58.908527
 30
0.0
 40
1.7
 41
0.0
 71
     7
 72
     5
  1
\W00.797;50     0,25 
  7
DEFAULT
1001
ACAD
1000
MTEXTBEGIN
1070
    73
1070
     2
1070
    44
1040
0.903614
1000
MTEXTEND
1000
ACAD_MTEXT_DEFINED_HEIGHT_BEGIN
1070
    46
1040
0.2
1000
ACAD_MTEXT_DEFINED_HEIGHT_END
  0
MTEXT
  5
148
330
1F
100
AcDbEntity
  8
256
  6
CONTINUOUS
 62
     3
100
AcDbMText
 10
326.17134
 20
62.54831
 30
0.0
 40
1.5
 41
0.0
 71
     7
 72
     5
  1
\W00.794;\Q20.000000;DEMOULD\Q0; 
  7
DEFAULT
1001
ACAD
1000
MTEXTBEGIN
1070
    73
1070
     2
1070
    44
1040
0.903614
1000
MTEXTEND
1000
ACAD_MTEXT_DEFINED_HEIGHT_BEGIN
1070
    46
1040
0.2
1000
ACAD_MTEXT_DEFINED_HEIGHT_END
  0
MTEXT
  5
149
330
1F
100
AcDbEntity
  8
256
  6
CONTINUOUS
 62
     3
100
AcDbMText
 10
225.71949
 20
69.268308
 30
0.0
 40
1.5
 41
0.0
 71
     7
 72
     5
  1
\W00.777;ACABADO / TRATAMIENTO 
  7
DEFAULT
1001
ACAD
1000
MTEXTBEGIN
1070
    73
1070
     2
1070
    44
1040
0.903614
1000
MTEXTEND
1000
ACAD_MTEXT_DEFINED_HEIGHT_BEGIN
1070
    46
1040
0.2
1000
ACAD_MTEXT_DEFINED_HEIGHT_END
  0
MTEXT
  5
14A
330
1F
100
AcDbEntity
  8
256
  6
CONTINUOUS
 62
     3
100
AcDbMText
 10
231.368239
 20
92.056025
 30
0.0
 40
1.7
 41
0.0
 71
     7
 72
     5
  1
\W00.733;PROPIEDAD DE J. FELIU DE LA PENYA, S.L. NO SERA REPRODUCIDO TOTAL O PARCIALMENTE\P NI ENTREGADO A TERCEROS SIN AUTORIZACION ESCRITA\P 
  7
DEFAULT
1001
ACAD
1000
MTEXTBEGIN
1070
    44
1040
0.903614
1000
MTEXTEND
1000
ACAD_MTEXT_DEFINED_HEIGHT_BEGIN
1070
    46
1040
0.2
1000
ACAD_MTEXT_DEFINED_HEIGHT_END
  0
MTEXT
  5
14B
330
1F
100
AcDbEntity
  8
256
  6
CONTINUOUS
 62
     3
100
AcDbMText
 10
325.94083
 20
64.848826
 30
0.0
 40
1.5
 41
0.0
 71
     7
 72
     5
  1
\W00.790;DESMOLDEO 
  7
DEFAULT
1001
ACAD
1000
MTEXTBEGIN
1070
    73
1070
     2
1070
    44
1040
0.903614
1000
MTEXTEND
1000
ACAD_MTEXT_DEFINED_HEIGHT_BEGIN
1070
    46
1040
0.2
1000
ACAD_MTEXT_DEFINED_HEIGHT_END
  0
MTEXT
  5
14C
330
1F
100
AcDbEntity
  8
256
  6
CONTINUOUS
 62
     3
100
AcDbMText
 10
326.17134
 20
53.861182
 30
0.0
 40
1.5
 41
0.0
 71
     7
 72
     5
  1
\W00.784;ESPESOR 
  7
DEFAULT
1001
ACAD
1000
MTEXTBEGIN
1070
    73
1070
     2
1070
    44
1040
0.903614
1000
MTEXTEND
1000
ACAD_MTEXT_DEFINED_HEIGHT_BEGIN
1070
    46
1040
0.2
1000
ACAD_MTEXT_DEFINED_HEIGHT_END
  0
MTEXT
  5
14D
330
1F
100
AcDbEntity
  8
256
  6
CONTINUOUS
 62
     3
100
AcDbMText
 10
305.617997
 20
64.087216
 30
0.0
 40
1.5
 41
0.0
 71
     7
 72
     5
  1
\W00.701;- 
  7
BLOCKFONT
1001
ACAD
1000
MTEXTBEGIN
1070
    73
1070
     2
1070
    44
1040
0.903614
1000
MTEXTEND
1000
ACAD_MTEXT_DEFINED_HEIGHT_BEGIN
1070
    46
1040
0.2
1000
ACAD_MTEXT_DEFINED_HEIGHT_END
  0
MTEXT
  5
14F
330
1F
100
AcDbEntity
  8
256
  6
CONTINUOUS
 62
     3
100
AcDbMText
 10
302.000916
 20
68.556001
 30
0.0
 40
1.7
 41
0.0
 71
     7
 72
     5
  1
\W00.744;0     20     0,1 
  7
DEFAULT
1001
ACAD
1000
MTEXTBEGIN
1070
    73
1070
     2
1070
    44
1040
0.903614
1000
MTEXTEND
1000
ACAD_MTEXT_DEFINED_HEIGHT_BEGIN
1070
    46
1040
0.2
1000
ACAD_MTEXT_DEFINED_HEIGHT_END
  0
MTEXT
  5
150
330
1F
100
AcDbEntity
  8
256
  6
CONTINUOUS
 62
     3
100
AcDbMText
 10
234.377317
 20
29.687513
 30
0.0
 40
1.5
 41
0.0
 71
     8
 72
     5
  1
\W00.834;\Q20.000000;DATE\Q0; 
  7
DEFAULT
1001
ACAD
1000
MTEXTBEGIN
1070
    73
1070
     2
1070
    44
1040
0.903614
1000
MTEXTEND
1000
ACAD_MTEXT_DEFINED_HEIGHT_BEGIN
1070
    46
1040
0.2
1000
ACAD_MTEXT_DEFINED_HEIGHT_END
  0
MTEXT
  5
151
330
1F
100
AcDbEntity
  8
255
  6
CONTINUOUS
 62
     3
100
AcDbMText
 10
248.54969
 20
29.669488
 30
0.0
 40
3.0
 41
0.0
 71
     7
 72
     5
  1
\W00.776;23/06/15 
  7
DEFAULT
1001
ACAD
1000
MTEXTBEGIN
1070
    73
1070
     2
1070
    44
1040
0.903614
1000
MTEXTEND
1000
ACAD_MTEXT_DEFINED_HEIGHT_BEGIN
1070
    46
1040
0.2
1000
ACAD_MTEXT_DEFINED_HEIGHT_END
  0
MTEXT
  5
152
330
1F
100
AcDbEntity
  8
256
  6
CONTINUOUS
 62
     3
100
AcDbMText
 10
314.901997
 20
63.288016
 30
0.0
 40
1.5
 41
0.0
 71
     7
 72
     5
  1
\W00.701;- 
  7
BLOCKFONT
1001
ACAD
1000
MTEXTBEGIN
1070
    73
1070
     2
1070
    44
1040
0.903614
1000
MTEXTEND
1000
ACAD_MTEXT_DEFINED_HEIGHT_BEGIN
1070
    46
1040
0.2
1000
ACAD_MTEXT_DEFINED_HEIGHT_END
  0
MTEXT
  5
153
330
1F
100
AcDbEntity
  8
256
  6
CONTINUOUS
 62
     3
100
AcDbMText
 10
381.16911
 20
40.224858
 30
0.0
 40
1.5
 41
0.0
 71
     7
 72
     5
  1
\W00.811;\Q20.000000;SUBSTITUTES\Q0; 
  7
DEFAULT
1001
ACAD
1000
MTEXTBEGIN
1070
    73
1070
     2
1070
    44
1040
0.903614
1000
MTEXTEND
1000
ACAD_MTEXT_DEFINED_HEIGHT_BEGIN
1070
    46
1040
0.2
1000
ACAD_MTEXT_DEFINED_HEIGHT_END
  0
MTEXT
  5
154
330
1F
100
AcDbEntity
  8
256
  6
CONTINUOUS
 62
     3
100
AcDbMText
 10
366.16847
 20
25.078575
 30
0.0
 40
1.5
 41
0.0
 71
     7
 72
     5
  1
\W00.783;CODIGO/ 
  7
DEFAULT
1001
ACAD
1000
MTEXTBEGIN
1070
    73
1070
     2
1070
    44
1040
0.903614
1000
MTEXTEND
1000
ACAD_MTEXT_DEFINED_HEIGHT_BEGIN
1070
    46
1040
0.2
1000
ACAD_MTEXT_DEFINED_HEIGHT_END
  0
MTEXT
  5
155
330
1F
100
AcDbEntity
  8
256
  6
CONTINUOUS
 62
     3
100
AcDbMText
 10
314.901997
 20
64.558016
 30
0.0
 40
1.5
 41
0.0
 71
     7
 72
     5
  1
\W00.701;+ 
  7
BLOCKFONT
1001
ACAD
1000
MTEXTBEGIN
1070
    73
1070
     2
1070
    44
1040
0.903614
1000
MTEXTEND
1000
ACAD_MTEXT_DEFINED_HEIGHT_BEGIN
1070
    46
1040
0.2
1000
ACAD_MTEXT_DEFINED_HEIGHT_END
  0
MTEXT
  5
156
330
1F
100
AcDbEntity
  8
256
  6
CONTINUOUS
 62
     3
100
AcDbMText
 10
300.660916
 20
63.876001
 30
0.0
 40
1.7
 41
0.0
 71
     7
 72
     5
  1
\W00.758;20     50     0,15 
  7
DEFAULT
1001
ACAD
1000
MTEXTBEGIN
1070
    73
1070
     2
1070
    44
1040
0.903614
1000
MTEXTEND
1000
ACAD_MTEXT_DEFINED_HEIGHT_BEGIN
1070
    46
1040
0.2
1000
ACAD_MTEXT_DEFINED_HEIGHT_END
  0
MTEXT
  5
157
330
1F
100
AcDbEntity
  8
256
  6
CONTINUOUS
 62
     3
100
AcDbMText
 10
353.400865
 20
51.338002
 30
0.0
 40
3.0
 41
0.0
 71
     7
 72
     5
  1
\W01.000; 
  7
DEFAULT
1001
ACAD
1000
MTEXTBEGIN
1070
    73
1070
     2
1070
    44
1040
0.903614
1000
MTEXTEND
1000
ACAD_MTEXT_DEFINED_HEIGHT_BEGIN
1070
    46
1040
0.2
1000
ACAD_MTEXT_DEFINED_HEIGHT_END
  0
MTEXT
  5
158
330
1F
100
AcDbEntity
  8
256
  6
CONTINUOUS
 62
     3
100
AcDbMText
 10
326.17134
 20
57.065014
 30
0.0
 40
1.5
 41
0.0
 71
     7
 72
     5
  1
\W00.818;\Q20.000000;RADIUS\Q0; 
  7
DEFAULT
1001
ACAD
1000
MTEXTBEGIN
1070
    73
1070
     2
1070
    44
1040
0.903614
1000
MTEXTEND
1000
ACAD_MTEXT_DEFINED_HEIGHT_BEGIN
1070
    46
1040
0.2
1000
ACAD_MTEXT_DEFINED_HEIGHT_END
  0
MTEXT
  5
159
330
1F
100
AcDbEntity
  8
256
  6
CONTINUOUS
 62
     3
100
AcDbMText
 10
269.18386
 20
55.191929
 30
0.0
 40
1.5
 41
0.0
 71
     7
 72
     5
  1
\W00.768;DUREZA/ 
  7
DEFAULT
1001
ACAD
1000
MTEXTBEGIN
1070
    73
1070
     2
1070
    44
1040
0.903614
1000
MTEXTEND
1000
ACAD_MTEXT_DEFINED_HEIGHT_BEGIN
1070
    46
1040
0.2
1000
ACAD_MTEXT_DEFINED_HEIGHT_END
  0
MTEXT
  5
15A
330
1F
100
AcDbEntity
  8
256
  6
CONTINUOUS
 62
     3
100
AcDbMText
 10
234.65774
 20
45.203784
 30
0.0
 40
1.5
 41
0.0
 71
     8
 72
     5
  1
\W00.793;\Q20.000000;PROJECTED\Q0; 
  7
DEFAULT
1001
ACAD
1000
MTEXTBEGIN
1070
    73
1070
     2
1070
    44
1040
0.903614
1000
MTEXTEND
1000
ACAD_MTEXT_DEFINED_HEIGHT_BEGIN
1070
    46
1040
0.2
1000
ACAD_MTEXT_DEFINED_HEIGHT_END
  0
MTEXT
  5
15B
330
1F
100
AcDbEntity
  8
255
  6
CONTINUOUS
 62
     2
100
AcDbMText
 10
302.410875
 20
21.965354
 30
0.0
 40
6.0
 41
0.0
 71
     7
 72
     5
  1
\W00.807;ROTULA 
  7
DEFAULT
1001
ACAD
1000
MTEXTBEGIN
1070
    73
1070
     2
1070
    44
1040
0.903614
1000
MTEXTEND
1000
ACAD_MTEXT_DEFINED_HEIGHT_BEGIN
1070
    46
1040
0.2
1000
ACAD_MTEXT_DEFINED_HEIGHT_END
  0
MTEXT
  5
15C
330
1F
100
AcDbEntity
  8
256
  6
CONTINUOUS
 62
     3
100
AcDbMText
 10
366.65916
 20
32.604203
 30
0.0
 40
1.5
 41
0.0
 71
     7
 72
     5
  1
\W00.768;SUSTITUIDO POR/ 
  7
DEFAULT
1001
ACAD
1000
MTEXTBEGIN
1070
    73
1070
     2
1070
    44
1040
0.903614
1000
MTEXTEND
1000
ACAD_MTEXT_DEFINED_HEIGHT_BEGIN
1070
    46
1040
0.2
1000
ACAD_MTEXT_DEFINED_HEIGHT_END
  0
MTEXT
  5
15D
330
1F
100
AcDbEntity
  8
256
  6
CONTINUOUS
 62
     3
100
AcDbMText
 10
271.08378
 20
62.058932
 30
0.0
 40
1.7
 41
0.0
 71
     7
 72
     5
  1
\W00.732;ejes/axis\P 
  7
DEFAULT
1001
ACAD
1000
MTEXTBEGIN
1070
    44
1040
0.903614
1000
MTEXTEND
1000
ACAD_MTEXT_DEFINED_HEIGHT_BEGIN
1070
    46
1040
0.2
1000
ACAD_MTEXT_DEFINED_HEIGHT_END
  0
MTEXT
  5
15E
330
1F
100
AcDbEntity
  8
256
  6
CONTINUOUS
 62
     3
100
AcDbMText
 10
293.555666
 20
68.556001
 30
0.0
 40
1.7
 41
0.0
 71
     7
 72
     5
  1
\W01.006;11 
  7
DEFAULT
1001
ACAD
1000
MTEXTBEGIN
1070
    73
1070
     2
1070
    44
1040
0.903614
1000
MTEXTEND
1000
ACAD_MTEXT_DEFINED_HEIGHT_BEGIN
1070
    46
1040
0.2
1000
ACAD_MTEXT_DEFINED_HEIGHT_END
  0
MTEXT
  5
15F
330
1F
100
AcDbEntity
  8
256
  6
CONTINUOUS
 62
     3
100
AcDbMText
 10
235.140186
 20
48.128729
 30
0.0
 40
1.5
 41
0.0
 71
     8
 72
     5
  1
\W00.807;PROYECTADO 
  7
DEFAULT
1001
ACAD
1000
MTEXTBEGIN
1070
    73
1070
     2
1070
    44
1040
0.903614
1000
MTEXTEND
1000
ACAD_MTEXT_DEFINED_HEIGHT_BEGIN
1070
    46
1040
0.2
1000
ACAD_MTEXT_DEFINED_HEIGHT_END
  0
MTEXT
  5
160
330
1F
100
AcDbEntity
  8
256
  6
CONTINUOUS
 62
     3
100
AcDbMText
 10
314.901997
 20
59.718016
 30
0.0
 40
1.5
 41
0.0
 71
     7
 72
     5
  1
\W00.701;+ 
  7
BLOCKFONT
1001
ACAD
1000
MTEXTBEGIN
1070
    73
1070
     2
1070
    44
1040
0.903614
1000
MTEXTEND
1000
ACAD_MTEXT_DEFINED_HEIGHT_BEGIN
1070
    46
1040
0.2
1000
ACAD_MTEXT_DEFINED_HEIGHT_END
  0
MTEXT
  5
161
330
1F
100
AcDbEntity
  8
256
  6
CONTINUOUS
 62
     3
100
AcDbMText
 10
290.914666
 20
68.596001
 30
0.0
 40
1.7
 41
0.0
 71
     7
 72
     5
  1
\W00.930;H 
  7
DEFAULT
1001
ACAD
1000
MTEXTBEGIN
1070
    73
1070
     2
1070
    44
1040
0.903614
1000
MTEXTEND
1000
ACAD_MTEXT_DEFINED_HEIGHT_BEGIN
1070
    46
1040
0.2
1000
ACAD_MTEXT_DEFINED_HEIGHT_END
  0
MTEXT
  5
162
330
1F
100
AcDbEntity
  8
256
  6
CONTINUOUS
 62
     3
100
AcDbMText
 10
276.246514
 20
80.076596
 30
0.0
 40
3.0
 41
0.0
 71
     7
 72
     5
  1
\W01.000; 
  7
DEFAULT
1001
ACAD
1000
MTEXTBEGIN
1070
    73
1070
     2
1070
    44
1040
0.903614
1000
MTEXTEND
1000
ACAD_MTEXT_DEFINED_HEIGHT_BEGIN
1070
    46
1040
0.2
1000
ACAD_MTEXT_DEFINED_HEIGHT_END
  0
MTEXT
  5
163
330
1F
100
AcDbEntity
  8
256
  6
CONTINUOUS
 62
     3
100
AcDbMText
 10
247.271915
 20
25.693186
 30
0.0
 40
1.2
 41
0.0
 71
     7
 72
     5
  1
\W00.815;MODIFIC. 
  7
DEFAULT
1001
ACAD
1000
MTEXTBEGIN
1070
    73
1070
     2
1070
    44
1040
0.903614
1000
MTEXTEND
1000
ACAD_MTEXT_DEFINED_HEIGHT_BEGIN
1070
    46
1040
0.2
1000
ACAD_MTEXT_DEFINED_HEIGHT_END
  0
MTEXT
  5
164
330
1F
100
AcDbEntity
  8
256
  6
CONTINUOUS
 62
     3
100
AcDbMText
 10
293.514666
 20
63.916001
 30
0.0
 40
1.7
 41
0.0
 71
     7
 72
     5
  1
\W01.006;11 
  7
DEFAULT
1001
ACAD
1000
MTEXTBEGIN
1070
    73
1070
     2
1070
    44
1040
0.903614
1000
MTEXTEND
1000
ACAD_MTEXT_DEFINED_HEIGHT_BEGIN
1070
    46
1040
0.2
1000
ACAD_MTEXT_DEFINED_HEIGHT_END
  0
MTEXT
  5
165
330
1F
100
AcDbEntity
  8
256
  6
CONTINUOUS
 62
     3
100
AcDbMText
 10
279.47946
 20
55.126635
 30
0.0
 40
1.5
 41
0.0
 71
     7
 72
     5
  1
\W00.795;\Q20.000000;HARDNESS\Q0; 
  7
DEFAULT
1001
ACAD
1000
MTEXTBEGIN
1070
    73
1070
     2
1070
    44
1040
0.903614
1000
MTEXTEND
1000
ACAD_MTEXT_DEFINED_HEIGHT_BEGIN
1070
    46
1040
0.2
1000
ACAD_MTEXT_DEFINED_HEIGHT_END
  0
MTEXT
  5
166
330
1F
100
AcDbEntity
  8
255
  6
CONTINUOUS
 62
     2
100
AcDbMText
 10
231.342694
 20
12.93072
 30
0.0
 40
6.0
 41
0.0
 71
     7
 72
     5
  1
\W00.928;1:1 
  7
DEFAULT
1001
ACAD
1000
MTEXTBEGIN
1070
    73
1070
     2
1070
    44
1040
0.903614
1000
MTEXTEND
1000
ACAD_MTEXT_DEFINED_HEIGHT_BEGIN
1070
    46
1040
0.2
1000
ACAD_MTEXT_DEFINED_HEIGHT_END
  0
MTEXT
  5
167
330
1F
100
AcDbEntity
  8
256
  6
CONTINUOUS
 62
     3
100
AcDbMText
 10
336.29453
 20
45.38736
 30
0.0
 40
1.4
 41
0.0
 71
     7
 72
     5
  1
\W00.746;\Q20.000000;signature\Q0; 
  7
DEFAULT
1001
ACAD
1000
MTEXTBEGIN
1070
    73
1070
     2
1070
    44
1040
0.903614
1000
MTEXTEND
1000
ACAD_MTEXT_DEFINED_HEIGHT_BEGIN
1070
    46
1040
0.2
1000
ACAD_MTEXT_DEFINED_HEIGHT_END
  0
MTEXT
  5
168
330
1F
100
AcDbEntity
  8
256
  6
CONTINUOUS
 62
     3
100
AcDbMText
 10
326.17134
 20
59.316586
 30
0.0
 40
1.5
 41
0.0
 71
     7
 72
     5
  1
\W00.819;RADIOS 
  7
DEFAULT
1001
ACAD
1000
MTEXTBEGIN
1070
    73
1070
     2
1070
    44
1040
0.903614
1000
MTEXTEND
1000
ACAD_MTEXT_DEFINED_HEIGHT_BEGIN
1070
    46
1040
0.2
1000
ACAD_MTEXT_DEFINED_HEIGHT_END
  0
MTEXT
  5
169
330
1F
100
AcDbEntity
  8
256
  6
CONTINUOUS
 62
     3
100
AcDbMText
 10
269.1176
 20
48.306201
 30
0.0
 40
1.4
 41
0.0
 71
     7
 72
     5
  1
\W00.688;anula y sustituye a los precedentes fecha 
  7
DEFAULT
1001
ACAD
1000
MTEXTBEGIN
1070
    73
1070
     2
1070
    44
1040
0.903614
1000
MTEXTEND
1000
ACAD_MTEXT_DEFINED_HEIGHT_BEGIN
1070
    46
1040
0.2
1000
ACAD_MTEXT_DEFINED_HEIGHT_END
  0
MTEXT
  5
16A
330
1F
100
AcDbEntity
  8
256
  6
CONTINUOUS
 62
     3
100
AcDbMText
 10
314.901997
 20
68.028016
 30
0.0
 40
1.5
 41
0.0
 71
     7
 72
     5
  1
\W00.701;- 
  7
BLOCKFONT
1001
ACAD
1000
MTEXTBEGIN
1070
    73
1070
     2
1070
    44
1040
0.903614
1000
MTEXTEND
1000
ACAD_MTEXT_DEFINED_HEIGHT_BEGIN
1070
    46
1040
0.2
1000
ACAD_MTEXT_DEFINED_HEIGHT_END
  0
MTEXT
  5
16B
330
1F
100
AcDbEntity
  8
256
  6
CONTINUOUS
 62
     3
100
AcDbMText
 10
305.617997
 20
68.747216
 30
0.0
 40
1.5
 41
0.0
 71
     7
 72
     5
  1
\W00.701;- 
  7
BLOCKFONT
1001
ACAD
1000
MTEXTBEGIN
1070
    73
1070
     2
1070
    44
1040
0.903614
1000
MTEXTEND
1000
ACAD_MTEXT_DEFINED_HEIGHT_BEGIN
1070
    46
1040
0.2
1000
ACAD_MTEXT_DEFINED_HEIGHT_END
  0
MTEXT
  5
16C
330
1F
100
AcDbEntity
  8
256
  6
CONTINUOUS
 62
     3
100
AcDbMText
 10
384.51877
 20
32.651717
 30
0.0
 40
1.5
 41
0.0
 71
     7
 72
     5
  1
\W00.778;\Q20.000000;SUBSTITUTED BY\Q0; 
  7
DEFAULT
1001
ACAD
1000
MTEXTBEGIN
1070
    73
1070
     2
1070
    44
1040
0.903614
1000
MTEXTEND
1000
ACAD_MTEXT_DEFINED_HEIGHT_BEGIN
1070
    46
1040
0.2
1000
ACAD_MTEXT_DEFINED_HEIGHT_END
  0
MTEXT
  5
16D
330
1F
100
AcDbEntity
  8
256
  6
CONTINUOUS
 62
     3
100
AcDbMText
 10
245.278503
 20
60.490742
 30
0.0
 40
3.0
 41
0.0
 71
     7
 72
     5
  1
\W01.000; 
  7
DEFAULT
1001
ACAD
1000
MTEXTBEGIN
1070
    73
1070
     2
1070
    44
1040
0.903614
1000
MTEXTEND
1000
ACAD_MTEXT_DEFINED_HEIGHT_BEGIN
1070
    46
1040
0.2
1000
ACAD_MTEXT_DEFINED_HEIGHT_END
  0
MTEXT
  5
16E
330
1F
100
AcDbEntity
  8
256
  6
CONTINUOUS
 62
     3
100
AcDbMText
 10
305.382147
 20
69.798016
 30
0.0
 40
1.5
 41
0.0
 71
     7
 72
     5
  1
\W00.273;. 
  7
BLOCKFONT
1001
ACAD
1000
MTEXTBEGIN
1070
    73
1070
     2
1070
    44
1040
0.903614
1000
MTEXTEND
1000
ACAD_MTEXT_DEFINED_HEIGHT_BEGIN
1070
    46
1040
0.2
1000
ACAD_MTEXT_DEFINED_HEIGHT_END
  0
MTEXT
  5
16F
330
1F
100
AcDbEntity
  8
256
  6
CONTINUOUS
 62
     3
100
AcDbMText
 10
225.6298
 20
66.936464
 30
0.0
 40
1.5
 41
0.0
 71
     7
 72
     5
  1
\W00.757;\Q20.000000;FINISH / TREATMENT\Q0; 
  7
DEFAULT
1001
ACAD
1000
MTEXTBEGIN
1070
    73
1070
     2
1070
    44
1040
0.903614
1000
MTEXTEND
1000
ACAD_MTEXT_DEFINED_HEIGHT_BEGIN
1070
    46
1040
0.2
1000
ACAD_MTEXT_DEFINED_HEIGHT_END
  0
MTEXT
  5
170
330
1F
100
AcDbEntity
  8
255
  6
CONTINUOUS
 62
     3
100
AcDbMText
 10
250.04089
 20
52.115912
 30
0.0
 40
3.0
 41
0.0
 71
     7
 72
     5
  1
\W00.727;C. Alvarez 
  7
DEFAULT
1001
ACAD
1000
MTEXTBEGIN
1070
    73
1070
     2
1070
    44
1040
0.903614
1000
MTEXTEND
1000
ACAD_MTEXT_DEFINED_HEIGHT_BEGIN
1070
    46
1040
0.2
1000
ACAD_MTEXT_DEFINED_HEIGHT_END
  0
MTEXT
  5
171
330
1F
100
AcDbEntity
  8
256
  6
CONTINUOUS
 62
     3
100
AcDbMText
 10
235.209972
 20
37.729159
 30
0.0
 40
3.0
 41
0.0
 71
     8
 72
     5
  1
\W00.693;V.B.  
  7
DEFAULT
1001
ACAD
1000
MTEXTBEGIN
1070
    73
1070
     2
1070
    44
1040
0.903614
1000
MTEXTEND
1000
ACAD_MTEXT_DEFINED_HEIGHT_BEGIN
1070
    46
1040
0.2
1000
ACAD_MTEXT_DEFINED_HEIGHT_END
  0
MTEXT
  5
172
330
1F
100
AcDbEntity
  8
255
  6
CONTINUOUS
 62
     3
100
AcDbMText
 10
249.88392
 20
45.444772
 30
0.0
 40
3.0
 41
0.0
 71
     7
 72
     5
  1
\W00.727;C. Alvarez 
  7
DEFAULT
1001
ACAD
1000
MTEXTBEGIN
1070
    73
1070
     2
1070
    44
1040
0.903614
1000
MTEXTEND
1000
ACAD_MTEXT_DEFINED_HEIGHT_BEGIN
1070
    46
1040
0.2
1000
ACAD_MTEXT_DEFINED_HEIGHT_END
  0
MTEXT
  5
173
330
1F
100
AcDbEntity
  8
256
  6
CONTINUOUS
 62
     3
100
AcDbMText
 10
314.901997
 20
58.448016
 30
0.0
 40
1.5
 41
0.0
 71
     7
 72
     5
  1
\W00.701;- 
  7
BLOCKFONT
1001
ACAD
1000
MTEXTBEGIN
1070
    73
1070
     2
1070
    44
1040
0.903614
1000
MTEXTEND
1000
ACAD_MTEXT_DEFINED_HEIGHT_BEGIN
1070
    46
1040
0.2
1000
ACAD_MTEXT_DEFINED_HEIGHT_END
  0
MTEXT
  5
174
330
1F
100
AcDbEntity
  8
256
  6
CONTINUOUS
 62
     3
100
AcDbMText
 10
233.600858
 20
52.763642
 30
0.0
 40
1.5
 41
0.0
 71
     8
 72
     5
  1
\W00.819;\Q20.000000;DRAWN\Q0; 
  7
DEFAULT
1001
ACAD
1000
MTEXTBEGIN
1070
    73
1070
     2
1070
    44
1040
0.903614
1000
MTEXTEND
1000
ACAD_MTEXT_DEFINED_HEIGHT_BEGIN
1070
    46
1040
0.2
1000
ACAD_MTEXT_DEFINED_HEIGHT_END
  0
MTEXT
  5
175
330
1F
100
AcDbEntity
  8
256
  6
CONTINUOUS
 62
     3
100
AcDbMText
 10
270.954666
 20
68.776001
 30
0.0
 40
1.7
 41
0.0
 71
     7
 72
     5
  1
\W00.735;agujeros/holes 
  7
DEFAULT
1001
ACAD
1000
MTEXTBEGIN
1070
    73
1070
     2
1070
    44
1040
0.903614
1000
MTEXTEND
1000
ACAD_MTEXT_DEFINED_HEIGHT_BEGIN
1070
    46
1040
0.2
1000
ACAD_MTEXT_DEFINED_HEIGHT_END
  0
MTEXT
  5
176
330
1F
100
AcDbEntity
  8
256
  6
CONTINUOUS
 62
     3
100
AcDbMText
 10
269.155
 20
40.400244
 30
0.0
 40
1.5
 41
0.0
 71
     7
 72
     5
  1
\W00.789;DENOMINACION/ 
  7
DEFAULT
1001
ACAD
1000
MTEXTBEGIN
1070
    73
1070
     2
1070
    44
1040
0.903614
1000
MTEXTEND
1000
ACAD_MTEXT_DEFINED_HEIGHT_BEGIN
1070
    46
1040
0.2
1000
ACAD_MTEXT_DEFINED_HEIGHT_END
  0
MTEXT
  5
177
330
1F
100
AcDbEntity
  8
256
  6
CONTINUOUS
 62
     3
100
AcDbMText
 10
238.356613
 20
77.001059
 30
0.0
 40
1.7
 41
0.0
 71
     8
 72
     5
  1
\W00.798;\Q20.000000;COLOUR\Q0; 
  7
DEFAULT
1001
ACAD
1000
MTEXTBEGIN
1070
    73
1070
     2
1070
    44
1040
0.903614
1000
MTEXTEND
1000
ACAD_MTEXT_DEFINED_HEIGHT_BEGIN
1070
    46
1040
0.2
1000
ACAD_MTEXT_DEFINED_HEIGHT_END
  0
MTEXT
  5
178
330
1F
100
AcDbEntity
  8
256
  6
CONTINUOUS
 62
     3
100
AcDbMText
 10
305.382147
 20
65.138016
 30
0.0
 40
1.5
 41
0.0
 71
     7
 72
     5
  1
\W00.273;. 
  7
BLOCKFONT
1001
ACAD
1000
MTEXTBEGIN
1070
    73
1070
     2
1070
    44
1040
0.903614
1000
MTEXTEND
1000
ACAD_MTEXT_DEFINED_HEIGHT_BEGIN
1070
    46
1040
0.2
1000
ACAD_MTEXT_DEFINED_HEIGHT_END
  0
MTEXT
  5
179
330
1F
100
AcDbEntity
  8
256
  6
CONTINUOUS
 62
     3
100
AcDbMText
 10
290.914666
 20
63.906001
 30
0.0
 40
1.7
 41
0.0
 71
     7
 72
     5
  1
\W00.919;h 
  7
DEFAULT
1001
ACAD
1000
MTEXTBEGIN
1070
    73
1070
     2
1070
    44
1040
0.903614
1000
MTEXTEND
1000
ACAD_MTEXT_DEFINED_HEIGHT_BEGIN
1070
    46
1040
0.2
1000
ACAD_MTEXT_DEFINED_HEIGHT_END
  0
MTEXT
  5
17A
330
1F
100
AcDbEntity
  8
256
  6
CONTINUOUS
 62
     3
100
AcDbMText
 10
354.80185
 20
56.431485
 30
0.0
 40
3.5
 41
0.0
 71
     7
 72
     5
  1
\W01.000; 
  7
DEFAULT
1001
ACAD
1000
MTEXTBEGIN
1070
    73
1070
     2
1070
    44
1040
0.903614
1000
MTEXTEND
1000
ACAD_MTEXT_DEFINED_HEIGHT_BEGIN
1070
    46
1040
0.2
1000
ACAD_MTEXT_DEFINED_HEIGHT_END
  0
MTEXT
  5
17B
330
1F
100
AcDbEntity
  8
256
  6
CONTINUOUS
 62
     3
100
AcDbMText
 10
314.901997
 20
69.298016
 30
0.0
 40
1.5
 41
0.0
 71
     7
 72
     5
  1
\W00.701;+ 
  7
BLOCKFONT
1001
ACAD
1000
MTEXTBEGIN
1070
    73
1070
     2
1070
    44
1040
0.903614
1000
MTEXTEND
1000
ACAD_MTEXT_DEFINED_HEIGHT_BEGIN
1070
    46
1040
0.2
1000
ACAD_MTEXT_DEFINED_HEIGHT_END
  0
MTEXT
  5
17C
330
1F
100
AcDbEntity
  8
256
  6
CONTINUOUS
 62
     3
100
AcDbMText
 10
246.379012
 20
72.649
 30
0.0
 40
2.5
 41
0.0
 71
     7
 72
     5
  1
\W01.000; 
  7
DEFAULT
1001
ACAD
1000
MTEXTBEGIN
1070
    73
1070
     2
1070
    44
1040
0.903614
1000
MTEXTEND
1000
ACAD_MTEXT_DEFINED_HEIGHT_BEGIN
1070
    46
1040
0.2
1000
ACAD_MTEXT_DEFINED_HEIGHT_END
  0
MTEXT
  5
17D
330
1F
100
AcDbEntity
  8
256
  6
CONTINUOUS
 62
     3
100
AcDbMText
 10
229.32129
 20
77.090745
 30
0.0
 40
1.7
 41
0.0
 71
     8
 72
     5
  1
\W00.776;COLOR/ 
  7
DEFAULT
1001
ACAD
1000
MTEXTBEGIN
1070
    73
1070
     2
1070
    44
1040
0.903614
1000
MTEXTEND
1000
ACAD_MTEXT_DEFINED_HEIGHT_BEGIN
1070
    46
1040
0.2
1000
ACAD_MTEXT_DEFINED_HEIGHT_END
  0
MTEXT
  5
17E
330
1F
100
AcDbEntity
  8
256
  6
CONTINUOUS
 62
     3
100
AcDbMText
 10
366.65916
 20
40.260901
 30
0.0
 40
1.5
 41
0.0
 71
     7
 72
     5
  1
\W00.776;SUSTITUYE A/ 
  7
DEFAULT
1001
ACAD
1000
MTEXTBEGIN
1070
    73
1070
     2
1070
    44
1040
0.903614
1000
MTEXTEND
1000
ACAD_MTEXT_DEFINED_HEIGHT_BEGIN
1070
    46
1040
0.2
1000
ACAD_MTEXT_DEFINED_HEIGHT_END
  0
MTEXT
  5
17F
330
1F
100
AcDbEntity
  8
256
  6
CONTINUOUS
 62
     3
100
AcDbMText
 10
229.092715
 20
24.484486
 30
0.0
 40
1.5
 41
0.0
 71
     7
 72
     5
  1
\W00.799;ESCALA/ 
  7
DEFAULT
1001
ACAD
1000
MTEXTBEGIN
1070
    73
1070
     2
1070
    44
1040
0.903614
1000
MTEXTEND
1000
ACAD_MTEXT_DEFINED_HEIGHT_BEGIN
1070
    46
1040
0.2
1000
ACAD_MTEXT_DEFINED_HEIGHT_END
  0
MTEXT
  5
180
330
1F
100
AcDbEntity
  8
256
  6
CONTINUOUS
 62
     3
100
AcDbMText
 10
289.094349
 20
76.683737
 30
0.0
 40
1.5
 41
0.0
 71
     7
 72
     5
  1
\W00.769;COTAS SIN TOLERANCIA 
  7
DEFAULT
1001
ACAD
1000
MTEXTBEGIN
1070
    73
1070
     2
1070
    44
1040
0.903614
1000
MTEXTEND
1000
ACAD_MTEXT_DEFINED_HEIGHT_BEGIN
1070
    46
1040
0.2
1000
ACAD_MTEXT_DEFINED_HEIGHT_END
  0
MTEXT
  5
181
330
1F
100
AcDbEntity
  8
256
  6
CONTINUOUS
 62
     3
100
AcDbMText
 10
231.003064
 20
88.849003
 30
0.0
 40
1.5
 41
0.0
 71
     7
 72
     5
  1
\W00.729;\Q20.000000;\Q40.000000;\Q20.000000;PROPERTY OF J. FELIU DE LA PENYA, S.L. IT WILL NOT BE TOTALLY OR PARTIALLY  REPRODUCED\P NOR GIVEN TO THIRDS WITHOUT WRITTEN AUTHORIZATION\Q0;\Q0;\Q0; 
  7
DEFAULT
1001
ACAD
1000
MTEXTBEGIN
1070
    44
1040
0.903614
1000
MTEXTEND
1000
ACAD_MTEXT_DEFINED_HEIGHT_BEGIN
1070
    46
1040
0.2
1000
ACAD_MTEXT_DEFINED_HEIGHT_END
  0
MTEXT
  5
182
330
1F
100
AcDbEntity
  8
256
  6
CONTINUOUS
 62
     3
100
AcDbMText
 10
298.514728
 20
73.783401
 30
0.0
 40
1.5
 41
0.0
 71
     8
 72
     5
  1
\W00.771;\Q20.000000;DIMENSIONS WITHOUT TOLERANCE\Q0; 
  7
DEFAULT
1001
ACAD
1000
MTEXTBEGIN
1070
    73
1070
     2
1070
    44
1040
0.903614
1000
MTEXTEND
1000
ACAD_MTEXT_DEFINED_HEIGHT_BEGIN
1070
    46
1040
0.2
1000
ACAD_MTEXT_DEFINED_HEIGHT_END
  0
MTEXT
  5
183
330
1F
100
AcDbEntity
  8
256
  6
CONTINUOUS
 62
     3
100
AcDbMText
 10
305.402147
 20
64.348016
 30
0.0
 40
1.5
 41
0.0
 71
     7
 72
     5
  1
\W00.273;. 
  7
BLOCKFONT
1001
ACAD
1000
MTEXTBEGIN
1070
    73
1070
     2
1070
    44
1040
0.903614
1000
MTEXTEND
1000
ACAD_MTEXT_DEFINED_HEIGHT_BEGIN
1070
    46
1040
0.2
1000
ACAD_MTEXT_DEFINED_HEIGHT_END
  0
MTEXT
  5
184
330
1F
100
AcDbEntity
  8
256
  6
CONTINUOUS
 62
     3
100
AcDbMText
 10
234.679196
 20
55.275157
 30
0.0
 40
1.5
 41
0.0
 71
     8
 72
     5
  1
\W00.809;DIBUJADO 
  7
DEFAULT
1001
ACAD
1000
MTEXTBEGIN
1070
    73
1070
     2
1070
    44
1040
0.903614
1000
MTEXTEND
1000
ACAD_MTEXT_DEFINED_HEIGHT_BEGIN
1070
    46
1040
0.2
1000
ACAD_MTEXT_DEFINED_HEIGHT_END
  0
MTEXT
  5
185
330
1F
100
AcDbEntity
  8
256
  6
CONTINUOUS
 62
     3
100
AcDbMText
 10
290.864666
 20
60.002635
 30
0.0
 40
1.5
 41
0.0
 71
     7
 72
     5
  1
\W00.925;+ 
  7
DEFAULT
1001
ACAD
1000
MTEXTBEGIN
1070
    73
1070
     2
1070
    44
1040
0.903614
1000
MTEXTEND
1000
ACAD_MTEXT_DEFINED_HEIGHT_BEGIN
1070
    46
1040
0.2
1000
ACAD_MTEXT_DEFINED_HEIGHT_END
  0
MTEXT
  5
186
330
1F
100
AcDbEntity
  8
256
  6
CONTINUOUS
 62
     3
100
AcDbMText
 10
270.884666
 20
59.182635
 30
0.0
 40
1.5
 41
0.0
 71
     7
 72
     5
  1
\W00.730;angular 
  7
DEFAULT
1001
ACAD
1000
MTEXTBEGIN
1070
    73
1070
     2
1070
    44
1040
0.903614
1000
MTEXTEND
1000
ACAD_MTEXT_DEFINED_HEIGHT_BEGIN
1070
    46
1040
0.2
1000
ACAD_MTEXT_DEFINED_HEIGHT_END
  0
MTEXT
  5
187
330
1F
100
AcDbEntity
  8
256
  6
CONTINUOUS
 62
     3
100
AcDbMText
 10
290.864666
 20
58.392635
 30
0.0
 40
1.5
 41
0.0
 71
     7
 72
     5
  1
\W00.612;- 
  7
DEFAULT
1001
ACAD
1000
MTEXTBEGIN
1070
    73
1070
     2
1070
    44
1040
0.903614
1000
MTEXTEND
1000
ACAD_MTEXT_DEFINED_HEIGHT_BEGIN
1070
    46
1040
0.2
1000
ACAD_MTEXT_DEFINED_HEIGHT_END
  0
MTEXT
  5
188
330
1F
100
AcDbEntity
  8
256
  6
CONTINUOUS
 62
     3
100
AcDbMText
 10
288.9728
 20
40.400244
 30
0.0
 40
1.5
 41
0.0
 71
     7
 72
     5
  1
\W00.812;\Q20.000000;DENOMINATION\Q0; 
  7
DEFAULT
1001
ACAD
1000
MTEXTBEGIN
1070
    73
1070
     2
1070
    44
1040
0.903614
1000
MTEXTEND
1000
ACAD_MTEXT_DEFINED_HEIGHT_BEGIN
1070
    46
1040
0.2
1000
ACAD_MTEXT_DEFINED_HEIGHT_END
  0
MTEXT
  5
189
330
1F
100
AcDbEntity
  8
256
  6
CONTINUOUS
 62
     3
100
AcDbMText
 10
326.17134
 20
51.581718
 30
0.0
 40
1.5
 41
0.0
 71
     7
 72
     5
  1
\W00.797;\Q20.000000;THICKNESS\Q0; 
  7
DEFAULT
1001
ACAD
1000
MTEXTBEGIN
1070
    73
1070
     2
1070
    44
1040
0.903614
1000
MTEXTEND
1000
ACAD_MTEXT_DEFINED_HEIGHT_BEGIN
1070
    46
1040
0.2
1000
ACAD_MTEXT_DEFINED_HEIGHT_END
  0
MTEXT
  5
18A
330
1F
100
AcDbEntity
  8
256
  6
CONTINUOUS
 62
     3
100
AcDbMText
 10
376.79999
 20
24.787301
 30
0.0
 40
1.5
 41
0.0
 71
     7
 72
     5
  1
\W00.794;\Q20.000000;CODE\Q0; 
  7
DEFAULT
1001
ACAD
1000
MTEXTBEGIN
1070
    73
1070
     2
1070
    44
1040
0.903614
1000
MTEXTEND
1000
ACAD_MTEXT_DEFINED_HEIGHT_BEGIN
1070
    46
1040
0.2
1000
ACAD_MTEXT_DEFINED_HEIGHT_END
  0
MTEXT
  5
18B
330
1F
100
AcDbEntity
  8
256
  6
CONTINUOUS
 62
     3
100
AcDbMText
 10
336.29453
 20
47.955865
 30
0.0
 40
1.4
 41
0.0
 71
     7
 72
     5
  1
\W00.766;firma 
  7
DEFAULT
1001
ACAD
1000
MTEXTBEGIN
1070
    73
1070
     2
1070
    44
1040
0.903614
1000
MTEXTEND
1000
ACAD_MTEXT_DEFINED_HEIGHT_BEGIN
1070
    46
1040
0.2
1000
ACAD_MTEXT_DEFINED_HEIGHT_END
  0
MTEXT
  5
18C
330
1F
100
AcDbEntity
  8
256
  6
CONTINUOUS
 62
     3
100
AcDbMText
 10
293.555666
 20
58.976001
 30
0.0
 40
1.7
 41
0.0
 71
     7
 72
     5
  1
\W01.402;1 
  7
DEFAULT
1001
ACAD
1000
MTEXTBEGIN
1070
    73
1070
     2
1070
    44
1040
0.903614
1000
MTEXTEND
1000
ACAD_MTEXT_DEFINED_HEIGHT_BEGIN
1070
    46
1040
0.2
1000
ACAD_MTEXT_DEFINED_HEIGHT_END
  0
MTEXT
  5
18D
330
1F
100
AcDbEntity
  8
256
  6
CONTINUOUS
 62
     3
100
AcDbMText
 10
235.568839
 20
82.36733
 30
0.0
 40
1.7
 41
0.0
 71
     8
 72
     5
  1
\W00.809;MATERIAL/\Q20.000000;MATERIAL\Q0;\P                                                                              
  7
DEFAULT
1001
ACAD
1000
MTEXTBEGIN
1070
    44
1040
0.903614
1000
MTEXTEND
1000
ACAD_MTEXT_DEFINED_HEIGHT_BEGIN
1070
    46
1040
0.2
1000
ACAD_MTEXT_DEFINED_HEIGHT_END
  0
MTEXT
  5
18E
330
1F
100
AcDbEntity
  8
256
  6
CONTINUOUS
 62
     2
100
AcDbMText
 10
378.959122
 20
57.84245
 30
0.0
 40
3.5
 41
0.0
 71
     7
 72
     5
  1
\W00.817;METRIC 
  7
DEFAULT
1001
ACAD
1000
MTEXTBEGIN
1070
    73
1070
     2
1070
    44
1040
0.903614
1000
MTEXTEND
1000
ACAD_MTEXT_DEFINED_HEIGHT_BEGIN
1070
    46
1040
0.2
1000
ACAD_MTEXT_DEFINED_HEIGHT_END
  0
MTEXT
  5
18F
330
1F
100
AcDbEntity
  8
256
  6
CONTINUOUS
 62
     3
100
AcDbMText
 10
234.733524
 20
32.781205
 30
0.0
 40
1.5
 41
0.0
 71
     8
 72
     5
  1
\W00.802;FECHA 
  7
DEFAULT
1001
ACAD
1000
MTEXTBEGIN
1070
    73
1070
     2
1070
    44
1040
0.903614
1000
MTEXTEND
1000
ACAD_MTEXT_DEFINED_HEIGHT_BEGIN
1070
    46
1040
0.2
1000
ACAD_MTEXT_DEFINED_HEIGHT_END
  0
MTEXT
  5
190
330
1F
100
AcDbEntity
  8
256
  6
CONTINUOUS
 62
     3
100
AcDbMText
 10
305.402147
 20
69.008016
 30
0.0
 40
1.5
 41
0.0
 71
     7
 72
     5
  1
\W00.273;. 
  7
BLOCKFONT
1001
ACAD
1000
MTEXTBEGIN
1070
    73
1070
     2
1070
    44
1040
0.903614
1000
MTEXTEND
1000
ACAD_MTEXT_DEFINED_HEIGHT_BEGIN
1070
    46
1040
0.2
1000
ACAD_MTEXT_DEFINED_HEIGHT_END
  0
MTEXT
  5
191
330
1F
100
AcDbEntity
  8
255
  6
CONTINUOUS
 62
     3
100
AcDbMText
 10
265.817221
 20
81.396148
 30
0.0
 40
3.5
 41
0.0
 71
     7
 72
     5
  1
\W00.725;Chapa galvanizada 
  7
DEFAULT
1001
ACAD
1000
MTEXTBEGIN
1070
    73
1070
     2
1070
    44
1040
0.903614
1000
MTEXTEND
1000
ACAD_MTEXT_DEFINED_HEIGHT_BEGIN
1070
    46
1040
0.2
1000
ACAD_MTEXT_DEFINED_HEIGHT_END
  0
MTEXT
  5
192
330
1F
100
AcDbEntity
  8
255
  6
CONTINUOUS
 62
     3
100
AcDbMText
 10
246.337168
 20
60.360606
 30
0.0
 40
3.5
 41
0.0
 71
     7
 72
     5
  1
\W00.760;Pintado 
  7
DEFAULT
1001
ACAD
1000
MTEXTBEGIN
1070
    73
1070
     2
1070
    44
1040
0.903614
1000
MTEXTEND
1000
ACAD_MTEXT_DEFINED_HEIGHT_BEGIN
1070
    46
1040
0.2
1000
ACAD_MTEXT_DEFINED_HEIGHT_END
  0
MTEXT
  5
193
330
1F
100
AcDbEntity
  8
255
  6
CONTINUOUS
 62
     3
100
AcDbMText
 10
366.98688
 20
15.787105
 30
0.0
 40
3.5
 41
0.0
 71
     7
 72
     5
  1
\W00.787;101523.1403.000 
  7
DEFAULT
1001
ACAD
1000
MTEXTBEGIN
1070
    73
1070
     2
1070
    44
1040
0.903614
1000
MTEXTEND
1000
ACAD_MTEXT_DEFINED_HEIGHT_BEGIN
1070
    46
1040
0.2
1000
ACAD_MTEXT_DEFINED_HEIGHT_END
  0
MTEXT
  5
194
330
1F
100
AcDbEntity
  8
255
  6
CONTINUOUS
 62
     3
100
AcDbMText
 10
311.936503
 20
44.697214
 30
0.0
 40
3.5
 41
0.0
 71
     7
 72
     5
  1
\W00.776;02/10/15 
  7
DEFAULT
1001
ACAD
1000
MTEXTBEGIN
1070
    73
1070
     2
1070
    44
1040
0.903614
1000
MTEXTEND
1000
ACAD_MTEXT_DEFINED_HEIGHT_BEGIN
1070
    46
1040
0.2
1000
ACAD_MTEXT_DEFINED_HEIGHT_END
  0
MTEXT
  5
195
330
1F
100
AcDbEntity
  8
255
  6
CONTINUOUS
 62
     3
100
AcDbMText
 10
345.500736
 20
44.697214
 30
0.0
 40
3.5
 41
0.0
 71
     7
 72
     5
  1
\W00.727;C. Alvarez 
  7
DEFAULT
1001
ACAD
1000
MTEXTBEGIN
1070
    73
1070
     2
1070
    44
1040
0.903614
1000
MTEXTEND
1000
ACAD_MTEXT_DEFINED_HEIGHT_BEGIN
1070
    46
1040
0.2
1000
ACAD_MTEXT_DEFINED_HEIGHT_END
  0
MTEXT
  5
196
330
1F
100
AcDbEntity
  8
255
  6
CONTINUOUS
 62
     3
100
AcDbMText
 10
281.519904
 20
112.3492
 30
0.0
 40
3.5
 41
0.0
 71
     7
 72
     5
  1
\W00.774;DESARROLLO PLANO 
  7
DEFAULT
1001
ACAD
1000
MTEXTBEGIN
1070
    73
1070
     2
1070
    44
1040
0.903614
1000
MTEXTEND
1000
ACAD_MTEXT_DEFINED_HEIGHT_BEGIN
1070
    46
1040
0.2
1000
ACAD_MTEXT_DEFINED_HEIGHT_END
  0
LINE
  5
197
330
1F
100
AcDbEntity
  8
255
  6
CENTER
 62
     3
100
AcDbLine
 10
192.680053
 20
235.831956
 30
0.0
 11
195.680053
 21
235.831956
 31
0.0
  0
LINE
  5
198
330
1F
100
AcDbEntity
  8
255
  6
CENTER
 62
     3
100
AcDbLine
 10
194.180053
 20
234.331956
 30
0.0
 11
194.180053
 21
237.331956
 31
0.0
  0
LINE
  5
199
330
1F
100
AcDbEntity
  8
255
  6
CENTER
 62
     3
100
AcDbLine
 10
80.711328
 20
190.331956
 30
0.0
 11
96.711328
 21
190.331956
 31
0.0
  0
LINE
  5
19A
330
1F
100
AcDbEntity
  8
255
  6
CENTER
 62
     3
100
AcDbLine
 10
88.711328
 20
182.331956
 30
0.0
 11
88.711328
 21
198.331956
 31
0.0
  0
MTEXT
  5
19B
102
{ACAD_REACTORS
330
220
102
}
330
1F
100
AcDbEntity
  8
255
  6
CONTINUOUS
 62
     3
100
AcDbMText
 10
178.299316
 20
254.573065
 30
0.0
 40
3.5
 41
0.0
 71
     7
 72
     5
  1
\W00.803;24,5 
  7
DEFAULT
1001
ACAD
1000
MTEXTBEGIN
1070
    73
1070
     2
1070
    44
1040
0.903614
1000
MTEXTEND
1000
ACAD_MTEXT_DEFINED_HEIGHT_BEGIN
1070
    46
1040
0.2
1000
ACAD_MTEXT_DEFINED_HEIGHT_END
  0
LINE
  5
19C
102
{ACAD_REACTORS
330
19F
102
}
330
1F
100
AcDbEntity
  8
255
  6
CONTINUOUS
 62
     3
 60
     1
100
AcDbLine
 10
194.180053
 20
253.989162
 30
0.0
 11
190.680057
 21
253.051339
 31
0.0
  0
LINE
  5
19D
102
{ACAD_REACTORS
330
19F
102
}
330
1F
100
AcDbEntity
  8
255
  6
CONTINUOUS
 62
     3
 60
     1
100
AcDbLine
 10
190.680057
 20
253.051339
 30
0.0
 11
190.68005
 21
254.926984
 31
0.0
  0
LINE
  5
19E
102
{ACAD_REACTORS
330
19F
102
}
330
1F
100
AcDbEntity
  8
255
  6
CONTINUOUS
 62
     3
 60
     1
100
AcDbLine
 10
190.68005
 20
254.926984
 30
0.0
 11
194.180053
 21
253.989162
 31
0.0
  0
HATCH
  5
19F
102
{ACAD_REACTORS
330
220
102
}
330
1F
100
AcDbEntity
  8
255
  6
CONTINUOUS
 62
     3
100
AcDbHatch
 10
0.0
 20
0.0
 30
0.0
210
0.0
220
0.0
230
1.0
  2
ANSI31
 70
     0
 71
     1
 91
        1
 92
        0
 93
        3
 72
     1
 10
194.180053125
 20
253.9891615976533
 11
190.6800565698132
 21
253.0513394241507
 72
     1
 10
190.6800565698132
 20
253.0513394241507
 11
190.6800496801868
 21
254.9269837711559
 72
     1
 10
190.6800496801868
 20
254.9269837711559
 11
194.180053125
 21
253.9891615976533
 97
        3
330
19C
330
19D
330
19E
 75
     0
 76
     0
 52
45.0
 41
0.02
 77
     0
 78
     1
 53
44.99999999999994
 43
0.0
 44
0.0
 45
-0.0141421356237309
 46
0.014142135623731
 79
     0
 98
        0
  0
LINE
  5
1A0
102
{ACAD_REACTORS
330
1A3
102
}
330
1F
100
AcDbEntity
  8
255
  6
CONTINUOUS
 62
     3
 60
     1
100
AcDbLine
 10
169.680053
 20
253.989162
 30
0.0
 11
173.18005
 21
254.926984
 31
0.0
  0
LINE
  5
1A1
102
{ACAD_REACTORS
330
1A3
102
}
330
1F
100
AcDbEntity
  8
255
  6
CONTINUOUS
 62
     3
 60
     1
100
AcDbLine
 10
173.18005
 20
254.926984
 30
0.0
 11
173.180057
 21
253.051339
 31
0.0
  0
LINE
  5
1A2
102
{ACAD_REACTORS
330
1A3
102
}
330
1F
100
AcDbEntity
  8
255
  6
CONTINUOUS
 62
     3
 60
     1
100
AcDbLine
 10
173.180057
 20
253.051339
 30
0.0
 11
169.680053
 21
253.989162
 31
0.0
  0
HATCH
  5
1A3
102
{ACAD_REACTORS
330
220
102
}
330
1F
100
AcDbEntity
  8
255
  6
CONTINUOUS
 62
     3
100
AcDbHatch
 10
0.0
 20
0.0
 30
0.0
210
0.0
220
0.0
230
1.0
  2
ANSI31
 70
     0
 71
     1
 91
        1
 92
        0
 93
        3
 72
     1
 10
169.680053125
 20
253.9891615976533
 11
173.1800496801868
 21
254.9269837711559
 72
     1
 10
173.1800496801868
 20
254.9269837711559
 11
173.1800565698132
 21
253.0513394241507
 72
     1
 10
173.1800565698132
 20
253.0513394241507
 11
169.680053125
 21
253.9891615976533
 97
        3
330
1A0
330
1A1
330
1A2
 75
     0
 76
     0
 52
45.0
 41
0.02
 77
     0
 78
     1
 53
44.99999999999992
 43
0.0
 44
0.0
 45
-0.0141421356237309
 46
0.014142135623731
 79
     0
 98
        0
  0
MTEXT
  5
1A4
102
{ACAD_REACTORS
330
221
102
}
330
1F
100
AcDbEntity
  8
255
  6
CONTINUOUS
 62
     3
100
AcDbMText
 10
167.010084
 20
212.334822
 30
0.0
 40
3.5
 41
0.0
 71
     7
 72
     5
  1
\W00.919;90%%d 
  7
DEFAULT
 11
0.7071067811865424
 21
-0.7071067811865527
 31
0.0
1001
ACAD
1000
MTEXTBEGIN
1070
    73
1070
     2
1070
    44
1040
0.903614
1000
MTEXTEND
1000
ACAD_MTEXT_DEFINED_HEIGHT_BEGIN
1070
    46
1040
0.2
1000
ACAD_MTEXT_DEFINED_HEIGHT_END
  0
LINE
  5
1A5
102
{ACAD_REACTORS
330
1A8
102
}
330
1F
100
AcDbEntity
  8
255
  6
CONTINUOUS
 62
     3
 60
     1
100
AcDbLine
 10
194.680053
 20
199.213894
 30
0.0
 11
191.158938
 21
198.35877
 31
0.0
  0
LINE
  5
1A6
102
{ACAD_REACTORS
330
1A8
102
}
330
1F
100
AcDbEntity
  8
255
  6
CONTINUOUS
 62
     3
 60
     1
100
AcDbLine
 10
191.158938
 20
198.35877
 30
0.0
 11
191.20311
 21
200.233894
 31
0.0
  0
LINE
  5
1A7
102
{ACAD_REACTORS
330
1A8
102
}
330
1F
100
AcDbEntity
  8
255
  6
CONTINUOUS
 62
     3
 60
     1
100
AcDbLine
 10
191.20311
 20
200.233894
 30
0.0
 11
194.680053
 21
199.213894
 31
0.0
  0
HATCH
  5
1A8
102
{ACAD_REACTORS
330
221
102
}
330
1F
100
AcDbEntity
  8
255
  6
CONTINUOUS
 62
     3
100
AcDbHatch
 10
0.0
 20
0.0
 30
0.0
210
0.0
220
0.0
230
1.0
  2
ANSI31
 70
     0
 71
     1
 91
        1
 92
        0
 93
        3
 72
     1
 10
194.680053125
 20
199.2138938057969
 11
191.1589382888532
 21
198.3587700567991
 72
     1
 10
191.1589382888532
 20
198.3587700567991
 11
191.203109966996
 21
200.2338942071823
 72
     1
 10
191.203109966996
 20
200.2338942071823
 11
194.680053125
 21
199.2138938057969
 97
        3
330
1A5
330
1A6
330
1A7
 75
     0
 76
     0
 52
45.0
 41
0.02
 77
     0
 78
     1
 53
44.99999999999994
 43
0.0
 44
0.0
 45
-0.0141421356237309
 46
0.014142135623731
 79
     0
 98
        0
  0
LINE
  5
1A9
102
{ACAD_REACTORS
330
1AC
102
}
330
1F
100
AcDbEntity
  8
255
  6
CONTINUOUS
 62
     3
 60
     1
100
AcDbLine
 10
157.561991
 20
236.331956
 30
0.0
 11
158.581992
 21
232.855019
 31
0.0
  0
LINE
  5
1AA
102
{ACAD_REACTORS
330
1AC
102
}
330
1F
100
AcDbEntity
  8
255
  6
CONTINUOUS
 62
     3
 60
     1
100
AcDbLine
 10
158.581992
 20
232.855019
 30
0.0
 11
156.706868
 21
232.810834
 31
0.0
  0
LINE
  5
1AB
102
{ACAD_REACTORS
330
1AC
102
}
330
1F
100
AcDbEntity
  8
255
  6
CONTINUOUS
 62
     3
 60
     1
100
AcDbLine
 10
156.706868
 20
232.810834
 30
0.0
 11
157.561991
 21
236.331956
 31
0.0
  0
HATCH
  5
1AC
102
{ACAD_REACTORS
330
221
102
}
330
1F
100
AcDbEntity
  8
255
  6
CONTINUOUS
 62
     3
100
AcDbHatch
 10
0.0
 20
0.0
 30
0.0
210
0.0
220
0.0
230
1.0
  2
ANSI31
 70
     0
 71
     1
 91
        1
 92
        0
 93
        3
 72
     1
 10
157.5619913833163
 20
236.3319555474806
 11
158.5819916224248
 21
232.8550192771916
 72
     1
 10
158.5819916224248
 20
232.8550192771916
 11
156.7068677965955
 21
232.8108338236188
 72
     1
 10
156.7068677965955
 20
232.8108338236188
 11
157.5619913833163
 21
236.3319555474806
 97
        3
330
1A9
330
1AA
330
1AB
 75
     0
 76
     0
 52
45.0
 41
0.02
 77
     0
 78
     1
 53
44.99999999999992
 43
0.0
 44
0.0
 45
-0.0141421356237309
 46
0.014142135623731
 79
     0
 98
        0
  0
DIMENSION
  5
1B6
330
1F
100
AcDbEntity
  8
255
  6
CONTINUOUS
 62
     3
100
AcDbDimension
  2
DIMNDRAFT3D1
 10
194.680053
 20
151.203276
 30
0.0
 11
183.665589
 21
151.203276
 31
0.0
 70
   160
  1
\C3;2,5
  3
STANDARD
100
AcDbAlignedDimension
 13
197.180053
 23
167.831956
 33
0.0
 14
194.680053
 24
167.831956
 34
0.0
100
AcDbRotatedDimension
1001
ACAD
1000
DSTYLE
1002
{
1070
   287
1070
     3
1070
     7
1000

1070
     6
1000

1070
   279
1070
     0
1070
   172
1070
     1
1070
   173
1070
     1
1070
   340
1005
131
1070
   271
1070
     1
1070
   272
1070
     2
1070
    77
1070
     1
1070
    73
1070
     0
1070
   171
1070
     3
1070
   274
1070
     4
1070
   177
1070
     3
1070
   176
1070
     3
1070
   178
1070
     3
1070
    48
1040
-0.005
1070
    41
1041
3.5
1070
   147
1041
1.75
1070
    42
1041
0.0
1070
    44
1041
2.0
1070
   140
1041
3.5
1002
}
  0
DIMENSION
  5
1C0
330
1F
100
AcDbEntity
  8
255
  6
CONTINUOUS
 62
     3
100
AcDbDimension
  2
DIMNDRAFT3D2
 10
279.576305
 20
126.875838
 30
0.0
 11
264.830053
 21
126.875838
 31
0.0
 70
   160
  1
\C3;29,5
  3
STANDARD
100
AcDbAlignedDimension
 13
250.083802
 23
147.25065
 33
0.0
 14
279.576305
 24
147.25065
 34
0.0
100
AcDbRotatedDimension
1001
ACAD
1000
DSTYLE
1002
{
1070
   287
1070
     3
1070
     7
1000

1070
     6
1000

1070
   279
1070
     0
1070
   172
1070
     1
1070
   173
1070
     1
1070
   340
1005
131
1070
   271
1070
     1
1070
   272
1070
     2
1070
    77
1070
     1
1070
    73
1070
     0
1070
   171
1070
     3
1070
   274
1070
     4
1070
   177
1070
     3
1070
   176
1070
     3
1070
   178
1070
     3
1070
    48
1040
-0.005
1070
    41
1041
3.5
1070
   147
1041
1.75
1070
    42
1041
0.0
1070
    44
1041
2.0
1070
   140
1041
3.5
1002
}
  0
INSERT
  5
1CA
330
1F
100
AcDbEntity
  8
255
  6
CONTINUOUS
 62
     3
100
AcDbBlockReference
  2
DIMNDRAFT3D33
 10
0.0
 20
0.0
 30
0.0
  0
INSERT
  5
1D4
330
1F
100
AcDbEntity
  8
255
  6
CONTINUOUS
 62
     3
100
AcDbBlockReference
  2
DIMNDRAFT3D44
 10
0.0
 20
0.0
 30
0.0
  0
DIMENSION
  5
1DD
330
1F
100
AcDbEntity
  8
255
  6
CONTINUOUS
 62
     3
100
AcDbDimension
  2
DIMNDRAFT3D5
 10
266.662593
 20
164.932512
 30
0.0
 11
242.161498
 21
186.900254
 31
0.0
 70
   163
  1
\C3;%%c 6
  3
STANDARD
100
AcDbDiametricDimension
 15
261.890016
 25
168.568789
 35
0.0
 40
0.0
1001
ACAD
1000
DSTYLE
1002
{
1070
   287
1070
     3
1070
     7
1000

1070
     6
1000

1070
   172
1070
     1
1070
   279
1070
     0
1070
   173
1070
     1
1070
   340
1005
131
1070
    75
1070
     1
1070
    76
1070
     1
1070
   271
1070
     0
1070
   272
1070
     2
1070
    77
1070
     1
1070
    73
1070
     0
1070
   171
1070
     3
1070
   274
1070
     4
1070
   177
1070
     3
1070
   176
1070
     3
1070
   178
1070
     3
1070
    48
1040
-0.005
1070
    41
1041
3.5
1070
   147
1041
1.75
1070
    42
1041
0.0
1070
    44
1041
2.0
1070
   140
1041
3.5
1002
}
  0
DIMENSION
  5
1E7
330
1F
100
AcDbEntity
  8
255
  6
CONTINUOUS
 62
     3
100
AcDbDimension
  2
DIMNDRAFT3D6
 10
278.642632
 20
160.962394
 30
0.0
 11
263.147353
 21
193.009879
 31
0.0
 70
   163
  1
\C3;%%c 5,3
  3
STANDARD
100
AcDbDiametricDimension
 15
275.989974
 25
165.550793
 35
0.0
 40
0.0
1001
ACAD
1000
DSTYLE
1002
{
1070
   287
1070
     3
1070
     7
1000

1070
     6
1000

1070
   172
1070
     1
1070
   279
1070
     0
1070
   173
1070
     1
1070
   340
1005
131
1070
    75
1070
     1
1070
    76
1070
     1
1070
   271
1070
     1
1070
   272
1070
     2
1070
    77
1070
     1
1070
    73
1070
     0
1070
   171
1070
     3
1070
   274
1070
     4
1070
   177
1070
     3
1070
   176
1070
     3
1070
   178
1070
     3
1070
    48
1040
-0.005
1070
    41
1041
3.5
1070
   147
1041
1.75
1070
    42
1041
0.0
1070
    44
1041
2.0
1070
   140
1041
3.5
1002
}
  0
DIMENSION
  5
1F1
330
1F
100
AcDbEntity
  8
255
  6
CONTINUOUS
 62
     3
100
AcDbDimension
  2
DIMNDRAFT3D7
 10
328.847045
 20
222.031956
 30
0.0
 11
328.847045
 21
226.331956
 31
0.0
 70
   160
  1
\C3;8,6
  3
STANDARD
100
AcDbAlignedDimension
 13
299.288364
 23
230.631956
 33
0.0
 14
296.277305
 24
222.031956
 34
0.0
 50
90.0
100
AcDbRotatedDimension
1001
ACAD
1000
DSTYLE
1002
{
1070
   287
1070
     3
1070
     7
1000

1070
     6
1000

1070
    74
1070
     0
1070
   279
1070
     0
1070
   172
1070
     1
1070
   173
1070
     1
1070
   340
1005
131
1070
   271
1070
     1
1070
   272
1070
     2
1070
    77
1070
     1
1070
    73
1070
     0
1070
   171
1070
     3
1070
   274
1070
     4
1070
   177
1070
     3
1070
   176
1070
     3
1070
   178
1070
     3
1070
    48
1040
-0.005
1070
    41
1041
3.5
1070
   147
1041
1.75
1070
    42
1041
0.0
1070
    44
1041
2.0
1070
   140
1041
3.5
1002
}
  0
DIMENSION
  5
1FB
330
1F
100
AcDbEntity
  8
255
  6
CONTINUOUS
 62
     3
100
AcDbDimension
  2
DIMNDRAFT3D8
 10
225.607314
 20
147.25065
 30
0.0
 11
225.607314
 21
151.916026
 31
0.0
 70
   160
  1
\C3;9,3
  3
STANDARD
100
AcDbAlignedDimension
 13
250.083802
 23
156.581402
 33
0.0
 14
250.083802
 24
147.25065
 34
0.0
 50
90.0
100
AcDbRotatedDimension
1001
ACAD
1000
DSTYLE
1002
{
1070
   287
1070
     3
1070
     7
1000

1070
     6
1000

1070
    74
1070
     0
1070
   279
1070
     0
1070
   172
1070
     1
1070
   173
1070
     1
1070
   340
1005
131
1070
   271
1070
     1
1070
   272
1070
     2
1070
    77
1070
     1
1070
    73
1070
     0
1070
   171
1070
     3
1070
   274
1070
     4
1070
   177
1070
     3
1070
   176
1070
     3
1070
   178
1070
     3
1070
    48
1040
-0.005
1070
    41
1041
3.5
1070
   147
1041
1.75
1070
    42
1041
0.0
1070
    44
1041
2.0
1070
   140
1041
3.5
1002
}
  0
DIMENSION
  5
203
330
1F
100
AcDbEntity
  8
255
  6
CONTINUOUS
 62
     3
100
AcDbDimension
  2
DIMNDRAFT3D9
 10
289.634169
 20
160.25065
 30
0.0
 11
301.361426
 21
143.073366
 31
0.0
 70
   164
  1
\C3;R 10
  3
STANDARD
100
AcDbRadialDimension
 15
294.557727
 25
151.54671
 35
0.0
 40
0.0
1001
ACAD
1000
DSTYLE
1002
{
1070
   287
1070
     3
1070
     7
1000

1070
     6
1000

1070
   279
1070
     0
1070
   173
1070
     1
1070
   340
1005
131
1070
    75
1070
     1
1070
    76
1070
     1
1070
   271
1070
     0
1070
   272
1070
     2
1070
    77
1070
     1
1070
    73
1070
     0
1070
   171
1070
     3
1070
   274
1070
     4
1070
   177
1070
     3
1070
   176
1070
     3
1070
   178
1070
     3
1070
    48
1040
-0.005
1070
    41
1041
3.5
1070
   147
1041
1.75
1070
    42
1041
0.0
1070
    44
1041
2.0
1070
   140
1041
3.5
1002
}
  0
DIMENSION
  5
20C
330
1F
100
AcDbEntity
  8
255
  6
CONTINUOUS
 62
     3
100
AcDbDimension
  2
DIMNDRAFT3D10
 10
298.776305
 20
169.392786
 30
0.0
 11
317.618725
 21
157.694227
 31
0.0
 70
   164
  1
\C3;R 10
  3
STANDARD
100
AcDbRadialDimension
 15
306.829361
 25
163.464187
 35
0.0
 40
0.0
1001
ACAD
1000
DSTYLE
1002
{
1070
   287
1070
     3
1070
     7
1000

1070
     6
1000

1070
   279
1070
     0
1070
   173
1070
     1
1070
   340
1005
131
1070
    75
1070
     1
1070
    76
1070
     1
1070
   271
1070
     0
1070
   272
1070
     2
1070
    77
1070
     1
1070
    73
1070
     0
1070
   171
1070
     3
1070
   274
1070
     4
1070
   177
1070
     3
1070
   176
1070
     3
1070
   178
1070
     3
1070
    48
1040
-0.005
1070
    41
1041
3.5
1070
   147
1041
1.75
1070
    42
1041
0.0
1070
    44
1041
2.0
1070
   140
1041
3.5
1002
}
  0
DIMENSION
  5
214
330
1F
100
AcDbEntity
  8
255
  6
CONTINUOUS
 62
     3
100
AcDbDimension
  2
DIMNDRAFT3D11
 10
296.276305
 20
226.331956
 30
0.0
 11
311.450296
 21
248.975279
 31
0.0
 70
   164
  1
\C3;R 12,5
  3
STANDARD
100
AcDbRadialDimension
 15
303.887264
 25
236.247766
 35
0.0
 40
0.0
1001
ACAD
1000
DSTYLE
1002
{
1070
   287
1070
     3
1070
     7
1000

1070
     6
1000

1070
   279
1070
     0
1070
   173
1070
     1
1070
   340
1005
131
1070
    75
1070
     1
1070
    76
1070
     1
1070
   271
1070
     1
1070
   272
1070
     2
1070
    77
1070
     1
1070
    73
1070
     0
1070
   171
1070
     3
1070
   274
1070
     4
1070
   177
1070
     3
1070
   176
1070
     3
1070
   178
1070
     3
1070
    48
1040
-0.005
1070
    41
1041
3.5
1070
   147
1041
1.75
1070
    42
1041
0.0
1070
    44
1041
2.0
1070
   140
1041
3.5
1002
}
  0
DIMENSION
  5
21F
330
1F
100
AcDbEntity
  8
255
  6
CONTINUOUS
 62
     3
100
AcDbDimension
  2
DIMNDRAFT3D12
 10
301.526305
 20
250.651172
 30
0.0
 11
272.063145
 21
251.276172
 31
0.0
 70
   161
  1
\C3;%%c 10,5
  3
STANDARD
100
AcDbAlignedDimension
 13
291.026305
 23
226.331956
 33
0.0
 14
301.526305
 24
226.331956
 34
0.0
1001
ACAD
1000
DSTYLE
1002
{
1070
   287
1070
     3
1070
     7
1000

1070
     6
1000

1070
   279
1070
     0
1070
    74
1070
     0
1070
   173
1070
     1
1070
   340
1005
131
1070
   271
1070
     1
1070
   272
1070
     2
1070
    77
1070
     1
1070
    73
1070
     0
1070
   171
1070
     3
1070
   274
1070
     4
1070
   177
1070
     3
1070
   176
1070
     3
1070
   178
1070
     3
1070
    48
1040
-0.005
1070
    41
1041
3.5
1070
   147
1041
1.75
1070
    42
1041
0.0
1070
    44
1041
2.0
1070
   140
1041
3.5
1002
}
  0
ENDSEC
  0
SECTION
  2
OBJECTS
  0
DICTIONARY
  5
C
330
0
100
AcDbDictionary
  3
ACAD_GROUP
350
D
  3
ACAD_LAYOUT
350
1A
  3
ACAD_MATERIAL
350
3B
  3
ACAD_MLEADERSTYLE
350
254
  3
ACAD_MLINESTYLE
350
17
  3
ACAD_PLOTSETTINGS
350
19
  3
ACAD_VISUALSTYLE
350
2A
  3
ACDBHEADERROUNDTRIPXREC
350
232
  3
ACDBVARIABLEDICTIONARY
350
252
  0
DICTIONARY
  5
D
102
{ACAD_REACTORS
330
C
102
}
330
C
100
AcDbDictionary
  3
DIMENSION
350
220
  3
DIMENSION2
350
221
  0
DICTIONARY
  5
1A
102
{ACAD_REACTORS
330
C
102
}
330
C
100
AcDbDictionary
  0
DICTIONARY
  5
3B
102
{ACAD_REACTORS
330
C
102
}
330
C
100
AcDbDictionary
  3
BYBLOCK
350
3D
  3
BYLAYER
350
3C
  3
GLOBAL
350
3E
  0
DICTIONARY
  5
254
102
{ACAD_REACTORS
330
C
102
}
330
C
100
AcDbDictionary
  0
DICTIONARY
  5
17
102
{ACAD_REACTORS
330
C
102
}
330
C
100
AcDbDictionary
  3
STANDARD
350
18
  0
DICTIONARY
  5
19
102
{ACAD_REACTORS
330
C
102
}
330
C
100
AcDbDictionary
  0
DICTIONARY
  5
2A
102
{ACAD_REACTORS
330
C
102
}
330
C
100
AcDbDictionary
  3
2DWIREFRAME
350
2F
  3
3D_HIDDEN
350
31
  3
3DWIREFRAME
350
30
  3
BASIC
350
32
  3
BRIGHTEN
350
36
  3
COLORCHANGE
350
3A
  3
CONCEPTUAL
350
34
  3
DIM
350
35
  3
FACEPATTERN
350
39
  3
FLAT
350
2B
  3
FLATWITHEDGES
350
2C
  3
GOURAUD
350
2D
  3
GOURAUDWITHEDGES
350
2E
  3
LINEPATTERN
350
38
  3
REALISTIC
350
33
  3
THICKEN
350
37
  0
DICTIONARY
  5
232
102
{ACAD_REACTORS
330
C
102
}
330
C
100
AcDbDictionary
  3
CEPSNTYPE
350
23B
  3
DIMSTYLEDATA
350
251
  3
FINGERPRINTGUID
350
23C
  3
HYPERLINKBASE
350
235
  3
INSUNITS
350
23A
  3
LAYOUTDICT
350
237
  3
LWETCUNION
350
239
  3
PLOTSETDICT
350
238
  3
PSVPSCALE
350
23E
  3
PUCSBASE
350
241
  3
PUCSORGBACK
350
247
  3
PUCSORGBOTTOM
350
243
  3
PUCSORGFRONT
350
246
  3
PUCSORGLEFT
350
244
  3
PUCSORGRIGHT
350
245
  3
PUCSORGTOP
350
242
  3
PUCSORTHOREF
350
23F
  3
PUCSORTHOVIEW
350
240
  3
STYLESHEET
350
236
  3
TSTACKALIGN
350
233
  3
TSTACKSIZE
350
234
  3
UCSBASE
350
24A
  3
UCSORGBACK
350
250
  3
UCSORGBOTTOM
350
24C
  3
UCSORGFRONT
350
24F
  3
UCSORGLEFT
350
24D
  3
UCSORGRIGHT
350
24E
  3
UCSORGTOP
350
24B
  3
UCSORTHOREF
350
248
  3
UCSORTHOVIEW
350
249
  3
VERSIONGUID
350
23D
  0
DICTIONARY
  5
252
102
{ACAD_REACTORS
330
C
102
}
330
C
100
AcDbDictionary
  3
DIMASSOC
350
255
  3
HIDETEXT
350
256
  0
GROUP
  5
220
102
{ACAD_REACTORS
330
D
102
}
330
D
100
AcDbGroup
300

 70
     0
 71
     1
340
FB
340
FC
340
FD
340
19B
340
19F
340
1A3
  0
GROUP
  5
221
102
{ACAD_REACTORS
330
D
102
}
330
D
100
AcDbGroup
300

 70
     0
 71
     1
340
104
340
105
340
11D
340
1A4
340
1A8
340
1AC
  0
MATERIAL
  5
3D
102
{ACAD_REACTORS
330
3B
102
}
102
{ACAD_XDICTIONARY
360
259
102
}
330
3B
100
AcDbMaterial
  1
ByBlock
  0
MATERIAL
  5
3C
102
{ACAD_REACTORS
330
3B
102
}
102
{ACAD_XDICTIONARY
360
257
102
}
330
3B
100
AcDbMaterial
  1
ByLayer
  0
MATERIAL
  5
3E
102
{ACAD_REACTORS
330
3B
102
}
102
{ACAD_XDICTIONARY
360
25B
102
}
330
3B
100
AcDbMaterial
  1
Global
  0
MLINESTYLE
  5
18
102
{ACAD_REACTORS
330
17
102
}
330
17
100
AcDbMlineStyle
  2
Standard
 70
     0
  3

 62
   256
 51
90.0
 52
90.0
 71
     2
 49
0.5
 62
   256
  6
BYLAYER
 49
-0.5
 62
   256
  6
BYLAYER
  0
ACAD_PROXY_OBJECT
  5
2F
102
{ACAD_REACTORS
330
2A
102
}
330
2A
100
AcDbProxyObject
 90
      499
 91
      501
 93
      436
310
42CC9915DA5C99599C985B595049028333333333333E3BF0000000000000FB0107901411070040501600405405064090741402480A0340
1001
ACAD
1000
AcDbSavedByObjectVersion
1070
     0
  0
ACAD_PROXY_OBJECT
  5
31
102
{ACAD_REACTORS
330
2A
102
}
330
2A
100
AcDbProxyObject
 90
      499
 91
      501
 93
      500
310
424CD108121A5919195B90640502408333333333333E3BF0000000000000FB01079024090700405020000000000001110200405405064090740C02480A0340
1001
ACAD
1000
AcDbSavedByObjectVersion
1070
     0
  0
ACAD_PROXY_OBJECT
  5
30
102
{ACAD_REACTORS
330
2A
102
}
330
2A
100
AcDbProxyObject
 90
      499
 91
      501
 93
      436
310
42CCD915DA5C99599C985B595059028333333333333E3BF0000000000000FB0107901411070040501600405405064090741402480A0340
1001
ACAD
1000
AcDbSavedByObjectVersion
1070
     0
  0
ACAD_PROXY_OBJECT
  5
32
102
{ACAD_REACTORS
330
2A
102
}
330
2A
100
AcDbProxyObject
 90
      499
 91
      501
 93
      388
310
4150985CDA58D07406404333333333333E3BF0000000000000FB0107A41107004050150841D405064090741402480A0350
1001
ACAD
1000
AcDbSavedByObjectVersion
1070
     0
  0
ACAD_PROXY_OBJECT
  5
36
102
{ACAD_REACTORS
330
2A
102
}
330
2A
100
AcDbProxyObject
 90
      499
 91
      501
 93
      428
310
42109C9A59DA1D195B90C409028333333333333E3BF0000000000000FB010790141107004050150841D405064090741402480A029950
1001
ACAD
1000
AcDbSavedByObjectVersion
1070
     0
  0
ACAD_PROXY_OBJECT
  5
3A
102
{ACAD_REACTORS
330
2A
102
}
330
2A
100
AcDbProxyObject
 90
      499
 91
      501
 93
      452
310
42D0DBDB1BDC90DA185B99D95104090240C333333333333E3BF0000000000000FB0108901411070040501508421405064090741402480A0350
1001
ACAD
1000
AcDbSavedByObjectVersion
1070
     0
  0
ACAD_PROXY_OBJECT
  5
34
102
{ACAD_REACTORS
330
2A
102
}
330
2A
100
AcDbProxyObject
 90
      499
 91
      501
 93
      500
310
4290DBDB98D95C1D1D585B10940D028333333333333E3BF0000000000000FB0107902409070040501000000000000111010841D405064090740C02480A0340
1001
ACAD
1000
AcDbSavedByObjectVersion
1070
     0
  0
ACAD_PROXY_OBJECT
  5
35
102
{ACAD_REACTORS
330
2A
102
}
330
2A
100
AcDbProxyObject
 90
      499
 91
      501
 93
      412
310
40D11A5B50B409028333333333333E3BF0000000000000FB010790141107004050150841D405064090741402480A02677FFFFFD0
1001
ACAD
1000
AcDbSavedByObjectVersion
1070
     0
  0
ACAD_PROXY_OBJECT
  5
39
102
{ACAD_REACTORS
330
2A
102
}
330
2A
100
AcDbProxyObject
 90
      499
 91
      501
 93
      444
310
42D19858D95C185D1D195C9B90F409028333333333333E3BF0000000000000FB010790141107004050150841D405064090741402480A0350
1001
ACAD
1000
AcDbSavedByObjectVersion
1070
     0
  0
ACAD_PROXY_OBJECT
  5
2B
102
{ACAD_REACTORS
330
2A
102
}
330
2A
100
AcDbProxyObject
 90
      499
 91
      501
 93
      388
310
41119B185D240901404333333333333E3BF0000000000000F9010740A41107004050150841D405064090741402480A1B50
1001
ACAD
1000
AcDbSavedByObjectVersion
1070
     0
  0
ACAD_PROXY_OBJECT
  5
2C
102
{ACAD_REACTORS
330
2A
102
}
330
2A
100
AcDbProxyObject
 90
      499
 91
      501
 93
      476
310
43519B185D15DA5D1A115919D95CD0140901404333333333333E3BF0000000000000F9010740901411070040501600405405064090741402480A1B50
1001
ACAD
1000
AcDbSavedByObjectVersion
1070
     0
  0
ACAD_PROXY_OBJECT
  5
2D
102
{ACAD_REACTORS
330
2A
102
}
330
2A
100
AcDbProxyObject
 90
      499
 91
      501
 93
      412
310
41D1DBDD5C985D5910240902404333333333333E3BF0000000000000F9010740A411070040501641D405064090741402480A1B50
1001
ACAD
1000
AcDbSavedByObjectVersion
1070
     0
  0
ACAD_PROXY_OBJECT
  5
2E
102
{ACAD_REACTORS
330
2A
102
}
330
2A
100
AcDbProxyObject
 90
      499
 91
      501
 93
      500
310
4411DBDD5C985D5915DA5D1A115919D95CD0340902404333333333333E3BF0000000000000F9010740901411070040501600405405064090741402480A1B50
1001
ACAD
1000
AcDbSavedByObjectVersion
1070
     0
  0
ACAD_PROXY_OBJECT
  5
38
102
{ACAD_REACTORS
330
2A
102
}
330
2A
100
AcDbProxyObject
 90
      499
 91
      501
 93
      444
310
42D31A5B995C185D1D195C9B90E409028333333333333E3BF0000000000000FB010790141107004050750841D405064090741402483A0350
1001
ACAD
1000
AcDbSavedByObjectVersion
1070
     0
  0
ACAD_PROXY_OBJECT
  5
33
102
{ACAD_REACTORS
330
2A
102
}
330
2A
100
AcDbProxyObject
 90
      499
 91
      501
 93
      420
310
425499585B1A5CDD1A58D08409028333333333333E3BF0000000000000FB01079019070040501508421405064090741402480A1B40
1001
ACAD
1000
AcDbSavedByObjectVersion
1070
     0
  0
ACAD_PROXY_OBJECT
  5
37
102
{ACAD_REACTORS
330
2A
102
}
330
2A
100
AcDbProxyObject
 90
      499
 91
      501
 93
      412
310
41D51A1A58DAD95B90D409028333333333333E3BF0000000000000FB010790141107004050150C41D405064090741402480A0350
1001
ACAD
1000
AcDbSavedByObjectVersion
1070
     0
  0
XRECORD
  5
23B
102
{ACAD_REACTORS
330
232
102
}
330
232
100
AcDbXrecord
 90
        0
  0
XRECORD
  5
251
102
{ACAD_REACTORS
330
232
102
}
330
232
100
AcDbXrecord
1000
DSTYLE
1002
{
1070
   171
 70
     2
1070
   143
 40
25.4
1070
   274
 70
     2
1070
    41
 40
0.18
1070
   141
 40
0.09
1070
   271
 70
     4
1070
    43
 40
0.38
1070
   278
 70
    46
1070
    44
 40
0.18
1070
    42
 40
0.0625
1070
   147
 40
0.09
1070
    77
 70
     0
1070
   272
 70
     4
1070
    73
 70
     1
1070
   172
 70
     0
1070
    74
 70
     1
1070
   283
 70
     1
1070
   340
340
11
1070
   140
 40
0.18
1070
   284
 70
     0
1070
    78
 70
     0
1002
}
  0
XRECORD
  5
23C
102
{ACAD_REACTORS
330
232
102
}
330
232
100
AcDbXrecord
  1
{A392C06C-7EA0-49AE-AAA4-463A888DC571}
  0
XRECORD
  5
235
102
{ACAD_REACTORS
330
232
102
}
330
232
100
AcDbXrecord
  1

  0
XRECORD
  5
23A
102
{ACAD_REACTORS
330
232
102
}
330
232
100
AcDbXrecord
 90
        4
  0
XRECORD
  5
237
102
{ACAD_REACTORS
330
232
102
}
330
232
100
AcDbXrecord
340
1A
  0
XRECORD
  5
239
102
{ACAD_REACTORS
330
232
102
}
330
232
100
AcDbXrecord
 90
    10781
  0
XRECORD
  5
238
102
{ACAD_REACTORS
330
232
102
}
330
232
100
AcDbXrecord
340
19
  0
XRECORD
  5
23E
102
{ACAD_REACTORS
330
232
102
}
330
232
100
AcDbXrecord
 40
0.0
  0
XRECORD
  5
241
102
{ACAD_REACTORS
330
232
102
}
330
232
100
AcDbXrecord
340
0
  0
XRECORD
  5
247
102
{ACAD_REACTORS
330
232
102
}
330
232
100
AcDbXrecord
 10
0.0
 20
0.0
 30
0.0
  0
XRECORD
  5
243
102
{ACAD_REACTORS
330
232
102
}
330
232
100
AcDbXrecord
 10
0.0
 20
0.0
 30
0.0
  0
XRECORD
  5
246
102
{ACAD_REACTORS
330
232
102
}
330
232
100
AcDbXrecord
 10
0.0
 20
0.0
 30
0.0
  0
XRECORD
  5
244
102
{ACAD_REACTORS
330
232
102
}
330
232
100
AcDbXrecord
 10
0.0
 20
0.0
 30
0.0
  0
XRECORD
  5
245
102
{ACAD_REACTORS
330
232
102
}
330
232
100
AcDbXrecord
 10
0.0
 20
0.0
 30
0.0
  0
XRECORD
  5
242
102
{ACAD_REACTORS
330
232
102
}
330
232
100
AcDbXrecord
 10
0.0
 20
0.0
 30
0.0
  0
XRECORD
  5
23F
102
{ACAD_REACTORS
330
232
102
}
330
232
100
AcDbXrecord
340
0
  0
XRECORD
  5
240
102
{ACAD_REACTORS
330
232
102
}
330
232
100
AcDbXrecord
 70
     0
  0
XRECORD
  5
236
102
{ACAD_REACTORS
330
232
102
}
330
232
100
AcDbXrecord
  1

  0
XRECORD
  5
233
102
{ACAD_REACTORS
330
232
102
}
330
232
100
AcDbXrecord
 90
        1
  0
XRECORD
  5
234
102
{ACAD_REACTORS
330
232
102
}
330
232
100
AcDbXrecord
 90
       70
  0
XRECORD
  5
24A
102
{ACAD_REACTORS
330
232
102
}
330
232
100
AcDbXrecord
340
0
  0
XRECORD
  5
250
102
{ACAD_REACTORS
330
232
102
}
330
232
100
AcDbXrecord
 10
0.0
 20
0.0
 30
0.0
  0
XRECORD
  5
24C
102
{ACAD_REACTORS
330
232
102
}
330
232
100
AcDbXrecord
 10
0.0
 20
0.0
 30
0.0
  0
XRECORD
  5
24F
102
{ACAD_REACTORS
330
232
102
}
330
232
100
AcDbXrecord
 10
0.0
 20
0.0
 30
0.0
  0
XRECORD
  5
24D
102
{ACAD_REACTORS
330
232
102
}
330
232
100
AcDbXrecord
 10
0.0
 20
0.0
 30
0.0
  0
XRECORD
  5
24E
102
{ACAD_REACTORS
330
232
102
}
330
232
100
AcDbXrecord
 10
0.0
 20
0.0
 30
0.0
  0
XRECORD
  5
24B
102
{ACAD_REACTORS
330
232
102
}
330
232
100
AcDbXrecord
 10
0.0
 20
0.0
 30
0.0
  0
XRECORD
  5
248
102
{ACAD_REACTORS
330
232
102
}
330
232
100
AcDbXrecord
340
0
  0
XRECORD
  5
249
102
{ACAD_REACTORS
330
232
102
}
330
232
100
AcDbXrecord
 70
     0
  0
XRECORD
  5
23D
102
{ACAD_REACTORS
330
232
102
}
330
232
100
AcDbXrecord
  1
{FAEB1C32-E019-11D5-929B-00C0DF256EC4}
  0
DICTIONARYVAR
  5
255
102
{ACAD_REACTORS
330
252
102
}
330
252
100
DictionaryVariables
280
     0
  1
2
  0
DICTIONARYVAR
  5
256
102
{ACAD_REACTORS
330
252
102
}
330
252
100
DictionaryVariables
280
     0
  1
1
  0
DICTIONARY
  5
259
330
3D
100
AcDbDictionary
280
     1
  3
ACAD_XREC_ROUNDTRIP
360
25A
  0
DICTIONARY
  5
257
330
3C
100
AcDbDictionary
280
     1
  3
ACAD_XREC_ROUNDTRIP
360
258
  0
DICTIONARY
  5
25B
330
3E
100
AcDbDictionary
280
     1
  3
ACAD_XREC_ROUNDTRIP
360
25C
  0
XRECORD
  5
25A
102
{ACAD_REACTORS
330
259
102
}
330
259
100
AcDbXrecord
102
MATERIAL
148
0.0
149
0.0
149
0.0
 93
        0
 94
      127
282
     0
 72
     1
 77
     1
171
     1
175
     1
179
     1
273
     0
  0
XRECORD
  5
258
102
{ACAD_REACTORS
330
257
102
}
330
257
100
AcDbXrecord
102
MATERIAL
148
0.0
149
0.0
149
0.0
 93
        0
 94
      127
282
     0
 72
     1
 77
     1
171
     1
175
     1
179
     1
273
     0
  0
XRECORD
  5
25C
102
{ACAD_REACTORS
330
25B
102
}
330
25B
100
AcDbXrecord
102
MATERIAL
148
0.0
149
0.0
149
0.0
 93
        0
 94
      127
282
     0
 72
     1
 77
     1
171
     1
175
     1
179
     1
273
     0
  0
ENDSEC
  0
EOF
