  0
SECTION
  2
HEADER
  9
$ACADVER
  1
AC1014
  9
$ACADMAINTVER
 70
     9
  9
$DWGCODEPAGE
  3
ANSI_1252
  9
$INSBASE
 10
0.0
 20
0.0
 30
0.0
  9
$EXTMIN
 10
-0.5
 20
-0.5
 30
-0.5
  9
$EXTMAX
 10
5.0
 20
5.0
 30
5.0
  9
$LIMMIN
 10
-0.5
 20
-0.5
  9
$LIMMAX
 10
5.0
 20
5.0
  9
$ORTHOMODE
 70
     0
  9
$REGENMODE
 70
     1
  9
$FILLMODE
 70
     1
  9
$QTEXTMODE
 70
     0
  9
$MIRRTEXT
 70
     1
  9
$DRAGMODE
 70
     2
  9
$LTSCALE
 40
1.0
  9
$OSMODE
 70
    37
  9
$ATTMODE
 70
     1
  9
$TEXTSIZE
 40
0.2
  9
$TRACEWID
 40
0.05
  9
$TEXTSTYLE
  7
STANDARD
  9
$CLAYER
  8
0
  9
$CELTYPE
  6
BYLAYER
  9
$CECOLOR
 62
   256
  9
$CELTSCALE
 40
1.0
  9
$DELOBJ
 70
     1
  9
$DISPSILH
 70
     0
  9
$DIMSCALE
 40
1.0
  9
$DIMASZ
 40
0.18
  9
$DIMEXO
 40
0.0625
  9
$DIMDLI
 40
0.38
  9
$DIMRND
 40
0.0
  9
$DIMDLE
 40
0.0
  9
$DIMEXE
 40
0.18
  9
$DIMTP
 40
0.0
  9
$DIMTM
 40
0.0
  9
$DIMTXT
 40
0.18
  9
$DIMCEN
 40
0.09
  9
$DIMTSZ
 40
0.0
  9
$DIMTOL
 70
     0
  9
$DIMLIM
 70
     0
  9
$DIMTIH
 70
     1
  9
$DIMTOH
 70
     1
  9
$DIMSE1
 70
     0
  9
$DIMSE2
 70
     0
  9
$DIMTAD
 70
     0
  9
$DIMZIN
 70
     0
  9
$DIMBLK
  1

  9
$DIMASO
 70
     1
  9
$DIMSHO
 70
     1
  9
$DIMPOST
  1

  9
$DIMAPOST
  1

  9
$DIMALT
 70
     0
  9
$DIMALTD
 70
     2
  9
$DIMALTF
 40
25.4
  9
$DIMLFAC
 40
1.0
  9
$DIMTOFL
 70
     0
  9
$DIMTVP
 40
0.0
  9
$DIMTIX
 70
     0
  9
$DIMSOXD
 70
     0
  9
$DIMSAH
 70
     0
  9
$DIMBLK1
  1

  9
$DIMBLK2
  1

  9
$DIMSTYLE
  2
STANDARD
  9
$DIMCLRD
 70
     0
  9
$DIMCLRE
 70
     0
  9
$DIMCLRT
 70
     0
  9
$DIMTFAC
 40
1.0
  9
$DIMGAP
 40
0.09
  9
$DIMJUST
 70
     0
  9
$DIMSD1
 70
     0
  9
$DIMSD2
 70
     0
  9
$DIMTOLJ
 70
     1
  9
$DIMTZIN
 70
     0
  9
$DIMALTZ
 70
     0
  9
$DIMALTTZ
 70
     0
  9
$DIMFIT
 70
     3
  9
$DIMUPT
 70
     0
  9
$DIMUNIT
 70
     2
  9
$DIMDEC
 70
     4
  9
$DIMTDEC
 70
     4
  9
$DIMALTU
 70
     2
  9
$DIMALTTD
 70
     2
  9
$DIMTXSTY
  7
STANDARD
  9
$DIMAUNIT
 70
     0
  9
$LUNITS
 70
     2
  9
$LUPREC
 70
     4
  9
$SKETCHINC
 40
0.1
  9
$FILLETRAD
 40
0.5
  9
$AUNITS
 70
     0
  9
$AUPREC
 70
     0
  9
$MENU
  1
.
  9
$ELEVATION
 40
0.0
  9
$PELEVATION
 40
0.0
  9
$THICKNESS
 40
0.0
  9
$LIMCHECK
 70
     0
  9
$CHAMFERA
 40
0.5
  9
$CHAMFERB
 40
0.5
  9
$CHAMFERC
 40
1.0
  9
$CHAMFERD
 40
0.0
  9
$SKPOLY
 70
     0
  9
$TDCREATE
 40
2457770.379157326
  9
$TDUPDATE
 40
2457770.379157338
  9
$TDINDWG
 40
0.0000000116
  9
$TDUSRTIMER
 40
0.0000000116
  9
$USRTIMER
 70
     1
  9
$ANGBASE
 50
0.0
  9
$ANGDIR
 70
     0
  9
$PDMODE
 70
     0
  9
$PDSIZE
 40
0.0
  9
$PLINEWID
 40
0.0
  9
$COORDS
 70
     1
  9
$SPLFRAME
 70
     0
  9
$SPLINETYPE
 70
     6
  9
$SPLINESEGS
 70
     8
  9
$ATTDIA
 70
     0
  9
$ATTREQ
 70
     1
  9
$HANDLING
 70
     1
  9
$HANDSEED
  5
158
  9
$SURFTAB1
 70
     6
  9
$SURFTAB2
 70
     6
  9
$SURFTYPE
 70
     6
  9
$SURFU
 70
     6
  9
$SURFV
 70
     6
  9
$UCSNAME
  2

  9
$UCSORG
 10
0.0
 20
0.0
 30
0.0
  9
$UCSXDIR
 10
1.0
 20
0.0
 30
0.0
  9
$UCSYDIR
 10
0.0
 20
1.0
 30
0.0
  9
$PUCSNAME
  2

  9
$PUCSORG
 10
0.0
 20
0.0
 30
0.0
  9
$PUCSXDIR
 10
1.0
 20
0.0
 30
0.0
  9
$PUCSYDIR
 10
0.0
 20
1.0
 30
0.0
  9
$USERI1
 70
     0
  9
$USERI2
 70
     0
  9
$USERI3
 70
     0
  9
$USERI4
 70
     0
  9
$USERI5
 70
     0
  9
$USERR1
 40
0.0
  9
$USERR2
 40
0.0
  9
$USERR3
 40
0.0
  9
$USERR4
 40
0.0
  9
$USERR5
 40
0.0
  9
$WORLDVIEW
 70
     1
  9
$SHADEDGE
 70
     3
  9
$SHADEDIF
 70
    70
  9
$TILEMODE
 70
     1
  9
$MAXACTVP
 70
    64
  9
$PINSBASE
 10
0.0
 20
0.0
 30
0.0
  9
$PLIMCHECK
 70
     0
  9
$PEXTMIN
 10
-0.5
 20
-0.5
 30
-0.5
  9
$PEXTMAX
 10
5.0
 20
5.0
 30
5.0
  9
$PLIMMIN
 10
-0.5
 20
-0.5
  9
$PLIMMAX
 10
5.0
 20
5.0
  9
$UNITMODE
 70
     0
  9
$VISRETAIN
 70
     1
  9
$PLINEGEN
 70
     0
  9
$PSLTSCALE
 70
     1
  9
$TREEDEPTH
 70
  3020
  9
$PICKSTYLE
 70
     1
  9
$CMLSTYLE
  2
STANDARD
  9
$CMLJUST
 70
     0
  9
$CMLSCALE
 40
1.0
  9
$PROXYGRAPHICS
 70
     1
  9
$MEASUREMENT
 70
     1
  0
ENDSEC
  0
SECTION
  2
CLASSES
  0
CLASS
  1
ACDBDICTIONARYWDFLT
  2
AcDbDictionaryWithDefault
  3
ObjectDBX Classes
 90
        0
280
     0
281
     0
  0
CLASS
  1
VISUALSTYLE
  2
AcDbVisualStyle
  3
ObjectDBX Classes
 90
     4095
280
     0
281
     0
  0
CLASS
  1
MATERIAL
  2
AcDbMaterial
  3
ObjectDBX Classes
 90
     1153
280
     0
281
     0
  0
CLASS
  1
DICTIONARYVAR
  2
AcDbDictionaryVar
  3
ObjectDBX Classes
 90
        0
280
     0
281
     0
  0
CLASS
  1
XRECORD
  2
AcDbXrecord
  3
AutoCAD 2000
 90
        0
280
     0
281
     0
  0
CLASS
  1
LWPOLYLINE
  2
AcDbPolyline
  3
AutoCAD 2000
 90
        0
280
     0
281
     1
  0
CLASS
  1
HATCH
  2
AcDbHatch
  3
AutoCAD 2000
 90
        0
280
     0
281
     1
  0
CLASS
  1
ACDBPLACEHOLDER
  2
AcDbPlaceHolder
  3
ObjectDBX Classes
 90
        0
280
     0
281
     0
  0
CLASS
  1
LAYOUT
  2
AcDbLayout
  3
ObjectDBX Classes
 90
        0
280
     0
281
     0
  0
ENDSEC
  0
SECTION
  2
TABLES
  0
TABLE
  2
VPORT
  5
8
330
0
100
AcDbSymbolTable
 70
    17
  0
VPORT
  5
29
330
8
100
AcDbSymbolTableRecord
100
AcDbViewportTableRecord
  2
DUMMY
 70
     0
 10
0.0
 20
0.0
 11
1.0
 21
1.0
 12
10.429907
 22
4.5
 13
0.0
 23
0.0
 14
0.5
 24
0.5
 15
0.5
 25
0.5
 16
0.0
 26
0.0
 36
1.0
 17
0.0
 27
0.0
 37
0.0
 40
9.0
 41
1.972973
 42
50.0
 43
0.0
 44
0.0
 50
0.0
 51
0.0
 71
     0
 72
   100
 73
     1
 74
     3
 75
     0
 76
     0
 77
     0
 78
     0
  0
VPORT
  5
11D
330
8
100
AcDbSymbolTableRecord
100
AcDbViewportTableRecord
  2
*ACTIVE
 70
     0
 10
0.0
 20
0.0
 11
1.0
 21
1.0
 12
99.747502
 22
148.5
 13
0.0
 23
0.0
 14
0.5
 24
0.5
 15
0.5
 25
0.5
 16
0.0
 26
0.0
 36
1.0
 17
0.0
 27
0.0
 37
0.0
 40
254.0
 41
0.069908
 42
50.0
 43
573.696132
 44
-573.696132
 50
0.0
 51
0.0
 71
     0
 72
   100
 73
     1
 74
     3
 75
     0
 76
     0
 77
     0
 78
     0
  0
VPORT
  5
11E
330
8
100
AcDbSymbolTableRecord
100
AcDbViewportTableRecord
  2
L1
 70
     0
 10
0.0
 20
0.0
 11
1.0
 21
1.0
 12
99.747502
 22
148.5
 13
0.0
 23
0.0
 14
0.5
 24
0.5
 15
0.5
 25
0.5
 16
0.0
 26
0.0
 36
1.0
 17
0.0
 27
0.0
 37
0.0
 40
254.0
 41
0.069908
 42
50.0
 43
573.696132
 44
-573.696132
 50
0.0
 51
0.0
 71
     0
 72
   100
 73
     1
 74
     3
 75
     0
 76
     0
 77
     0
 78
     0
  0
VPORT
  5
11F
330
8
100
AcDbSymbolTableRecord
100
AcDbViewportTableRecord
  2
L2
 70
     0
 10
0.0
 20
0.0
 11
0.5
 21
1.0
 12
0.0
 22
0.0
 13
0.0
 23
0.0
 14
0.5
 24
0.5
 15
0.5
 25
0.5
 16
0.0
 26
-1.0
 36
0.0
 17
0.0
 27
0.0
 37
0.0
 40
1319.822715
 41
0.013454
 42
50.0
 43
672.020833
 44
-672.020833
 50
0.0
 51
0.0
 71
     0
 72
   100
 73
     1
 74
     3
 75
     0
 76
     0
 77
     0
 78
     0
  0
VPORT
  5
120
330
8
100
AcDbSymbolTableRecord
100
AcDbViewportTableRecord
  2
L2
 70
     0
 10
0.5
 20
0.0
 11
1.0
 21
1.0
 12
0.0
 22
0.0
 13
0.0
 23
0.0
 14
0.5
 24
0.5
 15
0.5
 25
0.5
 16
1.0
 26
0.0
 36
0.0
 17
0.0
 27
0.0
 37
0.0
 40
1319.822715
 41
0.013454
 42
50.0
 43
672.020833
 44
-672.020833
 50
0.0
 51
0.0
 71
     0
 72
   100
 73
     1
 74
     3
 75
     0
 76
     0
 77
     0
 78
     0
  0
VPORT
  5
121
330
8
100
AcDbSymbolTableRecord
100
AcDbViewportTableRecord
  2
L3
 70
     0
 10
0.0
 20
0.5
 11
1.0
 21
1.0
 12
99.747502
 22
148.5
 13
0.0
 23
0.0
 14
0.5
 24
0.5
 15
0.5
 25
0.5
 16
0.0
 26
0.0
 36
1.0
 17
0.0
 27
0.0
 37
0.0
 40
254.0
 41
0.069908
 42
50.0
 43
573.696132
 44
-573.696132
 50
0.0
 51
0.0
 71
     0
 72
   100
 73
     1
 74
     3
 75
     0
 76
     0
 77
     0
 78
     0
  0
VPORT
  5
122
330
8
100
AcDbSymbolTableRecord
100
AcDbViewportTableRecord
  2
L3
 70
     0
 10
0.0
 20
0.0
 11
1.0
 21
0.5
 12
0.0
 22
0.0
 13
0.0
 23
0.0
 14
0.5
 24
0.5
 15
0.5
 25
0.5
 16
0.0
 26
-1.0
 36
0.0
 17
0.0
 27
0.0
 37
0.0
 40
1319.822715
 41
0.013454
 42
50.0
 43
672.020833
 44
-672.020833
 50
0.0
 51
0.0
 71
     0
 72
   100
 73
     1
 74
     3
 75
     0
 76
     0
 77
     0
 78
     0
  0
VPORT
  5
123
330
8
100
AcDbSymbolTableRecord
100
AcDbViewportTableRecord
  2
L4
 70
     0
 10
0.0
 20
0.5
 11
0.5
 21
1.0
 12
99.747502
 22
148.5
 13
0.0
 23
0.0
 14
0.5
 24
0.5
 15
0.5
 25
0.5
 16
0.0
 26
0.0
 36
1.0
 17
0.0
 27
0.0
 37
0.0
 40
254.0
 41
0.069908
 42
50.0
 43
573.696132
 44
-573.696132
 50
0.0
 51
0.0
 71
     0
 72
   100
 73
     1
 74
     3
 75
     0
 76
     0
 77
     0
 78
     0
  0
VPORT
  5
124
330
8
100
AcDbSymbolTableRecord
100
AcDbViewportTableRecord
  2
L4
 70
     0
 10
0.0
 20
0.0
 11
0.5
 21
0.5
 12
0.0
 22
0.0
 13
0.0
 23
0.0
 14
0.5
 24
0.5
 15
0.5
 25
0.5
 16
0.0
 26
-1.0
 36
0.0
 17
0.0
 27
0.0
 37
0.0
 40
1319.822715
 41
0.013454
 42
50.0
 43
672.020833
 44
-672.020833
 50
0.0
 51
0.0
 71
     0
 72
   100
 73
     1
 74
     3
 75
     0
 76
     0
 77
     0
 78
     0
  0
VPORT
  5
125
330
8
100
AcDbSymbolTableRecord
100
AcDbViewportTableRecord
  2
L4
 70
     0
 10
0.5
 20
0.0
 11
1.0
 21
0.5
 12
0.0
 22
0.0
 13
0.0
 23
0.0
 14
0.5
 24
0.5
 15
0.5
 25
0.5
 16
1.0
 26
0.0
 36
0.0
 17
0.0
 27
0.0
 37
0.0
 40
1319.822715
 41
0.013454
 42
50.0
 43
672.020833
 44
-672.020833
 50
0.0
 51
0.0
 71
     0
 72
   100
 73
     1
 74
     3
 75
     0
 76
     0
 77
     0
 78
     0
  0
VPORT
  5
126
330
8
100
AcDbSymbolTableRecord
100
AcDbViewportTableRecord
  2
L4
 70
     0
 10
0.5
 20
0.5
 11
1.0
 21
1.0
 12
0.0
 22
0.0
 13
0.0
 23
0.0
 14
0.5
 24
0.5
 15
0.5
 25
0.5
 16
0.5773502691896258
 26
-0.5773502691896258
 36
0.5773502691896258
 17
0.0
 27
0.0
 37
0.0
 40
1285.020866
 41
0.013818
 42
50.0
 43
667.141407
 44
-667.141407
 50
0.0
 51
0.0
 71
     0
 72
   100
 73
     1
 74
     3
 75
     0
 76
     0
 77
     0
 78
     0
  0
VPORT
  5
127
330
8
100
AcDbSymbolTableRecord
100
AcDbViewportTableRecord
  2
L6
 70
     0
 10
0.0
 20
0.5
 11
0.333333
 21
1.0
 12
0.0
 22
0.0
 13
0.0
 23
0.0
 14
0.5
 24
0.5
 15
0.5
 25
0.5
 16
0.7188730927569434
 26
-0.5850486126764431
 36
0.3754192287502549
 17
0.0
 27
0.0
 37
0.0
 40
1357.434192
 41
0.013081
 42
50.0
 43
701.839477
 44
-701.839477
 50
0.0
 51
0.0
 71
     0
 72
   100
 73
     1
 74
     3
 75
     0
 76
     0
 77
     0
 78
     0
  0
VPORT
  5
128
330
8
100
AcDbSymbolTableRecord
100
AcDbViewportTableRecord
  2
L6
 70
     0
 10
0.0
 20
0.0
 11
0.333333
 21
0.5
 12
0.0
 22
0.0
 13
0.0
 23
0.0
 14
0.5
 24
0.5
 15
0.5
 25
0.5
 16
-1.0
 26
0.0
 36
0.0
 17
0.0
 27
0.0
 37
0.0
 40
1319.822715
 41
0.013454
 42
50.0
 43
672.020833
 44
-672.020833
 50
0.0
 51
0.0
 71
     0
 72
   100
 73
     1
 74
     3
 75
     0
 76
     0
 77
     0
 78
     0
  0
VPORT
  5
129
330
8
100
AcDbSymbolTableRecord
100
AcDbViewportTableRecord
  2
L6
 70
     0
 10
0.333333
 20
0.5
 11
0.666667
 21
1.0
 12
99.747502
 22
148.5
 13
0.0
 23
0.0
 14
0.5
 24
0.5
 15
0.5
 25
0.5
 16
0.0
 26
0.0
 36
1.0
 17
0.0
 27
0.0
 37
0.0
 40
254.0
 41
0.069908
 42
50.0
 43
573.696132
 44
-573.696132
 50
0.0
 51
0.0
 71
     0
 72
   100
 73
     1
 74
     3
 75
     0
 76
     0
 77
     0
 78
     0
  0
VPORT
  5
12A
330
8
100
AcDbSymbolTableRecord
100
AcDbViewportTableRecord
  2
L6
 70
     0
 10
0.333333
 20
0.0
 11
0.666667
 21
0.5
 12
0.0
 22
0.0
 13
0.0
 23
0.0
 14
0.5
 24
0.5
 15
0.5
 25
0.5
 16
0.0
 26
-1.0
 36
0.0
 17
0.0
 27
0.0
 37
0.0
 40
1319.822715
 41
0.013454
 42
50.0
 43
672.020833
 44
-672.020833
 50
0.0
 51
0.0
 71
     0
 72
   100
 73
     1
 74
     3
 75
     0
 76
     0
 77
     0
 78
     0
  0
VPORT
  5
12B
330
8
100
AcDbSymbolTableRecord
100
AcDbViewportTableRecord
  2
L6
 70
     0
 10
0.666667
 20
0.5
 11
1.0
 21
1.0
 12
0.0
 22
0.0
 13
0.0
 23
0.0
 14
0.5
 24
0.5
 15
0.5
 25
0.5
 16
0.5773502691896258
 26
-0.5773502691896258
 36
0.5773502691896258
 17
0.0
 27
0.0
 37
0.0
 40
1285.020866
 41
0.013818
 42
50.0
 43
667.141407
 44
-667.141407
 50
0.0
 51
0.0
 71
     0
 72
   100
 73
     1
 74
     3
 75
     0
 76
     0
 77
     0
 78
     0
  0
VPORT
  5
12C
330
8
100
AcDbSymbolTableRecord
100
AcDbViewportTableRecord
  2
L6
 70
     0
 10
0.666667
 20
0.0
 11
1.0
 21
0.5
 12
0.0
 22
0.0
 13
0.0
 23
0.0
 14
0.5
 24
0.5
 15
0.5
 25
0.5
 16
1.0
 26
0.0
 36
0.0
 17
0.0
 27
0.0
 37
0.0
 40
1319.822715
 41
0.013454
 42
50.0
 43
672.020833
 44
-672.020833
 50
0.0
 51
0.0
 71
     0
 72
   100
 73
     1
 74
     3
 75
     0
 76
     0
 77
     0
 78
     0
  0
ENDTAB
  0
TABLE
  2
LTYPE
  5
5
330
0
100
AcDbSymbolTable
 70
     7
  0
LTYPE
  5
14
330
5
100
AcDbSymbolTableRecord
100
AcDbLinetypeTableRecord
  2
BYBLOCK
 70
     0
  3

 72
    65
 73
     0
 40
0.0
  0
LTYPE
  5
15
330
5
100
AcDbSymbolTableRecord
100
AcDbLinetypeTableRecord
  2
BYLAYER
 70
     0
  3

 72
    65
 73
     0
 40
0.0
  0
LTYPE
  5
16
330
5
100
AcDbSymbolTableRecord
100
AcDbLinetypeTableRecord
  2
CONTINUOUS
 70
     0
  3
Solid line
 72
    65
 73
     0
 40
0.0
  0
LTYPE
  5
3F
330
5
100
AcDbSymbolTableRecord
100
AcDbLinetypeTableRecord
  2
DASHED
 70
     0
  3
__ __ __ __ __ __ __ __ __
 72
    65
 73
     2
 40
25.72
 49
12.86
 74
     4
 75
     0
340
0
 46
0.0
 50
0.0
 44
0.0
 45
0.0
 49
-12.86
 74
     4
 75
     0
340
0
 46
0.0
 50
0.0
 44
0.0
 45
0.0
  0
LTYPE
  5
40
330
5
100
AcDbSymbolTableRecord
100
AcDbLinetypeTableRecord
  2
HIDDEN
 70
     0
  3
_ _ _ _ _ _ _ _ _ _ _ _ _ _ _
 72
    65
 73
     2
 40
0.5
 49
0.25
 74
     4
 75
     0
340
0
 46
0.0
 50
0.0
 44
0.0
 45
0.0
 49
-0.25
 74
     4
 75
     0
340
0
 46
0.0
 50
0.0
 44
0.0
 45
0.0
  0
LTYPE
  5
41
330
5
100
AcDbSymbolTableRecord
100
AcDbLinetypeTableRecord
  2
PHANTOM
 70
     0
  3
____ _ _ ____ _ _ _____ _ _ ____
 72
    65
 73
     6
 40
50.5
 49
18.0
 74
     4
 75
     0
340
0
 46
0.0
 50
0.0
 44
0.0
 45
0.0
 49
-6.5
 74
     4
 75
     0
340
0
 46
0.0
 50
0.0
 44
0.0
 45
0.0
 49
6.5
 74
     4
 75
     0
340
0
 46
0.0
 50
0.0
 44
0.0
 45
0.0
 49
-6.5
 74
     4
 75
     0
340
0
 46
0.0
 50
0.0
 44
0.0
 45
0.0
 49
6.5
 74
     4
 75
     0
340
0
 46
0.0
 50
0.0
 44
0.0
 45
0.0
 49
-6.5
 74
     4
 75
     0
340
0
 46
0.0
 50
0.0
 44
0.0
 45
0.0
  0
LTYPE
  5
42
330
5
100
AcDbSymbolTableRecord
100
AcDbLinetypeTableRecord
  2
CENTER
 70
     0
  3
____ _ ____ _ ____ _ ____
 72
    65
 73
     4
 40
47.4
 49
22.0
 74
     4
 75
     0
340
0
 46
0.0
 50
0.0
 44
0.0
 45
0.0
 49
-8.5
 74
     4
 75
     0
340
0
 46
0.0
 50
0.0
 44
0.0
 45
0.0
 49
8.5
 74
     4
 75
     0
340
0
 46
0.0
 50
0.0
 44
0.0
 45
0.0
 49
-8.5
 74
     4
 75
     0
340
0
 46
0.0
 50
0.0
 44
0.0
 45
0.0
  0
LTYPE
  5
43
330
5
100
AcDbSymbolTableRecord
100
AcDbLinetypeTableRecord
  2
DOT
 70
     0
  3
.........................
 72
    65
 73
     2
 40
10.0
 49
0.0
 74
     4
 75
     0
340
0
 46
0.0
 50
0.0
 44
0.0
 45
0.0
 49
-10.0
 74
     4
 75
     0
340
0
 46
0.0
 50
0.0
 44
0.0
 45
0.0
  0
LTYPE
  5
44
330
5
100
AcDbSymbolTableRecord
100
AcDbLinetypeTableRecord
  2
DASHDOT
 70
     0
  3
_._._._._._._._._._._._._._._._.
 72
    65
 73
     4
 40
70.0
 49
31.0
 74
     4
 75
     0
340
0
 46
0.0
 50
0.0
 44
0.0
 45
0.0
 49
-13.0
 74
     4
 75
     0
340
0
 46
0.0
 50
0.0
 44
0.0
 45
0.0
 49
13.0
 74
     4
 75
     0
340
0
 46
0.0
 50
0.0
 44
0.0
 45
0.0
 49
-13.0
 74
     4
 75
     0
340
0
 46
0.0
 50
0.0
 44
0.0
 45
0.0
  0
ENDTAB
  0
TABLE
  2
LAYER
  5
2
330
0
100
AcDbSymbolTable
 70
     5
  0
LAYER
  5
10
330
2
100
AcDbSymbolTableRecord
100
AcDbLayerTableRecord
  2
0
 70
     0
 62
     7
  6
CONTINUOUS
  0
LAYER
  5
46
330
2
100
AcDbSymbolTableRecord
100
AcDbLayerTableRecord
  2
1
 70
     0
 62
     7
  6
CONTINUOUS
  0
LAYER
  5
4F
330
2
100
AcDbSymbolTableRecord
100
AcDbLayerTableRecord
  2
256
 70
     0
 62
     7
  6
CONTINUOUS
  0
LAYER
  5
94
330
2
100
AcDbSymbolTableRecord
100
AcDbLayerTableRecord
  2
TOP
 70
     0
 62
     7
  6
CONTINUOUS
  0
LAYER
  5
A2
330
2
100
AcDbSymbolTableRecord
100
AcDbLayerTableRecord
  2
255
 70
     0
 62
     7
  6
CONTINUOUS
  0
ENDTAB
  0
TABLE
  2
STYLE
  5
3
330
0
100
AcDbSymbolTable
 70
     4
  0
STYLE
  5
11
330
3
100
AcDbSymbolTableRecord
100
AcDbTextStyleTableRecord
  2
STANDARD
 70
     0
 40
0.0
 41
1.0
 50
0.0
 71
     0
 42
0.2
  3
txt
  4

  0
STYLE
  5
92
330
3
100
AcDbSymbolTableRecord
100
AcDbTextStyleTableRecord
  2
DEFAULT
 70
     0
 40
0.0
 41
1.0
 50
0.0
 71
     0
 42
0.2
  3
simplex.shx
  4

  0
STYLE
  5
93
330
3
100
AcDbSymbolTableRecord
100
AcDbTextStyleTableRecord
  2
DWGDIRECTTEXTSTYLE
 70
     0
 40
0.0
 41
1.0
 50
0.0
 71
     0
 42
0.2
  3
SIMPLEX
  4
bigfont
  0
STYLE
  5
9E
330
3
100
AcDbSymbolTableRecord
100
AcDbTextStyleTableRecord
  2
BLOCKFONT
 70
     0
 40
0.0
 41
1.0
 50
0.0
 71
     0
 42
0.2
  3
simplex.shx
  4

  0
ENDTAB
  0
TABLE
  2
VIEW
  5
6
330
0
100
AcDbSymbolTable
 70
     0
  0
ENDTAB
  0
TABLE
  2
UCS
  5
7
330
0
100
AcDbSymbolTable
 70
     0
  0
ENDTAB
  0
TABLE
  2
APPID
  5
9
330
0
100
AcDbSymbolTable
 70
     1
  0
APPID
  5
12
330
9
100
AcDbSymbolTableRecord
100
AcDbRegAppTableRecord
  2
ACAD
 70
     0
  0
ENDTAB
  0
TABLE
  2
DIMSTYLE
  5
A
330
0
100
AcDbSymbolTable
 70
     1
  0
DIMSTYLE
105
27
102
{ACAD_REACTORS
330
EF
330
F8
330
101
330
10A
330
113
330
11C
102
}
330
A
100
AcDbSymbolTableRecord
100
AcDbDimStyleTableRecord
  2
STANDARD
 70
     0
  3

  4

  5

  6

  7

 40
1.0
 41
0.18
 42
0.0625
 43
0.38
 44
0.18
 45
0.0
 46
0.0
 47
0.0
 48
0.0
140
0.18
141
0.09
142
0.0
143
25.4
144
1.0
145
0.0
146
1.0
147
0.09
 71
     0
 72
     0
 73
     1
 74
     1
 75
     0
 76
     0
 77
     0
 78
     0
170
     0
171
     2
172
     0
173
     0
174
     0
175
     0
176
     0
177
     0
178
     0
270
     2
271
     4
272
     4
273
     2
274
     2
340
11
275
     0
280
     0
281
     0
282
     0
283
     1
284
     0
285
     0
286
     0
287
     3
288
     0
  0
ENDTAB
  0
TABLE
  2
BLOCK_RECORD
  5
1
330
0
100
AcDbSymbolTable
 70
     7
  0
BLOCK_RECORD
  5
1F
330
1
100
AcDbSymbolTableRecord
100
AcDbBlockTableRecord
  2
*MODEL_SPACE
  0
BLOCK_RECORD
  5
1B
330
1
100
AcDbSymbolTableRecord
100
AcDbBlockTableRecord
  2
*PAPER_SPACE
  0
BLOCK_RECORD
  5
E6
330
1
100
AcDbSymbolTableRecord
100
AcDbBlockTableRecord
  2
DIMNDRAFT3D1
  0
BLOCK_RECORD
  5
F0
330
1
100
AcDbSymbolTableRecord
100
AcDbBlockTableRecord
  2
DIMNDRAFT3D2
  0
BLOCK_RECORD
  5
F9
330
1
100
AcDbSymbolTableRecord
100
AcDbBlockTableRecord
  2
DIMNDRAFT3D3
  0
BLOCK_RECORD
  5
102
330
1
100
AcDbSymbolTableRecord
100
AcDbBlockTableRecord
  2
DIMNDRAFT3D4
  0
BLOCK_RECORD
  5
10B
330
1
100
AcDbSymbolTableRecord
100
AcDbBlockTableRecord
  2
DIMNDRAFT3D5
  0
BLOCK_RECORD
  5
114
330
1
100
AcDbSymbolTableRecord
100
AcDbBlockTableRecord
  2
DIMNDRAFT3D6
  0
ENDTAB
  0
ENDSEC
  0
SECTION
  2
BLOCKS
  0
BLOCK
  5
20
330
1F
100
AcDbEntity
  8
0
100
AcDbBlockBegin
  2
*MODEL_SPACE
 70
     0
 10
0.0
 20
0.0
 30
0.0
  3
*MODEL_SPACE
  1

  0
ENDBLK
  5
21
330
1F
100
AcDbEntity
  8
0
100
AcDbBlockEnd
  0
BLOCK
  5
1C
330
1B
100
AcDbEntity
 67
     1
  8
0
100
AcDbBlockBegin
  2
*PAPER_SPACE
 70
     0
 10
0.0
 20
0.0
 30
0.0
  3
*PAPER_SPACE
  1

  0
ENDBLK
  5
1D
330
1B
100
AcDbEntity
 67
     1
  8
0
100
AcDbBlockEnd
  0
BLOCK
  5
ED
330
E6
100
AcDbEntity
  8
0
100
AcDbBlockBegin
  2
DIMNDRAFT3D1
 70
     0
 10
0.0
 20
0.0
 30
0.0
  3
DIMNDRAFT3D1
  1

  0
MTEXT
  5
E7
330
E6
100
AcDbEntity
  8
1
  6
CONTINUOUS
 62
     3
100
AcDbMText
 10
137.877493
 20
135.476201
 30
0.0
 40
3.5
 41
0.0
 71
     7
 72
     5
  1
\W01.000;\W00.810;1,5 
  7
DEFAULT
 11
6.123031769111886E-17
 21
1.0
 31
0.0
1001
ACAD
1000
MTEXTBEGIN
1070
    73
1070
     2
1070
    44
1040
0.903614
1000
MTEXTEND
1000
ACAD_MTEXT_DEFINED_HEIGHT_BEGIN
1070
    46
1040
0.2
1000
ACAD_MTEXT_DEFINED_HEIGHT_END
  0
LINE
  5
E8
330
E6
100
AcDbEntity
  8
1
  6
CONTINUOUS
 62
     3
100
AcDbLine
 10
118.272482
 20
147.75
 30
0.0
 11
140.461396
 21
147.75
 31
0.0
  0
LINE
  5
E9
330
E6
100
AcDbEntity
  8
1
  6
CONTINUOUS
 62
     3
100
AcDbLine
 10
118.272482
 20
149.25
 30
0.0
 11
140.461396
 21
149.25
 31
0.0
  0
LINE
  5
EA
330
E6
100
AcDbEntity
  8
1
  6
CONTINUOUS
 62
     3
100
AcDbLine
 10
138.461396
 20
158.0
 30
0.0
 11
138.461396
 21
134.601201
 31
0.0
  0
SOLID
  5
EB
330
E6
100
AcDbEntity
  8
1
  6
CONTINUOUS
 62
     3
100
AcDbTrace
 10
138.461396
 20
147.75
 30
0.0
 11
139.399218
 21
144.250003
 31
0.0
 12
137.523574
 22
144.249997
 32
0.0
 13
138.461396
 23
147.75
 33
0.0
  0
SOLID
  5
EC
330
E6
100
AcDbEntity
  8
1
  6
CONTINUOUS
 62
     3
100
AcDbTrace
 10
138.461396
 20
149.25
 30
0.0
 11
137.523574
 21
152.749997
 31
0.0
 12
139.399218
 22
152.750003
 32
0.0
 13
138.461396
 23
149.25
 33
0.0
  0
ENDBLK
  5
EE
330
E6
100
AcDbEntity
  8
0
100
AcDbBlockEnd
  0
BLOCK
  5
F6
330
F0
100
AcDbEntity
  8
0
100
AcDbBlockBegin
  2
DIMNDRAFT3D2
 70
     0
 10
0.0
 20
0.0
 30
0.0
  3
DIMNDRAFT3D2
  1

  0
MTEXT
  5
F1
330
F0
100
AcDbEntity
  8
1
  6
CONTINUOUS
 62
     3
100
AcDbMText
 10
131.816479
 20
182.430056
 30
0.0
 40
3.5
 41
0.0
 71
     7
 72
     5
  1
\W01.000;\W00.810;4,3 
  7
DEFAULT
 11
0.804363851634023
 21
-0.5941370163392273
 31
0.0
1001
ACAD
1000
MTEXTBEGIN
1070
    73
1070
     2
1070
    44
1040
0.903614
1000
MTEXTEND
1000
ACAD_MTEXT_DEFINED_HEIGHT_BEGIN
1070
    46
1040
0.2
1000
ACAD_MTEXT_DEFINED_HEIGHT_END
  0
MTEXT
  5
F2
330
F0
100
AcDbEntity
  8
1
  6
CONTINUOUS
 62
     3
100
AcDbMText
 10
126.185932
 20
186.589015
 30
0.0
 40
3.5
 41
0.0
 71
     7
 72
     5
  1
\W01.000;%%c 
  7
DEFAULT
 11
0.804363851634023
 21
-0.5941370163392273
 31
0.0
1001
ACAD
1000
MTEXTBEGIN
1070
    73
1070
     2
1070
    44
1040
0.903614
1000
MTEXTEND
1000
ACAD_MTEXT_DEFINED_HEIGHT_BEGIN
1070
    46
1040
0.2
1000
ACAD_MTEXT_DEFINED_HEIGHT_END
  0
LINE
  5
F3
330
F0
100
AcDbEntity
  8
1
  6
CONTINUOUS
 62
     3
100
AcDbLine
 10
106.044915
 20
199.652284
 30
0.0
 11
135.386588
 21
177.979288
 31
0.0
  0
SOLID
  5
F4
330
F0
100
AcDbEntity
  8
1
  6
CONTINUOUS
 62
     3
100
AcDbTrace
 10
116.541863
 20
191.898795
 30
0.0
 11
119.914329
 21
190.573668
 31
0.0
 12
118.799944
 22
189.064964
 32
0.0
 13
116.541863
 23
191.898795
 33
0.0
  0
SOLID
  5
F5
330
F0
100
AcDbEntity
  8
1
  6
CONTINUOUS
 62
     3
100
AcDbTrace
 10
113.083098
 20
194.453585
 30
0.0
 11
109.710633
 21
195.778712
 31
0.0
 12
110.825017
 22
197.287416
 32
0.0
 13
113.083098
 23
194.453585
 33
0.0
  0
ENDBLK
  5
F7
330
F0
100
AcDbEntity
  8
0
100
AcDbBlockEnd
  0
BLOCK
  5
FF
330
F9
100
AcDbEntity
  8
0
100
AcDbBlockBegin
  2
DIMNDRAFT3D3
 70
     0
 10
0.0
 20
0.0
 30
0.0
  3
DIMNDRAFT3D3
  1

  0
MTEXT
  5
FA
330
F9
100
AcDbEntity
  8
1
  6
CONTINUOUS
 62
     3
100
AcDbMText
 10
74.895551
 20
184.817886
 30
0.0
 40
3.5
 41
0.0
 71
     7
 72
     5
  1
\W01.000;\W00.810;4,3 
  7
DEFAULT
 11
0.6155295547353768
 21
0.7881138034873318
 31
0.0
1001
ACAD
1000
MTEXTBEGIN
1070
    73
1070
     2
1070
    44
1040
0.903614
1000
MTEXTEND
1000
ACAD_MTEXT_DEFINED_HEIGHT_BEGIN
1070
    46
1040
0.2
1000
ACAD_MTEXT_DEFINED_HEIGHT_END
  0
MTEXT
  5
FB
330
F9
100
AcDbEntity
  8
1
  6
CONTINUOUS
 62
     3
100
AcDbMText
 10
70.586844
 20
179.301089
 30
0.0
 40
3.5
 41
0.0
 71
     7
 72
     5
  1
\W01.000;%%c 
  7
DEFAULT
 11
0.6155295547353768
 21
0.7881138034873318
 31
0.0
1001
ACAD
1000
MTEXTBEGIN
1070
    73
1070
     2
1070
    44
1040
0.903614
1000
MTEXTEND
1000
ACAD_MTEXT_DEFINED_HEIGHT_BEGIN
1070
    46
1040
0.2
1000
ACAD_MTEXT_DEFINED_HEIGHT_END
  0
LINE
  5
FC
330
F9
100
AcDbEntity
  8
1
  6
CONTINUOUS
 62
     3
100
AcDbLine
 10
71.198038
 20
177.713492
 30
0.0
 11
95.441756
 21
208.754745
 31
0.0
  0
SOLID
  5
FD
330
F9
100
AcDbEntity
  8
1
  6
CONTINUOUS
 62
     3
100
AcDbTrace
 10
90.055872
 20
201.858749
 30
0.0
 11
91.471113
 21
205.194402
 31
0.0
 12
92.949338
 22
204.039893
 32
0.0
 13
90.055872
 23
201.858749
 33
0.0
  0
SOLID
  5
FE
330
F9
100
AcDbEntity
  8
1
  6
CONTINUOUS
 62
     3
100
AcDbTrace
 10
87.409095
 20
198.46986
 30
0.0
 11
85.993854
 21
195.134207
 31
0.0
 12
84.515629
 22
196.288716
 32
0.0
 13
87.409095
 23
198.46986
 33
0.0
  0
ENDBLK
  5
100
330
F9
100
AcDbEntity
  8
0
100
AcDbBlockEnd
  0
BLOCK
  5
108
330
102
100
AcDbEntity
  8
0
100
AcDbBlockBegin
  2
DIMNDRAFT3D4
 70
     0
 10
0.0
 20
0.0
 30
0.0
  3
DIMNDRAFT3D4
  1

  0
MTEXT
  5
103
330
102
100
AcDbEntity
  8
1
  6
CONTINUOUS
 62
     3
100
AcDbMText
 10
86.475767
 20
175.320255
 30
0.0
 40
3.5
 41
0.0
 71
     7
 72
     5
  1
\W01.000;\W00.907;6 
  7
DEFAULT
 11
0.5363625495629969
 21
0.8439876867740913
 31
0.0
1001
ACAD
1000
MTEXTBEGIN
1070
    73
1070
     2
1070
    44
1040
0.903614
1000
MTEXTEND
1000
ACAD_MTEXT_DEFINED_HEIGHT_BEGIN
1070
    46
1040
0.2
1000
ACAD_MTEXT_DEFINED_HEIGHT_END
  0
MTEXT
  5
104
330
102
100
AcDbEntity
  8
1
  6
CONTINUOUS
 62
     3
100
AcDbMText
 10
82.721229
 20
169.412341
 30
0.0
 40
3.5
 41
0.0
 71
     7
 72
     5
  1
\W01.000;%%c 
  7
DEFAULT
 11
0.5363625495629969
 21
0.8439876867740913
 31
0.0
1001
ACAD
1000
MTEXTBEGIN
1070
    73
1070
     2
1070
    44
1040
0.903614
1000
MTEXTEND
1000
ACAD_MTEXT_DEFINED_HEIGHT_BEGIN
1070
    46
1040
0.2
1000
ACAD_MTEXT_DEFINED_HEIGHT_END
  0
LINE
  5
105
330
102
100
AcDbEntity
  8
1
  6
CONTINUOUS
 62
     3
100
AcDbLine
 10
83.483208
 20
167.891351
 30
0.0
 11
108.074742
 21
206.587102
 31
0.0
  0
SOLID
  5
106
330
102
100
AcDbEntity
  8
1
  6
CONTINUOUS
 62
     3
100
AcDbTrace
 10
103.38157
 20
199.20221
 30
0.0
 11
104.467326
 21
202.659177
 31
0.0
 12
106.050351
 22
201.653157
 32
0.0
 13
103.38157
 23
199.20221
 33
0.0
  0
SOLID
  5
107
330
102
100
AcDbEntity
  8
1
  6
CONTINUOUS
 62
     3
100
AcDbTrace
 10
100.163394
 20
194.138284
 30
0.0
 11
99.077638
 21
190.681317
 31
0.0
 12
97.494613
 22
191.687337
 32
0.0
 13
100.163394
 23
194.138284
 33
0.0
  0
ENDBLK
  5
109
330
102
100
AcDbEntity
  8
0
100
AcDbBlockEnd
  0
BLOCK
  5
111
330
10B
100
AcDbEntity
  8
0
100
AcDbBlockBegin
  2
DIMNDRAFT3D5
 70
     0
 10
0.0
 20
0.0
 30
0.0
  3
DIMNDRAFT3D5
  1

  0
MTEXT
  5
10C
330
10B
100
AcDbEntity
  8
1
  6
CONTINUOUS
 62
     3
100
AcDbMText
 10
128.64822
 20
168.005331
 30
0.0
 40
3.5
 41
0.0
 71
     7
 72
     5
  1
\W01.000;\W00.810;3,6 
  7
DEFAULT
 11
0.5822366139410527
 21
-0.8130193880753751
 31
0.0
1001
ACAD
1000
MTEXTBEGIN
1070
    73
1070
     2
1070
    44
1040
0.903614
1000
MTEXTEND
1000
ACAD_MTEXT_DEFINED_HEIGHT_BEGIN
1070
    46
1040
0.2
1000
ACAD_MTEXT_DEFINED_HEIGHT_END
  0
MTEXT
  5
10D
330
10B
100
AcDbEntity
  8
1
  6
CONTINUOUS
 62
     3
100
AcDbMText
 10
124.572564
 20
173.696467
 30
0.0
 40
3.5
 41
0.0
 71
     7
 72
     5
  1
\W01.000;%%c 
  7
DEFAULT
 11
0.5822366139410527
 21
-0.8130193880753751
 31
0.0
1001
ACAD
1000
MTEXTBEGIN
1070
    73
1070
     2
1070
    44
1040
0.903614
1000
MTEXTEND
1000
ACAD_MTEXT_DEFINED_HEIGHT_BEGIN
1070
    46
1040
0.2
1000
ACAD_MTEXT_DEFINED_HEIGHT_END
  0
LINE
  5
10E
330
10B
100
AcDbEntity
  8
1
  6
CONTINUOUS
 62
     3
100
AcDbLine
 10
108.449134
 20
193.705099
 30
0.0
 11
130.67374
 21
162.671263
 31
0.0
  0
SOLID
  5
10F
330
10B
100
AcDbEntity
  8
1
  6
CONTINUOUS
 62
     3
100
AcDbTrace
 10
115.639756
 20
183.664309
 30
0.0
 11
118.44005
 21
181.364779
 31
0.0
 12
116.915119
 22
180.272704
 32
0.0
 13
115.639756
 23
183.664309
 33
0.0
  0
SOLID
  5
110
330
10B
100
AcDbEntity
  8
1
  6
CONTINUOUS
 62
     3
100
AcDbTrace
 10
113.543704
 20
186.591179
 30
0.0
 11
110.743411
 21
188.89071
 31
0.0
 12
112.268342
 22
189.982784
 32
0.0
 13
113.543704
 23
186.591179
 33
0.0
  0
ENDBLK
  5
112
330
10B
100
AcDbEntity
  8
0
100
AcDbBlockEnd
  0
BLOCK
  5
11A
330
114
100
AcDbEntity
  8
0
100
AcDbBlockBegin
  2
DIMNDRAFT3D6
 70
     0
 10
0.0
 20
0.0
 30
0.0
  3
DIMNDRAFT3D6
  1

  0
MTEXT
  5
115
330
114
100
AcDbEntity
  8
1
  6
CONTINUOUS
 62
     3
100
AcDbMText
 10
70.757419
 20
200.717148
 30
0.0
 40
3.5
 41
0.0
 71
     7
 72
     5
  1
\W01.000;\W00.810;3,6 
  7
DEFAULT
 11
0.8938394963858703
 21
0.4483870590245147
 31
0.0
1001
ACAD
1000
MTEXTBEGIN
1070
    73
1070
     2
1070
    44
1040
0.903614
1000
MTEXTEND
1000
ACAD_MTEXT_DEFINED_HEIGHT_BEGIN
1070
    46
1040
0.2
1000
ACAD_MTEXT_DEFINED_HEIGHT_END
  0
MTEXT
  5
116
330
114
100
AcDbEntity
  8
1
  6
CONTINUOUS
 62
     3
100
AcDbMText
 10
64.500542
 20
197.578439
 30
0.0
 40
3.5
 41
0.0
 71
     7
 72
     5
  1
\W01.000;%%c 
  7
DEFAULT
 11
0.8938394963858703
 21
0.4483870590245147
 31
0.0
1001
ACAD
1000
MTEXTBEGIN
1070
    73
1070
     2
1070
    44
1040
0.903614
1000
MTEXTEND
1000
ACAD_MTEXT_DEFINED_HEIGHT_BEGIN
1070
    46
1040
0.2
1000
ACAD_MTEXT_DEFINED_HEIGHT_END
  0
LINE
  5
117
330
114
100
AcDbEntity
  8
1
  6
CONTINUOUS
 62
     3
100
AcDbLine
 10
64.372586
 20
195.882075
 30
0.0
 11
98.38324
 21
212.943234
 31
0.0
  0
SOLID
  5
118
330
114
100
AcDbEntity
  8
1
  6
CONTINUOUS
 62
     3
100
AcDbTrace
 10
90.562145
 20
209.019847
 30
0.0
 11
93.270073
 21
211.427462
 31
0.0
 12
94.111094
 22
209.750941
 32
0.0
 13
90.562145
 23
209.019847
 33
0.0
  0
SOLID
  5
119
330
114
100
AcDbEntity
  8
1
  6
CONTINUOUS
 62
     3
100
AcDbTrace
 10
87.344323
 20
207.405653
 30
0.0
 11
84.636395
 21
204.998038
 31
0.0
 12
83.795374
 22
206.67456
 32
0.0
 13
87.344323
 23
207.405653
 33
0.0
  0
ENDBLK
  5
11B
330
114
100
AcDbEntity
  8
0
100
AcDbBlockEnd
  0
ENDSEC
  0
SECTION
  2
ENTITIES
  0
LINE
  5
45
330
1F
100
AcDbEntity
  8
1
  6
CONTINUOUS
 62
     2
100
AcDbLine
 10
118.272482
 20
213.170247
 30
0.0
 11
85.272482
 21
213.170247
 31
0.0
  0
LINE
  5
47
330
1F
100
AcDbEntity
  8
1
  6
CONTINUOUS
 62
     2
100
AcDbLine
 10
85.272482
 20
180.170247
 30
0.0
 11
118.272482
 21
180.170247
 31
0.0
  0
LINE
  5
48
330
1F
100
AcDbEntity
  8
1
  6
CONTINUOUS
 62
     2
100
AcDbLine
 10
85.272482
 20
213.170247
 30
0.0
 11
85.272482
 21
180.170247
 31
0.0
  0
LINE
  5
49
330
1F
100
AcDbEntity
  8
1
  6
CONTINUOUS
 62
     2
100
AcDbLine
 10
118.272482
 20
180.170247
 30
0.0
 11
118.272482
 21
213.170247
 31
0.0
  0
LINE
  5
4A
330
1F
100
AcDbEntity
  8
1
  6
CONTINUOUS
 62
     2
100
AcDbLine
 10
118.272482
 20
149.25
 30
0.0
 11
118.272482
 21
147.75
 31
0.0
  0
LINE
  5
4B
330
1F
100
AcDbEntity
  8
1
  6
CONTINUOUS
 62
     2
100
AcDbLine
 10
85.272482
 20
149.25
 30
0.0
 11
85.272482
 21
147.75
 31
0.0
  0
LINE
  5
4C
330
1F
100
AcDbEntity
  8
1
  6
CONTINUOUS
 62
     2
100
AcDbLine
 10
118.272482
 20
147.75
 30
0.0
 11
85.272482
 21
147.75
 31
0.0
  0
LINE
  5
4D
330
1F
100
AcDbEntity
  8
1
  6
CONTINUOUS
 62
     2
100
AcDbLine
 10
118.272482
 20
149.25
 30
0.0
 11
85.272482
 21
149.25
 31
0.0
  0
LINE
  5
4E
330
1F
100
AcDbEntity
  8
256
  6
CONTINUOUS
 62
    18
100
AcDbLine
 10
0.0
 20
0.0
 30
0.0
 11
205.0
 21
0.0
 31
0.0
  0
LINE
  5
50
330
1F
100
AcDbEntity
  8
256
  6
CONTINUOUS
 62
     3
100
AcDbLine
 10
-0.04
 20
148.5
 30
0.0
 11
15.0
 21
148.5
 31
0.0
  0
LINE
  5
51
330
1F
100
AcDbEntity
  8
256
  6
CONTINUOUS
 62
     2
100
AcDbLine
 10
15.0
 20
287.0
 30
0.0
 11
195.0
 21
287.0
 31
0.0
  0
LINE
  5
52
330
1F
100
AcDbEntity
  8
256
  6
CONTINUOUS
 62
    18
100
AcDbLine
 10
0.0
 20
0.0
 30
0.0
 11
0.0
 21
297.0
 31
0.0
  0
LINE
  5
53
330
1F
100
AcDbEntity
  8
256
  6
CONTINUOUS
 62
     2
100
AcDbLine
 10
22.0
 20
257.0
 30
0.0
 11
22.0
 21
287.0
 31
0.0
  0
LINE
  5
54
330
1F
100
AcDbEntity
  8
256
  6
CONTINUOUS
 62
     2
100
AcDbLine
 10
15.0
 20
257.0
 30
0.0
 11
195.0
 21
257.0
 31
0.0
  0
LINE
  5
55
330
1F
100
AcDbEntity
  8
256
  6
CONTINUOUS
 62
     3
100
AcDbLine
 10
195.0
 20
282.0
 30
0.0
 11
15.0
 21
282.0
 31
0.0
  0
LINE
  5
56
330
1F
100
AcDbEntity
  8
256
  6
CONTINUOUS
 62
     2
100
AcDbLine
 10
15.0
 20
287.0
 30
0.0
 11
15.0
 21
10.0
 31
0.0
  0
LINE
  5
57
330
1F
100
AcDbEntity
  8
256
  6
CONTINUOUS
 62
     3
100
AcDbLine
 10
195.0
 20
262.0
 30
0.0
 11
15.0
 21
262.0
 31
0.0
  0
LINE
  5
58
330
1F
100
AcDbEntity
  8
256
  6
CONTINUOUS
 62
     3
100
AcDbLine
 10
195.0
 20
277.0
 30
0.0
 11
15.0
 21
277.0
 31
0.0
  0
LINE
  5
59
330
1F
100
AcDbEntity
  8
256
  6
CONTINUOUS
 62
     3
100
AcDbLine
 10
195.0
 20
267.0
 30
0.0
 11
15.0
 21
267.0
 31
0.0
  0
LINE
  5
5A
330
1F
100
AcDbEntity
  8
256
  6
CONTINUOUS
 62
     2
100
AcDbLine
 10
195.0
 20
10.0
 30
0.0
 11
195.0
 21
287.0
 31
0.0
  0
LINE
  5
5B
330
1F
100
AcDbEntity
  8
256
  6
CONTINUOUS
 62
     3
100
AcDbLine
 10
195.0
 20
272.0
 30
0.0
 11
15.0
 21
272.0
 31
0.0
  0
LINE
  5
5C
330
1F
100
AcDbEntity
  8
256
  6
CONTINUOUS
 62
    18
100
AcDbLine
 10
205.0
 20
0.0
 30
0.0
 11
205.0
 21
297.0
 31
0.0
  0
LINE
  5
5D
330
1F
100
AcDbEntity
  8
256
  6
CONTINUOUS
 62
    18
100
AcDbLine
 10
0.0
 20
297.0
 30
0.0
 11
205.0
 21
297.0
 31
0.0
  0
LINE
  5
5E
330
1F
100
AcDbEntity
  8
256
  6
CONTINUOUS
 62
     2
100
AcDbLine
 10
15.0
 20
252.0
 30
0.0
 11
195.0
 21
252.0
 31
0.0
  0
LINE
  5
5F
330
1F
100
AcDbEntity
  8
256
  6
CONTINUOUS
 62
     2
100
AcDbLine
 10
115.0
 20
67.5
 30
0.0
 11
195.0
 21
67.5
 31
0.0
  0
LINE
  5
60
330
1F
100
AcDbEntity
  8
256
  6
CONTINUOUS
 62
     2
100
AcDbLine
 10
57.5
 20
51.0
 30
0.0
 11
155.0
 21
51.0
 31
0.0
  0
LINE
  5
61
330
1F
100
AcDbEntity
  8
256
  6
CONTINUOUS
 62
     3
100
AcDbLine
 10
173.0
 20
56.579805
 30
0.0
 11
173.0
 21
49.500705
 31
0.0
  0
LINE
  5
62
330
1F
100
AcDbEntity
  8
256
  6
CONTINUOUS
 62
     3
100
AcDbLine
 10
46.875
 20
22.0
 30
0.0
 11
46.875
 21
10.0
 31
0.0
  0
LINE
  5
63
330
1F
100
AcDbEntity
  8
256
  6
CONTINUOUS
 62
     2
100
AcDbLine
 10
15.0
 20
100.0
 30
0.0
 11
195.0
 21
100.0
 31
0.0
  0
LINE
  5
64
330
1F
100
AcDbEntity
  8
256
  6
CONTINUOUS
 62
     3
100
AcDbLine
 10
115.0
 20
62.0
 30
0.0
 11
155.0
 21
62.0
 31
0.0
  0
LINE
  5
65
330
1F
100
AcDbEntity
  8
256
  6
CONTINUOUS
 62
     3
100
AcDbLine
 10
173.0
 20
49.500705
 30
0.0
 11
164.97
 21
51.256405
 31
0.0
  0
LINE
  5
66
330
1F
100
AcDbEntity
  8
256
  6
CONTINUOUS
 62
     2
100
AcDbLine
 10
15.0
 20
10.0
 30
0.0
 11
195.0
 21
10.0
 31
0.0
  0
LINE
  5
67
330
1F
100
AcDbEntity
  8
256
  6
CONTINUOUS
 62
     2
100
AcDbLine
 10
57.5
 20
44.0
 30
0.0
 11
195.0
 21
44.0
 31
0.0
  0
LINE
  5
68
330
1F
100
AcDbEntity
  8
256
  6
CONTINUOUS
 62
     3
100
AcDbLine
 10
164.97
 20
54.824205
 30
0.0
 11
164.97
 21
51.256405
 31
0.0
  0
LINE
  5
69
330
1F
100
AcDbEntity
  8
256
  6
CONTINUOUS
 62
     2
100
AcDbLine
 10
15.0
 20
28.0
 30
0.0
 11
57.5
 21
28.0
 31
0.0
  0
LINE
  5
6A
330
1F
100
AcDbEntity
  8
256
  6
CENTER
 62
     3
100
AcDbLine
 10
181.579
 20
57.640305
 30
0.0
 11
181.579
 21
48.487505
 31
0.0
  0
LINE
  5
6B
330
1F
100
AcDbEntity
  8
256
  6
CONTINUOUS
 62
     3
100
AcDbLine
 10
173.0
 20
56.579805
 30
0.0
 11
164.97
 21
54.824205
 31
0.0
  0
LINE
  5
6C
330
1F
100
AcDbEntity
  8
256
  6
CONTINUOUS
 62
     3
100
AcDbLine
 10
115.0
 20
56.5
 30
0.0
 11
155.0
 21
56.5
 31
0.0
  0
LINE
  5
6D
330
1F
100
AcDbEntity
  8
256
  6
CENTER
 62
     3
100
AcDbLine
 10
176.745
 20
53.040305
 30
0.0
 11
186.158
 21
53.040305
 31
0.0
  0
LINE
  5
6E
330
1F
100
AcDbEntity
  8
256
  6
CONTINUOUS
 62
     2
100
AcDbLine
 10
155.0
 20
67.5
 30
0.0
 11
155.0
 21
10.0
 31
0.0
  0
LINE
  5
6F
330
1F
100
AcDbEntity
  8
256
  6
CONTINUOUS
 62
     3
100
AcDbLine
 10
155.0
 20
28.0
 30
0.0
 11
195.0
 21
28.0
 31
0.0
  0
LINE
  5
70
330
1F
100
AcDbEntity
  8
256
  6
CONTINUOUS
 62
     3
100
AcDbLine
 10
135.0
 20
51.0
 30
0.0
 11
135.0
 21
67.5
 31
0.0
  0
LINE
  5
71
330
1F
100
AcDbEntity
  8
256
  6
CONTINUOUS
 62
     2
100
AcDbLine
 10
15.0
 20
100.0
 30
0.0
 11
15.0
 21
10.0
 31
0.0
  0
LINE
  5
72
330
1F
100
AcDbEntity
  8
256
  6
CONTINUOUS
 62
     3
100
AcDbLine
 10
15.0
 20
35.9
 30
0.0
 11
57.5
 21
35.9
 31
0.0
  0
LINE
  5
73
330
1F
100
AcDbEntity
  8
256
  6
CONTINUOUS
 62
     3
100
AcDbLine
 10
36.25
 20
16.0
 30
0.0
 11
57.5
 21
16.0
 31
0.0
  0
LINE
  5
74
330
1F
100
AcDbEntity
  8
256
  6
CONTINUOUS
 62
     2
100
AcDbLine
 10
15.0
 20
58.0
 30
0.0
 11
57.5
 21
58.0
 31
0.0
  0
LINE
  5
75
330
1F
100
AcDbEntity
  8
256
  6
CONTINUOUS
 62
     3
100
AcDbLine
 10
57.5
 20
43.8
 30
0.0
 11
15.0
 21
43.8
 31
0.0
  0
LINE
  5
76
330
1F
100
AcDbEntity
  8
256
  6
CONTINUOUS
 62
     3
100
AcDbLine
 10
97.189666
 20
60.322391
 30
0.0
 11
95.409666
 21
59.762391
 31
0.0
  0
LINE
  5
77
330
1F
100
AcDbEntity
  8
256
  6
CONTINUOUS
 62
     3
100
AcDbLine
 10
15.0
 20
71.88581
 30
0.0
 11
57.5
 21
71.88581
 31
0.0
  0
LINE
  5
78
330
1F
100
AcDbEntity
  8
256
  6
CONTINUOUS
 62
     2
100
AcDbLine
 10
15.0
 20
79.88581
 30
0.0
 11
115.0
 21
79.88581
 31
0.0
  0
LINE
  5
79
330
1F
100
AcDbEntity
  8
256
  6
CONTINUOUS
 62
     3
100
AcDbLine
 10
97.189666
 20
60.322391
 30
0.0
 11
95.409666
 21
60.882391
 31
0.0
  0
LINE
  5
7A
330
1F
100
AcDbEntity
  8
256
  6
CONTINUOUS
 62
     2
100
AcDbLine
 10
57.5
 20
58.0
 30
0.0
 11
115.0
 21
58.0
 31
0.0
  0
LINE
  5
7B
330
1F
100
AcDbEntity
  8
256
  6
CONTINUOUS
 62
     3
100
AcDbLine
 10
57.5
 20
51.0
 30
0.0
 11
15.0
 21
51.0
 31
0.0
  0
LINE
  5
7C
330
1F
100
AcDbEntity
  8
256
  6
CONTINUOUS
 62
     3
100
AcDbLine
 10
87.599666
 20
71.897391
 30
0.0
 11
87.599666
 21
58.842391
 31
0.0
  0
LINE
  5
7D
330
1F
100
AcDbEntity
  8
256
  6
CONTINUOUS
 62
     2
100
AcDbLine
 10
46.875
 20
22.0
 30
0.0
 11
36.25
 21
22.0
 31
0.0
  0
LINE
  5
7E
330
1F
100
AcDbEntity
  8
256
  6
CONTINUOUS
 62
     2
100
AcDbLine
 10
15.0
 20
87.88581
 30
0.0
 11
115.0
 21
87.88581
 31
0.0
  0
LINE
  5
7F
330
1F
100
AcDbEntity
  8
256
  6
CONTINUOUS
 62
     3
100
AcDbLine
 10
41.563
 20
22.0
 30
0.0
 11
41.563
 21
10.0
 31
0.0
  0
LINE
  5
80
330
1F
100
AcDbEntity
  8
256
  6
CENTER
 62
     3
100
AcDbLine
 10
163.719
 20
53.040305
 30
0.0
 11
174.383
 21
53.040305
 31
0.0
  0
LINE
  5
81
330
1F
100
AcDbEntity
  8
256
  6
CONTINUOUS
 62
     2
100
AcDbLine
 10
115.0
 20
51.0
 30
0.0
 11
115.0
 21
100.0
 31
0.0
  0
LINE
  5
82
330
1F
100
AcDbEntity
  8
256
  6
CONTINUOUS
 62
     2
100
AcDbLine
 10
36.25
 20
28.0
 30
0.0
 11
36.25
 21
10.0
 31
0.0
  0
LINE
  5
83
330
1F
100
AcDbEntity
  8
256
  6
CONTINUOUS
 62
     3
100
AcDbLine
 10
52.188
 20
28.0
 30
0.0
 11
52.188
 21
10.0
 31
0.0
  0
LINE
  5
84
330
1F
100
AcDbEntity
  8
256
  6
CONTINUOUS
 62
     2
100
AcDbLine
 10
36.25
 20
58.0
 30
0.0
 11
36.25
 21
27.9773
 31
0.0
  0
LINE
  5
85
330
1F
100
AcDbEntity
  8
256
  6
CONTINUOUS
 62
     3
100
AcDbLine
 10
155.0
 20
36.0
 30
0.0
 11
195.0
 21
36.0
 31
0.0
  0
LINE
  5
86
330
1F
100
AcDbEntity
  8
256
  6
CONTINUOUS
 62
     3
100
AcDbLine
 10
46.875
 20
22.0
 30
0.0
 11
57.5
 21
22.0
 31
0.0
  0
LINE
  5
87
330
1F
100
AcDbEntity
  8
256
  6
CONTINUOUS
 62
     2
100
AcDbLine
 10
57.5
 20
10.0
 30
0.0
 11
57.5
 21
79.88581
 31
0.0
  0
LINE
  5
88
330
1F
100
AcDbEntity
  8
256
  6
CONTINUOUS
 62
     2
100
AcDbLine
 10
46.875
 20
22.0
 30
0.0
 11
46.875
 21
28.0
 31
0.0
  0
CIRCLE
  5
89
330
1F
100
AcDbEntity
  8
1
  6
CONTINUOUS
 62
     2
100
AcDbCircle
 10
88.732483
 20
200.164304
 30
0.0
 40
2.15
  0
CIRCLE
  5
8A
330
1F
100
AcDbEntity
  8
1
  6
CONTINUOUS
 62
     2
100
AcDbCircle
 10
114.812481
 20
193.17619
 30
0.0
 40
2.15
  0
CIRCLE
  5
8B
330
1F
100
AcDbEntity
  8
1
  6
CONTINUOUS
 62
     2
100
AcDbCircle
 10
101.772482
 20
196.670247
 30
0.0
 40
3.0
  0
CIRCLE
  5
8C
330
1F
100
AcDbEntity
  8
1
  6
CONTINUOUS
 62
     2
100
AcDbCircle
 10
-88.953234
 20
208.21275
 30
0.0
 40
1.8
210
0.0
220
0.0
230
-1.0
  0
CIRCLE
  5
8D
330
1F
100
AcDbEntity
  8
1
  6
CONTINUOUS
 62
     2
100
AcDbCircle
 10
-114.59173
 20
185.127744
 30
0.0
 40
1.8
210
0.0
220
0.0
230
-1.0
  0
CIRCLE
  5
8E
330
1F
100
AcDbEntity
  8
256
  6
CONTINUOUS
 62
     3
100
AcDbCircle
 10
181.579
 20
53.040305
 30
0.0
 40
1.78392
  0
CIRCLE
  5
8F
330
1F
100
AcDbEntity
  8
256
  6
CONTINUOUS
 62
     3
100
AcDbCircle
 10
84.709666
 20
61.202391
 30
0.0
 40
0.197989
  0
CIRCLE
  5
90
330
1F
100
AcDbEntity
  8
256
  6
CONTINUOUS
 62
     3
100
AcDbCircle
 10
181.579
 20
53.040305
 30
0.0
 40
3.53955
  0
MTEXT
  5
91
330
1F
100
AcDbEntity
  8
256
  6
CONTINUOUS
 62
     3
100
AcDbMText
 10
83.757687
 20
252.893659
 30
0.0
 40
2.0
 41
0.0
 71
     7
 72
     5
  1
\W00.772;MODIFICACIONES / 
  7
DEFAULT
1001
ACAD
1000
MTEXTBEGIN
1070
    73
1070
     2
1070
    44
1040
0.903614
1000
MTEXTEND
1000
ACAD_MTEXT_DEFINED_HEIGHT_BEGIN
1070
    46
1040
0.2
1000
ACAD_MTEXT_DEFINED_HEIGHT_END
  0
MTEXT
  5
95
330
1F
100
AcDbEntity
  8
256
  6
CONTINUOUS
 62
     3
100
AcDbMText
 10
106.834347
 20
252.893659
 30
0.0
 40
2.0
 41
0.0
 71
     7
 72
     5
  1
\W00.817;\Q20.000000;MODIFICATIONS\Q0; 
  7
DEFAULT
1001
ACAD
1000
MTEXTBEGIN
1070
    73
1070
     2
1070
    44
1040
0.903614
1000
MTEXTEND
1000
ACAD_MTEXT_DEFINED_HEIGHT_BEGIN
1070
    46
1040
0.2
1000
ACAD_MTEXT_DEFINED_HEIGHT_END
  0
MTEXT
  5
96
330
1F
100
AcDbEntity
  8
256
  6
CONTINUOUS
 62
     3
100
AcDbMText
 10
58.7503
 20
45.497799
 30
0.0
 40
1.4
 41
0.0
 71
     7
 72
     5
  1
\W00.695;\Q20.000000;It cancels and substitutes the precedents date\Q0; 
  7
DEFAULT
1001
ACAD
1000
MTEXTBEGIN
1070
    73
1070
     2
1070
    44
1040
0.903614
1000
MTEXTEND
1000
ACAD_MTEXT_DEFINED_HEIGHT_BEGIN
1070
    46
1040
0.2
1000
ACAD_MTEXT_DEFINED_HEIGHT_END
  0
MTEXT
  5
97
330
1F
100
AcDbEntity
  8
256
  6
CONTINUOUS
 62
     3
100
AcDbMText
 10
99.377174
 20
58.908527
 30
0.0
 40
1.7
 41
0.0
 71
     7
 72
     5
  1
\W00.797;50     0,25 
  7
DEFAULT
1001
ACAD
1000
MTEXTBEGIN
1070
    73
1070
     2
1070
    44
1040
0.903614
1000
MTEXTEND
1000
ACAD_MTEXT_DEFINED_HEIGHT_BEGIN
1070
    46
1040
0.2
1000
ACAD_MTEXT_DEFINED_HEIGHT_END
  0
MTEXT
  5
98
330
1F
100
AcDbEntity
  8
256
  6
CONTINUOUS
 62
     3
100
AcDbMText
 10
116.17134
 20
62.54831
 30
0.0
 40
1.5
 41
0.0
 71
     7
 72
     5
  1
\W00.794;\Q20.000000;DEMOULD\Q0; 
  7
DEFAULT
1001
ACAD
1000
MTEXTBEGIN
1070
    73
1070
     2
1070
    44
1040
0.903614
1000
MTEXTEND
1000
ACAD_MTEXT_DEFINED_HEIGHT_BEGIN
1070
    46
1040
0.2
1000
ACAD_MTEXT_DEFINED_HEIGHT_END
  0
MTEXT
  5
99
330
1F
100
AcDbEntity
  8
256
  6
CONTINUOUS
 62
     3
100
AcDbMText
 10
15.71949
 20
69.268308
 30
0.0
 40
1.5
 41
0.0
 71
     7
 72
     5
  1
\W00.777;ACABADO / TRATAMIENTO 
  7
DEFAULT
1001
ACAD
1000
MTEXTBEGIN
1070
    73
1070
     2
1070
    44
1040
0.903614
1000
MTEXTEND
1000
ACAD_MTEXT_DEFINED_HEIGHT_BEGIN
1070
    46
1040
0.2
1000
ACAD_MTEXT_DEFINED_HEIGHT_END
  0
MTEXT
  5
9A
330
1F
100
AcDbEntity
  8
256
  6
CONTINUOUS
 62
     3
100
AcDbMText
 10
21.368239
 20
92.056025
 30
0.0
 40
1.7
 41
0.0
 71
     7
 72
     5
  1
\W00.733;PROPIEDAD DE J. FELIU DE LA PENYA, S.L. NO SERA REPRODUCIDO TOTAL O PARCIALMENTE\P NI ENTREGADO A TERCEROS SIN AUTORIZACION ESCRITA\P 
  7
DEFAULT
1001
ACAD
1000
MTEXTBEGIN
1070
    44
1040
0.903614
1000
MTEXTEND
1000
ACAD_MTEXT_DEFINED_HEIGHT_BEGIN
1070
    46
1040
0.2
1000
ACAD_MTEXT_DEFINED_HEIGHT_END
  0
MTEXT
  5
9B
330
1F
100
AcDbEntity
  8
256
  6
CONTINUOUS
 62
     3
100
AcDbMText
 10
115.94083
 20
64.848826
 30
0.0
 40
1.5
 41
0.0
 71
     7
 72
     5
  1
\W00.790;DESMOLDEO 
  7
DEFAULT
1001
ACAD
1000
MTEXTBEGIN
1070
    73
1070
     2
1070
    44
1040
0.903614
1000
MTEXTEND
1000
ACAD_MTEXT_DEFINED_HEIGHT_BEGIN
1070
    46
1040
0.2
1000
ACAD_MTEXT_DEFINED_HEIGHT_END
  0
MTEXT
  5
9C
330
1F
100
AcDbEntity
  8
256
  6
CONTINUOUS
 62
     3
100
AcDbMText
 10
116.17134
 20
53.861182
 30
0.0
 40
1.5
 41
0.0
 71
     7
 72
     5
  1
\W00.784;ESPESOR 
  7
DEFAULT
1001
ACAD
1000
MTEXTBEGIN
1070
    73
1070
     2
1070
    44
1040
0.903614
1000
MTEXTEND
1000
ACAD_MTEXT_DEFINED_HEIGHT_BEGIN
1070
    46
1040
0.2
1000
ACAD_MTEXT_DEFINED_HEIGHT_END
  0
MTEXT
  5
9D
330
1F
100
AcDbEntity
  8
256
  6
CONTINUOUS
 62
     3
100
AcDbMText
 10
95.617997
 20
64.087216
 30
0.0
 40
1.5
 41
0.0
 71
     7
 72
     5
  1
\W00.701;- 
  7
BLOCKFONT
1001
ACAD
1000
MTEXTBEGIN
1070
    73
1070
     2
1070
    44
1040
0.903614
1000
MTEXTEND
1000
ACAD_MTEXT_DEFINED_HEIGHT_BEGIN
1070
    46
1040
0.2
1000
ACAD_MTEXT_DEFINED_HEIGHT_END
  0
MTEXT
  5
9F
330
1F
100
AcDbEntity
  8
256
  6
CONTINUOUS
 62
     3
100
AcDbMText
 10
92.000916
 20
68.556001
 30
0.0
 40
1.7
 41
0.0
 71
     7
 72
     5
  1
\W00.744;0     20     0,1 
  7
DEFAULT
1001
ACAD
1000
MTEXTBEGIN
1070
    73
1070
     2
1070
    44
1040
0.903614
1000
MTEXTEND
1000
ACAD_MTEXT_DEFINED_HEIGHT_BEGIN
1070
    46
1040
0.2
1000
ACAD_MTEXT_DEFINED_HEIGHT_END
  0
MTEXT
  5
A0
330
1F
100
AcDbEntity
  8
256
  6
CONTINUOUS
 62
     3
100
AcDbMText
 10
24.377317
 20
29.687513
 30
0.0
 40
1.5
 41
0.0
 71
     8
 72
     5
  1
\W00.834;\Q20.000000;DATE\Q0; 
  7
DEFAULT
1001
ACAD
1000
MTEXTBEGIN
1070
    73
1070
     2
1070
    44
1040
0.903614
1000
MTEXTEND
1000
ACAD_MTEXT_DEFINED_HEIGHT_BEGIN
1070
    46
1040
0.2
1000
ACAD_MTEXT_DEFINED_HEIGHT_END
  0
MTEXT
  5
A1
330
1F
100
AcDbEntity
  8
255
  6
CONTINUOUS
 62
     3
100
AcDbMText
 10
38.54969
 20
29.669488
 30
0.0
 40
3.0
 41
0.0
 71
     7
 72
     5
  1
\W00.776;23/06/15 
  7
DEFAULT
1001
ACAD
1000
MTEXTBEGIN
1070
    73
1070
     2
1070
    44
1040
0.903614
1000
MTEXTEND
1000
ACAD_MTEXT_DEFINED_HEIGHT_BEGIN
1070
    46
1040
0.2
1000
ACAD_MTEXT_DEFINED_HEIGHT_END
  0
MTEXT
  5
A3
330
1F
100
AcDbEntity
  8
256
  6
CONTINUOUS
 62
     3
100
AcDbMText
 10
104.901997
 20
63.288016
 30
0.0
 40
1.5
 41
0.0
 71
     7
 72
     5
  1
\W00.701;- 
  7
BLOCKFONT
1001
ACAD
1000
MTEXTBEGIN
1070
    73
1070
     2
1070
    44
1040
0.903614
1000
MTEXTEND
1000
ACAD_MTEXT_DEFINED_HEIGHT_BEGIN
1070
    46
1040
0.2
1000
ACAD_MTEXT_DEFINED_HEIGHT_END
  0
MTEXT
  5
A4
330
1F
100
AcDbEntity
  8
256
  6
CONTINUOUS
 62
     3
100
AcDbMText
 10
171.16911
 20
40.224858
 30
0.0
 40
1.5
 41
0.0
 71
     7
 72
     5
  1
\W00.811;\Q20.000000;SUBSTITUTES\Q0; 
  7
DEFAULT
1001
ACAD
1000
MTEXTBEGIN
1070
    73
1070
     2
1070
    44
1040
0.903614
1000
MTEXTEND
1000
ACAD_MTEXT_DEFINED_HEIGHT_BEGIN
1070
    46
1040
0.2
1000
ACAD_MTEXT_DEFINED_HEIGHT_END
  0
MTEXT
  5
A5
330
1F
100
AcDbEntity
  8
256
  6
CONTINUOUS
 62
     3
100
AcDbMText
 10
156.16847
 20
25.078575
 30
0.0
 40
1.5
 41
0.0
 71
     7
 72
     5
  1
\W00.783;CODIGO/ 
  7
DEFAULT
1001
ACAD
1000
MTEXTBEGIN
1070
    73
1070
     2
1070
    44
1040
0.903614
1000
MTEXTEND
1000
ACAD_MTEXT_DEFINED_HEIGHT_BEGIN
1070
    46
1040
0.2
1000
ACAD_MTEXT_DEFINED_HEIGHT_END
  0
MTEXT
  5
A6
330
1F
100
AcDbEntity
  8
256
  6
CONTINUOUS
 62
     3
100
AcDbMText
 10
104.901997
 20
64.558016
 30
0.0
 40
1.5
 41
0.0
 71
     7
 72
     5
  1
\W00.701;+ 
  7
BLOCKFONT
1001
ACAD
1000
MTEXTBEGIN
1070
    73
1070
     2
1070
    44
1040
0.903614
1000
MTEXTEND
1000
ACAD_MTEXT_DEFINED_HEIGHT_BEGIN
1070
    46
1040
0.2
1000
ACAD_MTEXT_DEFINED_HEIGHT_END
  0
MTEXT
  5
A7
330
1F
100
AcDbEntity
  8
256
  6
CONTINUOUS
 62
     3
100
AcDbMText
 10
90.660916
 20
63.876001
 30
0.0
 40
1.7
 41
0.0
 71
     7
 72
     5
  1
\W00.758;20     50     0,15 
  7
DEFAULT
1001
ACAD
1000
MTEXTBEGIN
1070
    73
1070
     2
1070
    44
1040
0.903614
1000
MTEXTEND
1000
ACAD_MTEXT_DEFINED_HEIGHT_BEGIN
1070
    46
1040
0.2
1000
ACAD_MTEXT_DEFINED_HEIGHT_END
  0
MTEXT
  5
A8
330
1F
100
AcDbEntity
  8
256
  6
CONTINUOUS
 62
     3
100
AcDbMText
 10
143.400865
 20
51.338002
 30
0.0
 40
3.0
 41
0.0
 71
     7
 72
     5
  1
\W01.000; 
  7
DEFAULT
1001
ACAD
1000
MTEXTBEGIN
1070
    73
1070
     2
1070
    44
1040
0.903614
1000
MTEXTEND
1000
ACAD_MTEXT_DEFINED_HEIGHT_BEGIN
1070
    46
1040
0.2
1000
ACAD_MTEXT_DEFINED_HEIGHT_END
  0
MTEXT
  5
A9
330
1F
100
AcDbEntity
  8
256
  6
CONTINUOUS
 62
     3
100
AcDbMText
 10
116.17134
 20
57.065014
 30
0.0
 40
1.5
 41
0.0
 71
     7
 72
     5
  1
\W00.818;\Q20.000000;RADIUS\Q0; 
  7
DEFAULT
1001
ACAD
1000
MTEXTBEGIN
1070
    73
1070
     2
1070
    44
1040
0.903614
1000
MTEXTEND
1000
ACAD_MTEXT_DEFINED_HEIGHT_BEGIN
1070
    46
1040
0.2
1000
ACAD_MTEXT_DEFINED_HEIGHT_END
  0
MTEXT
  5
AA
330
1F
100
AcDbEntity
  8
256
  6
CONTINUOUS
 62
     3
100
AcDbMText
 10
59.18386
 20
55.191929
 30
0.0
 40
1.5
 41
0.0
 71
     7
 72
     5
  1
\W00.768;DUREZA/ 
  7
DEFAULT
1001
ACAD
1000
MTEXTBEGIN
1070
    73
1070
     2
1070
    44
1040
0.903614
1000
MTEXTEND
1000
ACAD_MTEXT_DEFINED_HEIGHT_BEGIN
1070
    46
1040
0.2
1000
ACAD_MTEXT_DEFINED_HEIGHT_END
  0
MTEXT
  5
AB
330
1F
100
AcDbEntity
  8
256
  6
CONTINUOUS
 62
     3
100
AcDbMText
 10
24.65774
 20
45.203784
 30
0.0
 40
1.5
 41
0.0
 71
     8
 72
     5
  1
\W00.793;\Q20.000000;PROJECTED\Q0; 
  7
DEFAULT
1001
ACAD
1000
MTEXTBEGIN
1070
    73
1070
     2
1070
    44
1040
0.903614
1000
MTEXTEND
1000
ACAD_MTEXT_DEFINED_HEIGHT_BEGIN
1070
    46
1040
0.2
1000
ACAD_MTEXT_DEFINED_HEIGHT_END
  0
MTEXT
  5
AC
330
1F
100
AcDbEntity
  8
255
  6
CONTINUOUS
 62
     2
100
AcDbMText
 10
75.571849
 20
21.193446
 30
0.0
 40
6.0
 41
0.0
 71
     7
 72
     5
  1
\W00.769;SOPORTE ROTULA 
  7
DEFAULT
1001
ACAD
1000
MTEXTBEGIN
1070
    73
1070
     2
1070
    44
1040
0.903614
1000
MTEXTEND
1000
ACAD_MTEXT_DEFINED_HEIGHT_BEGIN
1070
    46
1040
0.2
1000
ACAD_MTEXT_DEFINED_HEIGHT_END
  0
MTEXT
  5
AD
330
1F
100
AcDbEntity
  8
256
  6
CONTINUOUS
 62
     3
100
AcDbMText
 10
156.65916
 20
32.604203
 30
0.0
 40
1.5
 41
0.0
 71
     7
 72
     5
  1
\W00.768;SUSTITUIDO POR/ 
  7
DEFAULT
1001
ACAD
1000
MTEXTBEGIN
1070
    73
1070
     2
1070
    44
1040
0.903614
1000
MTEXTEND
1000
ACAD_MTEXT_DEFINED_HEIGHT_BEGIN
1070
    46
1040
0.2
1000
ACAD_MTEXT_DEFINED_HEIGHT_END
  0
MTEXT
  5
AE
330
1F
100
AcDbEntity
  8
256
  6
CONTINUOUS
 62
     3
100
AcDbMText
 10
61.08378
 20
62.058932
 30
0.0
 40
1.7
 41
0.0
 71
     7
 72
     5
  1
\W00.732;ejes/axis\P 
  7
DEFAULT
1001
ACAD
1000
MTEXTBEGIN
1070
    44
1040
0.903614
1000
MTEXTEND
1000
ACAD_MTEXT_DEFINED_HEIGHT_BEGIN
1070
    46
1040
0.2
1000
ACAD_MTEXT_DEFINED_HEIGHT_END
  0
MTEXT
  5
AF
330
1F
100
AcDbEntity
  8
256
  6
CONTINUOUS
 62
     3
100
AcDbMText
 10
83.555666
 20
68.556001
 30
0.0
 40
1.7
 41
0.0
 71
     7
 72
     5
  1
\W01.006;11 
  7
DEFAULT
1001
ACAD
1000
MTEXTBEGIN
1070
    73
1070
     2
1070
    44
1040
0.903614
1000
MTEXTEND
1000
ACAD_MTEXT_DEFINED_HEIGHT_BEGIN
1070
    46
1040
0.2
1000
ACAD_MTEXT_DEFINED_HEIGHT_END
  0
MTEXT
  5
B0
330
1F
100
AcDbEntity
  8
256
  6
CONTINUOUS
 62
     3
100
AcDbMText
 10
25.140186
 20
48.128729
 30
0.0
 40
1.5
 41
0.0
 71
     8
 72
     5
  1
\W00.807;PROYECTADO 
  7
DEFAULT
1001
ACAD
1000
MTEXTBEGIN
1070
    73
1070
     2
1070
    44
1040
0.903614
1000
MTEXTEND
1000
ACAD_MTEXT_DEFINED_HEIGHT_BEGIN
1070
    46
1040
0.2
1000
ACAD_MTEXT_DEFINED_HEIGHT_END
  0
MTEXT
  5
B1
330
1F
100
AcDbEntity
  8
256
  6
CONTINUOUS
 62
     3
100
AcDbMText
 10
104.901997
 20
59.718016
 30
0.0
 40
1.5
 41
0.0
 71
     7
 72
     5
  1
\W00.701;+ 
  7
BLOCKFONT
1001
ACAD
1000
MTEXTBEGIN
1070
    73
1070
     2
1070
    44
1040
0.903614
1000
MTEXTEND
1000
ACAD_MTEXT_DEFINED_HEIGHT_BEGIN
1070
    46
1040
0.2
1000
ACAD_MTEXT_DEFINED_HEIGHT_END
  0
MTEXT
  5
B2
330
1F
100
AcDbEntity
  8
256
  6
CONTINUOUS
 62
     3
100
AcDbMText
 10
80.914666
 20
68.596001
 30
0.0
 40
1.7
 41
0.0
 71
     7
 72
     5
  1
\W00.930;H 
  7
DEFAULT
1001
ACAD
1000
MTEXTBEGIN
1070
    73
1070
     2
1070
    44
1040
0.903614
1000
MTEXTEND
1000
ACAD_MTEXT_DEFINED_HEIGHT_BEGIN
1070
    46
1040
0.2
1000
ACAD_MTEXT_DEFINED_HEIGHT_END
  0
MTEXT
  5
B3
330
1F
100
AcDbEntity
  8
256
  6
CONTINUOUS
 62
     3
100
AcDbMText
 10
66.246514
 20
80.076596
 30
0.0
 40
3.0
 41
0.0
 71
     7
 72
     5
  1
\W01.000; 
  7
DEFAULT
1001
ACAD
1000
MTEXTBEGIN
1070
    73
1070
     2
1070
    44
1040
0.903614
1000
MTEXTEND
1000
ACAD_MTEXT_DEFINED_HEIGHT_BEGIN
1070
    46
1040
0.2
1000
ACAD_MTEXT_DEFINED_HEIGHT_END
  0
MTEXT
  5
B4
330
1F
100
AcDbEntity
  8
256
  6
CONTINUOUS
 62
     3
100
AcDbMText
 10
37.271915
 20
25.693186
 30
0.0
 40
1.2
 41
0.0
 71
     7
 72
     5
  1
\W00.815;MODIFIC. 
  7
DEFAULT
1001
ACAD
1000
MTEXTBEGIN
1070
    73
1070
     2
1070
    44
1040
0.903614
1000
MTEXTEND
1000
ACAD_MTEXT_DEFINED_HEIGHT_BEGIN
1070
    46
1040
0.2
1000
ACAD_MTEXT_DEFINED_HEIGHT_END
  0
MTEXT
  5
B5
330
1F
100
AcDbEntity
  8
256
  6
CONTINUOUS
 62
     3
100
AcDbMText
 10
83.514666
 20
63.916001
 30
0.0
 40
1.7
 41
0.0
 71
     7
 72
     5
  1
\W01.006;11 
  7
DEFAULT
1001
ACAD
1000
MTEXTBEGIN
1070
    73
1070
     2
1070
    44
1040
0.903614
1000
MTEXTEND
1000
ACAD_MTEXT_DEFINED_HEIGHT_BEGIN
1070
    46
1040
0.2
1000
ACAD_MTEXT_DEFINED_HEIGHT_END
  0
MTEXT
  5
B6
330
1F
100
AcDbEntity
  8
256
  6
CONTINUOUS
 62
     3
100
AcDbMText
 10
69.47946
 20
55.126635
 30
0.0
 40
1.5
 41
0.0
 71
     7
 72
     5
  1
\W00.795;\Q20.000000;HARDNESS\Q0; 
  7
DEFAULT
1001
ACAD
1000
MTEXTBEGIN
1070
    73
1070
     2
1070
    44
1040
0.903614
1000
MTEXTEND
1000
ACAD_MTEXT_DEFINED_HEIGHT_BEGIN
1070
    46
1040
0.2
1000
ACAD_MTEXT_DEFINED_HEIGHT_END
  0
MTEXT
  5
B7
330
1F
100
AcDbEntity
  8
255
  6
CONTINUOUS
 62
     2
100
AcDbMText
 10
21.342694
 20
12.93072
 30
0.0
 40
6.0
 41
0.0
 71
     7
 72
     5
  1
\W00.928;1:1 
  7
DEFAULT
1001
ACAD
1000
MTEXTBEGIN
1070
    73
1070
     2
1070
    44
1040
0.903614
1000
MTEXTEND
1000
ACAD_MTEXT_DEFINED_HEIGHT_BEGIN
1070
    46
1040
0.2
1000
ACAD_MTEXT_DEFINED_HEIGHT_END
  0
MTEXT
  5
B8
330
1F
100
AcDbEntity
  8
256
  6
CONTINUOUS
 62
     3
100
AcDbMText
 10
126.29453
 20
45.38736
 30
0.0
 40
1.4
 41
0.0
 71
     7
 72
     5
  1
\W00.746;\Q20.000000;signature\Q0; 
  7
DEFAULT
1001
ACAD
1000
MTEXTBEGIN
1070
    73
1070
     2
1070
    44
1040
0.903614
1000
MTEXTEND
1000
ACAD_MTEXT_DEFINED_HEIGHT_BEGIN
1070
    46
1040
0.2
1000
ACAD_MTEXT_DEFINED_HEIGHT_END
  0
MTEXT
  5
B9
330
1F
100
AcDbEntity
  8
256
  6
CONTINUOUS
 62
     3
100
AcDbMText
 10
116.17134
 20
59.316586
 30
0.0
 40
1.5
 41
0.0
 71
     7
 72
     5
  1
\W00.819;RADIOS 
  7
DEFAULT
1001
ACAD
1000
MTEXTBEGIN
1070
    73
1070
     2
1070
    44
1040
0.903614
1000
MTEXTEND
1000
ACAD_MTEXT_DEFINED_HEIGHT_BEGIN
1070
    46
1040
0.2
1000
ACAD_MTEXT_DEFINED_HEIGHT_END
  0
MTEXT
  5
BA
330
1F
100
AcDbEntity
  8
256
  6
CONTINUOUS
 62
     3
100
AcDbMText
 10
59.1176
 20
48.306201
 30
0.0
 40
1.4
 41
0.0
 71
     7
 72
     5
  1
\W00.688;anula y sustituye a los precedentes fecha 
  7
DEFAULT
1001
ACAD
1000
MTEXTBEGIN
1070
    73
1070
     2
1070
    44
1040
0.903614
1000
MTEXTEND
1000
ACAD_MTEXT_DEFINED_HEIGHT_BEGIN
1070
    46
1040
0.2
1000
ACAD_MTEXT_DEFINED_HEIGHT_END
  0
MTEXT
  5
BB
330
1F
100
AcDbEntity
  8
256
  6
CONTINUOUS
 62
     3
100
AcDbMText
 10
104.901997
 20
68.028016
 30
0.0
 40
1.5
 41
0.0
 71
     7
 72
     5
  1
\W00.701;- 
  7
BLOCKFONT
1001
ACAD
1000
MTEXTBEGIN
1070
    73
1070
     2
1070
    44
1040
0.903614
1000
MTEXTEND
1000
ACAD_MTEXT_DEFINED_HEIGHT_BEGIN
1070
    46
1040
0.2
1000
ACAD_MTEXT_DEFINED_HEIGHT_END
  0
MTEXT
  5
BC
330
1F
100
AcDbEntity
  8
256
  6
CONTINUOUS
 62
     3
100
AcDbMText
 10
95.617997
 20
68.747216
 30
0.0
 40
1.5
 41
0.0
 71
     7
 72
     5
  1
\W00.701;- 
  7
BLOCKFONT
1001
ACAD
1000
MTEXTBEGIN
1070
    73
1070
     2
1070
    44
1040
0.903614
1000
MTEXTEND
1000
ACAD_MTEXT_DEFINED_HEIGHT_BEGIN
1070
    46
1040
0.2
1000
ACAD_MTEXT_DEFINED_HEIGHT_END
  0
MTEXT
  5
BD
330
1F
100
AcDbEntity
  8
256
  6
CONTINUOUS
 62
     3
100
AcDbMText
 10
174.51877
 20
32.651717
 30
0.0
 40
1.5
 41
0.0
 71
     7
 72
     5
  1
\W00.778;\Q20.000000;SUBSTITUTED BY\Q0; 
  7
DEFAULT
1001
ACAD
1000
MTEXTBEGIN
1070
    73
1070
     2
1070
    44
1040
0.903614
1000
MTEXTEND
1000
ACAD_MTEXT_DEFINED_HEIGHT_BEGIN
1070
    46
1040
0.2
1000
ACAD_MTEXT_DEFINED_HEIGHT_END
  0
MTEXT
  5
BE
330
1F
100
AcDbEntity
  8
256
  6
CONTINUOUS
 62
     3
100
AcDbMText
 10
35.278503
 20
60.490742
 30
0.0
 40
3.0
 41
0.0
 71
     7
 72
     5
  1
\W01.000; 
  7
DEFAULT
1001
ACAD
1000
MTEXTBEGIN
1070
    73
1070
     2
1070
    44
1040
0.903614
1000
MTEXTEND
1000
ACAD_MTEXT_DEFINED_HEIGHT_BEGIN
1070
    46
1040
0.2
1000
ACAD_MTEXT_DEFINED_HEIGHT_END
  0
MTEXT
  5
BF
330
1F
100
AcDbEntity
  8
256
  6
CONTINUOUS
 62
     3
100
AcDbMText
 10
95.382147
 20
69.798016
 30
0.0
 40
1.5
 41
0.0
 71
     7
 72
     5
  1
\W00.273;. 
  7
BLOCKFONT
1001
ACAD
1000
MTEXTBEGIN
1070
    73
1070
     2
1070
    44
1040
0.903614
1000
MTEXTEND
1000
ACAD_MTEXT_DEFINED_HEIGHT_BEGIN
1070
    46
1040
0.2
1000
ACAD_MTEXT_DEFINED_HEIGHT_END
  0
MTEXT
  5
C0
330
1F
100
AcDbEntity
  8
256
  6
CONTINUOUS
 62
     3
100
AcDbMText
 10
15.6298
 20
66.936464
 30
0.0
 40
1.5
 41
0.0
 71
     7
 72
     5
  1
\W00.757;\Q20.000000;FINISH / TREATMENT\Q0; 
  7
DEFAULT
1001
ACAD
1000
MTEXTBEGIN
1070
    73
1070
     2
1070
    44
1040
0.903614
1000
MTEXTEND
1000
ACAD_MTEXT_DEFINED_HEIGHT_BEGIN
1070
    46
1040
0.2
1000
ACAD_MTEXT_DEFINED_HEIGHT_END
  0
MTEXT
  5
C1
330
1F
100
AcDbEntity
  8
255
  6
CONTINUOUS
 62
     3
100
AcDbMText
 10
40.04089
 20
52.115912
 30
0.0
 40
3.0
 41
0.0
 71
     7
 72
     5
  1
\W00.727;C. Alvarez 
  7
DEFAULT
1001
ACAD
1000
MTEXTBEGIN
1070
    73
1070
     2
1070
    44
1040
0.903614
1000
MTEXTEND
1000
ACAD_MTEXT_DEFINED_HEIGHT_BEGIN
1070
    46
1040
0.2
1000
ACAD_MTEXT_DEFINED_HEIGHT_END
  0
MTEXT
  5
C2
330
1F
100
AcDbEntity
  8
256
  6
CONTINUOUS
 62
     3
100
AcDbMText
 10
25.209972
 20
37.729159
 30
0.0
 40
3.0
 41
0.0
 71
     8
 72
     5
  1
\W00.693;V.B.  
  7
DEFAULT
1001
ACAD
1000
MTEXTBEGIN
1070
    73
1070
     2
1070
    44
1040
0.903614
1000
MTEXTEND
1000
ACAD_MTEXT_DEFINED_HEIGHT_BEGIN
1070
    46
1040
0.2
1000
ACAD_MTEXT_DEFINED_HEIGHT_END
  0
MTEXT
  5
C3
330
1F
100
AcDbEntity
  8
255
  6
CONTINUOUS
 62
     3
100
AcDbMText
 10
39.88392
 20
45.444772
 30
0.0
 40
3.0
 41
0.0
 71
     7
 72
     5
  1
\W00.727;C. Alvarez 
  7
DEFAULT
1001
ACAD
1000
MTEXTBEGIN
1070
    73
1070
     2
1070
    44
1040
0.903614
1000
MTEXTEND
1000
ACAD_MTEXT_DEFINED_HEIGHT_BEGIN
1070
    46
1040
0.2
1000
ACAD_MTEXT_DEFINED_HEIGHT_END
  0
MTEXT
  5
C4
330
1F
100
AcDbEntity
  8
256
  6
CONTINUOUS
 62
     3
100
AcDbMText
 10
104.901997
 20
58.448016
 30
0.0
 40
1.5
 41
0.0
 71
     7
 72
     5
  1
\W00.701;- 
  7
BLOCKFONT
1001
ACAD
1000
MTEXTBEGIN
1070
    73
1070
     2
1070
    44
1040
0.903614
1000
MTEXTEND
1000
ACAD_MTEXT_DEFINED_HEIGHT_BEGIN
1070
    46
1040
0.2
1000
ACAD_MTEXT_DEFINED_HEIGHT_END
  0
MTEXT
  5
C5
330
1F
100
AcDbEntity
  8
256
  6
CONTINUOUS
 62
     3
100
AcDbMText
 10
23.600858
 20
52.763642
 30
0.0
 40
1.5
 41
0.0
 71
     8
 72
     5
  1
\W00.819;\Q20.000000;DRAWN\Q0; 
  7
DEFAULT
1001
ACAD
1000
MTEXTBEGIN
1070
    73
1070
     2
1070
    44
1040
0.903614
1000
MTEXTEND
1000
ACAD_MTEXT_DEFINED_HEIGHT_BEGIN
1070
    46
1040
0.2
1000
ACAD_MTEXT_DEFINED_HEIGHT_END
  0
MTEXT
  5
C6
330
1F
100
AcDbEntity
  8
256
  6
CONTINUOUS
 62
     3
100
AcDbMText
 10
60.954666
 20
68.776001
 30
0.0
 40
1.7
 41
0.0
 71
     7
 72
     5
  1
\W00.735;agujeros/holes 
  7
DEFAULT
1001
ACAD
1000
MTEXTBEGIN
1070
    73
1070
     2
1070
    44
1040
0.903614
1000
MTEXTEND
1000
ACAD_MTEXT_DEFINED_HEIGHT_BEGIN
1070
    46
1040
0.2
1000
ACAD_MTEXT_DEFINED_HEIGHT_END
  0
MTEXT
  5
C7
330
1F
100
AcDbEntity
  8
256
  6
CONTINUOUS
 62
     3
100
AcDbMText
 10
59.155
 20
40.400244
 30
0.0
 40
1.5
 41
0.0
 71
     7
 72
     5
  1
\W00.789;DENOMINACION/ 
  7
DEFAULT
1001
ACAD
1000
MTEXTBEGIN
1070
    73
1070
     2
1070
    44
1040
0.903614
1000
MTEXTEND
1000
ACAD_MTEXT_DEFINED_HEIGHT_BEGIN
1070
    46
1040
0.2
1000
ACAD_MTEXT_DEFINED_HEIGHT_END
  0
MTEXT
  5
C8
330
1F
100
AcDbEntity
  8
256
  6
CONTINUOUS
 62
     3
100
AcDbMText
 10
28.356613
 20
77.001059
 30
0.0
 40
1.7
 41
0.0
 71
     8
 72
     5
  1
\W00.798;\Q20.000000;COLOUR\Q0; 
  7
DEFAULT
1001
ACAD
1000
MTEXTBEGIN
1070
    73
1070
     2
1070
    44
1040
0.903614
1000
MTEXTEND
1000
ACAD_MTEXT_DEFINED_HEIGHT_BEGIN
1070
    46
1040
0.2
1000
ACAD_MTEXT_DEFINED_HEIGHT_END
  0
MTEXT
  5
C9
330
1F
100
AcDbEntity
  8
256
  6
CONTINUOUS
 62
     3
100
AcDbMText
 10
95.382147
 20
65.138016
 30
0.0
 40
1.5
 41
0.0
 71
     7
 72
     5
  1
\W00.273;. 
  7
BLOCKFONT
1001
ACAD
1000
MTEXTBEGIN
1070
    73
1070
     2
1070
    44
1040
0.903614
1000
MTEXTEND
1000
ACAD_MTEXT_DEFINED_HEIGHT_BEGIN
1070
    46
1040
0.2
1000
ACAD_MTEXT_DEFINED_HEIGHT_END
  0
MTEXT
  5
CA
330
1F
100
AcDbEntity
  8
256
  6
CONTINUOUS
 62
     3
100
AcDbMText
 10
80.914666
 20
63.906001
 30
0.0
 40
1.7
 41
0.0
 71
     7
 72
     5
  1
\W00.919;h 
  7
DEFAULT
1001
ACAD
1000
MTEXTBEGIN
1070
    73
1070
     2
1070
    44
1040
0.903614
1000
MTEXTEND
1000
ACAD_MTEXT_DEFINED_HEIGHT_BEGIN
1070
    46
1040
0.2
1000
ACAD_MTEXT_DEFINED_HEIGHT_END
  0
MTEXT
  5
CB
330
1F
100
AcDbEntity
  8
256
  6
CONTINUOUS
 62
     3
100
AcDbMText
 10
144.80185
 20
56.431485
 30
0.0
 40
3.5
 41
0.0
 71
     7
 72
     5
  1
\W01.000; 
  7
DEFAULT
1001
ACAD
1000
MTEXTBEGIN
1070
    73
1070
     2
1070
    44
1040
0.903614
1000
MTEXTEND
1000
ACAD_MTEXT_DEFINED_HEIGHT_BEGIN
1070
    46
1040
0.2
1000
ACAD_MTEXT_DEFINED_HEIGHT_END
  0
MTEXT
  5
CC
330
1F
100
AcDbEntity
  8
256
  6
CONTINUOUS
 62
     3
100
AcDbMText
 10
104.901997
 20
69.298016
 30
0.0
 40
1.5
 41
0.0
 71
     7
 72
     5
  1
\W00.701;+ 
  7
BLOCKFONT
1001
ACAD
1000
MTEXTBEGIN
1070
    73
1070
     2
1070
    44
1040
0.903614
1000
MTEXTEND
1000
ACAD_MTEXT_DEFINED_HEIGHT_BEGIN
1070
    46
1040
0.2
1000
ACAD_MTEXT_DEFINED_HEIGHT_END
  0
MTEXT
  5
CD
330
1F
100
AcDbEntity
  8
256
  6
CONTINUOUS
 62
     3
100
AcDbMText
 10
36.379012
 20
72.649
 30
0.0
 40
2.5
 41
0.0
 71
     7
 72
     5
  1
\W01.000; 
  7
DEFAULT
1001
ACAD
1000
MTEXTBEGIN
1070
    73
1070
     2
1070
    44
1040
0.903614
1000
MTEXTEND
1000
ACAD_MTEXT_DEFINED_HEIGHT_BEGIN
1070
    46
1040
0.2
1000
ACAD_MTEXT_DEFINED_HEIGHT_END
  0
MTEXT
  5
CE
330
1F
100
AcDbEntity
  8
256
  6
CONTINUOUS
 62
     3
100
AcDbMText
 10
19.32129
 20
77.090745
 30
0.0
 40
1.7
 41
0.0
 71
     8
 72
     5
  1
\W00.776;COLOR/ 
  7
DEFAULT
1001
ACAD
1000
MTEXTBEGIN
1070
    73
1070
     2
1070
    44
1040
0.903614
1000
MTEXTEND
1000
ACAD_MTEXT_DEFINED_HEIGHT_BEGIN
1070
    46
1040
0.2
1000
ACAD_MTEXT_DEFINED_HEIGHT_END
  0
MTEXT
  5
CF
330
1F
100
AcDbEntity
  8
256
  6
CONTINUOUS
 62
     3
100
AcDbMText
 10
156.65916
 20
40.260901
 30
0.0
 40
1.5
 41
0.0
 71
     7
 72
     5
  1
\W00.776;SUSTITUYE A/ 
  7
DEFAULT
1001
ACAD
1000
MTEXTBEGIN
1070
    73
1070
     2
1070
    44
1040
0.903614
1000
MTEXTEND
1000
ACAD_MTEXT_DEFINED_HEIGHT_BEGIN
1070
    46
1040
0.2
1000
ACAD_MTEXT_DEFINED_HEIGHT_END
  0
MTEXT
  5
D0
330
1F
100
AcDbEntity
  8
256
  6
CONTINUOUS
 62
     3
100
AcDbMText
 10
19.092715
 20
24.484486
 30
0.0
 40
1.5
 41
0.0
 71
     7
 72
     5
  1
\W00.799;ESCALA/ 
  7
DEFAULT
1001
ACAD
1000
MTEXTBEGIN
1070
    73
1070
     2
1070
    44
1040
0.903614
1000
MTEXTEND
1000
ACAD_MTEXT_DEFINED_HEIGHT_BEGIN
1070
    46
1040
0.2
1000
ACAD_MTEXT_DEFINED_HEIGHT_END
  0
MTEXT
  5
D1
330
1F
100
AcDbEntity
  8
256
  6
CONTINUOUS
 62
     3
100
AcDbMText
 10
79.094349
 20
76.683737
 30
0.0
 40
1.5
 41
0.0
 71
     7
 72
     5
  1
\W00.769;COTAS SIN TOLERANCIA 
  7
DEFAULT
1001
ACAD
1000
MTEXTBEGIN
1070
    73
1070
     2
1070
    44
1040
0.903614
1000
MTEXTEND
1000
ACAD_MTEXT_DEFINED_HEIGHT_BEGIN
1070
    46
1040
0.2
1000
ACAD_MTEXT_DEFINED_HEIGHT_END
  0
MTEXT
  5
D2
330
1F
100
AcDbEntity
  8
256
  6
CONTINUOUS
 62
     3
100
AcDbMText
 10
21.003064
 20
88.849003
 30
0.0
 40
1.5
 41
0.0
 71
     7
 72
     5
  1
\W00.729;\Q20.000000;\Q40.000000;\Q20.000000;PROPERTY OF J. FELIU DE LA PENYA, S.L. IT WILL NOT BE TOTALLY OR PARTIALLY  REPRODUCED\P NOR GIVEN TO THIRDS WITHOUT WRITTEN AUTHORIZATION\Q0;\Q0;\Q0; 
  7
DEFAULT
1001
ACAD
1000
MTEXTBEGIN
1070
    44
1040
0.903614
1000
MTEXTEND
1000
ACAD_MTEXT_DEFINED_HEIGHT_BEGIN
1070
    46
1040
0.2
1000
ACAD_MTEXT_DEFINED_HEIGHT_END
  0
MTEXT
  5
D3
330
1F
100
AcDbEntity
  8
256
  6
CONTINUOUS
 62
     3
100
AcDbMText
 10
88.514728
 20
73.783401
 30
0.0
 40
1.5
 41
0.0
 71
     8
 72
     5
  1
\W00.771;\Q20.000000;DIMENSIONS WITHOUT TOLERANCE\Q0; 
  7
DEFAULT
1001
ACAD
1000
MTEXTBEGIN
1070
    73
1070
     2
1070
    44
1040
0.903614
1000
MTEXTEND
1000
ACAD_MTEXT_DEFINED_HEIGHT_BEGIN
1070
    46
1040
0.2
1000
ACAD_MTEXT_DEFINED_HEIGHT_END
  0
MTEXT
  5
D4
330
1F
100
AcDbEntity
  8
256
  6
CONTINUOUS
 62
     3
100
AcDbMText
 10
95.402147
 20
64.348016
 30
0.0
 40
1.5
 41
0.0
 71
     7
 72
     5
  1
\W00.273;. 
  7
BLOCKFONT
1001
ACAD
1000
MTEXTBEGIN
1070
    73
1070
     2
1070
    44
1040
0.903614
1000
MTEXTEND
1000
ACAD_MTEXT_DEFINED_HEIGHT_BEGIN
1070
    46
1040
0.2
1000
ACAD_MTEXT_DEFINED_HEIGHT_END
  0
MTEXT
  5
D5
330
1F
100
AcDbEntity
  8
256
  6
CONTINUOUS
 62
     3
100
AcDbMText
 10
24.679196
 20
55.275157
 30
0.0
 40
1.5
 41
0.0
 71
     8
 72
     5
  1
\W00.809;DIBUJADO 
  7
DEFAULT
1001
ACAD
1000
MTEXTBEGIN
1070
    73
1070
     2
1070
    44
1040
0.903614
1000
MTEXTEND
1000
ACAD_MTEXT_DEFINED_HEIGHT_BEGIN
1070
    46
1040
0.2
1000
ACAD_MTEXT_DEFINED_HEIGHT_END
  0
MTEXT
  5
D6
330
1F
100
AcDbEntity
  8
256
  6
CONTINUOUS
 62
     3
100
AcDbMText
 10
80.864666
 20
60.002635
 30
0.0
 40
1.5
 41
0.0
 71
     7
 72
     5
  1
\W00.925;+ 
  7
DEFAULT
1001
ACAD
1000
MTEXTBEGIN
1070
    73
1070
     2
1070
    44
1040
0.903614
1000
MTEXTEND
1000
ACAD_MTEXT_DEFINED_HEIGHT_BEGIN
1070
    46
1040
0.2
1000
ACAD_MTEXT_DEFINED_HEIGHT_END
  0
MTEXT
  5
D7
330
1F
100
AcDbEntity
  8
256
  6
CONTINUOUS
 62
     3
100
AcDbMText
 10
60.884666
 20
59.182635
 30
0.0
 40
1.5
 41
0.0
 71
     7
 72
     5
  1
\W00.730;angular 
  7
DEFAULT
1001
ACAD
1000
MTEXTBEGIN
1070
    73
1070
     2
1070
    44
1040
0.903614
1000
MTEXTEND
1000
ACAD_MTEXT_DEFINED_HEIGHT_BEGIN
1070
    46
1040
0.2
1000
ACAD_MTEXT_DEFINED_HEIGHT_END
  0
MTEXT
  5
D8
330
1F
100
AcDbEntity
  8
256
  6
CONTINUOUS
 62
     3
100
AcDbMText
 10
80.864666
 20
58.392635
 30
0.0
 40
1.5
 41
0.0
 71
     7
 72
     5
  1
\W00.612;- 
  7
DEFAULT
1001
ACAD
1000
MTEXTBEGIN
1070
    73
1070
     2
1070
    44
1040
0.903614
1000
MTEXTEND
1000
ACAD_MTEXT_DEFINED_HEIGHT_BEGIN
1070
    46
1040
0.2
1000
ACAD_MTEXT_DEFINED_HEIGHT_END
  0
MTEXT
  5
D9
330
1F
100
AcDbEntity
  8
256
  6
CONTINUOUS
 62
     3
100
AcDbMText
 10
78.9728
 20
40.400244
 30
0.0
 40
1.5
 41
0.0
 71
     7
 72
     5
  1
\W00.812;\Q20.000000;DENOMINATION\Q0; 
  7
DEFAULT
1001
ACAD
1000
MTEXTBEGIN
1070
    73
1070
     2
1070
    44
1040
0.903614
1000
MTEXTEND
1000
ACAD_MTEXT_DEFINED_HEIGHT_BEGIN
1070
    46
1040
0.2
1000
ACAD_MTEXT_DEFINED_HEIGHT_END
  0
MTEXT
  5
DA
330
1F
100
AcDbEntity
  8
256
  6
CONTINUOUS
 62
     3
100
AcDbMText
 10
116.17134
 20
51.581718
 30
0.0
 40
1.5
 41
0.0
 71
     7
 72
     5
  1
\W00.797;\Q20.000000;THICKNESS\Q0; 
  7
DEFAULT
1001
ACAD
1000
MTEXTBEGIN
1070
    73
1070
     2
1070
    44
1040
0.903614
1000
MTEXTEND
1000
ACAD_MTEXT_DEFINED_HEIGHT_BEGIN
1070
    46
1040
0.2
1000
ACAD_MTEXT_DEFINED_HEIGHT_END
  0
MTEXT
  5
DB
330
1F
100
AcDbEntity
  8
256
  6
CONTINUOUS
 62
     3
100
AcDbMText
 10
166.79999
 20
24.787301
 30
0.0
 40
1.5
 41
0.0
 71
     7
 72
     5
  1
\W00.794;\Q20.000000;CODE\Q0; 
  7
DEFAULT
1001
ACAD
1000
MTEXTBEGIN
1070
    73
1070
     2
1070
    44
1040
0.903614
1000
MTEXTEND
1000
ACAD_MTEXT_DEFINED_HEIGHT_BEGIN
1070
    46
1040
0.2
1000
ACAD_MTEXT_DEFINED_HEIGHT_END
  0
MTEXT
  5
DC
330
1F
100
AcDbEntity
  8
256
  6
CONTINUOUS
 62
     3
100
AcDbMText
 10
126.29453
 20
47.955865
 30
0.0
 40
1.4
 41
0.0
 71
     7
 72
     5
  1
\W00.766;firma 
  7
DEFAULT
1001
ACAD
1000
MTEXTBEGIN
1070
    73
1070
     2
1070
    44
1040
0.903614
1000
MTEXTEND
1000
ACAD_MTEXT_DEFINED_HEIGHT_BEGIN
1070
    46
1040
0.2
1000
ACAD_MTEXT_DEFINED_HEIGHT_END
  0
MTEXT
  5
DD
330
1F
100
AcDbEntity
  8
256
  6
CONTINUOUS
 62
     3
100
AcDbMText
 10
83.555666
 20
58.976001
 30
0.0
 40
1.7
 41
0.0
 71
     7
 72
     5
  1
\W01.402;1 
  7
DEFAULT
1001
ACAD
1000
MTEXTBEGIN
1070
    73
1070
     2
1070
    44
1040
0.903614
1000
MTEXTEND
1000
ACAD_MTEXT_DEFINED_HEIGHT_BEGIN
1070
    46
1040
0.2
1000
ACAD_MTEXT_DEFINED_HEIGHT_END
  0
MTEXT
  5
DE
330
1F
100
AcDbEntity
  8
256
  6
CONTINUOUS
 62
     3
100
AcDbMText
 10
25.568839
 20
82.36733
 30
0.0
 40
1.7
 41
0.0
 71
     8
 72
     5
  1
\W00.809;MATERIAL/\Q20.000000;MATERIAL\Q0;\P                                                                              
  7
DEFAULT
1001
ACAD
1000
MTEXTBEGIN
1070
    44
1040
0.903614
1000
MTEXTEND
1000
ACAD_MTEXT_DEFINED_HEIGHT_BEGIN
1070
    46
1040
0.2
1000
ACAD_MTEXT_DEFINED_HEIGHT_END
  0
MTEXT
  5
DF
330
1F
100
AcDbEntity
  8
256
  6
CONTINUOUS
 62
     2
100
AcDbMText
 10
168.959122
 20
57.84245
 30
0.0
 40
3.5
 41
0.0
 71
     7
 72
     5
  1
\W00.817;METRIC 
  7
DEFAULT
1001
ACAD
1000
MTEXTBEGIN
1070
    73
1070
     2
1070
    44
1040
0.903614
1000
MTEXTEND
1000
ACAD_MTEXT_DEFINED_HEIGHT_BEGIN
1070
    46
1040
0.2
1000
ACAD_MTEXT_DEFINED_HEIGHT_END
  0
MTEXT
  5
E0
330
1F
100
AcDbEntity
  8
256
  6
CONTINUOUS
 62
     3
100
AcDbMText
 10
24.733524
 20
32.781205
 30
0.0
 40
1.5
 41
0.0
 71
     8
 72
     5
  1
\W00.802;FECHA 
  7
DEFAULT
1001
ACAD
1000
MTEXTBEGIN
1070
    73
1070
     2
1070
    44
1040
0.903614
1000
MTEXTEND
1000
ACAD_MTEXT_DEFINED_HEIGHT_BEGIN
1070
    46
1040
0.2
1000
ACAD_MTEXT_DEFINED_HEIGHT_END
  0
MTEXT
  5
E1
330
1F
100
AcDbEntity
  8
256
  6
CONTINUOUS
 62
     3
100
AcDbMText
 10
95.402147
 20
69.008016
 30
0.0
 40
1.5
 41
0.0
 71
     7
 72
     5
  1
\W00.273;. 
  7
BLOCKFONT
1001
ACAD
1000
MTEXTBEGIN
1070
    73
1070
     2
1070
    44
1040
0.903614
1000
MTEXTEND
1000
ACAD_MTEXT_DEFINED_HEIGHT_BEGIN
1070
    46
1040
0.2
1000
ACAD_MTEXT_DEFINED_HEIGHT_END
  0
MTEXT
  5
E2
330
1F
100
AcDbEntity
  8
1
  6
CONTINUOUS
 62
     2
100
AcDbMText
 10
173.46299
 20
15.317748
 30
0.0
 40
3.5
 41
0.0
 71
     7
 72
     5
  1
\W01.000; 
  7
DEFAULT
1001
ACAD
1000
MTEXTBEGIN
1070
    73
1070
     2
1070
    44
1040
0.903614
1000
MTEXTEND
1000
ACAD_MTEXT_DEFINED_HEIGHT_BEGIN
1070
    46
1040
0.2
1000
ACAD_MTEXT_DEFINED_HEIGHT_END
  0
MTEXT
  5
E3
330
1F
100
AcDbEntity
  8
1
  6
CONTINUOUS
 62
     3
100
AcDbMText
 10
156.891875
 20
15.777749
 30
0.0
 40
3.5
 41
0.0
 71
     7
 72
     5
  1
\W00.787;101523.1405.000 
  7
DEFAULT
1001
ACAD
1000
MTEXTBEGIN
1070
    73
1070
     2
1070
    44
1040
0.903614
1000
MTEXTEND
1000
ACAD_MTEXT_DEFINED_HEIGHT_BEGIN
1070
    46
1040
0.2
1000
ACAD_MTEXT_DEFINED_HEIGHT_END
  0
MTEXT
  5
E4
330
1F
100
AcDbEntity
  8
1
  6
CONTINUOUS
 62
     3
100
AcDbMText
 10
60.897359
 20
81.333298
 30
0.0
 40
3.5
 41
0.0
 71
     7
 72
     5
  1
\W00.725;Chapa galvanizada 
  7
DEFAULT
1001
ACAD
1000
MTEXTBEGIN
1070
    73
1070
     2
1070
    44
1040
0.903614
1000
MTEXTEND
1000
ACAD_MTEXT_DEFINED_HEIGHT_BEGIN
1070
    46
1040
0.2
1000
ACAD_MTEXT_DEFINED_HEIGHT_END
  0
SPLINE
  5
E5
330
1F
100
AcDbEntity
  8
1
  6
CENTER
 62
     3
100
AcDbSpline
210
0.0
220
0.0
230
1.0
 70
    24
 71
     1
 72
     5
 73
     3
 74
     0
 42
0.000000001
 43
0.0000000001
 40
0.0
 40
0.0
 40
0.5652173913043478
 40
1.0
 40
1.0
 10
101.7724820217793
 20
154.25
 30
0.0
 10
101.7724820217793
 20
147.75
 30
0.0000000000000001
 10
101.7724820217793
 20
142.75
 30
0.0000000000000001
  0
DIMENSION
  5
EF
330
1F
100
AcDbEntity
  8
1
  6
CONTINUOUS
 62
     3
100
AcDbDimension
  2
DIMNDRAFT3D1
 10
138.461396
 20
149.25
 30
0.0
 11
138.461396
 21
137.796717
 31
0.0
 70
   160
  1
\C3;1,5
  3
STANDARD
100
AcDbAlignedDimension
 13
118.272482
 23
147.75
 33
0.0
 14
118.272482
 24
149.25
 34
0.0
 50
90.0
100
AcDbRotatedDimension
1001
ACAD
1000
DSTYLE
1002
{
1070
   287
1070
     3
1070
     7
1000

1070
     6
1000

1070
    74
1070
     0
1070
   279
1070
     0
1070
   172
1070
     1
1070
   173
1070
     1
1070
   340
1005
92
1070
   271
1070
     1
1070
   272
1070
     2
1070
    77
1070
     1
1070
    73
1070
     0
1070
   171
1070
     3
1070
   274
1070
     4
1070
   177
1070
     3
1070
   176
1070
     3
1070
   178
1070
     3
1070
    48
1040
-0.005
1070
    41
1041
3.5
1070
   147
1041
1.75
1070
    42
1041
0.0
1070
    44
1041
2.0
1070
   140
1041
3.5
1002
}
  0
DIMENSION
  5
F8
330
1F
100
AcDbEntity
  8
1
  6
CONTINUOUS
 62
     3
100
AcDbDimension
  2
DIMNDRAFT3D2
 10
113.083098
 20
194.453585
 30
0.0
 11
131.805482
 21
183.887892
 31
0.0
 70
   163
  1
\C3;%%c 4,3
  3
STANDARD
100
AcDbDiametricDimension
 15
116.541863
 25
191.898795
 35
0.0
 40
0.0
1001
ACAD
1000
DSTYLE
1002
{
1070
   287
1070
     3
1070
     7
1000

1070
     6
1000

1070
   172
1070
     1
1070
   279
1070
     0
1070
   173
1070
     1
1070
   340
1005
92
1070
    75
1070
     1
1070
    76
1070
     1
1070
   271
1070
     1
1070
   272
1070
     2
1070
    77
1070
     1
1070
    73
1070
     0
1070
   171
1070
     3
1070
   274
1070
     4
1070
   177
1070
     3
1070
   176
1070
     3
1070
   178
1070
     3
1070
    48
1040
-0.005
1070
    41
1041
3.5
1070
   147
1041
1.75
1070
    42
1041
0.0
1070
    44
1041
2.0
1070
   140
1041
3.5
1002
}
  0
DIMENSION
  5
101
330
1F
100
AcDbEntity
  8
1
  6
CONTINUOUS
 62
     3
100
AcDbDimension
  2
DIMNDRAFT3D3
 10
90.055872
 20
201.858749
 30
0.0
 11
73.437946
 21
184.846053
 31
0.0
 70
   163
  1
\C3;%%c 4,3
  3
STANDARD
100
AcDbDiametricDimension
 15
87.409095
 25
198.46986
 35
0.0
 40
0.0
1001
ACAD
1000
DSTYLE
1002
{
1070
   287
1070
     3
1070
     7
1000

1070
     6
1000

1070
   172
1070
     1
1070
   279
1070
     0
1070
   173
1070
     1
1070
   340
1005
92
1070
    75
1070
     1
1070
    76
1070
     1
1070
   271
1070
     1
1070
   272
1070
     2
1070
    77
1070
     1
1070
    73
1070
     0
1070
   171
1070
     3
1070
   274
1070
     4
1070
   177
1070
     3
1070
   176
1070
     3
1070
   178
1070
     3
1070
    48
1040
-0.005
1070
    41
1041
3.5
1070
   147
1041
1.75
1070
    42
1041
0.0
1070
    44
1041
2.0
1070
   140
1041
3.5
1002
}
  0
DIMENSION
  5
10A
330
1F
100
AcDbEntity
  8
1
  6
CONTINUOUS
 62
     3
100
AcDbDimension
  2
DIMNDRAFT3D4
 10
103.38157
 20
199.20221
 30
0.0
 11
85.022278
 21
175.207217
 31
0.0
 70
   163
  1
\C3;%%c 6
  3
STANDARD
100
AcDbDiametricDimension
 15
100.163394
 25
194.138284
 35
0.0
 40
0.0
1001
ACAD
1000
DSTYLE
1002
{
1070
   287
1070
     3
1070
     7
1000

1070
     6
1000

1070
   172
1070
     1
1070
   279
1070
     0
1070
   173
1070
     1
1070
   340
1005
92
1070
    75
1070
     1
1070
    76
1070
     1
1070
   271
1070
     0
1070
   272
1070
     2
1070
    77
1070
     1
1070
    73
1070
     0
1070
   171
1070
     3
1070
   274
1070
     4
1070
   177
1070
     3
1070
   176
1070
     3
1070
   178
1070
     3
1070
    48
1040
-0.005
1070
    41
1041
3.5
1070
   147
1041
1.75
1070
    42
1041
0.0
1070
    44
1041
2.0
1070
   140
1041
3.5
1002
}
  0
DIMENSION
  5
113
330
1F
100
AcDbEntity
  8
1
  6
CONTINUOUS
 62
     3
100
AcDbDimension
  2
DIMNDRAFT3D5
 10
113.543704
 20
186.591179
 30
0.0
 11
129.086823
 21
169.395667
 31
0.0
 70
   163
  1
\C3;%%c 3,6
  3
STANDARD
100
AcDbDiametricDimension
 15
115.639756
 25
183.664309
 35
0.0
 40
0.0
1001
ACAD
1000
DSTYLE
1002
{
1070
   287
1070
     3
1070
     7
1000

1070
     6
1000

1070
   172
1070
     1
1070
   279
1070
     0
1070
   173
1070
     1
1070
   340
1005
92
1070
    75
1070
     1
1070
    76
1070
     1
1070
   271
1070
     1
1070
   272
1070
     2
1070
    77
1070
     1
1070
    73
1070
     0
1070
   171
1070
     3
1070
   274
1070
     4
1070
   177
1070
     3
1070
   176
1070
     3
1070
   178
1070
     3
1070
    48
1040
-0.005
1070
    41
1041
3.5
1070
   147
1041
1.75
1070
    42
1041
0.0
1070
    44
1041
2.0
1070
   140
1041
3.5
1002
}
  0
DIMENSION
  5
11C
330
1F
100
AcDbEntity
  8
1
  6
CONTINUOUS
 62
     3
100
AcDbDimension
  2
DIMNDRAFT3D6
 10
90.562145
 20
209.019847
 30
0.0
 11
69.452447
 21
201.367113
 31
0.0
 70
   163
  1
\C3;%%c 3,6
  3
STANDARD
100
AcDbDiametricDimension
 15
87.344323
 25
207.405653
 35
0.0
 40
0.0
1001
ACAD
1000
DSTYLE
1002
{
1070
   287
1070
     3
1070
     7
1000

1070
     6
1000

1070
   172
1070
     1
1070
   279
1070
     0
1070
   173
1070
     1
1070
   340
1005
92
1070
    75
1070
     1
1070
    76
1070
     1
1070
   271
1070
     1
1070
   272
1070
     2
1070
    77
1070
     1
1070
    73
1070
     0
1070
   171
1070
     3
1070
   274
1070
     4
1070
   177
1070
     3
1070
   176
1070
     3
1070
   178
1070
     3
1070
    48
1040
-0.005
1070
    41
1041
3.5
1070
   147
1041
1.75
1070
    42
1041
0.0
1070
    44
1041
2.0
1070
   140
1041
3.5
1002
}
  0
ENDSEC
  0
SECTION
  2
OBJECTS
  0
DICTIONARY
  5
C
330
0
100
AcDbDictionary
  3
ACAD_GROUP
350
D
  3
ACAD_LAYOUT
350
1A
  3
ACAD_MATERIAL
350
3B
  3
ACAD_MLEADERSTYLE
350
14F
  3
ACAD_MLINESTYLE
350
17
  3
ACAD_PLOTSETTINGS
350
19
  3
ACAD_VISUALSTYLE
350
2A
  3
ACDBHEADERROUNDTRIPXREC
350
12D
  3
ACDBVARIABLEDICTIONARY
350
14D
  0
DICTIONARY
  5
D
102
{ACAD_REACTORS
330
C
102
}
330
C
100
AcDbDictionary
  0
DICTIONARY
  5
1A
102
{ACAD_REACTORS
330
C
102
}
330
C
100
AcDbDictionary
  0
DICTIONARY
  5
3B
102
{ACAD_REACTORS
330
C
102
}
330
C
100
AcDbDictionary
  3
BYBLOCK
350
3D
  3
BYLAYER
350
3C
  3
GLOBAL
350
3E
  0
DICTIONARY
  5
14F
102
{ACAD_REACTORS
330
C
102
}
330
C
100
AcDbDictionary
  0
DICTIONARY
  5
17
102
{ACAD_REACTORS
330
C
102
}
330
C
100
AcDbDictionary
  3
STANDARD
350
18
  0
DICTIONARY
  5
19
102
{ACAD_REACTORS
330
C
102
}
330
C
100
AcDbDictionary
  0
DICTIONARY
  5
2A
102
{ACAD_REACTORS
330
C
102
}
330
C
100
AcDbDictionary
  3
2DWIREFRAME
350
2F
  3
3D_HIDDEN
350
31
  3
3DWIREFRAME
350
30
  3
BASIC
350
32
  3
BRIGHTEN
350
36
  3
COLORCHANGE
350
3A
  3
CONCEPTUAL
350
34
  3
DIM
350
35
  3
FACEPATTERN
350
39
  3
FLAT
350
2B
  3
FLATWITHEDGES
350
2C
  3
GOURAUD
350
2D
  3
GOURAUDWITHEDGES
350
2E
  3
LINEPATTERN
350
38
  3
REALISTIC
350
33
  3
THICKEN
350
37
  0
DICTIONARY
  5
12D
102
{ACAD_REACTORS
330
C
102
}
330
C
100
AcDbDictionary
  3
CEPSNTYPE
350
136
  3
DIMSTYLEDATA
350
14C
  3
FINGERPRINTGUID
350
137
  3
HYPERLINKBASE
350
130
  3
INSUNITS
350
135
  3
LAYOUTDICT
350
132
  3
LWETCUNION
350
134
  3
PLOTSETDICT
350
133
  3
PSVPSCALE
350
139
  3
PUCSBASE
350
13C
  3
PUCSORGBACK
350
142
  3
PUCSORGBOTTOM
350
13E
  3
PUCSORGFRONT
350
141
  3
PUCSORGLEFT
350
13F
  3
PUCSORGRIGHT
350
140
  3
PUCSORGTOP
350
13D
  3
PUCSORTHOREF
350
13A
  3
PUCSORTHOVIEW
350
13B
  3
STYLESHEET
350
131
  3
TSTACKALIGN
350
12E
  3
TSTACKSIZE
350
12F
  3
UCSBASE
350
145
  3
UCSORGBACK
350
14B
  3
UCSORGBOTTOM
350
147
  3
UCSORGFRONT
350
14A
  3
UCSORGLEFT
350
148
  3
UCSORGRIGHT
350
149
  3
UCSORGTOP
350
146
  3
UCSORTHOREF
350
143
  3
UCSORTHOVIEW
350
144
  3
VERSIONGUID
350
138
  0
DICTIONARY
  5
14D
102
{ACAD_REACTORS
330
C
102
}
330
C
100
AcDbDictionary
  3
DIMASSOC
350
150
  3
HIDETEXT
350
151
  0
MATERIAL
  5
3D
102
{ACAD_REACTORS
330
3B
102
}
102
{ACAD_XDICTIONARY
360
154
102
}
330
3B
100
AcDbMaterial
  1
ByBlock
  0
MATERIAL
  5
3C
102
{ACAD_REACTORS
330
3B
102
}
102
{ACAD_XDICTIONARY
360
152
102
}
330
3B
100
AcDbMaterial
  1
ByLayer
  0
MATERIAL
  5
3E
102
{ACAD_REACTORS
330
3B
102
}
102
{ACAD_XDICTIONARY
360
156
102
}
330
3B
100
AcDbMaterial
  1
Global
  0
MLINESTYLE
  5
18
102
{ACAD_REACTORS
330
17
102
}
330
17
100
AcDbMlineStyle
  2
Standard
 70
     0
  3

 62
   256
 51
90.0
 52
90.0
 71
     2
 49
0.5
 62
   256
  6
BYLAYER
 49
-0.5
 62
   256
  6
BYLAYER
  0
ACAD_PROXY_OBJECT
  5
2F
102
{ACAD_REACTORS
330
2A
102
}
330
2A
100
AcDbProxyObject
 90
      499
 91
      501
 93
      436
310
42CC9915DA5C99599C985B595049028333333333333E3BF0000000000000FB0107901411070040501600405405064090741402480A0340
1001
ACAD
1000
AcDbSavedByObjectVersion
1070
     0
  0
ACAD_PROXY_OBJECT
  5
31
102
{ACAD_REACTORS
330
2A
102
}
330
2A
100
AcDbProxyObject
 90
      499
 91
      501
 93
      500
310
424CD108121A5919195B90640502408333333333333E3BF0000000000000FB01079024090700405020000000000001110200405405064090740C02480A0340
1001
ACAD
1000
AcDbSavedByObjectVersion
1070
     0
  0
ACAD_PROXY_OBJECT
  5
30
102
{ACAD_REACTORS
330
2A
102
}
330
2A
100
AcDbProxyObject
 90
      499
 91
      501
 93
      436
310
42CCD915DA5C99599C985B595059028333333333333E3BF0000000000000FB0107901411070040501600405405064090741402480A0340
1001
ACAD
1000
AcDbSavedByObjectVersion
1070
     0
  0
ACAD_PROXY_OBJECT
  5
32
102
{ACAD_REACTORS
330
2A
102
}
330
2A
100
AcDbProxyObject
 90
      499
 91
      501
 93
      388
310
4150985CDA58D07406404333333333333E3BF0000000000000FB0107A41107004050150841D405064090741402480A0350
1001
ACAD
1000
AcDbSavedByObjectVersion
1070
     0
  0
ACAD_PROXY_OBJECT
  5
36
102
{ACAD_REACTORS
330
2A
102
}
330
2A
100
AcDbProxyObject
 90
      499
 91
      501
 93
      428
310
42109C9A59DA1D195B90C409028333333333333E3BF0000000000000FB010790141107004050150841D405064090741402480A029950
1001
ACAD
1000
AcDbSavedByObjectVersion
1070
     0
  0
ACAD_PROXY_OBJECT
  5
3A
102
{ACAD_REACTORS
330
2A
102
}
330
2A
100
AcDbProxyObject
 90
      499
 91
      501
 93
      452
310
42D0DBDB1BDC90DA185B99D95104090240C333333333333E3BF0000000000000FB0108901411070040501508421405064090741402480A0350
1001
ACAD
1000
AcDbSavedByObjectVersion
1070
     0
  0
ACAD_PROXY_OBJECT
  5
34
102
{ACAD_REACTORS
330
2A
102
}
330
2A
100
AcDbProxyObject
 90
      499
 91
      501
 93
      500
310
4290DBDB98D95C1D1D585B10940D028333333333333E3BF0000000000000FB0107902409070040501000000000000111010841D405064090740C02480A0340
1001
ACAD
1000
AcDbSavedByObjectVersion
1070
     0
  0
ACAD_PROXY_OBJECT
  5
35
102
{ACAD_REACTORS
330
2A
102
}
330
2A
100
AcDbProxyObject
 90
      499
 91
      501
 93
      412
310
40D11A5B50B409028333333333333E3BF0000000000000FB010790141107004050150841D405064090741402480A02677FFFFFD0
1001
ACAD
1000
AcDbSavedByObjectVersion
1070
     0
  0
ACAD_PROXY_OBJECT
  5
39
102
{ACAD_REACTORS
330
2A
102
}
330
2A
100
AcDbProxyObject
 90
      499
 91
      501
 93
      444
310
42D19858D95C185D1D195C9B90F409028333333333333E3BF0000000000000FB010790141107004050150841D405064090741402480A0350
1001
ACAD
1000
AcDbSavedByObjectVersion
1070
     0
  0
ACAD_PROXY_OBJECT
  5
2B
102
{ACAD_REACTORS
330
2A
102
}
330
2A
100
AcDbProxyObject
 90
      499
 91
      501
 93
      388
310
41119B185D240901404333333333333E3BF0000000000000F9010740A41107004050150841D405064090741402480A1B50
1001
ACAD
1000
AcDbSavedByObjectVersion
1070
     0
  0
ACAD_PROXY_OBJECT
  5
2C
102
{ACAD_REACTORS
330
2A
102
}
330
2A
100
AcDbProxyObject
 90
      499
 91
      501
 93
      476
310
43519B185D15DA5D1A115919D95CD0140901404333333333333E3BF0000000000000F9010740901411070040501600405405064090741402480A1B50
1001
ACAD
1000
AcDbSavedByObjectVersion
1070
     0
  0
ACAD_PROXY_OBJECT
  5
2D
102
{ACAD_REACTORS
330
2A
102
}
330
2A
100
AcDbProxyObject
 90
      499
 91
      501
 93
      412
310
41D1DBDD5C985D5910240902404333333333333E3BF0000000000000F9010740A411070040501641D405064090741402480A1B50
1001
ACAD
1000
AcDbSavedByObjectVersion
1070
     0
  0
ACAD_PROXY_OBJECT
  5
2E
102
{ACAD_REACTORS
330
2A
102
}
330
2A
100
AcDbProxyObject
 90
      499
 91
      501
 93
      500
310
4411DBDD5C985D5915DA5D1A115919D95CD0340902404333333333333E3BF0000000000000F9010740901411070040501600405405064090741402480A1B50
1001
ACAD
1000
AcDbSavedByObjectVersion
1070
     0
  0
ACAD_PROXY_OBJECT
  5
38
102
{ACAD_REACTORS
330
2A
102
}
330
2A
100
AcDbProxyObject
 90
      499
 91
      501
 93
      444
310
42D31A5B995C185D1D195C9B90E409028333333333333E3BF0000000000000FB010790141107004050750841D405064090741402483A0350
1001
ACAD
1000
AcDbSavedByObjectVersion
1070
     0
  0
ACAD_PROXY_OBJECT
  5
33
102
{ACAD_REACTORS
330
2A
102
}
330
2A
100
AcDbProxyObject
 90
      499
 91
      501
 93
      420
310
425499585B1A5CDD1A58D08409028333333333333E3BF0000000000000FB01079019070040501508421405064090741402480A1B40
1001
ACAD
1000
AcDbSavedByObjectVersion
1070
     0
  0
ACAD_PROXY_OBJECT
  5
37
102
{ACAD_REACTORS
330
2A
102
}
330
2A
100
AcDbProxyObject
 90
      499
 91
      501
 93
      412
310
41D51A1A58DAD95B90D409028333333333333E3BF0000000000000FB010790141107004050150C41D405064090741402480A0350
1001
ACAD
1000
AcDbSavedByObjectVersion
1070
     0
  0
XRECORD
  5
136
102
{ACAD_REACTORS
330
12D
102
}
330
12D
100
AcDbXrecord
 90
        0
  0
XRECORD
  5
14C
102
{ACAD_REACTORS
330
12D
102
}
330
12D
100
AcDbXrecord
1000
DSTYLE
1002
{
1070
   171
 70
     2
1070
   143
 40
25.4
1070
   274
 70
     2
1070
    41
 40
0.18
1070
   141
 40
0.09
1070
   271
 70
     4
1070
    43
 40
0.38
1070
   278
 70
    46
1070
    44
 40
0.18
1070
    42
 40
0.0625
1070
   147
 40
0.09
1070
    77
 70
     0
1070
   272
 70
     4
1070
    73
 70
     1
1070
   172
 70
     0
1070
    74
 70
     1
1070
   283
 70
     1
1070
   340
340
11
1070
   140
 40
0.18
1070
   284
 70
     0
1070
    78
 70
     0
1002
}
  0
XRECORD
  5
137
102
{ACAD_REACTORS
330
12D
102
}
330
12D
100
AcDbXrecord
  1
{7D5EB321-E542-4BF8-A139-3C9E62791F07}
  0
XRECORD
  5
130
102
{ACAD_REACTORS
330
12D
102
}
330
12D
100
AcDbXrecord
  1

  0
XRECORD
  5
135
102
{ACAD_REACTORS
330
12D
102
}
330
12D
100
AcDbXrecord
 90
        4
  0
XRECORD
  5
132
102
{ACAD_REACTORS
330
12D
102
}
330
12D
100
AcDbXrecord
340
1A
  0
XRECORD
  5
134
102
{ACAD_REACTORS
330
12D
102
}
330
12D
100
AcDbXrecord
 90
    10781
  0
XRECORD
  5
133
102
{ACAD_REACTORS
330
12D
102
}
330
12D
100
AcDbXrecord
340
19
  0
XRECORD
  5
139
102
{ACAD_REACTORS
330
12D
102
}
330
12D
100
AcDbXrecord
 40
0.0
  0
XRECORD
  5
13C
102
{ACAD_REACTORS
330
12D
102
}
330
12D
100
AcDbXrecord
340
0
  0
XRECORD
  5
142
102
{ACAD_REACTORS
330
12D
102
}
330
12D
100
AcDbXrecord
 10
0.0
 20
0.0
 30
0.0
  0
XRECORD
  5
13E
102
{ACAD_REACTORS
330
12D
102
}
330
12D
100
AcDbXrecord
 10
0.0
 20
0.0
 30
0.0
  0
XRECORD
  5
141
102
{ACAD_REACTORS
330
12D
102
}
330
12D
100
AcDbXrecord
 10
0.0
 20
0.0
 30
0.0
  0
XRECORD
  5
13F
102
{ACAD_REACTORS
330
12D
102
}
330
12D
100
AcDbXrecord
 10
0.0
 20
0.0
 30
0.0
  0
XRECORD
  5
140
102
{ACAD_REACTORS
330
12D
102
}
330
12D
100
AcDbXrecord
 10
0.0
 20
0.0
 30
0.0
  0
XRECORD
  5
13D
102
{ACAD_REACTORS
330
12D
102
}
330
12D
100
AcDbXrecord
 10
0.0
 20
0.0
 30
0.0
  0
XRECORD
  5
13A
102
{ACAD_REACTORS
330
12D
102
}
330
12D
100
AcDbXrecord
340
0
  0
XRECORD
  5
13B
102
{ACAD_REACTORS
330
12D
102
}
330
12D
100
AcDbXrecord
 70
     0
  0
XRECORD
  5
131
102
{ACAD_REACTORS
330
12D
102
}
330
12D
100
AcDbXrecord
  1

  0
XRECORD
  5
12E
102
{ACAD_REACTORS
330
12D
102
}
330
12D
100
AcDbXrecord
 90
        1
  0
XRECORD
  5
12F
102
{ACAD_REACTORS
330
12D
102
}
330
12D
100
AcDbXrecord
 90
       70
  0
XRECORD
  5
145
102
{ACAD_REACTORS
330
12D
102
}
330
12D
100
AcDbXrecord
340
0
  0
XRECORD
  5
14B
102
{ACAD_REACTORS
330
12D
102
}
330
12D
100
AcDbXrecord
 10
0.0
 20
0.0
 30
0.0
  0
XRECORD
  5
147
102
{ACAD_REACTORS
330
12D
102
}
330
12D
100
AcDbXrecord
 10
0.0
 20
0.0
 30
0.0
  0
XRECORD
  5
14A
102
{ACAD_REACTORS
330
12D
102
}
330
12D
100
AcDbXrecord
 10
0.0
 20
0.0
 30
0.0
  0
XRECORD
  5
148
102
{ACAD_REACTORS
330
12D
102
}
330
12D
100
AcDbXrecord
 10
0.0
 20
0.0
 30
0.0
  0
XRECORD
  5
149
102
{ACAD_REACTORS
330
12D
102
}
330
12D
100
AcDbXrecord
 10
0.0
 20
0.0
 30
0.0
  0
XRECORD
  5
146
102
{ACAD_REACTORS
330
12D
102
}
330
12D
100
AcDbXrecord
 10
0.0
 20
0.0
 30
0.0
  0
XRECORD
  5
143
102
{ACAD_REACTORS
330
12D
102
}
330
12D
100
AcDbXrecord
340
0
  0
XRECORD
  5
144
102
{ACAD_REACTORS
330
12D
102
}
330
12D
100
AcDbXrecord
 70
     0
  0
XRECORD
  5
138
102
{ACAD_REACTORS
330
12D
102
}
330
12D
100
AcDbXrecord
  1
{FAEB1C32-E019-11D5-929B-00C0DF256EC4}
  0
DICTIONARYVAR
  5
150
102
{ACAD_REACTORS
330
14D
102
}
330
14D
100
DictionaryVariables
280
     0
  1
2
  0
DICTIONARYVAR
  5
151
102
{ACAD_REACTORS
330
14D
102
}
330
14D
100
DictionaryVariables
280
     0
  1
1
  0
DICTIONARY
  5
154
330
3D
100
AcDbDictionary
280
     1
  3
ACAD_XREC_ROUNDTRIP
360
155
  0
DICTIONARY
  5
152
330
3C
100
AcDbDictionary
280
     1
  3
ACAD_XREC_ROUNDTRIP
360
153
  0
DICTIONARY
  5
156
330
3E
100
AcDbDictionary
280
     1
  3
ACAD_XREC_ROUNDTRIP
360
157
  0
XRECORD
  5
155
102
{ACAD_REACTORS
330
154
102
}
330
154
100
AcDbXrecord
102
MATERIAL
148
0.0
149
0.0
149
0.0
 93
        0
 94
      127
282
     0
 72
     1
 77
     1
171
     1
175
     1
179
     1
273
     0
  0
XRECORD
  5
153
102
{ACAD_REACTORS
330
152
102
}
330
152
100
AcDbXrecord
102
MATERIAL
148
0.0
149
0.0
149
0.0
 93
        0
 94
      127
282
     0
 72
     1
 77
     1
171
     1
175
     1
179
     1
273
     0
  0
XRECORD
  5
157
102
{ACAD_REACTORS
330
156
102
}
330
156
100
AcDbXrecord
102
MATERIAL
148
0.0
149
0.0
149
0.0
 93
        0
 94
      127
282
     0
 72
     1
 77
     1
171
     1
175
     1
179
     1
273
     0
  0
ENDSEC
  0
EOF
