  0
SECTION
  2
HEADER
  9
$ACADVER
  1
AC1014
  9
$ACADMAINTVER
 70
     9
  9
$DWGCODEPAGE
  3
ANSI_1252
  9
$INSBASE
 10
0.0
 20
0.0
 30
0.0
  9
$EXTMIN
 10
-0.5
 20
-0.5
 30
-0.5
  9
$EXTMAX
 10
5.0
 20
5.0
 30
5.0
  9
$LIMMIN
 10
-0.5
 20
-0.5
  9
$LIMMAX
 10
5.0
 20
5.0
  9
$ORTHOMODE
 70
     0
  9
$REGENMODE
 70
     1
  9
$FILLMODE
 70
     1
  9
$QTEXTMODE
 70
     0
  9
$MIRRTEXT
 70
     1
  9
$DRAGMODE
 70
     2
  9
$LTSCALE
 40
1.0
  9
$OSMODE
 70
    37
  9
$ATTMODE
 70
     1
  9
$TEXTSIZE
 40
0.2
  9
$TRACEWID
 40
0.05
  9
$TEXTSTYLE
  7
STANDARD
  9
$CLAYER
  8
0
  9
$CELTYPE
  6
BYLAYER
  9
$CECOLOR
 62
   256
  9
$CELTSCALE
 40
1.0
  9
$DELOBJ
 70
     1
  9
$DISPSILH
 70
     0
  9
$DIMSCALE
 40
1.0
  9
$DIMASZ
 40
0.18
  9
$DIMEXO
 40
0.0625
  9
$DIMDLI
 40
0.38
  9
$DIMRND
 40
0.0
  9
$DIMDLE
 40
0.0
  9
$DIMEXE
 40
0.18
  9
$DIMTP
 40
0.0
  9
$DIMTM
 40
0.0
  9
$DIMTXT
 40
0.18
  9
$DIMCEN
 40
0.09
  9
$DIMTSZ
 40
0.0
  9
$DIMTOL
 70
     0
  9
$DIMLIM
 70
     0
  9
$DIMTIH
 70
     1
  9
$DIMTOH
 70
     1
  9
$DIMSE1
 70
     0
  9
$DIMSE2
 70
     0
  9
$DIMTAD
 70
     0
  9
$DIMZIN
 70
     0
  9
$DIMBLK
  1

  9
$DIMASO
 70
     1
  9
$DIMSHO
 70
     1
  9
$DIMPOST
  1

  9
$DIMAPOST
  1

  9
$DIMALT
 70
     0
  9
$DIMALTD
 70
     2
  9
$DIMALTF
 40
25.4
  9
$DIMLFAC
 40
1.0
  9
$DIMTOFL
 70
     0
  9
$DIMTVP
 40
0.0
  9
$DIMTIX
 70
     0
  9
$DIMSOXD
 70
     0
  9
$DIMSAH
 70
     0
  9
$DIMBLK1
  1

  9
$DIMBLK2
  1

  9
$DIMSTYLE
  2
STANDARD
  9
$DIMCLRD
 70
     0
  9
$DIMCLRE
 70
     0
  9
$DIMCLRT
 70
     0
  9
$DIMTFAC
 40
1.0
  9
$DIMGAP
 40
0.09
  9
$DIMJUST
 70
     0
  9
$DIMSD1
 70
     0
  9
$DIMSD2
 70
     0
  9
$DIMTOLJ
 70
     1
  9
$DIMTZIN
 70
     0
  9
$DIMALTZ
 70
     0
  9
$DIMALTTZ
 70
     0
  9
$DIMFIT
 70
     3
  9
$DIMUPT
 70
     0
  9
$DIMUNIT
 70
     2
  9
$DIMDEC
 70
     4
  9
$DIMTDEC
 70
     4
  9
$DIMALTU
 70
     2
  9
$DIMALTTD
 70
     2
  9
$DIMTXSTY
  7
STANDARD
  9
$DIMAUNIT
 70
     0
  9
$LUNITS
 70
     2
  9
$LUPREC
 70
     4
  9
$SKETCHINC
 40
0.1
  9
$FILLETRAD
 40
0.5
  9
$AUNITS
 70
     0
  9
$AUPREC
 70
     0
  9
$MENU
  1
.
  9
$ELEVATION
 40
0.0
  9
$PELEVATION
 40
0.0
  9
$THICKNESS
 40
0.0
  9
$LIMCHECK
 70
     0
  9
$CHAMFERA
 40
0.5
  9
$CHAMFERB
 40
0.5
  9
$CHAMFERC
 40
1.0
  9
$CHAMFERD
 40
0.0
  9
$SKPOLY
 70
     0
  9
$TDCREATE
 40
2457770.430035799
  9
$TDUPDATE
 40
2457770.43003581
  9
$TDINDWG
 40
0.0000000116
  9
$TDUSRTIMER
 40
0.0000000116
  9
$USRTIMER
 70
     1
  9
$ANGBASE
 50
0.0
  9
$ANGDIR
 70
     0
  9
$PDMODE
 70
     0
  9
$PDSIZE
 40
0.0
  9
$PLINEWID
 40
0.0
  9
$COORDS
 70
     1
  9
$SPLFRAME
 70
     0
  9
$SPLINETYPE
 70
     6
  9
$SPLINESEGS
 70
     8
  9
$ATTDIA
 70
     0
  9
$ATTREQ
 70
     1
  9
$HANDLING
 70
     1
  9
$HANDSEED
  5
1BF
  9
$SURFTAB1
 70
     6
  9
$SURFTAB2
 70
     6
  9
$SURFTYPE
 70
     6
  9
$SURFU
 70
     6
  9
$SURFV
 70
     6
  9
$UCSNAME
  2

  9
$UCSORG
 10
0.0
 20
0.0
 30
0.0
  9
$UCSXDIR
 10
1.0
 20
0.0
 30
0.0
  9
$UCSYDIR
 10
0.0
 20
1.0
 30
0.0
  9
$PUCSNAME
  2

  9
$PUCSORG
 10
0.0
 20
0.0
 30
0.0
  9
$PUCSXDIR
 10
1.0
 20
0.0
 30
0.0
  9
$PUCSYDIR
 10
0.0
 20
1.0
 30
0.0
  9
$USERI1
 70
     0
  9
$USERI2
 70
     0
  9
$USERI3
 70
     0
  9
$USERI4
 70
     0
  9
$USERI5
 70
     0
  9
$USERR1
 40
0.0
  9
$USERR2
 40
0.0
  9
$USERR3
 40
0.0
  9
$USERR4
 40
0.0
  9
$USERR5
 40
0.0
  9
$WORLDVIEW
 70
     1
  9
$SHADEDGE
 70
     3
  9
$SHADEDIF
 70
    70
  9
$TILEMODE
 70
     1
  9
$MAXACTVP
 70
    64
  9
$PINSBASE
 10
0.0
 20
0.0
 30
0.0
  9
$PLIMCHECK
 70
     0
  9
$PEXTMIN
 10
-0.5
 20
-0.5
 30
-0.5
  9
$PEXTMAX
 10
5.0
 20
5.0
 30
5.0
  9
$PLIMMIN
 10
-0.5
 20
-0.5
  9
$PLIMMAX
 10
5.0
 20
5.0
  9
$UNITMODE
 70
     0
  9
$VISRETAIN
 70
     1
  9
$PLINEGEN
 70
     0
  9
$PSLTSCALE
 70
     1
  9
$TREEDEPTH
 70
  3020
  9
$PICKSTYLE
 70
     1
  9
$CMLSTYLE
  2
STANDARD
  9
$CMLJUST
 70
     0
  9
$CMLSCALE
 40
1.0
  9
$PROXYGRAPHICS
 70
     1
  9
$MEASUREMENT
 70
     1
  0
ENDSEC
  0
SECTION
  2
CLASSES
  0
CLASS
  1
ACDBDICTIONARYWDFLT
  2
AcDbDictionaryWithDefault
  3
ObjectDBX Classes
 90
        0
280
     0
281
     0
  0
CLASS
  1
VISUALSTYLE
  2
AcDbVisualStyle
  3
ObjectDBX Classes
 90
     4095
280
     0
281
     0
  0
CLASS
  1
MATERIAL
  2
AcDbMaterial
  3
ObjectDBX Classes
 90
     1153
280
     0
281
     0
  0
CLASS
  1
DICTIONARYVAR
  2
AcDbDictionaryVar
  3
ObjectDBX Classes
 90
        0
280
     0
281
     0
  0
CLASS
  1
XRECORD
  2
AcDbXrecord
  3
AutoCAD 2000
 90
        0
280
     0
281
     0
  0
CLASS
  1
LWPOLYLINE
  2
AcDbPolyline
  3
AutoCAD 2000
 90
        0
280
     0
281
     1
  0
CLASS
  1
HATCH
  2
AcDbHatch
  3
AutoCAD 2000
 90
        0
280
     0
281
     1
  0
CLASS
  1
ACDBPLACEHOLDER
  2
AcDbPlaceHolder
  3
ObjectDBX Classes
 90
        0
280
     0
281
     0
  0
CLASS
  1
LAYOUT
  2
AcDbLayout
  3
ObjectDBX Classes
 90
        0
280
     0
281
     0
  0
ENDSEC
  0
SECTION
  2
TABLES
  0
TABLE
  2
VPORT
  5
8
330
0
100
AcDbSymbolTable
 70
    17
  0
VPORT
  5
29
330
8
100
AcDbSymbolTableRecord
100
AcDbViewportTableRecord
  2
DUMMY
 70
     0
 10
0.0
 20
0.0
 11
1.0
 21
1.0
 12
10.429907
 22
4.5
 13
0.0
 23
0.0
 14
0.5
 24
0.5
 15
0.5
 25
0.5
 16
0.0
 26
0.0
 36
1.0
 17
0.0
 27
0.0
 37
0.0
 40
9.0
 41
1.972973
 42
50.0
 43
0.0
 44
0.0
 50
0.0
 51
0.0
 71
     0
 72
   100
 73
     1
 74
     3
 75
     0
 76
     0
 77
     0
 78
     0
  0
VPORT
  5
184
330
8
100
AcDbSymbolTableRecord
100
AcDbViewportTableRecord
  2
*ACTIVE
 70
     0
 10
0.0
 20
0.0
 11
1.0
 21
1.0
 12
99.747502
 22
148.5
 13
0.0
 23
0.0
 14
0.5
 24
0.5
 15
0.5
 25
0.5
 16
0.0
 26
0.0
 36
1.0
 17
0.0
 27
0.0
 37
0.0
 40
254.0
 41
0.069908
 42
50.0
 43
573.696132
 44
-573.696132
 50
0.0
 51
0.0
 71
     0
 72
   100
 73
     1
 74
     3
 75
     0
 76
     0
 77
     0
 78
     0
  0
VPORT
  5
185
330
8
100
AcDbSymbolTableRecord
100
AcDbViewportTableRecord
  2
L1
 70
     0
 10
0.0
 20
0.0
 11
1.0
 21
1.0
 12
99.747502
 22
148.5
 13
0.0
 23
0.0
 14
0.5
 24
0.5
 15
0.5
 25
0.5
 16
0.0
 26
0.0
 36
1.0
 17
0.0
 27
0.0
 37
0.0
 40
254.0
 41
0.069908
 42
50.0
 43
573.696132
 44
-573.696132
 50
0.0
 51
0.0
 71
     0
 72
   100
 73
     1
 74
     3
 75
     0
 76
     0
 77
     0
 78
     0
  0
VPORT
  5
186
330
8
100
AcDbSymbolTableRecord
100
AcDbViewportTableRecord
  2
L2
 70
     0
 10
0.0
 20
0.0
 11
0.5
 21
1.0
 12
0.0
 22
0.0
 13
0.0
 23
0.0
 14
0.5
 24
0.5
 15
0.5
 25
0.5
 16
0.0
 26
-1.0
 36
0.0
 17
0.0
 27
0.0
 37
0.0
 40
1319.822715
 41
0.013454
 42
50.0
 43
672.020833
 44
-672.020833
 50
0.0
 51
0.0
 71
     0
 72
   100
 73
     1
 74
     3
 75
     0
 76
     0
 77
     0
 78
     0
  0
VPORT
  5
187
330
8
100
AcDbSymbolTableRecord
100
AcDbViewportTableRecord
  2
L2
 70
     0
 10
0.5
 20
0.0
 11
1.0
 21
1.0
 12
0.0
 22
0.0
 13
0.0
 23
0.0
 14
0.5
 24
0.5
 15
0.5
 25
0.5
 16
1.0
 26
0.0
 36
0.0
 17
0.0
 27
0.0
 37
0.0
 40
1319.822715
 41
0.013454
 42
50.0
 43
672.020833
 44
-672.020833
 50
0.0
 51
0.0
 71
     0
 72
   100
 73
     1
 74
     3
 75
     0
 76
     0
 77
     0
 78
     0
  0
VPORT
  5
188
330
8
100
AcDbSymbolTableRecord
100
AcDbViewportTableRecord
  2
L3
 70
     0
 10
0.0
 20
0.5
 11
1.0
 21
1.0
 12
99.747502
 22
148.5
 13
0.0
 23
0.0
 14
0.5
 24
0.5
 15
0.5
 25
0.5
 16
0.0
 26
0.0
 36
1.0
 17
0.0
 27
0.0
 37
0.0
 40
254.0
 41
0.069908
 42
50.0
 43
573.696132
 44
-573.696132
 50
0.0
 51
0.0
 71
     0
 72
   100
 73
     1
 74
     3
 75
     0
 76
     0
 77
     0
 78
     0
  0
VPORT
  5
189
330
8
100
AcDbSymbolTableRecord
100
AcDbViewportTableRecord
  2
L3
 70
     0
 10
0.0
 20
0.0
 11
1.0
 21
0.5
 12
0.0
 22
0.0
 13
0.0
 23
0.0
 14
0.5
 24
0.5
 15
0.5
 25
0.5
 16
0.0
 26
-1.0
 36
0.0
 17
0.0
 27
0.0
 37
0.0
 40
1319.822715
 41
0.013454
 42
50.0
 43
672.020833
 44
-672.020833
 50
0.0
 51
0.0
 71
     0
 72
   100
 73
     1
 74
     3
 75
     0
 76
     0
 77
     0
 78
     0
  0
VPORT
  5
18A
330
8
100
AcDbSymbolTableRecord
100
AcDbViewportTableRecord
  2
L4
 70
     0
 10
0.0
 20
0.5
 11
0.5
 21
1.0
 12
99.747502
 22
148.5
 13
0.0
 23
0.0
 14
0.5
 24
0.5
 15
0.5
 25
0.5
 16
0.0
 26
0.0
 36
1.0
 17
0.0
 27
0.0
 37
0.0
 40
254.0
 41
0.069908
 42
50.0
 43
573.696132
 44
-573.696132
 50
0.0
 51
0.0
 71
     0
 72
   100
 73
     1
 74
     3
 75
     0
 76
     0
 77
     0
 78
     0
  0
VPORT
  5
18B
330
8
100
AcDbSymbolTableRecord
100
AcDbViewportTableRecord
  2
L4
 70
     0
 10
0.0
 20
0.0
 11
0.5
 21
0.5
 12
0.0
 22
0.0
 13
0.0
 23
0.0
 14
0.5
 24
0.5
 15
0.5
 25
0.5
 16
0.0
 26
-1.0
 36
0.0
 17
0.0
 27
0.0
 37
0.0
 40
1319.822715
 41
0.013454
 42
50.0
 43
672.020833
 44
-672.020833
 50
0.0
 51
0.0
 71
     0
 72
   100
 73
     1
 74
     3
 75
     0
 76
     0
 77
     0
 78
     0
  0
VPORT
  5
18C
330
8
100
AcDbSymbolTableRecord
100
AcDbViewportTableRecord
  2
L4
 70
     0
 10
0.5
 20
0.0
 11
1.0
 21
0.5
 12
0.0
 22
0.0
 13
0.0
 23
0.0
 14
0.5
 24
0.5
 15
0.5
 25
0.5
 16
1.0
 26
0.0
 36
0.0
 17
0.0
 27
0.0
 37
0.0
 40
1319.822715
 41
0.013454
 42
50.0
 43
672.020833
 44
-672.020833
 50
0.0
 51
0.0
 71
     0
 72
   100
 73
     1
 74
     3
 75
     0
 76
     0
 77
     0
 78
     0
  0
VPORT
  5
18D
330
8
100
AcDbSymbolTableRecord
100
AcDbViewportTableRecord
  2
L4
 70
     0
 10
0.5
 20
0.5
 11
1.0
 21
1.0
 12
0.0
 22
0.0
 13
0.0
 23
0.0
 14
0.5
 24
0.5
 15
0.5
 25
0.5
 16
0.5773502691896258
 26
-0.5773502691896258
 36
0.5773502691896258
 17
0.0
 27
0.0
 37
0.0
 40
1285.020866
 41
0.013818
 42
50.0
 43
667.141407
 44
-667.141407
 50
0.0
 51
0.0
 71
     0
 72
   100
 73
     1
 74
     3
 75
     0
 76
     0
 77
     0
 78
     0
  0
VPORT
  5
18E
330
8
100
AcDbSymbolTableRecord
100
AcDbViewportTableRecord
  2
L6
 70
     0
 10
0.0
 20
0.5
 11
0.333333
 21
1.0
 12
0.0
 22
0.0
 13
0.0
 23
0.0
 14
0.5
 24
0.5
 15
0.5
 25
0.5
 16
0.7188730927569434
 26
-0.5850486126764431
 36
0.3754192287502549
 17
0.0
 27
0.0
 37
0.0
 40
1357.434192
 41
0.013081
 42
50.0
 43
701.839477
 44
-701.839477
 50
0.0
 51
0.0
 71
     0
 72
   100
 73
     1
 74
     3
 75
     0
 76
     0
 77
     0
 78
     0
  0
VPORT
  5
18F
330
8
100
AcDbSymbolTableRecord
100
AcDbViewportTableRecord
  2
L6
 70
     0
 10
0.0
 20
0.0
 11
0.333333
 21
0.5
 12
0.0
 22
0.0
 13
0.0
 23
0.0
 14
0.5
 24
0.5
 15
0.5
 25
0.5
 16
-1.0
 26
0.0
 36
0.0
 17
0.0
 27
0.0
 37
0.0
 40
1319.822715
 41
0.013454
 42
50.0
 43
672.020833
 44
-672.020833
 50
0.0
 51
0.0
 71
     0
 72
   100
 73
     1
 74
     3
 75
     0
 76
     0
 77
     0
 78
     0
  0
VPORT
  5
190
330
8
100
AcDbSymbolTableRecord
100
AcDbViewportTableRecord
  2
L6
 70
     0
 10
0.333333
 20
0.5
 11
0.666667
 21
1.0
 12
99.747502
 22
148.5
 13
0.0
 23
0.0
 14
0.5
 24
0.5
 15
0.5
 25
0.5
 16
0.0
 26
0.0
 36
1.0
 17
0.0
 27
0.0
 37
0.0
 40
254.0
 41
0.069908
 42
50.0
 43
573.696132
 44
-573.696132
 50
0.0
 51
0.0
 71
     0
 72
   100
 73
     1
 74
     3
 75
     0
 76
     0
 77
     0
 78
     0
  0
VPORT
  5
191
330
8
100
AcDbSymbolTableRecord
100
AcDbViewportTableRecord
  2
L6
 70
     0
 10
0.333333
 20
0.0
 11
0.666667
 21
0.5
 12
0.0
 22
0.0
 13
0.0
 23
0.0
 14
0.5
 24
0.5
 15
0.5
 25
0.5
 16
0.0
 26
-1.0
 36
0.0
 17
0.0
 27
0.0
 37
0.0
 40
1319.822715
 41
0.013454
 42
50.0
 43
672.020833
 44
-672.020833
 50
0.0
 51
0.0
 71
     0
 72
   100
 73
     1
 74
     3
 75
     0
 76
     0
 77
     0
 78
     0
  0
VPORT
  5
192
330
8
100
AcDbSymbolTableRecord
100
AcDbViewportTableRecord
  2
L6
 70
     0
 10
0.666667
 20
0.5
 11
1.0
 21
1.0
 12
0.0
 22
0.0
 13
0.0
 23
0.0
 14
0.5
 24
0.5
 15
0.5
 25
0.5
 16
0.5773502691896258
 26
-0.5773502691896258
 36
0.5773502691896258
 17
0.0
 27
0.0
 37
0.0
 40
1285.020866
 41
0.013818
 42
50.0
 43
667.141407
 44
-667.141407
 50
0.0
 51
0.0
 71
     0
 72
   100
 73
     1
 74
     3
 75
     0
 76
     0
 77
     0
 78
     0
  0
VPORT
  5
193
330
8
100
AcDbSymbolTableRecord
100
AcDbViewportTableRecord
  2
L6
 70
     0
 10
0.666667
 20
0.0
 11
1.0
 21
0.5
 12
0.0
 22
0.0
 13
0.0
 23
0.0
 14
0.5
 24
0.5
 15
0.5
 25
0.5
 16
1.0
 26
0.0
 36
0.0
 17
0.0
 27
0.0
 37
0.0
 40
1319.822715
 41
0.013454
 42
50.0
 43
672.020833
 44
-672.020833
 50
0.0
 51
0.0
 71
     0
 72
   100
 73
     1
 74
     3
 75
     0
 76
     0
 77
     0
 78
     0
  0
ENDTAB
  0
TABLE
  2
LTYPE
  5
5
330
0
100
AcDbSymbolTable
 70
     7
  0
LTYPE
  5
14
330
5
100
AcDbSymbolTableRecord
100
AcDbLinetypeTableRecord
  2
BYBLOCK
 70
     0
  3

 72
    65
 73
     0
 40
0.0
  0
LTYPE
  5
15
330
5
100
AcDbSymbolTableRecord
100
AcDbLinetypeTableRecord
  2
BYLAYER
 70
     0
  3

 72
    65
 73
     0
 40
0.0
  0
LTYPE
  5
16
330
5
100
AcDbSymbolTableRecord
100
AcDbLinetypeTableRecord
  2
CONTINUOUS
 70
     0
  3
Solid line
 72
    65
 73
     0
 40
0.0
  0
LTYPE
  5
3F
330
5
100
AcDbSymbolTableRecord
100
AcDbLinetypeTableRecord
  2
DASHED
 70
     0
  3
__ __ __ __ __ __ __ __ __
 72
    65
 73
     2
 40
25.72
 49
12.86
 74
     4
 75
     0
340
0
 46
0.0
 50
0.0
 44
0.0
 45
0.0
 49
-12.86
 74
     4
 75
     0
340
0
 46
0.0
 50
0.0
 44
0.0
 45
0.0
  0
LTYPE
  5
40
330
5
100
AcDbSymbolTableRecord
100
AcDbLinetypeTableRecord
  2
HIDDEN
 70
     0
  3
_ _ _ _ _ _ _ _ _ _ _ _ _ _ _
 72
    65
 73
     2
 40
0.5
 49
0.25
 74
     4
 75
     0
340
0
 46
0.0
 50
0.0
 44
0.0
 45
0.0
 49
-0.25
 74
     4
 75
     0
340
0
 46
0.0
 50
0.0
 44
0.0
 45
0.0
  0
LTYPE
  5
41
330
5
100
AcDbSymbolTableRecord
100
AcDbLinetypeTableRecord
  2
PHANTOM
 70
     0
  3
____ _ _ ____ _ _ _____ _ _ ____
 72
    65
 73
     6
 40
50.5
 49
18.0
 74
     4
 75
     0
340
0
 46
0.0
 50
0.0
 44
0.0
 45
0.0
 49
-6.5
 74
     4
 75
     0
340
0
 46
0.0
 50
0.0
 44
0.0
 45
0.0
 49
6.5
 74
     4
 75
     0
340
0
 46
0.0
 50
0.0
 44
0.0
 45
0.0
 49
-6.5
 74
     4
 75
     0
340
0
 46
0.0
 50
0.0
 44
0.0
 45
0.0
 49
6.5
 74
     4
 75
     0
340
0
 46
0.0
 50
0.0
 44
0.0
 45
0.0
 49
-6.5
 74
     4
 75
     0
340
0
 46
0.0
 50
0.0
 44
0.0
 45
0.0
  0
LTYPE
  5
42
330
5
100
AcDbSymbolTableRecord
100
AcDbLinetypeTableRecord
  2
CENTER
 70
     0
  3
____ _ ____ _ ____ _ ____
 72
    65
 73
     4
 40
47.4
 49
22.0
 74
     4
 75
     0
340
0
 46
0.0
 50
0.0
 44
0.0
 45
0.0
 49
-8.5
 74
     4
 75
     0
340
0
 46
0.0
 50
0.0
 44
0.0
 45
0.0
 49
8.5
 74
     4
 75
     0
340
0
 46
0.0
 50
0.0
 44
0.0
 45
0.0
 49
-8.5
 74
     4
 75
     0
340
0
 46
0.0
 50
0.0
 44
0.0
 45
0.0
  0
LTYPE
  5
43
330
5
100
AcDbSymbolTableRecord
100
AcDbLinetypeTableRecord
  2
DOT
 70
     0
  3
.........................
 72
    65
 73
     2
 40
10.0
 49
0.0
 74
     4
 75
     0
340
0
 46
0.0
 50
0.0
 44
0.0
 45
0.0
 49
-10.0
 74
     4
 75
     0
340
0
 46
0.0
 50
0.0
 44
0.0
 45
0.0
  0
LTYPE
  5
44
330
5
100
AcDbSymbolTableRecord
100
AcDbLinetypeTableRecord
  2
DASHDOT
 70
     0
  3
_._._._._._._._._._._._._._._._.
 72
    65
 73
     4
 40
70.0
 49
31.0
 74
     4
 75
     0
340
0
 46
0.0
 50
0.0
 44
0.0
 45
0.0
 49
-13.0
 74
     4
 75
     0
340
0
 46
0.0
 50
0.0
 44
0.0
 45
0.0
 49
13.0
 74
     4
 75
     0
340
0
 46
0.0
 50
0.0
 44
0.0
 45
0.0
 49
-13.0
 74
     4
 75
     0
340
0
 46
0.0
 50
0.0
 44
0.0
 45
0.0
  0
ENDTAB
  0
TABLE
  2
LAYER
  5
2
330
0
100
AcDbSymbolTable
 70
     5
  0
LAYER
  5
10
330
2
100
AcDbSymbolTableRecord
100
AcDbLayerTableRecord
  2
0
 70
     0
 62
     7
  6
CONTINUOUS
  0
LAYER
  5
46
330
2
100
AcDbSymbolTableRecord
100
AcDbLayerTableRecord
  2
1
 70
     0
 62
     7
  6
CONTINUOUS
  0
LAYER
  5
65
330
2
100
AcDbSymbolTableRecord
100
AcDbLayerTableRecord
  2
256
 70
     0
 62
     7
  6
CONTINUOUS
  0
LAYER
  5
CE
330
2
100
AcDbSymbolTableRecord
100
AcDbLayerTableRecord
  2
TOP
 70
     0
 62
     7
  6
CONTINUOUS
  0
LAYER
  5
E3
330
2
100
AcDbSymbolTableRecord
100
AcDbLayerTableRecord
  2
255
 70
     0
 62
     7
  6
CONTINUOUS
  0
ENDTAB
  0
TABLE
  2
STYLE
  5
3
330
0
100
AcDbSymbolTable
 70
     4
  0
STYLE
  5
11
330
3
100
AcDbSymbolTableRecord
100
AcDbTextStyleTableRecord
  2
STANDARD
 70
     0
 40
0.0
 41
1.0
 50
0.0
 71
     0
 42
0.2
  3
txt
  4

  0
STYLE
  5
CC
330
3
100
AcDbSymbolTableRecord
100
AcDbTextStyleTableRecord
  2
DEFAULT
 70
     0
 40
0.0
 41
1.0
 50
0.0
 71
     0
 42
0.2
  3
simplex.shx
  4

  0
STYLE
  5
CD
330
3
100
AcDbSymbolTableRecord
100
AcDbTextStyleTableRecord
  2
DWGDIRECTTEXTSTYLE
 70
     0
 40
0.0
 41
1.0
 50
0.0
 71
     0
 42
0.2
  3
SIMPLEX
  4
bigfont
  0
STYLE
  5
DF
330
3
100
AcDbSymbolTableRecord
100
AcDbTextStyleTableRecord
  2
BLOCKFONT
 70
     0
 40
0.0
 41
1.0
 50
0.0
 71
     0
 42
0.2
  3
simplex.shx
  4

  0
ENDTAB
  0
TABLE
  2
VIEW
  5
6
330
0
100
AcDbSymbolTable
 70
     0
  0
ENDTAB
  0
TABLE
  2
UCS
  5
7
330
0
100
AcDbSymbolTable
 70
     0
  0
ENDTAB
  0
TABLE
  2
APPID
  5
9
330
0
100
AcDbSymbolTable
 70
     1
  0
APPID
  5
12
330
9
100
AcDbSymbolTableRecord
100
AcDbRegAppTableRecord
  2
ACAD
 70
     0
  0
ENDTAB
  0
TABLE
  2
DIMSTYLE
  5
A
330
0
100
AcDbSymbolTable
 70
     1
  0
DIMSTYLE
105
27
102
{ACAD_REACTORS
330
159
330
162
330
16C
330
176
330
180
102
}
330
A
100
AcDbSymbolTableRecord
100
AcDbDimStyleTableRecord
  2
STANDARD
 70
     0
  3

  4

  5

  6

  7

 40
1.0
 41
0.18
 42
0.0625
 43
0.38
 44
0.18
 45
0.0
 46
0.0
 47
0.0
 48
0.0
140
0.18
141
0.09
142
0.0
143
25.4
144
1.0
145
0.0
146
1.0
147
0.09
 71
     0
 72
     0
 73
     1
 74
     1
 75
     0
 76
     0
 77
     0
 78
     0
170
     0
171
     2
172
     0
173
     0
174
     0
175
     0
176
     0
177
     0
178
     0
270
     2
271
     4
272
     4
273
     2
274
     2
340
11
275
     0
280
     0
281
     0
282
     0
283
     1
284
     0
285
     0
286
     0
287
     3
288
     0
  0
ENDTAB
  0
TABLE
  2
BLOCK_RECORD
  5
1
330
0
100
AcDbSymbolTable
 70
     7
  0
BLOCK_RECORD
  5
1F
330
1
100
AcDbSymbolTableRecord
100
AcDbBlockTableRecord
  2
*MODEL_SPACE
  0
BLOCK_RECORD
  5
1B
330
1
100
AcDbSymbolTableRecord
100
AcDbBlockTableRecord
  2
*PAPER_SPACE
  0
BLOCK_RECORD
  5
CF
330
1
100
AcDbSymbolTableRecord
100
AcDbBlockTableRecord
  2
LABLE3D_1
  0
BLOCK_RECORD
  5
14F
330
1
100
AcDbSymbolTableRecord
100
AcDbBlockTableRecord
  2
DIMNDRAFT3D1
  0
BLOCK_RECORD
  5
15A
330
1
100
AcDbSymbolTableRecord
100
AcDbBlockTableRecord
  2
DIMNDRAFT3D2
  0
BLOCK_RECORD
  5
163
330
1
100
AcDbSymbolTableRecord
100
AcDbBlockTableRecord
  2
DIMNDRAFT3D3
  0
BLOCK_RECORD
  5
16D
330
1
100
AcDbSymbolTableRecord
100
AcDbBlockTableRecord
  2
DIMNDRAFT3D4
  0
BLOCK_RECORD
  5
177
330
1
100
AcDbSymbolTableRecord
100
AcDbBlockTableRecord
  2
DIMNDRAFT3D5
  0
ENDTAB
  0
ENDSEC
  0
SECTION
  2
BLOCKS
  0
BLOCK
  5
20
330
1F
100
AcDbEntity
  8
0
100
AcDbBlockBegin
  2
*MODEL_SPACE
 70
     0
 10
0.0
 20
0.0
 30
0.0
  3
*MODEL_SPACE
  1

  0
ENDBLK
  5
21
330
1F
100
AcDbEntity
  8
0
100
AcDbBlockEnd
  0
BLOCK
  5
1C
330
1B
100
AcDbEntity
 67
     1
  8
0
100
AcDbBlockBegin
  2
*PAPER_SPACE
 70
     0
 10
0.0
 20
0.0
 30
0.0
  3
*PAPER_SPACE
  1

  0
ENDBLK
  5
1D
330
1B
100
AcDbEntity
 67
     1
  8
0
100
AcDbBlockEnd
  0
BLOCK
  5
D3
330
CF
100
AcDbEntity
  8
0
100
AcDbBlockBegin
  2
LABLE3D_1
 70
     0
 10
0.0
 20
0.0
 30
0.0
  3
LABLE3D_1
  1

  0
MTEXT
  5
D1
330
CF
100
AcDbEntity
  8
1
  6
CONTINUOUS
 62
     3
100
AcDbMText
 10
39.853756
 20
235.581997
 30
0.0
 40
3.5
 41
0.0
 71
     7
 72
     5
  1
\W00.746;PUNZON PARA TORNILLO AVELLANADO DIN 965 M4\P 
  7
DEFAULT
1001
ACAD
1000
MTEXTBEGIN
1070
    44
1040
0.903614
1000
MTEXTEND
1000
ACAD_MTEXT_DEFINED_HEIGHT_BEGIN
1070
    46
1040
0.2
1000
ACAD_MTEXT_DEFINED_HEIGHT_END
  0
ENDBLK
  5
D4
330
CF
100
AcDbEntity
  8
0
100
AcDbBlockEnd
  0
BLOCK
  5
157
330
14F
100
AcDbEntity
  8
0
100
AcDbBlockBegin
  2
DIMNDRAFT3D1
 70
     0
 10
0.0
 20
0.0
 30
0.0
  3
DIMNDRAFT3D1
  1

  0
MTEXT
  5
150
330
14F
100
AcDbEntity
  8
1
  6
CONTINUOUS
 62
     3
100
AcDbMText
 10
25.603028
 20
162.749733
 30
0.0
 40
3.5
 41
0.0
 71
     7
 72
     5
  1
\W01.000;\W00.810;4,0 
  7
DEFAULT
 11
6.123031769111886E-17
 21
1.0
 31
0.0
1001
ACAD
1000
MTEXTBEGIN
1070
    73
1070
     2
1070
    44
1040
0.903614
1000
MTEXTEND
1000
ACAD_MTEXT_DEFINED_HEIGHT_BEGIN
1070
    46
1040
0.2
1000
ACAD_MTEXT_DEFINED_HEIGHT_END
  0
MTEXT
  5
151
330
14F
100
AcDbEntity
  8
1
  6
CONTINUOUS
 62
     3
100
AcDbMText
 10
25.019979
 20
172.640765
 30
0.0
 40
3.5
 41
0.0
 71
     7
 72
     5
  1
\W01.000;\A1;\W00.795;\A1;\S+0,5^ -0,0; 
  7
DEFAULT
 11
6.123031769111886E-17
 21
1.0
 31
0.0
1001
ACAD
1000
MTEXTBEGIN
1070
    73
1070
     2
1070
    44
1040
0.903614
1000
MTEXTEND
1000
ACAD_MTEXT_DEFINED_HEIGHT_BEGIN
1070
    46
1040
0.2
1000
ACAD_MTEXT_DEFINED_HEIGHT_END
  0
LINE
  5
152
330
14F
100
AcDbEntity
  8
1
  6
CONTINUOUS
 62
     3
100
AcDbLine
 10
38.465922
 20
179.786385
 30
0.0
 11
28.269979
 21
179.786385
 31
0.0
  0
LINE
  5
153
330
14F
100
AcDbEntity
  8
1
  6
CONTINUOUS
 62
     3
100
AcDbLine
 10
38.465922
 20
183.786385
 30
0.0
 11
28.269979
 21
183.786385
 31
0.0
  0
LINE
  5
154
330
14F
100
AcDbEntity
  8
1
  6
CONTINUOUS
 62
     3
100
AcDbLine
 10
30.269979
 20
192.536385
 30
0.0
 11
30.269979
 21
161.874733
 31
0.0
  0
SOLID
  5
155
330
14F
100
AcDbEntity
  8
1
  6
CONTINUOUS
 62
     3
100
AcDbTrace
 10
30.269979
 20
179.786385
 30
0.0
 11
31.207801
 21
176.286389
 31
0.0
 12
29.332157
 22
176.286382
 32
0.0
 13
30.269979
 23
179.786385
 33
0.0
  0
SOLID
  5
156
330
14F
100
AcDbEntity
  8
1
  6
CONTINUOUS
 62
     3
100
AcDbTrace
 10
30.269979
 20
183.786385
 30
0.0
 11
29.332157
 21
187.286382
 31
0.0
 12
31.207801
 22
187.286389
 32
0.0
 13
30.269979
 23
183.786385
 33
0.0
  0
ENDBLK
  5
158
330
14F
100
AcDbEntity
  8
0
100
AcDbBlockEnd
  0
BLOCK
  5
160
330
15A
100
AcDbEntity
  8
0
100
AcDbBlockBegin
  2
DIMNDRAFT3D2
 70
     0
 10
0.0
 20
0.0
 30
0.0
  3
DIMNDRAFT3D2
  1

  0
MTEXT
  5
15B
330
15A
100
AcDbEntity
  8
1
  6
CONTINUOUS
 62
     3
100
AcDbMText
 10
31.555133
 20
153.109157
 30
0.0
 40
3.5
 41
0.0
 71
     7
 72
     5
  1
\W01.000;\W00.803;10,5 
  7
DEFAULT
 11
0.740048043446382
 21
0.672554007787614
 31
0.0
1001
ACAD
1000
MTEXTBEGIN
1070
    73
1070
     2
1070
    44
1040
0.903614
1000
MTEXTEND
1000
ACAD_MTEXT_DEFINED_HEIGHT_BEGIN
1070
    46
1040
0.2
1000
ACAD_MTEXT_DEFINED_HEIGHT_END
  0
MTEXT
  5
15C
330
15A
100
AcDbEntity
  8
1
  6
CONTINUOUS
 62
     3
100
AcDbMText
 10
26.374797
 20
148.401279
 30
0.0
 40
3.5
 41
0.0
 71
     7
 72
     5
  1
\W01.000;%%c 
  7
DEFAULT
 11
0.740048043446382
 21
0.672554007787614
 31
0.0
1001
ACAD
1000
MTEXTBEGIN
1070
    73
1070
     2
1070
    44
1040
0.903614
1000
MTEXTEND
1000
ACAD_MTEXT_DEFINED_HEIGHT_BEGIN
1070
    46
1040
0.2
1000
ACAD_MTEXT_DEFINED_HEIGHT_END
  0
LINE
  5
15D
330
15A
100
AcDbEntity
  8
1
  6
CONTINUOUS
 62
     3
100
AcDbLine
 10
26.708446
 20
146.733136
 30
0.0
 11
60.78534
 21
177.702141
 31
0.0
  0
SOLID
  5
15E
330
15A
100
AcDbEntity
  8
1
  6
CONTINUOUS
 62
     3
100
AcDbTrace
 10
54.30992
 20
171.817294
 30
0.0
 11
56.26935
 21
174.865264
 31
0.0
 12
57.530827
 22
173.477202
 32
0.0
 13
54.30992
 23
171.817294
 33
0.0
  0
SOLID
  5
15F
330
15A
100
AcDbEntity
  8
1
  6
CONTINUOUS
 62
     3
100
AcDbTrace
 10
46.539416
 20
164.755477
 30
0.0
 11
44.579986
 21
161.707507
 31
0.0
 12
43.318509
 22
163.095569
 32
0.0
 13
46.539416
 23
164.755477
 33
0.0
  0
ENDBLK
  5
161
330
15A
100
AcDbEntity
  8
0
100
AcDbBlockEnd
  0
BLOCK
  5
16A
330
163
100
AcDbEntity
  8
0
100
AcDbBlockBegin
  2
DIMNDRAFT3D3
 70
     0
 10
0.0
 20
0.0
 30
0.0
  3
DIMNDRAFT3D3
  1

  0
MTEXT
  5
164
330
163
100
AcDbEntity
  8
1
  6
CONTINUOUS
 62
     3
100
AcDbMText
 10
46.877266
 20
132.272225
 30
0.0
 40
3.5
 41
0.0
 71
     7
 72
     5
  1
\W01.000;\W00.834;97 
  7
DEFAULT
 11
0.6108842729477071
 21
0.7917199031634554
 31
0.0
1001
ACAD
1000
MTEXTBEGIN
1070
    73
1070
     2
1070
    44
1040
0.903614
1000
MTEXTEND
1000
ACAD_MTEXT_DEFINED_HEIGHT_BEGIN
1070
    46
1040
0.2
1000
ACAD_MTEXT_DEFINED_HEIGHT_END
  0
MTEXT
  5
165
330
163
100
AcDbEntity
  8
1
  6
CONTINUOUS
 62
     3
100
AcDbMText
 10
42.601077
 20
126.730186
 30
0.0
 40
3.5
 41
0.0
 71
     7
 72
     5
  1
\W01.000;%%c 
  7
DEFAULT
 11
0.6108842729477071
 21
0.7917199031634554
 31
0.0
1001
ACAD
1000
MTEXTBEGIN
1070
    73
1070
     2
1070
    44
1040
0.903614
1000
MTEXTEND
1000
ACAD_MTEXT_DEFINED_HEIGHT_BEGIN
1070
    46
1040
0.2
1000
ACAD_MTEXT_DEFINED_HEIGHT_END
  0
LINE
  5
166
330
163
100
AcDbEntity
  8
1
  6
CONTINUOUS
 62
     3
100
AcDbLine
 10
43.221595
 20
125.14621
 30
0.0
 11
121.897792
 21
227.11235
 31
0.0
  0
ARC
  5
167
330
163
100
AcDbEntity
  8
1
  6
CONTINUOUS
 62
     3
100
AcDbCircle
 10
86.924668
 20
181.786385
 30
0.0
 40
48.5
100
AcDbArc
 50
49.985156
 51
182.363383
  0
SOLID
  5
168
330
163
100
AcDbEntity
  8
1
  6
CONTINUOUS
 62
     3
100
AcDbTrace
 10
116.552555
 20
220.184801
 30
0.0
 11
117.948155
 21
223.528718
 31
0.0
 12
119.433145
 22
222.382922
 32
0.0
 13
116.552555
 23
220.184801
 33
0.0
  0
SOLID
  5
169
330
163
100
AcDbEntity
  8
1
  6
CONTINUOUS
 62
     3
100
AcDbTrace
 10
57.296781
 20
143.38797
 30
0.0
 11
55.90118
 21
140.044052
 31
0.0
 12
54.416191
 22
141.189848
 32
0.0
 13
57.296781
 23
143.38797
 33
0.0
  0
ENDBLK
  5
16B
330
163
100
AcDbEntity
  8
0
100
AcDbBlockEnd
  0
BLOCK
  5
174
330
16D
100
AcDbEntity
  8
0
100
AcDbBlockBegin
  2
DIMNDRAFT3D4
 70
     0
 10
0.0
 20
0.0
 30
0.0
  3
DIMNDRAFT3D4
  1

  0
MTEXT
  5
16E
330
16D
100
AcDbEntity
  8
1
  6
CONTINUOUS
 62
     3
100
AcDbMText
 10
182.731527
 20
121.73338
 30
0.0
 40
3.5
 41
0.0
 71
     7
 72
     5
  1
\W01.000;\W00.810;1,2 
  7
DEFAULT
1001
ACAD
1000
MTEXTBEGIN
1070
    73
1070
     2
1070
    44
1040
0.903614
1000
MTEXTEND
1000
ACAD_MTEXT_DEFINED_HEIGHT_BEGIN
1070
    46
1040
0.2
1000
ACAD_MTEXT_DEFINED_HEIGHT_END
  0
LINE
  5
16F
330
16D
100
AcDbEntity
  8
1
  6
CONTINUOUS
 62
     3
100
AcDbLine
 10
174.888993
 20
181.786385
 30
0.0
 11
174.888993
 21
119.149477
 31
0.0
  0
LINE
  5
170
330
16D
100
AcDbEntity
  8
1
  6
CONTINUOUS
 62
     3
100
AcDbLine
 10
176.088993
 20
181.786385
 30
0.0
 11
176.088993
 21
119.149477
 31
0.0
  0
LINE
  5
171
330
16D
100
AcDbEntity
  8
1
  6
CONTINUOUS
 62
     3
100
AcDbLine
 10
188.247559
 20
121.149477
 30
0.0
 11
166.138993
 21
121.149477
 31
0.0
  0
SOLID
  5
172
330
16D
100
AcDbEntity
  8
1
  6
CONTINUOUS
 62
     3
100
AcDbTrace
 10
174.888993
 20
121.149477
 30
0.0
 11
171.388996
 21
120.211655
 31
0.0
 12
171.388989
 22
122.087299
 32
0.0
 13
174.888993
 23
121.149477
 33
0.0
  0
SOLID
  5
173
330
16D
100
AcDbEntity
  8
1
  6
CONTINUOUS
 62
     3
100
AcDbTrace
 10
176.088993
 20
121.149477
 30
0.0
 11
179.588989
 21
122.087299
 31
0.0
 12
179.588996
 22
120.211655
 32
0.0
 13
176.088993
 23
121.149477
 33
0.0
  0
ENDBLK
  5
175
330
16D
100
AcDbEntity
  8
0
100
AcDbBlockEnd
  0
BLOCK
  5
17E
330
177
100
AcDbEntity
  8
0
100
AcDbBlockBegin
  2
DIMNDRAFT3D5
 70
     0
 10
0.0
 20
0.0
 30
0.0
  3
DIMNDRAFT3D5
  1

  0
MTEXT
  5
178
330
177
100
AcDbEntity
  8
1
  6
CONTINUOUS
 62
     3
100
AcDbMText
 10
185.981973
 20
241.307421
 30
0.0
 40
3.5
 41
0.0
 71
     7
 72
     5
  1
\W01.000;\W00.810;1,8 
  7
DEFAULT
1001
ACAD
1000
MTEXTBEGIN
1070
    73
1070
     2
1070
    44
1040
0.903614
1000
MTEXTEND
1000
ACAD_MTEXT_DEFINED_HEIGHT_BEGIN
1070
    46
1040
0.2
1000
ACAD_MTEXT_DEFINED_HEIGHT_END
  0
LINE
  5
179
330
177
100
AcDbEntity
  8
1
  6
CONTINUOUS
 62
     3
100
AcDbLine
 10
176.088993
 20
232.436385
 30
0.0
 11
176.088993
 21
242.723518
 31
0.0
  0
LINE
  5
17A
330
177
100
AcDbEntity
  8
1
  6
CONTINUOUS
 62
     3
100
AcDbLine
 10
177.888993
 20
188.492644
 30
0.0
 11
177.888993
 21
242.723518
 31
0.0
  0
LINE
  5
17B
330
177
100
AcDbEntity
  8
1
  6
CONTINUOUS
 62
     3
100
AcDbLine
 10
191.498005
 20
240.723518
 30
0.0
 11
167.338993
 21
240.723518
 31
0.0
  0
SOLID
  5
17C
330
177
100
AcDbEntity
  8
1
  6
CONTINUOUS
 62
     3
100
AcDbTrace
 10
176.088993
 20
240.723518
 30
0.0
 11
172.588996
 21
239.785695
 31
0.0
 12
172.588989
 22
241.66134
 32
0.0
 13
176.088993
 23
240.723518
 33
0.0
  0
SOLID
  5
17D
330
177
100
AcDbEntity
  8
1
  6
CONTINUOUS
 62
     3
100
AcDbTrace
 10
177.888993
 20
240.723518
 30
0.0
 11
181.388989
 21
241.66134
 31
0.0
 12
181.388996
 22
239.785695
 32
0.0
 13
177.888993
 23
240.723518
 33
0.0
  0
ENDBLK
  5
17F
330
177
100
AcDbEntity
  8
0
100
AcDbBlockEnd
  0
ENDSEC
  0
SECTION
  2
ENTITIES
  0
LINE
  5
45
330
1F
100
AcDbEntity
  8
1
  6
CONTINUOUS
 62
     2
100
AcDbLine
 10
99.924668
 20
179.786385
 30
0.0
 11
99.924668
 21
183.786385
 31
0.0
  0
LINE
  5
47
330
1F
100
AcDbEntity
  8
1
  6
CONTINUOUS
 62
     2
100
AcDbLine
 10
85.924668
 20
131.136385
 30
0.0
 11
85.924668
 21
133.296696
 31
0.0
  0
LINE
  5
48
330
1F
100
AcDbEntity
  8
1
  6
CONTINUOUS
 62
     2
100
AcDbLine
 10
38.465922
 20
179.786385
 30
0.0
 11
99.924668
 21
179.786385
 31
0.0
  0
LINE
  5
49
330
1F
100
AcDbEntity
  8
1
  6
CONTINUOUS
 62
     2
100
AcDbLine
 10
87.924668
 20
131.136385
 30
0.0
 11
85.924668
 21
131.136385
 31
0.0
  0
LINE
  5
4A
330
1F
100
AcDbEntity
  8
1
  6
CONTINUOUS
 62
     2
100
AcDbLine
 10
99.924668
 20
183.786385
 30
0.0
 11
38.465922
 21
183.786385
 31
0.0
  0
LINE
  5
4B
330
1F
100
AcDbEntity
  8
1
  6
CONTINUOUS
 62
     2
100
AcDbLine
 10
85.924668
 20
230.276075
 30
0.0
 11
85.924668
 21
232.436385
 31
0.0
  0
LINE
  5
4C
330
1F
100
AcDbEntity
  8
1
  6
CONTINUOUS
 62
     2
100
AcDbLine
 10
85.924668
 20
232.436385
 30
0.0
 11
87.924668
 21
232.436385
 31
0.0
  0
LINE
  5
4D
330
1F
100
AcDbEntity
  8
1
  6
CONTINUOUS
 62
     2
100
AcDbLine
 10
87.924668
 20
232.436385
 30
0.0
 11
87.924668
 21
230.276075
 31
0.0
  0
LINE
  5
4E
330
1F
100
AcDbEntity
  8
1
  6
CONTINUOUS
 62
     2
100
AcDbLine
 10
87.924668
 20
133.296696
 30
0.0
 11
87.924668
 21
131.136385
 31
0.0
  0
LINE
  5
4F
330
1F
100
AcDbEntity
  8
1
  6
CONTINUOUS
 62
     2
100
AcDbLine
 10
176.586911
 20
183.343506
 30
0.0
 11
177.888993
 21
184.645587
 31
0.0
  0
LINE
  5
50
330
1F
100
AcDbEntity
  8
1
  6
CONTINUOUS
 62
     2
100
AcDbLine
 10
177.888993
 20
192.3397
 30
0.0
 11
176.586911
 21
193.641781
 31
0.0
  0
LINE
  5
51
330
1F
100
AcDbEntity
  8
1
  6
CONTINUOUS
 62
     2
100
AcDbLine
 10
176.088993
 20
133.296696
 30
0.0
 11
176.088993
 21
179.786385
 31
0.0
  0
LINE
  5
52
330
1F
100
AcDbEntity
  8
1
  6
CONTINUOUS
 62
     2
100
AcDbLine
 10
176.088993
 20
179.786385
 30
0.0
 11
176.088993
 21
183.786385
 31
0.0
  0
LINE
  5
53
330
1F
100
AcDbEntity
  8
1
  6
CONTINUOUS
 62
     2
100
AcDbLine
 10
176.088993
 20
131.136385
 30
0.0
 11
176.088993
 21
133.296696
 31
0.0
  0
LINE
  5
54
330
1F
100
AcDbEntity
  8
1
  6
CONTINUOUS
 62
     2
100
AcDbLine
 10
177.888993
 20
192.3397
 30
0.0
 11
177.888993
 21
188.492644
 31
0.0
  0
LINE
  5
55
330
1F
100
AcDbEntity
  8
1
  6
CONTINUOUS
 62
     2
100
AcDbLine
 10
177.888993
 20
188.492644
 30
0.0
 11
177.888993
 21
184.645587
 31
0.0
  0
LINE
  5
56
330
1F
100
AcDbEntity
  8
1
  6
CONTINUOUS
 62
     2
100
AcDbLine
 10
176.586911
 20
183.343506
 30
0.0
 11
176.586911
 21
193.641781
 31
0.0
  0
LINE
  5
57
330
1F
100
AcDbEntity
  8
1
  6
CONTINUOUS
 62
     2
100
AcDbLine
 10
176.088993
 20
183.786385
 30
0.0
 11
176.088993
 21
230.276075
 31
0.0
  0
LINE
  5
58
330
1F
100
AcDbEntity
  8
1
  6
CONTINUOUS
 62
     2
100
AcDbLine
 10
176.088993
 20
230.276075
 30
0.0
 11
176.088993
 21
232.436385
 31
0.0
  0
LINE
  5
59
330
1F
100
AcDbEntity
  8
1
  6
CONTINUOUS
 62
     2
100
AcDbLine
 10
174.888993
 20
183.786385
 30
0.0
 11
174.888993
 21
179.786385
 31
0.0
  0
LINE
  5
5A
330
1F
100
AcDbEntity
  8
1
  6
CONTINUOUS
 62
     2
100
AcDbLine
 10
176.088993
 20
183.786385
 30
0.0
 11
174.888993
 21
183.786385
 31
0.0
  0
LINE
  5
5B
330
1F
100
AcDbEntity
  8
1
  6
CONTINUOUS
 62
     2
100
AcDbLine
 10
176.088993
 20
179.786385
 30
0.0
 11
174.888993
 21
179.786385
 31
0.0
  0
LINE
  5
5C
330
1F
100
AcDbEntity
  8
1
  6
CONTINUOUS
 62
     2
100
AcDbLine
 10
174.888993
 20
133.296696
 30
0.0
 11
174.888993
 21
179.786385
 31
0.0
  0
LINE
  5
5D
330
1F
100
AcDbEntity
  8
1
  6
CONTINUOUS
 62
     2
100
AcDbLine
 10
176.088993
 20
133.296696
 30
0.0
 11
174.888993
 21
133.296696
 31
0.0
  0
LINE
  5
5E
330
1F
100
AcDbEntity
  8
1
  6
CONTINUOUS
 62
     2
100
AcDbLine
 10
174.888993
 20
230.276075
 30
0.0
 11
176.088993
 21
230.276075
 31
0.0
  0
LINE
  5
5F
330
1F
100
AcDbEntity
  8
1
  6
CONTINUOUS
 62
     2
100
AcDbLine
 10
176.088993
 20
232.436385
 30
0.0
 11
174.888993
 21
232.436385
 31
0.0
  0
LINE
  5
60
330
1F
100
AcDbEntity
  8
1
  6
CONTINUOUS
 62
     2
100
AcDbLine
 10
176.088993
 20
131.136385
 30
0.0
 11
174.888993
 21
131.136385
 31
0.0
  0
LINE
  5
61
330
1F
100
AcDbEntity
  8
1
  6
CONTINUOUS
 62
     2
100
AcDbLine
 10
174.888993
 20
230.276075
 30
0.0
 11
174.888993
 21
232.436385
 31
0.0
  0
LINE
  5
62
330
1F
100
AcDbEntity
  8
1
  6
CONTINUOUS
 62
     2
100
AcDbLine
 10
174.888993
 20
183.786385
 30
0.0
 11
174.888993
 21
230.276075
 31
0.0
  0
LINE
  5
63
330
1F
100
AcDbEntity
  8
1
  6
CONTINUOUS
 62
     2
100
AcDbLine
 10
174.888993
 20
131.136385
 30
0.0
 11
174.888993
 21
133.296696
 31
0.0
  0
LINE
  5
64
330
1F
100
AcDbEntity
  8
256
  6
CONTINUOUS
 62
    18
100
AcDbLine
 10
0.0
 20
0.0
 30
0.0
 11
205.0
 21
0.0
 31
0.0
  0
LINE
  5
66
330
1F
100
AcDbEntity
  8
256
  6
CONTINUOUS
 62
     3
100
AcDbLine
 10
-0.04
 20
148.5
 30
0.0
 11
15.0
 21
148.5
 31
0.0
  0
LINE
  5
67
330
1F
100
AcDbEntity
  8
256
  6
CONTINUOUS
 62
     2
100
AcDbLine
 10
15.0
 20
287.0
 30
0.0
 11
195.0
 21
287.0
 31
0.0
  0
LINE
  5
68
330
1F
100
AcDbEntity
  8
256
  6
CONTINUOUS
 62
    18
100
AcDbLine
 10
0.0
 20
0.0
 30
0.0
 11
0.0
 21
297.0
 31
0.0
  0
LINE
  5
69
330
1F
100
AcDbEntity
  8
256
  6
CONTINUOUS
 62
     2
100
AcDbLine
 10
22.0
 20
257.0
 30
0.0
 11
22.0
 21
287.0
 31
0.0
  0
LINE
  5
6A
330
1F
100
AcDbEntity
  8
256
  6
CONTINUOUS
 62
     2
100
AcDbLine
 10
15.0
 20
257.0
 30
0.0
 11
195.0
 21
257.0
 31
0.0
  0
LINE
  5
6B
330
1F
100
AcDbEntity
  8
256
  6
CONTINUOUS
 62
     3
100
AcDbLine
 10
195.0
 20
282.0
 30
0.0
 11
15.0
 21
282.0
 31
0.0
  0
LINE
  5
6C
330
1F
100
AcDbEntity
  8
256
  6
CONTINUOUS
 62
     2
100
AcDbLine
 10
15.0
 20
287.0
 30
0.0
 11
15.0
 21
10.0
 31
0.0
  0
LINE
  5
6D
330
1F
100
AcDbEntity
  8
256
  6
CONTINUOUS
 62
     3
100
AcDbLine
 10
195.0
 20
262.0
 30
0.0
 11
15.0
 21
262.0
 31
0.0
  0
LINE
  5
6E
330
1F
100
AcDbEntity
  8
256
  6
CONTINUOUS
 62
     3
100
AcDbLine
 10
195.0
 20
277.0
 30
0.0
 11
15.0
 21
277.0
 31
0.0
  0
LINE
  5
6F
330
1F
100
AcDbEntity
  8
256
  6
CONTINUOUS
 62
     3
100
AcDbLine
 10
195.0
 20
267.0
 30
0.0
 11
15.0
 21
267.0
 31
0.0
  0
LINE
  5
70
330
1F
100
AcDbEntity
  8
256
  6
CONTINUOUS
 62
     2
100
AcDbLine
 10
195.0
 20
10.0
 30
0.0
 11
195.0
 21
287.0
 31
0.0
  0
LINE
  5
71
330
1F
100
AcDbEntity
  8
256
  6
CONTINUOUS
 62
     3
100
AcDbLine
 10
195.0
 20
272.0
 30
0.0
 11
15.0
 21
272.0
 31
0.0
  0
LINE
  5
72
330
1F
100
AcDbEntity
  8
256
  6
CONTINUOUS
 62
    18
100
AcDbLine
 10
205.0
 20
0.0
 30
0.0
 11
205.0
 21
297.0
 31
0.0
  0
LINE
  5
73
330
1F
100
AcDbEntity
  8
256
  6
CONTINUOUS
 62
    18
100
AcDbLine
 10
0.0
 20
297.0
 30
0.0
 11
205.0
 21
297.0
 31
0.0
  0
LINE
  5
74
330
1F
100
AcDbEntity
  8
256
  6
CONTINUOUS
 62
     2
100
AcDbLine
 10
15.0
 20
252.0
 30
0.0
 11
195.0
 21
252.0
 31
0.0
  0
LINE
  5
75
330
1F
100
AcDbEntity
  8
256
  6
CONTINUOUS
 62
     2
100
AcDbLine
 10
115.0
 20
67.5
 30
0.0
 11
195.0
 21
67.5
 31
0.0
  0
LINE
  5
76
330
1F
100
AcDbEntity
  8
256
  6
CONTINUOUS
 62
     2
100
AcDbLine
 10
57.5
 20
51.0
 30
0.0
 11
155.0
 21
51.0
 31
0.0
  0
LINE
  5
77
330
1F
100
AcDbEntity
  8
256
  6
CONTINUOUS
 62
     3
100
AcDbLine
 10
173.0
 20
56.579805
 30
0.0
 11
173.0
 21
49.500705
 31
0.0
  0
LINE
  5
78
330
1F
100
AcDbEntity
  8
256
  6
CONTINUOUS
 62
     3
100
AcDbLine
 10
46.875
 20
22.0
 30
0.0
 11
46.875
 21
10.0
 31
0.0
  0
LINE
  5
79
330
1F
100
AcDbEntity
  8
256
  6
CONTINUOUS
 62
     2
100
AcDbLine
 10
15.0
 20
100.0
 30
0.0
 11
195.0
 21
100.0
 31
0.0
  0
LINE
  5
7A
330
1F
100
AcDbEntity
  8
256
  6
CONTINUOUS
 62
     3
100
AcDbLine
 10
115.0
 20
62.0
 30
0.0
 11
155.0
 21
62.0
 31
0.0
  0
LINE
  5
7B
330
1F
100
AcDbEntity
  8
256
  6
CONTINUOUS
 62
     3
100
AcDbLine
 10
173.0
 20
49.500705
 30
0.0
 11
164.97
 21
51.256405
 31
0.0
  0
LINE
  5
7C
330
1F
100
AcDbEntity
  8
256
  6
CONTINUOUS
 62
     2
100
AcDbLine
 10
15.0
 20
10.0
 30
0.0
 11
195.0
 21
10.0
 31
0.0
  0
LINE
  5
7D
330
1F
100
AcDbEntity
  8
256
  6
CONTINUOUS
 62
     2
100
AcDbLine
 10
57.5
 20
44.0
 30
0.0
 11
195.0
 21
44.0
 31
0.0
  0
LINE
  5
7E
330
1F
100
AcDbEntity
  8
256
  6
CONTINUOUS
 62
     3
100
AcDbLine
 10
164.97
 20
54.824205
 30
0.0
 11
164.97
 21
51.256405
 31
0.0
  0
LINE
  5
7F
330
1F
100
AcDbEntity
  8
256
  6
CONTINUOUS
 62
     2
100
AcDbLine
 10
15.0
 20
28.0
 30
0.0
 11
57.5
 21
28.0
 31
0.0
  0
LINE
  5
80
330
1F
100
AcDbEntity
  8
256
  6
CENTER
 62
     3
100
AcDbLine
 10
181.579
 20
57.640305
 30
0.0
 11
181.579
 21
48.487505
 31
0.0
  0
LINE
  5
81
330
1F
100
AcDbEntity
  8
256
  6
CONTINUOUS
 62
     3
100
AcDbLine
 10
173.0
 20
56.579805
 30
0.0
 11
164.97
 21
54.824205
 31
0.0
  0
LINE
  5
82
330
1F
100
AcDbEntity
  8
256
  6
CONTINUOUS
 62
     3
100
AcDbLine
 10
115.0
 20
56.5
 30
0.0
 11
155.0
 21
56.5
 31
0.0
  0
LINE
  5
83
330
1F
100
AcDbEntity
  8
256
  6
CENTER
 62
     3
100
AcDbLine
 10
176.745
 20
53.040305
 30
0.0
 11
186.158
 21
53.040305
 31
0.0
  0
LINE
  5
84
330
1F
100
AcDbEntity
  8
256
  6
CONTINUOUS
 62
     2
100
AcDbLine
 10
155.0
 20
67.5
 30
0.0
 11
155.0
 21
10.0
 31
0.0
  0
LINE
  5
85
330
1F
100
AcDbEntity
  8
256
  6
CONTINUOUS
 62
     3
100
AcDbLine
 10
155.0
 20
28.0
 30
0.0
 11
195.0
 21
28.0
 31
0.0
  0
LINE
  5
86
330
1F
100
AcDbEntity
  8
256
  6
CONTINUOUS
 62
     3
100
AcDbLine
 10
135.0
 20
51.0
 30
0.0
 11
135.0
 21
67.5
 31
0.0
  0
LINE
  5
87
330
1F
100
AcDbEntity
  8
256
  6
CONTINUOUS
 62
     2
100
AcDbLine
 10
15.0
 20
100.0
 30
0.0
 11
15.0
 21
10.0
 31
0.0
  0
LINE
  5
88
330
1F
100
AcDbEntity
  8
256
  6
CONTINUOUS
 62
     3
100
AcDbLine
 10
15.0
 20
35.9
 30
0.0
 11
57.5
 21
35.9
 31
0.0
  0
LINE
  5
89
330
1F
100
AcDbEntity
  8
256
  6
CONTINUOUS
 62
     3
100
AcDbLine
 10
36.25
 20
16.0
 30
0.0
 11
57.5
 21
16.0
 31
0.0
  0
LINE
  5
8A
330
1F
100
AcDbEntity
  8
256
  6
CONTINUOUS
 62
     2
100
AcDbLine
 10
15.0
 20
58.0
 30
0.0
 11
57.5
 21
58.0
 31
0.0
  0
LINE
  5
8B
330
1F
100
AcDbEntity
  8
256
  6
CONTINUOUS
 62
     3
100
AcDbLine
 10
57.5
 20
43.8
 30
0.0
 11
15.0
 21
43.8
 31
0.0
  0
LINE
  5
8C
330
1F
100
AcDbEntity
  8
256
  6
CONTINUOUS
 62
     3
100
AcDbLine
 10
97.189666
 20
60.322391
 30
0.0
 11
95.409666
 21
59.762391
 31
0.0
  0
LINE
  5
8D
330
1F
100
AcDbEntity
  8
256
  6
CONTINUOUS
 62
     3
100
AcDbLine
 10
15.0
 20
71.88581
 30
0.0
 11
57.5
 21
71.88581
 31
0.0
  0
LINE
  5
8E
330
1F
100
AcDbEntity
  8
256
  6
CONTINUOUS
 62
     2
100
AcDbLine
 10
15.0
 20
79.88581
 30
0.0
 11
115.0
 21
79.88581
 31
0.0
  0
LINE
  5
8F
330
1F
100
AcDbEntity
  8
256
  6
CONTINUOUS
 62
     3
100
AcDbLine
 10
97.189666
 20
60.322391
 30
0.0
 11
95.409666
 21
60.882391
 31
0.0
  0
LINE
  5
90
330
1F
100
AcDbEntity
  8
256
  6
CONTINUOUS
 62
     2
100
AcDbLine
 10
57.5
 20
58.0
 30
0.0
 11
115.0
 21
58.0
 31
0.0
  0
LINE
  5
91
330
1F
100
AcDbEntity
  8
256
  6
CONTINUOUS
 62
     3
100
AcDbLine
 10
57.5
 20
51.0
 30
0.0
 11
15.0
 21
51.0
 31
0.0
  0
LINE
  5
92
330
1F
100
AcDbEntity
  8
256
  6
CONTINUOUS
 62
     3
100
AcDbLine
 10
87.599666
 20
71.897391
 30
0.0
 11
87.599666
 21
58.842391
 31
0.0
  0
LINE
  5
93
330
1F
100
AcDbEntity
  8
256
  6
CONTINUOUS
 62
     2
100
AcDbLine
 10
46.875
 20
22.0
 30
0.0
 11
36.25
 21
22.0
 31
0.0
  0
LINE
  5
94
330
1F
100
AcDbEntity
  8
256
  6
CONTINUOUS
 62
     2
100
AcDbLine
 10
15.0
 20
87.88581
 30
0.0
 11
115.0
 21
87.88581
 31
0.0
  0
LINE
  5
95
330
1F
100
AcDbEntity
  8
256
  6
CONTINUOUS
 62
     3
100
AcDbLine
 10
41.563
 20
22.0
 30
0.0
 11
41.563
 21
10.0
 31
0.0
  0
LINE
  5
96
330
1F
100
AcDbEntity
  8
256
  6
CENTER
 62
     3
100
AcDbLine
 10
163.719
 20
53.040305
 30
0.0
 11
174.383
 21
53.040305
 31
0.0
  0
LINE
  5
97
330
1F
100
AcDbEntity
  8
256
  6
CONTINUOUS
 62
     2
100
AcDbLine
 10
115.0
 20
51.0
 30
0.0
 11
115.0
 21
100.0
 31
0.0
  0
LINE
  5
98
330
1F
100
AcDbEntity
  8
256
  6
CONTINUOUS
 62
     2
100
AcDbLine
 10
36.25
 20
28.0
 30
0.0
 11
36.25
 21
10.0
 31
0.0
  0
LINE
  5
99
330
1F
100
AcDbEntity
  8
256
  6
CONTINUOUS
 62
     3
100
AcDbLine
 10
52.188
 20
28.0
 30
0.0
 11
52.188
 21
10.0
 31
0.0
  0
LINE
  5
9A
330
1F
100
AcDbEntity
  8
256
  6
CONTINUOUS
 62
     2
100
AcDbLine
 10
36.25
 20
58.0
 30
0.0
 11
36.25
 21
27.9773
 31
0.0
  0
LINE
  5
9B
330
1F
100
AcDbEntity
  8
256
  6
CONTINUOUS
 62
     3
100
AcDbLine
 10
155.0
 20
36.0
 30
0.0
 11
195.0
 21
36.0
 31
0.0
  0
LINE
  5
9C
330
1F
100
AcDbEntity
  8
256
  6
CONTINUOUS
 62
     3
100
AcDbLine
 10
46.875
 20
22.0
 30
0.0
 11
57.5
 21
22.0
 31
0.0
  0
LINE
  5
9D
330
1F
100
AcDbEntity
  8
256
  6
CONTINUOUS
 62
     2
100
AcDbLine
 10
57.5
 20
10.0
 30
0.0
 11
57.5
 21
79.88581
 31
0.0
  0
LINE
  5
9E
330
1F
100
AcDbEntity
  8
256
  6
CONTINUOUS
 62
     2
100
AcDbLine
 10
46.875
 20
22.0
 30
0.0
 11
46.875
 21
28.0
 31
0.0
  0
LINE
  5
9F
330
1F
100
AcDbEntity
  8
1
  6
CONTINUOUS
 62
   172
100
AcDbLine
 10
47.0
 20
22.0
 30
0.0
 11
52.353045
 21
27.945159
 31
0.0
  0
LINE
  5
A0
102
{ACAD_REACTORS
330
181
102
}
330
1F
100
AcDbEntity
  8
1
  6
CONTINUOUS
 62
     3
100
AcDbLine
 10
107.048913
 20
121.149477
 30
0.0
 11
86.924668
 21
121.149477
 31
0.0
  0
LINE
  5
A1
102
{ACAD_REACTORS
330
181
102
}
330
1F
100
AcDbEntity
  8
1
  6
CONTINUOUS
 62
     3
100
AcDbLine
 10
86.924668
 20
181.786385
 30
0.0
 11
86.924668
 21
119.149477
 31
0.0
  0
LINE
  5
A2
102
{ACAD_REACTORS
330
181
102
}
330
1F
100
AcDbEntity
  8
1
  6
CONTINUOUS
 62
     3
100
AcDbLine
 10
107.048913
 20
177.141424
 30
0.0
 11
107.048913
 21
119.149477
 31
0.0
  0
LINE
  5
A3
330
1F
100
AcDbEntity
  8
1
  6
CONTINUOUS
 62
     3
 60
     1
100
AcDbLine
 10
86.924668
 20
121.149477
 30
0.0
 11
90.424664
 21
122.087299
 31
0.0
  0
LINE
  5
A4
330
1F
100
AcDbEntity
  8
1
  6
CONTINUOUS
 62
     3
 60
     1
100
AcDbLine
 10
90.424664
 20
122.087299
 30
0.0
 11
90.424671
 21
120.211655
 31
0.0
  0
LINE
  5
A5
330
1F
100
AcDbEntity
  8
1
  6
CONTINUOUS
 62
     3
 60
     1
100
AcDbLine
 10
90.424671
 20
120.211655
 30
0.0
 11
86.924668
 21
121.149477
 31
0.0
  0
LINE
  5
A6
330
1F
100
AcDbEntity
  8
1
  6
CONTINUOUS
 62
     3
 60
     1
100
AcDbLine
 10
107.048913
 20
121.149477
 30
0.0
 11
103.548916
 21
120.211655
 31
0.0
  0
LINE
  5
A7
330
1F
100
AcDbEntity
  8
1
  6
CONTINUOUS
 62
     3
 60
     1
100
AcDbLine
 10
103.548916
 20
120.211655
 30
0.0
 11
103.548909
 21
122.087299
 31
0.0
  0
LINE
  5
A8
330
1F
100
AcDbEntity
  8
1
  6
CONTINUOUS
 62
     3
 60
     1
100
AcDbLine
 10
103.548909
 20
122.087299
 30
0.0
 11
107.048913
 21
121.149477
 31
0.0
  0
LINE
  5
A9
102
{ACAD_REACTORS
330
182
102
}
330
1F
100
AcDbEntity
  8
1
  6
CONTINUOUS
 62
     3
100
AcDbLine
 10
148.53082
 20
197.242644
 30
0.0
 11
148.53082
 21
169.549477
 31
0.0
  0
LINE
  5
AA
102
{ACAD_REACTORS
330
182
102
}
330
1F
100
AcDbEntity
  8
1
  6
CONTINUOUS
 62
     3
100
AcDbLine
 10
118.400132
 20
188.492644
 30
0.0
 11
150.53082
 21
188.492644
 31
0.0
  0
LINE
  5
AB
102
{ACAD_REACTORS
330
182
102
}
330
1F
100
AcDbEntity
  8
1
  6
CONTINUOUS
 62
     3
100
AcDbLine
 10
86.924668
 20
181.786385
 30
0.0
 11
150.53082
 21
181.786385
 31
0.0
  0
LINE
  5
AC
330
1F
100
AcDbEntity
  8
1
  6
CONTINUOUS
 62
     3
 60
     1
100
AcDbLine
 10
148.53082
 20
188.492644
 30
0.0
 11
147.592998
 21
191.99264
 31
0.0
  0
LINE
  5
AD
330
1F
100
AcDbEntity
  8
1
  6
CONTINUOUS
 62
     3
 60
     1
100
AcDbLine
 10
147.592998
 20
191.99264
 30
0.0
 11
149.468642
 21
191.992647
 31
0.0
  0
LINE
  5
AE
330
1F
100
AcDbEntity
  8
1
  6
CONTINUOUS
 62
     3
 60
     1
100
AcDbLine
 10
149.468642
 20
191.992647
 30
0.0
 11
148.53082
 21
188.492644
 31
0.0
  0
LINE
  5
AF
330
1F
100
AcDbEntity
  8
1
  6
CONTINUOUS
 62
     3
 60
     1
100
AcDbLine
 10
148.53082
 20
181.786385
 30
0.0
 11
149.468642
 21
178.286389
 31
0.0
  0
LINE
  5
B0
330
1F
100
AcDbEntity
  8
1
  6
CONTINUOUS
 62
     3
 60
     1
100
AcDbLine
 10
149.468642
 20
178.286389
 30
0.0
 11
147.592998
 21
178.286382
 31
0.0
  0
LINE
  5
B1
330
1F
100
AcDbEntity
  8
1
  6
CONTINUOUS
 62
     3
 60
     1
100
AcDbLine
 10
147.592998
 20
178.286382
 30
0.0
 11
148.53082
 21
181.786385
 31
0.0
  0
LINE
  5
B2
330
1F
100
AcDbEntity
  8
1
  6
CONTINUOUS
 62
   172
 60
     1
100
AcDbLine
 10
174.888993
 20
181.786385
 30
0.0
 11
174.888993
 21
181.787385
 31
0.0
  0
LINE
  5
B3
330
1F
100
AcDbEntity
  8
1
  6
CONTINUOUS
 62
   172
 60
     1
100
AcDbLine
 10
176.088993
 20
181.786385
 30
0.0
 11
176.088993
 21
181.787385
 31
0.0
  0
LINE
  5
B4
102
{ACAD_REACTORS
330
183
102
}
330
1F
100
AcDbEntity
  8
1
  6
CONTINUOUS
 62
     3
100
AcDbLine
 10
160.924489
 20
131.136385
 30
0.0
 11
160.924489
 21
232.436385
 31
0.0
  0
LINE
  5
B5
102
{ACAD_REACTORS
330
183
102
}
330
1F
100
AcDbEntity
  8
1
  6
CONTINUOUS
 62
     3
100
AcDbLine
 10
87.924668
 20
232.436385
 30
0.0
 11
162.924489
 21
232.436385
 31
0.0
  0
LINE
  5
B6
102
{ACAD_REACTORS
330
183
102
}
330
1F
100
AcDbEntity
  8
1
  6
CONTINUOUS
 62
     3
100
AcDbLine
 10
86.924668
 20
131.136385
 30
0.0
 11
162.924489
 21
131.136385
 31
0.0
  0
LINE
  5
B7
330
1F
100
AcDbEntity
  8
1
  6
CONTINUOUS
 62
     3
 60
     1
100
AcDbLine
 10
160.924489
 20
232.436385
 30
0.0
 11
161.862311
 21
228.936389
 31
0.0
  0
LINE
  5
B8
330
1F
100
AcDbEntity
  8
1
  6
CONTINUOUS
 62
     3
 60
     1
100
AcDbLine
 10
161.862311
 20
228.936389
 30
0.0
 11
159.986667
 21
228.936382
 31
0.0
  0
LINE
  5
B9
330
1F
100
AcDbEntity
  8
1
  6
CONTINUOUS
 62
     3
 60
     1
100
AcDbLine
 10
159.986667
 20
228.936382
 30
0.0
 11
160.924489
 21
232.436385
 31
0.0
  0
LINE
  5
BA
330
1F
100
AcDbEntity
  8
1
  6
CONTINUOUS
 62
     3
 60
     1
100
AcDbLine
 10
160.924489
 20
131.136385
 30
0.0
 11
159.986667
 21
134.636382
 31
0.0
  0
LINE
  5
BB
330
1F
100
AcDbEntity
  8
1
  6
CONTINUOUS
 62
     3
 60
     1
100
AcDbLine
 10
159.986667
 20
134.636382
 30
0.0
 11
161.862311
 21
134.636389
 31
0.0
  0
LINE
  5
BC
330
1F
100
AcDbEntity
  8
1
  6
CONTINUOUS
 62
     3
 60
     1
100
AcDbLine
 10
161.862311
 20
134.636389
 30
0.0
 11
160.924489
 21
131.136385
 31
0.0
  0
CIRCLE
  5
BD
330
1F
100
AcDbEntity
  8
1
  6
CONTINUOUS
 62
     2
100
AcDbCircle
 10
-107.048913
 20
188.492644
 30
0.0
 40
6.351219330881974
210
0.0
220
0.0
230
-1.0
  0
ARC
  5
BE
330
1F
100
AcDbEntity
  8
1
  6
CONTINUOUS
 62
     2
100
AcDbCircle
 10
-86.924668
 20
181.786385
 30
0.0
 40
48.5
210
0.0
220
0.0
230
-1.0
100
AcDbArc
 50
271.18144
 51
357.636617
  0
CIRCLE
  5
BF
330
1F
100
AcDbEntity
  8
1
  6
CONTINUOUS
 62
     2
100
AcDbCircle
 10
-107.048913
 20
188.492644
 30
0.0
 40
3.847056274847712
210
0.0
220
0.0
230
-1.0
  0
CIRCLE
  5
C0
330
1F
100
AcDbEntity
  8
1
  6
CONTINUOUS
 62
     2
100
AcDbCircle
 10
-107.048913
 20
188.492644
 30
0.0
 40
2.149999999999999
210
0.0
220
0.0
230
-1.0
  0
CIRCLE
  5
C1
330
1F
100
AcDbEntity
  8
1
  6
CONTINUOUS
 62
     2
100
AcDbCircle
 10
107.048913
 20
188.492644
 30
0.0
 40
5.149137802864843
  0
CIRCLE
  5
C2
330
1F
100
AcDbEntity
  8
1
  6
CONTINUOUS
 62
     2
100
AcDbCircle
 10
50.424668
 20
168.286385
 30
0.0
 40
5.25
  0
ARC
  5
C3
330
1F
100
AcDbEntity
  8
1
  6
CONTINUOUS
 62
     2
100
AcDbCircle
 10
-86.924668
 20
181.786385
 30
0.0
 40
48.5
210
0.0
220
0.0
230
-1.0
100
AcDbArc
 50
2.363383
 51
88.81856
  0
ARC
  5
C4
330
1F
100
AcDbEntity
  8
1
  6
CONTINUOUS
 62
     2
100
AcDbCircle
 10
-86.924668
 20
181.786385
 30
0.0
 40
48.5
210
0.0
220
0.0
230
-1.0
100
AcDbArc
 50
91.18144
 51
268.81856
  0
ARC
  5
C5
330
1F
100
AcDbEntity
  8
1
  6
CONTINUOUS
 62
     2
100
AcDbCircle
 10
-177.788993
 20
194.843863
 30
0.0
 40
1.7
210
0.0
220
0.0
230
-1.0
100
AcDbArc
 50
315.0
 51
0.0
  0
ARC
  5
C6
330
1F
100
AcDbEntity
  8
1
  6
CONTINUOUS
 62
     2
100
AcDbCircle
 10
-177.788993
 20
182.141424
 30
0.0
 40
1.7
210
0.0
220
0.0
230
-1.0
100
AcDbArc
 50
0.0
 51
45.0
  0
CIRCLE
  5
C7
330
1F
100
AcDbEntity
  8
256
  6
CONTINUOUS
 62
     3
100
AcDbCircle
 10
181.579
 20
53.040305
 30
0.0
 40
1.78392
  0
CIRCLE
  5
C8
330
1F
100
AcDbEntity
  8
256
  6
CONTINUOUS
 62
     3
100
AcDbCircle
 10
84.709666
 20
61.202391
 30
0.0
 40
0.197989
  0
CIRCLE
  5
C9
330
1F
100
AcDbEntity
  8
256
  6
CONTINUOUS
 62
     3
100
AcDbCircle
 10
181.579
 20
53.040305
 30
0.0
 40
3.53955
  0
CIRCLE
  5
CA
330
1F
100
AcDbEntity
  8
1
  6
CONTINUOUS
 62
   172
100
AcDbCircle
 10
43.131389
 20
83.727422
 30
0.0
 40
3.557752937088634
  0
MTEXT
  5
CB
330
1F
100
AcDbEntity
  8
1
  6
CONTINUOUS
 62
     3
100
AcDbMText
 10
31.758424
 20
256.736366
 30
0.0
 40
3.5
 41
0.0
 71
     7
 72
     5
  1
\W00.700;Antes sin salientes / 27/10/2015 / C. Alvarez 
  7
DEFAULT
1001
ACAD
1000
MTEXTBEGIN
1070
    73
1070
     2
1070
    44
1040
0.903614
1000
MTEXTEND
1000
ACAD_MTEXT_DEFINED_HEIGHT_BEGIN
1070
    46
1040
0.2
1000
ACAD_MTEXT_DEFINED_HEIGHT_END
  0
LEADER
  5
D0
330
1F
100
AcDbEntity
  8
1
  6
CONTINUOUS
 62
     3
100
AcDbLeader
  3
STANDARD
 73
     2
 76
     3
 10
107.023608
 20
188.504016
 30
0.0
 10
147.564368
 20
242.581997
 30
0.0
 10
142.564368
 20
242.581997
 30
0.0
340
D2
212
142.5643680890401
222
242.5819969177246
232
0.0
1001
ACAD
1000
DSTYLE
1002
{
1070
     5
1000

1070
   341
1005
0
1070
    41
1040
3.5
1002
}
  0
INSERT
  5
D2
102
{ACAD_REACTORS
330
D0
102
}
330
1F
100
AcDbEntity
  8
1
  6
CONTINUOUS
 62
     3
100
AcDbBlockReference
  2
LABLE3D_1
 10
0.0
 20
0.0
 30
0.0
  0
MTEXT
  5
D5
330
1F
100
AcDbEntity
  8
256
  6
CONTINUOUS
 62
     3
100
AcDbMText
 10
83.757687
 20
252.893659
 30
0.0
 40
2.0
 41
0.0
 71
     7
 72
     5
  1
\W00.772;MODIFICACIONES / 
  7
DEFAULT
1001
ACAD
1000
MTEXTBEGIN
1070
    73
1070
     2
1070
    44
1040
0.903614
1000
MTEXTEND
1000
ACAD_MTEXT_DEFINED_HEIGHT_BEGIN
1070
    46
1040
0.2
1000
ACAD_MTEXT_DEFINED_HEIGHT_END
  0
MTEXT
  5
D6
330
1F
100
AcDbEntity
  8
256
  6
CONTINUOUS
 62
     3
100
AcDbMText
 10
106.834347
 20
252.893659
 30
0.0
 40
2.0
 41
0.0
 71
     7
 72
     5
  1
\W00.817;\Q20.000000;MODIFICATIONS\Q0; 
  7
DEFAULT
1001
ACAD
1000
MTEXTBEGIN
1070
    73
1070
     2
1070
    44
1040
0.903614
1000
MTEXTEND
1000
ACAD_MTEXT_DEFINED_HEIGHT_BEGIN
1070
    46
1040
0.2
1000
ACAD_MTEXT_DEFINED_HEIGHT_END
  0
MTEXT
  5
D7
330
1F
100
AcDbEntity
  8
256
  6
CONTINUOUS
 62
     3
100
AcDbMText
 10
58.7503
 20
45.497799
 30
0.0
 40
1.4
 41
0.0
 71
     7
 72
     5
  1
\W00.695;\Q20.000000;It cancels and substitutes the precedents date\Q0; 
  7
DEFAULT
1001
ACAD
1000
MTEXTBEGIN
1070
    73
1070
     2
1070
    44
1040
0.903614
1000
MTEXTEND
1000
ACAD_MTEXT_DEFINED_HEIGHT_BEGIN
1070
    46
1040
0.2
1000
ACAD_MTEXT_DEFINED_HEIGHT_END
  0
MTEXT
  5
D8
330
1F
100
AcDbEntity
  8
256
  6
CONTINUOUS
 62
     3
100
AcDbMText
 10
99.377174
 20
58.908527
 30
0.0
 40
1.7
 41
0.0
 71
     7
 72
     5
  1
\W00.797;50     0,25 
  7
DEFAULT
1001
ACAD
1000
MTEXTBEGIN
1070
    73
1070
     2
1070
    44
1040
0.903614
1000
MTEXTEND
1000
ACAD_MTEXT_DEFINED_HEIGHT_BEGIN
1070
    46
1040
0.2
1000
ACAD_MTEXT_DEFINED_HEIGHT_END
  0
MTEXT
  5
D9
330
1F
100
AcDbEntity
  8
256
  6
CONTINUOUS
 62
     3
100
AcDbMText
 10
116.17134
 20
62.54831
 30
0.0
 40
1.5
 41
0.0
 71
     7
 72
     5
  1
\W00.794;\Q20.000000;DEMOULD\Q0; 
  7
DEFAULT
1001
ACAD
1000
MTEXTBEGIN
1070
    73
1070
     2
1070
    44
1040
0.903614
1000
MTEXTEND
1000
ACAD_MTEXT_DEFINED_HEIGHT_BEGIN
1070
    46
1040
0.2
1000
ACAD_MTEXT_DEFINED_HEIGHT_END
  0
MTEXT
  5
DA
330
1F
100
AcDbEntity
  8
256
  6
CONTINUOUS
 62
     3
100
AcDbMText
 10
15.71949
 20
69.268308
 30
0.0
 40
1.5
 41
0.0
 71
     7
 72
     5
  1
\W00.777;ACABADO / TRATAMIENTO 
  7
DEFAULT
1001
ACAD
1000
MTEXTBEGIN
1070
    73
1070
     2
1070
    44
1040
0.903614
1000
MTEXTEND
1000
ACAD_MTEXT_DEFINED_HEIGHT_BEGIN
1070
    46
1040
0.2
1000
ACAD_MTEXT_DEFINED_HEIGHT_END
  0
MTEXT
  5
DB
330
1F
100
AcDbEntity
  8
256
  6
CONTINUOUS
 62
     3
100
AcDbMText
 10
21.368239
 20
92.056025
 30
0.0
 40
1.7
 41
0.0
 71
     7
 72
     5
  1
\W00.733;PROPIEDAD DE J. FELIU DE LA PENYA, S.L. NO SERA REPRODUCIDO TOTAL O PARCIALMENTE\P NI ENTREGADO A TERCEROS SIN AUTORIZACION ESCRITA\P 
  7
DEFAULT
1001
ACAD
1000
MTEXTBEGIN
1070
    44
1040
0.903614
1000
MTEXTEND
1000
ACAD_MTEXT_DEFINED_HEIGHT_BEGIN
1070
    46
1040
0.2
1000
ACAD_MTEXT_DEFINED_HEIGHT_END
  0
MTEXT
  5
DC
330
1F
100
AcDbEntity
  8
256
  6
CONTINUOUS
 62
     3
100
AcDbMText
 10
115.94083
 20
64.848826
 30
0.0
 40
1.5
 41
0.0
 71
     7
 72
     5
  1
\W00.790;DESMOLDEO 
  7
DEFAULT
1001
ACAD
1000
MTEXTBEGIN
1070
    73
1070
     2
1070
    44
1040
0.903614
1000
MTEXTEND
1000
ACAD_MTEXT_DEFINED_HEIGHT_BEGIN
1070
    46
1040
0.2
1000
ACAD_MTEXT_DEFINED_HEIGHT_END
  0
MTEXT
  5
DD
330
1F
100
AcDbEntity
  8
256
  6
CONTINUOUS
 62
     3
100
AcDbMText
 10
116.17134
 20
53.861182
 30
0.0
 40
1.5
 41
0.0
 71
     7
 72
     5
  1
\W00.784;ESPESOR 
  7
DEFAULT
1001
ACAD
1000
MTEXTBEGIN
1070
    73
1070
     2
1070
    44
1040
0.903614
1000
MTEXTEND
1000
ACAD_MTEXT_DEFINED_HEIGHT_BEGIN
1070
    46
1040
0.2
1000
ACAD_MTEXT_DEFINED_HEIGHT_END
  0
MTEXT
  5
DE
330
1F
100
AcDbEntity
  8
256
  6
CONTINUOUS
 62
     3
100
AcDbMText
 10
95.617997
 20
64.087216
 30
0.0
 40
1.5
 41
0.0
 71
     7
 72
     5
  1
\W00.701;- 
  7
BLOCKFONT
1001
ACAD
1000
MTEXTBEGIN
1070
    73
1070
     2
1070
    44
1040
0.903614
1000
MTEXTEND
1000
ACAD_MTEXT_DEFINED_HEIGHT_BEGIN
1070
    46
1040
0.2
1000
ACAD_MTEXT_DEFINED_HEIGHT_END
  0
MTEXT
  5
E0
330
1F
100
AcDbEntity
  8
256
  6
CONTINUOUS
 62
     3
100
AcDbMText
 10
92.000916
 20
68.556001
 30
0.0
 40
1.7
 41
0.0
 71
     7
 72
     5
  1
\W00.744;0     20     0,1 
  7
DEFAULT
1001
ACAD
1000
MTEXTBEGIN
1070
    73
1070
     2
1070
    44
1040
0.903614
1000
MTEXTEND
1000
ACAD_MTEXT_DEFINED_HEIGHT_BEGIN
1070
    46
1040
0.2
1000
ACAD_MTEXT_DEFINED_HEIGHT_END
  0
MTEXT
  5
E1
330
1F
100
AcDbEntity
  8
256
  6
CONTINUOUS
 62
     3
100
AcDbMText
 10
24.377317
 20
29.687513
 30
0.0
 40
1.5
 41
0.0
 71
     8
 72
     5
  1
\W00.834;\Q20.000000;DATE\Q0; 
  7
DEFAULT
1001
ACAD
1000
MTEXTBEGIN
1070
    73
1070
     2
1070
    44
1040
0.903614
1000
MTEXTEND
1000
ACAD_MTEXT_DEFINED_HEIGHT_BEGIN
1070
    46
1040
0.2
1000
ACAD_MTEXT_DEFINED_HEIGHT_END
  0
MTEXT
  5
E2
330
1F
100
AcDbEntity
  8
255
  6
CONTINUOUS
 62
     3
100
AcDbMText
 10
38.54969
 20
29.669488
 30
0.0
 40
3.0
 41
0.0
 71
     7
 72
     5
  1
\W00.774;09/10/15 
  7
DEFAULT
1001
ACAD
1000
MTEXTBEGIN
1070
    73
1070
     2
1070
    44
1040
0.903614
1000
MTEXTEND
1000
ACAD_MTEXT_DEFINED_HEIGHT_BEGIN
1070
    46
1040
0.2
1000
ACAD_MTEXT_DEFINED_HEIGHT_END
  0
MTEXT
  5
E4
330
1F
100
AcDbEntity
  8
256
  6
CONTINUOUS
 62
     3
100
AcDbMText
 10
104.901997
 20
63.288016
 30
0.0
 40
1.5
 41
0.0
 71
     7
 72
     5
  1
\W00.701;- 
  7
BLOCKFONT
1001
ACAD
1000
MTEXTBEGIN
1070
    73
1070
     2
1070
    44
1040
0.903614
1000
MTEXTEND
1000
ACAD_MTEXT_DEFINED_HEIGHT_BEGIN
1070
    46
1040
0.2
1000
ACAD_MTEXT_DEFINED_HEIGHT_END
  0
MTEXT
  5
E5
330
1F
100
AcDbEntity
  8
256
  6
CONTINUOUS
 62
     3
100
AcDbMText
 10
171.16911
 20
40.224858
 30
0.0
 40
1.5
 41
0.0
 71
     7
 72
     5
  1
\W00.811;\Q20.000000;SUBSTITUTES\Q0; 
  7
DEFAULT
1001
ACAD
1000
MTEXTBEGIN
1070
    73
1070
     2
1070
    44
1040
0.903614
1000
MTEXTEND
1000
ACAD_MTEXT_DEFINED_HEIGHT_BEGIN
1070
    46
1040
0.2
1000
ACAD_MTEXT_DEFINED_HEIGHT_END
  0
MTEXT
  5
E6
330
1F
100
AcDbEntity
  8
256
  6
CONTINUOUS
 62
     3
100
AcDbMText
 10
156.16847
 20
25.078575
 30
0.0
 40
1.5
 41
0.0
 71
     7
 72
     5
  1
\W00.783;CODIGO/ 
  7
DEFAULT
1001
ACAD
1000
MTEXTBEGIN
1070
    73
1070
     2
1070
    44
1040
0.903614
1000
MTEXTEND
1000
ACAD_MTEXT_DEFINED_HEIGHT_BEGIN
1070
    46
1040
0.2
1000
ACAD_MTEXT_DEFINED_HEIGHT_END
  0
MTEXT
  5
E7
330
1F
100
AcDbEntity
  8
256
  6
CONTINUOUS
 62
     3
100
AcDbMText
 10
104.901997
 20
64.558016
 30
0.0
 40
1.5
 41
0.0
 71
     7
 72
     5
  1
\W00.701;+ 
  7
BLOCKFONT
1001
ACAD
1000
MTEXTBEGIN
1070
    73
1070
     2
1070
    44
1040
0.903614
1000
MTEXTEND
1000
ACAD_MTEXT_DEFINED_HEIGHT_BEGIN
1070
    46
1040
0.2
1000
ACAD_MTEXT_DEFINED_HEIGHT_END
  0
MTEXT
  5
E8
330
1F
100
AcDbEntity
  8
256
  6
CONTINUOUS
 62
     3
100
AcDbMText
 10
90.660916
 20
63.876001
 30
0.0
 40
1.7
 41
0.0
 71
     7
 72
     5
  1
\W00.758;20     50     0,15 
  7
DEFAULT
1001
ACAD
1000
MTEXTBEGIN
1070
    73
1070
     2
1070
    44
1040
0.903614
1000
MTEXTEND
1000
ACAD_MTEXT_DEFINED_HEIGHT_BEGIN
1070
    46
1040
0.2
1000
ACAD_MTEXT_DEFINED_HEIGHT_END
  0
MTEXT
  5
E9
330
1F
100
AcDbEntity
  8
256
  6
CONTINUOUS
 62
     3
100
AcDbMText
 10
143.400865
 20
51.338002
 30
0.0
 40
3.0
 41
0.0
 71
     7
 72
     5
  1
\W01.000; 
  7
DEFAULT
1001
ACAD
1000
MTEXTBEGIN
1070
    73
1070
     2
1070
    44
1040
0.903614
1000
MTEXTEND
1000
ACAD_MTEXT_DEFINED_HEIGHT_BEGIN
1070
    46
1040
0.2
1000
ACAD_MTEXT_DEFINED_HEIGHT_END
  0
MTEXT
  5
EA
330
1F
100
AcDbEntity
  8
256
  6
CONTINUOUS
 62
     3
100
AcDbMText
 10
116.17134
 20
57.065014
 30
0.0
 40
1.5
 41
0.0
 71
     7
 72
     5
  1
\W00.818;\Q20.000000;RADIUS\Q0; 
  7
DEFAULT
1001
ACAD
1000
MTEXTBEGIN
1070
    73
1070
     2
1070
    44
1040
0.903614
1000
MTEXTEND
1000
ACAD_MTEXT_DEFINED_HEIGHT_BEGIN
1070
    46
1040
0.2
1000
ACAD_MTEXT_DEFINED_HEIGHT_END
  0
MTEXT
  5
EB
330
1F
100
AcDbEntity
  8
256
  6
CONTINUOUS
 62
     3
100
AcDbMText
 10
59.18386
 20
55.191929
 30
0.0
 40
1.5
 41
0.0
 71
     7
 72
     5
  1
\W00.768;DUREZA/ 
  7
DEFAULT
1001
ACAD
1000
MTEXTBEGIN
1070
    73
1070
     2
1070
    44
1040
0.903614
1000
MTEXTEND
1000
ACAD_MTEXT_DEFINED_HEIGHT_BEGIN
1070
    46
1040
0.2
1000
ACAD_MTEXT_DEFINED_HEIGHT_END
  0
MTEXT
  5
EC
330
1F
100
AcDbEntity
  8
256
  6
CONTINUOUS
 62
     3
100
AcDbMText
 10
24.65774
 20
45.203784
 30
0.0
 40
1.5
 41
0.0
 71
     8
 72
     5
  1
\W00.793;\Q20.000000;PROJECTED\Q0; 
  7
DEFAULT
1001
ACAD
1000
MTEXTBEGIN
1070
    73
1070
     2
1070
    44
1040
0.903614
1000
MTEXTEND
1000
ACAD_MTEXT_DEFINED_HEIGHT_BEGIN
1070
    46
1040
0.2
1000
ACAD_MTEXT_DEFINED_HEIGHT_END
  0
MTEXT
  5
ED
330
1F
100
AcDbEntity
  8
255
  6
CONTINUOUS
 62
     2
100
AcDbMText
 10
89.521772
 20
21.994884
 30
0.0
 40
6.0
 41
0.0
 71
     7
 72
     5
  1
\W00.785;TAPA LISA 
  7
DEFAULT
1001
ACAD
1000
MTEXTBEGIN
1070
    73
1070
     2
1070
    44
1040
0.903614
1000
MTEXTEND
1000
ACAD_MTEXT_DEFINED_HEIGHT_BEGIN
1070
    46
1040
0.2
1000
ACAD_MTEXT_DEFINED_HEIGHT_END
  0
MTEXT
  5
EE
330
1F
100
AcDbEntity
  8
256
  6
CONTINUOUS
 62
     3
100
AcDbMText
 10
156.65916
 20
32.604203
 30
0.0
 40
1.5
 41
0.0
 71
     7
 72
     5
  1
\W00.768;SUSTITUIDO POR/ 
  7
DEFAULT
1001
ACAD
1000
MTEXTBEGIN
1070
    73
1070
     2
1070
    44
1040
0.903614
1000
MTEXTEND
1000
ACAD_MTEXT_DEFINED_HEIGHT_BEGIN
1070
    46
1040
0.2
1000
ACAD_MTEXT_DEFINED_HEIGHT_END
  0
MTEXT
  5
EF
330
1F
100
AcDbEntity
  8
256
  6
CONTINUOUS
 62
     3
100
AcDbMText
 10
61.08378
 20
62.058932
 30
0.0
 40
1.7
 41
0.0
 71
     7
 72
     5
  1
\W00.732;ejes/axis\P 
  7
DEFAULT
1001
ACAD
1000
MTEXTBEGIN
1070
    44
1040
0.903614
1000
MTEXTEND
1000
ACAD_MTEXT_DEFINED_HEIGHT_BEGIN
1070
    46
1040
0.2
1000
ACAD_MTEXT_DEFINED_HEIGHT_END
  0
MTEXT
  5
F0
330
1F
100
AcDbEntity
  8
256
  6
CONTINUOUS
 62
     3
100
AcDbMText
 10
83.555666
 20
68.556001
 30
0.0
 40
1.7
 41
0.0
 71
     7
 72
     5
  1
\W01.006;11 
  7
DEFAULT
1001
ACAD
1000
MTEXTBEGIN
1070
    73
1070
     2
1070
    44
1040
0.903614
1000
MTEXTEND
1000
ACAD_MTEXT_DEFINED_HEIGHT_BEGIN
1070
    46
1040
0.2
1000
ACAD_MTEXT_DEFINED_HEIGHT_END
  0
MTEXT
  5
F1
330
1F
100
AcDbEntity
  8
256
  6
CONTINUOUS
 62
     3
100
AcDbMText
 10
25.140186
 20
48.128729
 30
0.0
 40
1.5
 41
0.0
 71
     8
 72
     5
  1
\W00.807;PROYECTADO 
  7
DEFAULT
1001
ACAD
1000
MTEXTBEGIN
1070
    73
1070
     2
1070
    44
1040
0.903614
1000
MTEXTEND
1000
ACAD_MTEXT_DEFINED_HEIGHT_BEGIN
1070
    46
1040
0.2
1000
ACAD_MTEXT_DEFINED_HEIGHT_END
  0
MTEXT
  5
F2
330
1F
100
AcDbEntity
  8
256
  6
CONTINUOUS
 62
     3
100
AcDbMText
 10
104.901997
 20
59.718016
 30
0.0
 40
1.5
 41
0.0
 71
     7
 72
     5
  1
\W00.701;+ 
  7
BLOCKFONT
1001
ACAD
1000
MTEXTBEGIN
1070
    73
1070
     2
1070
    44
1040
0.903614
1000
MTEXTEND
1000
ACAD_MTEXT_DEFINED_HEIGHT_BEGIN
1070
    46
1040
0.2
1000
ACAD_MTEXT_DEFINED_HEIGHT_END
  0
MTEXT
  5
F3
330
1F
100
AcDbEntity
  8
256
  6
CONTINUOUS
 62
     3
100
AcDbMText
 10
80.914666
 20
68.596001
 30
0.0
 40
1.7
 41
0.0
 71
     7
 72
     5
  1
\W00.930;H 
  7
DEFAULT
1001
ACAD
1000
MTEXTBEGIN
1070
    73
1070
     2
1070
    44
1040
0.903614
1000
MTEXTEND
1000
ACAD_MTEXT_DEFINED_HEIGHT_BEGIN
1070
    46
1040
0.2
1000
ACAD_MTEXT_DEFINED_HEIGHT_END
  0
MTEXT
  5
F4
330
1F
100
AcDbEntity
  8
256
  6
CONTINUOUS
 62
     3
100
AcDbMText
 10
66.246514
 20
80.076596
 30
0.0
 40
3.0
 41
0.0
 71
     7
 72
     5
  1
\W01.000; 
  7
DEFAULT
1001
ACAD
1000
MTEXTBEGIN
1070
    73
1070
     2
1070
    44
1040
0.903614
1000
MTEXTEND
1000
ACAD_MTEXT_DEFINED_HEIGHT_BEGIN
1070
    46
1040
0.2
1000
ACAD_MTEXT_DEFINED_HEIGHT_END
  0
MTEXT
  5
F5
330
1F
100
AcDbEntity
  8
256
  6
CONTINUOUS
 62
     3
100
AcDbMText
 10
37.271915
 20
25.693186
 30
0.0
 40
1.2
 41
0.0
 71
     7
 72
     5
  1
\W00.815;MODIFIC. 
  7
DEFAULT
1001
ACAD
1000
MTEXTBEGIN
1070
    73
1070
     2
1070
    44
1040
0.903614
1000
MTEXTEND
1000
ACAD_MTEXT_DEFINED_HEIGHT_BEGIN
1070
    46
1040
0.2
1000
ACAD_MTEXT_DEFINED_HEIGHT_END
  0
MTEXT
  5
F6
330
1F
100
AcDbEntity
  8
256
  6
CONTINUOUS
 62
     3
100
AcDbMText
 10
83.514666
 20
63.916001
 30
0.0
 40
1.7
 41
0.0
 71
     7
 72
     5
  1
\W01.006;11 
  7
DEFAULT
1001
ACAD
1000
MTEXTBEGIN
1070
    73
1070
     2
1070
    44
1040
0.903614
1000
MTEXTEND
1000
ACAD_MTEXT_DEFINED_HEIGHT_BEGIN
1070
    46
1040
0.2
1000
ACAD_MTEXT_DEFINED_HEIGHT_END
  0
MTEXT
  5
F7
330
1F
100
AcDbEntity
  8
256
  6
CONTINUOUS
 62
     3
100
AcDbMText
 10
69.47946
 20
55.126635
 30
0.0
 40
1.5
 41
0.0
 71
     7
 72
     5
  1
\W00.795;\Q20.000000;HARDNESS\Q0; 
  7
DEFAULT
1001
ACAD
1000
MTEXTBEGIN
1070
    73
1070
     2
1070
    44
1040
0.903614
1000
MTEXTEND
1000
ACAD_MTEXT_DEFINED_HEIGHT_BEGIN
1070
    46
1040
0.2
1000
ACAD_MTEXT_DEFINED_HEIGHT_END
  0
MTEXT
  5
F8
330
1F
100
AcDbEntity
  8
255
  6
CONTINUOUS
 62
     2
100
AcDbMText
 10
21.342694
 20
12.93072
 30
0.0
 40
6.0
 41
0.0
 71
     7
 72
     5
  1
\W00.928;1:1 
  7
DEFAULT
1001
ACAD
1000
MTEXTBEGIN
1070
    73
1070
     2
1070
    44
1040
0.903614
1000
MTEXTEND
1000
ACAD_MTEXT_DEFINED_HEIGHT_BEGIN
1070
    46
1040
0.2
1000
ACAD_MTEXT_DEFINED_HEIGHT_END
  0
MTEXT
  5
F9
330
1F
100
AcDbEntity
  8
256
  6
CONTINUOUS
 62
     3
100
AcDbMText
 10
126.29453
 20
45.38736
 30
0.0
 40
1.4
 41
0.0
 71
     7
 72
     5
  1
\W00.746;\Q20.000000;signature\Q0; 
  7
DEFAULT
1001
ACAD
1000
MTEXTBEGIN
1070
    73
1070
     2
1070
    44
1040
0.903614
1000
MTEXTEND
1000
ACAD_MTEXT_DEFINED_HEIGHT_BEGIN
1070
    46
1040
0.2
1000
ACAD_MTEXT_DEFINED_HEIGHT_END
  0
MTEXT
  5
FA
330
1F
100
AcDbEntity
  8
256
  6
CONTINUOUS
 62
     3
100
AcDbMText
 10
116.17134
 20
59.316586
 30
0.0
 40
1.5
 41
0.0
 71
     7
 72
     5
  1
\W00.819;RADIOS 
  7
DEFAULT
1001
ACAD
1000
MTEXTBEGIN
1070
    73
1070
     2
1070
    44
1040
0.903614
1000
MTEXTEND
1000
ACAD_MTEXT_DEFINED_HEIGHT_BEGIN
1070
    46
1040
0.2
1000
ACAD_MTEXT_DEFINED_HEIGHT_END
  0
MTEXT
  5
FB
330
1F
100
AcDbEntity
  8
256
  6
CONTINUOUS
 62
     3
100
AcDbMText
 10
59.1176
 20
48.306201
 30
0.0
 40
1.4
 41
0.0
 71
     7
 72
     5
  1
\W00.688;anula y sustituye a los precedentes fecha 
  7
DEFAULT
1001
ACAD
1000
MTEXTBEGIN
1070
    73
1070
     2
1070
    44
1040
0.903614
1000
MTEXTEND
1000
ACAD_MTEXT_DEFINED_HEIGHT_BEGIN
1070
    46
1040
0.2
1000
ACAD_MTEXT_DEFINED_HEIGHT_END
  0
MTEXT
  5
FC
330
1F
100
AcDbEntity
  8
256
  6
CONTINUOUS
 62
     3
100
AcDbMText
 10
104.901997
 20
68.028016
 30
0.0
 40
1.5
 41
0.0
 71
     7
 72
     5
  1
\W00.701;- 
  7
BLOCKFONT
1001
ACAD
1000
MTEXTBEGIN
1070
    73
1070
     2
1070
    44
1040
0.903614
1000
MTEXTEND
1000
ACAD_MTEXT_DEFINED_HEIGHT_BEGIN
1070
    46
1040
0.2
1000
ACAD_MTEXT_DEFINED_HEIGHT_END
  0
MTEXT
  5
FD
330
1F
100
AcDbEntity
  8
256
  6
CONTINUOUS
 62
     3
100
AcDbMText
 10
95.617997
 20
68.747216
 30
0.0
 40
1.5
 41
0.0
 71
     7
 72
     5
  1
\W00.701;- 
  7
BLOCKFONT
1001
ACAD
1000
MTEXTBEGIN
1070
    73
1070
     2
1070
    44
1040
0.903614
1000
MTEXTEND
1000
ACAD_MTEXT_DEFINED_HEIGHT_BEGIN
1070
    46
1040
0.2
1000
ACAD_MTEXT_DEFINED_HEIGHT_END
  0
MTEXT
  5
FE
330
1F
100
AcDbEntity
  8
256
  6
CONTINUOUS
 62
     3
100
AcDbMText
 10
174.51877
 20
32.651717
 30
0.0
 40
1.5
 41
0.0
 71
     7
 72
     5
  1
\W00.778;\Q20.000000;SUBSTITUTED BY\Q0; 
  7
DEFAULT
1001
ACAD
1000
MTEXTBEGIN
1070
    73
1070
     2
1070
    44
1040
0.903614
1000
MTEXTEND
1000
ACAD_MTEXT_DEFINED_HEIGHT_BEGIN
1070
    46
1040
0.2
1000
ACAD_MTEXT_DEFINED_HEIGHT_END
  0
MTEXT
  5
FF
330
1F
100
AcDbEntity
  8
256
  6
CONTINUOUS
 62
     3
100
AcDbMText
 10
35.278503
 20
60.490742
 30
0.0
 40
3.0
 41
0.0
 71
     7
 72
     5
  1
\W01.000; 
  7
DEFAULT
1001
ACAD
1000
MTEXTBEGIN
1070
    73
1070
     2
1070
    44
1040
0.903614
1000
MTEXTEND
1000
ACAD_MTEXT_DEFINED_HEIGHT_BEGIN
1070
    46
1040
0.2
1000
ACAD_MTEXT_DEFINED_HEIGHT_END
  0
MTEXT
  5
100
330
1F
100
AcDbEntity
  8
256
  6
CONTINUOUS
 62
     3
100
AcDbMText
 10
95.382147
 20
69.798016
 30
0.0
 40
1.5
 41
0.0
 71
     7
 72
     5
  1
\W00.273;. 
  7
BLOCKFONT
1001
ACAD
1000
MTEXTBEGIN
1070
    73
1070
     2
1070
    44
1040
0.903614
1000
MTEXTEND
1000
ACAD_MTEXT_DEFINED_HEIGHT_BEGIN
1070
    46
1040
0.2
1000
ACAD_MTEXT_DEFINED_HEIGHT_END
  0
MTEXT
  5
101
330
1F
100
AcDbEntity
  8
256
  6
CONTINUOUS
 62
     3
100
AcDbMText
 10
15.6298
 20
66.936464
 30
0.0
 40
1.5
 41
0.0
 71
     7
 72
     5
  1
\W00.757;\Q20.000000;FINISH / TREATMENT\Q0; 
  7
DEFAULT
1001
ACAD
1000
MTEXTBEGIN
1070
    73
1070
     2
1070
    44
1040
0.903614
1000
MTEXTEND
1000
ACAD_MTEXT_DEFINED_HEIGHT_BEGIN
1070
    46
1040
0.2
1000
ACAD_MTEXT_DEFINED_HEIGHT_END
  0
MTEXT
  5
102
330
1F
100
AcDbEntity
  8
255
  6
CONTINUOUS
 62
     3
100
AcDbMText
 10
40.04089
 20
52.115912
 30
0.0
 40
3.0
 41
0.0
 71
     7
 72
     5
  1
\W00.727;C. Alvarez 
  7
DEFAULT
1001
ACAD
1000
MTEXTBEGIN
1070
    73
1070
     2
1070
    44
1040
0.903614
1000
MTEXTEND
1000
ACAD_MTEXT_DEFINED_HEIGHT_BEGIN
1070
    46
1040
0.2
1000
ACAD_MTEXT_DEFINED_HEIGHT_END
  0
MTEXT
  5
103
330
1F
100
AcDbEntity
  8
256
  6
CONTINUOUS
 62
     3
100
AcDbMText
 10
25.209972
 20
37.729159
 30
0.0
 40
3.0
 41
0.0
 71
     8
 72
     5
  1
\W00.693;V.B.  
  7
DEFAULT
1001
ACAD
1000
MTEXTBEGIN
1070
    73
1070
     2
1070
    44
1040
0.903614
1000
MTEXTEND
1000
ACAD_MTEXT_DEFINED_HEIGHT_BEGIN
1070
    46
1040
0.2
1000
ACAD_MTEXT_DEFINED_HEIGHT_END
  0
MTEXT
  5
104
330
1F
100
AcDbEntity
  8
255
  6
CONTINUOUS
 62
     3
100
AcDbMText
 10
39.88392
 20
45.444772
 30
0.0
 40
3.0
 41
0.0
 71
     7
 72
     5
  1
\W00.727;C. Alvarez 
  7
DEFAULT
1001
ACAD
1000
MTEXTBEGIN
1070
    73
1070
     2
1070
    44
1040
0.903614
1000
MTEXTEND
1000
ACAD_MTEXT_DEFINED_HEIGHT_BEGIN
1070
    46
1040
0.2
1000
ACAD_MTEXT_DEFINED_HEIGHT_END
  0
MTEXT
  5
105
330
1F
100
AcDbEntity
  8
256
  6
CONTINUOUS
 62
     3
100
AcDbMText
 10
104.901997
 20
58.448016
 30
0.0
 40
1.5
 41
0.0
 71
     7
 72
     5
  1
\W00.701;- 
  7
BLOCKFONT
1001
ACAD
1000
MTEXTBEGIN
1070
    73
1070
     2
1070
    44
1040
0.903614
1000
MTEXTEND
1000
ACAD_MTEXT_DEFINED_HEIGHT_BEGIN
1070
    46
1040
0.2
1000
ACAD_MTEXT_DEFINED_HEIGHT_END
  0
MTEXT
  5
106
330
1F
100
AcDbEntity
  8
256
  6
CONTINUOUS
 62
     3
100
AcDbMText
 10
23.600858
 20
52.763642
 30
0.0
 40
1.5
 41
0.0
 71
     8
 72
     5
  1
\W00.819;\Q20.000000;DRAWN\Q0; 
  7
DEFAULT
1001
ACAD
1000
MTEXTBEGIN
1070
    73
1070
     2
1070
    44
1040
0.903614
1000
MTEXTEND
1000
ACAD_MTEXT_DEFINED_HEIGHT_BEGIN
1070
    46
1040
0.2
1000
ACAD_MTEXT_DEFINED_HEIGHT_END
  0
MTEXT
  5
107
330
1F
100
AcDbEntity
  8
256
  6
CONTINUOUS
 62
     3
100
AcDbMText
 10
60.954666
 20
68.776001
 30
0.0
 40
1.7
 41
0.0
 71
     7
 72
     5
  1
\W00.735;agujeros/holes 
  7
DEFAULT
1001
ACAD
1000
MTEXTBEGIN
1070
    73
1070
     2
1070
    44
1040
0.903614
1000
MTEXTEND
1000
ACAD_MTEXT_DEFINED_HEIGHT_BEGIN
1070
    46
1040
0.2
1000
ACAD_MTEXT_DEFINED_HEIGHT_END
  0
MTEXT
  5
108
330
1F
100
AcDbEntity
  8
256
  6
CONTINUOUS
 62
     3
100
AcDbMText
 10
59.155
 20
40.400244
 30
0.0
 40
1.5
 41
0.0
 71
     7
 72
     5
  1
\W00.789;DENOMINACION/ 
  7
DEFAULT
1001
ACAD
1000
MTEXTBEGIN
1070
    73
1070
     2
1070
    44
1040
0.903614
1000
MTEXTEND
1000
ACAD_MTEXT_DEFINED_HEIGHT_BEGIN
1070
    46
1040
0.2
1000
ACAD_MTEXT_DEFINED_HEIGHT_END
  0
MTEXT
  5
109
330
1F
100
AcDbEntity
  8
256
  6
CONTINUOUS
 62
     3
100
AcDbMText
 10
28.356613
 20
77.001059
 30
0.0
 40
1.7
 41
0.0
 71
     8
 72
     5
  1
\W00.798;\Q20.000000;COLOUR\Q0; 
  7
DEFAULT
1001
ACAD
1000
MTEXTBEGIN
1070
    73
1070
     2
1070
    44
1040
0.903614
1000
MTEXTEND
1000
ACAD_MTEXT_DEFINED_HEIGHT_BEGIN
1070
    46
1040
0.2
1000
ACAD_MTEXT_DEFINED_HEIGHT_END
  0
MTEXT
  5
10A
330
1F
100
AcDbEntity
  8
256
  6
CONTINUOUS
 62
     3
100
AcDbMText
 10
95.382147
 20
65.138016
 30
0.0
 40
1.5
 41
0.0
 71
     7
 72
     5
  1
\W00.273;. 
  7
BLOCKFONT
1001
ACAD
1000
MTEXTBEGIN
1070
    73
1070
     2
1070
    44
1040
0.903614
1000
MTEXTEND
1000
ACAD_MTEXT_DEFINED_HEIGHT_BEGIN
1070
    46
1040
0.2
1000
ACAD_MTEXT_DEFINED_HEIGHT_END
  0
MTEXT
  5
10B
330
1F
100
AcDbEntity
  8
256
  6
CONTINUOUS
 62
     3
100
AcDbMText
 10
80.914666
 20
63.906001
 30
0.0
 40
1.7
 41
0.0
 71
     7
 72
     5
  1
\W00.919;h 
  7
DEFAULT
1001
ACAD
1000
MTEXTBEGIN
1070
    73
1070
     2
1070
    44
1040
0.903614
1000
MTEXTEND
1000
ACAD_MTEXT_DEFINED_HEIGHT_BEGIN
1070
    46
1040
0.2
1000
ACAD_MTEXT_DEFINED_HEIGHT_END
  0
MTEXT
  5
10C
330
1F
100
AcDbEntity
  8
256
  6
CONTINUOUS
 62
     3
100
AcDbMText
 10
144.80185
 20
56.431485
 30
0.0
 40
3.5
 41
0.0
 71
     7
 72
     5
  1
\W01.000; 
  7
DEFAULT
1001
ACAD
1000
MTEXTBEGIN
1070
    73
1070
     2
1070
    44
1040
0.903614
1000
MTEXTEND
1000
ACAD_MTEXT_DEFINED_HEIGHT_BEGIN
1070
    46
1040
0.2
1000
ACAD_MTEXT_DEFINED_HEIGHT_END
  0
MTEXT
  5
10D
330
1F
100
AcDbEntity
  8
256
  6
CONTINUOUS
 62
     3
100
AcDbMText
 10
104.901997
 20
69.298016
 30
0.0
 40
1.5
 41
0.0
 71
     7
 72
     5
  1
\W00.701;+ 
  7
BLOCKFONT
1001
ACAD
1000
MTEXTBEGIN
1070
    73
1070
     2
1070
    44
1040
0.903614
1000
MTEXTEND
1000
ACAD_MTEXT_DEFINED_HEIGHT_BEGIN
1070
    46
1040
0.2
1000
ACAD_MTEXT_DEFINED_HEIGHT_END
  0
MTEXT
  5
10E
330
1F
100
AcDbEntity
  8
256
  6
CONTINUOUS
 62
     3
100
AcDbMText
 10
36.379012
 20
72.649
 30
0.0
 40
2.5
 41
0.0
 71
     7
 72
     5
  1
\W01.000; 
  7
DEFAULT
1001
ACAD
1000
MTEXTBEGIN
1070
    73
1070
     2
1070
    44
1040
0.903614
1000
MTEXTEND
1000
ACAD_MTEXT_DEFINED_HEIGHT_BEGIN
1070
    46
1040
0.2
1000
ACAD_MTEXT_DEFINED_HEIGHT_END
  0
MTEXT
  5
10F
330
1F
100
AcDbEntity
  8
256
  6
CONTINUOUS
 62
     3
100
AcDbMText
 10
19.32129
 20
77.090745
 30
0.0
 40
1.7
 41
0.0
 71
     8
 72
     5
  1
\W00.776;COLOR/ 
  7
DEFAULT
1001
ACAD
1000
MTEXTBEGIN
1070
    73
1070
     2
1070
    44
1040
0.903614
1000
MTEXTEND
1000
ACAD_MTEXT_DEFINED_HEIGHT_BEGIN
1070
    46
1040
0.2
1000
ACAD_MTEXT_DEFINED_HEIGHT_END
  0
MTEXT
  5
110
330
1F
100
AcDbEntity
  8
256
  6
CONTINUOUS
 62
     3
100
AcDbMText
 10
156.65916
 20
40.260901
 30
0.0
 40
1.5
 41
0.0
 71
     7
 72
     5
  1
\W00.776;SUSTITUYE A/ 
  7
DEFAULT
1001
ACAD
1000
MTEXTBEGIN
1070
    73
1070
     2
1070
    44
1040
0.903614
1000
MTEXTEND
1000
ACAD_MTEXT_DEFINED_HEIGHT_BEGIN
1070
    46
1040
0.2
1000
ACAD_MTEXT_DEFINED_HEIGHT_END
  0
MTEXT
  5
111
330
1F
100
AcDbEntity
  8
256
  6
CONTINUOUS
 62
     3
100
AcDbMText
 10
19.092715
 20
24.484486
 30
0.0
 40
1.5
 41
0.0
 71
     7
 72
     5
  1
\W00.799;ESCALA/ 
  7
DEFAULT
1001
ACAD
1000
MTEXTBEGIN
1070
    73
1070
     2
1070
    44
1040
0.903614
1000
MTEXTEND
1000
ACAD_MTEXT_DEFINED_HEIGHT_BEGIN
1070
    46
1040
0.2
1000
ACAD_MTEXT_DEFINED_HEIGHT_END
  0
MTEXT
  5
112
330
1F
100
AcDbEntity
  8
256
  6
CONTINUOUS
 62
     3
100
AcDbMText
 10
79.094349
 20
76.683737
 30
0.0
 40
1.5
 41
0.0
 71
     7
 72
     5
  1
\W00.769;COTAS SIN TOLERANCIA 
  7
DEFAULT
1001
ACAD
1000
MTEXTBEGIN
1070
    73
1070
     2
1070
    44
1040
0.903614
1000
MTEXTEND
1000
ACAD_MTEXT_DEFINED_HEIGHT_BEGIN
1070
    46
1040
0.2
1000
ACAD_MTEXT_DEFINED_HEIGHT_END
  0
MTEXT
  5
113
330
1F
100
AcDbEntity
  8
256
  6
CONTINUOUS
 62
     3
100
AcDbMText
 10
21.003064
 20
88.849003
 30
0.0
 40
1.5
 41
0.0
 71
     7
 72
     5
  1
\W00.729;\Q20.000000;\Q40.000000;\Q20.000000;PROPERTY OF J. FELIU DE LA PENYA, S.L. IT WILL NOT BE TOTALLY OR PARTIALLY  REPRODUCED\P NOR GIVEN TO THIRDS WITHOUT WRITTEN AUTHORIZATION\Q0;\Q0;\Q0; 
  7
DEFAULT
1001
ACAD
1000
MTEXTBEGIN
1070
    44
1040
0.903614
1000
MTEXTEND
1000
ACAD_MTEXT_DEFINED_HEIGHT_BEGIN
1070
    46
1040
0.2
1000
ACAD_MTEXT_DEFINED_HEIGHT_END
  0
MTEXT
  5
114
330
1F
100
AcDbEntity
  8
256
  6
CONTINUOUS
 62
     3
100
AcDbMText
 10
88.514728
 20
73.783401
 30
0.0
 40
1.5
 41
0.0
 71
     8
 72
     5
  1
\W00.771;\Q20.000000;DIMENSIONS WITHOUT TOLERANCE\Q0; 
  7
DEFAULT
1001
ACAD
1000
MTEXTBEGIN
1070
    73
1070
     2
1070
    44
1040
0.903614
1000
MTEXTEND
1000
ACAD_MTEXT_DEFINED_HEIGHT_BEGIN
1070
    46
1040
0.2
1000
ACAD_MTEXT_DEFINED_HEIGHT_END
  0
MTEXT
  5
115
330
1F
100
AcDbEntity
  8
256
  6
CONTINUOUS
 62
     3
100
AcDbMText
 10
95.402147
 20
64.348016
 30
0.0
 40
1.5
 41
0.0
 71
     7
 72
     5
  1
\W00.273;. 
  7
BLOCKFONT
1001
ACAD
1000
MTEXTBEGIN
1070
    73
1070
     2
1070
    44
1040
0.903614
1000
MTEXTEND
1000
ACAD_MTEXT_DEFINED_HEIGHT_BEGIN
1070
    46
1040
0.2
1000
ACAD_MTEXT_DEFINED_HEIGHT_END
  0
MTEXT
  5
116
330
1F
100
AcDbEntity
  8
256
  6
CONTINUOUS
 62
     3
100
AcDbMText
 10
24.679196
 20
55.275157
 30
0.0
 40
1.5
 41
0.0
 71
     8
 72
     5
  1
\W00.809;DIBUJADO 
  7
DEFAULT
1001
ACAD
1000
MTEXTBEGIN
1070
    73
1070
     2
1070
    44
1040
0.903614
1000
MTEXTEND
1000
ACAD_MTEXT_DEFINED_HEIGHT_BEGIN
1070
    46
1040
0.2
1000
ACAD_MTEXT_DEFINED_HEIGHT_END
  0
MTEXT
  5
117
330
1F
100
AcDbEntity
  8
256
  6
CONTINUOUS
 62
     3
100
AcDbMText
 10
80.864666
 20
60.002635
 30
0.0
 40
1.5
 41
0.0
 71
     7
 72
     5
  1
\W00.925;+ 
  7
DEFAULT
1001
ACAD
1000
MTEXTBEGIN
1070
    73
1070
     2
1070
    44
1040
0.903614
1000
MTEXTEND
1000
ACAD_MTEXT_DEFINED_HEIGHT_BEGIN
1070
    46
1040
0.2
1000
ACAD_MTEXT_DEFINED_HEIGHT_END
  0
MTEXT
  5
118
330
1F
100
AcDbEntity
  8
256
  6
CONTINUOUS
 62
     3
100
AcDbMText
 10
60.884666
 20
59.182635
 30
0.0
 40
1.5
 41
0.0
 71
     7
 72
     5
  1
\W00.730;angular 
  7
DEFAULT
1001
ACAD
1000
MTEXTBEGIN
1070
    73
1070
     2
1070
    44
1040
0.903614
1000
MTEXTEND
1000
ACAD_MTEXT_DEFINED_HEIGHT_BEGIN
1070
    46
1040
0.2
1000
ACAD_MTEXT_DEFINED_HEIGHT_END
  0
MTEXT
  5
119
330
1F
100
AcDbEntity
  8
256
  6
CONTINUOUS
 62
     3
100
AcDbMText
 10
80.864666
 20
58.392635
 30
0.0
 40
1.5
 41
0.0
 71
     7
 72
     5
  1
\W00.612;- 
  7
DEFAULT
1001
ACAD
1000
MTEXTBEGIN
1070
    73
1070
     2
1070
    44
1040
0.903614
1000
MTEXTEND
1000
ACAD_MTEXT_DEFINED_HEIGHT_BEGIN
1070
    46
1040
0.2
1000
ACAD_MTEXT_DEFINED_HEIGHT_END
  0
MTEXT
  5
11A
330
1F
100
AcDbEntity
  8
256
  6
CONTINUOUS
 62
     3
100
AcDbMText
 10
78.9728
 20
40.400244
 30
0.0
 40
1.5
 41
0.0
 71
     7
 72
     5
  1
\W00.812;\Q20.000000;DENOMINATION\Q0; 
  7
DEFAULT
1001
ACAD
1000
MTEXTBEGIN
1070
    73
1070
     2
1070
    44
1040
0.903614
1000
MTEXTEND
1000
ACAD_MTEXT_DEFINED_HEIGHT_BEGIN
1070
    46
1040
0.2
1000
ACAD_MTEXT_DEFINED_HEIGHT_END
  0
MTEXT
  5
11B
330
1F
100
AcDbEntity
  8
256
  6
CONTINUOUS
 62
     3
100
AcDbMText
 10
116.17134
 20
51.581718
 30
0.0
 40
1.5
 41
0.0
 71
     7
 72
     5
  1
\W00.797;\Q20.000000;THICKNESS\Q0; 
  7
DEFAULT
1001
ACAD
1000
MTEXTBEGIN
1070
    73
1070
     2
1070
    44
1040
0.903614
1000
MTEXTEND
1000
ACAD_MTEXT_DEFINED_HEIGHT_BEGIN
1070
    46
1040
0.2
1000
ACAD_MTEXT_DEFINED_HEIGHT_END
  0
MTEXT
  5
11C
330
1F
100
AcDbEntity
  8
256
  6
CONTINUOUS
 62
     3
100
AcDbMText
 10
166.79999
 20
24.787301
 30
0.0
 40
1.5
 41
0.0
 71
     7
 72
     5
  1
\W00.794;\Q20.000000;CODE\Q0; 
  7
DEFAULT
1001
ACAD
1000
MTEXTBEGIN
1070
    73
1070
     2
1070
    44
1040
0.903614
1000
MTEXTEND
1000
ACAD_MTEXT_DEFINED_HEIGHT_BEGIN
1070
    46
1040
0.2
1000
ACAD_MTEXT_DEFINED_HEIGHT_END
  0
MTEXT
  5
11D
330
1F
100
AcDbEntity
  8
256
  6
CONTINUOUS
 62
     3
100
AcDbMText
 10
126.29453
 20
47.955865
 30
0.0
 40
1.4
 41
0.0
 71
     7
 72
     5
  1
\W00.766;firma 
  7
DEFAULT
1001
ACAD
1000
MTEXTBEGIN
1070
    73
1070
     2
1070
    44
1040
0.903614
1000
MTEXTEND
1000
ACAD_MTEXT_DEFINED_HEIGHT_BEGIN
1070
    46
1040
0.2
1000
ACAD_MTEXT_DEFINED_HEIGHT_END
  0
MTEXT
  5
11E
330
1F
100
AcDbEntity
  8
256
  6
CONTINUOUS
 62
     3
100
AcDbMText
 10
83.555666
 20
58.976001
 30
0.0
 40
1.7
 41
0.0
 71
     7
 72
     5
  1
\W01.402;1 
  7
DEFAULT
1001
ACAD
1000
MTEXTBEGIN
1070
    73
1070
     2
1070
    44
1040
0.903614
1000
MTEXTEND
1000
ACAD_MTEXT_DEFINED_HEIGHT_BEGIN
1070
    46
1040
0.2
1000
ACAD_MTEXT_DEFINED_HEIGHT_END
  0
MTEXT
  5
11F
330
1F
100
AcDbEntity
  8
256
  6
CONTINUOUS
 62
     3
100
AcDbMText
 10
25.568839
 20
82.36733
 30
0.0
 40
1.7
 41
0.0
 71
     8
 72
     5
  1
\W00.809;MATERIAL/\Q20.000000;MATERIAL\Q0;\P                                                                              
  7
DEFAULT
1001
ACAD
1000
MTEXTBEGIN
1070
    44
1040
0.903614
1000
MTEXTEND
1000
ACAD_MTEXT_DEFINED_HEIGHT_BEGIN
1070
    46
1040
0.2
1000
ACAD_MTEXT_DEFINED_HEIGHT_END
  0
MTEXT
  5
120
330
1F
100
AcDbEntity
  8
256
  6
CONTINUOUS
 62
     2
100
AcDbMText
 10
168.959122
 20
57.84245
 30
0.0
 40
3.5
 41
0.0
 71
     7
 72
     5
  1
\W00.817;METRIC 
  7
DEFAULT
1001
ACAD
1000
MTEXTBEGIN
1070
    73
1070
     2
1070
    44
1040
0.903614
1000
MTEXTEND
1000
ACAD_MTEXT_DEFINED_HEIGHT_BEGIN
1070
    46
1040
0.2
1000
ACAD_MTEXT_DEFINED_HEIGHT_END
  0
MTEXT
  5
121
330
1F
100
AcDbEntity
  8
256
  6
CONTINUOUS
 62
     3
100
AcDbMText
 10
24.733524
 20
32.781205
 30
0.0
 40
1.5
 41
0.0
 71
     8
 72
     5
  1
\W00.802;FECHA 
  7
DEFAULT
1001
ACAD
1000
MTEXTBEGIN
1070
    73
1070
     2
1070
    44
1040
0.903614
1000
MTEXTEND
1000
ACAD_MTEXT_DEFINED_HEIGHT_BEGIN
1070
    46
1040
0.2
1000
ACAD_MTEXT_DEFINED_HEIGHT_END
  0
MTEXT
  5
122
330
1F
100
AcDbEntity
  8
256
  6
CONTINUOUS
 62
     3
100
AcDbMText
 10
95.402147
 20
69.008016
 30
0.0
 40
1.5
 41
0.0
 71
     7
 72
     5
  1
\W00.273;. 
  7
BLOCKFONT
1001
ACAD
1000
MTEXTBEGIN
1070
    73
1070
     2
1070
    44
1040
0.903614
1000
MTEXTEND
1000
ACAD_MTEXT_DEFINED_HEIGHT_BEGIN
1070
    46
1040
0.2
1000
ACAD_MTEXT_DEFINED_HEIGHT_END
  0
MTEXT
  5
123
330
1F
100
AcDbEntity
  8
1
  6
CONTINUOUS
 62
     2
100
AcDbMText
 10
173.46299
 20
15.317748
 30
0.0
 40
3.5
 41
0.0
 71
     7
 72
     5
  1
\W01.000; 
  7
DEFAULT
1001
ACAD
1000
MTEXTBEGIN
1070
    73
1070
     2
1070
    44
1040
0.903614
1000
MTEXTEND
1000
ACAD_MTEXT_DEFINED_HEIGHT_BEGIN
1070
    46
1040
0.2
1000
ACAD_MTEXT_DEFINED_HEIGHT_END
  0
MTEXT
  5
124
330
1F
100
AcDbEntity
  8
1
  6
CONTINUOUS
 62
     3
100
AcDbMText
 10
55.23945
 20
81.319839
 30
0.0
 40
3.5
 41
0.0
 71
     7
 72
     5
  1
\W00.720;EN 10130 Fe P01 Am 
  7
DEFAULT
1001
ACAD
1000
MTEXTBEGIN
1070
    73
1070
     2
1070
    44
1040
0.903614
1000
MTEXTEND
1000
ACAD_MTEXT_DEFINED_HEIGHT_BEGIN
1070
    46
1040
0.2
1000
ACAD_MTEXT_DEFINED_HEIGHT_END
  0
MTEXT
  5
125
330
1F
100
AcDbEntity
  8
1
  6
CONTINUOUS
 62
     3
100
AcDbMText
 10
28.911152
 20
60.758031
 30
0.0
 40
3.5
 41
0.0
 71
     7
 72
     5
  1
\W00.760;Pintado 
  7
DEFAULT
1001
ACAD
1000
MTEXTBEGIN
1070
    73
1070
     2
1070
    44
1040
0.903614
1000
MTEXTEND
1000
ACAD_MTEXT_DEFINED_HEIGHT_BEGIN
1070
    46
1040
0.2
1000
ACAD_MTEXT_DEFINED_HEIGHT_END
  0
MTEXT
  5
126
330
1F
100
AcDbEntity
  8
1
  6
CONTINUOUS
 62
     3
100
AcDbMText
 10
157.178273
 20
14.787658
 30
0.0
 40
3.5
 41
0.0
 71
     7
 72
     5
  1
\W00.787;101523.1404.000 
  7
DEFAULT
1001
ACAD
1000
MTEXTBEGIN
1070
    73
1070
     2
1070
    44
1040
0.903614
1000
MTEXTEND
1000
ACAD_MTEXT_DEFINED_HEIGHT_BEGIN
1070
    46
1040
0.2
1000
ACAD_MTEXT_DEFINED_HEIGHT_END
  0
MTEXT
  5
127
330
1F
100
AcDbEntity
  8
1
  6
CONTINUOUS
 62
     3
100
AcDbMText
 10
18.458074
 20
256.9058
 30
0.0
 40
3.5
 41
0.0
 71
     7
 72
     5
  1
\W00.628;1  (a) 
  7
DEFAULT
1001
ACAD
1000
MTEXTBEGIN
1070
    73
1070
     2
1070
    44
1040
0.903614
1000
MTEXTEND
1000
ACAD_MTEXT_DEFINED_HEIGHT_BEGIN
1070
    46
1040
0.2
1000
ACAD_MTEXT_DEFINED_HEIGHT_END
  0
MTEXT
  5
128
330
1F
100
AcDbEntity
  8
1
  6
CONTINUOUS
 62
     3
100
AcDbMText
 10
48.846261
 20
21.930569
 30
0.0
 40
3.5
 41
0.0
 71
     7
 72
     5
  1
\W01.402;1 
  7
DEFAULT
1001
ACAD
1000
MTEXTBEGIN
1070
    73
1070
     2
1070
    44
1040
0.903614
1000
MTEXTEND
1000
ACAD_MTEXT_DEFINED_HEIGHT_BEGIN
1070
    46
1040
0.2
1000
ACAD_MTEXT_DEFINED_HEIGHT_END
  0
MTEXT
  5
129
330
1F
100
AcDbEntity
  8
1
  6
CONTINUOUS
 62
     3
100
AcDbMText
 10
136.202489
 20
44.555238
 30
0.0
 40
3.5
 41
0.0
 71
     7
 72
     5
  1
\W00.727;C. Alvarez 
  7
DEFAULT
1001
ACAD
1000
MTEXTBEGIN
1070
    73
1070
     2
1070
    44
1040
0.903614
1000
MTEXTEND
1000
ACAD_MTEXT_DEFINED_HEIGHT_BEGIN
1070
    46
1040
0.2
1000
ACAD_MTEXT_DEFINED_HEIGHT_END
  0
MTEXT
  5
12A
330
1F
100
AcDbEntity
  8
1
  6
CONTINUOUS
 62
     3
100
AcDbMText
 10
100.158237
 20
44.389776
 30
0.0
 40
3.5
 41
0.0
 71
     7
 72
     5
  1
\W00.776;07/01/16 
  7
DEFAULT
1001
ACAD
1000
MTEXTBEGIN
1070
    73
1070
     2
1070
    44
1040
0.903614
1000
MTEXTEND
1000
ACAD_MTEXT_DEFINED_HEIGHT_BEGIN
1070
    46
1040
0.2
1000
ACAD_MTEXT_DEFINED_HEIGHT_END
  0
MTEXT
  5
12B
330
1F
100
AcDbEntity
  8
1
  6
CONTINUOUS
 62
     3
100
AcDbMText
 10
76.207269
 20
126.763663
 30
0.0
 40
3.5
 41
0.0
 71
     7
 72
     5
  1
\W00.668;1 (a) 
  7
DEFAULT
1001
ACAD
1000
MTEXTBEGIN
1070
    73
1070
     2
1070
    44
1040
0.903614
1000
MTEXTEND
1000
ACAD_MTEXT_DEFINED_HEIGHT_BEGIN
1070
    46
1040
0.2
1000
ACAD_MTEXT_DEFINED_HEIGHT_END
  0
MTEXT
  5
12C
330
1F
100
AcDbEntity
  8
1
  6
CONTINUOUS
 62
     3
100
AcDbMText
 10
75.758122
 20
231.788287
 30
0.0
 40
3.5
 41
0.0
 71
     7
 72
     5
  1
\W00.668;1 (a) 
  7
DEFAULT
1001
ACAD
1000
MTEXTBEGIN
1070
    73
1070
     2
1070
    44
1040
0.903614
1000
MTEXTEND
1000
ACAD_MTEXT_DEFINED_HEIGHT_BEGIN
1070
    46
1040
0.2
1000
ACAD_MTEXT_DEFINED_HEIGHT_END
  0
MTEXT
  5
12D
330
1F
100
AcDbEntity
  8
1
  6
CONTINUOUS
 62
     3
100
AcDbMText
 10
41.447996
 20
81.273314
 30
0.0
 40
3.5
 41
0.0
 71
     7
 72
     5
  1
\W00.834;2a 
  7
DEFAULT
1001
ACAD
1000
MTEXTBEGIN
1070
    73
1070
     2
1070
    44
1040
0.903614
1000
MTEXTEND
1000
ACAD_MTEXT_DEFINED_HEIGHT_BEGIN
1070
    46
1040
0.2
1000
ACAD_MTEXT_DEFINED_HEIGHT_END
  0
MTEXT
  5
12E
330
1F
100
AcDbEntity
  8
1
  6
CONTINUOUS
 62
     3
100
AcDbMText
 10
18.516488
 20
261.996866
 30
0.0
 40
3.5
 41
0.0
 71
     7
 72
     5
  1
\W00.696;2  (a) Antes chapa galvanizada /07/01/2016/ C. Alvarez 
  7
DEFAULT
1001
ACAD
1000
MTEXTBEGIN
1070
    73
1070
     2
1070
    44
1040
0.903614
1000
MTEXTEND
1000
ACAD_MTEXT_DEFINED_HEIGHT_BEGIN
1070
    46
1040
0.2
1000
ACAD_MTEXT_DEFINED_HEIGHT_END
  0
MTEXT
  5
12F
330
1F
100
AcDbEntity
  8
1
  6
CONTINUOUS
 62
     3
100
AcDbMText
 10
54.388876
 20
21.814552
 30
0.0
 40
3.5
 41
0.0
 71
     7
 72
     5
  1
\W00.907;2 
  7
DEFAULT
1001
ACAD
1000
MTEXTBEGIN
1070
    73
1070
     2
1070
    44
1040
0.903614
1000
MTEXTEND
1000
ACAD_MTEXT_DEFINED_HEIGHT_BEGIN
1070
    46
1040
0.2
1000
ACAD_MTEXT_DEFINED_HEIGHT_END
  0
LINE
  5
130
330
1F
100
AcDbEntity
  8
1
  6
CENTER
 62
     3
100
AcDbLine
 10
95.697693
 20
188.492644
 30
0.0
 11
118.400132
 21
188.492644
 31
0.0
  0
LINE
  5
131
330
1F
100
AcDbEntity
  8
1
  6
CENTER
 62
     3
100
AcDbLine
 10
107.048913
 20
177.141424
 30
0.0
 11
107.048913
 21
199.843863
 31
0.0
  0
LINE
  5
132
330
1F
100
AcDbEntity
  8
1
  6
CENTER
 62
     3
100
AcDbLine
 10
33.424668
 20
181.786385
 30
0.0
 11
140.424668
 21
181.786385
 31
0.0
  0
LINE
  5
133
330
1F
100
AcDbEntity
  8
1
  6
CENTER
 62
     3
100
AcDbLine
 10
86.924668
 20
128.286385
 30
0.0
 11
86.924668
 21
235.286385
 31
0.0
  0
MTEXT
  5
134
102
{ACAD_REACTORS
330
181
102
}
330
1F
100
AcDbEntity
  8
1
  6
CONTINUOUS
 62
     3
100
AcDbMText
 10
93.356053
 20
121.73338
 30
0.0
 40
3.5
 41
0.0
 71
     7
 72
     5
  1
\W00.882;20,1 
  7
DEFAULT
1001
ACAD
1000
MTEXTBEGIN
1070
    73
1070
     2
1070
    44
1040
0.903614
1000
MTEXTEND
1000
ACAD_MTEXT_DEFINED_HEIGHT_BEGIN
1070
    46
1040
0.2
1000
ACAD_MTEXT_DEFINED_HEIGHT_END
  0
LINE
  5
135
102
{ACAD_REACTORS
330
138
102
}
330
1F
100
AcDbEntity
  8
1
  6
CONTINUOUS
 62
     3
 60
     1
100
AcDbLine
 10
86.924668
 20
121.149477
 30
0.0
 11
90.424664
 21
122.087299
 31
0.0
  0
LINE
  5
136
102
{ACAD_REACTORS
330
138
102
}
330
1F
100
AcDbEntity
  8
1
  6
CONTINUOUS
 62
     3
 60
     1
100
AcDbLine
 10
90.424664
 20
122.087299
 30
0.0
 11
90.424671
 21
120.211655
 31
0.0
  0
LINE
  5
137
102
{ACAD_REACTORS
330
138
102
}
330
1F
100
AcDbEntity
  8
1
  6
CONTINUOUS
 62
     3
 60
     1
100
AcDbLine
 10
90.424671
 20
120.211655
 30
0.0
 11
86.924668
 21
121.149477
 31
0.0
  0
HATCH
  5
138
102
{ACAD_REACTORS
330
181
102
}
330
1F
100
AcDbEntity
  8
1
  6
CONTINUOUS
 62
     3
100
AcDbHatch
 10
0.0
 20
0.0
 30
0.0
210
0.0
220
0.0
230
1.0
  2
ANSI31
 70
     0
 71
     1
 91
        1
 92
        0
 93
        3
 72
     1
 10
86.92466776498429
 20
121.1494768744613
 11
90.4246643201711
 21
122.0872990479639
 72
     1
 10
90.4246643201711
 20
122.0872990479639
 11
90.42467120979748
 21
120.2116547009587
 72
     1
 10
90.42467120979748
 20
120.2116547009587
 11
86.92466776498429
 21
121.1494768744613
 97
        3
330
135
330
136
330
137
 75
     0
 76
     0
 52
45.0
 41
0.02
 77
     0
 78
     1
 53
44.99999999999994
 43
0.0
 44
0.0
 45
-0.0141421356237309
 46
0.014142135623731
 79
     0
 98
        0
  0
LINE
  5
139
102
{ACAD_REACTORS
330
13C
102
}
330
1F
100
AcDbEntity
  8
1
  6
CONTINUOUS
 62
     3
 60
     1
100
AcDbLine
 10
107.048913
 20
121.149477
 30
0.0
 11
103.548916
 21
120.211655
 31
0.0
  0
LINE
  5
13A
102
{ACAD_REACTORS
330
13C
102
}
330
1F
100
AcDbEntity
  8
1
  6
CONTINUOUS
 62
     3
 60
     1
100
AcDbLine
 10
103.548916
 20
120.211655
 30
0.0
 11
103.548909
 21
122.087299
 31
0.0
  0
LINE
  5
13B
102
{ACAD_REACTORS
330
13C
102
}
330
1F
100
AcDbEntity
  8
1
  6
CONTINUOUS
 62
     3
 60
     1
100
AcDbLine
 10
103.548909
 20
122.087299
 30
0.0
 11
107.048913
 21
121.149477
 31
0.0
  0
HATCH
  5
13C
102
{ACAD_REACTORS
330
181
102
}
330
1F
100
AcDbEntity
  8
1
  6
CONTINUOUS
 62
     3
100
AcDbHatch
 10
0.0
 20
0.0
 30
0.0
210
0.0
220
0.0
230
1.0
  2
ANSI31
 70
     0
 71
     1
 91
        1
 92
        0
 93
        3
 72
     1
 10
107.0489126501892
 20
121.1494768744613
 11
103.5489160950024
 21
120.2116547009587
 72
     1
 10
103.5489160950024
 20
120.2116547009587
 11
103.548909205376
 21
122.0872990479639
 72
     1
 10
103.548909205376
 20
122.0872990479639
 11
107.0489126501892
 21
121.1494768744613
 97
        3
330
139
330
13A
330
13B
 75
     0
 76
     0
 52
45.0
 41
0.02
 77
     0
 78
     1
 53
44.99999999999992
 43
0.0
 44
0.0
 45
-0.0141421356237309
 46
0.014142135623731
 79
     0
 98
        0
  0
MTEXT
  5
13D
102
{ACAD_REACTORS
330
182
102
}
330
1F
100
AcDbEntity
  8
1
  6
CONTINUOUS
 62
     3
100
AcDbMText
 10
147.946917
 20
170.424477
 30
0.0
 40
3.5
 41
0.0
 71
     7
 72
     5
  1
\W00.810;6,7 
  7
DEFAULT
 11
1.615542552166338E-15
 21
1.0
 31
0.0
1001
ACAD
1000
MTEXTBEGIN
1070
    73
1070
     2
1070
    44
1040
0.903614
1000
MTEXTEND
1000
ACAD_MTEXT_DEFINED_HEIGHT_BEGIN
1070
    46
1040
0.2
1000
ACAD_MTEXT_DEFINED_HEIGHT_END
  0
LINE
  5
13E
102
{ACAD_REACTORS
330
141
102
}
330
1F
100
AcDbEntity
  8
1
  6
CONTINUOUS
 62
     3
 60
     1
100
AcDbLine
 10
148.53082
 20
188.492644
 30
0.0
 11
147.592998
 21
191.99264
 31
0.0
  0
LINE
  5
13F
102
{ACAD_REACTORS
330
141
102
}
330
1F
100
AcDbEntity
  8
1
  6
CONTINUOUS
 62
     3
 60
     1
100
AcDbLine
 10
147.592998
 20
191.99264
 30
0.0
 11
149.468642
 21
191.992647
 31
0.0
  0
LINE
  5
140
102
{ACAD_REACTORS
330
141
102
}
330
1F
100
AcDbEntity
  8
1
  6
CONTINUOUS
 62
     3
 60
     1
100
AcDbLine
 10
149.468642
 20
191.992647
 30
0.0
 11
148.53082
 21
188.492644
 31
0.0
  0
HATCH
  5
141
102
{ACAD_REACTORS
330
182
102
}
330
1F
100
AcDbEntity
  8
1
  6
CONTINUOUS
 62
     3
100
AcDbHatch
 10
0.0
 20
0.0
 30
0.0
210
0.0
220
0.0
230
1.0
  2
ANSI31
 70
     0
 71
     1
 91
        1
 92
        0
 93
        3
 72
     1
 10
148.5308196913839
 20
188.4926435182801
 11
147.5929975178813
 21
191.992640073467
 72
     1
 10
147.5929975178813
 20
191.992640073467
 11
149.4686418648865
 21
191.9926469630933
 72
     1
 10
149.4686418648865
 20
191.9926469630933
 11
148.5308196913839
 21
188.4926435182801
 97
        3
330
13E
330
13F
330
140
 75
     0
 76
     0
 52
45.0
 41
0.02
 77
     0
 78
     1
 53
44.99999999999994
 43
0.0
 44
0.0
 45
-0.0141421356237309
 46
0.014142135623731
 79
     0
 98
        0
  0
LINE
  5
142
102
{ACAD_REACTORS
330
145
102
}
330
1F
100
AcDbEntity
  8
1
  6
CONTINUOUS
 62
     3
 60
     1
100
AcDbLine
 10
148.53082
 20
181.786385
 30
0.0
 11
149.468642
 21
178.286389
 31
0.0
  0
LINE
  5
143
102
{ACAD_REACTORS
330
145
102
}
330
1F
100
AcDbEntity
  8
1
  6
CONTINUOUS
 62
     3
 60
     1
100
AcDbLine
 10
149.468642
 20
178.286389
 30
0.0
 11
147.592998
 21
178.286382
 31
0.0
  0
LINE
  5
144
102
{ACAD_REACTORS
330
145
102
}
330
1F
100
AcDbEntity
  8
1
  6
CONTINUOUS
 62
     3
 60
     1
100
AcDbLine
 10
147.592998
 20
178.286382
 30
0.0
 11
148.53082
 21
181.786385
 31
0.0
  0
HATCH
  5
145
102
{ACAD_REACTORS
330
182
102
}
330
1F
100
AcDbEntity
  8
1
  6
CONTINUOUS
 62
     3
100
AcDbHatch
 10
0.0
 20
0.0
 30
0.0
210
0.0
220
0.0
230
1.0
  2
ANSI31
 70
     0
 71
     1
 91
        1
 92
        0
 93
        3
 72
     1
 10
148.5308196913839
 20
181.7863853503185
 11
149.4686418648865
 21
178.2863887951316
 72
     1
 10
149.4686418648865
 20
178.2863887951316
 11
147.5929975178813
 21
178.2863819055053
 72
     1
 10
147.5929975178813
 20
178.2863819055053
 11
148.5308196913839
 21
181.7863853503185
 97
        3
330
142
330
143
330
144
 75
     0
 76
     0
 52
45.0
 41
0.02
 77
     0
 78
     1
 53
44.99999999999992
 43
0.0
 44
0.0
 45
-0.0141421356237309
 46
0.014142135623731
 79
     0
 98
        0
  0
MTEXT
  5
146
102
{ACAD_REACTORS
330
183
102
}
330
1F
100
AcDbEntity
  8
1
  6
CONTINUOUS
 62
     3
100
AcDbMText
 10
160.340586
 20
176.845427
 30
0.0
 40
3.5
 41
0.0
 71
     7
 72
     5
  1
\W00.800;101,3 
  7
DEFAULT
 11
1.615542552166338E-15
 21
1.0
 31
0.0
1001
ACAD
1000
MTEXTBEGIN
1070
    73
1070
     2
1070
    44
1040
0.903614
1000
MTEXTEND
1000
ACAD_MTEXT_DEFINED_HEIGHT_BEGIN
1070
    46
1040
0.2
1000
ACAD_MTEXT_DEFINED_HEIGHT_END
  0
LINE
  5
147
102
{ACAD_REACTORS
330
14A
102
}
330
1F
100
AcDbEntity
  8
1
  6
CONTINUOUS
 62
     3
 60
     1
100
AcDbLine
 10
160.924489
 20
232.436385
 30
0.0
 11
161.862311
 21
228.936389
 31
0.0
  0
LINE
  5
148
102
{ACAD_REACTORS
330
14A
102
}
330
1F
100
AcDbEntity
  8
1
  6
CONTINUOUS
 62
     3
 60
     1
100
AcDbLine
 10
161.862311
 20
228.936389
 30
0.0
 11
159.986667
 21
228.936382
 31
0.0
  0
LINE
  5
149
102
{ACAD_REACTORS
330
14A
102
}
330
1F
100
AcDbEntity
  8
1
  6
CONTINUOUS
 62
     3
 60
     1
100
AcDbLine
 10
159.986667
 20
228.936382
 30
0.0
 11
160.924489
 21
232.436385
 31
0.0
  0
HATCH
  5
14A
102
{ACAD_REACTORS
330
183
102
}
330
1F
100
AcDbEntity
  8
1
  6
CONTINUOUS
 62
     3
100
AcDbHatch
 10
0.0
 20
0.0
 30
0.0
210
0.0
220
0.0
230
1.0
  2
ANSI31
 70
     0
 71
     1
 91
        1
 92
        0
 93
        3
 72
     1
 10
160.9244887277512
 20
232.4363853503185
 11
161.8623109012538
 21
228.9363887951316
 72
     1
 10
161.8623109012538
 20
228.9363887951316
 11
159.9866665542486
 21
228.9363819055053
 72
     1
 10
159.9866665542486
 20
228.9363819055053
 11
160.9244887277512
 21
232.4363853503185
 97
        3
330
147
330
148
330
149
 75
     0
 76
     0
 52
45.0
 41
0.02
 77
     0
 78
     1
 53
44.99999999999994
 43
0.0
 44
0.0
 45
-0.0141421356237309
 46
0.014142135623731
 79
     0
 98
        0
  0
LINE
  5
14B
102
{ACAD_REACTORS
330
14E
102
}
330
1F
100
AcDbEntity
  8
1
  6
CONTINUOUS
 62
     3
 60
     1
100
AcDbLine
 10
160.924489
 20
131.136385
 30
0.0
 11
159.986667
 21
134.636382
 31
0.0
  0
LINE
  5
14C
102
{ACAD_REACTORS
330
14E
102
}
330
1F
100
AcDbEntity
  8
1
  6
CONTINUOUS
 62
     3
 60
     1
100
AcDbLine
 10
159.986667
 20
134.636382
 30
0.0
 11
161.862311
 21
134.636389
 31
0.0
  0
LINE
  5
14D
102
{ACAD_REACTORS
330
14E
102
}
330
1F
100
AcDbEntity
  8
1
  6
CONTINUOUS
 62
     3
 60
     1
100
AcDbLine
 10
161.862311
 20
134.636389
 30
0.0
 11
160.924489
 21
131.136385
 31
0.0
  0
HATCH
  5
14E
102
{ACAD_REACTORS
330
183
102
}
330
1F
100
AcDbEntity
  8
1
  6
CONTINUOUS
 62
     3
100
AcDbHatch
 10
0.0
 20
0.0
 30
0.0
210
0.0
220
0.0
230
1.0
  2
ANSI31
 70
     0
 71
     1
 91
        1
 92
        0
 93
        3
 72
     1
 10
160.9244887277512
 20
131.1363853503184
 11
159.9866665542486
 21
134.6363819055053
 72
     1
 10
159.9866665542486
 20
134.6363819055053
 11
161.8623109012538
 21
134.6363887951316
 72
     1
 10
161.8623109012538
 20
134.6363887951316
 11
160.9244887277512
 21
131.1363853503184
 97
        3
330
14B
330
14C
330
14D
 75
     0
 76
     0
 52
45.0
 41
0.02
 77
     0
 78
     1
 53
44.99999999999992
 43
0.0
 44
0.0
 45
-0.0141421356237309
 46
0.014142135623731
 79
     0
 98
        0
  0
DIMENSION
  5
159
330
1F
100
AcDbEntity
  8
1
  6
CONTINUOUS
 62
     3
100
AcDbDimension
  2
DIMNDRAFT3D1
 10
30.269979
 20
183.786385
 30
0.0
 11
30.269979
 21
171.721617
 31
0.0
 70
   160
  1
\A1;\C3;4,0 \A1;\S+0,5^ -0,0;
  3
STANDARD
100
AcDbAlignedDimension
 13
38.465922
 23
179.786385
 33
0.0
 14
38.465922
 24
183.786385
 34
0.0
 50
90.0
100
AcDbRotatedDimension
1001
ACAD
1000
DSTYLE
1002
{
1070
   287
1070
     3
1070
     7
1000

1070
     6
1000

1070
    74
1070
     0
1070
   279
1070
     0
1070
   172
1070
     1
1070
   173
1070
     1
1070
   340
1005
CC
1070
   271
1070
     1
1070
   272
1070
     1
1070
    77
1070
     1
1070
    73
1070
     0
1070
   171
1070
     3
1070
   274
1070
     4
1070
   177
1070
     3
1070
   176
1070
     3
1070
   178
1070
     3
1070
    48
1040
-0.005
1070
    41
1041
3.5
1070
   147
1041
1.75
1070
    42
1041
0.0
1070
    44
1041
2.0
1070
   140
1041
3.5
1002
}
  0
DIMENSION
  5
162
330
1F
100
AcDbEntity
  8
1
  6
CONTINUOUS
 62
     3
100
AcDbDimension
  2
DIMNDRAFT3D2
 10
54.30992
 20
171.817294
 30
0.0
 11
30.123328
 21
153.38364
 31
0.0
 70
   163
  1
\C3;%%c 10,5
  3
STANDARD
100
AcDbDiametricDimension
 15
46.539416
 25
164.755477
 35
0.0
 40
0.0
1001
ACAD
1000
DSTYLE
1002
{
1070
   287
1070
     3
1070
     7
1000

1070
     6
1000

1070
   172
1070
     1
1070
   279
1070
     0
1070
   173
1070
     1
1070
   340
1005
CC
1070
    75
1070
     1
1070
    76
1070
     1
1070
   271
1070
     1
1070
   272
1070
     2
1070
    77
1070
     1
1070
    73
1070
     0
1070
   171
1070
     3
1070
   274
1070
     4
1070
   177
1070
     3
1070
   176
1070
     3
1070
   178
1070
     3
1070
    48
1040
-0.005
1070
    41
1041
3.5
1070
   147
1041
1.75
1070
    42
1041
0.0
1070
    44
1041
2.0
1070
   140
1041
3.5
1002
}
  0
DIMENSION
  5
16C
330
1F
100
AcDbEntity
  8
1
  6
CONTINUOUS
 62
     3
100
AcDbDimension
  2
DIMNDRAFT3D3
 10
116.552555
 20
220.184801
 30
0.0
 11
45.419521
 21
132.291821
 31
0.0
 70
   163
  1
\C3;%%c 97
  3
STANDARD
100
AcDbDiametricDimension
 15
57.296781
 25
143.38797
 35
0.0
 40
0.0
1001
ACAD
1000
DSTYLE
1002
{
1070
   287
1070
     3
1070
     7
1000

1070
     6
1000

1070
   172
1070
     1
1070
   279
1070
     0
1070
   173
1070
     1
1070
   340
1005
CC
1070
    75
1070
     1
1070
    76
1070
     1
1070
   271
1070
     0
1070
   272
1070
     2
1070
    77
1070
     1
1070
    73
1070
     0
1070
   171
1070
     3
1070
   274
1070
     4
1070
   177
1070
     3
1070
   176
1070
     3
1070
   178
1070
     3
1070
    48
1040
-0.005
1070
    41
1041
3.5
1070
   147
1041
1.75
1070
    42
1041
0.0
1070
    44
1041
2.0
1070
   140
1041
3.5
1002
}
  0
DIMENSION
  5
176
330
1F
100
AcDbEntity
  8
1
  6
CONTINUOUS
 62
     3
100
AcDbDimension
  2
DIMNDRAFT3D4
 10
176.088993
 20
121.149477
 30
0.0
 11
185.052043
 21
121.149477
 31
0.0
 70
   160
  1
\C3;1,2
  3
STANDARD
100
AcDbAlignedDimension
 13
174.888993
 23
181.786385
 33
0.0
 14
176.088993
 24
181.786385
 34
0.0
100
AcDbRotatedDimension
1001
ACAD
1000
DSTYLE
1002
{
1070
   287
1070
     3
1070
     7
1000

1070
     6
1000

1070
   279
1070
     0
1070
   172
1070
     1
1070
   173
1070
     1
1070
   340
1005
CC
1070
   271
1070
     1
1070
   272
1070
     2
1070
    77
1070
     1
1070
    73
1070
     0
1070
   171
1070
     3
1070
   274
1070
     4
1070
   177
1070
     3
1070
   176
1070
     3
1070
   178
1070
     3
1070
    48
1040
-0.005
1070
    41
1041
3.5
1070
   147
1041
1.75
1070
    42
1041
0.0
1070
    44
1041
2.0
1070
   140
1041
3.5
1002
}
  0
DIMENSION
  5
180
330
1F
100
AcDbEntity
  8
1
  6
CONTINUOUS
 62
     3
100
AcDbDimension
  2
DIMNDRAFT3D5
 10
177.888993
 20
240.723518
 30
0.0
 11
188.302489
 21
240.723518
 31
0.0
 70
   160
  1
\C3;1,8
  3
STANDARD
100
AcDbAlignedDimension
 13
176.088993
 23
232.436385
 33
0.0
 14
177.888993
 24
188.492644
 34
0.0
100
AcDbRotatedDimension
1001
ACAD
1000
DSTYLE
1002
{
1070
   287
1070
     3
1070
     7
1000

1070
     6
1000

1070
   279
1070
     0
1070
   172
1070
     1
1070
   173
1070
     1
1070
   340
1005
CC
1070
   271
1070
     1
1070
   272
1070
     2
1070
    77
1070
     1
1070
    73
1070
     0
1070
   171
1070
     3
1070
   274
1070
     4
1070
   177
1070
     3
1070
   176
1070
     3
1070
   178
1070
     3
1070
    48
1040
-0.005
1070
    41
1041
3.5
1070
   147
1041
1.75
1070
    42
1041
0.0
1070
    44
1041
2.0
1070
   140
1041
3.5
1002
}
  0
ENDSEC
  0
SECTION
  2
OBJECTS
  0
DICTIONARY
  5
C
330
0
100
AcDbDictionary
  3
ACAD_GROUP
350
D
  3
ACAD_LAYOUT
350
1A
  3
ACAD_MATERIAL
350
3B
  3
ACAD_MLEADERSTYLE
350
1B6
  3
ACAD_MLINESTYLE
350
17
  3
ACAD_PLOTSETTINGS
350
19
  3
ACAD_VISUALSTYLE
350
2A
  3
ACDBHEADERROUNDTRIPXREC
350
194
  3
ACDBVARIABLEDICTIONARY
350
1B4
  0
DICTIONARY
  5
D
102
{ACAD_REACTORS
330
C
102
}
330
C
100
AcDbDictionary
  3
DIMENSION
350
181
  3
DIMENSION2
350
182
  3
DIMENSION3
350
183
  0
DICTIONARY
  5
1A
102
{ACAD_REACTORS
330
C
102
}
330
C
100
AcDbDictionary
  0
DICTIONARY
  5
3B
102
{ACAD_REACTORS
330
C
102
}
330
C
100
AcDbDictionary
  3
BYBLOCK
350
3D
  3
BYLAYER
350
3C
  3
GLOBAL
350
3E
  0
DICTIONARY
  5
1B6
102
{ACAD_REACTORS
330
C
102
}
330
C
100
AcDbDictionary
  0
DICTIONARY
  5
17
102
{ACAD_REACTORS
330
C
102
}
330
C
100
AcDbDictionary
  3
STANDARD
350
18
  0
DICTIONARY
  5
19
102
{ACAD_REACTORS
330
C
102
}
330
C
100
AcDbDictionary
  0
DICTIONARY
  5
2A
102
{ACAD_REACTORS
330
C
102
}
330
C
100
AcDbDictionary
  3
2DWIREFRAME
350
2F
  3
3D_HIDDEN
350
31
  3
3DWIREFRAME
350
30
  3
BASIC
350
32
  3
BRIGHTEN
350
36
  3
COLORCHANGE
350
3A
  3
CONCEPTUAL
350
34
  3
DIM
350
35
  3
FACEPATTERN
350
39
  3
FLAT
350
2B
  3
FLATWITHEDGES
350
2C
  3
GOURAUD
350
2D
  3
GOURAUDWITHEDGES
350
2E
  3
LINEPATTERN
350
38
  3
REALISTIC
350
33
  3
THICKEN
350
37
  0
DICTIONARY
  5
194
102
{ACAD_REACTORS
330
C
102
}
330
C
100
AcDbDictionary
  3
CEPSNTYPE
350
19D
  3
DIMSTYLEDATA
350
1B3
  3
FINGERPRINTGUID
350
19E
  3
HYPERLINKBASE
350
197
  3
INSUNITS
350
19C
  3
LAYOUTDICT
350
199
  3
LWETCUNION
350
19B
  3
PLOTSETDICT
350
19A
  3
PSVPSCALE
350
1A0
  3
PUCSBASE
350
1A3
  3
PUCSORGBACK
350
1A9
  3
PUCSORGBOTTOM
350
1A5
  3
PUCSORGFRONT
350
1A8
  3
PUCSORGLEFT
350
1A6
  3
PUCSORGRIGHT
350
1A7
  3
PUCSORGTOP
350
1A4
  3
PUCSORTHOREF
350
1A1
  3
PUCSORTHOVIEW
350
1A2
  3
STYLESHEET
350
198
  3
TSTACKALIGN
350
195
  3
TSTACKSIZE
350
196
  3
UCSBASE
350
1AC
  3
UCSORGBACK
350
1B2
  3
UCSORGBOTTOM
350
1AE
  3
UCSORGFRONT
350
1B1
  3
UCSORGLEFT
350
1AF
  3
UCSORGRIGHT
350
1B0
  3
UCSORGTOP
350
1AD
  3
UCSORTHOREF
350
1AA
  3
UCSORTHOVIEW
350
1AB
  3
VERSIONGUID
350
19F
  0
DICTIONARY
  5
1B4
102
{ACAD_REACTORS
330
C
102
}
330
C
100
AcDbDictionary
  3
DIMASSOC
350
1B7
  3
HIDETEXT
350
1B8
  0
GROUP
  5
181
102
{ACAD_REACTORS
330
D
102
}
330
D
100
AcDbGroup
300

 70
     0
 71
     1
340
A0
340
A1
340
A2
340
134
340
138
340
13C
  0
GROUP
  5
182
102
{ACAD_REACTORS
330
D
102
}
330
D
100
AcDbGroup
300

 70
     0
 71
     1
340
A9
340
AA
340
AB
340
13D
340
141
340
145
  0
GROUP
  5
183
102
{ACAD_REACTORS
330
D
102
}
330
D
100
AcDbGroup
300

 70
     0
 71
     1
340
B4
340
B5
340
B6
340
146
340
14A
340
14E
  0
MATERIAL
  5
3D
102
{ACAD_REACTORS
330
3B
102
}
102
{ACAD_XDICTIONARY
360
1BB
102
}
330
3B
100
AcDbMaterial
  1
ByBlock
  0
MATERIAL
  5
3C
102
{ACAD_REACTORS
330
3B
102
}
102
{ACAD_XDICTIONARY
360
1B9
102
}
330
3B
100
AcDbMaterial
  1
ByLayer
  0
MATERIAL
  5
3E
102
{ACAD_REACTORS
330
3B
102
}
102
{ACAD_XDICTIONARY
360
1BD
102
}
330
3B
100
AcDbMaterial
  1
Global
  0
MLINESTYLE
  5
18
102
{ACAD_REACTORS
330
17
102
}
330
17
100
AcDbMlineStyle
  2
Standard
 70
     0
  3

 62
   256
 51
90.0
 52
90.0
 71
     2
 49
0.5
 62
   256
  6
BYLAYER
 49
-0.5
 62
   256
  6
BYLAYER
  0
ACAD_PROXY_OBJECT
  5
2F
102
{ACAD_REACTORS
330
2A
102
}
330
2A
100
AcDbProxyObject
 90
      499
 91
      501
 93
      436
310
42CC9915DA5C99599C985B595049028333333333333E3BF0000000000000FB0107901411070040501600405405064090741402480A0340
1001
ACAD
1000
AcDbSavedByObjectVersion
1070
     0
  0
ACAD_PROXY_OBJECT
  5
31
102
{ACAD_REACTORS
330
2A
102
}
330
2A
100
AcDbProxyObject
 90
      499
 91
      501
 93
      500
310
424CD108121A5919195B90640502408333333333333E3BF0000000000000FB01079024090700405020000000000001110200405405064090740C02480A0340
1001
ACAD
1000
AcDbSavedByObjectVersion
1070
     0
  0
ACAD_PROXY_OBJECT
  5
30
102
{ACAD_REACTORS
330
2A
102
}
330
2A
100
AcDbProxyObject
 90
      499
 91
      501
 93
      436
310
42CCD915DA5C99599C985B595059028333333333333E3BF0000000000000FB0107901411070040501600405405064090741402480A0340
1001
ACAD
1000
AcDbSavedByObjectVersion
1070
     0
  0
ACAD_PROXY_OBJECT
  5
32
102
{ACAD_REACTORS
330
2A
102
}
330
2A
100
AcDbProxyObject
 90
      499
 91
      501
 93
      388
310
4150985CDA58D07406404333333333333E3BF0000000000000FB0107A41107004050150841D405064090741402480A0350
1001
ACAD
1000
AcDbSavedByObjectVersion
1070
     0
  0
ACAD_PROXY_OBJECT
  5
36
102
{ACAD_REACTORS
330
2A
102
}
330
2A
100
AcDbProxyObject
 90
      499
 91
      501
 93
      428
310
42109C9A59DA1D195B90C409028333333333333E3BF0000000000000FB010790141107004050150841D405064090741402480A029950
1001
ACAD
1000
AcDbSavedByObjectVersion
1070
     0
  0
ACAD_PROXY_OBJECT
  5
3A
102
{ACAD_REACTORS
330
2A
102
}
330
2A
100
AcDbProxyObject
 90
      499
 91
      501
 93
      452
310
42D0DBDB1BDC90DA185B99D95104090240C333333333333E3BF0000000000000FB0108901411070040501508421405064090741402480A0350
1001
ACAD
1000
AcDbSavedByObjectVersion
1070
     0
  0
ACAD_PROXY_OBJECT
  5
34
102
{ACAD_REACTORS
330
2A
102
}
330
2A
100
AcDbProxyObject
 90
      499
 91
      501
 93
      500
310
4290DBDB98D95C1D1D585B10940D028333333333333E3BF0000000000000FB0107902409070040501000000000000111010841D405064090740C02480A0340
1001
ACAD
1000
AcDbSavedByObjectVersion
1070
     0
  0
ACAD_PROXY_OBJECT
  5
35
102
{ACAD_REACTORS
330
2A
102
}
330
2A
100
AcDbProxyObject
 90
      499
 91
      501
 93
      412
310
40D11A5B50B409028333333333333E3BF0000000000000FB010790141107004050150841D405064090741402480A02677FFFFFD0
1001
ACAD
1000
AcDbSavedByObjectVersion
1070
     0
  0
ACAD_PROXY_OBJECT
  5
39
102
{ACAD_REACTORS
330
2A
102
}
330
2A
100
AcDbProxyObject
 90
      499
 91
      501
 93
      444
310
42D19858D95C185D1D195C9B90F409028333333333333E3BF0000000000000FB010790141107004050150841D405064090741402480A0350
1001
ACAD
1000
AcDbSavedByObjectVersion
1070
     0
  0
ACAD_PROXY_OBJECT
  5
2B
102
{ACAD_REACTORS
330
2A
102
}
330
2A
100
AcDbProxyObject
 90
      499
 91
      501
 93
      388
310
41119B185D240901404333333333333E3BF0000000000000F9010740A41107004050150841D405064090741402480A1B50
1001
ACAD
1000
AcDbSavedByObjectVersion
1070
     0
  0
ACAD_PROXY_OBJECT
  5
2C
102
{ACAD_REACTORS
330
2A
102
}
330
2A
100
AcDbProxyObject
 90
      499
 91
      501
 93
      476
310
43519B185D15DA5D1A115919D95CD0140901404333333333333E3BF0000000000000F9010740901411070040501600405405064090741402480A1B50
1001
ACAD
1000
AcDbSavedByObjectVersion
1070
     0
  0
ACAD_PROXY_OBJECT
  5
2D
102
{ACAD_REACTORS
330
2A
102
}
330
2A
100
AcDbProxyObject
 90
      499
 91
      501
 93
      412
310
41D1DBDD5C985D5910240902404333333333333E3BF0000000000000F9010740A411070040501641D405064090741402480A1B50
1001
ACAD
1000
AcDbSavedByObjectVersion
1070
     0
  0
ACAD_PROXY_OBJECT
  5
2E
102
{ACAD_REACTORS
330
2A
102
}
330
2A
100
AcDbProxyObject
 90
      499
 91
      501
 93
      500
310
4411DBDD5C985D5915DA5D1A115919D95CD0340902404333333333333E3BF0000000000000F9010740901411070040501600405405064090741402480A1B50
1001
ACAD
1000
AcDbSavedByObjectVersion
1070
     0
  0
ACAD_PROXY_OBJECT
  5
38
102
{ACAD_REACTORS
330
2A
102
}
330
2A
100
AcDbProxyObject
 90
      499
 91
      501
 93
      444
310
42D31A5B995C185D1D195C9B90E409028333333333333E3BF0000000000000FB010790141107004050750841D405064090741402483A0350
1001
ACAD
1000
AcDbSavedByObjectVersion
1070
     0
  0
ACAD_PROXY_OBJECT
  5
33
102
{ACAD_REACTORS
330
2A
102
}
330
2A
100
AcDbProxyObject
 90
      499
 91
      501
 93
      420
310
425499585B1A5CDD1A58D08409028333333333333E3BF0000000000000FB01079019070040501508421405064090741402480A1B40
1001
ACAD
1000
AcDbSavedByObjectVersion
1070
     0
  0
ACAD_PROXY_OBJECT
  5
37
102
{ACAD_REACTORS
330
2A
102
}
330
2A
100
AcDbProxyObject
 90
      499
 91
      501
 93
      412
310
41D51A1A58DAD95B90D409028333333333333E3BF0000000000000FB010790141107004050150C41D405064090741402480A0350
1001
ACAD
1000
AcDbSavedByObjectVersion
1070
     0
  0
XRECORD
  5
19D
102
{ACAD_REACTORS
330
194
102
}
330
194
100
AcDbXrecord
 90
        0
  0
XRECORD
  5
1B3
102
{ACAD_REACTORS
330
194
102
}
330
194
100
AcDbXrecord
1000
DSTYLE
1002
{
1070
   171
 70
     2
1070
   143
 40
25.4
1070
   274
 70
     2
1070
    41
 40
0.18
1070
   141
 40
0.09
1070
   271
 70
     4
1070
    43
 40
0.38
1070
   278
 70
    46
1070
    44
 40
0.18
1070
    42
 40
0.0625
1070
   147
 40
0.09
1070
    77
 70
     0
1070
   272
 70
     4
1070
    73
 70
     1
1070
   172
 70
     0
1070
    74
 70
     1
1070
   283
 70
     1
1070
   340
340
11
1070
   140
 40
0.18
1070
   284
 70
     0
1070
    78
 70
     0
1002
}
  0
XRECORD
  5
19E
102
{ACAD_REACTORS
330
194
102
}
330
194
100
AcDbXrecord
  1
{F1722735-C1E6-483A-952D-32E390F11528}
  0
XRECORD
  5
197
102
{ACAD_REACTORS
330
194
102
}
330
194
100
AcDbXrecord
  1

  0
XRECORD
  5
19C
102
{ACAD_REACTORS
330
194
102
}
330
194
100
AcDbXrecord
 90
        4
  0
XRECORD
  5
199
102
{ACAD_REACTORS
330
194
102
}
330
194
100
AcDbXrecord
340
1A
  0
XRECORD
  5
19B
102
{ACAD_REACTORS
330
194
102
}
330
194
100
AcDbXrecord
 90
    10781
  0
XRECORD
  5
19A
102
{ACAD_REACTORS
330
194
102
}
330
194
100
AcDbXrecord
340
19
  0
XRECORD
  5
1A0
102
{ACAD_REACTORS
330
194
102
}
330
194
100
AcDbXrecord
 40
0.0
  0
XRECORD
  5
1A3
102
{ACAD_REACTORS
330
194
102
}
330
194
100
AcDbXrecord
340
0
  0
XRECORD
  5
1A9
102
{ACAD_REACTORS
330
194
102
}
330
194
100
AcDbXrecord
 10
0.0
 20
0.0
 30
0.0
  0
XRECORD
  5
1A5
102
{ACAD_REACTORS
330
194
102
}
330
194
100
AcDbXrecord
 10
0.0
 20
0.0
 30
0.0
  0
XRECORD
  5
1A8
102
{ACAD_REACTORS
330
194
102
}
330
194
100
AcDbXrecord
 10
0.0
 20
0.0
 30
0.0
  0
XRECORD
  5
1A6
102
{ACAD_REACTORS
330
194
102
}
330
194
100
AcDbXrecord
 10
0.0
 20
0.0
 30
0.0
  0
XRECORD
  5
1A7
102
{ACAD_REACTORS
330
194
102
}
330
194
100
AcDbXrecord
 10
0.0
 20
0.0
 30
0.0
  0
XRECORD
  5
1A4
102
{ACAD_REACTORS
330
194
102
}
330
194
100
AcDbXrecord
 10
0.0
 20
0.0
 30
0.0
  0
XRECORD
  5
1A1
102
{ACAD_REACTORS
330
194
102
}
330
194
100
AcDbXrecord
340
0
  0
XRECORD
  5
1A2
102
{ACAD_REACTORS
330
194
102
}
330
194
100
AcDbXrecord
 70
     0
  0
XRECORD
  5
198
102
{ACAD_REACTORS
330
194
102
}
330
194
100
AcDbXrecord
  1

  0
XRECORD
  5
195
102
{ACAD_REACTORS
330
194
102
}
330
194
100
AcDbXrecord
 90
        1
  0
XRECORD
  5
196
102
{ACAD_REACTORS
330
194
102
}
330
194
100
AcDbXrecord
 90
       70
  0
XRECORD
  5
1AC
102
{ACAD_REACTORS
330
194
102
}
330
194
100
AcDbXrecord
340
0
  0
XRECORD
  5
1B2
102
{ACAD_REACTORS
330
194
102
}
330
194
100
AcDbXrecord
 10
0.0
 20
0.0
 30
0.0
  0
XRECORD
  5
1AE
102
{ACAD_REACTORS
330
194
102
}
330
194
100
AcDbXrecord
 10
0.0
 20
0.0
 30
0.0
  0
XRECORD
  5
1B1
102
{ACAD_REACTORS
330
194
102
}
330
194
100
AcDbXrecord
 10
0.0
 20
0.0
 30
0.0
  0
XRECORD
  5
1AF
102
{ACAD_REACTORS
330
194
102
}
330
194
100
AcDbXrecord
 10
0.0
 20
0.0
 30
0.0
  0
XRECORD
  5
1B0
102
{ACAD_REACTORS
330
194
102
}
330
194
100
AcDbXrecord
 10
0.0
 20
0.0
 30
0.0
  0
XRECORD
  5
1AD
102
{ACAD_REACTORS
330
194
102
}
330
194
100
AcDbXrecord
 10
0.0
 20
0.0
 30
0.0
  0
XRECORD
  5
1AA
102
{ACAD_REACTORS
330
194
102
}
330
194
100
AcDbXrecord
340
0
  0
XRECORD
  5
1AB
102
{ACAD_REACTORS
330
194
102
}
330
194
100
AcDbXrecord
 70
     0
  0
XRECORD
  5
19F
102
{ACAD_REACTORS
330
194
102
}
330
194
100
AcDbXrecord
  1
{FAEB1C32-E019-11D5-929B-00C0DF256EC4}
  0
DICTIONARYVAR
  5
1B7
102
{ACAD_REACTORS
330
1B4
102
}
330
1B4
100
DictionaryVariables
280
     0
  1
2
  0
DICTIONARYVAR
  5
1B8
102
{ACAD_REACTORS
330
1B4
102
}
330
1B4
100
DictionaryVariables
280
     0
  1
1
  0
DICTIONARY
  5
1BB
330
3D
100
AcDbDictionary
280
     1
  3
ACAD_XREC_ROUNDTRIP
360
1BC
  0
DICTIONARY
  5
1B9
330
3C
100
AcDbDictionary
280
     1
  3
ACAD_XREC_ROUNDTRIP
360
1BA
  0
DICTIONARY
  5
1BD
330
3E
100
AcDbDictionary
280
     1
  3
ACAD_XREC_ROUNDTRIP
360
1BE
  0
XRECORD
  5
1BC
102
{ACAD_REACTORS
330
1BB
102
}
330
1BB
100
AcDbXrecord
102
MATERIAL
148
0.0
149
0.0
149
0.0
 93
        0
 94
      127
282
     0
 72
     1
 77
     1
171
     1
175
     1
179
     1
273
     0
  0
XRECORD
  5
1BA
102
{ACAD_REACTORS
330
1B9
102
}
330
1B9
100
AcDbXrecord
102
MATERIAL
148
0.0
149
0.0
149
0.0
 93
        0
 94
      127
282
     0
 72
     1
 77
     1
171
     1
175
     1
179
     1
273
     0
  0
XRECORD
  5
1BE
102
{ACAD_REACTORS
330
1BD
102
}
330
1BD
100
AcDbXrecord
102
MATERIAL
148
0.0
149
0.0
149
0.0
 93
        0
 94
      127
282
     0
 72
     1
 77
     1
171
     1
175
     1
179
     1
273
     0
  0
ENDSEC
  0
EOF
