  0
SECTION
  2
HEADER
  9
$ACADVER
  1
AC1014
  9
$ACADMAINTVER
 70
     9
  9
$DWGCODEPAGE
  3
ANSI_1252
  9
$INSBASE
 10
0.0
 20
0.0
 30
0.0
  9
$EXTMIN
 10
-0.5
 20
-0.5
 30
-0.5
  9
$EXTMAX
 10
5.0
 20
5.0
 30
5.0
  9
$LIMMIN
 10
-0.5
 20
-0.5
  9
$LIMMAX
 10
5.0
 20
5.0
  9
$ORTHOMODE
 70
     0
  9
$REGENMODE
 70
     1
  9
$FILLMODE
 70
     1
  9
$QTEXTMODE
 70
     0
  9
$MIRRTEXT
 70
     1
  9
$DRAGMODE
 70
     2
  9
$LTSCALE
 40
1.0
  9
$OSMODE
 70
    37
  9
$ATTMODE
 70
     1
  9
$TEXTSIZE
 40
0.2
  9
$TRACEWID
 40
0.05
  9
$TEXTSTYLE
  7
STANDARD
  9
$CLAYER
  8
0
  9
$CELTYPE
  6
BYLAYER
  9
$CECOLOR
 62
   256
  9
$CELTSCALE
 40
1.0
  9
$DELOBJ
 70
     1
  9
$DISPSILH
 70
     0
  9
$DIMSCALE
 40
1.0
  9
$DIMASZ
 40
0.18
  9
$DIMEXO
 40
0.0625
  9
$DIMDLI
 40
0.38
  9
$DIMRND
 40
0.0
  9
$DIMDLE
 40
0.0
  9
$DIMEXE
 40
0.18
  9
$DIMTP
 40
0.0
  9
$DIMTM
 40
0.0
  9
$DIMTXT
 40
0.18
  9
$DIMCEN
 40
0.09
  9
$DIMTSZ
 40
0.0
  9
$DIMTOL
 70
     0
  9
$DIMLIM
 70
     0
  9
$DIMTIH
 70
     1
  9
$DIMTOH
 70
     1
  9
$DIMSE1
 70
     0
  9
$DIMSE2
 70
     0
  9
$DIMTAD
 70
     0
  9
$DIMZIN
 70
     0
  9
$DIMBLK
  1

  9
$DIMASO
 70
     1
  9
$DIMSHO
 70
     1
  9
$DIMPOST
  1

  9
$DIMAPOST
  1

  9
$DIMALT
 70
     0
  9
$DIMALTD
 70
     2
  9
$DIMALTF
 40
25.4
  9
$DIMLFAC
 40
1.0
  9
$DIMTOFL
 70
     0
  9
$DIMTVP
 40
0.0
  9
$DIMTIX
 70
     0
  9
$DIMSOXD
 70
     0
  9
$DIMSAH
 70
     0
  9
$DIMBLK1
  1

  9
$DIMBLK2
  1

  9
$DIMSTYLE
  2
STANDARD
  9
$DIMCLRD
 70
     0
  9
$DIMCLRE
 70
     0
  9
$DIMCLRT
 70
     0
  9
$DIMTFAC
 40
1.0
  9
$DIMGAP
 40
0.09
  9
$DIMJUST
 70
     0
  9
$DIMSD1
 70
     0
  9
$DIMSD2
 70
     0
  9
$DIMTOLJ
 70
     1
  9
$DIMTZIN
 70
     0
  9
$DIMALTZ
 70
     0
  9
$DIMALTTZ
 70
     0
  9
$DIMFIT
 70
     3
  9
$DIMUPT
 70
     0
  9
$DIMUNIT
 70
     2
  9
$DIMDEC
 70
     4
  9
$DIMTDEC
 70
     4
  9
$DIMALTU
 70
     2
  9
$DIMALTTD
 70
     2
  9
$DIMTXSTY
  7
STANDARD
  9
$DIMAUNIT
 70
     0
  9
$LUNITS
 70
     2
  9
$LUPREC
 70
     4
  9
$SKETCHINC
 40
0.1
  9
$FILLETRAD
 40
0.5
  9
$AUNITS
 70
     0
  9
$AUPREC
 70
     0
  9
$MENU
  1
.
  9
$ELEVATION
 40
0.0
  9
$PELEVATION
 40
0.0
  9
$THICKNESS
 40
0.0
  9
$LIMCHECK
 70
     0
  9
$CHAMFERA
 40
0.5
  9
$CHAMFERB
 40
0.5
  9
$CHAMFERC
 40
1.0
  9
$CHAMFERD
 40
0.0
  9
$SKPOLY
 70
     0
  9
$TDCREATE
 40
2457770.40021794
  9
$TDUPDATE
 40
2457770.400217951
  9
$TDINDWG
 40
0.0000000116
  9
$TDUSRTIMER
 40
0.0000000116
  9
$USRTIMER
 70
     1
  9
$ANGBASE
 50
0.0
  9
$ANGDIR
 70
     0
  9
$PDMODE
 70
     0
  9
$PDSIZE
 40
0.0
  9
$PLINEWID
 40
0.0
  9
$COORDS
 70
     1
  9
$SPLFRAME
 70
     0
  9
$SPLINETYPE
 70
     6
  9
$SPLINESEGS
 70
     8
  9
$ATTDIA
 70
     0
  9
$ATTREQ
 70
     1
  9
$HANDLING
 70
     1
  9
$HANDSEED
  5
293
  9
$SURFTAB1
 70
     6
  9
$SURFTAB2
 70
     6
  9
$SURFTYPE
 70
     6
  9
$SURFU
 70
     6
  9
$SURFV
 70
     6
  9
$UCSNAME
  2

  9
$UCSORG
 10
0.0
 20
0.0
 30
0.0
  9
$UCSXDIR
 10
1.0
 20
0.0
 30
0.0
  9
$UCSYDIR
 10
0.0
 20
1.0
 30
0.0
  9
$PUCSNAME
  2

  9
$PUCSORG
 10
0.0
 20
0.0
 30
0.0
  9
$PUCSXDIR
 10
1.0
 20
0.0
 30
0.0
  9
$PUCSYDIR
 10
0.0
 20
1.0
 30
0.0
  9
$USERI1
 70
     0
  9
$USERI2
 70
     0
  9
$USERI3
 70
     0
  9
$USERI4
 70
     0
  9
$USERI5
 70
     0
  9
$USERR1
 40
0.0
  9
$USERR2
 40
0.0
  9
$USERR3
 40
0.0
  9
$USERR4
 40
0.0
  9
$USERR5
 40
0.0
  9
$WORLDVIEW
 70
     1
  9
$SHADEDGE
 70
     3
  9
$SHADEDIF
 70
    70
  9
$TILEMODE
 70
     1
  9
$MAXACTVP
 70
    64
  9
$PINSBASE
 10
0.0
 20
0.0
 30
0.0
  9
$PLIMCHECK
 70
     0
  9
$PEXTMIN
 10
-0.5
 20
-0.5
 30
-0.5
  9
$PEXTMAX
 10
5.0
 20
5.0
 30
5.0
  9
$PLIMMIN
 10
-0.5
 20
-0.5
  9
$PLIMMAX
 10
5.0
 20
5.0
  9
$UNITMODE
 70
     0
  9
$VISRETAIN
 70
     1
  9
$PLINEGEN
 70
     0
  9
$PSLTSCALE
 70
     1
  9
$TREEDEPTH
 70
  3020
  9
$PICKSTYLE
 70
     1
  9
$CMLSTYLE
  2
STANDARD
  9
$CMLJUST
 70
     0
  9
$CMLSCALE
 40
1.0
  9
$PROXYGRAPHICS
 70
     1
  9
$MEASUREMENT
 70
     1
  0
ENDSEC
  0
SECTION
  2
CLASSES
  0
CLASS
  1
ACDBDICTIONARYWDFLT
  2
AcDbDictionaryWithDefault
  3
ObjectDBX Classes
 90
        0
280
     0
281
     0
  0
CLASS
  1
VISUALSTYLE
  2
AcDbVisualStyle
  3
ObjectDBX Classes
 90
     4095
280
     0
281
     0
  0
CLASS
  1
MATERIAL
  2
AcDbMaterial
  3
ObjectDBX Classes
 90
     1153
280
     0
281
     0
  0
CLASS
  1
DICTIONARYVAR
  2
AcDbDictionaryVar
  3
ObjectDBX Classes
 90
        0
280
     0
281
     0
  0
CLASS
  1
XRECORD
  2
AcDbXrecord
  3
AutoCAD 2000
 90
        0
280
     0
281
     0
  0
CLASS
  1
LWPOLYLINE
  2
AcDbPolyline
  3
AutoCAD 2000
 90
        0
280
     0
281
     1
  0
CLASS
  1
HATCH
  2
AcDbHatch
  3
AutoCAD 2000
 90
        0
280
     0
281
     1
  0
CLASS
  1
ACDBPLACEHOLDER
  2
AcDbPlaceHolder
  3
ObjectDBX Classes
 90
        0
280
     0
281
     0
  0
CLASS
  1
LAYOUT
  2
AcDbLayout
  3
ObjectDBX Classes
 90
        0
280
     0
281
     0
  0
ENDSEC
  0
SECTION
  2
TABLES
  0
TABLE
  2
VPORT
  5
8
330
0
100
AcDbSymbolTable
 70
    17
  0
VPORT
  5
29
330
8
100
AcDbSymbolTableRecord
100
AcDbViewportTableRecord
  2
DUMMY
 70
     0
 10
0.0
 20
0.0
 11
1.0
 21
1.0
 12
10.429907
 22
4.5
 13
0.0
 23
0.0
 14
0.5
 24
0.5
 15
0.5
 25
0.5
 16
0.0
 26
0.0
 36
1.0
 17
0.0
 27
0.0
 37
0.0
 40
9.0
 41
1.972973
 42
50.0
 43
0.0
 44
0.0
 50
0.0
 51
0.0
 71
     0
 72
   100
 73
     1
 74
     3
 75
     0
 76
     0
 77
     0
 78
     0
  0
VPORT
  5
258
330
8
100
AcDbSymbolTableRecord
100
AcDbViewportTableRecord
  2
*ACTIVE
 70
     0
 10
0.0
 20
0.0
 11
1.0
 21
1.0
 12
207.48
 22
148.5
 13
0.0
 23
0.0
 14
0.5
 24
0.5
 15
0.5
 25
0.5
 16
0.0
 26
0.0
 36
1.0
 17
0.0
 27
0.0
 37
0.0
 40
254.0
 41
0.069908
 42
50.0
 43
804.295265
 44
-804.295265
 50
0.0
 51
0.0
 71
     0
 72
   100
 73
     1
 74
     3
 75
     0
 76
     0
 77
     0
 78
     0
  0
VPORT
  5
259
330
8
100
AcDbSymbolTableRecord
100
AcDbViewportTableRecord
  2
L1
 70
     0
 10
0.0
 20
0.0
 11
1.0
 21
1.0
 12
207.48
 22
148.5
 13
0.0
 23
0.0
 14
0.5
 24
0.5
 15
0.5
 25
0.5
 16
0.0
 26
0.0
 36
1.0
 17
0.0
 27
0.0
 37
0.0
 40
254.0
 41
0.069908
 42
50.0
 43
804.295265
 44
-804.295265
 50
0.0
 51
0.0
 71
     0
 72
   100
 73
     1
 74
     3
 75
     0
 76
     0
 77
     0
 78
     0
  0
VPORT
  5
25A
330
8
100
AcDbSymbolTableRecord
100
AcDbViewportTableRecord
  2
L2
 70
     0
 10
0.0
 20
0.0
 11
0.5
 21
1.0
 12
0.0
 22
0.0
 13
0.0
 23
0.0
 14
0.5
 24
0.5
 15
0.5
 25
0.5
 16
0.0
 26
-1.0
 36
0.0
 17
0.0
 27
0.0
 37
0.0
 40
1319.822715
 41
0.013454
 42
50.0
 43
672.020833
 44
-672.020833
 50
0.0
 51
0.0
 71
     0
 72
   100
 73
     1
 74
     3
 75
     0
 76
     0
 77
     0
 78
     0
  0
VPORT
  5
25B
330
8
100
AcDbSymbolTableRecord
100
AcDbViewportTableRecord
  2
L2
 70
     0
 10
0.5
 20
0.0
 11
1.0
 21
1.0
 12
0.0
 22
0.0
 13
0.0
 23
0.0
 14
0.5
 24
0.5
 15
0.5
 25
0.5
 16
1.0
 26
0.0
 36
0.0
 17
0.0
 27
0.0
 37
0.0
 40
1319.822715
 41
0.013454
 42
50.0
 43
672.020833
 44
-672.020833
 50
0.0
 51
0.0
 71
     0
 72
   100
 73
     1
 74
     3
 75
     0
 76
     0
 77
     0
 78
     0
  0
VPORT
  5
25C
330
8
100
AcDbSymbolTableRecord
100
AcDbViewportTableRecord
  2
L3
 70
     0
 10
0.0
 20
0.5
 11
1.0
 21
1.0
 12
207.48
 22
148.5
 13
0.0
 23
0.0
 14
0.5
 24
0.5
 15
0.5
 25
0.5
 16
0.0
 26
0.0
 36
1.0
 17
0.0
 27
0.0
 37
0.0
 40
254.0
 41
0.069908
 42
50.0
 43
804.295265
 44
-804.295265
 50
0.0
 51
0.0
 71
     0
 72
   100
 73
     1
 74
     3
 75
     0
 76
     0
 77
     0
 78
     0
  0
VPORT
  5
25D
330
8
100
AcDbSymbolTableRecord
100
AcDbViewportTableRecord
  2
L3
 70
     0
 10
0.0
 20
0.0
 11
1.0
 21
0.5
 12
0.0
 22
0.0
 13
0.0
 23
0.0
 14
0.5
 24
0.5
 15
0.5
 25
0.5
 16
0.0
 26
-1.0
 36
0.0
 17
0.0
 27
0.0
 37
0.0
 40
1319.822715
 41
0.013454
 42
50.0
 43
672.020833
 44
-672.020833
 50
0.0
 51
0.0
 71
     0
 72
   100
 73
     1
 74
     3
 75
     0
 76
     0
 77
     0
 78
     0
  0
VPORT
  5
25E
330
8
100
AcDbSymbolTableRecord
100
AcDbViewportTableRecord
  2
L4
 70
     0
 10
0.0
 20
0.5
 11
0.5
 21
1.0
 12
207.48
 22
148.5
 13
0.0
 23
0.0
 14
0.5
 24
0.5
 15
0.5
 25
0.5
 16
0.0
 26
0.0
 36
1.0
 17
0.0
 27
0.0
 37
0.0
 40
254.0
 41
0.069908
 42
50.0
 43
804.295265
 44
-804.295265
 50
0.0
 51
0.0
 71
     0
 72
   100
 73
     1
 74
     3
 75
     0
 76
     0
 77
     0
 78
     0
  0
VPORT
  5
25F
330
8
100
AcDbSymbolTableRecord
100
AcDbViewportTableRecord
  2
L4
 70
     0
 10
0.0
 20
0.0
 11
0.5
 21
0.5
 12
0.0
 22
0.0
 13
0.0
 23
0.0
 14
0.5
 24
0.5
 15
0.5
 25
0.5
 16
0.0
 26
-1.0
 36
0.0
 17
0.0
 27
0.0
 37
0.0
 40
1319.822715
 41
0.013454
 42
50.0
 43
672.020833
 44
-672.020833
 50
0.0
 51
0.0
 71
     0
 72
   100
 73
     1
 74
     3
 75
     0
 76
     0
 77
     0
 78
     0
  0
VPORT
  5
260
330
8
100
AcDbSymbolTableRecord
100
AcDbViewportTableRecord
  2
L4
 70
     0
 10
0.5
 20
0.0
 11
1.0
 21
0.5
 12
0.0
 22
0.0
 13
0.0
 23
0.0
 14
0.5
 24
0.5
 15
0.5
 25
0.5
 16
1.0
 26
0.0
 36
0.0
 17
0.0
 27
0.0
 37
0.0
 40
1319.822715
 41
0.013454
 42
50.0
 43
672.020833
 44
-672.020833
 50
0.0
 51
0.0
 71
     0
 72
   100
 73
     1
 74
     3
 75
     0
 76
     0
 77
     0
 78
     0
  0
VPORT
  5
261
330
8
100
AcDbSymbolTableRecord
100
AcDbViewportTableRecord
  2
L4
 70
     0
 10
0.5
 20
0.5
 11
1.0
 21
1.0
 12
0.0
 22
0.0
 13
0.0
 23
0.0
 14
0.5
 24
0.5
 15
0.5
 25
0.5
 16
0.5773502691896258
 26
-0.5773502691896258
 36
0.5773502691896258
 17
0.0
 27
0.0
 37
0.0
 40
1285.020866
 41
0.013818
 42
50.0
 43
667.141407
 44
-667.141407
 50
0.0
 51
0.0
 71
     0
 72
   100
 73
     1
 74
     3
 75
     0
 76
     0
 77
     0
 78
     0
  0
VPORT
  5
262
330
8
100
AcDbSymbolTableRecord
100
AcDbViewportTableRecord
  2
L6
 70
     0
 10
0.0
 20
0.5
 11
0.333333
 21
1.0
 12
0.0
 22
0.0
 13
0.0
 23
0.0
 14
0.5
 24
0.5
 15
0.5
 25
0.5
 16
0.7188730927569434
 26
-0.5850486126764431
 36
0.3754192287502549
 17
0.0
 27
0.0
 37
0.0
 40
1357.434192
 41
0.013081
 42
50.0
 43
701.839477
 44
-701.839477
 50
0.0
 51
0.0
 71
     0
 72
   100
 73
     1
 74
     3
 75
     0
 76
     0
 77
     0
 78
     0
  0
VPORT
  5
263
330
8
100
AcDbSymbolTableRecord
100
AcDbViewportTableRecord
  2
L6
 70
     0
 10
0.0
 20
0.0
 11
0.333333
 21
0.5
 12
0.0
 22
0.0
 13
0.0
 23
0.0
 14
0.5
 24
0.5
 15
0.5
 25
0.5
 16
-1.0
 26
0.0
 36
0.0
 17
0.0
 27
0.0
 37
0.0
 40
1319.822715
 41
0.013454
 42
50.0
 43
672.020833
 44
-672.020833
 50
0.0
 51
0.0
 71
     0
 72
   100
 73
     1
 74
     3
 75
     0
 76
     0
 77
     0
 78
     0
  0
VPORT
  5
264
330
8
100
AcDbSymbolTableRecord
100
AcDbViewportTableRecord
  2
L6
 70
     0
 10
0.333333
 20
0.5
 11
0.666667
 21
1.0
 12
207.48
 22
148.5
 13
0.0
 23
0.0
 14
0.5
 24
0.5
 15
0.5
 25
0.5
 16
0.0
 26
0.0
 36
1.0
 17
0.0
 27
0.0
 37
0.0
 40
254.0
 41
0.069908
 42
50.0
 43
804.295265
 44
-804.295265
 50
0.0
 51
0.0
 71
     0
 72
   100
 73
     1
 74
     3
 75
     0
 76
     0
 77
     0
 78
     0
  0
VPORT
  5
265
330
8
100
AcDbSymbolTableRecord
100
AcDbViewportTableRecord
  2
L6
 70
     0
 10
0.333333
 20
0.0
 11
0.666667
 21
0.5
 12
0.0
 22
0.0
 13
0.0
 23
0.0
 14
0.5
 24
0.5
 15
0.5
 25
0.5
 16
0.0
 26
-1.0
 36
0.0
 17
0.0
 27
0.0
 37
0.0
 40
1319.822715
 41
0.013454
 42
50.0
 43
672.020833
 44
-672.020833
 50
0.0
 51
0.0
 71
     0
 72
   100
 73
     1
 74
     3
 75
     0
 76
     0
 77
     0
 78
     0
  0
VPORT
  5
266
330
8
100
AcDbSymbolTableRecord
100
AcDbViewportTableRecord
  2
L6
 70
     0
 10
0.666667
 20
0.5
 11
1.0
 21
1.0
 12
0.0
 22
0.0
 13
0.0
 23
0.0
 14
0.5
 24
0.5
 15
0.5
 25
0.5
 16
0.5773502691896258
 26
-0.5773502691896258
 36
0.5773502691896258
 17
0.0
 27
0.0
 37
0.0
 40
1285.020866
 41
0.013818
 42
50.0
 43
667.141407
 44
-667.141407
 50
0.0
 51
0.0
 71
     0
 72
   100
 73
     1
 74
     3
 75
     0
 76
     0
 77
     0
 78
     0
  0
VPORT
  5
267
330
8
100
AcDbSymbolTableRecord
100
AcDbViewportTableRecord
  2
L6
 70
     0
 10
0.666667
 20
0.0
 11
1.0
 21
0.5
 12
0.0
 22
0.0
 13
0.0
 23
0.0
 14
0.5
 24
0.5
 15
0.5
 25
0.5
 16
1.0
 26
0.0
 36
0.0
 17
0.0
 27
0.0
 37
0.0
 40
1319.822715
 41
0.013454
 42
50.0
 43
672.020833
 44
-672.020833
 50
0.0
 51
0.0
 71
     0
 72
   100
 73
     1
 74
     3
 75
     0
 76
     0
 77
     0
 78
     0
  0
ENDTAB
  0
TABLE
  2
LTYPE
  5
5
330
0
100
AcDbSymbolTable
 70
     7
  0
LTYPE
  5
14
330
5
100
AcDbSymbolTableRecord
100
AcDbLinetypeTableRecord
  2
BYBLOCK
 70
     0
  3

 72
    65
 73
     0
 40
0.0
  0
LTYPE
  5
15
330
5
100
AcDbSymbolTableRecord
100
AcDbLinetypeTableRecord
  2
BYLAYER
 70
     0
  3

 72
    65
 73
     0
 40
0.0
  0
LTYPE
  5
16
330
5
100
AcDbSymbolTableRecord
100
AcDbLinetypeTableRecord
  2
CONTINUOUS
 70
     0
  3
Solid line
 72
    65
 73
     0
 40
0.0
  0
LTYPE
  5
3F
330
5
100
AcDbSymbolTableRecord
100
AcDbLinetypeTableRecord
  2
DASHED
 70
     0
  3
__ __ __ __ __ __ __ __ __
 72
    65
 73
     2
 40
25.72
 49
12.86
 74
     4
 75
     0
340
0
 46
0.0
 50
0.0
 44
0.0
 45
0.0
 49
-12.86
 74
     4
 75
     0
340
0
 46
0.0
 50
0.0
 44
0.0
 45
0.0
  0
LTYPE
  5
40
330
5
100
AcDbSymbolTableRecord
100
AcDbLinetypeTableRecord
  2
HIDDEN
 70
     0
  3
_ _ _ _ _ _ _ _ _ _ _ _ _ _ _
 72
    65
 73
     2
 40
0.5
 49
0.25
 74
     4
 75
     0
340
0
 46
0.0
 50
0.0
 44
0.0
 45
0.0
 49
-0.25
 74
     4
 75
     0
340
0
 46
0.0
 50
0.0
 44
0.0
 45
0.0
  0
LTYPE
  5
41
330
5
100
AcDbSymbolTableRecord
100
AcDbLinetypeTableRecord
  2
PHANTOM
 70
     0
  3
____ _ _ ____ _ _ _____ _ _ ____
 72
    65
 73
     6
 40
50.5
 49
18.0
 74
     4
 75
     0
340
0
 46
0.0
 50
0.0
 44
0.0
 45
0.0
 49
-6.5
 74
     4
 75
     0
340
0
 46
0.0
 50
0.0
 44
0.0
 45
0.0
 49
6.5
 74
     4
 75
     0
340
0
 46
0.0
 50
0.0
 44
0.0
 45
0.0
 49
-6.5
 74
     4
 75
     0
340
0
 46
0.0
 50
0.0
 44
0.0
 45
0.0
 49
6.5
 74
     4
 75
     0
340
0
 46
0.0
 50
0.0
 44
0.0
 45
0.0
 49
-6.5
 74
     4
 75
     0
340
0
 46
0.0
 50
0.0
 44
0.0
 45
0.0
  0
LTYPE
  5
42
330
5
100
AcDbSymbolTableRecord
100
AcDbLinetypeTableRecord
  2
CENTER
 70
     0
  3
____ _ ____ _ ____ _ ____
 72
    65
 73
     4
 40
47.4
 49
22.0
 74
     4
 75
     0
340
0
 46
0.0
 50
0.0
 44
0.0
 45
0.0
 49
-8.5
 74
     4
 75
     0
340
0
 46
0.0
 50
0.0
 44
0.0
 45
0.0
 49
8.5
 74
     4
 75
     0
340
0
 46
0.0
 50
0.0
 44
0.0
 45
0.0
 49
-8.5
 74
     4
 75
     0
340
0
 46
0.0
 50
0.0
 44
0.0
 45
0.0
  0
LTYPE
  5
43
330
5
100
AcDbSymbolTableRecord
100
AcDbLinetypeTableRecord
  2
DOT
 70
     0
  3
.........................
 72
    65
 73
     2
 40
10.0
 49
0.0
 74
     4
 75
     0
340
0
 46
0.0
 50
0.0
 44
0.0
 45
0.0
 49
-10.0
 74
     4
 75
     0
340
0
 46
0.0
 50
0.0
 44
0.0
 45
0.0
  0
LTYPE
  5
44
330
5
100
AcDbSymbolTableRecord
100
AcDbLinetypeTableRecord
  2
DASHDOT
 70
     0
  3
_._._._._._._._._._._._._._._._.
 72
    65
 73
     4
 40
70.0
 49
31.0
 74
     4
 75
     0
340
0
 46
0.0
 50
0.0
 44
0.0
 45
0.0
 49
-13.0
 74
     4
 75
     0
340
0
 46
0.0
 50
0.0
 44
0.0
 45
0.0
 49
13.0
 74
     4
 75
     0
340
0
 46
0.0
 50
0.0
 44
0.0
 45
0.0
 49
-13.0
 74
     4
 75
     0
340
0
 46
0.0
 50
0.0
 44
0.0
 45
0.0
  0
ENDTAB
  0
TABLE
  2
LAYER
  5
2
330
0
100
AcDbSymbolTable
 70
     5
  0
LAYER
  5
10
330
2
100
AcDbSymbolTableRecord
100
AcDbLayerTableRecord
  2
0
 70
     0
 62
     7
  6
CONTINUOUS
  0
LAYER
  5
46
330
2
100
AcDbSymbolTableRecord
100
AcDbLayerTableRecord
  2
1
 70
     0
 62
     7
  6
CONTINUOUS
  0
LAYER
  5
B1
330
2
100
AcDbSymbolTableRecord
100
AcDbLayerTableRecord
  2
255
 70
     0
 62
     7
  6
CONTINUOUS
  0
LAYER
  5
15C
330
2
100
AcDbSymbolTableRecord
100
AcDbLayerTableRecord
  2
256
 70
     0
 62
     7
  6
CONTINUOUS
  0
LAYER
  5
1C6
330
2
100
AcDbSymbolTableRecord
100
AcDbLayerTableRecord
  2
TOP
 70
     0
 62
     7
  6
CONTINUOUS
  0
ENDTAB
  0
TABLE
  2
STYLE
  5
3
330
0
100
AcDbSymbolTable
 70
     4
  0
STYLE
  5
11
330
3
100
AcDbSymbolTableRecord
100
AcDbTextStyleTableRecord
  2
STANDARD
 70
     0
 40
0.0
 41
1.0
 50
0.0
 71
     0
 42
0.2
  3
txt
  4

  0
STYLE
  5
1C4
330
3
100
AcDbSymbolTableRecord
100
AcDbTextStyleTableRecord
  2
DEFAULT
 70
     0
 40
0.0
 41
1.0
 50
0.0
 71
     0
 42
0.2
  3
simplex.shx
  4

  0
STYLE
  5
1C5
330
3
100
AcDbSymbolTableRecord
100
AcDbTextStyleTableRecord
  2
DWGDIRECTTEXTSTYLE
 70
     0
 40
0.0
 41
1.0
 50
0.0
 71
     0
 42
0.2
  3
SIMPLEX
  4
bigfont
  0
STYLE
  5
1D2
330
3
100
AcDbSymbolTableRecord
100
AcDbTextStyleTableRecord
  2
BLOCKFONT
 70
     0
 40
0.0
 41
1.0
 50
0.0
 71
     0
 42
0.2
  3
simplex.shx
  4

  0
ENDTAB
  0
TABLE
  2
VIEW
  5
6
330
0
100
AcDbSymbolTable
 70
     0
  0
ENDTAB
  0
TABLE
  2
UCS
  5
7
330
0
100
AcDbSymbolTable
 70
     0
  0
ENDTAB
  0
TABLE
  2
APPID
  5
9
330
0
100
AcDbSymbolTable
 70
     1
  0
APPID
  5
12
330
9
100
AcDbSymbolTableRecord
100
AcDbRegAppTableRecord
  2
ACAD
 70
     0
  0
ENDTAB
  0
TABLE
  2
DIMSTYLE
  5
A
330
0
100
AcDbSymbolTable
 70
     1
  0
DIMSTYLE
105
27
102
{ACAD_REACTORS
330
231
330
23B
330
243
330
24C
330
257
102
}
330
A
100
AcDbSymbolTableRecord
100
AcDbDimStyleTableRecord
  2
STANDARD
 70
     0
  3

  4

  5

  6

  7

 40
1.0
 41
0.18
 42
0.0625
 43
0.38
 44
0.18
 45
0.0
 46
0.0
 47
0.0
 48
0.0
140
0.18
141
0.09
142
0.0
143
25.4
144
1.0
145
0.0
146
1.0
147
0.09
 71
     0
 72
     0
 73
     1
 74
     1
 75
     0
 76
     0
 77
     0
 78
     0
170
     0
171
     2
172
     0
173
     0
174
     0
175
     0
176
     0
177
     0
178
     0
270
     2
271
     4
272
     4
273
     2
274
     2
340
11
275
     0
280
     0
281
     0
282
     0
283
     1
284
     0
285
     0
286
     0
287
     3
288
     0
  0
ENDTAB
  0
TABLE
  2
BLOCK_RECORD
  5
1
330
0
100
AcDbSymbolTable
 70
     7
  0
BLOCK_RECORD
  5
1F
330
1
100
AcDbSymbolTableRecord
100
AcDbBlockTableRecord
  2
*MODEL_SPACE
  0
BLOCK_RECORD
  5
1B
330
1
100
AcDbSymbolTableRecord
100
AcDbBlockTableRecord
  2
*PAPER_SPACE
  0
BLOCK_RECORD
  5
21E
330
1
100
AcDbSymbolTableRecord
100
AcDbBlockTableRecord
  2
DIMNDRAFT3D11
  0
BLOCK_RECORD
  5
229
330
1
100
AcDbSymbolTableRecord
100
AcDbBlockTableRecord
  2
DIMNDRAFT3D2
  0
BLOCK_RECORD
  5
232
330
1
100
AcDbSymbolTableRecord
100
AcDbBlockTableRecord
  2
DIMNDRAFT3D3
  0
BLOCK_RECORD
  5
23C
330
1
100
AcDbSymbolTableRecord
100
AcDbBlockTableRecord
  2
DIMNDRAFT3D4
  0
BLOCK_RECORD
  5
244
330
1
100
AcDbSymbolTableRecord
100
AcDbBlockTableRecord
  2
DIMNDRAFT3D5
  0
BLOCK_RECORD
  5
24D
330
1
100
AcDbSymbolTableRecord
100
AcDbBlockTableRecord
  2
DIMNDRAFT3D6
  0
ENDTAB
  0
ENDSEC
  0
SECTION
  2
BLOCKS
  0
BLOCK
  5
20
330
1F
100
AcDbEntity
  8
0
100
AcDbBlockBegin
  2
*MODEL_SPACE
 70
     0
 10
0.0
 20
0.0
 30
0.0
  3
*MODEL_SPACE
  1

  0
ENDBLK
  5
21
330
1F
100
AcDbEntity
  8
0
100
AcDbBlockEnd
  0
BLOCK
  5
1C
330
1B
100
AcDbEntity
 67
     1
  8
0
100
AcDbBlockBegin
  2
*PAPER_SPACE
 70
     0
 10
0.0
 20
0.0
 30
0.0
  3
*PAPER_SPACE
  1

  0
ENDBLK
  5
1D
330
1B
100
AcDbEntity
 67
     1
  8
0
100
AcDbBlockEnd
  0
BLOCK
  5
21F
330
21E
100
AcDbEntity
  8
0
100
AcDbBlockBegin
  2
DIMNDRAFT3D11
 70
     0
 10
0.0
 20
0.0
 30
0.0
  3
DIMNDRAFT3D11
  1

  0
LINE
  5
221
330
21E
100
AcDbEntity
  8
255
  6
CONTINUOUS
 62
     3
100
AcDbLine
 10
287.2746
 20
210.046738
 30
0.0
 11
287.2746
 21
138.246037
 31
0.0
  0
LINE
  5
222
330
21E
100
AcDbEntity
  8
255
  6
CONTINUOUS
 62
     3
100
AcDbLine
 10
188.682017
 20
217.98769
 30
0.0
 11
188.682017
 21
138.246037
 31
0.0
  0
LINE
  5
223
330
21E
100
AcDbEntity
  8
255
  6
CONTINUOUS
 62
     3
100
AcDbLine
 10
287.2746
 20
140.246037
 30
0.0
 11
188.682017
 21
140.246037
 31
0.0
  0
SOLID
  5
224
330
21E
100
AcDbEntity
  8
255
  6
CONTINUOUS
 62
     3
100
AcDbTrace
 10
287.2746
 20
140.246037
 30
0.0
 11
283.774603
 21
139.308215
 31
0.0
 12
283.774596
 22
141.183859
 32
0.0
 13
287.2746
 23
140.246037
 33
0.0
  0
SOLID
  5
225
330
21E
100
AcDbEntity
  8
255
  6
CONTINUOUS
 62
     3
100
AcDbTrace
 10
188.682017
 20
140.246037
 30
0.0
 11
192.182014
 21
141.183859
 31
0.0
 12
192.182021
 22
139.308215
 32
0.0
 13
188.682017
 23
140.246037
 33
0.0
  0
MTEXT
  5
226
330
21E
100
AcDbEntity
  8
255
  6
CONTINUOUS
 62
     3
100
AcDbMText
 10
227.71956
 20
144.912988
 30
0.0
 40
3.5
 41
0.0
 71
     7
 72
     5
  1
\W00.798;98,6 
  7
DEFAULT
1001
ACAD
1000
MTEXTBEGIN
1070
    73
1070
     2
1070
    44
1040
0.903614
1000
MTEXTEND
1000
ACAD_MTEXT_DEFINED_HEIGHT_BEGIN
1070
    46
1040
0.2
1000
ACAD_MTEXT_DEFINED_HEIGHT_END
  0
MTEXT
  5
227
330
21E
100
AcDbEntity
  8
255
  6
CONTINUOUS
 62
     3
100
AcDbMText
 10
240.184322
 20
145.496037
 30
0.0
 40
3.5
 41
0.0
 71
     7
 72
     5
  1
\A1;\W00.795;\A1;\S+0,0^ -1,0; 
  7
DEFAULT
1001
ACAD
1000
MTEXTBEGIN
1070
    73
1070
     2
1070
    44
1040
0.903614
1000
MTEXTEND
1000
ACAD_MTEXT_DEFINED_HEIGHT_BEGIN
1070
    46
1040
0.2
1000
ACAD_MTEXT_DEFINED_HEIGHT_END
  0
ENDBLK
  5
220
330
21E
100
AcDbEntity
  8
0
100
AcDbBlockEnd
  0
BLOCK
  5
22F
330
229
100
AcDbEntity
  8
0
100
AcDbBlockBegin
  2
DIMNDRAFT3D2
 70
     0
 10
0.0
 20
0.0
 30
0.0
  3
DIMNDRAFT3D2
  1

  0
MTEXT
  5
22A
330
229
100
AcDbEntity
  8
255
  6
CONTINUOUS
 62
     3
100
AcDbMText
 10
113.241987
 20
167.174642
 30
0.0
 40
3.5
 41
0.0
 71
     7
 72
     5
  1
\W01.000;\W00.842;86 
  7
DEFAULT
 11
0.7146647086557602
 21
0.6994671930848347
 31
0.0
1001
ACAD
1000
MTEXTBEGIN
1070
    73
1070
     2
1070
    44
1040
0.903614
1000
MTEXTEND
1000
ACAD_MTEXT_DEFINED_HEIGHT_BEGIN
1070
    46
1040
0.2
1000
ACAD_MTEXT_DEFINED_HEIGHT_END
  0
MTEXT
  5
22B
330
229
100
AcDbEntity
  8
255
  6
CONTINUOUS
 62
     3
100
AcDbMText
 10
108.239334
 20
162.278371
 30
0.0
 40
3.5
 41
0.0
 71
     7
 72
     5
  1
\W01.000;%%c 
  7
DEFAULT
 11
0.7146647086557602
 21
0.6994671930848347
 31
0.0
1001
ACAD
1000
MTEXTBEGIN
1070
    73
1070
     2
1070
    44
1040
0.903614
1000
MTEXTEND
1000
ACAD_MTEXT_DEFINED_HEIGHT_BEGIN
1070
    46
1040
0.2
1000
ACAD_MTEXT_DEFINED_HEIGHT_END
  0
LINE
  5
22C
330
229
100
AcDbEntity
  8
255
  6
CONTINUOUS
 62
     3
100
AcDbLine
 10
161.368824
 20
212.236669
 30
0.0
 11
99.907659
 21
152.08249
 31
0.0
  0
SOLID
  5
22D
330
229
100
AcDbEntity
  8
255
  6
CONTINUOUS
 62
     3
100
AcDbTrace
 10
161.368824
 20
212.236669
 30
0.0
 11
159.523476
 21
209.118308
 31
0.0
 12
158.211519
 22
210.45876
 32
0.0
 13
161.368824
 23
212.236669
 33
0.0
  0
SOLID
  5
22E
330
229
100
AcDbEntity
  8
255
  6
CONTINUOUS
 62
     3
100
AcDbTrace
 10
99.907659
 20
152.08249
 30
0.0
 11
101.753007
 21
155.200851
 31
0.0
 12
103.064964
 22
153.860399
 32
0.0
 13
99.907659
 23
152.08249
 33
0.0
  0
ENDBLK
  5
230
330
229
100
AcDbEntity
  8
0
100
AcDbBlockEnd
  0
BLOCK
  5
239
330
232
100
AcDbEntity
  8
0
100
AcDbBlockBegin
  2
DIMNDRAFT3D3
 70
     0
 10
0.0
 20
0.0
 30
0.0
  3
DIMNDRAFT3D3
  1

  0
MTEXT
  5
233
330
232
100
AcDbEntity
  8
255
  6
CONTINUOUS
 62
     3
100
AcDbMText
 10
64.780149
 20
163.270613
 30
0.0
 40
3.5
 41
0.0
 71
     7
 72
     5
  1
\W01.000;\W00.919;90%%d 
  7
DEFAULT
 11
0.7071067811865468
 21
-0.7071067811865483
 31
0.0
1001
ACAD
1000
MTEXTBEGIN
1070
    73
1070
     2
1070
    44
1040
0.903614
1000
MTEXTEND
1000
ACAD_MTEXT_DEFINED_HEIGHT_BEGIN
1070
    46
1040
0.2
1000
ACAD_MTEXT_DEFINED_HEIGHT_END
  0
LINE
  5
234
330
232
100
AcDbEntity
  8
255
  6
CONTINUOUS
 62
     3
100
AcDbLine
 10
29.579008
 20
177.15958
 30
0.0
 11
61.518996
 21
177.15958
 31
0.0
  0
LINE
  5
235
330
232
100
AcDbEntity
  8
255
  6
CONTINUOUS
 62
     3
100
AcDbLine
 10
82.34195
 20
169.218627
 30
0.0
 11
82.34195
 21
152.336626
 31
0.0
  0
ARC
  5
236
330
232
100
AcDbEntity
  8
255
  6
CONTINUOUS
 62
     3
100
AcDbCircle
 10
82.34195
 20
177.15958
 30
0.0
 40
22.82295388547796
100
AcDbArc
 50
180.0
 51
270.0
  0
SOLID
  5
237
330
232
100
AcDbEntity
  8
255
  6
CONTINUOUS
 62
     3
100
AcDbTrace
 10
59.518996
 20
177.15958
 30
0.0
 11
60.590022
 21
173.698021
 31
0.0
 12
58.715751
 22
173.626262
 32
0.0
 13
59.518996
 23
177.15958
 33
0.0
  0
SOLID
  5
238
330
232
100
AcDbEntity
  8
255
  6
CONTINUOUS
 62
     3
100
AcDbTrace
 10
82.34195
 20
154.336626
 30
0.0
 11
78.80864
 21
153.53338
 31
0.0
 12
78.880385
 22
155.407652
 32
0.0
 13
82.34195
 23
154.336626
 33
0.0
  0
ENDBLK
  5
23A
330
232
100
AcDbEntity
  8
0
100
AcDbBlockEnd
  0
BLOCK
  5
241
330
23C
100
AcDbEntity
  8
0
100
AcDbBlockBegin
  2
DIMNDRAFT3D4
 70
     0
 10
0.0
 20
0.0
 30
0.0
  3
DIMNDRAFT3D4
  1

  0
MTEXT
  5
23D
330
23C
100
AcDbEntity
  8
255
  6
CONTINUOUS
 62
     3
100
AcDbMText
 10
339.402969
 20
199.16062
 30
0.0
 40
3.5
 41
0.0
 71
     7
 72
     5
  1
\W01.000;\W00.919;90%%d 
  7
DEFAULT
 11
0.7071067811865469
 21
0.7071067811865481
 31
0.0
1001
ACAD
1000
MTEXTBEGIN
1070
    73
1070
     2
1070
    44
1040
0.903614
1000
MTEXTEND
1000
ACAD_MTEXT_DEFINED_HEIGHT_BEGIN
1070
    46
1040
0.2
1000
ACAD_MTEXT_DEFINED_HEIGHT_END
  0
ARC
  5
23E
330
23C
100
AcDbEntity
  8
255
  6
CONTINUOUS
 62
     3
100
AcDbCircle
 10
359.007562
 20
183.228862
 30
0.0
 40
24.54409162497589
100
AcDbArc
 50
90.0
 51
180.0
  0
SOLID
  5
23F
330
23C
100
AcDbEntity
  8
255
  6
CONTINUOUS
 62
     3
100
AcDbTrace
 10
359.007562
 20
207.772954
 30
0.0
 11
355.543151
 21
206.711188
 31
0.0
 12
355.476405
 22
208.585644
 32
0.0
 13
359.007562
 23
207.772954
 33
0.0
  0
SOLID
  5
240
330
23C
100
AcDbEntity
  8
255
  6
CONTINUOUS
 62
     3
100
AcDbTrace
 10
334.46347
 20
183.228862
 30
0.0
 11
333.65078
 21
186.760013
 31
0.0
 12
335.525237
 22
186.69328
 32
0.0
 13
334.46347
 23
183.228862
 33
0.0
  0
ENDBLK
  5
242
330
23C
100
AcDbEntity
  8
0
100
AcDbBlockEnd
  0
BLOCK
  5
24A
330
244
100
AcDbEntity
  8
0
100
AcDbBlockBegin
  2
DIMNDRAFT3D5
 70
     0
 10
0.0
 20
0.0
 30
0.0
  3
DIMNDRAFT3D5
  1

  0
MTEXT
  5
245
330
244
100
AcDbEntity
  8
255
  6
CONTINUOUS
 62
     3
100
AcDbMText
 10
49.367099
 20
197.345707
 30
0.0
 40
3.5
 41
0.0
 71
     7
 72
     5
  1
\W01.000;\W00.842;10 
  7
DEFAULT
 11
6.123031769111886E-17
 21
1.0
 31
0.0
1001
ACAD
1000
MTEXTBEGIN
1070
    73
1070
     2
1070
    44
1040
0.903614
1000
MTEXTEND
1000
ACAD_MTEXT_DEFINED_HEIGHT_BEGIN
1070
    46
1040
0.2
1000
ACAD_MTEXT_DEFINED_HEIGHT_END
  0
LINE
  5
246
330
244
100
AcDbEntity
  8
255
  6
CONTINUOUS
 62
     3
100
AcDbLine
 10
29.579008
 20
177.15958
 30
0.0
 11
51.951002
 21
177.15958
 31
0.0
  0
LINE
  5
247
330
244
100
AcDbEntity
  8
255
  6
CONTINUOUS
 62
     3
100
AcDbLine
 10
49.951002
 20
201.711592
 30
0.0
 11
49.951002
 21
168.40958
 31
0.0
  0
SOLID
  5
248
330
244
100
AcDbEntity
  8
255
  6
CONTINUOUS
 62
     3
100
AcDbTrace
 10
49.951002
 20
177.15958
 30
0.0
 11
50.888824
 21
173.659583
 31
0.0
 12
49.01318
 22
173.659576
 32
0.0
 13
49.951002
 23
177.15958
 33
0.0
  0
SOLID
  5
249
330
244
100
AcDbEntity
  8
255
  6
CONTINUOUS
 62
     3
100
AcDbTrace
 10
49.951002
 20
187.15958
 30
0.0
 11
49.01318
 21
190.659576
 31
0.0
 12
50.888824
 22
190.659583
 32
0.0
 13
49.951002
 23
187.15958
 33
0.0
  0
ENDBLK
  5
24B
330
244
100
AcDbEntity
  8
0
100
AcDbBlockEnd
  0
BLOCK
  5
255
330
24D
100
AcDbEntity
  8
0
100
AcDbBlockBegin
  2
DIMNDRAFT3D6
 70
     0
 10
0.0
 20
0.0
 30
0.0
  3
DIMNDRAFT3D6
  1

  0
MTEXT
  5
24E
330
24D
100
AcDbEntity
  8
255
  6
CONTINUOUS
 62
     3
100
AcDbMText
 10
324.625457
 20
241.56126
 30
0.0
 40
3.5
 41
0.0
 71
     7
 72
     5
  1
\W01.000;\W00.803;51,2 
  7
DEFAULT
1001
ACAD
1000
MTEXTBEGIN
1070
    73
1070
     2
1070
    44
1040
0.903614
1000
MTEXTEND
1000
ACAD_MTEXT_DEFINED_HEIGHT_BEGIN
1070
    46
1040
0.2
1000
ACAD_MTEXT_DEFINED_HEIGHT_END
  0
MTEXT
  5
24F
330
24D
100
AcDbEntity
  8
255
  6
CONTINUOUS
 62
     3
100
AcDbMText
 10
337.136932
 20
242.144309
 30
0.0
 40
3.5
 41
0.0
 71
     7
 72
     5
  1
\W01.000;\A1;\W00.795;\A1;\S+0,5^ -0,0; 
  7
DEFAULT
1001
ACAD
1000
MTEXTBEGIN
1070
    73
1070
     2
1070
    44
1040
0.903614
1000
MTEXTEND
1000
ACAD_MTEXT_DEFINED_HEIGHT_BEGIN
1070
    46
1040
0.2
1000
ACAD_MTEXT_DEFINED_HEIGHT_END
  0
LINE
  5
250
330
24D
100
AcDbEntity
  8
255
  6
CONTINUOUS
 62
     3
100
AcDbLine
 10
309.307562
 20
227.98769
 30
0.0
 11
309.307562
 21
238.894309
 31
0.0
  0
LINE
  5
251
330
24D
100
AcDbEntity
  8
255
  6
CONTINUOUS
 62
     3
100
AcDbLine
 10
360.507562
 20
231.958166
 30
0.0
 11
360.507562
 21
238.894309
 31
0.0
  0
LINE
  5
252
330
24D
100
AcDbEntity
  8
255
  6
CONTINUOUS
 62
     3
100
AcDbLine
 10
300.557562
 20
236.894309
 30
0.0
 11
369.257562
 21
236.894309
 31
0.0
  0
SOLID
  5
253
330
24D
100
AcDbEntity
  8
255
  6
CONTINUOUS
 62
     3
100
AcDbTrace
 10
309.307562
 20
236.894309
 30
0.0
 11
305.807565
 21
235.956487
 31
0.0
 12
305.807558
 22
237.832131
 32
0.0
 13
309.307562
 23
236.894309
 33
0.0
  0
SOLID
  5
254
330
24D
100
AcDbEntity
  8
255
  6
CONTINUOUS
 62
     3
100
AcDbTrace
 10
360.507562
 20
236.894309
 30
0.0
 11
364.007558
 21
237.832131
 31
0.0
 12
364.007565
 22
235.956487
 32
0.0
 13
360.507562
 23
236.894309
 33
0.0
  0
ENDBLK
  5
256
330
24D
100
AcDbEntity
  8
0
100
AcDbBlockEnd
  0
ENDSEC
  0
SECTION
  2
ENTITIES
  0
LINE
  5
45
330
1F
100
AcDbEntity
  8
1
  6
CONTINUOUS
 62
     2
100
AcDbLine
 10
190.682017
 20
227.98769
 30
0.0
 11
190.682017
 21
217.98769
 31
0.0
  0
LINE
  5
47
330
1F
100
AcDbEntity
  8
1
  6
CONTINUOUS
 62
     2
100
AcDbLine
 10
190.682017
 20
217.98769
 30
0.0
 11
190.682017
 21
210.046738
 31
0.0
  0
LINE
  5
48
330
1F
100
AcDbEntity
  8
1
  6
CONTINUOUS
 62
     2
100
AcDbLine
 10
258.796327
 20
267.313505
 30
0.0
 11
259.796327
 21
269.045556
 31
0.0
  0
LINE
  5
49
330
1F
100
AcDbEntity
  8
1
  6
CONTINUOUS
 62
     2
100
AcDbLine
 10
268.456581
 20
181.929824
 30
0.0
 11
259.796327
 21
176.929824
 31
0.0
  0
LINE
  5
4A
330
1F
100
AcDbEntity
  8
1
  6
CONTINUOUS
 62
     2
100
AcDbLine
 10
259.796327
 20
176.929824
 30
0.0
 11
258.796327
 21
178.661875
 31
0.0
  0
LINE
  5
4B
330
1F
100
AcDbEntity
  8
1
  6
CONTINUOUS
 62
     2
100
AcDbLine
 10
190.682017
 20
217.98769
 30
0.0
 11
188.682017
 21
217.98769
 31
0.0
  0
LINE
  5
4C
330
1F
100
AcDbEntity
  8
1
  6
CONTINUOUS
 62
     2
100
AcDbLine
 10
226.037356
 20
174.691399
 30
0.0
 11
251.919261
 21
174.691399
 31
0.0
  0
LINE
  5
4D
330
1F
100
AcDbEntity
  8
1
  6
CONTINUOUS
 62
     2
100
AcDbLine
 10
188.682017
 20
217.98769
 30
0.0
 11
188.682017
 21
227.98769
 31
0.0
  0
LINE
  5
4E
330
1F
100
AcDbEntity
  8
1
  6
CONTINUOUS
 62
     2
100
AcDbLine
 10
188.682017
 20
227.98769
 30
0.0
 11
190.682017
 21
227.98769
 31
0.0
  0
LINE
  5
4F
330
1F
100
AcDbEntity
  8
1
  6
CONTINUOUS
 62
     2
100
AcDbLine
 10
190.682017
 20
210.046738
 30
0.0
 11
203.622969
 21
187.632351
 31
0.0
  0
LINE
  5
50
330
1F
100
AcDbEntity
  8
1
  6
CONTINUOUS
 62
     2
100
AcDbLine
 10
267.456581
 20
262.313505
 30
0.0
 11
258.796327
 21
267.313505
 31
0.0
  0
LINE
  5
51
330
1F
100
AcDbEntity
  8
1
  6
CONTINUOUS
 62
     2
100
AcDbLine
 10
190.682017
 20
235.928643
 30
0.0
 11
190.682017
 21
227.98769
 31
0.0
  0
LINE
  5
52
330
1F
100
AcDbEntity
  8
1
  6
CONTINUOUS
 62
     2
100
AcDbLine
 10
203.622969
 20
258.343029
 30
0.0
 11
190.682017
 21
235.928643
 31
0.0
  0
LINE
  5
53
330
1F
100
AcDbEntity
  8
1
  6
CONTINUOUS
 62
     2
100
AcDbLine
 10
226.037356
 20
271.283982
 30
0.0
 11
203.622969
 21
258.343029
 31
0.0
  0
LINE
  5
54
330
1F
100
AcDbEntity
  8
1
  6
CONTINUOUS
 62
     2
100
AcDbLine
 10
251.919261
 20
271.283982
 30
0.0
 11
226.037356
 21
271.283982
 31
0.0
  0
LINE
  5
55
330
1F
100
AcDbEntity
  8
1
  6
CONTINUOUS
 62
     2
100
AcDbLine
 10
258.796327
 20
267.313505
 30
0.0
 11
251.919261
 21
271.283982
 31
0.0
  0
LINE
  5
56
330
1F
100
AcDbEntity
  8
1
  6
CONTINUOUS
 62
     2
100
AcDbLine
 10
258.796327
 20
178.661875
 30
0.0
 11
267.456581
 21
183.661875
 31
0.0
  0
LINE
  5
57
330
1F
100
AcDbEntity
  8
1
  6
CONTINUOUS
 62
     2
100
AcDbLine
 10
274.333647
 20
258.343029
 30
0.0
 11
267.456581
 21
262.313505
 31
0.0
  0
LINE
  5
58
330
1F
100
AcDbEntity
  8
1
  6
CONTINUOUS
 62
     2
100
AcDbLine
 10
287.2746
 20
235.928643
 30
0.0
 11
274.333647
 21
258.343029
 31
0.0
  0
LINE
  5
59
330
1F
100
AcDbEntity
  8
1
  6
CONTINUOUS
 62
     2
100
AcDbLine
 10
287.2746
 20
210.046738
 30
0.0
 11
287.2746
 21
235.928643
 31
0.0
  0
LINE
  5
5A
330
1F
100
AcDbEntity
  8
1
  6
CONTINUOUS
 62
     2
100
AcDbLine
 10
274.333647
 20
187.632351
 30
0.0
 11
287.2746
 21
210.046738
 31
0.0
  0
LINE
  5
5B
330
1F
100
AcDbEntity
  8
1
  6
CONTINUOUS
 62
     2
100
AcDbLine
 10
203.622969
 20
187.632351
 30
0.0
 11
226.037356
 21
174.691399
 31
0.0
  0
LINE
  5
5C
330
1F
100
AcDbEntity
  8
1
  6
CONTINUOUS
 62
     2
100
AcDbLine
 10
267.456581
 20
183.661875
 30
0.0
 11
274.333647
 21
187.632351
 31
0.0
  0
LINE
  5
5D
330
1F
100
AcDbEntity
  8
1
  6
CONTINUOUS
 62
     2
100
AcDbLine
 10
251.919261
 20
174.691399
 30
0.0
 11
258.796327
 21
178.661875
 31
0.0
  0
LINE
  5
5E
330
1F
100
AcDbEntity
  8
1
  6
CONTINUOUS
 62
     2
100
AcDbLine
 10
259.796327
 20
269.045556
 30
0.0
 11
268.456581
 21
264.045556
 31
0.0
  0
LINE
  5
5F
330
1F
100
AcDbEntity
  8
1
  6
CONTINUOUS
 62
     2
100
AcDbLine
 10
268.456581
 20
264.045556
 30
0.0
 11
267.456581
 21
262.313505
 31
0.0
  0
LINE
  5
60
330
1F
100
AcDbEntity
  8
1
  6
CONTINUOUS
 62
     2
100
AcDbLine
 10
267.456581
 20
183.661875
 30
0.0
 11
268.456581
 21
181.929824
 31
0.0
  0
LINE
  5
61
330
1F
100
AcDbEntity
  8
1
  6
CONTINUOUS
 62
     2
100
AcDbLine
 10
307.307562
 20
217.98769
 30
0.0
 11
306.607562
 21
217.98769
 31
0.0
  0
LINE
  5
62
330
1F
100
AcDbEntity
  8
1
  6
CONTINUOUS
 62
     2
100
AcDbLine
 10
306.607562
 20
227.98769
 30
0.0
 11
307.307562
 21
227.98769
 31
0.0
  0
LINE
  5
63
330
1F
100
AcDbEntity
  8
1
  6
CONTINUOUS
 62
     2
100
AcDbLine
 10
360.507562
 20
227.98769
 30
0.0
 11
360.507562
 21
217.98769
 31
0.0
  0
LINE
  5
64
330
1F
100
AcDbEntity
  8
1
  6
CONTINUOUS
 62
     2
100
AcDbLine
 10
360.507562
 20
217.98769
 30
0.0
 11
360.507562
 21
210.046738
 31
0.0
  0
LINE
  5
65
330
1F
100
AcDbEntity
  8
1
  6
CONTINUOUS
 62
     2
100
AcDbLine
 10
360.507562
 20
217.98769
 30
0.0
 11
358.507562
 21
217.98769
 31
0.0
  0
LINE
  5
66
330
1F
100
AcDbEntity
  8
1
  6
CONTINUOUS
 62
     2
100
AcDbLine
 10
358.507562
 20
217.98769
 30
0.0
 11
358.507562
 21
227.98769
 31
0.0
  0
LINE
  5
67
330
1F
100
AcDbEntity
  8
1
  6
CONTINUOUS
 62
     2
100
AcDbLine
 10
358.507562
 20
227.98769
 30
0.0
 11
360.507562
 21
227.98769
 31
0.0
  0
LINE
  5
68
330
1F
100
AcDbEntity
  8
1
  6
CONTINUOUS
 62
     2
100
AcDbLine
 10
360.507562
 20
210.046738
 30
0.0
 11
360.507562
 21
187.632351
 31
0.0
  0
LINE
  5
69
330
1F
100
AcDbEntity
  8
1
  6
CONTINUOUS
 62
     2
100
AcDbLine
 10
360.507562
 20
235.928643
 30
0.0
 11
360.507562
 21
227.98769
 31
0.0
  0
LINE
  5
6A
330
1F
100
AcDbEntity
  8
1
  6
CONTINUOUS
 62
     2
100
AcDbLine
 10
360.507562
 20
258.343029
 30
0.0
 11
360.507562
 21
235.928643
 31
0.0
  0
LINE
  5
6B
330
1F
100
AcDbEntity
  8
1
  6
CONTINUOUS
 62
     2
100
AcDbLine
 10
360.507562
 20
271.283982
 30
0.0
 11
360.507562
 21
258.343029
 31
0.0
  0
LINE
  5
6C
330
1F
100
AcDbEntity
  8
1
  6
CONTINUOUS
 62
     2
100
AcDbLine
 10
360.507562
 20
187.632351
 30
0.0
 11
360.507562
 21
174.691399
 31
0.0
  0
LINE
  5
6D
330
1F
100
AcDbEntity
  8
1
  6
CONTINUOUS
 62
     2
100
AcDbLine
 10
360.507562
 20
235.928643
 30
0.0
 11
359.007562
 21
235.928643
 31
0.0
  0
LINE
  5
6E
330
1F
100
AcDbEntity
  8
1
  6
CONTINUOUS
 62
     2
100
AcDbLine
 10
360.507562
 20
258.343029
 30
0.0
 11
359.007562
 21
258.343029
 31
0.0
  0
LINE
  5
6F
330
1F
100
AcDbEntity
  8
1
  6
CONTINUOUS
 62
     2
100
AcDbLine
 10
360.507562
 20
210.046738
 30
0.0
 11
359.007562
 21
210.046738
 31
0.0
  0
LINE
  5
70
330
1F
100
AcDbEntity
  8
1
  6
CONTINUOUS
 62
     2
100
AcDbLine
 10
360.507562
 20
271.283982
 30
0.0
 11
359.007562
 21
271.283982
 31
0.0
  0
LINE
  5
71
330
1F
100
AcDbEntity
  8
1
  6
CONTINUOUS
 62
     2
100
AcDbLine
 10
360.507562
 20
187.632351
 30
0.0
 11
359.007562
 21
187.632351
 31
0.0
  0
LINE
  5
72
330
1F
100
AcDbEntity
  8
1
  6
CONTINUOUS
 62
     2
100
AcDbLine
 10
360.507562
 20
174.691399
 30
0.0
 11
359.007562
 21
174.691399
 31
0.0
  0
LINE
  5
73
330
1F
100
AcDbEntity
  8
1
  6
CONTINUOUS
 62
     2
100
AcDbLine
 10
359.007562
 20
174.691399
 30
0.0
 11
359.007562
 21
187.632351
 31
0.0
  0
LINE
  5
74
330
1F
100
AcDbEntity
  8
1
  6
CONTINUOUS
 62
     2
100
AcDbLine
 10
359.007562
 20
187.632351
 30
0.0
 11
359.007562
 21
210.046738
 31
0.0
  0
LINE
  5
75
330
1F
100
AcDbEntity
  8
1
  6
CONTINUOUS
 62
     2
100
AcDbLine
 10
359.007562
 20
258.343029
 30
0.0
 11
359.007562
 21
271.283982
 31
0.0
  0
LINE
  5
76
330
1F
100
AcDbEntity
  8
1
  6
CONTINUOUS
 62
     2
100
AcDbLine
 10
359.007562
 20
235.928643
 30
0.0
 11
359.007562
 21
258.343029
 31
0.0
  0
LINE
  5
77
330
1F
100
AcDbEntity
  8
1
  6
CONTINUOUS
 62
     2
100
AcDbLine
 10
359.007562
 20
227.98769
 30
0.0
 11
359.007562
 21
235.928643
 31
0.0
  0
LINE
  5
78
330
1F
100
AcDbEntity
  8
1
  6
CONTINUOUS
 62
     2
100
AcDbLine
 10
359.007562
 20
210.046738
 30
0.0
 11
359.007562
 21
217.98769
 31
0.0
  0
LINE
  5
79
330
1F
100
AcDbEntity
  8
1
  6
CONTINUOUS
 62
     2
100
AcDbLine
 10
358.507562
 20
267.746518
 30
0.0
 11
358.507562
 21
262.746518
 31
0.0
  0
LINE
  5
7A
330
1F
100
AcDbEntity
  8
1
  6
CONTINUOUS
 62
     2
100
AcDbLine
 10
358.507562
 20
183.228862
 30
0.0
 11
358.507562
 21
178.228862
 31
0.0
  0
LINE
  5
7B
330
1F
100
AcDbEntity
  8
1
  6
CONTINUOUS
 62
     2
100
AcDbLine
 10
306.607562
 20
269.045556
 30
0.0
 11
307.307562
 21
269.045556
 31
0.0
  0
LINE
  5
7C
330
1F
100
AcDbEntity
  8
1
  6
CONTINUOUS
 62
     2
100
AcDbLine
 10
306.607562
 20
267.746518
 30
0.0
 11
307.307562
 21
267.746518
 31
0.0
  0
LINE
  5
7D
330
1F
100
AcDbEntity
  8
1
  6
CONTINUOUS
 62
     2
100
AcDbLine
 10
307.307562
 20
262.746518
 30
0.0
 11
306.607562
 21
262.746518
 31
0.0
  0
LINE
  5
7E
330
1F
100
AcDbEntity
  8
1
  6
CONTINUOUS
 62
     2
100
AcDbLine
 10
307.307562
 20
178.228862
 30
0.0
 11
306.607562
 21
178.228862
 31
0.0
  0
LINE
  5
7F
330
1F
100
AcDbEntity
  8
1
  6
CONTINUOUS
 62
     2
100
AcDbLine
 10
306.607562
 20
183.228862
 30
0.0
 11
307.307562
 21
183.228862
 31
0.0
  0
LINE
  5
80
330
1F
100
AcDbEntity
  8
1
  6
CONTINUOUS
 62
     2
100
AcDbLine
 10
307.307562
 20
176.929824
 30
0.0
 11
306.607562
 21
176.929824
 31
0.0
  0
LINE
  5
81
330
1F
100
AcDbEntity
  8
1
  6
CONTINUOUS
 62
     2
100
AcDbLine
 10
296.607562
 20
178.728862
 30
0.0
 11
296.607562
 21
182.728862
 31
0.0
  0
LINE
  5
82
330
1F
100
AcDbEntity
  8
1
  6
CONTINUOUS
 62
     2
100
AcDbLine
 10
296.607562
 20
263.246518
 30
0.0
 11
296.607562
 21
267.246518
 31
0.0
  0
LINE
  5
83
330
1F
100
AcDbEntity
  8
1
  6
CONTINUOUS
 62
     2
100
AcDbLine
 10
296.607562
 20
218.98769
 30
0.0
 11
296.607562
 21
226.98769
 31
0.0
  0
LINE
  5
84
330
1F
100
AcDbEntity
  8
1
  6
CONTINUOUS
 62
     2
100
AcDbLine
 10
358.507562
 20
262.746518
 30
0.0
 11
309.307562
 21
262.746518
 31
0.0
  0
LINE
  5
85
330
1F
100
AcDbEntity
  8
1
  6
CONTINUOUS
 62
     2
100
AcDbLine
 10
309.307562
 20
267.746518
 30
0.0
 11
358.507562
 21
267.746518
 31
0.0
  0
LINE
  5
86
330
1F
100
AcDbEntity
  8
1
  6
CONTINUOUS
 62
     2
100
AcDbLine
 10
358.507562
 20
176.929824
 30
0.0
 11
309.307562
 21
176.929824
 31
0.0
  0
LINE
  5
87
330
1F
100
AcDbEntity
  8
1
  6
CONTINUOUS
 62
     2
100
AcDbLine
 10
309.307562
 20
227.98769
 30
0.0
 11
358.507562
 21
227.98769
 31
0.0
  0
LINE
  5
88
330
1F
100
AcDbEntity
  8
1
  6
CONTINUOUS
 62
     2
100
AcDbLine
 10
358.507562
 20
217.98769
 30
0.0
 11
309.307562
 21
217.98769
 31
0.0
  0
LINE
  5
89
330
1F
100
AcDbEntity
  8
1
  6
CONTINUOUS
 62
     2
100
AcDbLine
 10
309.307562
 20
269.045556
 30
0.0
 11
358.507562
 21
269.045556
 31
0.0
  0
LINE
  5
8A
330
1F
100
AcDbEntity
  8
1
  6
CONTINUOUS
 62
     2
100
AcDbLine
 10
358.507562
 20
178.228862
 30
0.0
 11
309.307562
 21
178.228862
 31
0.0
  0
LINE
  5
8B
330
1F
100
AcDbEntity
  8
1
  6
CONTINUOUS
 62
     2
100
AcDbLine
 10
309.307562
 20
183.228862
 30
0.0
 11
358.507562
 21
183.228862
 31
0.0
  0
LINE
  5
8C
330
1F
100
AcDbEntity
  8
1
  6
CONTINUOUS
 62
     2
100
AcDbLine
 10
309.307562
 20
267.746518
 30
0.0
 11
309.307562
 21
265.496518
 31
0.0
  0
LINE
  5
8D
330
1F
100
AcDbEntity
  8
1
  6
CONTINUOUS
 62
     2
100
AcDbLine
 10
309.307562
 20
269.045556
 30
0.0
 11
309.307562
 21
267.746518
 31
0.0
  0
LINE
  5
8E
330
1F
100
AcDbEntity
  8
1
  6
CONTINUOUS
 62
     2
100
AcDbLine
 10
309.307562
 20
266.795556
 30
0.0
 11
307.307562
 21
266.795556
 31
0.0
  0
LINE
  5
8F
330
1F
100
AcDbEntity
  8
1
  6
CONTINUOUS
 62
     2
100
AcDbLine
 10
309.307562
 20
265.496518
 30
0.0
 11
307.307562
 21
265.496518
 31
0.0
  0
LINE
  5
90
330
1F
100
AcDbEntity
  8
1
  6
CONTINUOUS
 62
     2
100
AcDbLine
 10
309.307562
 20
183.228862
 30
0.0
 11
309.307562
 21
180.978862
 31
0.0
  0
LINE
  5
91
330
1F
100
AcDbEntity
  8
1
  6
CONTINUOUS
 62
     2
100
AcDbLine
 10
307.307562
 20
264.996518
 30
0.0
 11
309.307562
 21
264.996518
 31
0.0
  0
LINE
  5
92
330
1F
100
AcDbEntity
  8
1
  6
CONTINUOUS
 62
     2
100
AcDbLine
 10
309.307562
 20
264.996518
 30
0.0
 11
309.307562
 21
262.746518
 31
0.0
  0
LINE
  5
93
330
1F
100
AcDbEntity
  8
1
  6
CONTINUOUS
 62
     2
100
AcDbLine
 10
309.307562
 20
217.98769
 30
0.0
 11
309.307562
 21
222.48769
 31
0.0
  0
LINE
  5
94
330
1F
100
AcDbEntity
  8
1
  6
CONTINUOUS
 62
     2
100
AcDbLine
 10
309.307562
 20
180.978862
 30
0.0
 11
307.307562
 21
180.978862
 31
0.0
  0
LINE
  5
95
330
1F
100
AcDbEntity
  8
1
  6
CONTINUOUS
 62
     2
100
AcDbLine
 10
307.307562
 20
180.478862
 30
0.0
 11
309.307562
 21
180.478862
 31
0.0
  0
LINE
  5
96
330
1F
100
AcDbEntity
  8
1
  6
CONTINUOUS
 62
     2
100
AcDbLine
 10
307.307562
 20
179.179824
 30
0.0
 11
309.307562
 21
179.179824
 31
0.0
  0
LINE
  5
97
330
1F
100
AcDbEntity
  8
1
  6
CONTINUOUS
 62
     2
100
AcDbLine
 10
309.307562
 20
180.478862
 30
0.0
 11
309.307562
 21
178.228862
 31
0.0
  0
LINE
  5
98
330
1F
100
AcDbEntity
  8
1
  6
CONTINUOUS
 62
     2
100
AcDbLine
 10
309.307562
 20
178.228862
 30
0.0
 11
309.307562
 21
176.929824
 31
0.0
  0
LINE
  5
99
330
1F
100
AcDbEntity
  8
1
  6
CONTINUOUS
 62
     2
100
AcDbLine
 10
309.307562
 20
222.48769
 30
0.0
 11
307.307562
 21
222.48769
 31
0.0
  0
LINE
  5
9A
330
1F
100
AcDbEntity
  8
1
  6
CONTINUOUS
 62
     2
100
AcDbLine
 10
309.307562
 20
223.48769
 30
0.0
 11
309.307562
 21
227.98769
 31
0.0
  0
LINE
  5
9B
330
1F
100
AcDbEntity
  8
1
  6
CONTINUOUS
 62
     2
100
AcDbLine
 10
307.307562
 20
223.48769
 30
0.0
 11
309.307562
 21
223.48769
 31
0.0
  0
LINE
  5
9C
330
1F
100
AcDbEntity
  8
1
  6
CONTINUOUS
 62
     2
100
AcDbLine
 10
307.307562
 20
267.746518
 30
0.0
 11
307.307562
 21
269.045556
 31
0.0
  0
LINE
  5
9D
330
1F
100
AcDbEntity
  8
1
  6
CONTINUOUS
 62
     2
100
AcDbLine
 10
307.307562
 20
265.496518
 30
0.0
 11
307.307562
 21
267.746518
 31
0.0
  0
LINE
  5
9E
330
1F
100
AcDbEntity
  8
1
  6
CONTINUOUS
 62
     2
100
AcDbLine
 10
307.307562
 20
262.746518
 30
0.0
 11
307.307562
 21
264.996518
 31
0.0
  0
LINE
  5
9F
330
1F
100
AcDbEntity
  8
1
  6
CONTINUOUS
 62
     2
100
AcDbLine
 10
307.307562
 20
180.978862
 30
0.0
 11
307.307562
 21
183.228862
 31
0.0
  0
LINE
  5
A0
330
1F
100
AcDbEntity
  8
1
  6
CONTINUOUS
 62
     2
100
AcDbLine
 10
307.307562
 20
176.929824
 30
0.0
 11
307.307562
 21
178.228862
 31
0.0
  0
LINE
  5
A1
330
1F
100
AcDbEntity
  8
1
  6
CONTINUOUS
 62
     2
100
AcDbLine
 10
307.307562
 20
178.228862
 30
0.0
 11
307.307562
 21
180.478862
 31
0.0
  0
LINE
  5
A2
330
1F
100
AcDbEntity
  8
1
  6
CONTINUOUS
 62
     2
100
AcDbLine
 10
307.307562
 20
222.48769
 30
0.0
 11
307.307562
 21
217.98769
 31
0.0
  0
LINE
  5
A3
330
1F
100
AcDbEntity
  8
1
  6
CONTINUOUS
 62
     2
100
AcDbLine
 10
307.307562
 20
227.98769
 30
0.0
 11
307.307562
 21
223.48769
 31
0.0
  0
LINE
  5
A4
330
1F
100
AcDbEntity
  8
1
  6
CONTINUOUS
 62
     2
100
AcDbLine
 10
296.607562
 20
218.98769
 30
0.0
 11
306.607562
 21
217.98769
 31
0.0
  0
LINE
  5
A5
330
1F
100
AcDbEntity
  8
1
  6
CONTINUOUS
 62
     2
100
AcDbLine
 10
306.607562
 20
183.228862
 30
0.0
 11
296.607562
 21
182.728862
 31
0.0
  0
LINE
  5
A6
330
1F
100
AcDbEntity
  8
1
  6
CONTINUOUS
 62
     2
100
AcDbLine
 10
296.607562
 20
263.246518
 30
0.0
 11
306.607562
 21
262.746518
 31
0.0
  0
LINE
  5
A7
330
1F
100
AcDbEntity
  8
1
  6
CONTINUOUS
 62
     2
100
AcDbLine
 10
306.607562
 20
227.98769
 30
0.0
 11
296.607562
 21
226.98769
 31
0.0
  0
LINE
  5
A8
330
1F
100
AcDbEntity
  8
1
  6
CONTINUOUS
 62
     2
100
AcDbLine
 10
306.607562
 20
178.228862
 30
0.0
 11
306.607562
 21
176.929824
 31
0.0
  0
LINE
  5
A9
330
1F
100
AcDbEntity
  8
1
  6
CONTINUOUS
 62
     2
100
AcDbLine
 10
296.607562
 20
178.728862
 30
0.0
 11
306.607562
 21
178.228862
 31
0.0
  0
LINE
  5
AA
330
1F
100
AcDbEntity
  8
1
  6
CONTINUOUS
 62
     2
100
AcDbLine
 10
306.607562
 20
176.929824
 30
0.0
 11
296.607562
 21
177.429824
 31
0.0
  0
LINE
  5
AB
330
1F
100
AcDbEntity
  8
1
  6
CONTINUOUS
 62
     2
100
AcDbLine
 10
306.607562
 20
269.045556
 30
0.0
 11
306.607562
 21
267.746518
 31
0.0
  0
LINE
  5
AC
330
1F
100
AcDbEntity
  8
1
  6
CONTINUOUS
 62
     2
100
AcDbLine
 10
296.607562
 20
268.545556
 30
0.0
 11
306.607562
 21
269.045556
 31
0.0
  0
LINE
  5
AD
330
1F
100
AcDbEntity
  8
1
  6
CONTINUOUS
 62
     2
100
AcDbLine
 10
306.607562
 20
267.746518
 30
0.0
 11
296.607562
 21
267.246518
 31
0.0
  0
LINE
  5
AE
330
1F
100
AcDbEntity
  8
1
  6
CONTINUOUS
 62
     2
100
AcDbLine
 10
296.607562
 20
177.429824
 30
0.0
 11
296.607562
 21
178.728862
 31
0.0
  0
LINE
  5
AF
330
1F
100
AcDbEntity
  8
1
  6
CONTINUOUS
 62
     2
100
AcDbLine
 10
296.607562
 20
267.246518
 30
0.0
 11
296.607562
 21
268.545556
 31
0.0
  0
LINE
  5
B0
330
1F
100
AcDbEntity
  8
255
  6
CONTINUOUS
 62
   163
100
AcDbLine
 10
82.34195
 20
177.15958
 30
0.0
 11
82.34195
 21
169.218627
 31
0.0
  0
LINE
  5
B2
330
1F
100
AcDbEntity
  8
255
  6
CONTINUOUS
 62
   163
100
AcDbLine
 10
183.053757
 20
83.373244
 30
0.0
 11
189.98196
 21
87.373244
 31
0.0
  0
LINE
  5
B3
330
1F
100
AcDbEntity
  8
255
  6
CONTINUOUS
 62
   163
100
AcDbLine
 10
159.116514
 20
142.833764
 30
0.0
 11
184.497985
 21
98.871767
 31
0.0
  0
LINE
  5
B4
330
1F
100
AcDbEntity
  8
255
  6
CONTINUOUS
 62
   163
100
AcDbLine
 10
18.879008
 20
178.15958
 30
0.0
 11
18.879008
 21
186.15958
 31
0.0
  0
LINE
  5
B5
330
1F
100
AcDbEntity
  8
255
  6
CONTINUOUS
 62
   163
100
AcDbLine
 10
29.579008
 20
177.15958
 30
0.0
 11
28.879008
 21
177.15958
 31
0.0
  0
LINE
  5
B6
330
1F
100
AcDbEntity
  8
255
  6
CONTINUOUS
 62
   163
100
AcDbLine
 10
189.98196
 20
276.945915
 30
0.0
 11
183.053757
 21
280.945915
 31
0.0
  0
LINE
  5
B7
330
1F
100
AcDbEntity
  8
255
  6
CONTINUOUS
 62
   163
100
AcDbLine
 10
185.497985
 20
267.179443
 30
0.0
 11
185.847985
 21
267.785661
 31
0.0
  0
LINE
  5
B8
330
1F
100
AcDbEntity
  8
255
  6
CONTINUOUS
 62
   163
100
AcDbLine
 10
150.45626
 20
226.485395
 30
0.0
 11
175.837731
 21
270.447392
 31
0.0
  0
LINE
  5
B9
330
1F
100
AcDbEntity
  8
255
  6
CONTINUOUS
 62
   163
100
AcDbLine
 10
82.34195
 20
195.100532
 30
0.0
 11
82.34195
 21
187.15958
 31
0.0
  0
LINE
  5
BA
330
1F
100
AcDbEntity
  8
255
  6
CONTINUOUS
 62
   163
100
AcDbLine
 10
95.282903
 20
217.514919
 30
0.0
 11
82.34195
 21
195.100532
 31
0.0
  0
LINE
  5
BB
330
1F
100
AcDbEntity
  8
255
  6
CONTINUOUS
 62
   163
100
AcDbLine
 10
82.34195
 20
169.218627
 30
0.0
 11
95.282903
 21
146.80424
 31
0.0
  0
LINE
  5
BC
330
1F
100
AcDbEntity
  8
255
  6
CONTINUOUS
 62
   163
100
AcDbLine
 10
117.697289
 20
230.455871
 30
0.0
 11
95.282903
 21
217.514919
 31
0.0
  0
LINE
  5
BD
330
1F
100
AcDbEntity
  8
255
  6
CONTINUOUS
 62
   163
100
AcDbLine
 10
143.579194
 20
230.455871
 30
0.0
 11
117.697289
 21
230.455871
 31
0.0
  0
LINE
  5
BE
330
1F
100
AcDbEntity
  8
255
  6
CONTINUOUS
 62
   163
100
AcDbLine
 10
150.45626
 20
226.485395
 30
0.0
 11
143.579194
 21
230.455871
 31
0.0
  0
LINE
  5
BF
330
1F
100
AcDbEntity
  8
255
  6
CONTINUOUS
 62
   163
100
AcDbLine
 10
165.993581
 20
217.514919
 30
0.0
 11
159.116514
 21
221.485395
 31
0.0
  0
LINE
  5
C0
330
1F
100
AcDbEntity
  8
255
  6
CONTINUOUS
 62
   163
100
AcDbLine
 10
178.934533
 20
195.100532
 30
0.0
 11
165.993581
 21
217.514919
 31
0.0
  0
LINE
  5
C1
330
1F
100
AcDbEntity
  8
255
  6
CONTINUOUS
 62
   163
100
AcDbLine
 10
178.934533
 20
169.218627
 30
0.0
 11
178.934533
 21
195.100532
 31
0.0
  0
LINE
  5
C2
330
1F
100
AcDbEntity
  8
255
  6
CONTINUOUS
 62
   163
100
AcDbLine
 10
165.993581
 20
146.80424
 30
0.0
 11
178.934533
 21
169.218627
 31
0.0
  0
LINE
  5
C3
330
1F
100
AcDbEntity
  8
255
  6
CONTINUOUS
 62
   163
100
AcDbLine
 10
159.116514
 20
142.833764
 30
0.0
 11
165.993581
 21
146.80424
 31
0.0
  0
LINE
  5
C4
330
1F
100
AcDbEntity
  8
255
  6
CONTINUOUS
 62
   163
100
AcDbLine
 10
143.579194
 20
133.863288
 30
0.0
 11
150.45626
 21
137.833764
 31
0.0
  0
LINE
  5
C5
330
1F
100
AcDbEntity
  8
255
  6
CONTINUOUS
 62
   163
100
AcDbLine
 10
117.697289
 20
133.863288
 30
0.0
 11
143.579194
 21
133.863288
 31
0.0
  0
LINE
  5
C6
330
1F
100
AcDbEntity
  8
255
  6
CONTINUOUS
 62
   163
100
AcDbLine
 10
95.282903
 20
146.80424
 30
0.0
 11
117.697289
 21
133.863288
 31
0.0
  0
LINE
  5
C7
330
1F
100
AcDbEntity
  8
255
  6
CONTINUOUS
 62
   163
100
AcDbLine
 10
180.600871
 20
267.697392
 30
0.0
 11
184.497985
 21
265.447392
 31
0.0
  0
LINE
  5
C8
330
1F
100
AcDbEntity
  8
255
  6
CONTINUOUS
 62
   163
100
AcDbLine
 10
179.734846
 20
268.197392
 30
0.0
 11
180.734846
 21
269.929443
 31
0.0
  0
LINE
  5
C9
330
1F
100
AcDbEntity
  8
255
  6
CONTINUOUS
 62
   163
100
AcDbLine
 10
180.734846
 20
269.929443
 30
0.0
 11
176.837731
 21
272.179443
 31
0.0
  0
LINE
  5
CA
330
1F
100
AcDbEntity
  8
255
  6
CONTINUOUS
 62
   163
100
AcDbLine
 10
175.837731
 20
270.447392
 30
0.0
 11
179.734846
 21
268.197392
 31
0.0
  0
LINE
  5
CB
330
1F
100
AcDbEntity
  8
255
  6
CONTINUOUS
 62
   163
100
AcDbLine
 10
185.497985
 20
267.179443
 30
0.0
 11
181.600871
 21
269.429443
 31
0.0
  0
LINE
  5
CC
330
1F
100
AcDbEntity
  8
255
  6
CONTINUOUS
 62
   163
100
AcDbLine
 10
181.600871
 20
269.429443
 30
0.0
 11
180.600871
 21
267.697392
 31
0.0
  0
LINE
  5
CD
330
1F
100
AcDbEntity
  8
255
  6
CONTINUOUS
 62
   163
100
AcDbLine
 10
183.053757
 20
280.945915
 30
0.0
 11
177.187731
 21
272.785661
 31
0.0
  0
LINE
  5
CE
330
1F
100
AcDbEntity
  8
255
  6
CONTINUOUS
 62
   163
100
AcDbLine
 10
185.847985
 20
267.785661
 30
0.0
 11
189.98196
 21
276.945915
 31
0.0
  0
LINE
  5
CF
330
1F
100
AcDbEntity
  8
255
  6
CONTINUOUS
 62
   163
100
AcDbLine
 10
184.497985
 20
98.871767
 30
0.0
 11
180.600871
 21
96.621767
 31
0.0
  0
LINE
  5
D0
330
1F
100
AcDbEntity
  8
255
  6
CONTINUOUS
 62
   163
100
AcDbLine
 10
180.600871
 20
96.621767
 30
0.0
 11
181.600871
 21
94.889716
 31
0.0
  0
LINE
  5
D1
330
1F
100
AcDbEntity
  8
255
  6
CONTINUOUS
 62
   163
100
AcDbLine
 10
181.600871
 20
94.889716
 30
0.0
 11
185.497985
 21
97.139716
 31
0.0
  0
LINE
  5
D2
330
1F
100
AcDbEntity
  8
255
  6
CONTINUOUS
 62
   163
100
AcDbLine
 10
179.734846
 20
96.121767
 30
0.0
 11
175.837731
 21
93.871767
 31
0.0
  0
LINE
  5
D3
330
1F
100
AcDbEntity
  8
255
  6
CONTINUOUS
 62
   163
100
AcDbLine
 10
176.837731
 20
92.139716
 30
0.0
 11
177.187731
 21
91.533498
 31
0.0
  0
LINE
  5
D4
330
1F
100
AcDbEntity
  8
255
  6
CONTINUOUS
 62
   163
100
AcDbLine
 10
176.837731
 20
92.139716
 30
0.0
 11
180.734846
 21
94.389716
 31
0.0
  0
LINE
  5
D5
330
1F
100
AcDbEntity
  8
255
  6
CONTINUOUS
 62
   163
100
AcDbLine
 10
180.734846
 20
94.389716
 30
0.0
 11
179.734846
 21
96.121767
 31
0.0
  0
LINE
  5
D6
330
1F
100
AcDbEntity
  8
255
  6
CONTINUOUS
 62
   163
100
AcDbLine
 10
29.579008
 20
187.15958
 30
0.0
 11
29.579008
 21
182.65958
 31
0.0
  0
LINE
  5
D7
330
1F
100
AcDbEntity
  8
255
  6
CONTINUOUS
 62
   163
100
AcDbLine
 10
29.579008
 20
181.65958
 30
0.0
 11
29.579008
 21
177.15958
 31
0.0
  0
LINE
  5
D8
330
1F
100
AcDbEntity
  8
255
  6
CONTINUOUS
 62
   163
100
AcDbLine
 10
31.579008
 20
177.15958
 30
0.0
 11
31.579008
 21
181.65958
 31
0.0
  0
LINE
  5
D9
330
1F
100
AcDbEntity
  8
255
  6
CONTINUOUS
 62
   163
100
AcDbLine
 10
31.579008
 20
187.15958
 30
0.0
 11
82.34195
 21
187.15958
 31
0.0
  0
LINE
  5
DA
330
1F
100
AcDbEntity
  8
255
  6
CONTINUOUS
 62
   163
100
AcDbLine
 10
29.579008
 20
182.65958
 30
0.0
 11
31.579008
 21
182.65958
 31
0.0
  0
LINE
  5
DB
330
1F
100
AcDbEntity
  8
255
  6
CONTINUOUS
 62
   163
100
AcDbLine
 10
31.579008
 20
181.65958
 30
0.0
 11
29.579008
 21
181.65958
 31
0.0
  0
LINE
  5
DC
330
1F
100
AcDbEntity
  8
255
  6
CONTINUOUS
 62
   163
100
AcDbLine
 10
31.579008
 20
182.65958
 30
0.0
 11
31.579008
 21
187.15958
 31
0.0
  0
LINE
  5
DD
330
1F
100
AcDbEntity
  8
255
  6
CONTINUOUS
 62
   163
100
AcDbLine
 10
189.98196
 20
87.373244
 30
0.0
 11
185.847985
 21
96.533498
 31
0.0
  0
LINE
  5
DE
330
1F
100
AcDbEntity
  8
255
  6
CONTINUOUS
 62
   163
100
AcDbLine
 10
18.879008
 20
178.15958
 30
0.0
 11
28.879008
 21
177.15958
 31
0.0
  0
LINE
  5
DF
330
1F
100
AcDbEntity
  8
255
  6
CONTINUOUS
 62
   163
100
AcDbLine
 10
177.187731
 20
91.533498
 30
0.0
 11
183.053757
 21
83.373244
 31
0.0
  0
LINE
  5
E0
330
1F
100
AcDbEntity
  8
255
  6
CONTINUOUS
 62
   163
100
AcDbLine
 10
28.879008
 20
187.15958
 30
0.0
 11
18.879008
 21
186.15958
 31
0.0
  0
LINE
  5
E1
330
1F
100
AcDbEntity
  8
255
  6
CONTINUOUS
 62
   163
100
AcDbLine
 10
185.847985
 20
96.533498
 30
0.0
 11
185.497985
 21
97.139716
 31
0.0
  0
LINE
  5
E2
330
1F
100
AcDbEntity
  8
255
  6
CONTINUOUS
 62
   163
100
AcDbLine
 10
175.837731
 20
93.871767
 30
0.0
 11
150.45626
 21
137.833764
 31
0.0
  0
LINE
  5
E3
330
1F
100
AcDbEntity
  8
255
  6
CONTINUOUS
 62
   163
100
AcDbLine
 10
28.879008
 20
187.15958
 30
0.0
 11
29.579008
 21
187.15958
 31
0.0
  0
LINE
  5
E4
330
1F
100
AcDbEntity
  8
255
  6
CONTINUOUS
 62
   163
100
AcDbLine
 10
82.34195
 20
177.15958
 30
0.0
 11
31.579008
 21
177.15958
 31
0.0
  0
LINE
  5
E5
330
1F
100
AcDbEntity
  8
255
  6
CONTINUOUS
 62
   163
100
AcDbLine
 10
177.187731
 20
272.785661
 30
0.0
 11
176.837731
 21
272.179443
 31
0.0
  0
LINE
  5
E6
330
1F
100
AcDbEntity
  8
255
  6
CONTINUOUS
 62
   163
100
AcDbLine
 10
184.497985
 20
265.447392
 30
0.0
 11
159.116514
 21
221.485395
 31
0.0
  0
LINE
  5
E7
330
1F
100
AcDbEntity
  8
1
  6
CONTINUOUS
 62
     2
100
AcDbLine
 10
109.333121
 20
24.293003
 30
0.0
 11
118.782842
 21
25.752355
 31
0.0
  0
LINE
  5
E8
330
1F
100
AcDbEntity
  8
1
  6
CONTINUOUS
 62
     2
100
AcDbLine
 10
49.426835
 20
99.475974
 30
0.0
 11
49.403969
 21
98.882071
 31
0.0
  0
LINE
  5
E9
330
1F
100
AcDbEntity
  8
1
  6
CONTINUOUS
 62
     2
100
AcDbLine
 10
56.540025
 20
36.242638
 30
0.0
 11
48.115051
 21
49.411046
 31
0.0
  0
LINE
  5
EA
330
1F
100
AcDbEntity
  8
1
  6
CONTINUOUS
 62
     2
100
AcDbLine
 10
76.065106
 20
26.727001
 30
0.0
 11
56.540025
 21
36.242638
 31
0.0
  0
LINE
  5
EB
330
1F
100
AcDbEntity
  8
1
  6
CONTINUOUS
 62
     2
100
AcDbLine
 10
101.458564
 20
23.413843
 30
0.0
 11
76.065106
 21
26.727001
 31
0.0
  0
LINE
  5
EC
330
1F
100
AcDbEntity
  8
1
  6
CONTINUOUS
 62
     2
100
AcDbLine
 10
108.962543
 20
24.572707
 30
0.0
 11
101.458564
 21
23.413843
 31
0.0
  0
LINE
  5
ED
330
1F
100
AcDbEntity
  8
1
  6
CONTINUOUS
 62
     2
100
AcDbLine
 10
125.916242
 20
27.190923
 30
0.0
 11
119.051861
 21
26.130834
 31
0.0
  0
LINE
  5
EE
330
1F
100
AcDbEntity
  8
1
  6
CONTINUOUS
 62
     2
100
AcDbLine
 10
142.884726
 20
37.046174
 30
0.0
 11
125.916242
 21
27.190923
 31
0.0
  0
LINE
  5
EF
330
1F
100
AcDbEntity
  8
1
  6
CONTINUOUS
 62
     2
100
AcDbLine
 10
147.817323
 20
50.33889
 30
0.0
 11
142.884726
 21
37.046174
 31
0.0
  0
LINE
  5
F0
330
1F
100
AcDbEntity
  8
1
  6
CONTINUOUS
 62
     2
100
AcDbLine
 10
109.678905
 20
25.251995
 30
0.0
 11
119.128626
 21
26.711347
 31
0.0
  0
LINE
  5
F1
330
1F
100
AcDbEntity
  8
1
  6
CONTINUOUS
 62
     2
100
AcDbLine
 10
109.01154
 20
25.845356
 30
0.0
 11
108.962543
 21
24.572707
 31
0.0
  0
LINE
  5
F2
330
1F
100
AcDbEntity
  8
1
  6
CONTINUOUS
 62
     2
100
AcDbLine
 10
48.115051
 20
49.411046
 30
0.0
 11
48.164048
 21
50.683695
 31
0.0
  0
LINE
  5
F3
330
1F
100
AcDbEntity
  8
1
  6
CONTINUOUS
 62
     2
100
AcDbLine
 10
56.540025
 20
36.242638
 30
0.0
 11
56.589023
 21
37.515286
 31
0.0
  0
LINE
  5
F4
330
1F
100
AcDbEntity
  8
1
  6
CONTINUOUS
 62
     2
100
AcDbLine
 10
147.817323
 20
50.33889
 30
0.0
 11
147.866321
 21
51.611538
 31
0.0
  0
LINE
  5
F5
330
1F
100
AcDbEntity
  8
1
  6
CONTINUOUS
 62
     2
100
AcDbLine
 10
76.065106
 20
26.727001
 30
0.0
 11
76.114104
 21
27.999649
 31
0.0
  0
LINE
  5
F6
330
1F
100
AcDbEntity
  8
1
  6
CONTINUOUS
 62
     2
100
AcDbLine
 10
101.458564
 20
23.413843
 30
0.0
 11
101.507562
 21
24.686492
 31
0.0
  0
LINE
  5
F7
330
1F
100
AcDbEntity
  8
1
  6
CONTINUOUS
 62
     2
100
AcDbLine
 10
142.884726
 20
37.046174
 30
0.0
 11
142.933724
 21
38.318822
 31
0.0
  0
LINE
  5
F8
330
1F
100
AcDbEntity
  8
1
  6
CONTINUOUS
 62
     2
100
AcDbLine
 10
125.916242
 20
27.190923
 30
0.0
 11
125.96524
 21
28.463571
 31
0.0
  0
LINE
  5
F9
330
1F
100
AcDbEntity
  8
1
  6
CONTINUOUS
 62
     2
100
AcDbLine
 10
111.778852
 20
75.357296
 30
0.0
 11
94.522807
 21
77.608741
 31
0.0
  0
LINE
  5
FA
330
1F
100
AcDbEntity
  8
1
  6
CONTINUOUS
 62
     2
100
AcDbLine
 10
125.90685
 20
71.376045
 30
0.0
 11
120.465902
 21
74.027716
 31
0.0
  0
LINE
  5
FB
330
1F
100
AcDbEntity
  8
1
  6
CONTINUOUS
 62
     2
100
AcDbLine
 10
125.96524
 20
28.463571
 30
0.0
 11
142.933724
 21
38.318822
 31
0.0
  0
LINE
  5
FC
330
1F
100
AcDbEntity
  8
1
  6
CONTINUOUS
 62
     2
100
AcDbLine
 10
94.522807
 20
77.608741
 30
0.0
 11
70.065129
 21
73.831662
 31
0.0
  0
LINE
  5
FD
330
1F
100
AcDbEntity
  8
1
  6
CONTINUOUS
 62
     2
100
AcDbLine
 10
76.114104
 20
27.999649
 30
0.0
 11
101.507562
 21
24.686492
 31
0.0
  0
LINE
  5
FE
330
1F
100
AcDbEntity
  8
1
  6
CONTINUOUS
 62
     2
100
AcDbLine
 10
70.065129
 20
73.831662
 30
0.0
 11
53.096646
 21
63.976411
 31
0.0
  0
LINE
  5
FF
330
1F
100
AcDbEntity
  8
1
  6
CONTINUOUS
 62
     2
100
AcDbLine
 10
142.933724
 20
38.318822
 30
0.0
 11
147.866321
 21
51.611538
 31
0.0
  0
LINE
  5
100
330
1F
100
AcDbEntity
  8
1
  6
CONTINUOUS
 62
     2
100
AcDbLine
 10
56.589023
 20
37.515286
 30
0.0
 11
76.114104
 21
27.999649
 31
0.0
  0
LINE
  5
101
330
1F
100
AcDbEntity
  8
1
  6
CONTINUOUS
 62
     2
100
AcDbLine
 10
139.441346
 20
64.779947
 30
0.0
 11
133.450762
 21
67.699486
 31
0.0
  0
LINE
  5
102
330
1F
100
AcDbEntity
  8
1
  6
CONTINUOUS
 62
     2
100
AcDbLine
 10
147.866321
 20
51.611538
 30
0.0
 11
139.441346
 21
64.779947
 31
0.0
  0
LINE
  5
103
330
1F
100
AcDbEntity
  8
1
  6
CONTINUOUS
 62
     2
100
AcDbLine
 10
48.164048
 20
50.683695
 30
0.0
 11
56.589023
 21
37.515286
 31
0.0
  0
LINE
  5
104
330
1F
100
AcDbEntity
  8
1
  6
CONTINUOUS
 62
     2
100
AcDbLine
 10
101.507562
 20
24.686492
 30
0.0
 11
109.01154
 21
25.845356
 31
0.0
  0
LINE
  5
105
330
1F
100
AcDbEntity
  8
1
  6
CONTINUOUS
 62
     2
100
AcDbLine
 10
119.155614
 20
27.411938
 30
0.0
 11
125.96524
 21
28.463571
 31
0.0
  0
LINE
  5
106
330
1F
100
AcDbEntity
  8
1
  6
CONTINUOUS
 62
     2
100
AcDbLine
 10
49.677442
 20
54.762097
 30
0.0
 11
48.164048
 21
50.683695
 31
0.0
  0
LINE
  5
107
330
1F
100
AcDbEntity
  8
1
  6
CONTINUOUS
 62
     2
100
AcDbLine
 10
53.096646
 20
63.976411
 30
0.0
 11
51.583252
 21
59.898009
 31
0.0
  0
LINE
  5
108
330
1F
100
AcDbEntity
  8
1
  6
CONTINUOUS
 62
     2
100
AcDbLine
 10
51.10902
 20
60.38623
 30
0.0
 11
49.203211
 21
55.250319
 31
0.0
  0
LINE
  5
109
330
1F
100
AcDbEntity
  8
1
  6
CONTINUOUS
 62
     2
100
AcDbLine
 10
49.677442
 20
54.762097
 30
0.0
 11
51.583252
 21
59.898009
 31
0.0
  0
LINE
  5
10A
330
1F
100
AcDbEntity
  8
1
  6
CONTINUOUS
 62
     2
100
AcDbLine
 10
109.171447
 20
25.870051
 30
0.0
 11
109.01154
 21
25.845356
 31
0.0
  0
LINE
  5
10B
330
1F
100
AcDbEntity
  8
1
  6
CONTINUOUS
 62
     2
100
AcDbLine
 10
133.7949
 20
68.314091
 30
0.0
 11
126.250988
 21
71.99065
 31
0.0
  0
LINE
  5
10C
330
1F
100
AcDbEntity
  8
1
  6
CONTINUOUS
 62
     2
100
AcDbLine
 10
125.90685
 20
71.376045
 30
0.0
 11
133.450762
 21
67.699486
 31
0.0
  0
LINE
  5
10D
330
1F
100
AcDbEntity
  8
1
  6
CONTINUOUS
 62
     2
100
AcDbLine
 10
111.374221
 20
69.285635
 30
0.0
 11
111.351355
 21
68.691732
 31
0.0
  0
LINE
  5
10E
330
1F
100
AcDbEntity
  8
1
  6
CONTINUOUS
 62
     2
100
AcDbLine
 10
120.801076
 20
70.151083
 30
0.0
 11
120.823942
 21
70.744986
 31
0.0
  0
LINE
  5
10F
330
1F
100
AcDbEntity
  8
1
  6
CONTINUOUS
 62
     2
100
AcDbLine
 10
110.885947
 20
70.048817
 30
0.0
 11
110.863081
 21
69.454914
 31
0.0
  0
LINE
  5
110
330
1F
100
AcDbEntity
  8
1
  6
CONTINUOUS
 62
     2
100
AcDbLine
 10
127.923439
 20
115.430387
 30
0.0
 11
127.946304
 21
116.02429
 31
0.0
  0
LINE
  5
111
330
1F
100
AcDbEntity
  8
1
  6
CONTINUOUS
 62
     2
100
AcDbLine
 10
135.490216
 20
112.34773
 30
0.0
 11
135.467351
 21
111.753827
 31
0.0
  0
LINE
  5
112
330
1F
100
AcDbEntity
  8
1
  6
CONTINUOUS
 62
     2
100
AcDbLine
 10
50.898527
 20
99.283958
 30
0.0
 11
50.875661
 21
98.690055
 31
0.0
  0
LINE
  5
113
330
1F
100
AcDbEntity
  8
1
  6
CONTINUOUS
 62
     2
100
AcDbLine
 10
52.78147
 20
103.825967
 30
0.0
 11
52.804336
 21
104.419869
 31
0.0
  0
LINE
  5
114
330
1F
100
AcDbEntity
  8
1
  6
CONTINUOUS
 62
     2
100
AcDbLine
 10
136.473634
 20
112.918896
 30
0.0
 11
136.450768
 21
112.324994
 31
0.0
  0
LINE
  5
115
330
1F
100
AcDbEntity
  8
1
  6
CONTINUOUS
 62
     2
100
AcDbLine
 10
130.010764
 20
124.712124
 30
0.0
 11
136.045893
 21
121.770876
 31
0.0
  0
LINE
  5
116
330
1F
100
AcDbEntity
  8
1
  6
CONTINUOUS
 62
     2
100
AcDbLine
 10
129.027346
 20
124.140957
 30
0.0
 11
135.062475
 21
121.199709
 31
0.0
  0
LINE
  5
117
330
1F
100
AcDbEntity
  8
1
  6
CONTINUOUS
 62
     2
100
AcDbLine
 10
119.717346
 20
79.846557
 30
0.0
 11
112.157569
 21
78.679076
 31
0.0
  0
LINE
  5
118
330
1F
100
AcDbEntity
  8
1
  6
CONTINUOUS
 62
     2
100
AcDbLine
 10
120.20562
 20
79.083374
 30
0.0
 11
112.645843
 21
77.915893
 31
0.0
  0
LINE
  5
119
330
1F
100
AcDbEntity
  8
1
  6
CONTINUOUS
 62
     2
100
AcDbLine
 10
52.940405
 20
112.390602
 30
0.0
 11
51.415758
 21
108.281873
 31
0.0
  0
LINE
  5
11A
330
1F
100
AcDbEntity
  8
1
  6
CONTINUOUS
 62
     2
100
AcDbLine
 10
51.468714
 20
112.582618
 30
0.0
 11
49.944066
 21
108.473889
 31
0.0
  0
LINE
  5
11B
330
1F
100
AcDbEntity
  8
1
  6
CONTINUOUS
 62
     2
100
AcDbLine
 10
110.797751
 20
67.75805
 30
0.0
 11
109.190631
 21
26.015178
 31
0.0
  0
LINE
  5
11C
330
1F
100
AcDbEntity
  8
1
  6
CONTINUOUS
 62
     2
100
AcDbLine
 10
50.810331
 20
96.993191
 30
0.0
 11
49.203211
 21
55.250319
 31
0.0
  0
LINE
  5
11D
330
1F
100
AcDbEntity
  8
1
  6
CONTINUOUS
 62
     2
100
AcDbLine
 10
51.10902
 20
60.38623
 30
0.0
 11
52.71614
 21
102.129102
 31
0.0
  0
LINE
  5
11E
330
1F
100
AcDbEntity
  8
1
  6
CONTINUOUS
 62
     2
100
AcDbLine
 10
136.385438
 20
110.628129
 30
0.0
 11
134.778318
 21
68.885257
 31
0.0
  0
LINE
  5
11F
330
1F
100
AcDbEntity
  8
1
  6
CONTINUOUS
 62
     2
100
AcDbLine
 10
49.338639
 20
97.185207
 30
0.0
 11
47.731519
 21
55.442335
 31
0.0
  0
LINE
  5
120
330
1F
100
AcDbEntity
  8
1
  6
CONTINUOUS
 62
     2
100
AcDbLine
 10
119.128626
 20
26.711347
 30
0.0
 11
120.735746
 21
68.454219
 31
0.0
  0
LINE
  5
121
330
1F
100
AcDbEntity
  8
1
  6
CONTINUOUS
 62
     2
100
AcDbLine
 10
111.286025
 20
66.994867
 30
0.0
 11
109.678905
 21
25.251995
 31
0.0
  0
LINE
  5
122
330
1F
100
AcDbEntity
  8
1
  6
CONTINUOUS
 62
     2
100
AcDbLine
 10
126.250988
 20
71.99065
 30
0.0
 11
127.858109
 21
113.733522
 31
0.0
  0
LINE
  5
123
330
1F
100
AcDbEntity
  8
1
  6
CONTINUOUS
 62
     2
100
AcDbLine
 10
135.402021
 20
110.056962
 30
0.0
 11
133.7949
 21
68.314091
 31
0.0
  0
LINE
  5
124
330
1F
100
AcDbEntity
  8
1
  6
CONTINUOUS
 62
     2
100
AcDbLine
 10
111.286025
 20
66.994867
 30
0.0
 11
115.5384
 21
67.651575
 31
0.0
  0
LINE
  5
125
330
1F
100
AcDbEntity
  8
1
  6
CONTINUOUS
 62
     2
100
AcDbLine
 10
110.797751
 20
67.75805
 30
0.0
 11
115.050126
 21
68.414758
 31
0.0
  0
LINE
  5
126
330
1F
100
AcDbEntity
  8
1
  6
CONTINUOUS
 62
     2
100
AcDbLine
 10
111.286025
 20
66.994867
 30
0.0
 11
110.797751
 21
67.75805
 31
0.0
  0
LINE
  5
127
330
1F
100
AcDbEntity
  8
1
  6
CONTINUOUS
 62
     2
100
AcDbLine
 10
115.050126
 20
68.414758
 30
0.0
 11
115.5384
 21
67.651575
 31
0.0
  0
LINE
  5
128
330
1F
100
AcDbEntity
  8
1
  6
CONTINUOUS
 62
     2
100
AcDbLine
 10
115.5384
 20
67.651575
 30
0.0
 11
115.60373
 21
69.34844
 31
0.0
  0
LINE
  5
129
330
1F
100
AcDbEntity
  8
1
  6
CONTINUOUS
 62
     2
100
AcDbLine
 10
115.050126
 20
68.414758
 30
0.0
 11
115.082976
 21
69.268016
 31
0.0
  0
LINE
  5
12A
330
1F
100
AcDbEntity
  8
1
  6
CONTINUOUS
 62
     2
100
AcDbLine
 10
135.402021
 20
110.056962
 30
0.0
 11
132.00726
 21
111.711414
 31
0.0
  0
LINE
  5
12B
330
1F
100
AcDbEntity
  8
1
  6
CONTINUOUS
 62
     2
100
AcDbLine
 10
136.385438
 20
110.628129
 30
0.0
 11
132.990678
 21
112.282581
 31
0.0
  0
LINE
  5
12C
330
1F
100
AcDbEntity
  8
1
  6
CONTINUOUS
 62
     2
100
AcDbLine
 10
136.385438
 20
110.628129
 30
0.0
 11
135.402021
 21
110.056962
 31
0.0
  0
LINE
  5
12D
330
1F
100
AcDbEntity
  8
1
  6
CONTINUOUS
 62
     2
100
AcDbLine
 10
116.548702
 20
69.494375
 30
0.0
 11
116.483372
 21
67.797511
 31
0.0
  0
LINE
  5
12E
330
1F
100
AcDbEntity
  8
1
  6
CONTINUOUS
 62
     2
100
AcDbLine
 10
116.483372
 20
67.797511
 30
0.0
 11
120.735746
 21
68.454219
 31
0.0
  0
LINE
  5
12F
330
1F
100
AcDbEntity
  8
1
  6
CONTINUOUS
 62
     2
100
AcDbLine
 10
116.515881
 20
68.641119
 30
0.0
 11
120.247472
 21
69.217401
 31
0.0
  0
LINE
  5
130
330
1F
100
AcDbEntity
  8
1
  6
CONTINUOUS
 62
     2
100
AcDbLine
 10
120.247472
 20
69.217401
 30
0.0
 11
120.735746
 21
68.454219
 31
0.0
  0
LINE
  5
131
330
1F
100
AcDbEntity
  8
1
  6
CONTINUOUS
 62
     2
100
AcDbLine
 10
51.858526
 20
99.817942
 30
0.0
 11
52.71614
 21
102.129102
 31
0.0
  0
LINE
  5
132
330
1F
100
AcDbEntity
  8
1
  6
CONTINUOUS
 62
     2
100
AcDbLine
 10
52.71614
 20
102.129102
 30
0.0
 11
52.177846
 21
102.199335
 31
0.0
  0
LINE
  5
133
330
1F
100
AcDbEntity
  8
1
  6
CONTINUOUS
 62
     2
100
AcDbLine
 10
132.00726
 20
111.711414
 30
0.0
 11
132.990678
 21
112.282581
 31
0.0
  0
LINE
  5
134
330
1F
100
AcDbEntity
  8
1
  6
CONTINUOUS
 62
     2
100
AcDbLine
 10
132.00726
 20
111.711414
 30
0.0
 11
132.07259
 21
113.408279
 31
0.0
  0
LINE
  5
135
330
1F
100
AcDbEntity
  8
1
  6
CONTINUOUS
 62
     2
100
AcDbLine
 10
132.990678
 20
112.282581
 30
0.0
 11
133.016311
 21
112.948362
 31
0.0
  0
LINE
  5
136
330
1F
100
AcDbEntity
  8
1
  6
CONTINUOUS
 62
     2
100
AcDbLine
 10
131.318199
 20
113.775935
 30
0.0
 11
131.252869
 21
112.07907
 31
0.0
  0
LINE
  5
137
330
1F
100
AcDbEntity
  8
1
  6
CONTINUOUS
 62
     2
100
AcDbLine
 10
131.252869
 20
112.07907
 30
0.0
 11
127.858109
 21
113.733522
 31
0.0
  0
LINE
  5
138
330
1F
100
AcDbEntity
  8
1
  6
CONTINUOUS
 62
     2
100
AcDbLine
 10
131.292543
 20
113.110174
 30
0.0
 11
128.841526
 21
114.304689
 31
0.0
  0
LINE
  5
139
330
1F
100
AcDbEntity
  8
1
  6
CONTINUOUS
 62
     2
100
AcDbLine
 10
127.858109
 20
113.733522
 30
0.0
 11
128.841526
 21
114.304689
 31
0.0
  0
LINE
  5
13A
330
1F
100
AcDbEntity
  8
1
  6
CONTINUOUS
 62
     2
100
AcDbLine
 10
51.923856
 20
101.514807
 30
0.0
 11
51.858526
 21
99.817942
 31
0.0
  0
LINE
  5
13B
330
1F
100
AcDbEntity
  8
1
  6
CONTINUOUS
 62
     2
100
AcDbLine
 10
49.942239
 20
98.81183
 30
0.0
 11
49.338639
 21
97.185207
 31
0.0
  0
LINE
  5
13C
330
1F
100
AcDbEntity
  8
1
  6
CONTINUOUS
 62
     2
100
AcDbLine
 10
50.810331
 20
96.993191
 30
0.0
 11
51.667945
 21
99.304351
 31
0.0
  0
LINE
  5
13D
330
1F
100
AcDbEntity
  8
1
  6
CONTINUOUS
 62
     2
100
AcDbLine
 10
49.338639
 20
97.185207
 30
0.0
 11
50.810331
 21
96.993191
 31
0.0
  0
LINE
  5
13E
330
1F
100
AcDbEntity
  8
1
  6
CONTINUOUS
 62
     2
100
AcDbLine
 10
51.667945
 20
99.304351
 30
0.0
 11
51.129651
 21
99.374584
 31
0.0
  0
LINE
  5
13F
330
1F
100
AcDbEntity
  8
1
  6
CONTINUOUS
 62
     2
100
AcDbLine
 10
51.667945
 20
99.304351
 30
0.0
 11
51.733275
 21
101.001215
 31
0.0
  0
LINE
  5
140
330
1F
100
AcDbEntity
  8
1
  6
CONTINUOUS
 62
     2
100
AcDbLine
 10
110.863081
 20
69.454914
 30
0.0
 11
111.351355
 21
68.691732
 31
0.0
  0
LINE
  5
141
330
1F
100
AcDbEntity
  8
1
  6
CONTINUOUS
 62
     2
100
AcDbLine
 10
115.60373
 20
69.34844
 30
0.0
 11
111.351355
 21
68.691732
 31
0.0
  0
LINE
  5
142
330
1F
100
AcDbEntity
  8
1
  6
CONTINUOUS
 62
     2
100
AcDbLine
 10
120.801076
 20
70.151083
 30
0.0
 11
116.548702
 21
69.494375
 31
0.0
  0
LINE
  5
143
330
1F
100
AcDbEntity
  8
1
  6
CONTINUOUS
 62
     2
100
AcDbLine
 10
135.467351
 20
111.753827
 30
0.0
 11
136.450768
 21
112.324994
 31
0.0
  0
LINE
  5
144
330
1F
100
AcDbEntity
  8
1
  6
CONTINUOUS
 62
     2
100
AcDbLine
 10
132.07259
 20
113.408279
 30
0.0
 11
135.467351
 21
111.753827
 31
0.0
  0
LINE
  5
145
330
1F
100
AcDbEntity
  8
1
  6
CONTINUOUS
 62
     2
100
AcDbLine
 10
127.923439
 20
115.430387
 30
0.0
 11
131.318199
 21
113.775935
 31
0.0
  0
LINE
  5
146
330
1F
100
AcDbEntity
  8
1
  6
CONTINUOUS
 62
     2
100
AcDbLine
 10
52.78147
 20
103.825967
 30
0.0
 11
51.923856
 21
101.514807
 31
0.0
  0
LINE
  5
147
330
1F
100
AcDbEntity
  8
1
  6
CONTINUOUS
 62
     2
100
AcDbLine
 10
50.875661
 20
98.690055
 30
0.0
 11
49.403969
 21
98.882071
 31
0.0
  0
LINE
  5
148
330
1F
100
AcDbEntity
  8
1
  6
CONTINUOUS
 62
     2
100
AcDbLine
 10
51.733275
 20
101.001215
 30
0.0
 11
50.875661
 21
98.690055
 31
0.0
  0
LINE
  5
149
330
1F
100
AcDbEntity
  8
1
  6
CONTINUOUS
 62
     2
100
AcDbLine
 10
52.804336
 20
104.419869
 30
0.0
 11
52.940405
 21
112.390602
 31
0.0
  0
LINE
  5
14A
330
1F
100
AcDbEntity
  8
1
  6
CONTINUOUS
 62
     2
100
AcDbLine
 10
136.473634
 20
112.918896
 30
0.0
 11
135.490216
 21
112.34773
 31
0.0
  0
LINE
  5
14B
330
1F
100
AcDbEntity
  8
1
  6
CONTINUOUS
 62
     2
100
AcDbLine
 10
135.490216
 20
112.34773
 30
0.0
 11
135.062475
 21
121.199709
 31
0.0
  0
LINE
  5
14C
330
1F
100
AcDbEntity
  8
1
  6
CONTINUOUS
 62
     2
100
AcDbLine
 10
136.045893
 20
121.770876
 30
0.0
 11
136.473634
 21
112.918896
 31
0.0
  0
LINE
  5
14D
330
1F
100
AcDbEntity
  8
1
  6
CONTINUOUS
 62
     2
100
AcDbLine
 10
120.823942
 20
70.744986
 30
0.0
 11
120.20562
 21
79.083374
 31
0.0
  0
LINE
  5
14E
330
1F
100
AcDbEntity
  8
1
  6
CONTINUOUS
 62
     2
100
AcDbLine
 10
50.898527
 20
99.283958
 30
0.0
 11
49.426835
 21
99.475974
 31
0.0
  0
LINE
  5
14F
330
1F
100
AcDbEntity
  8
1
  6
CONTINUOUS
 62
     2
100
AcDbLine
 10
49.426835
 20
99.475974
 30
0.0
 11
49.944066
 21
108.473889
 31
0.0
  0
LINE
  5
150
330
1F
100
AcDbEntity
  8
1
  6
CONTINUOUS
 62
     2
100
AcDbLine
 10
51.415758
 20
108.281873
 30
0.0
 11
50.898527
 21
99.283958
 31
0.0
  0
LINE
  5
151
330
1F
100
AcDbEntity
  8
1
  6
CONTINUOUS
 62
     2
100
AcDbLine
 10
129.027346
 20
124.140957
 30
0.0
 11
127.946304
 21
116.02429
 31
0.0
  0
LINE
  5
152
330
1F
100
AcDbEntity
  8
1
  6
CONTINUOUS
 62
     2
100
AcDbLine
 10
111.374221
 20
69.285635
 30
0.0
 11
110.885947
 21
70.048817
 31
0.0
  0
LINE
  5
153
330
1F
100
AcDbEntity
  8
1
  6
CONTINUOUS
 62
     2
100
AcDbLine
 10
112.645843
 20
77.915893
 30
0.0
 11
111.374221
 21
69.285635
 31
0.0
  0
LINE
  5
154
330
1F
100
AcDbEntity
  8
1
  6
CONTINUOUS
 62
     2
100
AcDbLine
 10
110.885947
 20
70.048817
 30
0.0
 11
112.157569
 21
78.679076
 31
0.0
  0
LINE
  5
155
330
1F
100
AcDbEntity
  8
1
  6
CONTINUOUS
 62
     2
100
AcDbLine
 10
130.010764
 20
124.712124
 30
0.0
 11
129.027346
 21
124.140957
 31
0.0
  0
LINE
  5
156
330
1F
100
AcDbEntity
  8
1
  6
CONTINUOUS
 62
     2
100
AcDbLine
 10
135.062475
 20
121.199709
 30
0.0
 11
136.045893
 21
121.770876
 31
0.0
  0
LINE
  5
157
330
1F
100
AcDbEntity
  8
1
  6
CONTINUOUS
 62
     2
100
AcDbLine
 10
49.944066
 20
108.473889
 30
0.0
 11
51.415758
 21
108.281873
 31
0.0
  0
LINE
  5
158
330
1F
100
AcDbEntity
  8
1
  6
CONTINUOUS
 62
     2
100
AcDbLine
 10
52.940405
 20
112.390602
 30
0.0
 11
51.468714
 21
112.582618
 31
0.0
  0
LINE
  5
159
330
1F
100
AcDbEntity
  8
1
  6
CONTINUOUS
 62
     2
100
AcDbLine
 10
112.157569
 20
78.679076
 30
0.0
 11
112.645843
 21
77.915893
 31
0.0
  0
LINE
  5
15A
330
1F
100
AcDbEntity
  8
1
  6
CONTINUOUS
 62
     2
100
AcDbLine
 10
120.20562
 20
79.083374
 30
0.0
 11
119.717346
 21
79.846557
 31
0.0
  0
LINE
  5
15B
330
1F
100
AcDbEntity
  8
256
  6
CONTINUOUS
 62
     2
100
AcDbLine
 10
15.0
 20
287.0
 30
0.0
 11
405.0
 21
287.0
 31
0.0
  0
LINE
  5
15D
330
1F
100
AcDbEntity
  8
256
  6
CONTINUOUS
 62
     2
100
AcDbLine
 10
400.0
 20
100.0
 30
0.0
 11
400.0
 21
287.0
 31
0.0
  0
LINE
  5
15E
330
1F
100
AcDbEntity
  8
256
  6
CONTINUOUS
 62
     3
100
AcDbLine
 10
375.0
 20
287.0
 30
0.0
 11
375.0
 21
100.0
 31
0.0
  0
LINE
  5
15F
330
1F
100
AcDbEntity
  8
256
  6
CONTINUOUS
 62
     2
100
AcDbLine
 10
370.0
 20
287.0
 30
0.0
 11
370.0
 21
100.0
 31
0.0
  0
LINE
  5
160
330
1F
100
AcDbEntity
  8
256
  6
CONTINUOUS
 62
     2
100
AcDbLine
 10
15.0
 20
287.0
 30
0.0
 11
15.0
 21
10.0
 31
0.0
  0
LINE
  5
161
330
1F
100
AcDbEntity
  8
256
  6
CONTINUOUS
 62
     3
100
AcDbLine
 10
205.0
 20
297.0
 30
0.0
 11
205.0
 21
287.0
 31
0.0
  0
LINE
  5
162
330
1F
100
AcDbEntity
  8
256
  6
CONTINUOUS
 62
     3
100
AcDbLine
 10
395.0
 20
287.0
 30
0.0
 11
395.0
 21
100.0
 31
0.0
  0
LINE
  5
163
330
1F
100
AcDbEntity
  8
256
  6
CONTINUOUS
 62
     2
100
AcDbLine
 10
15.0
 20
10.0
 30
0.0
 11
405.0
 21
10.0
 31
0.0
  0
LINE
  5
164
330
1F
100
AcDbEntity
  8
256
  6
CONTINUOUS
 62
     3
100
AcDbLine
 10
380.0
 20
287.0
 30
0.0
 11
380.0
 21
100.0
 31
0.0
  0
LINE
  5
165
330
1F
100
AcDbEntity
  8
256
  6
CONTINUOUS
 62
     3
100
AcDbLine
 10
-0.04
 20
148.5
 30
0.0
 11
15.0
 21
148.5
 31
0.0
  0
LINE
  5
166
330
1F
100
AcDbEntity
  8
256
  6
CONTINUOUS
 62
     3
100
AcDbLine
 10
205.0
 20
0.0
 30
0.0
 11
205.0
 21
10.0
 31
0.0
  0
LINE
  5
167
330
1F
100
AcDbEntity
  8
256
  6
CONTINUOUS
 62
     3
100
AcDbLine
 10
390.0
 20
287.0
 30
0.0
 11
390.0
 21
100.0
 31
0.0
  0
LINE
  5
168
330
1F
100
AcDbEntity
  8
256
  6
CONTINUOUS
 62
     2
100
AcDbLine
 10
405.0
 20
10.0
 30
0.0
 11
405.0
 21
287.0
 31
0.0
  0
LINE
  5
169
330
1F
100
AcDbEntity
  8
256
  6
CONTINUOUS
 62
     3
100
AcDbLine
 10
385.0
 20
287.0
 30
0.0
 11
385.0
 21
100.0
 31
0.0
  0
LINE
  5
16A
330
1F
100
AcDbEntity
  8
256
  6
CONTINUOUS
 62
     3
100
AcDbLine
 10
0.0
 20
297.0
 30
0.0
 11
415.0
 21
297.0
 31
0.0
  0
LINE
  5
16B
330
1F
100
AcDbEntity
  8
256
  6
CONTINUOUS
 62
     3
100
AcDbLine
 10
415.0
 20
0.0
 30
0.0
 11
415.0
 21
297.0
 31
0.0
  0
LINE
  5
16C
330
1F
100
AcDbEntity
  8
256
  6
CONTINUOUS
 62
     3
100
AcDbLine
 10
0.0
 20
0.0
 30
0.0
 11
415.0
 21
0.0
 31
0.0
  0
LINE
  5
16D
330
1F
100
AcDbEntity
  8
256
  6
CONTINUOUS
 62
     3
100
AcDbLine
 10
0.0
 20
297.0
 30
0.0
 11
0.0
 21
0.0
 31
0.0
  0
LINE
  5
16E
330
1F
100
AcDbEntity
  8
256
  6
CONTINUOUS
 62
     2
100
AcDbLine
 10
325.0
 20
67.5
 30
0.0
 11
405.0
 21
67.5
 31
0.0
  0
LINE
  5
16F
330
1F
100
AcDbEntity
  8
256
  6
CONTINUOUS
 62
     2
100
AcDbLine
 10
267.5
 20
51.0
 30
0.0
 11
365.0
 21
51.0
 31
0.0
  0
LINE
  5
170
330
1F
100
AcDbEntity
  8
256
  6
CONTINUOUS
 62
     3
100
AcDbLine
 10
383.0
 20
56.579805
 30
0.0
 11
383.0
 21
49.500705
 31
0.0
  0
LINE
  5
171
330
1F
100
AcDbEntity
  8
256
  6
CONTINUOUS
 62
     3
100
AcDbLine
 10
256.875
 20
22.0
 30
0.0
 11
256.875
 21
10.0
 31
0.0
  0
LINE
  5
172
330
1F
100
AcDbEntity
  8
256
  6
CONTINUOUS
 62
     2
100
AcDbLine
 10
225.0
 20
100.0
 30
0.0
 11
405.0
 21
100.0
 31
0.0
  0
LINE
  5
173
330
1F
100
AcDbEntity
  8
256
  6
CONTINUOUS
 62
     3
100
AcDbLine
 10
325.0
 20
62.0
 30
0.0
 11
365.0
 21
62.0
 31
0.0
  0
LINE
  5
174
330
1F
100
AcDbEntity
  8
256
  6
CONTINUOUS
 62
     3
100
AcDbLine
 10
383.0
 20
49.500705
 30
0.0
 11
374.97
 21
51.256405
 31
0.0
  0
LINE
  5
175
330
1F
100
AcDbEntity
  8
256
  6
CONTINUOUS
 62
     2
100
AcDbLine
 10
225.0
 20
10.0
 30
0.0
 11
405.0
 21
10.0
 31
0.0
  0
LINE
  5
176
330
1F
100
AcDbEntity
  8
256
  6
CONTINUOUS
 62
     2
100
AcDbLine
 10
267.5
 20
44.0
 30
0.0
 11
405.0
 21
44.0
 31
0.0
  0
LINE
  5
177
330
1F
100
AcDbEntity
  8
256
  6
CONTINUOUS
 62
     3
100
AcDbLine
 10
374.97
 20
54.824205
 30
0.0
 11
374.97
 21
51.256405
 31
0.0
  0
LINE
  5
178
330
1F
100
AcDbEntity
  8
256
  6
CONTINUOUS
 62
     2
100
AcDbLine
 10
225.0
 20
28.0
 30
0.0
 11
267.5
 21
28.0
 31
0.0
  0
LINE
  5
179
330
1F
100
AcDbEntity
  8
256
  6
CENTER
 62
     3
100
AcDbLine
 10
391.579
 20
57.640305
 30
0.0
 11
391.579
 21
48.487505
 31
0.0
  0
LINE
  5
17A
330
1F
100
AcDbEntity
  8
256
  6
CONTINUOUS
 62
     3
100
AcDbLine
 10
383.0
 20
56.579805
 30
0.0
 11
374.97
 21
54.824205
 31
0.0
  0
LINE
  5
17B
330
1F
100
AcDbEntity
  8
256
  6
CONTINUOUS
 62
     3
100
AcDbLine
 10
325.0
 20
56.5
 30
0.0
 11
365.0
 21
56.5
 31
0.0
  0
LINE
  5
17C
330
1F
100
AcDbEntity
  8
256
  6
CENTER
 62
     3
100
AcDbLine
 10
386.745
 20
53.040305
 30
0.0
 11
396.158
 21
53.040305
 31
0.0
  0
LINE
  5
17D
330
1F
100
AcDbEntity
  8
256
  6
CONTINUOUS
 62
     2
100
AcDbLine
 10
365.0
 20
67.5
 30
0.0
 11
365.0
 21
10.0
 31
0.0
  0
LINE
  5
17E
330
1F
100
AcDbEntity
  8
256
  6
CONTINUOUS
 62
     3
100
AcDbLine
 10
365.0
 20
28.0
 30
0.0
 11
405.0
 21
28.0
 31
0.0
  0
LINE
  5
17F
330
1F
100
AcDbEntity
  8
256
  6
CONTINUOUS
 62
     3
100
AcDbLine
 10
345.0
 20
51.0
 30
0.0
 11
345.0
 21
67.5
 31
0.0
  0
LINE
  5
180
330
1F
100
AcDbEntity
  8
256
  6
CONTINUOUS
 62
     2
100
AcDbLine
 10
225.0
 20
100.0
 30
0.0
 11
225.0
 21
10.0
 31
0.0
  0
LINE
  5
181
330
1F
100
AcDbEntity
  8
256
  6
CONTINUOUS
 62
     3
100
AcDbLine
 10
225.0
 20
35.9
 30
0.0
 11
267.5
 21
35.9
 31
0.0
  0
LINE
  5
182
330
1F
100
AcDbEntity
  8
256
  6
CONTINUOUS
 62
     3
100
AcDbLine
 10
246.25
 20
16.0
 30
0.0
 11
267.5
 21
16.0
 31
0.0
  0
LINE
  5
183
330
1F
100
AcDbEntity
  8
256
  6
CONTINUOUS
 62
     2
100
AcDbLine
 10
225.0
 20
58.0
 30
0.0
 11
267.5
 21
58.0
 31
0.0
  0
LINE
  5
184
330
1F
100
AcDbEntity
  8
256
  6
CONTINUOUS
 62
     3
100
AcDbLine
 10
267.5
 20
43.8
 30
0.0
 11
225.0
 21
43.8
 31
0.0
  0
LINE
  5
185
330
1F
100
AcDbEntity
  8
256
  6
CONTINUOUS
 62
     3
100
AcDbLine
 10
307.189666
 20
60.322391
 30
0.0
 11
305.409666
 21
59.762391
 31
0.0
  0
LINE
  5
186
330
1F
100
AcDbEntity
  8
256
  6
CONTINUOUS
 62
     3
100
AcDbLine
 10
225.0
 20
71.88581
 30
0.0
 11
267.5
 21
71.88581
 31
0.0
  0
LINE
  5
187
330
1F
100
AcDbEntity
  8
256
  6
CONTINUOUS
 62
     2
100
AcDbLine
 10
225.0
 20
79.88581
 30
0.0
 11
325.0
 21
79.88581
 31
0.0
  0
LINE
  5
188
330
1F
100
AcDbEntity
  8
256
  6
CONTINUOUS
 62
     3
100
AcDbLine
 10
307.189666
 20
60.322391
 30
0.0
 11
305.409666
 21
60.882391
 31
0.0
  0
LINE
  5
189
330
1F
100
AcDbEntity
  8
256
  6
CONTINUOUS
 62
     2
100
AcDbLine
 10
267.5
 20
58.0
 30
0.0
 11
325.0
 21
58.0
 31
0.0
  0
LINE
  5
18A
330
1F
100
AcDbEntity
  8
256
  6
CONTINUOUS
 62
     3
100
AcDbLine
 10
267.5
 20
51.0
 30
0.0
 11
225.0
 21
51.0
 31
0.0
  0
LINE
  5
18B
330
1F
100
AcDbEntity
  8
256
  6
CONTINUOUS
 62
     3
100
AcDbLine
 10
297.599666
 20
71.897391
 30
0.0
 11
297.599666
 21
58.842391
 31
0.0
  0
LINE
  5
18C
330
1F
100
AcDbEntity
  8
256
  6
CONTINUOUS
 62
     2
100
AcDbLine
 10
256.875
 20
22.0
 30
0.0
 11
246.25
 21
22.0
 31
0.0
  0
LINE
  5
18D
330
1F
100
AcDbEntity
  8
256
  6
CONTINUOUS
 62
     2
100
AcDbLine
 10
225.0
 20
87.88581
 30
0.0
 11
325.0
 21
87.88581
 31
0.0
  0
LINE
  5
18E
330
1F
100
AcDbEntity
  8
256
  6
CONTINUOUS
 62
     3
100
AcDbLine
 10
251.563
 20
22.0
 30
0.0
 11
251.563
 21
10.0
 31
0.0
  0
LINE
  5
18F
330
1F
100
AcDbEntity
  8
256
  6
CENTER
 62
     3
100
AcDbLine
 10
373.719
 20
53.040305
 30
0.0
 11
384.383
 21
53.040305
 31
0.0
  0
LINE
  5
190
330
1F
100
AcDbEntity
  8
256
  6
CONTINUOUS
 62
     2
100
AcDbLine
 10
325.0
 20
51.0
 30
0.0
 11
325.0
 21
100.0
 31
0.0
  0
LINE
  5
191
330
1F
100
AcDbEntity
  8
256
  6
CONTINUOUS
 62
     2
100
AcDbLine
 10
246.25
 20
28.0
 30
0.0
 11
246.25
 21
10.0
 31
0.0
  0
LINE
  5
192
330
1F
100
AcDbEntity
  8
256
  6
CONTINUOUS
 62
     3
100
AcDbLine
 10
262.188
 20
28.0
 30
0.0
 11
262.188
 21
10.0
 31
0.0
  0
LINE
  5
193
330
1F
100
AcDbEntity
  8
256
  6
CONTINUOUS
 62
     2
100
AcDbLine
 10
246.25
 20
58.0
 30
0.0
 11
246.25
 21
27.9773
 31
0.0
  0
LINE
  5
194
330
1F
100
AcDbEntity
  8
256
  6
CONTINUOUS
 62
     3
100
AcDbLine
 10
365.0
 20
36.0
 30
0.0
 11
405.0
 21
36.0
 31
0.0
  0
LINE
  5
195
330
1F
100
AcDbEntity
  8
256
  6
CONTINUOUS
 62
     3
100
AcDbLine
 10
256.875
 20
22.0
 30
0.0
 11
267.5
 21
22.0
 31
0.0
  0
LINE
  5
196
330
1F
100
AcDbEntity
  8
256
  6
CONTINUOUS
 62
     2
100
AcDbLine
 10
267.5
 20
10.0
 30
0.0
 11
267.5
 21
79.88581
 31
0.0
  0
LINE
  5
197
330
1F
100
AcDbEntity
  8
256
  6
CONTINUOUS
 62
     2
100
AcDbLine
 10
256.875
 20
22.0
 30
0.0
 11
256.875
 21
28.0
 31
0.0
  0
LINE
  5
198
330
1F
100
AcDbEntity
  8
256
  6
CONTINUOUS
 62
     2
100
AcDbLine
 10
370.0
 20
107.0
 30
0.0
 11
405.0
 21
107.0
 31
0.0
  0
LINE
  5
199
330
1F
100
AcDbEntity
  8
255
  6
CONTINUOUS
 62
   172
 60
     1
100
AcDbLine
 10
360.507562
 20
231.958166
 30
0.0
 11
360.507562
 21
231.957166
 31
0.0
  0
CIRCLE
  5
19A
330
1F
100
AcDbEntity
  8
1
  6
CONTINUOUS
 62
     2
100
AcDbCircle
 10
238.978308
 20
222.98769
 30
0.0
 40
43.0
  0
CIRCLE
  5
19B
330
1F
100
AcDbEntity
  8
255
  6
CONTINUOUS
 62
   150
100
AcDbCircle
 10
130.638242
 20
182.15958
 30
0.0
 40
43.0
  0
CIRCLE
  5
19C
330
1F
100
AcDbEntity
  8
255
  6
CONTINUOUS
 62
   150
100
AcDbCircle
 10
170.317858
 20
250.886692
 30
0.0
 40
1.929875777323933
  0
CIRCLE
  5
19D
330
1F
100
AcDbEntity
  8
255
  6
CONTINUOUS
 62
   150
100
AcDbCircle
 10
174.317858
 20
257.814895
 30
0.0
 40
1.929875777323933
  0
CIRCLE
  5
19E
330
1F
100
AcDbEntity
  8
255
  6
CONTINUOUS
 62
   150
100
AcDbCircle
 10
166.317858
 20
243.958489
 30
0.0
 40
1.929875777323933
  0
CIRCLE
  5
19F
330
1F
100
AcDbEntity
  8
256
  6
CONTINUOUS
 62
     3
100
AcDbCircle
 10
391.579
 20
53.040305
 30
0.0
 40
1.78392
  0
CIRCLE
  5
1A0
330
1F
100
AcDbEntity
  8
256
  6
CONTINUOUS
 62
     3
100
AcDbCircle
 10
294.709666
 20
61.202391
 30
0.0
 40
0.197989
  0
CIRCLE
  5
1A1
330
1F
100
AcDbEntity
  8
256
  6
CONTINUOUS
 62
     3
100
AcDbCircle
 10
391.579
 20
53.040305
 30
0.0
 40
3.53955
  0
ELLIPSE
  5
1A2
330
1F
100
AcDbEntity
  8
1
  6
CONTINUOUS
 62
     2
100
AcDbEllipse
 10
358.507562
 20
267.313505
 30
0.0
 11
-2.0
 21
-2.121080424092023E-16
 31
0.0
210
0.0
220
0.0
230
1.0
 40
0.866025
 41
4.459687065705607
 42
4.71238898038469
  0
ELLIPSE
  5
1A3
330
1F
100
AcDbEntity
  8
1
  6
CONTINUOUS
 62
     2
100
AcDbEllipse
 10
358.507562
 20
178.661875
 30
0.0
 11
2.0
 21
0.0
 31
0.0
210
0.0
220
0.0
230
1.0
 40
0.866025
 41
4.712388980384686
 42
4.965090895063764
  0
ELLIPSE
  5
1A4
330
1F
100
AcDbEntity
  8
1
  6
CONTINUOUS
 62
     2
100
AcDbEllipse
 10
358.507562
 20
267.313505
 30
0.0
 11
-0.5
 21
-5.302701060230057E-17
 31
0.0
210
0.0
220
0.0
230
1.0
 40
0.866025
 41
3.14159265358976
 42
4.712388980384693
  0
ELLIPSE
  5
1A5
330
1F
100
AcDbEntity
  8
1
  6
CONTINUOUS
 62
     2
100
AcDbEllipse
 10
358.507562
 20
262.313505
 30
0.0
 11
0.5
 21
0.0
 31
0.0
210
0.0
220
0.0
230
1.0
 40
0.866025
 41
0.0
 42
1.570796326794896
  0
ELLIPSE
  5
1A6
330
1F
100
AcDbEntity
  8
1
  6
CONTINUOUS
 62
     2
100
AcDbEllipse
 10
358.507562
 20
178.661875
 30
0.0
 11
0.5
 21
0.0
 31
0.0
210
0.0
220
0.0
230
1.0
 40
0.866025
 41
4.712388980384691
 42
6.283185307179586
  0
ELLIPSE
  5
1A7
330
1F
100
AcDbEntity
  8
1
  6
CONTINUOUS
 62
     2
100
AcDbEllipse
 10
358.507562
 20
183.661875
 30
0.0
 11
-0.5
 21
-5.302701060230057E-17
 31
0.0
210
0.0
220
0.0
230
1.0
 40
0.866025
 41
1.570796326794893
 42
3.141592653589793
  0
ELLIPSE
  5
1A8
330
1F
100
AcDbEntity
  8
1
  6
CONTINUOUS
 62
     2
100
AcDbEllipse
 10
329.007562
 20
266.545556
 30
0.0
 11
-1.929875777323933
 21
-2.046710866105585E-16
 31
0.0
210
0.0
220
0.0
230
1.0
 40
0.5
 41
0.7384704505765393
 42
2.403220139542134
  0
ELLIPSE
  5
1A9
330
1F
100
AcDbEntity
  8
1
  6
CONTINUOUS
 62
     2
100
AcDbEllipse
 10
329.007562
 20
265.246518
 30
0.0
 11
-1.929875777323933
 21
-2.046710866105585E-16
 31
0.0
210
0.0
220
0.0
230
1.0
 40
0.5
 41
0.0
 42
6.283185307179586
  0
ELLIPSE
  5
1AA
330
1F
100
AcDbEntity
  8
1
  6
CONTINUOUS
 62
     2
100
AcDbEllipse
 10
321.007562
 20
266.545556
 30
0.0
 11
-1.929875777323933
 21
-2.046710866105585E-16
 31
0.0
210
0.0
220
0.0
230
1.0
 40
0.5
 41
0.7384704505765393
 42
2.403220139542134
  0
ELLIPSE
  5
1AB
330
1F
100
AcDbEntity
  8
1
  6
CONTINUOUS
 62
     2
100
AcDbEllipse
 10
321.007562
 20
265.246518
 30
0.0
 11
-1.929875777323933
 21
-2.046710866105585E-16
 31
0.0
210
0.0
220
0.0
230
1.0
 40
0.5
 41
0.0
 42
6.283185307179586
  0
ELLIPSE
  5
1AC
330
1F
100
AcDbEntity
  8
1
  6
CONTINUOUS
 62
     2
100
AcDbEllipse
 10
337.007562
 20
265.246518
 30
0.0
 11
-1.929875777323933
 21
-2.046710866105585E-16
 31
0.0
210
0.0
220
0.0
230
1.0
 40
0.5
 41
0.0
 42
6.283185307179586
  0
ELLIPSE
  5
1AD
330
1F
100
AcDbEntity
  8
1
  6
CONTINUOUS
 62
     2
100
AcDbEllipse
 10
337.007562
 20
266.545556
 30
0.0
 11
-1.929875777323933
 21
-2.046710866105585E-16
 31
0.0
210
0.0
220
0.0
230
1.0
 40
0.5
 41
0.7384704505765393
 42
2.403220139542134
  0
ELLIPSE
  5
1AE
330
1F
100
AcDbEntity
  8
1
  6
CONTINUOUS
 62
     2
100
AcDbEllipse
 10
97.966187
 20
49.874968
 30
0.0
 11
42.96816623184181
 21
-1.654294614876501
 31
0.0
210
-1.735193867902679E-18
220
-4.506941985426271E-17
230
0.9999999999999999
 40
0.528295
 41
1.279207833798826
 42
3.113505239351994
  0
ELLIPSE
  5
1AF
330
1F
100
AcDbEntity
  8
1
  6
CONTINUOUS
 62
     2
100
AcDbEllipse
 10
97.966187
 20
49.874968
 30
0.0
 11
42.96816623184181
 21
-1.654294614876501
 31
0.0
210
-1.735193867902679E-18
220
-4.506941985426271E-17
230
0.9999999999999999
 40
0.528295
 41
0.0280685763453691
 42
1.065874059130455
  0
ELLIPSE
  5
1B0
330
1F
100
AcDbEntity
  8
1
  6
CONTINUOUS
 62
     2
100
AcDbEllipse
 10
109.027873
 20
26.269572
 30
0.0
 11
0.3052479728660909
 21
-1.97656866186357
 31
1.110223024625157E-16
210
1.895806728451615E-17
220
5.909696755003786E-17
230
1.0
 40
0.292798
 41
5.6978138902662
 42
7.268610217061135
  0
ELLIPSE
  5
1B1
330
1F
100
AcDbEntity
  8
1
  6
CONTINUOUS
 62
     2
100
AcDbEllipse
 10
49.693775
 20
55.186314
 30
0.0
 11
1.875066724427641
 21
-0.6957907580186716
 31
-5.551115123125783E-17
210
6.705993324539188E-17
220
1.009365205417556E-16
230
1.0
 40
0.836602
 41
3.409320719439546
 42
4.778564037318267
  0
ELLIPSE
  5
1B2
330
1F
100
AcDbEntity
  8
1
  6
CONTINUOUS
 62
     2
100
AcDbEllipse
 10
118.477594
 20
27.728923
 30
0.0
 11
-0.3052479728660909
 21
1.97656866186357
 31
-1.110223024625157E-16
210
1.895806728451615E-17
220
5.909696755003786E-17
230
1.0
 40
0.292798
 41
3.141612643318206
 42
4.127017563471328
  0
ELLIPSE
  5
1B3
330
1F
100
AcDbEntity
  8
1
  6
CONTINUOUS
 62
     2
100
AcDbEllipse
 10
133.467094
 20
68.123702
 30
0.0
 11
0.876193179639316
 21
1.797855809555801
 31
-1.110223024625157E-16
210
2.431924605137736E-17
220
4.990052286812378E-17
230
1.0
 40
0.543804
 41
4.516909238816949
 42
5.39331523430572
  0
ELLIPSE
  5
1B4
330
1F
100
AcDbEntity
  8
1
  6
CONTINUOUS
 62
     2
100
AcDbEllipse
 10
98.015185
 20
51.147617
 30
0.0
 11
-42.96816623184181
 21
1.654294614876501
 31
0.0
210
-1.735193867902679E-18
220
-4.506941985426271E-17
230
0.9999999999999999
 40
0.528295
 41
4.540868238607427
 42
6.283185307179586
  0
ELLIPSE
  5
1B5
330
1F
100
AcDbEntity
  8
1
  6
CONTINUOUS
 62
     2
100
AcDbEllipse
 10
98.015185
 20
51.147617
 30
0.0
 11
-42.96816623184181
 21
1.654294614876501
 31
0.0
210
-1.735193867902679E-18
220
-4.506941985426271E-17
230
0.9999999999999999
 40
0.528295
 41
0.0
 42
1.856868190702674
  0
ELLIPSE
  5
1B6
330
1F
100
AcDbEntity
  8
1
  6
CONTINUOUS
 62
     2
100
AcDbEllipse
 10
98.015185
 20
51.147617
 30
0.0
 11
-42.96816623184181
 21
1.654294614876501
 31
0.0
210
-1.735193867902679E-18
220
-4.506941985426271E-17
230
0.9999999999999999
 40
0.528295
 41
2.108882833314412
 42
4.174479995133183
  0
ELLIPSE
  5
1B7
330
1F
100
AcDbEntity
  8
1
  6
CONTINUOUS
 62
     2
100
AcDbEllipse
 10
98.015185
 20
51.147617
 30
0.0
 11
-42.96816623184181
 21
1.654294614876501
 31
0.0
210
-1.735193867902679E-18
220
-4.506941985426271E-17
230
0.9999999999999999
 40
0.528295
 41
4.417364381188871
 42
4.540868238607429
  0
ELLIPSE
  5
1B8
330
1F
100
AcDbEntity
  8
1
  6
CONTINUOUS
 62
     2
100
AcDbEllipse
 10
49.693775
 20
55.186314
 30
0.0
 11
0.4687666811069102
 21
-0.1739476895046679
 31
-1.387778780781446E-17
210
6.705993324539188E-17
220
1.009365205417556E-16
230
1.0
 40
0.836602
 41
3.409320719439518
 42
4.980117046234428
  0
ELLIPSE
  5
1B9
330
1F
100
AcDbEntity
  8
1
  6
CONTINUOUS
 62
     2
100
AcDbEllipse
 10
51.599584
 20
60.322225
 30
0.0
 11
-0.4687666811069102
 21
0.1739476895046679
 31
1.387778780781446E-17
210
6.705993324539188E-17
220
1.009365205417556E-16
230
1.0
 40
0.836602
 41
0.2677280658497377
 42
1.838524392644664
  0
ELLIPSE
  5
1BA
330
1F
100
AcDbEntity
  8
1
  6
CONTINUOUS
 62
     2
100
AcDbEllipse
 10
109.027873
 20
26.269572
 30
0.0
 11
0.07631199321652272
 21
-0.4941421654658925
 31
2.775557561562891E-17
210
1.895806728451615E-17
220
5.909696755003786E-17
230
1.0
 40
0.292798
 41
5.697813890266193
 42
7.268610217061128
  0
ELLIPSE
  5
1BB
330
1F
100
AcDbEntity
  8
1
  6
CONTINUOUS
 62
     2
100
AcDbEllipse
 10
125.923182
 20
71.800261
 30
0.0
 11
-0.219048294909829
 21
-0.4494639523889503
 31
2.775557561562891E-17
210
2.431924605137736E-17
220
4.990052286812378E-17
230
1.0
 40
0.543804
 41
0.6809262539210358
 42
2.251722580715937
  0
ELLIPSE
  5
1BC
330
1F
100
AcDbEntity
  8
1
  6
CONTINUOUS
 62
     2
100
AcDbEllipse
 10
133.467094
 20
68.123702
 30
0.0
 11
0.219048294909829
 21
0.4494639523889503
 31
-2.775557561562891E-17
210
2.431924605137736E-17
220
4.990052286812378E-17
230
1.0
 40
0.543804
 41
3.822518907510845
 42
5.393315234305711
  0
ELLIPSE
  5
1BD
330
1F
100
AcDbEntity
  8
1
  6
CONTINUOUS
 62
     2
100
AcDbEllipse
 10
115.367384
 20
51.010426
 30
0.0
 11
1.625636495167166
 21
1.04006081624214
 31
0.0
210
-1.495820973000170E-17
220
2.337999015030111E-17
230
1.0
 40
0.796978
 41
0.0
 42
6.283185307179586
  0
ELLIPSE
  5
1BE
330
1F
100
AcDbEntity
  8
1
  6
CONTINUOUS
 62
     2
100
AcDbEllipse
 10
114.87911
 20
51.773608
 30
0.0
 11
1.625636495167166
 21
1.04006081624214
 31
0.0
210
-1.495820973000169E-17
220
2.337999015030110E-17
230
1.0
 40
0.796978
 41
3.440637291426089
 42
5.984149091123173
  0
ELLIPSE
  5
1BF
330
1F
100
AcDbEntity
  8
1
  6
CONTINUOUS
 62
     2
100
AcDbEllipse
 10
115.628705
 20
57.797884
 30
0.0
 11
1.625636495167166
 21
1.04006081624214
 31
0.0
210
-1.495820973000170E-17
220
2.337999015030111E-17
230
1.0
 40
0.796978
 41
0.0
 42
6.283185307179586
  0
ELLIPSE
  5
1C0
330
1F
100
AcDbEntity
  8
1
  6
CONTINUOUS
 62
     2
100
AcDbEllipse
 10
115.140431
 20
58.561067
 30
0.0
 11
1.625636495167166
 21
1.04006081624214
 31
0.0
210
-1.495820973000170E-17
220
2.337999015030111E-17
230
1.0
 40
0.796978
 41
3.440637291426087
 42
5.984149091123167
  0
ELLIPSE
  5
1C1
330
1F
100
AcDbEntity
  8
1
  6
CONTINUOUS
 62
     2
100
AcDbEllipse
 10
114.61779
 20
44.986149
 30
0.0
 11
1.625636495167166
 21
1.04006081624214
 31
0.0
210
-1.495820973000170E-17
220
2.337999015030111E-17
230
1.0
 40
0.796978
 41
3.440637291426087
 42
5.984149091123167
  0
ELLIPSE
  5
1C2
330
1F
100
AcDbEntity
  8
1
  6
CONTINUOUS
 62
     2
100
AcDbEllipse
 10
115.106064
 20
44.222967
 30
0.0
 11
1.625636495167166
 21
1.04006081624214
 31
0.0
210
-1.495820973000170E-17
220
2.337999015030111E-17
230
1.0
 40
0.796978
 41
0.0
 42
6.283185307179586
  0
MTEXT
  5
1C3
330
1F
100
AcDbEntity
  8
256
  6
CONTINUOUS
 62
     3
100
AcDbMText
 10
404.150173
 20
172.859201
 30
0.0
 40
2.0
 41
0.0
 71
     7
 72
     5
  1
\W00.772;MODIFICACIONES / 
  7
DEFAULT
 11
4.502122416191745E-15
 21
1.0
 31
0.0
1001
ACAD
1000
MTEXTBEGIN
1070
    73
1070
     2
1070
    44
1040
0.903614
1000
MTEXTEND
1000
ACAD_MTEXT_DEFINED_HEIGHT_BEGIN
1070
    46
1040
0.2
1000
ACAD_MTEXT_DEFINED_HEIGHT_END
  0
MTEXT
  5
1C7
330
1F
100
AcDbEntity
  8
256
  6
CONTINUOUS
 62
     3
100
AcDbMText
 10
404.150173
 20
195.041874
 30
0.0
 40
2.0
 41
0.0
 71
     7
 72
     5
  1
\W00.817;\Q20.000000;MODIFICATIONS\Q0; 
  7
DEFAULT
 11
2.503720971866463E-15
 21
1.0
 31
0.0
1001
ACAD
1000
MTEXTBEGIN
1070
    73
1070
     2
1070
    44
1040
0.903614
1000
MTEXTEND
1000
ACAD_MTEXT_DEFINED_HEIGHT_BEGIN
1070
    46
1040
0.2
1000
ACAD_MTEXT_DEFINED_HEIGHT_END
  0
MTEXT
  5
1C8
330
1F
100
AcDbEntity
  8
256
  6
CONTINUOUS
 62
     3
100
AcDbMText
 10
354.80185
 20
56.431485
 30
0.0
 40
3.5
 41
0.0
 71
     7
 72
     5
  1
\W01.000; 
  7
DEFAULT
1001
ACAD
1000
MTEXTBEGIN
1070
    73
1070
     2
1070
    44
1040
0.903614
1000
MTEXTEND
1000
ACAD_MTEXT_DEFINED_HEIGHT_BEGIN
1070
    46
1040
0.2
1000
ACAD_MTEXT_DEFINED_HEIGHT_END
  0
MTEXT
  5
1C9
330
1F
100
AcDbEntity
  8
255
  6
CONTINUOUS
 62
     2
100
AcDbMText
 10
373.918738
 20
14.511633
 30
0.0
 40
4.5
 41
0.0
 71
     7
 72
     5
  1
\W01.000; 
  7
DEFAULT
1001
ACAD
1000
MTEXTBEGIN
1070
    73
1070
     2
1070
    44
1040
0.903614
1000
MTEXTEND
1000
ACAD_MTEXT_DEFINED_HEIGHT_BEGIN
1070
    46
1040
0.2
1000
ACAD_MTEXT_DEFINED_HEIGHT_END
  0
MTEXT
  5
1CA
330
1F
100
AcDbEntity
  8
256
  6
CONTINUOUS
 62
     3
100
AcDbMText
 10
268.7503
 20
45.497799
 30
0.0
 40
1.4
 41
0.0
 71
     7
 72
     5
  1
\W00.695;\Q20.000000;It cancels and substitutes the precedents date\Q0; 
  7
DEFAULT
1001
ACAD
1000
MTEXTBEGIN
1070
    73
1070
     2
1070
    44
1040
0.903614
1000
MTEXTEND
1000
ACAD_MTEXT_DEFINED_HEIGHT_BEGIN
1070
    46
1040
0.2
1000
ACAD_MTEXT_DEFINED_HEIGHT_END
  0
MTEXT
  5
1CB
330
1F
100
AcDbEntity
  8
256
  6
CONTINUOUS
 62
     3
100
AcDbMText
 10
309.377174
 20
58.908527
 30
0.0
 40
1.7
 41
0.0
 71
     7
 72
     5
  1
\W00.797;50     0,25 
  7
DEFAULT
1001
ACAD
1000
MTEXTBEGIN
1070
    73
1070
     2
1070
    44
1040
0.903614
1000
MTEXTEND
1000
ACAD_MTEXT_DEFINED_HEIGHT_BEGIN
1070
    46
1040
0.2
1000
ACAD_MTEXT_DEFINED_HEIGHT_END
  0
MTEXT
  5
1CC
330
1F
100
AcDbEntity
  8
256
  6
CONTINUOUS
 62
     3
100
AcDbMText
 10
326.17134
 20
62.54831
 30
0.0
 40
1.5
 41
0.0
 71
     7
 72
     5
  1
\W00.794;\Q20.000000;DEMOULD\Q0; 
  7
DEFAULT
1001
ACAD
1000
MTEXTBEGIN
1070
    73
1070
     2
1070
    44
1040
0.903614
1000
MTEXTEND
1000
ACAD_MTEXT_DEFINED_HEIGHT_BEGIN
1070
    46
1040
0.2
1000
ACAD_MTEXT_DEFINED_HEIGHT_END
  0
MTEXT
  5
1CD
330
1F
100
AcDbEntity
  8
256
  6
CONTINUOUS
 62
     3
100
AcDbMText
 10
225.71949
 20
69.268308
 30
0.0
 40
1.5
 41
0.0
 71
     7
 72
     5
  1
\W00.777;ACABADO / TRATAMIENTO 
  7
DEFAULT
1001
ACAD
1000
MTEXTBEGIN
1070
    73
1070
     2
1070
    44
1040
0.903614
1000
MTEXTEND
1000
ACAD_MTEXT_DEFINED_HEIGHT_BEGIN
1070
    46
1040
0.2
1000
ACAD_MTEXT_DEFINED_HEIGHT_END
  0
MTEXT
  5
1CE
330
1F
100
AcDbEntity
  8
256
  6
CONTINUOUS
 62
     3
100
AcDbMText
 10
231.368239
 20
92.056025
 30
0.0
 40
1.7
 41
0.0
 71
     7
 72
     5
  1
\W00.733;PROPIEDAD DE J. FELIU DE LA PENYA, S.L. NO SERA REPRODUCIDO TOTAL O PARCIALMENTE\P NI ENTREGADO A TERCEROS SIN AUTORIZACION ESCRITA\P 
  7
DEFAULT
1001
ACAD
1000
MTEXTBEGIN
1070
    44
1040
0.903614
1000
MTEXTEND
1000
ACAD_MTEXT_DEFINED_HEIGHT_BEGIN
1070
    46
1040
0.2
1000
ACAD_MTEXT_DEFINED_HEIGHT_END
  0
MTEXT
  5
1CF
330
1F
100
AcDbEntity
  8
256
  6
CONTINUOUS
 62
     3
100
AcDbMText
 10
325.94083
 20
64.848826
 30
0.0
 40
1.5
 41
0.0
 71
     7
 72
     5
  1
\W00.790;DESMOLDEO 
  7
DEFAULT
1001
ACAD
1000
MTEXTBEGIN
1070
    73
1070
     2
1070
    44
1040
0.903614
1000
MTEXTEND
1000
ACAD_MTEXT_DEFINED_HEIGHT_BEGIN
1070
    46
1040
0.2
1000
ACAD_MTEXT_DEFINED_HEIGHT_END
  0
MTEXT
  5
1D0
330
1F
100
AcDbEntity
  8
256
  6
CONTINUOUS
 62
     3
100
AcDbMText
 10
326.17134
 20
53.861182
 30
0.0
 40
1.5
 41
0.0
 71
     7
 72
     5
  1
\W00.784;ESPESOR 
  7
DEFAULT
1001
ACAD
1000
MTEXTBEGIN
1070
    73
1070
     2
1070
    44
1040
0.903614
1000
MTEXTEND
1000
ACAD_MTEXT_DEFINED_HEIGHT_BEGIN
1070
    46
1040
0.2
1000
ACAD_MTEXT_DEFINED_HEIGHT_END
  0
MTEXT
  5
1D1
330
1F
100
AcDbEntity
  8
256
  6
CONTINUOUS
 62
     3
100
AcDbMText
 10
305.617997
 20
64.087216
 30
0.0
 40
1.5
 41
0.0
 71
     7
 72
     5
  1
\W00.701;- 
  7
BLOCKFONT
1001
ACAD
1000
MTEXTBEGIN
1070
    73
1070
     2
1070
    44
1040
0.903614
1000
MTEXTEND
1000
ACAD_MTEXT_DEFINED_HEIGHT_BEGIN
1070
    46
1040
0.2
1000
ACAD_MTEXT_DEFINED_HEIGHT_END
  0
MTEXT
  5
1D3
330
1F
100
AcDbEntity
  8
256
  6
CONTINUOUS
 62
     3
100
AcDbMText
 10
302.000916
 20
68.556001
 30
0.0
 40
1.7
 41
0.0
 71
     7
 72
     5
  1
\W00.744;0     20     0,1 
  7
DEFAULT
1001
ACAD
1000
MTEXTBEGIN
1070
    73
1070
     2
1070
    44
1040
0.903614
1000
MTEXTEND
1000
ACAD_MTEXT_DEFINED_HEIGHT_BEGIN
1070
    46
1040
0.2
1000
ACAD_MTEXT_DEFINED_HEIGHT_END
  0
MTEXT
  5
1D4
330
1F
100
AcDbEntity
  8
256
  6
CONTINUOUS
 62
     3
100
AcDbMText
 10
234.377317
 20
29.687513
 30
0.0
 40
1.5
 41
0.0
 71
     8
 72
     5
  1
\W00.834;\Q20.000000;DATE\Q0; 
  7
DEFAULT
1001
ACAD
1000
MTEXTBEGIN
1070
    73
1070
     2
1070
    44
1040
0.903614
1000
MTEXTEND
1000
ACAD_MTEXT_DEFINED_HEIGHT_BEGIN
1070
    46
1040
0.2
1000
ACAD_MTEXT_DEFINED_HEIGHT_END
  0
MTEXT
  5
1D5
330
1F
100
AcDbEntity
  8
255
  6
CONTINUOUS
 62
     3
100
AcDbMText
 10
248.54969
 20
29.669488
 30
0.0
 40
3.0
 41
0.0
 71
     7
 72
     5
  1
\W00.772;29/09/15 
  7
DEFAULT
1001
ACAD
1000
MTEXTBEGIN
1070
    73
1070
     2
1070
    44
1040
0.903614
1000
MTEXTEND
1000
ACAD_MTEXT_DEFINED_HEIGHT_BEGIN
1070
    46
1040
0.2
1000
ACAD_MTEXT_DEFINED_HEIGHT_END
  0
MTEXT
  5
1D6
330
1F
100
AcDbEntity
  8
256
  6
CONTINUOUS
 62
     3
100
AcDbMText
 10
314.901997
 20
63.288016
 30
0.0
 40
1.5
 41
0.0
 71
     7
 72
     5
  1
\W00.701;- 
  7
BLOCKFONT
1001
ACAD
1000
MTEXTBEGIN
1070
    73
1070
     2
1070
    44
1040
0.903614
1000
MTEXTEND
1000
ACAD_MTEXT_DEFINED_HEIGHT_BEGIN
1070
    46
1040
0.2
1000
ACAD_MTEXT_DEFINED_HEIGHT_END
  0
MTEXT
  5
1D7
330
1F
100
AcDbEntity
  8
256
  6
CONTINUOUS
 62
     3
100
AcDbMText
 10
381.16911
 20
40.224858
 30
0.0
 40
1.5
 41
0.0
 71
     7
 72
     5
  1
\W00.811;\Q20.000000;SUBSTITUTES\Q0; 
  7
DEFAULT
1001
ACAD
1000
MTEXTBEGIN
1070
    73
1070
     2
1070
    44
1040
0.903614
1000
MTEXTEND
1000
ACAD_MTEXT_DEFINED_HEIGHT_BEGIN
1070
    46
1040
0.2
1000
ACAD_MTEXT_DEFINED_HEIGHT_END
  0
MTEXT
  5
1D8
330
1F
100
AcDbEntity
  8
256
  6
CONTINUOUS
 62
     3
100
AcDbMText
 10
366.16847
 20
25.078575
 30
0.0
 40
1.5
 41
0.0
 71
     7
 72
     5
  1
\W00.783;CODIGO/ 
  7
DEFAULT
1001
ACAD
1000
MTEXTBEGIN
1070
    73
1070
     2
1070
    44
1040
0.903614
1000
MTEXTEND
1000
ACAD_MTEXT_DEFINED_HEIGHT_BEGIN
1070
    46
1040
0.2
1000
ACAD_MTEXT_DEFINED_HEIGHT_END
  0
MTEXT
  5
1D9
330
1F
100
AcDbEntity
  8
256
  6
CONTINUOUS
 62
     3
100
AcDbMText
 10
314.901997
 20
64.558016
 30
0.0
 40
1.5
 41
0.0
 71
     7
 72
     5
  1
\W00.701;+ 
  7
BLOCKFONT
1001
ACAD
1000
MTEXTBEGIN
1070
    73
1070
     2
1070
    44
1040
0.903614
1000
MTEXTEND
1000
ACAD_MTEXT_DEFINED_HEIGHT_BEGIN
1070
    46
1040
0.2
1000
ACAD_MTEXT_DEFINED_HEIGHT_END
  0
MTEXT
  5
1DA
330
1F
100
AcDbEntity
  8
256
  6
CONTINUOUS
 62
     3
100
AcDbMText
 10
300.660916
 20
63.876001
 30
0.0
 40
1.7
 41
0.0
 71
     7
 72
     5
  1
\W00.758;20     50     0,15 
  7
DEFAULT
1001
ACAD
1000
MTEXTBEGIN
1070
    73
1070
     2
1070
    44
1040
0.903614
1000
MTEXTEND
1000
ACAD_MTEXT_DEFINED_HEIGHT_BEGIN
1070
    46
1040
0.2
1000
ACAD_MTEXT_DEFINED_HEIGHT_END
  0
MTEXT
  5
1DB
330
1F
100
AcDbEntity
  8
256
  6
CONTINUOUS
 62
     3
100
AcDbMText
 10
353.400865
 20
51.338002
 30
0.0
 40
3.0
 41
0.0
 71
     7
 72
     5
  1
\W01.000; 
  7
DEFAULT
1001
ACAD
1000
MTEXTBEGIN
1070
    73
1070
     2
1070
    44
1040
0.903614
1000
MTEXTEND
1000
ACAD_MTEXT_DEFINED_HEIGHT_BEGIN
1070
    46
1040
0.2
1000
ACAD_MTEXT_DEFINED_HEIGHT_END
  0
MTEXT
  5
1DC
330
1F
100
AcDbEntity
  8
256
  6
CONTINUOUS
 62
     3
100
AcDbMText
 10
326.17134
 20
57.065014
 30
0.0
 40
1.5
 41
0.0
 71
     7
 72
     5
  1
\W00.818;\Q20.000000;RADIUS\Q0; 
  7
DEFAULT
1001
ACAD
1000
MTEXTBEGIN
1070
    73
1070
     2
1070
    44
1040
0.903614
1000
MTEXTEND
1000
ACAD_MTEXT_DEFINED_HEIGHT_BEGIN
1070
    46
1040
0.2
1000
ACAD_MTEXT_DEFINED_HEIGHT_END
  0
MTEXT
  5
1DD
330
1F
100
AcDbEntity
  8
256
  6
CONTINUOUS
 62
     3
100
AcDbMText
 10
269.18386
 20
55.191929
 30
0.0
 40
1.5
 41
0.0
 71
     7
 72
     5
  1
\W00.768;DUREZA/ 
  7
DEFAULT
1001
ACAD
1000
MTEXTBEGIN
1070
    73
1070
     2
1070
    44
1040
0.903614
1000
MTEXTEND
1000
ACAD_MTEXT_DEFINED_HEIGHT_BEGIN
1070
    46
1040
0.2
1000
ACAD_MTEXT_DEFINED_HEIGHT_END
  0
MTEXT
  5
1DE
330
1F
100
AcDbEntity
  8
256
  6
CONTINUOUS
 62
     3
100
AcDbMText
 10
234.65774
 20
45.203784
 30
0.0
 40
1.5
 41
0.0
 71
     8
 72
     5
  1
\W00.793;\Q20.000000;PROJECTED\Q0; 
  7
DEFAULT
1001
ACAD
1000
MTEXTBEGIN
1070
    73
1070
     2
1070
    44
1040
0.903614
1000
MTEXTEND
1000
ACAD_MTEXT_DEFINED_HEIGHT_BEGIN
1070
    46
1040
0.2
1000
ACAD_MTEXT_DEFINED_HEIGHT_END
  0
MTEXT
  5
1DF
330
1F
100
AcDbEntity
  8
255
  6
CONTINUOUS
 62
     2
100
AcDbMText
 10
273.967445
 20
21.585689
 30
0.0
 40
6.0
 41
0.0
 71
     7
 72
     5
  1
\W00.753;FRONTAL REFLECTOR 40 
  7
DEFAULT
1001
ACAD
1000
MTEXTBEGIN
1070
    73
1070
     2
1070
    44
1040
0.903614
1000
MTEXTEND
1000
ACAD_MTEXT_DEFINED_HEIGHT_BEGIN
1070
    46
1040
0.2
1000
ACAD_MTEXT_DEFINED_HEIGHT_END
  0
MTEXT
  5
1E0
330
1F
100
AcDbEntity
  8
256
  6
CONTINUOUS
 62
     3
100
AcDbMText
 10
366.65916
 20
32.604203
 30
0.0
 40
1.5
 41
0.0
 71
     7
 72
     5
  1
\W00.768;SUSTITUIDO POR/ 
  7
DEFAULT
1001
ACAD
1000
MTEXTBEGIN
1070
    73
1070
     2
1070
    44
1040
0.903614
1000
MTEXTEND
1000
ACAD_MTEXT_DEFINED_HEIGHT_BEGIN
1070
    46
1040
0.2
1000
ACAD_MTEXT_DEFINED_HEIGHT_END
  0
MTEXT
  5
1E1
330
1F
100
AcDbEntity
  8
256
  6
CONTINUOUS
 62
     3
100
AcDbMText
 10
271.08378
 20
62.058932
 30
0.0
 40
1.7
 41
0.0
 71
     7
 72
     5
  1
\W00.732;ejes/axis\P 
  7
DEFAULT
1001
ACAD
1000
MTEXTBEGIN
1070
    44
1040
0.903614
1000
MTEXTEND
1000
ACAD_MTEXT_DEFINED_HEIGHT_BEGIN
1070
    46
1040
0.2
1000
ACAD_MTEXT_DEFINED_HEIGHT_END
  0
MTEXT
  5
1E2
330
1F
100
AcDbEntity
  8
256
  6
CONTINUOUS
 62
     3
100
AcDbMText
 10
293.555666
 20
68.556001
 30
0.0
 40
1.7
 41
0.0
 71
     7
 72
     5
  1
\W01.006;11 
  7
DEFAULT
1001
ACAD
1000
MTEXTBEGIN
1070
    73
1070
     2
1070
    44
1040
0.903614
1000
MTEXTEND
1000
ACAD_MTEXT_DEFINED_HEIGHT_BEGIN
1070
    46
1040
0.2
1000
ACAD_MTEXT_DEFINED_HEIGHT_END
  0
MTEXT
  5
1E3
330
1F
100
AcDbEntity
  8
256
  6
CONTINUOUS
 62
     3
100
AcDbMText
 10
235.140186
 20
48.128729
 30
0.0
 40
1.5
 41
0.0
 71
     8
 72
     5
  1
\W00.807;PROYECTADO 
  7
DEFAULT
1001
ACAD
1000
MTEXTBEGIN
1070
    73
1070
     2
1070
    44
1040
0.903614
1000
MTEXTEND
1000
ACAD_MTEXT_DEFINED_HEIGHT_BEGIN
1070
    46
1040
0.2
1000
ACAD_MTEXT_DEFINED_HEIGHT_END
  0
MTEXT
  5
1E4
330
1F
100
AcDbEntity
  8
256
  6
CONTINUOUS
 62
     3
100
AcDbMText
 10
314.901997
 20
59.718016
 30
0.0
 40
1.5
 41
0.0
 71
     7
 72
     5
  1
\W00.701;+ 
  7
BLOCKFONT
1001
ACAD
1000
MTEXTBEGIN
1070
    73
1070
     2
1070
    44
1040
0.903614
1000
MTEXTEND
1000
ACAD_MTEXT_DEFINED_HEIGHT_BEGIN
1070
    46
1040
0.2
1000
ACAD_MTEXT_DEFINED_HEIGHT_END
  0
MTEXT
  5
1E5
330
1F
100
AcDbEntity
  8
256
  6
CONTINUOUS
 62
     3
100
AcDbMText
 10
290.914666
 20
68.596001
 30
0.0
 40
1.7
 41
0.0
 71
     7
 72
     5
  1
\W00.930;H 
  7
DEFAULT
1001
ACAD
1000
MTEXTBEGIN
1070
    73
1070
     2
1070
    44
1040
0.903614
1000
MTEXTEND
1000
ACAD_MTEXT_DEFINED_HEIGHT_BEGIN
1070
    46
1040
0.2
1000
ACAD_MTEXT_DEFINED_HEIGHT_END
  0
MTEXT
  5
1E6
330
1F
100
AcDbEntity
  8
256
  6
CONTINUOUS
 62
     3
100
AcDbMText
 10
276.246514
 20
80.076596
 30
0.0
 40
3.0
 41
0.0
 71
     7
 72
     5
  1
\W01.000; 
  7
DEFAULT
1001
ACAD
1000
MTEXTBEGIN
1070
    73
1070
     2
1070
    44
1040
0.903614
1000
MTEXTEND
1000
ACAD_MTEXT_DEFINED_HEIGHT_BEGIN
1070
    46
1040
0.2
1000
ACAD_MTEXT_DEFINED_HEIGHT_END
  0
MTEXT
  5
1E7
330
1F
100
AcDbEntity
  8
256
  6
CONTINUOUS
 62
     3
100
AcDbMText
 10
247.271915
 20
25.693186
 30
0.0
 40
1.2
 41
0.0
 71
     7
 72
     5
  1
\W00.815;MODIFIC. 
  7
DEFAULT
1001
ACAD
1000
MTEXTBEGIN
1070
    73
1070
     2
1070
    44
1040
0.903614
1000
MTEXTEND
1000
ACAD_MTEXT_DEFINED_HEIGHT_BEGIN
1070
    46
1040
0.2
1000
ACAD_MTEXT_DEFINED_HEIGHT_END
  0
MTEXT
  5
1E8
330
1F
100
AcDbEntity
  8
256
  6
CONTINUOUS
 62
     3
100
AcDbMText
 10
293.514666
 20
63.916001
 30
0.0
 40
1.7
 41
0.0
 71
     7
 72
     5
  1
\W01.006;11 
  7
DEFAULT
1001
ACAD
1000
MTEXTBEGIN
1070
    73
1070
     2
1070
    44
1040
0.903614
1000
MTEXTEND
1000
ACAD_MTEXT_DEFINED_HEIGHT_BEGIN
1070
    46
1040
0.2
1000
ACAD_MTEXT_DEFINED_HEIGHT_END
  0
MTEXT
  5
1E9
330
1F
100
AcDbEntity
  8
256
  6
CONTINUOUS
 62
     3
100
AcDbMText
 10
279.47946
 20
55.126635
 30
0.0
 40
1.5
 41
0.0
 71
     7
 72
     5
  1
\W00.795;\Q20.000000;HARDNESS\Q0; 
  7
DEFAULT
1001
ACAD
1000
MTEXTBEGIN
1070
    73
1070
     2
1070
    44
1040
0.903614
1000
MTEXTEND
1000
ACAD_MTEXT_DEFINED_HEIGHT_BEGIN
1070
    46
1040
0.2
1000
ACAD_MTEXT_DEFINED_HEIGHT_END
  0
MTEXT
  5
1EA
330
1F
100
AcDbEntity
  8
255
  6
CONTINUOUS
 62
     2
100
AcDbMText
 10
231.342694
 20
12.93072
 30
0.0
 40
6.0
 41
0.0
 71
     7
 72
     5
  1
\W00.928;1:1 
  7
DEFAULT
1001
ACAD
1000
MTEXTBEGIN
1070
    73
1070
     2
1070
    44
1040
0.903614
1000
MTEXTEND
1000
ACAD_MTEXT_DEFINED_HEIGHT_BEGIN
1070
    46
1040
0.2
1000
ACAD_MTEXT_DEFINED_HEIGHT_END
  0
MTEXT
  5
1EB
330
1F
100
AcDbEntity
  8
256
  6
CONTINUOUS
 62
     3
100
AcDbMText
 10
336.29453
 20
45.38736
 30
0.0
 40
1.4
 41
0.0
 71
     7
 72
     5
  1
\W00.746;\Q20.000000;signature\Q0; 
  7
DEFAULT
1001
ACAD
1000
MTEXTBEGIN
1070
    73
1070
     2
1070
    44
1040
0.903614
1000
MTEXTEND
1000
ACAD_MTEXT_DEFINED_HEIGHT_BEGIN
1070
    46
1040
0.2
1000
ACAD_MTEXT_DEFINED_HEIGHT_END
  0
MTEXT
  5
1EC
330
1F
100
AcDbEntity
  8
256
  6
CONTINUOUS
 62
     3
100
AcDbMText
 10
326.17134
 20
59.316586
 30
0.0
 40
1.5
 41
0.0
 71
     7
 72
     5
  1
\W00.819;RADIOS 
  7
DEFAULT
1001
ACAD
1000
MTEXTBEGIN
1070
    73
1070
     2
1070
    44
1040
0.903614
1000
MTEXTEND
1000
ACAD_MTEXT_DEFINED_HEIGHT_BEGIN
1070
    46
1040
0.2
1000
ACAD_MTEXT_DEFINED_HEIGHT_END
  0
MTEXT
  5
1ED
330
1F
100
AcDbEntity
  8
256
  6
CONTINUOUS
 62
     3
100
AcDbMText
 10
269.1176
 20
48.306201
 30
0.0
 40
1.4
 41
0.0
 71
     7
 72
     5
  1
\W00.688;anula y sustituye a los precedentes fecha 
  7
DEFAULT
1001
ACAD
1000
MTEXTBEGIN
1070
    73
1070
     2
1070
    44
1040
0.903614
1000
MTEXTEND
1000
ACAD_MTEXT_DEFINED_HEIGHT_BEGIN
1070
    46
1040
0.2
1000
ACAD_MTEXT_DEFINED_HEIGHT_END
  0
MTEXT
  5
1EE
330
1F
100
AcDbEntity
  8
256
  6
CONTINUOUS
 62
     3
100
AcDbMText
 10
314.901997
 20
68.028016
 30
0.0
 40
1.5
 41
0.0
 71
     7
 72
     5
  1
\W00.701;- 
  7
BLOCKFONT
1001
ACAD
1000
MTEXTBEGIN
1070
    73
1070
     2
1070
    44
1040
0.903614
1000
MTEXTEND
1000
ACAD_MTEXT_DEFINED_HEIGHT_BEGIN
1070
    46
1040
0.2
1000
ACAD_MTEXT_DEFINED_HEIGHT_END
  0
MTEXT
  5
1EF
330
1F
100
AcDbEntity
  8
256
  6
CONTINUOUS
 62
     3
100
AcDbMText
 10
305.617997
 20
68.747216
 30
0.0
 40
1.5
 41
0.0
 71
     7
 72
     5
  1
\W00.701;- 
  7
BLOCKFONT
1001
ACAD
1000
MTEXTBEGIN
1070
    73
1070
     2
1070
    44
1040
0.903614
1000
MTEXTEND
1000
ACAD_MTEXT_DEFINED_HEIGHT_BEGIN
1070
    46
1040
0.2
1000
ACAD_MTEXT_DEFINED_HEIGHT_END
  0
MTEXT
  5
1F0
330
1F
100
AcDbEntity
  8
256
  6
CONTINUOUS
 62
     3
100
AcDbMText
 10
384.51877
 20
32.651717
 30
0.0
 40
1.5
 41
0.0
 71
     7
 72
     5
  1
\W00.778;\Q20.000000;SUBSTITUTED BY\Q0; 
  7
DEFAULT
1001
ACAD
1000
MTEXTBEGIN
1070
    73
1070
     2
1070
    44
1040
0.903614
1000
MTEXTEND
1000
ACAD_MTEXT_DEFINED_HEIGHT_BEGIN
1070
    46
1040
0.2
1000
ACAD_MTEXT_DEFINED_HEIGHT_END
  0
MTEXT
  5
1F1
330
1F
100
AcDbEntity
  8
256
  6
CONTINUOUS
 62
     3
100
AcDbMText
 10
245.278503
 20
60.490742
 30
0.0
 40
3.0
 41
0.0
 71
     7
 72
     5
  1
\W01.000; 
  7
DEFAULT
1001
ACAD
1000
MTEXTBEGIN
1070
    73
1070
     2
1070
    44
1040
0.903614
1000
MTEXTEND
1000
ACAD_MTEXT_DEFINED_HEIGHT_BEGIN
1070
    46
1040
0.2
1000
ACAD_MTEXT_DEFINED_HEIGHT_END
  0
MTEXT
  5
1F2
330
1F
100
AcDbEntity
  8
256
  6
CONTINUOUS
 62
     3
100
AcDbMText
 10
305.382147
 20
69.798016
 30
0.0
 40
1.5
 41
0.0
 71
     7
 72
     5
  1
\W00.273;. 
  7
BLOCKFONT
1001
ACAD
1000
MTEXTBEGIN
1070
    73
1070
     2
1070
    44
1040
0.903614
1000
MTEXTEND
1000
ACAD_MTEXT_DEFINED_HEIGHT_BEGIN
1070
    46
1040
0.2
1000
ACAD_MTEXT_DEFINED_HEIGHT_END
  0
MTEXT
  5
1F3
330
1F
100
AcDbEntity
  8
256
  6
CONTINUOUS
 62
     3
100
AcDbMText
 10
225.6298
 20
66.936464
 30
0.0
 40
1.5
 41
0.0
 71
     7
 72
     5
  1
\W00.757;\Q20.000000;FINISH / TREATMENT\Q0; 
  7
DEFAULT
1001
ACAD
1000
MTEXTBEGIN
1070
    73
1070
     2
1070
    44
1040
0.903614
1000
MTEXTEND
1000
ACAD_MTEXT_DEFINED_HEIGHT_BEGIN
1070
    46
1040
0.2
1000
ACAD_MTEXT_DEFINED_HEIGHT_END
  0
MTEXT
  5
1F4
330
1F
100
AcDbEntity
  8
255
  6
CONTINUOUS
 62
     3
100
AcDbMText
 10
250.04089
 20
52.115912
 30
0.0
 40
3.0
 41
0.0
 71
     7
 72
     5
  1
\W00.727;C. Alvarez 
  7
DEFAULT
1001
ACAD
1000
MTEXTBEGIN
1070
    73
1070
     2
1070
    44
1040
0.903614
1000
MTEXTEND
1000
ACAD_MTEXT_DEFINED_HEIGHT_BEGIN
1070
    46
1040
0.2
1000
ACAD_MTEXT_DEFINED_HEIGHT_END
  0
MTEXT
  5
1F5
330
1F
100
AcDbEntity
  8
256
  6
CONTINUOUS
 62
     3
100
AcDbMText
 10
235.209972
 20
37.729159
 30
0.0
 40
3.0
 41
0.0
 71
     8
 72
     5
  1
\W00.693;V.B.  
  7
DEFAULT
1001
ACAD
1000
MTEXTBEGIN
1070
    73
1070
     2
1070
    44
1040
0.903614
1000
MTEXTEND
1000
ACAD_MTEXT_DEFINED_HEIGHT_BEGIN
1070
    46
1040
0.2
1000
ACAD_MTEXT_DEFINED_HEIGHT_END
  0
MTEXT
  5
1F6
330
1F
100
AcDbEntity
  8
255
  6
CONTINUOUS
 62
     3
100
AcDbMText
 10
249.88392
 20
45.444772
 30
0.0
 40
3.0
 41
0.0
 71
     7
 72
     5
  1
\W00.727;C. Alvarez 
  7
DEFAULT
1001
ACAD
1000
MTEXTBEGIN
1070
    73
1070
     2
1070
    44
1040
0.903614
1000
MTEXTEND
1000
ACAD_MTEXT_DEFINED_HEIGHT_BEGIN
1070
    46
1040
0.2
1000
ACAD_MTEXT_DEFINED_HEIGHT_END
  0
MTEXT
  5
1F7
330
1F
100
AcDbEntity
  8
256
  6
CONTINUOUS
 62
     3
100
AcDbMText
 10
314.901997
 20
58.448016
 30
0.0
 40
1.5
 41
0.0
 71
     7
 72
     5
  1
\W00.701;- 
  7
BLOCKFONT
1001
ACAD
1000
MTEXTBEGIN
1070
    73
1070
     2
1070
    44
1040
0.903614
1000
MTEXTEND
1000
ACAD_MTEXT_DEFINED_HEIGHT_BEGIN
1070
    46
1040
0.2
1000
ACAD_MTEXT_DEFINED_HEIGHT_END
  0
MTEXT
  5
1F8
330
1F
100
AcDbEntity
  8
256
  6
CONTINUOUS
 62
     3
100
AcDbMText
 10
233.600858
 20
52.763642
 30
0.0
 40
1.5
 41
0.0
 71
     8
 72
     5
  1
\W00.819;\Q20.000000;DRAWN\Q0; 
  7
DEFAULT
1001
ACAD
1000
MTEXTBEGIN
1070
    73
1070
     2
1070
    44
1040
0.903614
1000
MTEXTEND
1000
ACAD_MTEXT_DEFINED_HEIGHT_BEGIN
1070
    46
1040
0.2
1000
ACAD_MTEXT_DEFINED_HEIGHT_END
  0
MTEXT
  5
1F9
330
1F
100
AcDbEntity
  8
256
  6
CONTINUOUS
 62
     3
100
AcDbMText
 10
270.954666
 20
68.776001
 30
0.0
 40
1.7
 41
0.0
 71
     7
 72
     5
  1
\W00.735;agujeros/holes 
  7
DEFAULT
1001
ACAD
1000
MTEXTBEGIN
1070
    73
1070
     2
1070
    44
1040
0.903614
1000
MTEXTEND
1000
ACAD_MTEXT_DEFINED_HEIGHT_BEGIN
1070
    46
1040
0.2
1000
ACAD_MTEXT_DEFINED_HEIGHT_END
  0
MTEXT
  5
1FA
330
1F
100
AcDbEntity
  8
256
  6
CONTINUOUS
 62
     3
100
AcDbMText
 10
269.155
 20
40.400244
 30
0.0
 40
1.5
 41
0.0
 71
     7
 72
     5
  1
\W00.789;DENOMINACION/ 
  7
DEFAULT
1001
ACAD
1000
MTEXTBEGIN
1070
    73
1070
     2
1070
    44
1040
0.903614
1000
MTEXTEND
1000
ACAD_MTEXT_DEFINED_HEIGHT_BEGIN
1070
    46
1040
0.2
1000
ACAD_MTEXT_DEFINED_HEIGHT_END
  0
MTEXT
  5
1FB
330
1F
100
AcDbEntity
  8
256
  6
CONTINUOUS
 62
     3
100
AcDbMText
 10
238.356613
 20
77.001059
 30
0.0
 40
1.7
 41
0.0
 71
     8
 72
     5
  1
\W00.798;\Q20.000000;COLOUR\Q0; 
  7
DEFAULT
1001
ACAD
1000
MTEXTBEGIN
1070
    73
1070
     2
1070
    44
1040
0.903614
1000
MTEXTEND
1000
ACAD_MTEXT_DEFINED_HEIGHT_BEGIN
1070
    46
1040
0.2
1000
ACAD_MTEXT_DEFINED_HEIGHT_END
  0
MTEXT
  5
1FC
330
1F
100
AcDbEntity
  8
256
  6
CONTINUOUS
 62
     3
100
AcDbMText
 10
305.382147
 20
65.138016
 30
0.0
 40
1.5
 41
0.0
 71
     7
 72
     5
  1
\W00.273;. 
  7
BLOCKFONT
1001
ACAD
1000
MTEXTBEGIN
1070
    73
1070
     2
1070
    44
1040
0.903614
1000
MTEXTEND
1000
ACAD_MTEXT_DEFINED_HEIGHT_BEGIN
1070
    46
1040
0.2
1000
ACAD_MTEXT_DEFINED_HEIGHT_END
  0
MTEXT
  5
1FD
330
1F
100
AcDbEntity
  8
256
  6
CONTINUOUS
 62
     3
100
AcDbMText
 10
290.914666
 20
63.906001
 30
0.0
 40
1.7
 41
0.0
 71
     7
 72
     5
  1
\W00.919;h 
  7
DEFAULT
1001
ACAD
1000
MTEXTBEGIN
1070
    73
1070
     2
1070
    44
1040
0.903614
1000
MTEXTEND
1000
ACAD_MTEXT_DEFINED_HEIGHT_BEGIN
1070
    46
1040
0.2
1000
ACAD_MTEXT_DEFINED_HEIGHT_END
  0
MTEXT
  5
1FE
330
1F
100
AcDbEntity
  8
256
  6
CONTINUOUS
 62
     3
100
AcDbMText
 10
314.901997
 20
69.298016
 30
0.0
 40
1.5
 41
0.0
 71
     7
 72
     5
  1
\W00.701;+ 
  7
BLOCKFONT
1001
ACAD
1000
MTEXTBEGIN
1070
    73
1070
     2
1070
    44
1040
0.903614
1000
MTEXTEND
1000
ACAD_MTEXT_DEFINED_HEIGHT_BEGIN
1070
    46
1040
0.2
1000
ACAD_MTEXT_DEFINED_HEIGHT_END
  0
MTEXT
  5
1FF
330
1F
100
AcDbEntity
  8
256
  6
CONTINUOUS
 62
     3
100
AcDbMText
 10
246.379012
 20
72.649
 30
0.0
 40
2.5
 41
0.0
 71
     7
 72
     5
  1
\W01.000; 
  7
DEFAULT
1001
ACAD
1000
MTEXTBEGIN
1070
    73
1070
     2
1070
    44
1040
0.903614
1000
MTEXTEND
1000
ACAD_MTEXT_DEFINED_HEIGHT_BEGIN
1070
    46
1040
0.2
1000
ACAD_MTEXT_DEFINED_HEIGHT_END
  0
MTEXT
  5
200
330
1F
100
AcDbEntity
  8
256
  6
CONTINUOUS
 62
     3
100
AcDbMText
 10
229.32129
 20
77.090745
 30
0.0
 40
1.7
 41
0.0
 71
     8
 72
     5
  1
\W00.776;COLOR/ 
  7
DEFAULT
1001
ACAD
1000
MTEXTBEGIN
1070
    73
1070
     2
1070
    44
1040
0.903614
1000
MTEXTEND
1000
ACAD_MTEXT_DEFINED_HEIGHT_BEGIN
1070
    46
1040
0.2
1000
ACAD_MTEXT_DEFINED_HEIGHT_END
  0
MTEXT
  5
201
330
1F
100
AcDbEntity
  8
256
  6
CONTINUOUS
 62
     3
100
AcDbMText
 10
366.65916
 20
40.260901
 30
0.0
 40
1.5
 41
0.0
 71
     7
 72
     5
  1
\W00.776;SUSTITUYE A/ 
  7
DEFAULT
1001
ACAD
1000
MTEXTBEGIN
1070
    73
1070
     2
1070
    44
1040
0.903614
1000
MTEXTEND
1000
ACAD_MTEXT_DEFINED_HEIGHT_BEGIN
1070
    46
1040
0.2
1000
ACAD_MTEXT_DEFINED_HEIGHT_END
  0
MTEXT
  5
202
330
1F
100
AcDbEntity
  8
256
  6
CONTINUOUS
 62
     3
100
AcDbMText
 10
229.092715
 20
24.484486
 30
0.0
 40
1.5
 41
0.0
 71
     7
 72
     5
  1
\W00.799;ESCALA/ 
  7
DEFAULT
1001
ACAD
1000
MTEXTBEGIN
1070
    73
1070
     2
1070
    44
1040
0.903614
1000
MTEXTEND
1000
ACAD_MTEXT_DEFINED_HEIGHT_BEGIN
1070
    46
1040
0.2
1000
ACAD_MTEXT_DEFINED_HEIGHT_END
  0
MTEXT
  5
203
330
1F
100
AcDbEntity
  8
256
  6
CONTINUOUS
 62
     3
100
AcDbMText
 10
289.094349
 20
76.683737
 30
0.0
 40
1.5
 41
0.0
 71
     7
 72
     5
  1
\W00.769;COTAS SIN TOLERANCIA 
  7
DEFAULT
1001
ACAD
1000
MTEXTBEGIN
1070
    73
1070
     2
1070
    44
1040
0.903614
1000
MTEXTEND
1000
ACAD_MTEXT_DEFINED_HEIGHT_BEGIN
1070
    46
1040
0.2
1000
ACAD_MTEXT_DEFINED_HEIGHT_END
  0
MTEXT
  5
204
330
1F
100
AcDbEntity
  8
256
  6
CONTINUOUS
 62
     3
100
AcDbMText
 10
231.003064
 20
88.849003
 30
0.0
 40
1.5
 41
0.0
 71
     7
 72
     5
  1
\W00.729;\Q20.000000;\Q40.000000;\Q20.000000;PROPERTY OF J. FELIU DE LA PENYA, S.L. IT WILL NOT BE TOTALLY OR PARTIALLY  REPRODUCED\P NOR GIVEN TO THIRDS WITHOUT WRITTEN AUTHORIZATION\Q0;\Q0;\Q0; 
  7
DEFAULT
1001
ACAD
1000
MTEXTBEGIN
1070
    44
1040
0.903614
1000
MTEXTEND
1000
ACAD_MTEXT_DEFINED_HEIGHT_BEGIN
1070
    46
1040
0.2
1000
ACAD_MTEXT_DEFINED_HEIGHT_END
  0
MTEXT
  5
205
330
1F
100
AcDbEntity
  8
256
  6
CONTINUOUS
 62
     3
100
AcDbMText
 10
298.514728
 20
73.783401
 30
0.0
 40
1.5
 41
0.0
 71
     8
 72
     5
  1
\W00.771;\Q20.000000;DIMENSIONS WITHOUT TOLERANCE\Q0; 
  7
DEFAULT
1001
ACAD
1000
MTEXTBEGIN
1070
    73
1070
     2
1070
    44
1040
0.903614
1000
MTEXTEND
1000
ACAD_MTEXT_DEFINED_HEIGHT_BEGIN
1070
    46
1040
0.2
1000
ACAD_MTEXT_DEFINED_HEIGHT_END
  0
MTEXT
  5
206
330
1F
100
AcDbEntity
  8
256
  6
CONTINUOUS
 62
     3
100
AcDbMText
 10
305.402147
 20
64.348016
 30
0.0
 40
1.5
 41
0.0
 71
     7
 72
     5
  1
\W00.273;. 
  7
BLOCKFONT
1001
ACAD
1000
MTEXTBEGIN
1070
    73
1070
     2
1070
    44
1040
0.903614
1000
MTEXTEND
1000
ACAD_MTEXT_DEFINED_HEIGHT_BEGIN
1070
    46
1040
0.2
1000
ACAD_MTEXT_DEFINED_HEIGHT_END
  0
MTEXT
  5
207
330
1F
100
AcDbEntity
  8
256
  6
CONTINUOUS
 62
     3
100
AcDbMText
 10
234.679196
 20
55.275157
 30
0.0
 40
1.5
 41
0.0
 71
     8
 72
     5
  1
\W00.809;DIBUJADO 
  7
DEFAULT
1001
ACAD
1000
MTEXTBEGIN
1070
    73
1070
     2
1070
    44
1040
0.903614
1000
MTEXTEND
1000
ACAD_MTEXT_DEFINED_HEIGHT_BEGIN
1070
    46
1040
0.2
1000
ACAD_MTEXT_DEFINED_HEIGHT_END
  0
MTEXT
  5
208
330
1F
100
AcDbEntity
  8
256
  6
CONTINUOUS
 62
     3
100
AcDbMText
 10
290.864666
 20
60.002635
 30
0.0
 40
1.5
 41
0.0
 71
     7
 72
     5
  1
\W00.925;+ 
  7
DEFAULT
1001
ACAD
1000
MTEXTBEGIN
1070
    73
1070
     2
1070
    44
1040
0.903614
1000
MTEXTEND
1000
ACAD_MTEXT_DEFINED_HEIGHT_BEGIN
1070
    46
1040
0.2
1000
ACAD_MTEXT_DEFINED_HEIGHT_END
  0
MTEXT
  5
209
330
1F
100
AcDbEntity
  8
256
  6
CONTINUOUS
 62
     3
100
AcDbMText
 10
270.884666
 20
59.182635
 30
0.0
 40
1.5
 41
0.0
 71
     7
 72
     5
  1
\W00.730;angular 
  7
DEFAULT
1001
ACAD
1000
MTEXTBEGIN
1070
    73
1070
     2
1070
    44
1040
0.903614
1000
MTEXTEND
1000
ACAD_MTEXT_DEFINED_HEIGHT_BEGIN
1070
    46
1040
0.2
1000
ACAD_MTEXT_DEFINED_HEIGHT_END
  0
MTEXT
  5
20A
330
1F
100
AcDbEntity
  8
256
  6
CONTINUOUS
 62
     3
100
AcDbMText
 10
290.864666
 20
58.392635
 30
0.0
 40
1.5
 41
0.0
 71
     7
 72
     5
  1
\W00.612;- 
  7
DEFAULT
1001
ACAD
1000
MTEXTBEGIN
1070
    73
1070
     2
1070
    44
1040
0.903614
1000
MTEXTEND
1000
ACAD_MTEXT_DEFINED_HEIGHT_BEGIN
1070
    46
1040
0.2
1000
ACAD_MTEXT_DEFINED_HEIGHT_END
  0
MTEXT
  5
20B
330
1F
100
AcDbEntity
  8
256
  6
CONTINUOUS
 62
     3
100
AcDbMText
 10
288.9728
 20
40.400244
 30
0.0
 40
1.5
 41
0.0
 71
     7
 72
     5
  1
\W00.812;\Q20.000000;DENOMINATION\Q0; 
  7
DEFAULT
1001
ACAD
1000
MTEXTBEGIN
1070
    73
1070
     2
1070
    44
1040
0.903614
1000
MTEXTEND
1000
ACAD_MTEXT_DEFINED_HEIGHT_BEGIN
1070
    46
1040
0.2
1000
ACAD_MTEXT_DEFINED_HEIGHT_END
  0
MTEXT
  5
20C
330
1F
100
AcDbEntity
  8
256
  6
CONTINUOUS
 62
     3
100
AcDbMText
 10
326.17134
 20
51.581718
 30
0.0
 40
1.5
 41
0.0
 71
     7
 72
     5
  1
\W00.797;\Q20.000000;THICKNESS\Q0; 
  7
DEFAULT
1001
ACAD
1000
MTEXTBEGIN
1070
    73
1070
     2
1070
    44
1040
0.903614
1000
MTEXTEND
1000
ACAD_MTEXT_DEFINED_HEIGHT_BEGIN
1070
    46
1040
0.2
1000
ACAD_MTEXT_DEFINED_HEIGHT_END
  0
MTEXT
  5
20D
330
1F
100
AcDbEntity
  8
256
  6
CONTINUOUS
 62
     3
100
AcDbMText
 10
376.79999
 20
24.787301
 30
0.0
 40
1.5
 41
0.0
 71
     7
 72
     5
  1
\W00.794;\Q20.000000;CODE\Q0; 
  7
DEFAULT
1001
ACAD
1000
MTEXTBEGIN
1070
    73
1070
     2
1070
    44
1040
0.903614
1000
MTEXTEND
1000
ACAD_MTEXT_DEFINED_HEIGHT_BEGIN
1070
    46
1040
0.2
1000
ACAD_MTEXT_DEFINED_HEIGHT_END
  0
MTEXT
  5
20E
330
1F
100
AcDbEntity
  8
256
  6
CONTINUOUS
 62
     3
100
AcDbMText
 10
336.29453
 20
47.955865
 30
0.0
 40
1.4
 41
0.0
 71
     7
 72
     5
  1
\W00.766;firma 
  7
DEFAULT
1001
ACAD
1000
MTEXTBEGIN
1070
    73
1070
     2
1070
    44
1040
0.903614
1000
MTEXTEND
1000
ACAD_MTEXT_DEFINED_HEIGHT_BEGIN
1070
    46
1040
0.2
1000
ACAD_MTEXT_DEFINED_HEIGHT_END
  0
MTEXT
  5
20F
330
1F
100
AcDbEntity
  8
256
  6
CONTINUOUS
 62
     3
100
AcDbMText
 10
293.555666
 20
58.976001
 30
0.0
 40
1.7
 41
0.0
 71
     7
 72
     5
  1
\W01.402;1 
  7
DEFAULT
1001
ACAD
1000
MTEXTBEGIN
1070
    73
1070
     2
1070
    44
1040
0.903614
1000
MTEXTEND
1000
ACAD_MTEXT_DEFINED_HEIGHT_BEGIN
1070
    46
1040
0.2
1000
ACAD_MTEXT_DEFINED_HEIGHT_END
  0
MTEXT
  5
210
330
1F
100
AcDbEntity
  8
256
  6
CONTINUOUS
 62
     3
100
AcDbMText
 10
235.568839
 20
82.36733
 30
0.0
 40
1.7
 41
0.0
 71
     8
 72
     5
  1
\W00.809;MATERIAL/\Q20.000000;MATERIAL\Q0;\P                                                                              
  7
DEFAULT
1001
ACAD
1000
MTEXTBEGIN
1070
    44
1040
0.903614
1000
MTEXTEND
1000
ACAD_MTEXT_DEFINED_HEIGHT_BEGIN
1070
    46
1040
0.2
1000
ACAD_MTEXT_DEFINED_HEIGHT_END
  0
MTEXT
  5
211
330
1F
100
AcDbEntity
  8
256
  6
CONTINUOUS
 62
     2
100
AcDbMText
 10
378.959122
 20
57.84245
 30
0.0
 40
3.5
 41
0.0
 71
     7
 72
     5
  1
\W00.817;METRIC 
  7
DEFAULT
1001
ACAD
1000
MTEXTBEGIN
1070
    73
1070
     2
1070
    44
1040
0.903614
1000
MTEXTEND
1000
ACAD_MTEXT_DEFINED_HEIGHT_BEGIN
1070
    46
1040
0.2
1000
ACAD_MTEXT_DEFINED_HEIGHT_END
  0
MTEXT
  5
212
330
1F
100
AcDbEntity
  8
256
  6
CONTINUOUS
 62
     3
100
AcDbMText
 10
234.733524
 20
32.781205
 30
0.0
 40
1.5
 41
0.0
 71
     8
 72
     5
  1
\W00.802;FECHA 
  7
DEFAULT
1001
ACAD
1000
MTEXTBEGIN
1070
    73
1070
     2
1070
    44
1040
0.903614
1000
MTEXTEND
1000
ACAD_MTEXT_DEFINED_HEIGHT_BEGIN
1070
    46
1040
0.2
1000
ACAD_MTEXT_DEFINED_HEIGHT_END
  0
MTEXT
  5
213
330
1F
100
AcDbEntity
  8
256
  6
CONTINUOUS
 62
     3
100
AcDbMText
 10
305.402147
 20
69.008016
 30
0.0
 40
1.5
 41
0.0
 71
     7
 72
     5
  1
\W00.273;. 
  7
BLOCKFONT
1001
ACAD
1000
MTEXTBEGIN
1070
    73
1070
     2
1070
    44
1040
0.903614
1000
MTEXTEND
1000
ACAD_MTEXT_DEFINED_HEIGHT_BEGIN
1070
    46
1040
0.2
1000
ACAD_MTEXT_DEFINED_HEIGHT_END
  0
MTEXT
  5
214
330
1F
100
AcDbEntity
  8
255
  6
CONTINUOUS
 62
     3
100
AcDbMText
 10
313.036491
 20
252.000903
 30
0.0
 40
3.5
 41
0.0
 71
     7
 72
     5
  1
\W00.773;(COTA IMPORTANTE) 
  7
DEFAULT
1001
ACAD
1000
MTEXTBEGIN
1070
    73
1070
     2
1070
    44
1040
0.903614
1000
MTEXTEND
1000
ACAD_MTEXT_DEFINED_HEIGHT_BEGIN
1070
    46
1040
0.2
1000
ACAD_MTEXT_DEFINED_HEIGHT_END
  0
MTEXT
  5
215
330
1F
100
AcDbEntity
  8
255
  6
CONTINUOUS
 62
     3
100
AcDbMText
 10
264.535655
 20
81.285891
 30
0.0
 40
3.5
 41
0.0
 71
     7
 72
     5
  1
\W00.725;Chapa galvanizada 
  7
DEFAULT
1001
ACAD
1000
MTEXTBEGIN
1070
    73
1070
     2
1070
    44
1040
0.903614
1000
MTEXTEND
1000
ACAD_MTEXT_DEFINED_HEIGHT_BEGIN
1070
    46
1040
0.2
1000
ACAD_MTEXT_DEFINED_HEIGHT_END
  0
MTEXT
  5
216
330
1F
100
AcDbEntity
  8
255
  6
CONTINUOUS
 62
     3
100
AcDbMText
 10
243.904427
 20
73.179932
 30
0.0
 40
3.5
 41
0.0
 71
     7
 72
     5
  1
\W00.724;Negro mate 
  7
DEFAULT
1001
ACAD
1000
MTEXTBEGIN
1070
    73
1070
     2
1070
    44
1040
0.903614
1000
MTEXTEND
1000
ACAD_MTEXT_DEFINED_HEIGHT_BEGIN
1070
    46
1040
0.2
1000
ACAD_MTEXT_DEFINED_HEIGHT_END
  0
MTEXT
  5
217
330
1F
100
AcDbEntity
  8
255
  6
CONTINUOUS
 62
     3
100
AcDbMText
 10
239.293075
 20
60.046188
 30
0.0
 40
3.5
 41
0.0
 71
     7
 72
     5
  1
\W00.760;Pintado 
  7
DEFAULT
1001
ACAD
1000
MTEXTBEGIN
1070
    73
1070
     2
1070
    44
1040
0.903614
1000
MTEXTEND
1000
ACAD_MTEXT_DEFINED_HEIGHT_BEGIN
1070
    46
1040
0.2
1000
ACAD_MTEXT_DEFINED_HEIGHT_END
  0
MTEXT
  5
218
330
1F
100
AcDbEntity
  8
255
  6
CONTINUOUS
 62
     3
100
AcDbMText
 10
367.160819
 20
15.550088
 30
0.0
 40
3.5
 41
0.0
 71
     7
 72
     5
  1
\W00.787;101523.1417.000 
  7
DEFAULT
1001
ACAD
1000
MTEXTBEGIN
1070
    73
1070
     2
1070
    44
1040
0.903614
1000
MTEXTEND
1000
ACAD_MTEXT_DEFINED_HEIGHT_BEGIN
1070
    46
1040
0.2
1000
ACAD_MTEXT_DEFINED_HEIGHT_END
  0
MTEXT
  5
219
330
1F
100
AcDbEntity
  8
255
  6
CONTINUOUS
 62
     3
100
AcDbMText
 10
310.122786
 20
44.555106
 30
0.0
 40
3.5
 41
0.0
 71
     7
 72
     5
  1
\W00.774;09/11/15 
  7
DEFAULT
1001
ACAD
1000
MTEXTBEGIN
1070
    73
1070
     2
1070
    44
1040
0.903614
1000
MTEXTEND
1000
ACAD_MTEXT_DEFINED_HEIGHT_BEGIN
1070
    46
1040
0.2
1000
ACAD_MTEXT_DEFINED_HEIGHT_END
  0
MTEXT
  5
21A
330
1F
100
AcDbEntity
  8
255
  6
CONTINUOUS
 62
     3
100
AcDbMText
 10
345.29289
 20
45.066877
 30
0.0
 40
3.5
 41
0.0
 71
     7
 72
     5
  1
\W00.727;C. Alvarez 
  7
DEFAULT
1001
ACAD
1000
MTEXTBEGIN
1070
    73
1070
     2
1070
    44
1040
0.903614
1000
MTEXTEND
1000
ACAD_MTEXT_DEFINED_HEIGHT_BEGIN
1070
    46
1040
0.2
1000
ACAD_MTEXT_DEFINED_HEIGHT_END
  0
LINE
  5
21B
330
1F
100
AcDbEntity
  8
255
  6
CENTER
 62
     3
100
AcDbLine
 10
184.978308
 20
222.98769
 30
0.0
 11
292.978308
 21
222.98769
 31
0.0
  0
LINE
  5
21C
330
1F
100
AcDbEntity
  8
255
  6
CENTER
 62
     3
100
AcDbLine
 10
238.978308
 20
168.98769
 30
0.0
 11
238.978308
 21
276.98769
 31
0.0
  0
SPLINE
  5
21D
330
1F
100
AcDbEntity
  8
255
  6
CENTER
 62
     3
100
AcDbSpline
210
0.0
220
0.0
230
1.0
 70
    24
 71
     1
 72
     5
 73
     3
 74
     0
 42
0.000000001
 43
0.0000000001
 40
0.0
 40
0.0
 40
0.5141700404858152
 40
1.0
 40
1.0
 10
319.3075616699216
 20
222.9876902972081
 30
-0.0000000000000032
 10
306.6075616699223
 20
222.9876902972081
 30
-0.0000000000000032
 10
294.6075616699223
 20
222.9876902972081
 30
-0.0000000000000032
  0
INSERT
  5
228
330
1F
100
AcDbEntity
  8
255
  6
CONTINUOUS
 62
     3
100
AcDbBlockReference
  2
DIMNDRAFT3D11
 10
0.0
 20
0.0
 30
0.0
  0
DIMENSION
  5
231
330
1F
100
AcDbEntity
  8
255
  6
CONTINUOUS
 62
     3
100
AcDbDimension
  2
DIMNDRAFT3D2
 10
161.368824
 20
212.236669
 30
0.0
 11
111.801009
 21
167.395976
 31
0.0
 70
   163
  1
\C3;%%c 86
  3
STANDARD
100
AcDbDiametricDimension
 15
99.907659
 25
152.08249
 35
0.0
 40
0.0
1001
ACAD
1000
DSTYLE
1002
{
1070
   287
1070
     3
1070
     7
1000

1070
     6
1000

1070
   172
1070
     1
1070
   279
1070
     0
1070
   173
1070
     1
1070
   340
1005
1C4
1070
    75
1070
     1
1070
    76
1070
     1
1070
   271
1070
     0
1070
   272
1070
     2
1070
    77
1070
     1
1070
    73
1070
     0
1070
   171
1070
     3
1070
   274
1070
     4
1070
   177
1070
     3
1070
   176
1070
     3
1070
   178
1070
     3
1070
    48
1040
-0.005
1070
    41
1041
3.5
1070
   147
1041
1.75
1070
    42
1041
0.0
1070
    44
1041
2.0
1070
   140
1041
3.5
1002
}
  0
DIMENSION
  5
23B
330
1F
100
AcDbEntity
  8
255
  6
CONTINUOUS
 62
     3
100
AcDbDimension
  2
DIMNDRAFT3D3
 10
82.34195
 20
169.218627
 30
0.0
 11
68.678559
 21
163.496188
 31
0.0
 70
    34
  1
\C3;90%%d
 53
315.0
  3
STANDARD
100
AcDb2LineAngularDimension
 13
29.579008
 23
177.15958
 33
0.0
 14
28.879008
 24
177.15958
 34
0.0
 15
82.34195
 25
177.15958
 35
0.0
 16
66.203685
 26
161.021314
 36
0.0
1001
ACAD
1000
DSTYLE
1002
{
1070
     7
1000

1070
     6
1000

1070
   173
1070
     1
1070
   340
1005
1C4
1070
   271
1070
     0
1070
   272
1070
     2
1070
    77
1070
     1
1070
    73
1070
     0
1070
   171
1070
     3
1070
   274
1070
     4
1070
   177
1070
     3
1070
   176
1070
     3
1070
   178
1070
     3
1070
    48
1040
-0.005
1070
    41
1041
3.5
1070
   147
1041
1.75
1070
    42
1041
0.0
1070
    44
1041
2.0
1070
   140
1041
3.5
1002
}
  0
DIMENSION
  5
243
330
1F
100
AcDbEntity
  8
255
  6
CONTINUOUS
 62
     3
100
AcDbDimension
  2
DIMNDRAFT3D4
 10
358.507562
 20
183.228862
 30
0.0
 11
339.177394
 21
203.05903
 31
0.0
 70
    34
  1
\C3;90%%d
 53
45.0
  3
STANDARD
100
AcDb2LineAngularDimension
 13
359.007562
 23
187.632351
 33
0.0
 14
359.007562
 24
210.046738
 34
0.0
 15
309.307562
 25
183.228862
 35
0.0
 16
341.652268
 26
200.584156
 36
0.0
1001
ACAD
1000
DSTYLE
1002
{
1070
     7
1000

1070
     6
1000

1070
   173
1070
     1
1070
   340
1005
1C4
1070
   271
1070
     0
1070
   272
1070
     2
1070
    77
1070
     1
1070
    73
1070
     0
1070
   171
1070
     3
1070
   274
1070
     4
1070
   177
1070
     3
1070
   176
1070
     3
1070
   178
1070
     3
1070
    48
1040
-0.005
1070
    41
1041
3.5
1070
   147
1041
1.75
1070
    42
1041
0.0
1070
    44
1041
2.0
1070
   140
1041
3.5
1002
}
  0
DIMENSION
  5
24C
330
1F
100
AcDbEntity
  8
255
  6
CONTINUOUS
 62
     3
100
AcDbDimension
  2
DIMNDRAFT3D5
 10
49.951002
 20
187.15958
 30
0.0
 11
49.951002
 21
199.09115
 31
0.0
 70
   160
  1
\C3;10
  3
STANDARD
100
AcDbAlignedDimension
 13
29.579008
 23
177.15958
 33
0.0
 14
49.951002
 24
187.15958
 34
0.0
 50
90.0
100
AcDbRotatedDimension
1001
ACAD
1000
DSTYLE
1002
{
1070
   287
1070
     3
1070
     7
1000

1070
     6
1000

1070
    74
1070
     0
1070
   279
1070
     0
1070
   172
1070
     1
1070
   173
1070
     1
1070
   340
1005
1C4
1070
   271
1070
     0
1070
   272
1070
     2
1070
    77
1070
     1
1070
    73
1070
     0
1070
   171
1070
     3
1070
   274
1070
     4
1070
   177
1070
     3
1070
   176
1070
     3
1070
   178
1070
     3
1070
    48
1040
-0.005
1070
    41
1041
3.5
1070
   147
1041
1.75
1070
    42
1041
0.0
1070
    44
1041
2.0
1070
   140
1041
3.5
1002
}
  0
DIMENSION
  5
257
330
1F
100
AcDbEntity
  8
255
  6
CONTINUOUS
 62
     3
100
AcDbDimension
  2
DIMNDRAFT3D6
 10
360.507562
 20
236.894309
 30
0.0
 11
334.907562
 21
236.894309
 31
0.0
 70
   160
  1
\A1;\C3;51,2 \A1;\S+0,5^ -0,0;
  3
STANDARD
100
AcDbAlignedDimension
 13
309.307562
 23
227.98769
 33
0.0
 14
360.507562
 24
231.958166
 34
0.0
100
AcDbRotatedDimension
1001
ACAD
1000
DSTYLE
1002
{
1070
   287
1070
     3
1070
     7
1000

1070
     6
1000

1070
   279
1070
     0
1070
   172
1070
     1
1070
   173
1070
     1
1070
   340
1005
1C4
1070
   271
1070
     1
1070
   272
1070
     1
1070
    77
1070
     1
1070
    73
1070
     0
1070
   171
1070
     3
1070
   274
1070
     4
1070
   177
1070
     3
1070
   176
1070
     3
1070
   178
1070
     3
1070
    48
1040
-0.005
1070
    41
1041
3.5
1070
   147
1041
1.75
1070
    42
1041
0.0
1070
    44
1041
2.0
1070
   140
1041
3.5
1002
}
  0
ENDSEC
  0
SECTION
  2
OBJECTS
  0
DICTIONARY
  5
C
330
0
100
AcDbDictionary
  3
ACAD_GROUP
350
D
  3
ACAD_LAYOUT
350
1A
  3
ACAD_MATERIAL
350
3B
  3
ACAD_MLEADERSTYLE
350
28A
  3
ACAD_MLINESTYLE
350
17
  3
ACAD_PLOTSETTINGS
350
19
  3
ACAD_VISUALSTYLE
350
2A
  3
ACDBHEADERROUNDTRIPXREC
350
268
  3
ACDBVARIABLEDICTIONARY
350
288
  0
DICTIONARY
  5
D
102
{ACAD_REACTORS
330
C
102
}
330
C
100
AcDbDictionary
  0
DICTIONARY
  5
1A
102
{ACAD_REACTORS
330
C
102
}
330
C
100
AcDbDictionary
  0
DICTIONARY
  5
3B
102
{ACAD_REACTORS
330
C
102
}
330
C
100
AcDbDictionary
  3
BYBLOCK
350
3D
  3
BYLAYER
350
3C
  3
GLOBAL
350
3E
  0
DICTIONARY
  5
28A
102
{ACAD_REACTORS
330
C
102
}
330
C
100
AcDbDictionary
  0
DICTIONARY
  5
17
102
{ACAD_REACTORS
330
C
102
}
330
C
100
AcDbDictionary
  3
STANDARD
350
18
  0
DICTIONARY
  5
19
102
{ACAD_REACTORS
330
C
102
}
330
C
100
AcDbDictionary
  0
DICTIONARY
  5
2A
102
{ACAD_REACTORS
330
C
102
}
330
C
100
AcDbDictionary
  3
2DWIREFRAME
350
2F
  3
3D_HIDDEN
350
31
  3
3DWIREFRAME
350
30
  3
BASIC
350
32
  3
BRIGHTEN
350
36
  3
COLORCHANGE
350
3A
  3
CONCEPTUAL
350
34
  3
DIM
350
35
  3
FACEPATTERN
350
39
  3
FLAT
350
2B
  3
FLATWITHEDGES
350
2C
  3
GOURAUD
350
2D
  3
GOURAUDWITHEDGES
350
2E
  3
LINEPATTERN
350
38
  3
REALISTIC
350
33
  3
THICKEN
350
37
  0
DICTIONARY
  5
268
102
{ACAD_REACTORS
330
C
102
}
330
C
100
AcDbDictionary
  3
CEPSNTYPE
350
271
  3
DIMSTYLEDATA
350
287
  3
FINGERPRINTGUID
350
272
  3
HYPERLINKBASE
350
26B
  3
INSUNITS
350
270
  3
LAYOUTDICT
350
26D
  3
LWETCUNION
350
26F
  3
PLOTSETDICT
350
26E
  3
PSVPSCALE
350
274
  3
PUCSBASE
350
277
  3
PUCSORGBACK
350
27D
  3
PUCSORGBOTTOM
350
279
  3
PUCSORGFRONT
350
27C
  3
PUCSORGLEFT
350
27A
  3
PUCSORGRIGHT
350
27B
  3
PUCSORGTOP
350
278
  3
PUCSORTHOREF
350
275
  3
PUCSORTHOVIEW
350
276
  3
STYLESHEET
350
26C
  3
TSTACKALIGN
350
269
  3
TSTACKSIZE
350
26A
  3
UCSBASE
350
280
  3
UCSORGBACK
350
286
  3
UCSORGBOTTOM
350
282
  3
UCSORGFRONT
350
285
  3
UCSORGLEFT
350
283
  3
UCSORGRIGHT
350
284
  3
UCSORGTOP
350
281
  3
UCSORTHOREF
350
27E
  3
UCSORTHOVIEW
350
27F
  3
VERSIONGUID
350
273
  0
DICTIONARY
  5
288
102
{ACAD_REACTORS
330
C
102
}
330
C
100
AcDbDictionary
  3
DIMASSOC
350
28B
  3
HIDETEXT
350
28C
  0
MATERIAL
  5
3D
102
{ACAD_REACTORS
330
3B
102
}
102
{ACAD_XDICTIONARY
360
28F
102
}
330
3B
100
AcDbMaterial
  1
ByBlock
  0
MATERIAL
  5
3C
102
{ACAD_REACTORS
330
3B
102
}
102
{ACAD_XDICTIONARY
360
28D
102
}
330
3B
100
AcDbMaterial
  1
ByLayer
  0
MATERIAL
  5
3E
102
{ACAD_REACTORS
330
3B
102
}
102
{ACAD_XDICTIONARY
360
291
102
}
330
3B
100
AcDbMaterial
  1
Global
  0
MLINESTYLE
  5
18
102
{ACAD_REACTORS
330
17
102
}
330
17
100
AcDbMlineStyle
  2
Standard
 70
     0
  3

 62
   256
 51
90.0
 52
90.0
 71
     2
 49
0.5
 62
   256
  6
BYLAYER
 49
-0.5
 62
   256
  6
BYLAYER
  0
ACAD_PROXY_OBJECT
  5
2F
102
{ACAD_REACTORS
330
2A
102
}
330
2A
100
AcDbProxyObject
 90
      499
 91
      501
 93
      436
310
42CC9915DA5C99599C985B595049028333333333333E3BF0000000000000FB0107901411070040501600405405064090741402480A0340
1001
ACAD
1000
AcDbSavedByObjectVersion
1070
     0
  0
ACAD_PROXY_OBJECT
  5
31
102
{ACAD_REACTORS
330
2A
102
}
330
2A
100
AcDbProxyObject
 90
      499
 91
      501
 93
      500
310
424CD108121A5919195B90640502408333333333333E3BF0000000000000FB01079024090700405020000000000001110200405405064090740C02480A0340
1001
ACAD
1000
AcDbSavedByObjectVersion
1070
     0
  0
ACAD_PROXY_OBJECT
  5
30
102
{ACAD_REACTORS
330
2A
102
}
330
2A
100
AcDbProxyObject
 90
      499
 91
      501
 93
      436
310
42CCD915DA5C99599C985B595059028333333333333E3BF0000000000000FB0107901411070040501600405405064090741402480A0340
1001
ACAD
1000
AcDbSavedByObjectVersion
1070
     0
  0
ACAD_PROXY_OBJECT
  5
32
102
{ACAD_REACTORS
330
2A
102
}
330
2A
100
AcDbProxyObject
 90
      499
 91
      501
 93
      388
310
4150985CDA58D07406404333333333333E3BF0000000000000FB0107A41107004050150841D405064090741402480A0350
1001
ACAD
1000
AcDbSavedByObjectVersion
1070
     0
  0
ACAD_PROXY_OBJECT
  5
36
102
{ACAD_REACTORS
330
2A
102
}
330
2A
100
AcDbProxyObject
 90
      499
 91
      501
 93
      428
310
42109C9A59DA1D195B90C409028333333333333E3BF0000000000000FB010790141107004050150841D405064090741402480A029950
1001
ACAD
1000
AcDbSavedByObjectVersion
1070
     0
  0
ACAD_PROXY_OBJECT
  5
3A
102
{ACAD_REACTORS
330
2A
102
}
330
2A
100
AcDbProxyObject
 90
      499
 91
      501
 93
      452
310
42D0DBDB1BDC90DA185B99D95104090240C333333333333E3BF0000000000000FB0108901411070040501508421405064090741402480A0350
1001
ACAD
1000
AcDbSavedByObjectVersion
1070
     0
  0
ACAD_PROXY_OBJECT
  5
34
102
{ACAD_REACTORS
330
2A
102
}
330
2A
100
AcDbProxyObject
 90
      499
 91
      501
 93
      500
310
4290DBDB98D95C1D1D585B10940D028333333333333E3BF0000000000000FB0107902409070040501000000000000111010841D405064090740C02480A0340
1001
ACAD
1000
AcDbSavedByObjectVersion
1070
     0
  0
ACAD_PROXY_OBJECT
  5
35
102
{ACAD_REACTORS
330
2A
102
}
330
2A
100
AcDbProxyObject
 90
      499
 91
      501
 93
      412
310
40D11A5B50B409028333333333333E3BF0000000000000FB010790141107004050150841D405064090741402480A02677FFFFFD0
1001
ACAD
1000
AcDbSavedByObjectVersion
1070
     0
  0
ACAD_PROXY_OBJECT
  5
39
102
{ACAD_REACTORS
330
2A
102
}
330
2A
100
AcDbProxyObject
 90
      499
 91
      501
 93
      444
310
42D19858D95C185D1D195C9B90F409028333333333333E3BF0000000000000FB010790141107004050150841D405064090741402480A0350
1001
ACAD
1000
AcDbSavedByObjectVersion
1070
     0
  0
ACAD_PROXY_OBJECT
  5
2B
102
{ACAD_REACTORS
330
2A
102
}
330
2A
100
AcDbProxyObject
 90
      499
 91
      501
 93
      388
310
41119B185D240901404333333333333E3BF0000000000000F9010740A41107004050150841D405064090741402480A1B50
1001
ACAD
1000
AcDbSavedByObjectVersion
1070
     0
  0
ACAD_PROXY_OBJECT
  5
2C
102
{ACAD_REACTORS
330
2A
102
}
330
2A
100
AcDbProxyObject
 90
      499
 91
      501
 93
      476
310
43519B185D15DA5D1A115919D95CD0140901404333333333333E3BF0000000000000F9010740901411070040501600405405064090741402480A1B50
1001
ACAD
1000
AcDbSavedByObjectVersion
1070
     0
  0
ACAD_PROXY_OBJECT
  5
2D
102
{ACAD_REACTORS
330
2A
102
}
330
2A
100
AcDbProxyObject
 90
      499
 91
      501
 93
      412
310
41D1DBDD5C985D5910240902404333333333333E3BF0000000000000F9010740A411070040501641D405064090741402480A1B50
1001
ACAD
1000
AcDbSavedByObjectVersion
1070
     0
  0
ACAD_PROXY_OBJECT
  5
2E
102
{ACAD_REACTORS
330
2A
102
}
330
2A
100
AcDbProxyObject
 90
      499
 91
      501
 93
      500
310
4411DBDD5C985D5915DA5D1A115919D95CD0340902404333333333333E3BF0000000000000F9010740901411070040501600405405064090741402480A1B50
1001
ACAD
1000
AcDbSavedByObjectVersion
1070
     0
  0
ACAD_PROXY_OBJECT
  5
38
102
{ACAD_REACTORS
330
2A
102
}
330
2A
100
AcDbProxyObject
 90
      499
 91
      501
 93
      444
310
42D31A5B995C185D1D195C9B90E409028333333333333E3BF0000000000000FB010790141107004050750841D405064090741402483A0350
1001
ACAD
1000
AcDbSavedByObjectVersion
1070
     0
  0
ACAD_PROXY_OBJECT
  5
33
102
{ACAD_REACTORS
330
2A
102
}
330
2A
100
AcDbProxyObject
 90
      499
 91
      501
 93
      420
310
425499585B1A5CDD1A58D08409028333333333333E3BF0000000000000FB01079019070040501508421405064090741402480A1B40
1001
ACAD
1000
AcDbSavedByObjectVersion
1070
     0
  0
ACAD_PROXY_OBJECT
  5
37
102
{ACAD_REACTORS
330
2A
102
}
330
2A
100
AcDbProxyObject
 90
      499
 91
      501
 93
      412
310
41D51A1A58DAD95B90D409028333333333333E3BF0000000000000FB010790141107004050150C41D405064090741402480A0350
1001
ACAD
1000
AcDbSavedByObjectVersion
1070
     0
  0
XRECORD
  5
271
102
{ACAD_REACTORS
330
268
102
}
330
268
100
AcDbXrecord
 90
        0
  0
XRECORD
  5
287
102
{ACAD_REACTORS
330
268
102
}
330
268
100
AcDbXrecord
1000
DSTYLE
1002
{
1070
   171
 70
     2
1070
   143
 40
25.4
1070
   274
 70
     2
1070
    41
 40
0.18
1070
   141
 40
0.09
1070
   271
 70
     4
1070
    43
 40
0.38
1070
   278
 70
    46
1070
    44
 40
0.18
1070
    42
 40
0.0625
1070
   147
 40
0.09
1070
    77
 70
     0
1070
   272
 70
     4
1070
    73
 70
     1
1070
   172
 70
     0
1070
    74
 70
     1
1070
   283
 70
     1
1070
   340
340
11
1070
   140
 40
0.18
1070
   284
 70
     0
1070
    78
 70
     0
1002
}
  0
XRECORD
  5
272
102
{ACAD_REACTORS
330
268
102
}
330
268
100
AcDbXrecord
  1
{D9A6CCE9-5E91-4312-BC30-AEF807CDB75D}
  0
XRECORD
  5
26B
102
{ACAD_REACTORS
330
268
102
}
330
268
100
AcDbXrecord
  1

  0
XRECORD
  5
270
102
{ACAD_REACTORS
330
268
102
}
330
268
100
AcDbXrecord
 90
        4
  0
XRECORD
  5
26D
102
{ACAD_REACTORS
330
268
102
}
330
268
100
AcDbXrecord
340
1A
  0
XRECORD
  5
26F
102
{ACAD_REACTORS
330
268
102
}
330
268
100
AcDbXrecord
 90
    10781
  0
XRECORD
  5
26E
102
{ACAD_REACTORS
330
268
102
}
330
268
100
AcDbXrecord
340
19
  0
XRECORD
  5
274
102
{ACAD_REACTORS
330
268
102
}
330
268
100
AcDbXrecord
 40
0.0
  0
XRECORD
  5
277
102
{ACAD_REACTORS
330
268
102
}
330
268
100
AcDbXrecord
340
0
  0
XRECORD
  5
27D
102
{ACAD_REACTORS
330
268
102
}
330
268
100
AcDbXrecord
 10
0.0
 20
0.0
 30
0.0
  0
XRECORD
  5
279
102
{ACAD_REACTORS
330
268
102
}
330
268
100
AcDbXrecord
 10
0.0
 20
0.0
 30
0.0
  0
XRECORD
  5
27C
102
{ACAD_REACTORS
330
268
102
}
330
268
100
AcDbXrecord
 10
0.0
 20
0.0
 30
0.0
  0
XRECORD
  5
27A
102
{ACAD_REACTORS
330
268
102
}
330
268
100
AcDbXrecord
 10
0.0
 20
0.0
 30
0.0
  0
XRECORD
  5
27B
102
{ACAD_REACTORS
330
268
102
}
330
268
100
AcDbXrecord
 10
0.0
 20
0.0
 30
0.0
  0
XRECORD
  5
278
102
{ACAD_REACTORS
330
268
102
}
330
268
100
AcDbXrecord
 10
0.0
 20
0.0
 30
0.0
  0
XRECORD
  5
275
102
{ACAD_REACTORS
330
268
102
}
330
268
100
AcDbXrecord
340
0
  0
XRECORD
  5
276
102
{ACAD_REACTORS
330
268
102
}
330
268
100
AcDbXrecord
 70
     0
  0
XRECORD
  5
26C
102
{ACAD_REACTORS
330
268
102
}
330
268
100
AcDbXrecord
  1

  0
XRECORD
  5
269
102
{ACAD_REACTORS
330
268
102
}
330
268
100
AcDbXrecord
 90
        1
  0
XRECORD
  5
26A
102
{ACAD_REACTORS
330
268
102
}
330
268
100
AcDbXrecord
 90
       70
  0
XRECORD
  5
280
102
{ACAD_REACTORS
330
268
102
}
330
268
100
AcDbXrecord
340
0
  0
XRECORD
  5
286
102
{ACAD_REACTORS
330
268
102
}
330
268
100
AcDbXrecord
 10
0.0
 20
0.0
 30
0.0
  0
XRECORD
  5
282
102
{ACAD_REACTORS
330
268
102
}
330
268
100
AcDbXrecord
 10
0.0
 20
0.0
 30
0.0
  0
XRECORD
  5
285
102
{ACAD_REACTORS
330
268
102
}
330
268
100
AcDbXrecord
 10
0.0
 20
0.0
 30
0.0
  0
XRECORD
  5
283
102
{ACAD_REACTORS
330
268
102
}
330
268
100
AcDbXrecord
 10
0.0
 20
0.0
 30
0.0
  0
XRECORD
  5
284
102
{ACAD_REACTORS
330
268
102
}
330
268
100
AcDbXrecord
 10
0.0
 20
0.0
 30
0.0
  0
XRECORD
  5
281
102
{ACAD_REACTORS
330
268
102
}
330
268
100
AcDbXrecord
 10
0.0
 20
0.0
 30
0.0
  0
XRECORD
  5
27E
102
{ACAD_REACTORS
330
268
102
}
330
268
100
AcDbXrecord
340
0
  0
XRECORD
  5
27F
102
{ACAD_REACTORS
330
268
102
}
330
268
100
AcDbXrecord
 70
     0
  0
XRECORD
  5
273
102
{ACAD_REACTORS
330
268
102
}
330
268
100
AcDbXrecord
  1
{FAEB1C32-E019-11D5-929B-00C0DF256EC4}
  0
DICTIONARYVAR
  5
28B
102
{ACAD_REACTORS
330
288
102
}
330
288
100
DictionaryVariables
280
     0
  1
2
  0
DICTIONARYVAR
  5
28C
102
{ACAD_REACTORS
330
288
102
}
330
288
100
DictionaryVariables
280
     0
  1
1
  0
DICTIONARY
  5
28F
330
3D
100
AcDbDictionary
280
     1
  3
ACAD_XREC_ROUNDTRIP
360
290
  0
DICTIONARY
  5
28D
330
3C
100
AcDbDictionary
280
     1
  3
ACAD_XREC_ROUNDTRIP
360
28E
  0
DICTIONARY
  5
291
330
3E
100
AcDbDictionary
280
     1
  3
ACAD_XREC_ROUNDTRIP
360
292
  0
XRECORD
  5
290
102
{ACAD_REACTORS
330
28F
102
}
330
28F
100
AcDbXrecord
102
MATERIAL
148
0.0
149
0.0
149
0.0
 93
        0
 94
      127
282
     0
 72
     1
 77
     1
171
     1
175
     1
179
     1
273
     0
  0
XRECORD
  5
28E
102
{ACAD_REACTORS
330
28D
102
}
330
28D
100
AcDbXrecord
102
MATERIAL
148
0.0
149
0.0
149
0.0
 93
        0
 94
      127
282
     0
 72
     1
 77
     1
171
     1
175
     1
179
     1
273
     0
  0
XRECORD
  5
292
102
{ACAD_REACTORS
330
291
102
}
330
291
100
AcDbXrecord
102
MATERIAL
148
0.0
149
0.0
149
0.0
 93
        0
 94
      127
282
     0
 72
     1
 77
     1
171
     1
175
     1
179
     1
273
     0
  0
ENDSEC
  0
EOF
