  0
SECTION
  2
HEADER
  9
$ACADVER
  1
AC1014
  9
$ACADMAINTVER
 70
     9
  9
$DWGCODEPAGE
  3
ANSI_1252
  9
$INSBASE
 10
0.0
 20
0.0
 30
0.0
  9
$EXTMIN
 10
-0.5
 20
-0.5
 30
-0.5
  9
$EXTMAX
 10
5.0
 20
5.0
 30
5.0
  9
$LIMMIN
 10
-0.5
 20
-0.5
  9
$LIMMAX
 10
5.0
 20
5.0
  9
$ORTHOMODE
 70
     0
  9
$REGENMODE
 70
     1
  9
$FILLMODE
 70
     1
  9
$QTEXTMODE
 70
     0
  9
$MIRRTEXT
 70
     1
  9
$DRAGMODE
 70
     2
  9
$LTSCALE
 40
1.0
  9
$OSMODE
 70
    37
  9
$ATTMODE
 70
     1
  9
$TEXTSIZE
 40
0.2
  9
$TRACEWID
 40
0.05
  9
$TEXTSTYLE
  7
STANDARD
  9
$CLAYER
  8
0
  9
$CELTYPE
  6
BYLAYER
  9
$CECOLOR
 62
   256
  9
$CELTSCALE
 40
1.0
  9
$DELOBJ
 70
     1
  9
$DISPSILH
 70
     0
  9
$DIMSCALE
 40
1.0
  9
$DIMASZ
 40
0.18
  9
$DIMEXO
 40
0.0625
  9
$DIMDLI
 40
0.38
  9
$DIMRND
 40
0.0
  9
$DIMDLE
 40
0.0
  9
$DIMEXE
 40
0.18
  9
$DIMTP
 40
0.0
  9
$DIMTM
 40
0.0
  9
$DIMTXT
 40
0.18
  9
$DIMCEN
 40
0.09
  9
$DIMTSZ
 40
0.0
  9
$DIMTOL
 70
     0
  9
$DIMLIM
 70
     0
  9
$DIMTIH
 70
     1
  9
$DIMTOH
 70
     1
  9
$DIMSE1
 70
     0
  9
$DIMSE2
 70
     0
  9
$DIMTAD
 70
     0
  9
$DIMZIN
 70
     0
  9
$DIMBLK
  1

  9
$DIMASO
 70
     1
  9
$DIMSHO
 70
     1
  9
$DIMPOST
  1

  9
$DIMAPOST
  1

  9
$DIMALT
 70
     0
  9
$DIMALTD
 70
     2
  9
$DIMALTF
 40
25.4
  9
$DIMLFAC
 40
1.0
  9
$DIMTOFL
 70
     0
  9
$DIMTVP
 40
0.0
  9
$DIMTIX
 70
     0
  9
$DIMSOXD
 70
     0
  9
$DIMSAH
 70
     0
  9
$DIMBLK1
  1

  9
$DIMBLK2
  1

  9
$DIMSTYLE
  2
STANDARD
  9
$DIMCLRD
 70
     0
  9
$DIMCLRE
 70
     0
  9
$DIMCLRT
 70
     0
  9
$DIMTFAC
 40
1.0
  9
$DIMGAP
 40
0.09
  9
$DIMJUST
 70
     0
  9
$DIMSD1
 70
     0
  9
$DIMSD2
 70
     0
  9
$DIMTOLJ
 70
     1
  9
$DIMTZIN
 70
     0
  9
$DIMALTZ
 70
     0
  9
$DIMALTTZ
 70
     0
  9
$DIMFIT
 70
     3
  9
$DIMUPT
 70
     0
  9
$DIMUNIT
 70
     2
  9
$DIMDEC
 70
     4
  9
$DIMTDEC
 70
     4
  9
$DIMALTU
 70
     2
  9
$DIMALTTD
 70
     2
  9
$DIMTXSTY
  7
STANDARD
  9
$DIMAUNIT
 70
     0
  9
$LUNITS
 70
     2
  9
$LUPREC
 70
     4
  9
$SKETCHINC
 40
0.1
  9
$FILLETRAD
 40
0.5
  9
$AUNITS
 70
     0
  9
$AUPREC
 70
     0
  9
$MENU
  1
.
  9
$ELEVATION
 40
0.0
  9
$PELEVATION
 40
0.0
  9
$THICKNESS
 40
0.0
  9
$LIMCHECK
 70
     0
  9
$CHAMFERA
 40
0.5
  9
$CHAMFERB
 40
0.5
  9
$CHAMFERC
 40
1.0
  9
$CHAMFERD
 40
0.0
  9
$SKPOLY
 70
     0
  9
$TDCREATE
 40
2457770.393878368
  9
$TDUPDATE
 40
2457770.39387838
  9
$TDINDWG
 40
0.0000000116
  9
$TDUSRTIMER
 40
0.0000000116
  9
$USRTIMER
 70
     1
  9
$ANGBASE
 50
0.0
  9
$ANGDIR
 70
     0
  9
$PDMODE
 70
     0
  9
$PDSIZE
 40
0.0
  9
$PLINEWID
 40
0.0
  9
$COORDS
 70
     1
  9
$SPLFRAME
 70
     0
  9
$SPLINETYPE
 70
     6
  9
$SPLINESEGS
 70
     8
  9
$ATTDIA
 70
     0
  9
$ATTREQ
 70
     1
  9
$HANDLING
 70
     1
  9
$HANDSEED
  5
310
  9
$SURFTAB1
 70
     6
  9
$SURFTAB2
 70
     6
  9
$SURFTYPE
 70
     6
  9
$SURFU
 70
     6
  9
$SURFV
 70
     6
  9
$UCSNAME
  2

  9
$UCSORG
 10
0.0
 20
0.0
 30
0.0
  9
$UCSXDIR
 10
1.0
 20
0.0
 30
0.0
  9
$UCSYDIR
 10
0.0
 20
1.0
 30
0.0
  9
$PUCSNAME
  2

  9
$PUCSORG
 10
0.0
 20
0.0
 30
0.0
  9
$PUCSXDIR
 10
1.0
 20
0.0
 30
0.0
  9
$PUCSYDIR
 10
0.0
 20
1.0
 30
0.0
  9
$USERI1
 70
     0
  9
$USERI2
 70
     0
  9
$USERI3
 70
     0
  9
$USERI4
 70
     0
  9
$USERI5
 70
     0
  9
$USERR1
 40
0.0
  9
$USERR2
 40
0.0
  9
$USERR3
 40
0.0
  9
$USERR4
 40
0.0
  9
$USERR5
 40
0.0
  9
$WORLDVIEW
 70
     1
  9
$SHADEDGE
 70
     3
  9
$SHADEDIF
 70
    70
  9
$TILEMODE
 70
     1
  9
$MAXACTVP
 70
    64
  9
$PINSBASE
 10
0.0
 20
0.0
 30
0.0
  9
$PLIMCHECK
 70
     0
  9
$PEXTMIN
 10
-0.5
 20
-0.5
 30
-0.5
  9
$PEXTMAX
 10
5.0
 20
5.0
 30
5.0
  9
$PLIMMIN
 10
-0.5
 20
-0.5
  9
$PLIMMAX
 10
5.0
 20
5.0
  9
$UNITMODE
 70
     0
  9
$VISRETAIN
 70
     1
  9
$PLINEGEN
 70
     0
  9
$PSLTSCALE
 70
     1
  9
$TREEDEPTH
 70
  3020
  9
$PICKSTYLE
 70
     1
  9
$CMLSTYLE
  2
STANDARD
  9
$CMLJUST
 70
     0
  9
$CMLSCALE
 40
1.0
  9
$PROXYGRAPHICS
 70
     1
  9
$MEASUREMENT
 70
     1
  0
ENDSEC
  0
SECTION
  2
CLASSES
  0
CLASS
  1
ACDBDICTIONARYWDFLT
  2
AcDbDictionaryWithDefault
  3
ObjectDBX Classes
 90
        0
280
     0
281
     0
  0
CLASS
  1
VISUALSTYLE
  2
AcDbVisualStyle
  3
ObjectDBX Classes
 90
     4095
280
     0
281
     0
  0
CLASS
  1
MATERIAL
  2
AcDbMaterial
  3
ObjectDBX Classes
 90
     1153
280
     0
281
     0
  0
CLASS
  1
DICTIONARYVAR
  2
AcDbDictionaryVar
  3
ObjectDBX Classes
 90
        0
280
     0
281
     0
  0
CLASS
  1
XRECORD
  2
AcDbXrecord
  3
AutoCAD 2000
 90
        0
280
     0
281
     0
  0
CLASS
  1
LWPOLYLINE
  2
AcDbPolyline
  3
AutoCAD 2000
 90
        0
280
     0
281
     1
  0
CLASS
  1
HATCH
  2
AcDbHatch
  3
AutoCAD 2000
 90
        0
280
     0
281
     1
  0
CLASS
  1
ACDBPLACEHOLDER
  2
AcDbPlaceHolder
  3
ObjectDBX Classes
 90
        0
280
     0
281
     0
  0
CLASS
  1
LAYOUT
  2
AcDbLayout
  3
ObjectDBX Classes
 90
        0
280
     0
281
     0
  0
ENDSEC
  0
SECTION
  2
TABLES
  0
TABLE
  2
VPORT
  5
8
330
0
100
AcDbSymbolTable
 70
    17
  0
VPORT
  5
29
330
8
100
AcDbSymbolTableRecord
100
AcDbViewportTableRecord
  2
DUMMY
 70
     0
 10
0.0
 20
0.0
 11
1.0
 21
1.0
 12
10.429907
 22
4.5
 13
0.0
 23
0.0
 14
0.5
 24
0.5
 15
0.5
 25
0.5
 16
0.0
 26
0.0
 36
1.0
 17
0.0
 27
0.0
 37
0.0
 40
9.0
 41
1.972973
 42
50.0
 43
0.0
 44
0.0
 50
0.0
 51
0.0
 71
     0
 72
   100
 73
     1
 74
     3
 75
     0
 76
     0
 77
     0
 78
     0
  0
VPORT
  5
2D5
330
8
100
AcDbSymbolTableRecord
100
AcDbViewportTableRecord
  2
*ACTIVE
 70
     0
 10
0.0
 20
0.0
 11
1.0
 21
1.0
 12
207.48
 22
148.5
 13
0.0
 23
0.0
 14
0.5
 24
0.5
 15
0.5
 25
0.5
 16
0.0
 26
0.0
 36
1.0
 17
0.0
 27
0.0
 37
0.0
 40
254.0
 41
0.069908
 42
50.0
 43
804.295265
 44
-804.295265
 50
0.0
 51
0.0
 71
     0
 72
   100
 73
     1
 74
     3
 75
     0
 76
     0
 77
     0
 78
     0
  0
VPORT
  5
2D6
330
8
100
AcDbSymbolTableRecord
100
AcDbViewportTableRecord
  2
L1
 70
     0
 10
0.0
 20
0.0
 11
1.0
 21
1.0
 12
207.48
 22
148.5
 13
0.0
 23
0.0
 14
0.5
 24
0.5
 15
0.5
 25
0.5
 16
0.0
 26
0.0
 36
1.0
 17
0.0
 27
0.0
 37
0.0
 40
254.0
 41
0.069908
 42
50.0
 43
804.295265
 44
-804.295265
 50
0.0
 51
0.0
 71
     0
 72
   100
 73
     1
 74
     3
 75
     0
 76
     0
 77
     0
 78
     0
  0
VPORT
  5
2D7
330
8
100
AcDbSymbolTableRecord
100
AcDbViewportTableRecord
  2
L2
 70
     0
 10
0.0
 20
0.0
 11
0.5
 21
1.0
 12
0.0
 22
0.0
 13
0.0
 23
0.0
 14
0.5
 24
0.5
 15
0.5
 25
0.5
 16
0.0
 26
-1.0
 36
0.0
 17
0.0
 27
0.0
 37
0.0
 40
1319.822715
 41
0.013454
 42
50.0
 43
672.020833
 44
-672.020833
 50
0.0
 51
0.0
 71
     0
 72
   100
 73
     1
 74
     3
 75
     0
 76
     0
 77
     0
 78
     0
  0
VPORT
  5
2D8
330
8
100
AcDbSymbolTableRecord
100
AcDbViewportTableRecord
  2
L2
 70
     0
 10
0.5
 20
0.0
 11
1.0
 21
1.0
 12
0.0
 22
0.0
 13
0.0
 23
0.0
 14
0.5
 24
0.5
 15
0.5
 25
0.5
 16
1.0
 26
0.0
 36
0.0
 17
0.0
 27
0.0
 37
0.0
 40
1319.822715
 41
0.013454
 42
50.0
 43
672.020833
 44
-672.020833
 50
0.0
 51
0.0
 71
     0
 72
   100
 73
     1
 74
     3
 75
     0
 76
     0
 77
     0
 78
     0
  0
VPORT
  5
2D9
330
8
100
AcDbSymbolTableRecord
100
AcDbViewportTableRecord
  2
L3
 70
     0
 10
0.0
 20
0.5
 11
1.0
 21
1.0
 12
207.48
 22
148.5
 13
0.0
 23
0.0
 14
0.5
 24
0.5
 15
0.5
 25
0.5
 16
0.0
 26
0.0
 36
1.0
 17
0.0
 27
0.0
 37
0.0
 40
254.0
 41
0.069908
 42
50.0
 43
804.295265
 44
-804.295265
 50
0.0
 51
0.0
 71
     0
 72
   100
 73
     1
 74
     3
 75
     0
 76
     0
 77
     0
 78
     0
  0
VPORT
  5
2DA
330
8
100
AcDbSymbolTableRecord
100
AcDbViewportTableRecord
  2
L3
 70
     0
 10
0.0
 20
0.0
 11
1.0
 21
0.5
 12
0.0
 22
0.0
 13
0.0
 23
0.0
 14
0.5
 24
0.5
 15
0.5
 25
0.5
 16
0.0
 26
-1.0
 36
0.0
 17
0.0
 27
0.0
 37
0.0
 40
1319.822715
 41
0.013454
 42
50.0
 43
672.020833
 44
-672.020833
 50
0.0
 51
0.0
 71
     0
 72
   100
 73
     1
 74
     3
 75
     0
 76
     0
 77
     0
 78
     0
  0
VPORT
  5
2DB
330
8
100
AcDbSymbolTableRecord
100
AcDbViewportTableRecord
  2
L4
 70
     0
 10
0.0
 20
0.5
 11
0.5
 21
1.0
 12
207.48
 22
148.5
 13
0.0
 23
0.0
 14
0.5
 24
0.5
 15
0.5
 25
0.5
 16
0.0
 26
0.0
 36
1.0
 17
0.0
 27
0.0
 37
0.0
 40
254.0
 41
0.069908
 42
50.0
 43
804.295265
 44
-804.295265
 50
0.0
 51
0.0
 71
     0
 72
   100
 73
     1
 74
     3
 75
     0
 76
     0
 77
     0
 78
     0
  0
VPORT
  5
2DC
330
8
100
AcDbSymbolTableRecord
100
AcDbViewportTableRecord
  2
L4
 70
     0
 10
0.0
 20
0.0
 11
0.5
 21
0.5
 12
0.0
 22
0.0
 13
0.0
 23
0.0
 14
0.5
 24
0.5
 15
0.5
 25
0.5
 16
0.0
 26
-1.0
 36
0.0
 17
0.0
 27
0.0
 37
0.0
 40
1319.822715
 41
0.013454
 42
50.0
 43
672.020833
 44
-672.020833
 50
0.0
 51
0.0
 71
     0
 72
   100
 73
     1
 74
     3
 75
     0
 76
     0
 77
     0
 78
     0
  0
VPORT
  5
2DD
330
8
100
AcDbSymbolTableRecord
100
AcDbViewportTableRecord
  2
L4
 70
     0
 10
0.5
 20
0.0
 11
1.0
 21
0.5
 12
0.0
 22
0.0
 13
0.0
 23
0.0
 14
0.5
 24
0.5
 15
0.5
 25
0.5
 16
1.0
 26
0.0
 36
0.0
 17
0.0
 27
0.0
 37
0.0
 40
1319.822715
 41
0.013454
 42
50.0
 43
672.020833
 44
-672.020833
 50
0.0
 51
0.0
 71
     0
 72
   100
 73
     1
 74
     3
 75
     0
 76
     0
 77
     0
 78
     0
  0
VPORT
  5
2DE
330
8
100
AcDbSymbolTableRecord
100
AcDbViewportTableRecord
  2
L4
 70
     0
 10
0.5
 20
0.5
 11
1.0
 21
1.0
 12
0.0
 22
0.0
 13
0.0
 23
0.0
 14
0.5
 24
0.5
 15
0.5
 25
0.5
 16
0.5773502691896258
 26
-0.5773502691896258
 36
0.5773502691896258
 17
0.0
 27
0.0
 37
0.0
 40
1285.020866
 41
0.013818
 42
50.0
 43
667.141407
 44
-667.141407
 50
0.0
 51
0.0
 71
     0
 72
   100
 73
     1
 74
     3
 75
     0
 76
     0
 77
     0
 78
     0
  0
VPORT
  5
2DF
330
8
100
AcDbSymbolTableRecord
100
AcDbViewportTableRecord
  2
L6
 70
     0
 10
0.0
 20
0.5
 11
0.333333
 21
1.0
 12
0.0
 22
0.0
 13
0.0
 23
0.0
 14
0.5
 24
0.5
 15
0.5
 25
0.5
 16
0.7188730927569434
 26
-0.5850486126764431
 36
0.3754192287502549
 17
0.0
 27
0.0
 37
0.0
 40
1357.434192
 41
0.013081
 42
50.0
 43
701.839477
 44
-701.839477
 50
0.0
 51
0.0
 71
     0
 72
   100
 73
     1
 74
     3
 75
     0
 76
     0
 77
     0
 78
     0
  0
VPORT
  5
2E0
330
8
100
AcDbSymbolTableRecord
100
AcDbViewportTableRecord
  2
L6
 70
     0
 10
0.0
 20
0.0
 11
0.333333
 21
0.5
 12
0.0
 22
0.0
 13
0.0
 23
0.0
 14
0.5
 24
0.5
 15
0.5
 25
0.5
 16
-1.0
 26
0.0
 36
0.0
 17
0.0
 27
0.0
 37
0.0
 40
1319.822715
 41
0.013454
 42
50.0
 43
672.020833
 44
-672.020833
 50
0.0
 51
0.0
 71
     0
 72
   100
 73
     1
 74
     3
 75
     0
 76
     0
 77
     0
 78
     0
  0
VPORT
  5
2E1
330
8
100
AcDbSymbolTableRecord
100
AcDbViewportTableRecord
  2
L6
 70
     0
 10
0.333333
 20
0.5
 11
0.666667
 21
1.0
 12
207.48
 22
148.5
 13
0.0
 23
0.0
 14
0.5
 24
0.5
 15
0.5
 25
0.5
 16
0.0
 26
0.0
 36
1.0
 17
0.0
 27
0.0
 37
0.0
 40
254.0
 41
0.069908
 42
50.0
 43
804.295265
 44
-804.295265
 50
0.0
 51
0.0
 71
     0
 72
   100
 73
     1
 74
     3
 75
     0
 76
     0
 77
     0
 78
     0
  0
VPORT
  5
2E2
330
8
100
AcDbSymbolTableRecord
100
AcDbViewportTableRecord
  2
L6
 70
     0
 10
0.333333
 20
0.0
 11
0.666667
 21
0.5
 12
0.0
 22
0.0
 13
0.0
 23
0.0
 14
0.5
 24
0.5
 15
0.5
 25
0.5
 16
0.0
 26
-1.0
 36
0.0
 17
0.0
 27
0.0
 37
0.0
 40
1319.822715
 41
0.013454
 42
50.0
 43
672.020833
 44
-672.020833
 50
0.0
 51
0.0
 71
     0
 72
   100
 73
     1
 74
     3
 75
     0
 76
     0
 77
     0
 78
     0
  0
VPORT
  5
2E3
330
8
100
AcDbSymbolTableRecord
100
AcDbViewportTableRecord
  2
L6
 70
     0
 10
0.666667
 20
0.5
 11
1.0
 21
1.0
 12
0.0
 22
0.0
 13
0.0
 23
0.0
 14
0.5
 24
0.5
 15
0.5
 25
0.5
 16
0.5773502691896258
 26
-0.5773502691896258
 36
0.5773502691896258
 17
0.0
 27
0.0
 37
0.0
 40
1285.020866
 41
0.013818
 42
50.0
 43
667.141407
 44
-667.141407
 50
0.0
 51
0.0
 71
     0
 72
   100
 73
     1
 74
     3
 75
     0
 76
     0
 77
     0
 78
     0
  0
VPORT
  5
2E4
330
8
100
AcDbSymbolTableRecord
100
AcDbViewportTableRecord
  2
L6
 70
     0
 10
0.666667
 20
0.0
 11
1.0
 21
0.5
 12
0.0
 22
0.0
 13
0.0
 23
0.0
 14
0.5
 24
0.5
 15
0.5
 25
0.5
 16
1.0
 26
0.0
 36
0.0
 17
0.0
 27
0.0
 37
0.0
 40
1319.822715
 41
0.013454
 42
50.0
 43
672.020833
 44
-672.020833
 50
0.0
 51
0.0
 71
     0
 72
   100
 73
     1
 74
     3
 75
     0
 76
     0
 77
     0
 78
     0
  0
ENDTAB
  0
TABLE
  2
LTYPE
  5
5
330
0
100
AcDbSymbolTable
 70
     7
  0
LTYPE
  5
14
330
5
100
AcDbSymbolTableRecord
100
AcDbLinetypeTableRecord
  2
BYBLOCK
 70
     0
  3

 72
    65
 73
     0
 40
0.0
  0
LTYPE
  5
15
330
5
100
AcDbSymbolTableRecord
100
AcDbLinetypeTableRecord
  2
BYLAYER
 70
     0
  3

 72
    65
 73
     0
 40
0.0
  0
LTYPE
  5
16
330
5
100
AcDbSymbolTableRecord
100
AcDbLinetypeTableRecord
  2
CONTINUOUS
 70
     0
  3
Solid line
 72
    65
 73
     0
 40
0.0
  0
LTYPE
  5
3F
330
5
100
AcDbSymbolTableRecord
100
AcDbLinetypeTableRecord
  2
DASHED
 70
     0
  3
__ __ __ __ __ __ __ __ __
 72
    65
 73
     2
 40
25.72
 49
12.86
 74
     4
 75
     0
340
0
 46
0.0
 50
0.0
 44
0.0
 45
0.0
 49
-12.86
 74
     4
 75
     0
340
0
 46
0.0
 50
0.0
 44
0.0
 45
0.0
  0
LTYPE
  5
40
330
5
100
AcDbSymbolTableRecord
100
AcDbLinetypeTableRecord
  2
HIDDEN
 70
     0
  3
_ _ _ _ _ _ _ _ _ _ _ _ _ _ _
 72
    65
 73
     2
 40
0.5
 49
0.25
 74
     4
 75
     0
340
0
 46
0.0
 50
0.0
 44
0.0
 45
0.0
 49
-0.25
 74
     4
 75
     0
340
0
 46
0.0
 50
0.0
 44
0.0
 45
0.0
  0
LTYPE
  5
41
330
5
100
AcDbSymbolTableRecord
100
AcDbLinetypeTableRecord
  2
PHANTOM
 70
     0
  3
____ _ _ ____ _ _ _____ _ _ ____
 72
    65
 73
     6
 40
50.5
 49
18.0
 74
     4
 75
     0
340
0
 46
0.0
 50
0.0
 44
0.0
 45
0.0
 49
-6.5
 74
     4
 75
     0
340
0
 46
0.0
 50
0.0
 44
0.0
 45
0.0
 49
6.5
 74
     4
 75
     0
340
0
 46
0.0
 50
0.0
 44
0.0
 45
0.0
 49
-6.5
 74
     4
 75
     0
340
0
 46
0.0
 50
0.0
 44
0.0
 45
0.0
 49
6.5
 74
     4
 75
     0
340
0
 46
0.0
 50
0.0
 44
0.0
 45
0.0
 49
-6.5
 74
     4
 75
     0
340
0
 46
0.0
 50
0.0
 44
0.0
 45
0.0
  0
LTYPE
  5
42
330
5
100
AcDbSymbolTableRecord
100
AcDbLinetypeTableRecord
  2
CENTER
 70
     0
  3
____ _ ____ _ ____ _ ____
 72
    65
 73
     4
 40
47.4
 49
22.0
 74
     4
 75
     0
340
0
 46
0.0
 50
0.0
 44
0.0
 45
0.0
 49
-8.5
 74
     4
 75
     0
340
0
 46
0.0
 50
0.0
 44
0.0
 45
0.0
 49
8.5
 74
     4
 75
     0
340
0
 46
0.0
 50
0.0
 44
0.0
 45
0.0
 49
-8.5
 74
     4
 75
     0
340
0
 46
0.0
 50
0.0
 44
0.0
 45
0.0
  0
LTYPE
  5
43
330
5
100
AcDbSymbolTableRecord
100
AcDbLinetypeTableRecord
  2
DOT
 70
     0
  3
.........................
 72
    65
 73
     2
 40
10.0
 49
0.0
 74
     4
 75
     0
340
0
 46
0.0
 50
0.0
 44
0.0
 45
0.0
 49
-10.0
 74
     4
 75
     0
340
0
 46
0.0
 50
0.0
 44
0.0
 45
0.0
  0
LTYPE
  5
44
330
5
100
AcDbSymbolTableRecord
100
AcDbLinetypeTableRecord
  2
DASHDOT
 70
     0
  3
_._._._._._._._._._._._._._._._.
 72
    65
 73
     4
 40
70.0
 49
31.0
 74
     4
 75
     0
340
0
 46
0.0
 50
0.0
 44
0.0
 45
0.0
 49
-13.0
 74
     4
 75
     0
340
0
 46
0.0
 50
0.0
 44
0.0
 45
0.0
 49
13.0
 74
     4
 75
     0
340
0
 46
0.0
 50
0.0
 44
0.0
 45
0.0
 49
-13.0
 74
     4
 75
     0
340
0
 46
0.0
 50
0.0
 44
0.0
 45
0.0
  0
ENDTAB
  0
TABLE
  2
LAYER
  5
2
330
0
100
AcDbSymbolTable
 70
     5
  0
LAYER
  5
10
330
2
100
AcDbSymbolTableRecord
100
AcDbLayerTableRecord
  2
0
 70
     0
 62
     7
  6
CONTINUOUS
  0
LAYER
  5
46
330
2
100
AcDbSymbolTableRecord
100
AcDbLayerTableRecord
  2
1
 70
     0
 62
     7
  6
CONTINUOUS
  0
LAYER
  5
E8
330
2
100
AcDbSymbolTableRecord
100
AcDbLayerTableRecord
  2
255
 70
     0
 62
     7
  6
CONTINUOUS
  0
LAYER
  5
193
330
2
100
AcDbSymbolTableRecord
100
AcDbLayerTableRecord
  2
256
 70
     0
 62
     7
  6
CONTINUOUS
  0
LAYER
  5
20D
330
2
100
AcDbSymbolTableRecord
100
AcDbLayerTableRecord
  2
TOP
 70
     0
 62
     7
  6
CONTINUOUS
  0
ENDTAB
  0
TABLE
  2
STYLE
  5
3
330
0
100
AcDbSymbolTable
 70
     4
  0
STYLE
  5
11
330
3
100
AcDbSymbolTableRecord
100
AcDbTextStyleTableRecord
  2
STANDARD
 70
     0
 40
0.0
 41
1.0
 50
0.0
 71
     0
 42
0.2
  3
txt
  4

  0
STYLE
  5
20B
330
3
100
AcDbSymbolTableRecord
100
AcDbTextStyleTableRecord
  2
DEFAULT
 70
     0
 40
0.0
 41
1.0
 50
0.0
 71
     0
 42
0.2
  3
simplex.shx
  4

  0
STYLE
  5
20C
330
3
100
AcDbSymbolTableRecord
100
AcDbTextStyleTableRecord
  2
DWGDIRECTTEXTSTYLE
 70
     0
 40
0.0
 41
1.0
 50
0.0
 71
     0
 42
0.2
  3
SIMPLEX
  4
bigfont
  0
STYLE
  5
21B
330
3
100
AcDbSymbolTableRecord
100
AcDbTextStyleTableRecord
  2
BLOCKFONT
 70
     0
 40
0.0
 41
1.0
 50
0.0
 71
     0
 42
0.2
  3
simplex.shx
  4

  0
ENDTAB
  0
TABLE
  2
VIEW
  5
6
330
0
100
AcDbSymbolTable
 70
     0
  0
ENDTAB
  0
TABLE
  2
UCS
  5
7
330
0
100
AcDbSymbolTable
 70
     0
  0
ENDTAB
  0
TABLE
  2
APPID
  5
9
330
0
100
AcDbSymbolTable
 70
     1
  0
APPID
  5
12
330
9
100
AcDbSymbolTableRecord
100
AcDbRegAppTableRecord
  2
ACAD
 70
     0
  0
ENDTAB
  0
TABLE
  2
DIMSTYLE
  5
A
330
0
100
AcDbSymbolTable
 70
     1
  0
DIMSTYLE
105
27
102
{ACAD_REACTORS
330
27B
330
285
330
2AC
330
2B6
330
2BF
330
2C9
330
2D3
102
}
330
A
100
AcDbSymbolTableRecord
100
AcDbDimStyleTableRecord
  2
STANDARD
 70
     0
  3

  4

  5

  6

  7

 40
1.0
 41
0.18
 42
0.0625
 43
0.38
 44
0.18
 45
0.0
 46
0.0
 47
0.0
 48
0.0
140
0.18
141
0.09
142
0.0
143
25.4
144
1.0
145
0.0
146
1.0
147
0.09
 71
     0
 72
     0
 73
     1
 74
     1
 75
     0
 76
     0
 77
     0
 78
     0
170
     0
171
     2
172
     0
173
     0
174
     0
175
     0
176
     0
177
     0
178
     0
270
     2
271
     4
272
     4
273
     2
274
     2
340
11
275
     0
280
     0
281
     0
282
     0
283
     1
284
     0
285
     0
286
     0
287
     3
288
     0
  0
ENDTAB
  0
TABLE
  2
BLOCK_RECORD
  5
1
330
0
100
AcDbSymbolTable
 70
    11
  0
BLOCK_RECORD
  5
1F
330
1
100
AcDbSymbolTableRecord
100
AcDbBlockTableRecord
  2
*MODEL_SPACE
  0
BLOCK_RECORD
  5
1B
330
1
100
AcDbSymbolTableRecord
100
AcDbBlockTableRecord
  2
*PAPER_SPACE
  0
BLOCK_RECORD
  5
272
330
1
100
AcDbSymbolTableRecord
100
AcDbBlockTableRecord
  2
DIMNDRAFT3D1
  0
BLOCK_RECORD
  5
27C
330
1
100
AcDbSymbolTableRecord
100
AcDbBlockTableRecord
  2
DIMNDRAFT3D2
  0
BLOCK_RECORD
  5
286
330
1
100
AcDbSymbolTableRecord
100
AcDbBlockTableRecord
  2
DIMNDRAFT3D33
  0
BLOCK_RECORD
  5
290
330
1
100
AcDbSymbolTableRecord
100
AcDbBlockTableRecord
  2
DIMNDRAFT3D44
  0
BLOCK_RECORD
  5
29A
330
1
100
AcDbSymbolTableRecord
100
AcDbBlockTableRecord
  2
DIMNDRAFT3D55
  0
BLOCK_RECORD
  5
2A4
330
1
100
AcDbSymbolTableRecord
100
AcDbBlockTableRecord
  2
DIMNDRAFT3D6
  0
BLOCK_RECORD
  5
2AD
330
1
100
AcDbSymbolTableRecord
100
AcDbBlockTableRecord
  2
DIMNDRAFT3D7
  0
BLOCK_RECORD
  5
2B7
330
1
100
AcDbSymbolTableRecord
100
AcDbBlockTableRecord
  2
DIMNDRAFT3D8
  0
BLOCK_RECORD
  5
2C0
330
1
100
AcDbSymbolTableRecord
100
AcDbBlockTableRecord
  2
DIMNDRAFT3D9
  0
BLOCK_RECORD
  5
2CA
330
1
100
AcDbSymbolTableRecord
100
AcDbBlockTableRecord
  2
DIMNDRAFT3D10
  0
ENDTAB
  0
ENDSEC
  0
SECTION
  2
BLOCKS
  0
BLOCK
  5
20
330
1F
100
AcDbEntity
  8
0
100
AcDbBlockBegin
  2
*MODEL_SPACE
 70
     0
 10
0.0
 20
0.0
 30
0.0
  3
*MODEL_SPACE
  1

  0
ENDBLK
  5
21
330
1F
100
AcDbEntity
  8
0
100
AcDbBlockEnd
  0
BLOCK
  5
1C
330
1B
100
AcDbEntity
 67
     1
  8
0
100
AcDbBlockBegin
  2
*PAPER_SPACE
 70
     0
 10
0.0
 20
0.0
 30
0.0
  3
*PAPER_SPACE
  1

  0
ENDBLK
  5
1D
330
1B
100
AcDbEntity
 67
     1
  8
0
100
AcDbBlockEnd
  0
BLOCK
  5
279
330
272
100
AcDbEntity
  8
0
100
AcDbBlockBegin
  2
DIMNDRAFT3D1
 70
     0
 10
0.0
 20
0.0
 30
0.0
  3
DIMNDRAFT3D1
  1

  0
MTEXT
  5
273
330
272
100
AcDbEntity
  8
255
  6
CONTINUOUS
 62
     3
100
AcDbMText
 10
211.040731
 20
210.822979
 30
0.0
 40
3.5
 41
0.0
 71
     7
 72
     5
  1
\W01.000;\W00.842;10 
  7
DEFAULT
 11
6.123031769111886E-17
 21
1.0
 31
0.0
1001
ACAD
1000
MTEXTBEGIN
1070
    73
1070
     2
1070
    44
1040
0.903614
1000
MTEXTEND
1000
ACAD_MTEXT_DEFINED_HEIGHT_BEGIN
1070
    46
1040
0.2
1000
ACAD_MTEXT_DEFINED_HEIGHT_END
  0
LINE
  5
274
330
272
100
AcDbEntity
  8
255
  6
CONTINUOUS
 62
     3
100
AcDbLine
 10
234.670187
 20
202.059893
 30
0.0
 11
209.624634
 21
202.059893
 31
0.0
  0
LINE
  5
275
330
272
100
AcDbEntity
  8
255
  6
CONTINUOUS
 62
     3
100
AcDbLine
 10
231.270187
 20
192.059893
 30
0.0
 11
209.624634
 21
192.059893
 31
0.0
  0
LINE
  5
276
330
272
100
AcDbEntity
  8
255
  6
CONTINUOUS
 62
     3
100
AcDbLine
 10
211.624634
 20
183.309893
 30
0.0
 11
211.624634
 21
215.188865
 31
0.0
  0
SOLID
  5
277
330
272
100
AcDbEntity
  8
255
  6
CONTINUOUS
 62
     3
100
AcDbTrace
 10
211.624634
 20
202.059893
 30
0.0
 11
210.686812
 21
205.559889
 31
0.0
 12
212.562457
 22
205.559896
 32
0.0
 13
211.624634
 23
202.059893
 33
0.0
  0
SOLID
  5
278
330
272
100
AcDbEntity
  8
255
  6
CONTINUOUS
 62
     3
100
AcDbTrace
 10
211.624634
 20
192.059893
 30
0.0
 11
212.562457
 21
188.559896
 31
0.0
 12
210.686812
 22
188.559889
 32
0.0
 13
211.624634
 23
192.059893
 33
0.0
  0
ENDBLK
  5
27A
330
272
100
AcDbEntity
  8
0
100
AcDbBlockEnd
  0
BLOCK
  5
283
330
27C
100
AcDbEntity
  8
0
100
AcDbBlockBegin
  2
DIMNDRAFT3D2
 70
     0
 10
0.0
 20
0.0
 30
0.0
  3
DIMNDRAFT3D2
  1

  0
MTEXT
  5
27D
330
27C
100
AcDbEntity
  8
255
  6
CONTINUOUS
 62
     3
100
AcDbMText
 10
95.320268
 20
169.055636
 30
0.0
 40
3.5
 41
0.0
 71
     7
 72
     5
  1
\W01.000;\W00.798;98,6 
  7
DEFAULT
1001
ACAD
1000
MTEXTBEGIN
1070
    73
1070
     2
1070
    44
1040
0.903614
1000
MTEXTEND
1000
ACAD_MTEXT_DEFINED_HEIGHT_BEGIN
1070
    46
1040
0.2
1000
ACAD_MTEXT_DEFINED_HEIGHT_END
  0
LINE
  5
27E
330
27C
100
AcDbEntity
  8
255
  6
CONTINUOUS
 62
     3
100
AcDbLine
 10
148.223941
 20
215.62437
 30
0.0
 11
148.223941
 21
166.471733
 31
0.0
  0
LINE
  5
27F
330
27C
100
AcDbEntity
  8
255
  6
CONTINUOUS
 62
     3
100
AcDbLine
 10
49.631358
 20
223.565322
 30
0.0
 11
49.631358
 21
166.471733
 31
0.0
  0
LINE
  5
280
330
27C
100
AcDbEntity
  8
255
  6
CONTINUOUS
 62
     3
100
AcDbLine
 10
148.223941
 20
168.471733
 30
0.0
 11
49.631358
 21
168.471733
 31
0.0
  0
SOLID
  5
281
330
27C
100
AcDbEntity
  8
255
  6
CONTINUOUS
 62
     3
100
AcDbTrace
 10
148.223941
 20
168.471733
 30
0.0
 11
144.723944
 21
167.533911
 31
0.0
 12
144.723937
 22
169.409555
 32
0.0
 13
148.223941
 23
168.471733
 33
0.0
  0
SOLID
  5
282
330
27C
100
AcDbEntity
  8
255
  6
CONTINUOUS
 62
     3
100
AcDbTrace
 10
49.631358
 20
168.471733
 30
0.0
 11
53.131354
 21
169.409555
 31
0.0
 12
53.131361
 22
167.533911
 32
0.0
 13
49.631358
 23
168.471733
 33
0.0
  0
ENDBLK
  5
284
330
27C
100
AcDbEntity
  8
0
100
AcDbBlockEnd
  0
BLOCK
  5
287
330
286
100
AcDbEntity
  8
0
100
AcDbBlockBegin
  2
DIMNDRAFT3D33
 70
     0
 10
0.0
 20
0.0
 30
0.0
  3
DIMNDRAFT3D33
  1

  0
LINE
  5
289
330
286
100
AcDbEntity
  8
255
  6
CONTINUOUS
 62
     3
100
AcDbLine
 10
148.223941
 20
114.621879
 30
0.0
 11
170.76378
 21
114.621879
 31
0.0
  0
LINE
  5
28A
330
286
100
AcDbEntity
  8
255
  6
CONTINUOUS
 62
     3
100
AcDbLine
 10
148.223941
 20
113.121879
 30
0.0
 11
170.76378
 21
113.121879
 31
0.0
  0
LINE
  5
28B
330
286
100
AcDbEntity
  8
255
  6
CONTINUOUS
 62
     3
100
AcDbLine
 10
168.76378
 20
104.371879
 30
0.0
 11
168.76378
 21
129.345354
 31
0.0
  0
SOLID
  5
28C
330
286
100
AcDbEntity
  8
255
  6
CONTINUOUS
 62
     3
100
AcDbTrace
 10
168.76378
 20
114.621879
 30
0.0
 11
167.825958
 21
118.121875
 31
0.0
 12
169.701602
 22
118.121882
 32
0.0
 13
168.76378
 23
114.621879
 33
0.0
  0
SOLID
  5
28D
330
286
100
AcDbEntity
  8
255
  6
CONTINUOUS
 62
     3
100
AcDbTrace
 10
168.76378
 20
113.121879
 30
0.0
 11
169.701602
 21
109.621882
 31
0.0
 12
167.825958
 22
109.621875
 32
0.0
 13
168.76378
 23
113.121879
 33
0.0
  0
MTEXT
  5
28E
330
286
100
AcDbEntity
  8
255
  6
CONTINUOUS
 62
     3
100
AcDbMText
 10
168.179877
 20
123.829322
 30
0.0
 40
3.5
 41
0.0
 71
     7
 72
     5
  1
\W00.810;1,5 
  7
DEFAULT
 11
6.123031769111886E-17
 21
1.0
 31
0.0
1001
ACAD
1000
MTEXTBEGIN
1070
    73
1070
     2
1070
    44
1040
0.903614
1000
MTEXTEND
1000
ACAD_MTEXT_DEFINED_HEIGHT_BEGIN
1070
    46
1040
0.2
1000
ACAD_MTEXT_DEFINED_HEIGHT_END
  0
ENDBLK
  5
288
330
286
100
AcDbEntity
  8
0
100
AcDbBlockEnd
  0
BLOCK
  5
291
330
290
100
AcDbEntity
  8
0
100
AcDbBlockBegin
  2
DIMNDRAFT3D44
 70
     0
 10
0.0
 20
0.0
 30
0.0
  3
DIMNDRAFT3D44
  1

  0
LINE
  5
293
330
290
100
AcDbEntity
  8
255
  6
CONTINUOUS
 62
     3
100
AcDbLine
 10
171.339233
 20
231.316018
 30
0.0
 11
171.339233
 21
250.189613
 31
0.0
  0
LINE
  5
294
330
290
100
AcDbEntity
  8
255
  6
CONTINUOUS
 62
     3
100
AcDbLine
 10
196.339233
 20
241.506274
 30
0.0
 11
196.339233
 21
250.189613
 31
0.0
  0
LINE
  5
295
330
290
100
AcDbEntity
  8
255
  6
CONTINUOUS
 62
     3
100
AcDbLine
 10
171.339233
 20
248.189613
 30
0.0
 11
196.339233
 21
248.189613
 31
0.0
  0
SOLID
  5
296
330
290
100
AcDbEntity
  8
255
  6
CONTINUOUS
 62
     3
100
AcDbTrace
 10
171.339233
 20
248.189613
 30
0.0
 11
174.839229
 21
249.127435
 31
0.0
 12
174.839236
 22
247.251791
 32
0.0
 13
171.339233
 23
248.189613
 33
0.0
  0
SOLID
  5
297
330
290
100
AcDbEntity
  8
255
  6
CONTINUOUS
 62
     3
100
AcDbTrace
 10
196.339233
 20
248.189613
 30
0.0
 11
192.839236
 21
247.251791
 31
0.0
 12
192.839229
 22
249.127435
 32
0.0
 13
196.339233
 23
248.189613
 33
0.0
  0
MTEXT
  5
298
330
290
100
AcDbEntity
  8
255
  6
CONTINUOUS
 62
     3
100
AcDbMText
 10
181.492175
 20
248.773516
 30
0.0
 40
3.5
 41
0.0
 71
     7
 72
     5
  1
\W00.842;25 
  7
DEFAULT
1001
ACAD
1000
MTEXTBEGIN
1070
    73
1070
     2
1070
    44
1040
0.903614
1000
MTEXTEND
1000
ACAD_MTEXT_DEFINED_HEIGHT_BEGIN
1070
    46
1040
0.2
1000
ACAD_MTEXT_DEFINED_HEIGHT_END
  0
ENDBLK
  5
292
330
290
100
AcDbEntity
  8
0
100
AcDbBlockEnd
  0
BLOCK
  5
29B
330
29A
100
AcDbEntity
  8
0
100
AcDbBlockBegin
  2
DIMNDRAFT3D55
 70
     0
 10
0.0
 20
0.0
 30
0.0
  3
DIMNDRAFT3D55
  1

  0
LINE
  5
29D
330
29A
100
AcDbEntity
  8
255
  6
CONTINUOUS
 62
     3
100
AcDbLine
 10
234.670187
 20
192.059893
 30
0.0
 11
234.670187
 21
156.721058
 31
0.0
  0
LINE
  5
29E
330
29A
100
AcDbEntity
  8
255
  6
CONTINUOUS
 62
     3
100
AcDbLine
 10
260.733129
 20
184.118941
 30
0.0
 11
260.733129
 21
156.721058
 31
0.0
  0
LINE
  5
29F
330
29A
100
AcDbEntity
  8
255
  6
CONTINUOUS
 62
     3
100
AcDbLine
 10
234.670187
 20
158.721058
 30
0.0
 11
260.733129
 21
158.721058
 31
0.0
  0
SOLID
  5
2A0
330
29A
100
AcDbEntity
  8
255
  6
CONTINUOUS
 62
     3
100
AcDbTrace
 10
234.670187
 20
158.721058
 30
0.0
 11
238.170183
 21
159.65888
 31
0.0
 12
238.17019
 22
157.783236
 32
0.0
 13
234.670187
 23
158.721058
 33
0.0
  0
SOLID
  5
2A1
330
29A
100
AcDbEntity
  8
255
  6
CONTINUOUS
 62
     3
100
AcDbTrace
 10
260.733129
 20
158.721058
 30
0.0
 11
257.233133
 21
157.783236
 31
0.0
 12
257.233126
 22
159.65888
 32
0.0
 13
260.733129
 23
158.721058
 33
0.0
  0
MTEXT
  5
2A2
330
29A
100
AcDbEntity
  8
255
  6
CONTINUOUS
 62
     3
100
AcDbMText
 10
244.070921
 20
159.304961
 30
0.0
 40
3.5
 41
0.0
 71
     7
 72
     5
  1
\W00.882;26,1 
  7
DEFAULT
1001
ACAD
1000
MTEXTBEGIN
1070
    73
1070
     2
1070
    44
1040
0.903614
1000
MTEXTEND
1000
ACAD_MTEXT_DEFINED_HEIGHT_BEGIN
1070
    46
1040
0.2
1000
ACAD_MTEXT_DEFINED_HEIGHT_END
  0
ENDBLK
  5
29C
330
29A
100
AcDbEntity
  8
0
100
AcDbBlockEnd
  0
BLOCK
  5
2AA
330
2A4
100
AcDbEntity
  8
0
100
AcDbBlockBegin
  2
DIMNDRAFT3D6
 70
     0
 10
0.0
 20
0.0
 30
0.0
  3
DIMNDRAFT3D6
  1

  0
MTEXT
  5
2A5
330
2A4
100
AcDbEntity
  8
255
  6
CONTINUOUS
 62
     3
100
AcDbMText
 10
311.233234
 20
254.056009
 30
0.0
 40
3.5
 41
0.0
 71
     7
 72
     5
  1
\W01.000;\W00.810;3,3 
  7
DEFAULT
 11
0.9894892620373574
 21
0.1446063633204496
 31
0.0
1001
ACAD
1000
MTEXTBEGIN
1070
    73
1070
     2
1070
    44
1040
0.903614
1000
MTEXTEND
1000
ACAD_MTEXT_DEFINED_HEIGHT_BEGIN
1070
    46
1040
0.2
1000
ACAD_MTEXT_DEFINED_HEIGHT_END
  0
MTEXT
  5
2A6
330
2A4
100
AcDbEntity
  8
255
  6
CONTINUOUS
 62
     3
100
AcDbMText
 10
304.306809
 20
253.043764
 30
0.0
 40
3.5
 41
0.0
 71
     7
 72
     5
  1
\W01.000;%%c 
  7
DEFAULT
 11
0.9894892620373574
 21
0.1446063633204496
 31
0.0
1001
ACAD
1000
MTEXTBEGIN
1070
    73
1070
     2
1070
    44
1040
0.903614
1000
MTEXTEND
1000
ACAD_MTEXT_DEFINED_HEIGHT_BEGIN
1070
    46
1040
0.2
1000
ACAD_MTEXT_DEFINED_HEIGHT_END
  0
LINE
  5
2A7
330
2A4
100
AcDbEntity
  8
255
  6
CONTINUOUS
 62
     3
100
AcDbLine
 10
303.651972
 20
251.473665
 30
0.0
 11
354.51998
 21
258.907639
 31
0.0
  0
SOLID
  5
2A8
330
2A4
100
AcDbEntity
  8
255
  6
CONTINUOUS
 62
     3
100
AcDbTrace
 10
345.861949
 20
257.642333
 30
0.0
 11
349.189543
 21
259.07642
 31
0.0
 12
349.46078
 22
257.220491
 32
0.0
 13
345.861949
 23
257.642333
 33
0.0
  0
SOLID
  5
2A9
330
2A4
100
AcDbEntity
  8
255
  6
CONTINUOUS
 62
     3
100
AcDbTrace
 10
342.596634
 20
257.165132
 30
0.0
 11
339.26904
 21
255.731045
 31
0.0
 12
338.997803
 22
257.586974
 32
0.0
 13
342.596634
 23
257.165132
 33
0.0
  0
ENDBLK
  5
2AB
330
2A4
100
AcDbEntity
  8
0
100
AcDbBlockEnd
  0
BLOCK
  5
2B4
330
2AD
100
AcDbEntity
  8
0
100
AcDbBlockBegin
  2
DIMNDRAFT3D7
 70
     0
 10
0.0
 20
0.0
 30
0.0
  3
DIMNDRAFT3D7
  1

  0
MTEXT
  5
2AE
330
2AD
100
AcDbEntity
  8
255
  6
CONTINUOUS
 62
     3
100
AcDbMText
 10
292.034316
 20
195.191394
 30
0.0
 40
3.5
 41
0.0
 71
     7
 72
     5
  1
\W01.000;\W00.842;87 
  7
DEFAULT
 11
0.9264325584280753
 21
0.3764607744299678
 31
0.0
1001
ACAD
1000
MTEXTBEGIN
1070
    73
1070
     2
1070
    44
1040
0.903614
1000
MTEXTEND
1000
ACAD_MTEXT_DEFINED_HEIGHT_BEGIN
1070
    46
1040
0.2
1000
ACAD_MTEXT_DEFINED_HEIGHT_END
  0
MTEXT
  5
2AF
330
2AD
100
AcDbEntity
  8
255
  6
CONTINUOUS
 62
     3
100
AcDbMText
 10
299.912662
 20
199.022149
 30
0.0
 40
3.5
 41
0.0
 71
     7
 72
     5
  1
\W01.000;\A1;\W00.795;\A1;\S+0,2^ -0,0; 
  7
DEFAULT
 11
0.9264325584280753
 21
0.3764607744299678
 31
0.0
1001
ACAD
1000
MTEXTBEGIN
1070
    73
1070
     2
1070
    44
1040
0.903614
1000
MTEXTEND
1000
ACAD_MTEXT_DEFINED_HEIGHT_BEGIN
1070
    46
1040
0.2
1000
ACAD_MTEXT_DEFINED_HEIGHT_END
  0
MTEXT
  5
2B0
330
2AD
100
AcDbEntity
  8
255
  6
CONTINUOUS
 62
     3
100
AcDbMText
 10
285.549288
 20
192.556168
 30
0.0
 40
3.5
 41
0.0
 71
     7
 72
     5
  1
\W01.000;%%c 
  7
DEFAULT
 11
0.9264325584280753
 21
0.3764607744299678
 31
0.0
1001
ACAD
1000
MTEXTBEGIN
1070
    73
1070
     2
1070
    44
1040
0.903614
1000
MTEXTEND
1000
ACAD_MTEXT_DEFINED_HEIGHT_BEGIN
1070
    46
1040
0.2
1000
ACAD_MTEXT_DEFINED_HEIGHT_END
  0
LINE
  5
2B1
330
2AD
100
AcDbEntity
  8
255
  6
CONTINUOUS
 62
     3
100
AcDbLine
 10
349.329237
 20
213.435937
 30
0.0
 11
268.729604
 21
180.683849
 31
0.0
  0
SOLID
  5
2B2
330
2AD
100
AcDbEntity
  8
255
  6
CONTINUOUS
 62
     3
100
AcDbTrace
 10
349.329237
 20
213.435937
 30
0.0
 11
346.439779
 21
211.249496
 31
0.0
 12
345.733666
 22
212.987152
 32
0.0
 13
349.329237
 23
213.435937
 33
0.0
  0
SOLID
  5
2B3
330
2AD
100
AcDbEntity
  8
255
  6
CONTINUOUS
 62
     3
100
AcDbTrace
 10
268.729604
 20
180.683849
 30
0.0
 11
271.619062
 21
182.87029
 31
0.0
 12
272.325175
 22
181.132634
 32
0.0
 13
268.729604
 23
180.683849
 33
0.0
  0
ENDBLK
  5
2B5
330
2AD
100
AcDbEntity
  8
0
100
AcDbBlockEnd
  0
BLOCK
  5
2BD
330
2B7
100
AcDbEntity
  8
0
100
AcDbBlockBegin
  2
DIMNDRAFT3D8
 70
     0
 10
0.0
 20
0.0
 30
0.0
  3
DIMNDRAFT3D8
  1

  0
MTEXT
  5
2B8
330
2B7
100
AcDbEntity
  8
255
  6
CONTINUOUS
 62
     3
100
AcDbMText
 10
248.318267
 20
214.772336
 30
0.0
 40
3.5
 41
0.0
 71
     7
 72
     5
  1
\W01.000;\W00.919;90%%d 
  7
DEFAULT
 11
0.8098667001345932
 21
0.5866139514306705
 31
0.0
1001
ACAD
1000
MTEXTBEGIN
1070
    73
1070
     2
1070
    44
1040
0.903614
1000
MTEXTEND
1000
ACAD_MTEXT_DEFINED_HEIGHT_BEGIN
1070
    46
1040
0.2
1000
ACAD_MTEXT_DEFINED_HEIGHT_END
  0
LINE
  5
2B9
330
2B7
100
AcDbEntity
  8
255
  6
CONTINUOUS
 62
     3
100
AcDbLine
 10
260.733129
 20
210.000845
 30
0.0
 11
260.733129
 21
221.054105
 31
0.0
  0
ARC
  5
2BA
330
2B7
100
AcDbEntity
  8
255
  6
CONTINUOUS
 62
     3
100
AcDbCircle
 10
260.733129
 20
202.059893
 30
0.0
 40
16.99421248745659
100
AcDbArc
 50
90.0
 51
180.0
  0
SOLID
  5
2BB
330
2B7
100
AcDbEntity
  8
255
  6
CONTINUOUS
 62
     3
100
AcDbTrace
 10
260.733129
 20
219.054105
 30
0.0
 11
257.285834
 21
217.938021
 31
0.0
 12
257.189635
 22
219.811197
 32
0.0
 13
260.733129
 23
219.054105
 33
0.0
  0
SOLID
  5
2BC
330
2B7
100
AcDbEntity
  8
255
  6
CONTINUOUS
 62
     3
100
AcDbTrace
 10
243.738917
 20
202.059893
 30
0.0
 11
242.981825
 21
205.60338
 31
0.0
 12
244.855002
 22
205.507195
 32
0.0
 13
243.738917
 23
202.059893
 33
0.0
  0
ENDBLK
  5
2BE
330
2B7
100
AcDbEntity
  8
0
100
AcDbBlockEnd
  0
BLOCK
  5
2C7
330
2C0
100
AcDbEntity
  8
0
100
AcDbBlockBegin
  2
DIMNDRAFT3D9
 70
     0
 10
0.0
 20
0.0
 30
0.0
  3
DIMNDRAFT3D9
  1

  0
MTEXT
  5
2C1
330
2C0
100
AcDbEntity
  8
255
  6
CONTINUOUS
 62
     3
100
AcDbMText
 10
246.818445
 20
181.818044
 30
0.0
 40
3.5
 41
0.0
 71
     7
 72
     5
  1
\W01.000;\W00.919;90%%d 
  7
DEFAULT
 11
0.7071067811865468
 21
-0.7071067811865483
 31
0.0
1001
ACAD
1000
MTEXTBEGIN
1070
    73
1070
     2
1070
    44
1040
0.903614
1000
MTEXTEND
1000
ACAD_MTEXT_DEFINED_HEIGHT_BEGIN
1070
    46
1040
0.2
1000
ACAD_MTEXT_DEFINED_HEIGHT_END
  0
LINE
  5
2C2
330
2C0
100
AcDbEntity
  8
255
  6
CONTINUOUS
 62
     3
100
AcDbLine
 10
232.670187
 20
192.059893
 30
0.0
 11
245.067978
 21
192.059893
 31
0.0
  0
LINE
  5
2C3
330
2C0
100
AcDbEntity
  8
255
  6
CONTINUOUS
 62
     3
100
AcDbLine
 10
260.733129
 20
184.118941
 30
0.0
 11
260.733129
 21
172.394742
 31
0.0
  0
ARC
  5
2C4
330
2C0
100
AcDbEntity
  8
255
  6
CONTINUOUS
 62
     3
100
AcDbCircle
 10
260.733129
 20
192.059893
 30
0.0
 40
17.665151005567
100
AcDbArc
 50
180.0
 51
270.0
  0
SOLID
  5
2C5
330
2C0
100
AcDbEntity
  8
255
  6
CONTINUOUS
 62
     3
100
AcDbTrace
 10
243.067978
 20
192.059893
 30
0.0
 11
244.177387
 21
188.610444
 31
0.0
 12
242.304029
 22
188.517871
 32
0.0
 13
243.067978
 23
192.059893
 33
0.0
  0
SOLID
  5
2C6
330
2C0
100
AcDbEntity
  8
255
  6
CONTINUOUS
 62
     3
100
AcDbTrace
 10
260.733129
 20
174.394742
 30
0.0
 11
257.191115
 21
173.630792
 31
0.0
 12
257.283673
 22
175.504151
 32
0.0
 13
260.733129
 23
174.394742
 33
0.0
  0
ENDBLK
  5
2C8
330
2C0
100
AcDbEntity
  8
0
100
AcDbBlockEnd
  0
BLOCK
  5
2D1
330
2CA
100
AcDbEntity
  8
0
100
AcDbBlockBegin
  2
DIMNDRAFT3D10
 70
     0
 10
0.0
 20
0.0
 30
0.0
  3
DIMNDRAFT3D10
  1

  0
MTEXT
  5
2CB
330
2CA
100
AcDbEntity
  8
255
  6
CONTINUOUS
 62
     3
100
AcDbMText
 10
70.935753
 20
138.099109
 30
0.0
 40
3.5
 41
0.0
 71
     7
 72
     5
  1
\W01.000;\W00.919;90%%d 
  7
DEFAULT
 11
0.7071067811865474
 21
-0.7071067811865477
 31
0.0
1001
ACAD
1000
MTEXTBEGIN
1070
    73
1070
     2
1070
    44
1040
0.903614
1000
MTEXTEND
1000
ACAD_MTEXT_DEFINED_HEIGHT_BEGIN
1070
    46
1040
0.2
1000
ACAD_MTEXT_DEFINED_HEIGHT_END
  0
LINE
  5
2CC
330
2CA
100
AcDbEntity
  8
255
  6
CONTINUOUS
 62
     3
100
AcDbLine
 10
86.986697
 20
114.621879
 30
0.0
 11
79.152186
 21
114.621879
 31
0.0
  0
LINE
  5
2CD
330
2CA
100
AcDbEntity
  8
255
  6
CONTINUOUS
 62
     3
100
AcDbLine
 10
51.131358
 20
143.021879
 30
0.0
 11
51.131358
 21
142.642707
 31
0.0
  0
ARC
  5
2CE
330
2CA
100
AcDbEntity
  8
255
  6
CONTINUOUS
 62
     3
100
AcDbCircle
 10
51.131358
 20
114.621879
 30
0.0
 40
30.0208277593618
100
AcDbArc
 50
0.0
 51
90.0
  0
SOLID
  5
2CF
330
2CA
100
AcDbEntity
  8
255
  6
CONTINUOUS
 62
     3
100
AcDbTrace
 10
81.152186
 20
114.621879
 30
0.0
 11
80.112878
 21
118.093093
 31
0.0
 12
81.987728
 22
118.147698
 32
0.0
 13
81.152186
 23
114.621879
 33
0.0
  0
SOLID
  5
2D0
330
2CA
100
AcDbEntity
  8
255
  6
CONTINUOUS
 62
     3
100
AcDbTrace
 10
51.131358
 20
144.642707
 30
0.0
 11
54.657171
 21
145.478249
 31
0.0
 12
54.602579
 22
143.603399
 32
0.0
 13
51.131358
 23
144.642707
 33
0.0
  0
ENDBLK
  5
2D2
330
2CA
100
AcDbEntity
  8
0
100
AcDbBlockEnd
  0
ENDSEC
  0
SECTION
  2
ENTITIES
  0
LINE
  5
45
330
1F
100
AcDbEntity
  8
1
  6
CONTINUOUS
 62
     2
100
AcDbLine
 10
51.631358
 20
223.565322
 30
0.0
 11
51.631358
 21
215.62437
 31
0.0
  0
LINE
  5
47
330
1F
100
AcDbEntity
  8
1
  6
CONTINUOUS
 62
     2
100
AcDbLine
 10
148.223941
 20
215.62437
 30
0.0
 11
148.223941
 21
241.506274
 31
0.0
  0
LINE
  5
48
330
1F
100
AcDbEntity
  8
1
  6
CONTINUOUS
 62
     2
100
AcDbLine
 10
112.868601
 20
276.861613
 30
0.0
 11
86.986697
 21
276.861613
 31
0.0
  0
LINE
  5
49
330
1F
100
AcDbEntity
  8
1
  6
CONTINUOUS
 62
     2
100
AcDbLine
 10
86.986697
 20
180.26903
 30
0.0
 11
112.868601
 21
180.26903
 31
0.0
  0
LINE
  5
4A
330
1F
100
AcDbEntity
  8
1
  6
CONTINUOUS
 62
     2
100
AcDbLine
 10
51.631358
 20
233.565322
 30
0.0
 11
51.631358
 21
223.565322
 31
0.0
  0
LINE
  5
4B
330
1F
100
AcDbEntity
  8
1
  6
CONTINUOUS
 62
     2
100
AcDbLine
 10
119.745668
 20
272.891137
 30
0.0
 11
120.745668
 21
274.623188
 31
0.0
  0
LINE
  5
4C
330
1F
100
AcDbEntity
  8
1
  6
CONTINUOUS
 62
     2
100
AcDbLine
 10
129.405922
 20
269.623188
 30
0.0
 11
128.405922
 21
267.891137
 31
0.0
  0
LINE
  5
4D
330
1F
100
AcDbEntity
  8
1
  6
CONTINUOUS
 62
     2
100
AcDbLine
 10
51.631358
 20
223.565322
 30
0.0
 11
49.631358
 21
223.565322
 31
0.0
  0
LINE
  5
4E
330
1F
100
AcDbEntity
  8
1
  6
CONTINUOUS
 62
     2
100
AcDbLine
 10
49.631358
 20
223.565322
 30
0.0
 11
49.631358
 21
233.565322
 31
0.0
  0
LINE
  5
4F
330
1F
100
AcDbEntity
  8
1
  6
CONTINUOUS
 62
     2
100
AcDbLine
 10
49.631358
 20
233.565322
 30
0.0
 11
51.631358
 21
233.565322
 31
0.0
  0
LINE
  5
50
330
1F
100
AcDbEntity
  8
1
  6
CONTINUOUS
 62
     2
100
AcDbLine
 10
128.405922
 20
267.891137
 30
0.0
 11
119.745668
 21
272.891137
 31
0.0
  0
LINE
  5
51
330
1F
100
AcDbEntity
  8
1
  6
CONTINUOUS
 62
     2
100
AcDbLine
 10
148.223941
 20
241.506274
 30
0.0
 11
135.282988
 21
263.920661
 31
0.0
  0
LINE
  5
52
330
1F
100
AcDbEntity
  8
1
  6
CONTINUOUS
 62
     2
100
AcDbLine
 10
51.631358
 20
215.62437
 30
0.0
 11
64.57231
 21
193.209983
 31
0.0
  0
LINE
  5
53
330
1F
100
AcDbEntity
  8
1
  6
CONTINUOUS
 62
     2
100
AcDbLine
 10
51.631358
 20
241.506274
 30
0.0
 11
51.631358
 21
233.565322
 31
0.0
  0
LINE
  5
54
330
1F
100
AcDbEntity
  8
1
  6
CONTINUOUS
 62
     2
100
AcDbLine
 10
112.868601
 20
180.26903
 30
0.0
 11
119.745668
 21
184.239507
 31
0.0
  0
LINE
  5
55
330
1F
100
AcDbEntity
  8
1
  6
CONTINUOUS
 62
     2
100
AcDbLine
 10
119.745668
 20
184.239507
 30
0.0
 11
128.405922
 21
189.239507
 31
0.0
  0
LINE
  5
56
330
1F
100
AcDbEntity
  8
1
  6
CONTINUOUS
 62
     2
100
AcDbLine
 10
128.405922
 20
189.239507
 30
0.0
 11
135.282988
 21
193.209983
 31
0.0
  0
LINE
  5
57
330
1F
100
AcDbEntity
  8
1
  6
CONTINUOUS
 62
     2
100
AcDbLine
 10
64.57231
 20
193.209983
 30
0.0
 11
86.986697
 21
180.26903
 31
0.0
  0
LINE
  5
58
330
1F
100
AcDbEntity
  8
1
  6
CONTINUOUS
 62
     2
100
AcDbLine
 10
119.745668
 20
272.891137
 30
0.0
 11
112.868601
 21
276.861613
 31
0.0
  0
LINE
  5
59
330
1F
100
AcDbEntity
  8
1
  6
CONTINUOUS
 62
     2
100
AcDbLine
 10
64.57231
 20
263.920661
 30
0.0
 11
51.631358
 21
241.506274
 31
0.0
  0
LINE
  5
5A
330
1F
100
AcDbEntity
  8
1
  6
CONTINUOUS
 62
     2
100
AcDbLine
 10
135.282988
 20
263.920661
 30
0.0
 11
128.405922
 21
267.891137
 31
0.0
  0
LINE
  5
5B
330
1F
100
AcDbEntity
  8
1
  6
CONTINUOUS
 62
     2
100
AcDbLine
 10
120.745668
 20
182.507456
 30
0.0
 11
119.745668
 21
184.239507
 31
0.0
  0
LINE
  5
5C
330
1F
100
AcDbEntity
  8
1
  6
CONTINUOUS
 62
     2
100
AcDbLine
 10
135.282988
 20
193.209983
 30
0.0
 11
148.223941
 21
215.62437
 31
0.0
  0
LINE
  5
5D
330
1F
100
AcDbEntity
  8
1
  6
CONTINUOUS
 62
     2
100
AcDbLine
 10
120.745668
 20
274.623188
 30
0.0
 11
129.405922
 21
269.623188
 31
0.0
  0
LINE
  5
5E
330
1F
100
AcDbEntity
  8
1
  6
CONTINUOUS
 62
     2
100
AcDbLine
 10
129.405922
 20
187.507456
 30
0.0
 11
120.745668
 21
182.507456
 31
0.0
  0
LINE
  5
5F
330
1F
100
AcDbEntity
  8
1
  6
CONTINUOUS
 62
     2
100
AcDbLine
 10
86.986697
 20
276.861613
 30
0.0
 11
64.57231
 21
263.920661
 31
0.0
  0
LINE
  5
60
330
1F
100
AcDbEntity
  8
1
  6
CONTINUOUS
 62
     2
100
AcDbLine
 10
128.405922
 20
189.239507
 30
0.0
 11
129.405922
 21
187.507456
 31
0.0
  0
LINE
  5
61
330
1F
100
AcDbEntity
  8
1
  6
CONTINUOUS
 62
     2
100
AcDbLine
 10
49.631358
 20
139.621879
 30
0.0
 11
49.631358
 21
115.121879
 31
0.0
  0
LINE
  5
62
330
1F
100
AcDbEntity
  8
1
  6
CONTINUOUS
 62
     2
100
AcDbLine
 10
112.868601
 20
113.121879
 30
0.0
 11
86.986697
 21
113.121879
 31
0.0
  0
LINE
  5
63
330
1F
100
AcDbEntity
  8
1
  6
CONTINUOUS
 62
     2
100
AcDbLine
 10
128.405922
 20
113.121879
 30
0.0
 11
119.745668
 21
113.121879
 31
0.0
  0
LINE
  5
64
330
1F
100
AcDbEntity
  8
1
  6
CONTINUOUS
 62
     2
100
AcDbLine
 10
148.223941
 20
113.121879
 30
0.0
 11
135.282988
 21
113.121879
 31
0.0
  0
LINE
  5
65
330
1F
100
AcDbEntity
  8
1
  6
CONTINUOUS
 62
     2
100
AcDbLine
 10
119.745668
 20
113.121879
 30
0.0
 11
112.868601
 21
113.121879
 31
0.0
  0
LINE
  5
66
330
1F
100
AcDbEntity
  8
1
  6
CONTINUOUS
 62
     2
100
AcDbLine
 10
64.57231
 20
113.121879
 30
0.0
 11
51.631358
 21
113.121879
 31
0.0
  0
LINE
  5
67
330
1F
100
AcDbEntity
  8
1
  6
CONTINUOUS
 62
     2
100
AcDbLine
 10
135.282988
 20
113.121879
 30
0.0
 11
128.405922
 21
113.121879
 31
0.0
  0
LINE
  5
68
330
1F
100
AcDbEntity
  8
1
  6
CONTINUOUS
 62
     2
100
AcDbLine
 10
120.745668
 20
115.121879
 30
0.0
 11
129.405922
 21
115.121879
 31
0.0
  0
LINE
  5
69
330
1F
100
AcDbEntity
  8
1
  6
CONTINUOUS
 62
     2
100
AcDbLine
 10
86.986697
 20
113.121879
 30
0.0
 11
64.57231
 21
113.121879
 31
0.0
  0
LINE
  5
6A
330
1F
100
AcDbEntity
  8
1
  6
CONTINUOUS
 62
     2
100
AcDbLine
 10
119.745668
 20
114.621879
 30
0.0
 11
119.745668
 21
113.121879
 31
0.0
  0
LINE
  5
6B
330
1F
100
AcDbEntity
  8
1
  6
CONTINUOUS
 62
     2
100
AcDbLine
 10
148.223941
 20
113.121879
 30
0.0
 11
148.223941
 21
114.621879
 31
0.0
  0
LINE
  5
6C
330
1F
100
AcDbEntity
  8
1
  6
CONTINUOUS
 62
     2
100
AcDbLine
 10
112.868601
 20
113.121879
 30
0.0
 11
112.868601
 21
114.621879
 31
0.0
  0
LINE
  5
6D
330
1F
100
AcDbEntity
  8
1
  6
CONTINUOUS
 62
     2
100
AcDbLine
 10
51.631358
 20
113.121879
 30
0.0
 11
51.631358
 21
114.621879
 31
0.0
  0
LINE
  5
6E
330
1F
100
AcDbEntity
  8
1
  6
CONTINUOUS
 62
     2
100
AcDbLine
 10
64.57231
 20
113.121879
 30
0.0
 11
64.57231
 21
114.621879
 31
0.0
  0
LINE
  5
6F
330
1F
100
AcDbEntity
  8
1
  6
CONTINUOUS
 62
     2
100
AcDbLine
 10
86.986697
 20
113.121879
 30
0.0
 11
86.986697
 21
114.621879
 31
0.0
  0
LINE
  5
70
330
1F
100
AcDbEntity
  8
1
  6
CONTINUOUS
 62
     2
100
AcDbLine
 10
135.282988
 20
113.121879
 30
0.0
 11
135.282988
 21
114.621879
 31
0.0
  0
LINE
  5
71
330
1F
100
AcDbEntity
  8
1
  6
CONTINUOUS
 62
     2
100
AcDbLine
 10
129.374191
 20
114.621879
 30
0.0
 11
135.282988
 21
114.621879
 31
0.0
  0
LINE
  5
72
330
1F
100
AcDbEntity
  8
1
  6
CONTINUOUS
 62
     2
100
AcDbLine
 10
64.57231
 20
114.621879
 30
0.0
 11
86.986697
 21
114.621879
 31
0.0
  0
LINE
  5
73
330
1F
100
AcDbEntity
  8
1
  6
CONTINUOUS
 62
     2
100
AcDbLine
 10
51.631358
 20
114.621879
 30
0.0
 11
64.57231
 21
114.621879
 31
0.0
  0
LINE
  5
74
330
1F
100
AcDbEntity
  8
1
  6
CONTINUOUS
 62
     2
100
AcDbLine
 10
86.986697
 20
114.621879
 30
0.0
 11
112.868601
 21
114.621879
 31
0.0
  0
LINE
  5
75
330
1F
100
AcDbEntity
  8
1
  6
CONTINUOUS
 62
     2
100
AcDbLine
 10
135.282988
 20
114.621879
 30
0.0
 11
148.223941
 21
114.621879
 31
0.0
  0
LINE
  5
76
330
1F
100
AcDbEntity
  8
1
  6
CONTINUOUS
 62
     2
100
AcDbLine
 10
112.868601
 20
114.621879
 30
0.0
 11
119.745668
 21
114.621879
 31
0.0
  0
LINE
  5
77
330
1F
100
AcDbEntity
  8
1
  6
CONTINUOUS
 62
     2
100
AcDbLine
 10
49.631358
 20
143.021879
 30
0.0
 11
49.631358
 21
141.621879
 31
0.0
  0
LINE
  5
78
330
1F
100
AcDbEntity
  8
1
  6
CONTINUOUS
 62
     2
100
AcDbLine
 10
120.745668
 20
143.221879
 30
0.0
 11
120.745668
 21
141.621879
 31
0.0
  0
LINE
  5
79
330
1F
100
AcDbEntity
  8
1
  6
CONTINUOUS
 62
     2
100
AcDbLine
 10
129.405922
 20
141.621879
 30
0.0
 11
129.405922
 21
143.221879
 31
0.0
  0
LINE
  5
7A
330
1F
100
AcDbEntity
  8
1
  6
CONTINUOUS
 62
     2
100
AcDbLine
 10
119.995668
 20
143.221879
 30
0.0
 11
119.995668
 21
141.621879
 31
0.0
  0
LINE
  5
7B
330
1F
100
AcDbEntity
  8
1
  6
CONTINUOUS
 62
     2
100
AcDbLine
 10
51.131358
 20
143.021879
 30
0.0
 11
51.131358
 21
141.621879
 31
0.0
  0
LINE
  5
7C
330
1F
100
AcDbEntity
  8
1
  6
CONTINUOUS
 62
     2
100
AcDbLine
 10
128.539896
 20
153.221879
 30
0.0
 11
121.611693
 21
153.221879
 31
0.0
  0
LINE
  5
7D
330
1F
100
AcDbEntity
  8
1
  6
CONTINUOUS
 62
     2
100
AcDbLine
 10
120.745668
 20
139.621879
 30
0.0
 11
120.745668
 21
115.121879
 31
0.0
  0
LINE
  5
7E
330
1F
100
AcDbEntity
  8
1
  6
CONTINUOUS
 62
     2
100
AcDbLine
 10
129.405922
 20
115.121879
 30
0.0
 11
129.405922
 21
139.621879
 31
0.0
  0
LINE
  5
7F
330
1F
100
AcDbEntity
  8
1
  6
CONTINUOUS
 62
     2
100
AcDbLine
 10
119.995668
 20
139.621879
 30
0.0
 11
119.995668
 21
115.121879
 31
0.0
  0
LINE
  5
80
330
1F
100
AcDbEntity
  8
1
  6
CONTINUOUS
 62
     2
100
AcDbLine
 10
51.131358
 20
139.621879
 30
0.0
 11
51.131358
 21
115.121879
 31
0.0
  0
LINE
  5
81
330
1F
100
AcDbEntity
  8
1
  6
CONTINUOUS
 62
     2
100
AcDbLine
 10
123.784105
 20
141.621879
 30
0.0
 11
123.784105
 21
139.621879
 31
0.0
  0
LINE
  5
82
330
1F
100
AcDbEntity
  8
1
  6
CONTINUOUS
 62
     2
100
AcDbLine
 10
49.631358
 20
139.621879
 30
0.0
 11
51.131358
 21
139.621879
 31
0.0
  0
LINE
  5
83
330
1F
100
AcDbEntity
  8
1
  6
CONTINUOUS
 62
     2
100
AcDbLine
 10
51.131358
 20
139.621879
 30
0.0
 11
51.131358
 21
141.621879
 31
0.0
  0
LINE
  5
84
330
1F
100
AcDbEntity
  8
1
  6
CONTINUOUS
 62
     2
100
AcDbLine
 10
49.631358
 20
139.621879
 30
0.0
 11
49.631358
 21
141.621879
 31
0.0
  0
LINE
  5
85
330
1F
100
AcDbEntity
  8
1
  6
CONTINUOUS
 62
     2
100
AcDbLine
 10
120.745668
 20
139.621879
 30
0.0
 11
124.642782
 21
139.621879
 31
0.0
  0
LINE
  5
86
330
1F
100
AcDbEntity
  8
1
  6
CONTINUOUS
 62
     2
100
AcDbLine
 10
120.745668
 20
139.621879
 30
0.0
 11
119.995668
 21
139.621879
 31
0.0
  0
LINE
  5
87
330
1F
100
AcDbEntity
  8
1
  6
CONTINUOUS
 62
     2
100
AcDbLine
 10
123.892782
 20
139.621879
 30
0.0
 11
123.892782
 21
141.621879
 31
0.0
  0
LINE
  5
88
330
1F
100
AcDbEntity
  8
1
  6
CONTINUOUS
 62
     2
100
AcDbLine
 10
124.642782
 20
139.621879
 30
0.0
 11
124.642782
 21
141.621879
 31
0.0
  0
LINE
  5
89
330
1F
100
AcDbEntity
  8
1
  6
CONTINUOUS
 62
     2
100
AcDbLine
 10
125.508808
 20
141.621879
 30
0.0
 11
125.508808
 21
139.621879
 31
0.0
  0
LINE
  5
8A
330
1F
100
AcDbEntity
  8
1
  6
CONTINUOUS
 62
     2
100
AcDbLine
 10
125.508808
 20
139.621879
 30
0.0
 11
129.405922
 21
139.621879
 31
0.0
  0
LINE
  5
8B
330
1F
100
AcDbEntity
  8
1
  6
CONTINUOUS
 62
     2
100
AcDbLine
 10
51.131358
 20
141.621879
 30
0.0
 11
49.631358
 21
141.621879
 31
0.0
  0
LINE
  5
8C
330
1F
100
AcDbEntity
  8
1
  6
CONTINUOUS
 62
     2
100
AcDbLine
 10
119.995668
 20
141.621879
 30
0.0
 11
120.745668
 21
141.621879
 31
0.0
  0
LINE
  5
8D
330
1F
100
AcDbEntity
  8
1
  6
CONTINUOUS
 62
     2
100
AcDbLine
 10
124.642782
 20
141.621879
 30
0.0
 11
120.745668
 21
141.621879
 31
0.0
  0
LINE
  5
8E
330
1F
100
AcDbEntity
  8
1
  6
CONTINUOUS
 62
     2
100
AcDbLine
 10
129.405922
 20
141.621879
 30
0.0
 11
125.508808
 21
141.621879
 31
0.0
  0
LINE
  5
8F
330
1F
100
AcDbEntity
  8
1
  6
CONTINUOUS
 62
     2
100
AcDbLine
 10
51.131358
 20
143.021879
 30
0.0
 11
49.631358
 21
143.021879
 31
0.0
  0
LINE
  5
90
330
1F
100
AcDbEntity
  8
1
  6
CONTINUOUS
 62
     2
100
AcDbLine
 10
51.131358
 20
153.021879
 30
0.0
 11
51.131358
 21
143.021879
 31
0.0
  0
LINE
  5
91
330
1F
100
AcDbEntity
  8
1
  6
CONTINUOUS
 62
     2
100
AcDbLine
 10
49.631358
 20
143.021879
 30
0.0
 11
49.631358
 21
153.021879
 31
0.0
  0
LINE
  5
92
330
1F
100
AcDbEntity
  8
1
  6
CONTINUOUS
 62
     2
100
AcDbLine
 10
120.745668
 20
143.221879
 30
0.0
 11
119.995668
 21
143.221879
 31
0.0
  0
LINE
  5
93
330
1F
100
AcDbEntity
  8
1
  6
CONTINUOUS
 62
     2
100
AcDbLine
 10
119.995668
 20
143.221879
 30
0.0
 11
120.861693
 21
153.221879
 31
0.0
  0
LINE
  5
94
330
1F
100
AcDbEntity
  8
1
  6
CONTINUOUS
 62
     2
100
AcDbLine
 10
121.611693
 20
153.221879
 30
0.0
 11
120.745668
 21
143.221879
 31
0.0
  0
LINE
  5
95
330
1F
100
AcDbEntity
  8
1
  6
CONTINUOUS
 62
     2
100
AcDbLine
 10
129.405922
 20
143.221879
 30
0.0
 11
128.539896
 21
153.221879
 31
0.0
  0
LINE
  5
96
330
1F
100
AcDbEntity
  8
1
  6
CONTINUOUS
 62
     2
100
AcDbLine
 10
49.631358
 20
153.021879
 30
0.0
 11
51.131358
 21
153.021879
 31
0.0
  0
LINE
  5
97
330
1F
100
AcDbEntity
  8
1
  6
CONTINUOUS
 62
     2
100
AcDbLine
 10
120.861693
 20
153.221879
 30
0.0
 11
121.611693
 21
153.221879
 31
0.0
  0
LINE
  5
98
330
1F
100
AcDbEntity
  8
1
  6
CONTINUOUS
 62
     2
100
AcDbLine
 10
171.339233
 20
233.565322
 30
0.0
 11
195.839233
 21
233.565322
 31
0.0
  0
LINE
  5
99
330
1F
100
AcDbEntity
  8
1
  6
CONTINUOUS
 62
     2
100
AcDbLine
 10
195.839233
 20
223.565322
 30
0.0
 11
171.339233
 21
223.565322
 31
0.0
  0
LINE
  5
9A
330
1F
100
AcDbEntity
  8
1
  6
CONTINUOUS
 62
     2
100
AcDbLine
 10
197.839233
 20
223.565322
 30
0.0
 11
197.839233
 21
215.62437
 31
0.0
  0
LINE
  5
9B
330
1F
100
AcDbEntity
  8
1
  6
CONTINUOUS
 62
     2
100
AcDbLine
 10
197.839233
 20
233.565322
 30
0.0
 11
197.839233
 21
223.565322
 31
0.0
  0
LINE
  5
9C
330
1F
100
AcDbEntity
  8
1
  6
CONTINUOUS
 62
     2
100
AcDbLine
 10
197.839233
 20
223.565322
 30
0.0
 11
195.839233
 21
223.565322
 31
0.0
  0
LINE
  5
9D
330
1F
100
AcDbEntity
  8
1
  6
CONTINUOUS
 62
     2
100
AcDbLine
 10
195.839233
 20
223.565322
 30
0.0
 11
195.839233
 21
233.565322
 31
0.0
  0
LINE
  5
9E
330
1F
100
AcDbEntity
  8
1
  6
CONTINUOUS
 62
     2
100
AcDbLine
 10
195.839233
 20
233.565322
 30
0.0
 11
197.839233
 21
233.565322
 31
0.0
  0
LINE
  5
9F
330
1F
100
AcDbEntity
  8
1
  6
CONTINUOUS
 62
     2
100
AcDbLine
 10
197.839233
 20
215.62437
 30
0.0
 11
197.839233
 21
193.209983
 31
0.0
  0
LINE
  5
A0
330
1F
100
AcDbEntity
  8
1
  6
CONTINUOUS
 62
     2
100
AcDbLine
 10
197.839233
 20
241.506274
 30
0.0
 11
197.839233
 21
233.565322
 31
0.0
  0
LINE
  5
A1
330
1F
100
AcDbEntity
  8
1
  6
CONTINUOUS
 62
     2
100
AcDbLine
 10
197.839233
 20
193.209983
 30
0.0
 11
197.839233
 21
180.26903
 31
0.0
  0
LINE
  5
A2
330
1F
100
AcDbEntity
  8
1
  6
CONTINUOUS
 62
     2
100
AcDbLine
 10
197.839233
 20
263.920661
 30
0.0
 11
197.839233
 21
241.506274
 31
0.0
  0
LINE
  5
A3
330
1F
100
AcDbEntity
  8
1
  6
CONTINUOUS
 62
     2
100
AcDbLine
 10
197.839233
 20
276.861613
 30
0.0
 11
197.839233
 21
263.920661
 31
0.0
  0
LINE
  5
A4
330
1F
100
AcDbEntity
  8
1
  6
CONTINUOUS
 62
     2
100
AcDbLine
 10
197.839233
 20
241.506274
 30
0.0
 11
196.339233
 21
241.506274
 31
0.0
  0
LINE
  5
A5
330
1F
100
AcDbEntity
  8
1
  6
CONTINUOUS
 62
     2
100
AcDbLine
 10
197.839233
 20
215.62437
 30
0.0
 11
196.339233
 21
215.62437
 31
0.0
  0
LINE
  5
A6
330
1F
100
AcDbEntity
  8
1
  6
CONTINUOUS
 62
     2
100
AcDbLine
 10
197.839233
 20
193.209983
 30
0.0
 11
196.339233
 21
193.209983
 31
0.0
  0
LINE
  5
A7
330
1F
100
AcDbEntity
  8
1
  6
CONTINUOUS
 62
     2
100
AcDbLine
 10
197.839233
 20
180.26903
 30
0.0
 11
196.339233
 21
180.26903
 31
0.0
  0
LINE
  5
A8
330
1F
100
AcDbEntity
  8
1
  6
CONTINUOUS
 62
     2
100
AcDbLine
 10
197.839233
 20
263.920661
 30
0.0
 11
196.339233
 21
263.920661
 31
0.0
  0
LINE
  5
A9
330
1F
100
AcDbEntity
  8
1
  6
CONTINUOUS
 62
     2
100
AcDbLine
 10
197.839233
 20
276.861613
 30
0.0
 11
196.339233
 21
276.861613
 31
0.0
  0
LINE
  5
AA
330
1F
100
AcDbEntity
  8
1
  6
CONTINUOUS
 62
     2
100
AcDbLine
 10
196.339233
 20
263.920661
 30
0.0
 11
196.339233
 21
276.861613
 31
0.0
  0
LINE
  5
AB
330
1F
100
AcDbEntity
  8
1
  6
CONTINUOUS
 62
     2
100
AcDbLine
 10
196.339233
 20
180.26903
 30
0.0
 11
196.339233
 21
193.209983
 31
0.0
  0
LINE
  5
AC
330
1F
100
AcDbEntity
  8
1
  6
CONTINUOUS
 62
     2
100
AcDbLine
 10
196.339233
 20
193.209983
 30
0.0
 11
196.339233
 21
215.62437
 31
0.0
  0
LINE
  5
AD
330
1F
100
AcDbEntity
  8
1
  6
CONTINUOUS
 62
     2
100
AcDbLine
 10
196.339233
 20
241.506274
 30
0.0
 11
196.339233
 21
263.920661
 31
0.0
  0
LINE
  5
AE
330
1F
100
AcDbEntity
  8
1
  6
CONTINUOUS
 62
     2
100
AcDbLine
 10
196.339233
 20
233.565322
 30
0.0
 11
196.339233
 21
241.506274
 31
0.0
  0
LINE
  5
AF
330
1F
100
AcDbEntity
  8
1
  6
CONTINUOUS
 62
     2
100
AcDbLine
 10
196.339233
 20
215.62437
 30
0.0
 11
196.339233
 21
223.565322
 31
0.0
  0
LINE
  5
B0
330
1F
100
AcDbEntity
  8
1
  6
CONTINUOUS
 62
     2
100
AcDbLine
 10
195.839233
 20
273.32415
 30
0.0
 11
195.839233
 21
268.32415
 31
0.0
  0
LINE
  5
B1
330
1F
100
AcDbEntity
  8
1
  6
CONTINUOUS
 62
     2
100
AcDbLine
 10
195.839233
 20
188.806494
 30
0.0
 11
195.839233
 21
183.806494
 31
0.0
  0
LINE
  5
B2
330
1F
100
AcDbEntity
  8
1
  6
CONTINUOUS
 62
     2
100
AcDbLine
 10
167.939233
 20
233.565322
 30
0.0
 11
169.339233
 21
233.565322
 31
0.0
  0
LINE
  5
B3
330
1F
100
AcDbEntity
  8
1
  6
CONTINUOUS
 62
     2
100
AcDbLine
 10
169.339233
 20
223.565322
 30
0.0
 11
167.939233
 21
223.565322
 31
0.0
  0
LINE
  5
B4
330
1F
100
AcDbEntity
  8
1
  6
CONTINUOUS
 62
     2
100
AcDbLine
 10
167.739233
 20
274.623188
 30
0.0
 11
169.339233
 21
274.623188
 31
0.0
  0
LINE
  5
B5
330
1F
100
AcDbEntity
  8
1
  6
CONTINUOUS
 62
     2
100
AcDbLine
 10
167.939233
 20
188.806494
 30
0.0
 11
169.339233
 21
188.806494
 31
0.0
  0
LINE
  5
B6
330
1F
100
AcDbEntity
  8
1
  6
CONTINUOUS
 62
     2
100
AcDbLine
 10
169.339233
 20
183.806494
 30
0.0
 11
167.939233
 21
183.806494
 31
0.0
  0
LINE
  5
B7
330
1F
100
AcDbEntity
  8
1
  6
CONTINUOUS
 62
     2
100
AcDbLine
 10
167.739233
 20
273.32415
 30
0.0
 11
169.339233
 21
273.32415
 31
0.0
  0
LINE
  5
B8
330
1F
100
AcDbEntity
  8
1
  6
CONTINUOUS
 62
     2
100
AcDbLine
 10
169.339233
 20
268.32415
 30
0.0
 11
167.739233
 21
268.32415
 31
0.0
  0
LINE
  5
B9
330
1F
100
AcDbEntity
  8
1
  6
CONTINUOUS
 62
     2
100
AcDbLine
 10
169.339233
 20
182.507456
 30
0.0
 11
167.939233
 21
182.507456
 31
0.0
  0
LINE
  5
BA
330
1F
100
AcDbEntity
  8
1
  6
CONTINUOUS
 62
     2
100
AcDbLine
 10
157.939233
 20
184.306494
 30
0.0
 11
157.939233
 21
188.306494
 31
0.0
  0
LINE
  5
BB
330
1F
100
AcDbEntity
  8
1
  6
CONTINUOUS
 62
     2
100
AcDbLine
 10
157.939233
 20
224.565322
 30
0.0
 11
157.939233
 21
232.565322
 31
0.0
  0
LINE
  5
BC
330
1F
100
AcDbEntity
  8
1
  6
CONTINUOUS
 62
     2
100
AcDbLine
 10
157.739233
 20
268.82415
 30
0.0
 11
157.739233
 21
272.82415
 31
0.0
  0
LINE
  5
BD
330
1F
100
AcDbEntity
  8
1
  6
CONTINUOUS
 62
     2
100
AcDbLine
 10
171.339233
 20
274.623188
 30
0.0
 11
195.839233
 21
274.623188
 31
0.0
  0
LINE
  5
BE
330
1F
100
AcDbEntity
  8
1
  6
CONTINUOUS
 62
     2
100
AcDbLine
 10
171.339233
 20
273.32415
 30
0.0
 11
195.839233
 21
273.32415
 31
0.0
  0
LINE
  5
BF
330
1F
100
AcDbEntity
  8
1
  6
CONTINUOUS
 62
     2
100
AcDbLine
 10
195.839233
 20
268.32415
 30
0.0
 11
171.339233
 21
268.32415
 31
0.0
  0
LINE
  5
C0
330
1F
100
AcDbEntity
  8
1
  6
CONTINUOUS
 62
     2
100
AcDbLine
 10
195.839233
 20
183.806494
 30
0.0
 11
171.339233
 21
183.806494
 31
0.0
  0
LINE
  5
C1
330
1F
100
AcDbEntity
  8
1
  6
CONTINUOUS
 62
     2
100
AcDbLine
 10
171.339233
 20
188.806494
 30
0.0
 11
195.839233
 21
188.806494
 31
0.0
  0
LINE
  5
C2
330
1F
100
AcDbEntity
  8
1
  6
CONTINUOUS
 62
     2
100
AcDbLine
 10
195.839233
 20
182.507456
 30
0.0
 11
171.339233
 21
182.507456
 31
0.0
  0
LINE
  5
C3
330
1F
100
AcDbEntity
  8
1
  6
CONTINUOUS
 62
     2
100
AcDbLine
 10
171.339233
 20
228.066713
 30
0.0
 11
171.339233
 21
223.565322
 31
0.0
  0
LINE
  5
C4
330
1F
100
AcDbEntity
  8
1
  6
CONTINUOUS
 62
     2
100
AcDbLine
 10
169.339233
 20
184.694711
 30
0.0
 11
171.339233
 21
184.694711
 31
0.0
  0
LINE
  5
C5
330
1F
100
AcDbEntity
  8
1
  6
CONTINUOUS
 62
     2
100
AcDbLine
 10
169.339233
 20
185.993749
 30
0.0
 11
171.339233
 21
185.993749
 31
0.0
  0
LINE
  5
C6
330
1F
100
AcDbEntity
  8
1
  6
CONTINUOUS
 62
     2
100
AcDbLine
 10
171.339233
 20
233.565322
 30
0.0
 11
171.339233
 21
229.066713
 31
0.0
  0
LINE
  5
C7
330
1F
100
AcDbEntity
  8
1
  6
CONTINUOUS
 62
     2
100
AcDbLine
 10
169.339233
 20
228.066713
 30
0.0
 11
171.339233
 21
228.066713
 31
0.0
  0
LINE
  5
C8
330
1F
100
AcDbEntity
  8
1
  6
CONTINUOUS
 62
     2
100
AcDbLine
 10
171.339233
 20
185.993749
 30
0.0
 11
171.339233
 21
183.806494
 31
0.0
  0
LINE
  5
C9
330
1F
100
AcDbEntity
  8
1
  6
CONTINUOUS
 62
     2
100
AcDbLine
 10
171.339233
 20
183.806494
 30
0.0
 11
171.339233
 21
182.507456
 31
0.0
  0
LINE
  5
CA
330
1F
100
AcDbEntity
  8
1
  6
CONTINUOUS
 62
     2
100
AcDbLine
 10
171.339233
 20
229.066713
 30
0.0
 11
169.339233
 21
229.066713
 31
0.0
  0
LINE
  5
CB
330
1F
100
AcDbEntity
  8
1
  6
CONTINUOUS
 62
     2
100
AcDbLine
 10
171.339233
 20
273.32415
 30
0.0
 11
171.339233
 21
271.07415
 31
0.0
  0
LINE
  5
CC
330
1F
100
AcDbEntity
  8
1
  6
CONTINUOUS
 62
     2
100
AcDbLine
 10
171.339233
 20
274.623188
 30
0.0
 11
171.339233
 21
273.32415
 31
0.0
  0
LINE
  5
CD
330
1F
100
AcDbEntity
  8
1
  6
CONTINUOUS
 62
     2
100
AcDbLine
 10
171.339233
 20
271.07415
 30
0.0
 11
169.339233
 21
271.07415
 31
0.0
  0
LINE
  5
CE
330
1F
100
AcDbEntity
  8
1
  6
CONTINUOUS
 62
     2
100
AcDbLine
 10
171.339233
 20
272.373188
 30
0.0
 11
169.339233
 21
272.373188
 31
0.0
  0
LINE
  5
CF
330
1F
100
AcDbEntity
  8
1
  6
CONTINUOUS
 62
     2
100
AcDbLine
 10
171.339233
 20
186.493749
 30
0.0
 11
169.339233
 21
186.493749
 31
0.0
  0
LINE
  5
D0
330
1F
100
AcDbEntity
  8
1
  6
CONTINUOUS
 62
     2
100
AcDbLine
 10
169.339233
 20
270.57415
 30
0.0
 11
171.339233
 21
270.57415
 31
0.0
  0
LINE
  5
D1
330
1F
100
AcDbEntity
  8
1
  6
CONTINUOUS
 62
     2
100
AcDbLine
 10
171.339233
 20
270.57415
 30
0.0
 11
171.339233
 21
268.32415
 31
0.0
  0
LINE
  5
D2
330
1F
100
AcDbEntity
  8
1
  6
CONTINUOUS
 62
     2
100
AcDbLine
 10
171.339233
 20
188.806494
 30
0.0
 11
171.339233
 21
186.493749
 31
0.0
  0
LINE
  5
D3
330
1F
100
AcDbEntity
  8
1
  6
CONTINUOUS
 62
     2
100
AcDbLine
 10
169.339233
 20
229.066713
 30
0.0
 11
169.339233
 21
233.565322
 31
0.0
  0
LINE
  5
D4
330
1F
100
AcDbEntity
  8
1
  6
CONTINUOUS
 62
     2
100
AcDbLine
 10
169.339233
 20
273.32415
 30
0.0
 11
169.339233
 21
274.623188
 31
0.0
  0
LINE
  5
D5
330
1F
100
AcDbEntity
  8
1
  6
CONTINUOUS
 62
     2
100
AcDbLine
 10
169.339233
 20
271.07415
 30
0.0
 11
169.339233
 21
273.32415
 31
0.0
  0
LINE
  5
D6
330
1F
100
AcDbEntity
  8
1
  6
CONTINUOUS
 62
     2
100
AcDbLine
 10
169.339233
 20
186.493749
 30
0.0
 11
169.339233
 21
188.806494
 31
0.0
  0
LINE
  5
D7
330
1F
100
AcDbEntity
  8
1
  6
CONTINUOUS
 62
     2
100
AcDbLine
 10
169.339233
 20
223.565322
 30
0.0
 11
169.339233
 21
228.066713
 31
0.0
  0
LINE
  5
D8
330
1F
100
AcDbEntity
  8
1
  6
CONTINUOUS
 62
     2
100
AcDbLine
 10
169.339233
 20
182.507456
 30
0.0
 11
169.339233
 21
183.806494
 31
0.0
  0
LINE
  5
D9
330
1F
100
AcDbEntity
  8
1
  6
CONTINUOUS
 62
     2
100
AcDbLine
 10
169.339233
 20
183.806494
 30
0.0
 11
169.339233
 21
185.993749
 31
0.0
  0
LINE
  5
DA
330
1F
100
AcDbEntity
  8
1
  6
CONTINUOUS
 62
     2
100
AcDbLine
 10
169.339233
 20
268.32415
 30
0.0
 11
169.339233
 21
270.57415
 31
0.0
  0
LINE
  5
DB
330
1F
100
AcDbEntity
  8
1
  6
CONTINUOUS
 62
     2
100
AcDbLine
 10
157.939233
 20
224.565322
 30
0.0
 11
167.939233
 21
223.565322
 31
0.0
  0
LINE
  5
DC
330
1F
100
AcDbEntity
  8
1
  6
CONTINUOUS
 62
     2
100
AcDbLine
 10
167.939233
 20
233.565322
 30
0.0
 11
157.939233
 21
232.565322
 31
0.0
  0
LINE
  5
DD
330
1F
100
AcDbEntity
  8
1
  6
CONTINUOUS
 62
     2
100
AcDbLine
 10
167.939233
 20
188.806494
 30
0.0
 11
157.939233
 21
188.306494
 31
0.0
  0
LINE
  5
DE
330
1F
100
AcDbEntity
  8
1
  6
CONTINUOUS
 62
     2
100
AcDbLine
 10
167.939233
 20
183.806494
 30
0.0
 11
167.939233
 21
182.507456
 31
0.0
  0
LINE
  5
DF
330
1F
100
AcDbEntity
  8
1
  6
CONTINUOUS
 62
     2
100
AcDbLine
 10
167.939233
 20
182.507456
 30
0.0
 11
157.939233
 21
183.007456
 31
0.0
  0
LINE
  5
E0
330
1F
100
AcDbEntity
  8
1
  6
CONTINUOUS
 62
     2
100
AcDbLine
 10
157.939233
 20
184.306494
 30
0.0
 11
167.939233
 21
183.806494
 31
0.0
  0
LINE
  5
E1
330
1F
100
AcDbEntity
  8
1
  6
CONTINUOUS
 62
     2
100
AcDbLine
 10
167.739233
 20
274.623188
 30
0.0
 11
167.739233
 21
273.32415
 31
0.0
  0
LINE
  5
E2
330
1F
100
AcDbEntity
  8
1
  6
CONTINUOUS
 62
     2
100
AcDbLine
 10
167.739233
 20
273.32415
 30
0.0
 11
157.739233
 21
272.82415
 31
0.0
  0
LINE
  5
E3
330
1F
100
AcDbEntity
  8
1
  6
CONTINUOUS
 62
     2
100
AcDbLine
 10
157.739233
 20
274.123188
 30
0.0
 11
167.739233
 21
274.623188
 31
0.0
  0
LINE
  5
E4
330
1F
100
AcDbEntity
  8
1
  6
CONTINUOUS
 62
     2
100
AcDbLine
 10
157.739233
 20
268.82415
 30
0.0
 11
167.739233
 21
268.32415
 31
0.0
  0
LINE
  5
E5
330
1F
100
AcDbEntity
  8
1
  6
CONTINUOUS
 62
     2
100
AcDbLine
 10
157.939233
 20
183.007456
 30
0.0
 11
157.939233
 21
184.306494
 31
0.0
  0
LINE
  5
E6
330
1F
100
AcDbEntity
  8
1
  6
CONTINUOUS
 62
     2
100
AcDbLine
 10
157.739233
 20
272.82415
 30
0.0
 11
157.739233
 21
274.123188
 31
0.0
  0
LINE
  5
E7
330
1F
100
AcDbEntity
  8
255
  6
CONTINUOUS
 62
   163
100
AcDbLine
 10
260.733129
 20
192.059893
 30
0.0
 11
260.733129
 21
184.118941
 31
0.0
  0
LINE
  5
E9
330
1F
100
AcDbEntity
  8
255
  6
CONTINUOUS
 62
   163
100
AcDbLine
 10
349.444936
 20
119.058167
 30
0.0
 11
356.373139
 21
123.058167
 31
0.0
  0
LINE
  5
EA
330
1F
100
AcDbEntity
  8
255
  6
CONTINUOUS
 62
   163
100
AcDbLine
 10
342.87891
 20
128.430857
 30
0.0
 11
343.57891
 21
127.218421
 31
0.0
  0
LINE
  5
EB
330
1F
100
AcDbEntity
  8
255
  6
CONTINUOUS
 62
   163
100
AcDbLine
 10
352.239164
 20
132.218421
 30
0.0
 11
351.539164
 21
133.430857
 31
0.0
  0
LINE
  5
EC
330
1F
100
AcDbEntity
  8
255
  6
CONTINUOUS
 62
   163
100
AcDbLine
 10
221.270187
 20
193.059893
 30
0.0
 11
221.270187
 21
201.059893
 31
0.0
  0
LINE
  5
ED
330
1F
100
AcDbEntity
  8
255
  6
CONTINUOUS
 62
   163
100
AcDbLine
 10
234.670187
 20
202.059893
 30
0.0
 11
260.733129
 21
202.059893
 31
0.0
  0
LINE
  5
EE
330
1F
100
AcDbEntity
  8
255
  6
CONTINUOUS
 62
   163
100
AcDbLine
 10
232.670187
 20
192.059893
 30
0.0
 11
231.270187
 21
192.059893
 31
0.0
  0
LINE
  5
EF
330
1F
100
AcDbEntity
  8
255
  6
CONTINUOUS
 62
   163
100
AcDbLine
 10
356.473139
 20
271.234824
 30
0.0
 11
349.544936
 21
275.234824
 31
0.0
  0
LINE
  5
F0
330
1F
100
AcDbEntity
  8
255
  6
CONTINUOUS
 62
   163
100
AcDbLine
 10
351.539164
 20
260.688929
 30
0.0
 11
352.339164
 21
262.07457
 31
0.0
  0
LINE
  5
F1
330
1F
100
AcDbEntity
  8
255
  6
CONTINUOUS
 62
   163
100
AcDbLine
 10
343.67891
 20
267.07457
 30
0.0
 11
342.87891
 21
265.688929
 31
0.0
  0
LINE
  5
F2
330
1F
100
AcDbEntity
  8
255
  6
CONTINUOUS
 62
   163
100
AcDbLine
 10
260.733129
 20
210.000845
 30
0.0
 11
260.733129
 21
202.059893
 31
0.0
  0
LINE
  5
F3
330
1F
100
AcDbEntity
  8
255
  6
CONTINUOUS
 62
   163
100
AcDbLine
 10
273.674081
 20
232.415232
 30
0.0
 11
260.733129
 21
210.000845
 31
0.0
  0
LINE
  5
F4
330
1F
100
AcDbEntity
  8
255
  6
CONTINUOUS
 62
   163
100
AcDbLine
 10
260.733129
 20
184.118941
 30
0.0
 11
273.674081
 21
161.704554
 31
0.0
  0
LINE
  5
F5
330
1F
100
AcDbEntity
  8
255
  6
CONTINUOUS
 62
   163
100
AcDbLine
 10
296.088468
 20
245.356184
 30
0.0
 11
273.674081
 21
232.415232
 31
0.0
  0
LINE
  5
F6
330
1F
100
AcDbEntity
  8
255
  6
CONTINUOUS
 62
   163
100
AcDbLine
 10
321.970373
 20
245.356184
 30
0.0
 11
296.088468
 21
245.356184
 31
0.0
  0
LINE
  5
F7
330
1F
100
AcDbEntity
  8
255
  6
CONTINUOUS
 62
   163
100
AcDbLine
 10
328.847439
 20
241.385708
 30
0.0
 11
321.970373
 21
245.356184
 31
0.0
  0
LINE
  5
F8
330
1F
100
AcDbEntity
  8
255
  6
CONTINUOUS
 62
   163
100
AcDbLine
 10
344.384759
 20
232.415232
 30
0.0
 11
337.507693
 21
236.385708
 31
0.0
  0
LINE
  5
F9
330
1F
100
AcDbEntity
  8
255
  6
CONTINUOUS
 62
   163
100
AcDbLine
 10
357.325712
 20
210.000845
 30
0.0
 11
344.384759
 21
232.415232
 31
0.0
  0
LINE
  5
FA
330
1F
100
AcDbEntity
  8
255
  6
CONTINUOUS
 62
   163
100
AcDbLine
 10
357.325712
 20
184.118941
 30
0.0
 11
357.325712
 21
210.000845
 31
0.0
  0
LINE
  5
FB
330
1F
100
AcDbEntity
  8
255
  6
CONTINUOUS
 62
   163
100
AcDbLine
 10
344.384759
 20
161.704554
 30
0.0
 11
357.325712
 21
184.118941
 31
0.0
  0
LINE
  5
FC
330
1F
100
AcDbEntity
  8
255
  6
CONTINUOUS
 62
   163
100
AcDbLine
 10
337.507693
 20
157.734078
 30
0.0
 11
344.384759
 21
161.704554
 31
0.0
  0
LINE
  5
FD
330
1F
100
AcDbEntity
  8
255
  6
CONTINUOUS
 62
   163
100
AcDbLine
 10
321.970373
 20
148.763602
 30
0.0
 11
328.847439
 21
152.734078
 31
0.0
  0
LINE
  5
FE
330
1F
100
AcDbEntity
  8
255
  6
CONTINUOUS
 62
   163
100
AcDbLine
 10
296.088468
 20
148.763602
 30
0.0
 11
321.970373
 21
148.763602
 31
0.0
  0
LINE
  5
FF
330
1F
100
AcDbEntity
  8
255
  6
CONTINUOUS
 62
   163
100
AcDbLine
 10
273.674081
 20
161.704554
 30
0.0
 11
296.088468
 21
148.763602
 31
0.0
  0
LINE
  5
100
330
1F
100
AcDbEntity
  8
255
  6
CONTINUOUS
 62
   163
100
AcDbLine
 10
346.64205
 20
261.206878
 30
0.0
 11
350.539164
 21
258.956878
 31
0.0
  0
LINE
  5
101
330
1F
100
AcDbEntity
  8
255
  6
CONTINUOUS
 62
   163
100
AcDbLine
 10
346.776025
 20
263.438929
 30
0.0
 11
342.87891
 21
265.688929
 31
0.0
  0
LINE
  5
102
330
1F
100
AcDbEntity
  8
255
  6
CONTINUOUS
 62
   163
100
AcDbLine
 10
345.776025
 20
261.706878
 30
0.0
 11
346.776025
 21
263.438929
 31
0.0
  0
LINE
  5
103
330
1F
100
AcDbEntity
  8
255
  6
CONTINUOUS
 62
   163
100
AcDbLine
 10
341.87891
 20
263.956878
 30
0.0
 11
345.776025
 21
261.706878
 31
0.0
  0
LINE
  5
104
330
1F
100
AcDbEntity
  8
255
  6
CONTINUOUS
 62
   163
100
AcDbLine
 10
351.539164
 20
260.688929
 30
0.0
 11
347.64205
 21
262.938929
 31
0.0
  0
LINE
  5
105
330
1F
100
AcDbEntity
  8
255
  6
CONTINUOUS
 62
   163
100
AcDbLine
 10
347.64205
 20
262.938929
 30
0.0
 11
346.64205
 21
261.206878
 31
0.0
  0
LINE
  5
106
330
1F
100
AcDbEntity
  8
255
  6
CONTINUOUS
 62
   163
100
AcDbLine
 10
350.539164
 20
258.956878
 30
0.0
 11
337.507693
 21
236.385708
 31
0.0
  0
LINE
  5
107
330
1F
100
AcDbEntity
  8
255
  6
CONTINUOUS
 62
   163
100
AcDbLine
 10
328.847439
 20
241.385708
 30
0.0
 11
341.87891
 21
263.956878
 31
0.0
  0
LINE
  5
108
330
1F
100
AcDbEntity
  8
255
  6
CONTINUOUS
 62
   163
100
AcDbLine
 10
346.533373
 20
132.850163
 30
0.0
 11
347.533373
 21
131.118112
 31
0.0
  0
LINE
  5
109
330
1F
100
AcDbEntity
  8
255
  6
CONTINUOUS
 62
   163
100
AcDbLine
 10
347.533373
 20
131.118112
 30
0.0
 11
351.539164
 21
133.430857
 31
0.0
  0
LINE
  5
10A
330
1F
100
AcDbEntity
  8
255
  6
CONTINUOUS
 62
   163
100
AcDbLine
 10
342.87891
 20
128.430857
 30
0.0
 11
346.667347
 21
130.618112
 31
0.0
  0
LINE
  5
10B
330
1F
100
AcDbEntity
  8
255
  6
CONTINUOUS
 62
   163
100
AcDbLine
 10
346.667347
 20
130.618112
 30
0.0
 11
345.667347
 21
132.350163
 31
0.0
  0
LINE
  5
10C
330
1F
100
AcDbEntity
  8
255
  6
CONTINUOUS
 62
   163
100
AcDbLine
 10
350.539164
 20
135.162908
 30
0.0
 11
346.533373
 21
132.850163
 31
0.0
  0
LINE
  5
10D
330
1F
100
AcDbEntity
  8
255
  6
CONTINUOUS
 62
   163
100
AcDbLine
 10
345.667347
 20
132.350163
 30
0.0
 11
341.87891
 21
130.162908
 31
0.0
  0
LINE
  5
10E
330
1F
100
AcDbEntity
  8
255
  6
CONTINUOUS
 62
   163
100
AcDbLine
 10
341.87891
 20
130.162908
 30
0.0
 11
328.847439
 21
152.734078
 31
0.0
  0
LINE
  5
10F
330
1F
100
AcDbEntity
  8
255
  6
CONTINUOUS
 62
   163
100
AcDbLine
 10
337.507693
 20
157.734078
 30
0.0
 11
350.539164
 21
135.162908
 31
0.0
  0
LINE
  5
110
330
1F
100
AcDbEntity
  8
255
  6
CONTINUOUS
 62
   163
100
AcDbLine
 10
234.670187
 20
197.561284
 30
0.0
 11
232.670187
 21
197.561284
 31
0.0
  0
LINE
  5
111
330
1F
100
AcDbEntity
  8
255
  6
CONTINUOUS
 62
   163
100
AcDbLine
 10
231.270187
 20
202.059893
 30
0.0
 11
232.670187
 21
202.059893
 31
0.0
  0
LINE
  5
112
330
1F
100
AcDbEntity
  8
255
  6
CONTINUOUS
 62
   163
100
AcDbLine
 10
234.670187
 20
202.059893
 30
0.0
 11
234.670187
 21
197.561284
 31
0.0
  0
LINE
  5
113
330
1F
100
AcDbEntity
  8
255
  6
CONTINUOUS
 62
   163
100
AcDbLine
 10
234.670187
 20
196.561284
 30
0.0
 11
234.670187
 21
192.059893
 31
0.0
  0
LINE
  5
114
330
1F
100
AcDbEntity
  8
255
  6
CONTINUOUS
 62
   163
100
AcDbLine
 10
232.670187
 20
197.561284
 30
0.0
 11
232.670187
 21
202.059893
 31
0.0
  0
LINE
  5
115
330
1F
100
AcDbEntity
  8
255
  6
CONTINUOUS
 62
   163
100
AcDbLine
 10
232.670187
 20
192.059893
 30
0.0
 11
232.670187
 21
196.561284
 31
0.0
  0
LINE
  5
116
330
1F
100
AcDbEntity
  8
255
  6
CONTINUOUS
 62
   163
100
AcDbLine
 10
232.670187
 20
196.561284
 30
0.0
 11
234.670187
 21
196.561284
 31
0.0
  0
LINE
  5
117
330
1F
100
AcDbEntity
  8
255
  6
CONTINUOUS
 62
   163
100
AcDbLine
 10
260.733129
 20
192.059893
 30
0.0
 11
234.670187
 21
192.059893
 31
0.0
  0
LINE
  5
118
330
1F
100
AcDbEntity
  8
255
  6
CONTINUOUS
 62
   163
100
AcDbLine
 10
356.373139
 20
123.058167
 30
0.0
 11
352.239164
 21
132.218421
 31
0.0
  0
LINE
  5
119
330
1F
100
AcDbEntity
  8
255
  6
CONTINUOUS
 62
   163
100
AcDbLine
 10
221.270187
 20
193.059893
 30
0.0
 11
231.270187
 21
192.059893
 31
0.0
  0
LINE
  5
11A
330
1F
100
AcDbEntity
  8
255
  6
CONTINUOUS
 62
   163
100
AcDbLine
 10
349.544936
 20
275.234824
 30
0.0
 11
343.67891
 21
267.07457
 31
0.0
  0
LINE
  5
11B
330
1F
100
AcDbEntity
  8
255
  6
CONTINUOUS
 62
   163
100
AcDbLine
 10
343.57891
 20
127.218421
 30
0.0
 11
349.444936
 21
119.058167
 31
0.0
  0
LINE
  5
11C
330
1F
100
AcDbEntity
  8
255
  6
CONTINUOUS
 62
   163
100
AcDbLine
 10
231.270187
 20
202.059893
 30
0.0
 11
221.270187
 21
201.059893
 31
0.0
  0
LINE
  5
11D
330
1F
100
AcDbEntity
  8
255
  6
CONTINUOUS
 62
   163
100
AcDbLine
 10
352.339164
 20
262.07457
 30
0.0
 11
356.473139
 21
271.234824
 31
0.0
  0
LINE
  5
11E
330
1F
100
AcDbEntity
  8
1
  6
CONTINUOUS
 62
     2
100
AcDbLine
 10
102.16437
 20
21.378389
 30
0.0
 11
111.839616
 21
19.698723
 31
0.0
  0
LINE
  5
11F
330
1F
100
AcDbEntity
  8
1
  6
CONTINUOUS
 62
     2
100
AcDbLine
 10
112.387614
 20
40.55263
 30
0.0
 11
111.679471
 21
20.56277
 31
0.0
  0
LINE
  5
120
330
1F
100
AcDbEntity
  8
1
  6
CONTINUOUS
 62
     2
100
AcDbLine
 10
102.004224
 20
22.242436
 30
0.0
 11
102.712368
 21
42.232296
 31
0.0
  0
LINE
  5
121
330
1F
100
AcDbEntity
  8
1
  6
CONTINUOUS
 62
     2
100
AcDbLine
 10
102.01084
 20
21.793096
 30
0.0
 11
94.765587
 21
23.050904
 31
0.0
  0
LINE
  5
122
330
1F
100
AcDbEntity
  8
1
  6
CONTINUOUS
 62
     2
100
AcDbLine
 10
169.391954
 20
46.643945
 30
0.0
 11
162.89252
 21
32.325057
 31
0.0
  0
LINE
  5
123
330
1F
100
AcDbEntity
  8
1
  6
CONTINUOUS
 62
     2
100
AcDbLine
 10
102.004224
 20
22.242436
 30
0.0
 11
111.679471
 21
20.56277
 31
0.0
  0
LINE
  5
124
330
1F
100
AcDbEntity
  8
1
  6
CONTINUOUS
 62
     2
100
AcDbLine
 10
94.765587
 20
23.050904
 30
0.0
 11
76.328833
 21
33.975216
 31
0.0
  0
LINE
  5
125
330
1F
100
AcDbEntity
  8
1
  6
CONTINUOUS
 62
     2
100
AcDbLine
 10
119.806967
 20
18.703609
 30
0.0
 11
112.123901
 21
20.037424
 31
0.0
  0
LINE
  5
126
330
1F
100
AcDbEntity
  8
1
  6
CONTINUOUS
 62
     2
100
AcDbLine
 10
76.328833
 20
33.975216
 30
0.0
 11
69.436818
 21
48.549384
 31
0.0
  0
LINE
  5
127
330
1F
100
AcDbEntity
  8
1
  6
CONTINUOUS
 62
     2
100
AcDbLine
 10
144.743155
 20
22.098184
 30
0.0
 11
119.806967
 21
18.703609
 31
0.0
  0
LINE
  5
128
330
1F
100
AcDbEntity
  8
1
  6
CONTINUOUS
 62
     2
100
AcDbLine
 10
162.89252
 20
32.325057
 30
0.0
 11
144.743155
 21
22.098184
 31
0.0
  0
LINE
  5
129
330
1F
100
AcDbEntity
  8
1
  6
CONTINUOUS
 62
     2
100
AcDbLine
 10
112.167256
 20
21.261293
 30
0.0
 11
112.123901
 21
20.037424
 31
0.0
  0
LINE
  5
12A
330
1F
100
AcDbEntity
  8
1
  6
CONTINUOUS
 62
     2
100
AcDbLine
 10
169.391954
 20
46.643945
 30
0.0
 11
169.435309
 21
47.867814
 31
0.0
  0
LINE
  5
12B
330
1F
100
AcDbEntity
  8
1
  6
CONTINUOUS
 62
     2
100
AcDbLine
 10
119.806967
 20
18.703609
 30
0.0
 11
119.850323
 21
19.927478
 31
0.0
  0
LINE
  5
12C
330
1F
100
AcDbEntity
  8
1
  6
CONTINUOUS
 62
     2
100
AcDbLine
 10
94.765587
 20
23.050904
 30
0.0
 11
94.808943
 21
24.274773
 31
0.0
  0
LINE
  5
12D
330
1F
100
AcDbEntity
  8
1
  6
CONTINUOUS
 62
     2
100
AcDbLine
 10
76.328833
 20
33.975216
 30
0.0
 11
76.372189
 21
35.199085
 31
0.0
  0
LINE
  5
12E
330
1F
100
AcDbEntity
  8
1
  6
CONTINUOUS
 62
     2
100
AcDbLine
 10
69.436818
 20
48.549384
 30
0.0
 11
69.480173
 21
49.773253
 31
0.0
  0
LINE
  5
12F
330
1F
100
AcDbEntity
  8
1
  6
CONTINUOUS
 62
     2
100
AcDbLine
 10
144.743155
 20
22.098184
 30
0.0
 11
144.786511
 21
23.322053
 31
0.0
  0
LINE
  5
130
330
1F
100
AcDbEntity
  8
1
  6
CONTINUOUS
 62
     2
100
AcDbLine
 10
162.89252
 20
32.325057
 30
0.0
 11
162.935876
 21
33.548926
 31
0.0
  0
LINE
  5
131
330
1F
100
AcDbEntity
  8
1
  6
CONTINUOUS
 62
     2
100
AcDbLine
 10
164.657867
 20
57.970411
 30
0.0
 11
162.543294
 21
62.441982
 31
0.0
  0
LINE
  5
132
330
1F
100
AcDbEntity
  8
1
  6
CONTINUOUS
 62
     2
100
AcDbLine
 10
144.786511
 20
23.322053
 30
0.0
 11
162.935876
 21
33.548926
 31
0.0
  0
LINE
  5
133
330
1F
100
AcDbEntity
  8
1
  6
CONTINUOUS
 62
     2
100
AcDbLine
 10
69.480173
 20
49.773253
 30
0.0
 11
76.372189
 21
35.199085
 31
0.0
  0
LINE
  5
134
330
1F
100
AcDbEntity
  8
1
  6
CONTINUOUS
 62
     2
100
AcDbLine
 10
76.372189
 20
35.199085
 30
0.0
 11
94.808943
 21
24.274773
 31
0.0
  0
LINE
  5
135
330
1F
100
AcDbEntity
  8
1
  6
CONTINUOUS
 62
     2
100
AcDbLine
 10
94.128972
 20
74.319013
 30
0.0
 11
88.560477
 21
71.181257
 31
0.0
  0
LINE
  5
136
330
1F
100
AcDbEntity
  8
1
  6
CONTINUOUS
 62
     2
100
AcDbLine
 10
119.850323
 20
19.927478
 30
0.0
 11
144.786511
 21
23.322053
 31
0.0
  0
LINE
  5
137
330
1F
100
AcDbEntity
  8
1
  6
CONTINUOUS
 62
     2
100
AcDbLine
 10
162.935876
 20
33.548926
 30
0.0
 11
169.435309
 21
47.867814
 31
0.0
  0
LINE
  5
138
330
1F
100
AcDbEntity
  8
1
  6
CONTINUOUS
 62
     2
100
AcDbLine
 10
162.543294
 20
62.441982
 30
0.0
 11
144.10654
 21
73.366293
 31
0.0
  0
LINE
  5
139
330
1F
100
AcDbEntity
  8
1
  6
CONTINUOUS
 62
     2
100
AcDbLine
 10
144.10654
 20
73.366293
 30
0.0
 11
119.06516
 21
77.713589
 31
0.0
  0
LINE
  5
13A
330
1F
100
AcDbEntity
  8
1
  6
CONTINUOUS
 62
     2
100
AcDbLine
 10
119.06516
 20
77.713589
 30
0.0
 11
94.128972
 21
74.319013
 31
0.0
  0
LINE
  5
13B
330
1F
100
AcDbEntity
  8
1
  6
CONTINUOUS
 62
     2
100
AcDbLine
 10
75.979607
 20
64.09214
 30
0.0
 11
69.480173
 21
49.773253
 31
0.0
  0
LINE
  5
13C
330
1F
100
AcDbEntity
  8
1
  6
CONTINUOUS
 62
     2
100
AcDbLine
 10
169.435309
 20
47.867814
 30
0.0
 11
167.320737
 21
52.339385
 31
0.0
  0
LINE
  5
13D
330
1F
100
AcDbEntity
  8
1
  6
CONTINUOUS
 62
     2
100
AcDbLine
 10
81.548101
 20
67.229897
 30
0.0
 11
75.979607
 21
64.09214
 31
0.0
  0
LINE
  5
13E
330
1F
100
AcDbEntity
  8
1
  6
CONTINUOUS
 62
     2
100
AcDbLine
 10
112.167256
 20
21.261293
 30
0.0
 11
119.850323
 21
19.927478
 31
0.0
  0
LINE
  5
13F
330
1F
100
AcDbEntity
  8
1
  6
CONTINUOUS
 62
     2
100
AcDbLine
 10
94.808943
 20
24.274773
 30
0.0
 11
102.031746
 21
23.020862
 31
0.0
  0
LINE
  5
140
330
1F
100
AcDbEntity
  8
1
  6
CONTINUOUS
 62
     2
100
AcDbLine
 10
112.167256
 20
21.261293
 30
0.0
 11
112.057805
 21
21.280294
 31
0.0
  0
LINE
  5
141
330
1F
100
AcDbEntity
  8
1
  6
CONTINUOUS
 62
     2
100
AcDbLine
 10
167.816919
 20
52.812919
 30
0.0
 11
165.154049
 21
58.443945
 31
0.0
  0
LINE
  5
142
330
1F
100
AcDbEntity
  8
1
  6
CONTINUOUS
 62
     2
100
AcDbLine
 10
164.657867
 20
57.970411
 30
0.0
 11
167.320737
 21
52.339385
 31
0.0
  0
LINE
  5
143
330
1F
100
AcDbEntity
  8
1
  6
CONTINUOUS
 62
     2
100
AcDbLine
 10
88.218758
 20
71.800255
 30
0.0
 11
81.206382
 21
67.848894
 31
0.0
  0
LINE
  5
144
330
1F
100
AcDbEntity
  8
1
  6
CONTINUOUS
 62
     2
100
AcDbLine
 10
81.548101
 20
67.229897
 30
0.0
 11
88.560477
 21
71.181257
 31
0.0
  0
LINE
  5
145
330
1F
100
AcDbEntity
  8
1
  6
CONTINUOUS
 62
     2
100
AcDbLine
 10
112.485887
 20
43.326733
 30
0.0
 11
112.445422
 21
42.184456
 31
0.0
  0
LINE
  5
146
330
1F
100
AcDbEntity
  8
1
  6
CONTINUOUS
 62
     2
100
AcDbLine
 10
102.770176
 20
43.864122
 30
0.0
 11
102.810641
 21
45.006399
 31
0.0
  0
LINE
  5
147
330
1F
100
AcDbEntity
  8
1
  6
CONTINUOUS
 62
     2
100
AcDbLine
 10
170.074307
 20
75.936799
 30
0.0
 11
170.028061
 21
74.631339
 31
0.0
  0
LINE
  5
148
330
1F
100
AcDbEntity
  8
1
  6
CONTINUOUS
 62
     2
100
AcDbLine
 10
89.025175
 20
94.564218
 30
0.0
 11
88.98471
 21
93.42194
 31
0.0
  0
LINE
  5
149
330
1F
100
AcDbEntity
  8
1
  6
CONTINUOUS
 62
     2
100
AcDbLine
 10
81.972334
 20
89.47058
 30
0.0
 11
82.012799
 21
90.612858
 31
0.0
  0
LINE
  5
14A
330
1F
100
AcDbEntity
  8
1
  6
CONTINUOUS
 62
     2
100
AcDbLine
 10
168.629116
 20
75.740065
 30
0.0
 11
168.58287
 21
74.434605
 31
0.0
  0
LINE
  5
14B
330
1F
100
AcDbEntity
  8
1
  6
CONTINUOUS
 62
     2
100
AcDbLine
 10
165.92
 20
80.065631
 30
0.0
 11
165.966246
 21
81.371091
 31
0.0
  0
LINE
  5
14C
330
1F
100
AcDbEntity
  8
1
  6
CONTINUOUS
 62
     2
100
AcDbLine
 10
112.862566
 20
44.156592
 30
0.0
 11
112.8221
 21
43.014315
 31
0.0
  0
LINE
  5
14D
330
1F
100
AcDbEntity
  8
1
  6
CONTINUOUS
 62
     2
100
AcDbLine
 10
80.903822
 20
90.103704
 30
0.0
 11
80.944287
 21
91.245982
 31
0.0
  0
LINE
  5
14E
330
1F
100
AcDbEntity
  8
1
  6
CONTINUOUS
 62
     2
100
AcDbLine
 10
81.934563
 20
99.800245
 30
0.0
 11
87.544464
 21
102.961333
 31
0.0
  0
LINE
  5
14F
330
1F
100
AcDbEntity
  8
1
  6
CONTINUOUS
 62
     2
100
AcDbLine
 10
83.003075
 20
99.16712
 30
0.0
 11
88.612976
 21
102.328208
 31
0.0
  0
LINE
  5
150
330
1F
100
AcDbEntity
  8
1
  6
CONTINUOUS
 62
     2
100
AcDbLine
 10
104.443882
 20
53.827418
 30
0.0
 11
112.184079
 21
52.483686
 31
0.0
  0
LINE
  5
151
330
1F
100
AcDbEntity
  8
1
  6
CONTINUOUS
 62
     2
100
AcDbLine
 10
104.067204
 20
52.997559
 30
0.0
 11
111.807401
 21
51.653827
 31
0.0
  0
LINE
  5
152
330
1F
100
AcDbEntity
  8
1
  6
CONTINUOUS
 62
     2
100
AcDbLine
 10
166.521571
 20
88.967115
 30
0.0
 11
168.651868
 21
84.462294
 31
0.0
  0
LINE
  5
153
330
1F
100
AcDbEntity
  8
1
  6
CONTINUOUS
 62
     2
100
AcDbLine
 10
167.966762
 20
89.163849
 30
0.0
 11
170.097058
 21
84.659029
 31
0.0
  0
LINE
  5
154
330
1F
100
AcDbEntity
  8
1
  6
CONTINUOUS
 62
     2
100
AcDbLine
 10
169.970253
 20
72.999514
 30
0.0
 11
169.262109
 21
53.009654
 31
0.0
  0
LINE
  5
155
330
1F
100
AcDbEntity
  8
1
  6
CONTINUOUS
 62
     2
100
AcDbLine
 10
168.525063
 20
72.802779
 30
0.0
 11
167.816919
 21
52.812919
 31
0.0
  0
LINE
  5
156
330
1F
100
AcDbEntity
  8
1
  6
CONTINUOUS
 62
     2
100
AcDbLine
 10
165.154049
 20
58.443945
 30
0.0
 11
165.862192
 21
78.433805
 31
0.0
  0
LINE
  5
157
330
1F
100
AcDbEntity
  8
1
  6
CONTINUOUS
 62
     2
100
AcDbLine
 10
81.206382
 20
67.848894
 30
0.0
 11
81.914526
 21
87.838755
 31
0.0
  0
LINE
  5
158
330
1F
100
AcDbEntity
  8
1
  6
CONTINUOUS
 62
     2
100
AcDbLine
 10
88.926902
 20
91.790115
 30
0.0
 11
88.218758
 21
71.800255
 31
0.0
  0
LINE
  5
159
330
1F
100
AcDbEntity
  8
1
  6
CONTINUOUS
 62
     2
100
AcDbLine
 10
112.764293
 20
41.382489
 30
0.0
 11
112.056149
 21
21.392629
 31
0.0
  0
LINE
  5
15A
330
1F
100
AcDbEntity
  8
1
  6
CONTINUOUS
 62
     2
100
AcDbLine
 10
80.13787
 20
68.482019
 30
0.0
 11
80.846014
 21
88.471879
 31
0.0
  0
LINE
  5
15B
330
1F
100
AcDbEntity
  8
1
  6
CONTINUOUS
 62
     2
100
AcDbLine
 10
107.099035
 20
42.366003
 30
0.0
 11
103.089046
 21
43.062155
 31
0.0
  0
LINE
  5
15C
330
1F
100
AcDbEntity
  8
1
  6
CONTINUOUS
 62
     2
100
AcDbLine
 10
107.067575
 20
41.476213
 30
0.0
 11
102.712368
 21
42.232296
 31
0.0
  0
LINE
  5
15D
330
1F
100
AcDbEntity
  8
1
  6
CONTINUOUS
 62
     2
100
AcDbLine
 10
103.089046
 20
43.062155
 30
0.0
 11
102.712368
 21
42.232296
 31
0.0
  0
LINE
  5
15E
330
1F
100
AcDbEntity
  8
1
  6
CONTINUOUS
 62
     2
100
AcDbLine
 10
83.926745
 20
90.571875
 30
0.0
 11
83.913585
 21
90.200406
 31
0.0
  0
LINE
  5
15F
330
1F
100
AcDbEntity
  8
1
  6
CONTINUOUS
 62
     2
100
AcDbLine
 10
85.039905
 20
91.199107
 30
0.0
 11
84.982097
 21
89.567281
 31
0.0
  0
LINE
  5
160
330
1F
100
AcDbEntity
  8
1
  6
CONTINUOUS
 62
     2
100
AcDbLine
 10
112.764293
 20
41.382489
 30
0.0
 11
108.411778
 21
42.138105
 31
0.0
  0
LINE
  5
161
330
1F
100
AcDbEntity
  8
1
  6
CONTINUOUS
 62
     2
100
AcDbLine
 10
112.387614
 20
40.55263
 30
0.0
 11
108.0351
 21
41.308246
 31
0.0
  0
LINE
  5
162
330
1F
100
AcDbEntity
  8
1
  6
CONTINUOUS
 62
     2
100
AcDbLine
 10
112.387614
 20
40.55263
 30
0.0
 11
112.764293
 21
41.382489
 31
0.0
  0
LINE
  5
163
330
1F
100
AcDbEntity
  8
1
  6
CONTINUOUS
 62
     2
100
AcDbLine
 10
107.125383
 20
43.108038
 30
0.0
 11
107.067575
 21
41.476213
 31
0.0
  0
LINE
  5
164
330
1F
100
AcDbEntity
  8
1
  6
CONTINUOUS
 62
     2
100
AcDbLine
 10
84.982097
 20
89.567281
 30
0.0
 11
83.913585
 21
90.200406
 31
0.0
  0
LINE
  5
165
330
1F
100
AcDbEntity
  8
1
  6
CONTINUOUS
 62
     2
100
AcDbLine
 10
83.913585
 20
90.200406
 30
0.0
 11
80.846014
 21
88.471879
 31
0.0
  0
LINE
  5
166
330
1F
100
AcDbEntity
  8
1
  6
CONTINUOUS
 62
     2
100
AcDbLine
 10
84.982097
 20
89.567281
 30
0.0
 11
81.914526
 21
87.838755
 31
0.0
  0
LINE
  5
167
330
1F
100
AcDbEntity
  8
1
  6
CONTINUOUS
 62
     2
100
AcDbLine
 10
81.914526
 20
87.838755
 30
0.0
 11
80.846014
 21
88.471879
 31
0.0
  0
LINE
  5
168
330
1F
100
AcDbEntity
  8
1
  6
CONTINUOUS
 62
     2
100
AcDbLine
 10
108.411778
 20
42.138105
 30
0.0
 11
108.0351
 21
41.308246
 31
0.0
  0
LINE
  5
169
330
1F
100
AcDbEntity
  8
1
  6
CONTINUOUS
 62
     2
100
AcDbLine
 10
108.411778
 20
42.138105
 30
0.0
 11
108.438065
 21
42.880152
 31
0.0
  0
LINE
  5
16A
330
1F
100
AcDbEntity
  8
1
  6
CONTINUOUS
 62
     2
100
AcDbLine
 10
108.0351
 20
41.308246
 30
0.0
 11
108.092907
 21
42.940072
 31
0.0
  0
LINE
  5
16B
330
1F
100
AcDbEntity
  8
1
  6
CONTINUOUS
 62
     2
100
AcDbLine
 10
168.525063
 20
72.802779
 30
0.0
 11
167.326771
 21
75.336741
 31
0.0
  0
LINE
  5
16C
330
1F
100
AcDbEntity
  8
1
  6
CONTINUOUS
 62
     2
100
AcDbLine
 10
169.970253
 20
72.999514
 30
0.0
 11
169.24875
 21
74.525236
 31
0.0
  0
LINE
  5
16D
330
1F
100
AcDbEntity
  8
1
  6
CONTINUOUS
 62
     2
100
AcDbLine
 10
169.970253
 20
72.999514
 30
0.0
 11
168.525063
 21
72.802779
 31
0.0
  0
LINE
  5
16E
330
1F
100
AcDbEntity
  8
1
  6
CONTINUOUS
 62
     2
100
AcDbLine
 10
167.326771
 20
75.336741
 30
0.0
 11
168.106067
 21
75.442827
 31
0.0
  0
LINE
  5
16F
330
1F
100
AcDbEntity
  8
1
  6
CONTINUOUS
 62
     2
100
AcDbLine
 10
167.326771
 20
75.336741
 30
0.0
 11
167.384579
 21
76.968566
 31
0.0
  0
LINE
  5
170
330
1F
100
AcDbEntity
  8
1
  6
CONTINUOUS
 62
     2
100
AcDbLine
 10
85.683335
 20
89.962417
 30
0.0
 11
85.741143
 21
91.594243
 31
0.0
  0
LINE
  5
171
330
1F
100
AcDbEntity
  8
1
  6
CONTINUOUS
 62
     2
100
AcDbLine
 10
167.118292
 20
77.531669
 30
0.0
 11
167.060484
 21
75.899844
 31
0.0
  0
LINE
  5
172
330
1F
100
AcDbEntity
  8
1
  6
CONTINUOUS
 62
     2
100
AcDbLine
 10
167.060484
 20
75.899844
 30
0.0
 11
165.862192
 21
78.433805
 31
0.0
  0
LINE
  5
173
330
1F
100
AcDbEntity
  8
1
  6
CONTINUOUS
 62
     2
100
AcDbLine
 10
165.862192
 20
78.433805
 30
0.0
 11
166.641489
 21
78.539891
 31
0.0
  0
LINE
  5
174
330
1F
100
AcDbEntity
  8
1
  6
CONTINUOUS
 62
     2
100
AcDbLine
 10
87.85839
 20
92.423239
 30
0.0
 11
85.728025
 21
91.222813
 31
0.0
  0
LINE
  5
175
330
1F
100
AcDbEntity
  8
1
  6
CONTINUOUS
 62
     2
100
AcDbLine
 10
88.926902
 20
91.790115
 30
0.0
 11
85.683335
 21
89.962417
 31
0.0
  0
LINE
  5
176
330
1F
100
AcDbEntity
  8
1
  6
CONTINUOUS
 62
     2
100
AcDbLine
 10
87.85839
 20
92.423239
 30
0.0
 11
88.926902
 21
91.790115
 31
0.0
  0
LINE
  5
177
330
1F
100
AcDbEntity
  8
1
  6
CONTINUOUS
 62
     2
100
AcDbLine
 10
112.8221
 20
43.014315
 30
0.0
 11
112.445422
 21
42.184456
 31
0.0
  0
LINE
  5
178
330
1F
100
AcDbEntity
  8
1
  6
CONTINUOUS
 62
     2
100
AcDbLine
 10
108.092907
 20
42.940072
 30
0.0
 11
112.445422
 21
42.184456
 31
0.0
  0
LINE
  5
179
330
1F
100
AcDbEntity
  8
1
  6
CONTINUOUS
 62
     2
100
AcDbLine
 10
168.58287
 20
74.434605
 30
0.0
 11
170.028061
 21
74.631339
 31
0.0
  0
LINE
  5
17A
330
1F
100
AcDbEntity
  8
1
  6
CONTINUOUS
 62
     2
100
AcDbLine
 10
167.384579
 20
76.968566
 30
0.0
 11
168.58287
 21
74.434605
 31
0.0
  0
LINE
  5
17B
330
1F
100
AcDbEntity
  8
1
  6
CONTINUOUS
 62
     2
100
AcDbLine
 10
85.741143
 20
91.594243
 30
0.0
 11
88.98471
 21
93.42194
 31
0.0
  0
LINE
  5
17C
330
1F
100
AcDbEntity
  8
1
  6
CONTINUOUS
 62
     2
100
AcDbLine
 10
102.770176
 20
43.864122
 30
0.0
 11
107.125383
 21
43.108038
 31
0.0
  0
LINE
  5
17D
330
1F
100
AcDbEntity
  8
1
  6
CONTINUOUS
 62
     2
100
AcDbLine
 10
80.903822
 20
90.103704
 30
0.0
 11
81.972334
 21
89.47058
 31
0.0
  0
LINE
  5
17E
330
1F
100
AcDbEntity
  8
1
  6
CONTINUOUS
 62
     2
100
AcDbLine
 10
81.972334
 20
89.47058
 30
0.0
 11
85.039905
 21
91.199107
 31
0.0
  0
LINE
  5
17F
330
1F
100
AcDbEntity
  8
1
  6
CONTINUOUS
 62
     2
100
AcDbLine
 10
165.92
 20
80.065631
 30
0.0
 11
167.118292
 21
77.531669
 31
0.0
  0
LINE
  5
180
330
1F
100
AcDbEntity
  8
1
  6
CONTINUOUS
 62
     2
100
AcDbLine
 10
104.067204
 20
52.997559
 30
0.0
 11
102.810641
 21
45.006399
 31
0.0
  0
LINE
  5
181
330
1F
100
AcDbEntity
  8
1
  6
CONTINUOUS
 62
     2
100
AcDbLine
 10
112.862566
 20
44.156592
 30
0.0
 11
112.485887
 21
43.326733
 31
0.0
  0
LINE
  5
182
330
1F
100
AcDbEntity
  8
1
  6
CONTINUOUS
 62
     2
100
AcDbLine
 10
112.184079
 20
52.483686
 30
0.0
 11
112.862566
 21
44.156592
 31
0.0
  0
LINE
  5
183
330
1F
100
AcDbEntity
  8
1
  6
CONTINUOUS
 62
     2
100
AcDbLine
 10
112.485887
 20
43.326733
 30
0.0
 11
111.807401
 21
51.653827
 31
0.0
  0
LINE
  5
184
330
1F
100
AcDbEntity
  8
1
  6
CONTINUOUS
 62
     2
100
AcDbLine
 10
89.025175
 20
94.564218
 30
0.0
 11
88.612976
 21
102.328208
 31
0.0
  0
LINE
  5
185
330
1F
100
AcDbEntity
  8
1
  6
CONTINUOUS
 62
     2
100
AcDbLine
 10
82.012799
 20
90.612858
 30
0.0
 11
80.944287
 21
91.245982
 31
0.0
  0
LINE
  5
186
330
1F
100
AcDbEntity
  8
1
  6
CONTINUOUS
 62
     2
100
AcDbLine
 10
80.944287
 20
91.245982
 30
0.0
 11
81.934563
 21
99.800245
 31
0.0
  0
LINE
  5
187
330
1F
100
AcDbEntity
  8
1
  6
CONTINUOUS
 62
     2
100
AcDbLine
 10
83.003075
 20
99.16712
 30
0.0
 11
82.012799
 21
90.612858
 31
0.0
  0
LINE
  5
188
330
1F
100
AcDbEntity
  8
1
  6
CONTINUOUS
 62
     2
100
AcDbLine
 10
170.074307
 20
75.936799
 30
0.0
 11
168.629116
 21
75.740065
 31
0.0
  0
LINE
  5
189
330
1F
100
AcDbEntity
  8
1
  6
CONTINUOUS
 62
     2
100
AcDbLine
 10
168.629116
 20
75.740065
 30
0.0
 11
168.651868
 21
84.462294
 31
0.0
  0
LINE
  5
18A
330
1F
100
AcDbEntity
  8
1
  6
CONTINUOUS
 62
     2
100
AcDbLine
 10
170.097058
 20
84.659029
 30
0.0
 11
170.074307
 21
75.936799
 31
0.0
  0
LINE
  5
18B
330
1F
100
AcDbEntity
  8
1
  6
CONTINUOUS
 62
     2
100
AcDbLine
 10
166.521571
 20
88.967115
 30
0.0
 11
165.966246
 21
81.371091
 31
0.0
  0
LINE
  5
18C
330
1F
100
AcDbEntity
  8
1
  6
CONTINUOUS
 62
     2
100
AcDbLine
 10
81.934563
 20
99.800245
 30
0.0
 11
83.003075
 21
99.16712
 31
0.0
  0
LINE
  5
18D
330
1F
100
AcDbEntity
  8
1
  6
CONTINUOUS
 62
     2
100
AcDbLine
 10
88.612976
 20
102.328208
 30
0.0
 11
87.544464
 21
102.961333
 31
0.0
  0
LINE
  5
18E
330
1F
100
AcDbEntity
  8
1
  6
CONTINUOUS
 62
     2
100
AcDbLine
 10
111.807401
 20
51.653827
 30
0.0
 11
112.184079
 21
52.483686
 31
0.0
  0
LINE
  5
18F
330
1F
100
AcDbEntity
  8
1
  6
CONTINUOUS
 62
     2
100
AcDbLine
 10
104.443882
 20
53.827418
 30
0.0
 11
104.067204
 21
52.997559
 31
0.0
  0
LINE
  5
190
330
1F
100
AcDbEntity
  8
1
  6
CONTINUOUS
 62
     2
100
AcDbLine
 10
167.966762
 20
89.163849
 30
0.0
 11
166.521571
 21
88.967115
 31
0.0
  0
LINE
  5
191
330
1F
100
AcDbEntity
  8
1
  6
CONTINUOUS
 62
     2
100
AcDbLine
 10
168.651868
 20
84.462294
 30
0.0
 11
170.097058
 21
84.659029
 31
0.0
  0
LINE
  5
192
330
1F
100
AcDbEntity
  8
256
  6
CONTINUOUS
 62
     2
100
AcDbLine
 10
15.0
 20
287.0
 30
0.0
 11
405.0
 21
287.0
 31
0.0
  0
LINE
  5
194
330
1F
100
AcDbEntity
  8
256
  6
CONTINUOUS
 62
     2
100
AcDbLine
 10
400.0
 20
100.0
 30
0.0
 11
400.0
 21
287.0
 31
0.0
  0
LINE
  5
195
330
1F
100
AcDbEntity
  8
256
  6
CONTINUOUS
 62
     3
100
AcDbLine
 10
375.0
 20
287.0
 30
0.0
 11
375.0
 21
100.0
 31
0.0
  0
LINE
  5
196
330
1F
100
AcDbEntity
  8
256
  6
CONTINUOUS
 62
     2
100
AcDbLine
 10
370.0
 20
287.0
 30
0.0
 11
370.0
 21
100.0
 31
0.0
  0
LINE
  5
197
330
1F
100
AcDbEntity
  8
256
  6
CONTINUOUS
 62
     2
100
AcDbLine
 10
15.0
 20
287.0
 30
0.0
 11
15.0
 21
10.0
 31
0.0
  0
LINE
  5
198
330
1F
100
AcDbEntity
  8
256
  6
CONTINUOUS
 62
     3
100
AcDbLine
 10
205.0
 20
297.0
 30
0.0
 11
205.0
 21
287.0
 31
0.0
  0
LINE
  5
199
330
1F
100
AcDbEntity
  8
256
  6
CONTINUOUS
 62
     3
100
AcDbLine
 10
395.0
 20
287.0
 30
0.0
 11
395.0
 21
100.0
 31
0.0
  0
LINE
  5
19A
330
1F
100
AcDbEntity
  8
256
  6
CONTINUOUS
 62
     2
100
AcDbLine
 10
15.0
 20
10.0
 30
0.0
 11
405.0
 21
10.0
 31
0.0
  0
LINE
  5
19B
330
1F
100
AcDbEntity
  8
256
  6
CONTINUOUS
 62
     3
100
AcDbLine
 10
380.0
 20
287.0
 30
0.0
 11
380.0
 21
100.0
 31
0.0
  0
LINE
  5
19C
330
1F
100
AcDbEntity
  8
256
  6
CONTINUOUS
 62
     3
100
AcDbLine
 10
-0.04
 20
148.5
 30
0.0
 11
15.0
 21
148.5
 31
0.0
  0
LINE
  5
19D
330
1F
100
AcDbEntity
  8
256
  6
CONTINUOUS
 62
     3
100
AcDbLine
 10
205.0
 20
0.0
 30
0.0
 11
205.0
 21
10.0
 31
0.0
  0
LINE
  5
19E
330
1F
100
AcDbEntity
  8
256
  6
CONTINUOUS
 62
     3
100
AcDbLine
 10
390.0
 20
287.0
 30
0.0
 11
390.0
 21
100.0
 31
0.0
  0
LINE
  5
19F
330
1F
100
AcDbEntity
  8
256
  6
CONTINUOUS
 62
     2
100
AcDbLine
 10
405.0
 20
10.0
 30
0.0
 11
405.0
 21
287.0
 31
0.0
  0
LINE
  5
1A0
330
1F
100
AcDbEntity
  8
256
  6
CONTINUOUS
 62
     3
100
AcDbLine
 10
385.0
 20
287.0
 30
0.0
 11
385.0
 21
100.0
 31
0.0
  0
LINE
  5
1A1
330
1F
100
AcDbEntity
  8
256
  6
CONTINUOUS
 62
     3
100
AcDbLine
 10
0.0
 20
297.0
 30
0.0
 11
415.0
 21
297.0
 31
0.0
  0
LINE
  5
1A2
330
1F
100
AcDbEntity
  8
256
  6
CONTINUOUS
 62
     3
100
AcDbLine
 10
415.0
 20
0.0
 30
0.0
 11
415.0
 21
297.0
 31
0.0
  0
LINE
  5
1A3
330
1F
100
AcDbEntity
  8
256
  6
CONTINUOUS
 62
     3
100
AcDbLine
 10
0.0
 20
0.0
 30
0.0
 11
415.0
 21
0.0
 31
0.0
  0
LINE
  5
1A4
330
1F
100
AcDbEntity
  8
256
  6
CONTINUOUS
 62
     3
100
AcDbLine
 10
0.0
 20
297.0
 30
0.0
 11
0.0
 21
0.0
 31
0.0
  0
LINE
  5
1A5
330
1F
100
AcDbEntity
  8
256
  6
CONTINUOUS
 62
     2
100
AcDbLine
 10
325.0
 20
67.5
 30
0.0
 11
405.0
 21
67.5
 31
0.0
  0
LINE
  5
1A6
330
1F
100
AcDbEntity
  8
256
  6
CONTINUOUS
 62
     2
100
AcDbLine
 10
267.5
 20
51.0
 30
0.0
 11
365.0
 21
51.0
 31
0.0
  0
LINE
  5
1A7
330
1F
100
AcDbEntity
  8
256
  6
CONTINUOUS
 62
     3
100
AcDbLine
 10
383.0
 20
56.579805
 30
0.0
 11
383.0
 21
49.500705
 31
0.0
  0
LINE
  5
1A8
330
1F
100
AcDbEntity
  8
256
  6
CONTINUOUS
 62
     3
100
AcDbLine
 10
256.875
 20
22.0
 30
0.0
 11
256.875
 21
10.0
 31
0.0
  0
LINE
  5
1A9
330
1F
100
AcDbEntity
  8
256
  6
CONTINUOUS
 62
     2
100
AcDbLine
 10
225.0
 20
100.0
 30
0.0
 11
405.0
 21
100.0
 31
0.0
  0
LINE
  5
1AA
330
1F
100
AcDbEntity
  8
256
  6
CONTINUOUS
 62
     3
100
AcDbLine
 10
325.0
 20
62.0
 30
0.0
 11
365.0
 21
62.0
 31
0.0
  0
LINE
  5
1AB
330
1F
100
AcDbEntity
  8
256
  6
CONTINUOUS
 62
     3
100
AcDbLine
 10
383.0
 20
49.500705
 30
0.0
 11
374.97
 21
51.256405
 31
0.0
  0
LINE
  5
1AC
330
1F
100
AcDbEntity
  8
256
  6
CONTINUOUS
 62
     2
100
AcDbLine
 10
225.0
 20
10.0
 30
0.0
 11
405.0
 21
10.0
 31
0.0
  0
LINE
  5
1AD
330
1F
100
AcDbEntity
  8
256
  6
CONTINUOUS
 62
     2
100
AcDbLine
 10
267.5
 20
44.0
 30
0.0
 11
405.0
 21
44.0
 31
0.0
  0
LINE
  5
1AE
330
1F
100
AcDbEntity
  8
256
  6
CONTINUOUS
 62
     3
100
AcDbLine
 10
374.97
 20
54.824205
 30
0.0
 11
374.97
 21
51.256405
 31
0.0
  0
LINE
  5
1AF
330
1F
100
AcDbEntity
  8
256
  6
CONTINUOUS
 62
     2
100
AcDbLine
 10
225.0
 20
28.0
 30
0.0
 11
267.5
 21
28.0
 31
0.0
  0
LINE
  5
1B0
330
1F
100
AcDbEntity
  8
256
  6
CENTER
 62
     3
100
AcDbLine
 10
391.579
 20
57.640305
 30
0.0
 11
391.579
 21
48.487505
 31
0.0
  0
LINE
  5
1B1
330
1F
100
AcDbEntity
  8
256
  6
CONTINUOUS
 62
     3
100
AcDbLine
 10
383.0
 20
56.579805
 30
0.0
 11
374.97
 21
54.824205
 31
0.0
  0
LINE
  5
1B2
330
1F
100
AcDbEntity
  8
256
  6
CONTINUOUS
 62
     3
100
AcDbLine
 10
325.0
 20
56.5
 30
0.0
 11
365.0
 21
56.5
 31
0.0
  0
LINE
  5
1B3
330
1F
100
AcDbEntity
  8
256
  6
CENTER
 62
     3
100
AcDbLine
 10
386.745
 20
53.040305
 30
0.0
 11
396.158
 21
53.040305
 31
0.0
  0
LINE
  5
1B4
330
1F
100
AcDbEntity
  8
256
  6
CONTINUOUS
 62
     2
100
AcDbLine
 10
365.0
 20
67.5
 30
0.0
 11
365.0
 21
10.0
 31
0.0
  0
LINE
  5
1B5
330
1F
100
AcDbEntity
  8
256
  6
CONTINUOUS
 62
     3
100
AcDbLine
 10
365.0
 20
28.0
 30
0.0
 11
405.0
 21
28.0
 31
0.0
  0
LINE
  5
1B6
330
1F
100
AcDbEntity
  8
256
  6
CONTINUOUS
 62
     3
100
AcDbLine
 10
345.0
 20
51.0
 30
0.0
 11
345.0
 21
67.5
 31
0.0
  0
LINE
  5
1B7
330
1F
100
AcDbEntity
  8
256
  6
CONTINUOUS
 62
     2
100
AcDbLine
 10
225.0
 20
100.0
 30
0.0
 11
225.0
 21
10.0
 31
0.0
  0
LINE
  5
1B8
330
1F
100
AcDbEntity
  8
256
  6
CONTINUOUS
 62
     3
100
AcDbLine
 10
225.0
 20
35.9
 30
0.0
 11
267.5
 21
35.9
 31
0.0
  0
LINE
  5
1B9
330
1F
100
AcDbEntity
  8
256
  6
CONTINUOUS
 62
     3
100
AcDbLine
 10
246.25
 20
16.0
 30
0.0
 11
267.5
 21
16.0
 31
0.0
  0
LINE
  5
1BA
330
1F
100
AcDbEntity
  8
256
  6
CONTINUOUS
 62
     2
100
AcDbLine
 10
225.0
 20
58.0
 30
0.0
 11
267.5
 21
58.0
 31
0.0
  0
LINE
  5
1BB
330
1F
100
AcDbEntity
  8
256
  6
CONTINUOUS
 62
     3
100
AcDbLine
 10
267.5
 20
43.8
 30
0.0
 11
225.0
 21
43.8
 31
0.0
  0
LINE
  5
1BC
330
1F
100
AcDbEntity
  8
256
  6
CONTINUOUS
 62
     3
100
AcDbLine
 10
307.189666
 20
60.322391
 30
0.0
 11
305.409666
 21
59.762391
 31
0.0
  0
LINE
  5
1BD
330
1F
100
AcDbEntity
  8
256
  6
CONTINUOUS
 62
     3
100
AcDbLine
 10
225.0
 20
71.88581
 30
0.0
 11
267.5
 21
71.88581
 31
0.0
  0
LINE
  5
1BE
330
1F
100
AcDbEntity
  8
256
  6
CONTINUOUS
 62
     2
100
AcDbLine
 10
225.0
 20
79.88581
 30
0.0
 11
325.0
 21
79.88581
 31
0.0
  0
LINE
  5
1BF
330
1F
100
AcDbEntity
  8
256
  6
CONTINUOUS
 62
     3
100
AcDbLine
 10
307.189666
 20
60.322391
 30
0.0
 11
305.409666
 21
60.882391
 31
0.0
  0
LINE
  5
1C0
330
1F
100
AcDbEntity
  8
256
  6
CONTINUOUS
 62
     2
100
AcDbLine
 10
267.5
 20
58.0
 30
0.0
 11
325.0
 21
58.0
 31
0.0
  0
LINE
  5
1C1
330
1F
100
AcDbEntity
  8
256
  6
CONTINUOUS
 62
     3
100
AcDbLine
 10
267.5
 20
51.0
 30
0.0
 11
225.0
 21
51.0
 31
0.0
  0
LINE
  5
1C2
330
1F
100
AcDbEntity
  8
256
  6
CONTINUOUS
 62
     3
100
AcDbLine
 10
297.599666
 20
71.897391
 30
0.0
 11
297.599666
 21
58.842391
 31
0.0
  0
LINE
  5
1C3
330
1F
100
AcDbEntity
  8
256
  6
CONTINUOUS
 62
     2
100
AcDbLine
 10
256.875
 20
22.0
 30
0.0
 11
246.25
 21
22.0
 31
0.0
  0
LINE
  5
1C4
330
1F
100
AcDbEntity
  8
256
  6
CONTINUOUS
 62
     2
100
AcDbLine
 10
225.0
 20
87.88581
 30
0.0
 11
325.0
 21
87.88581
 31
0.0
  0
LINE
  5
1C5
330
1F
100
AcDbEntity
  8
256
  6
CONTINUOUS
 62
     3
100
AcDbLine
 10
251.563
 20
22.0
 30
0.0
 11
251.563
 21
10.0
 31
0.0
  0
LINE
  5
1C6
330
1F
100
AcDbEntity
  8
256
  6
CENTER
 62
     3
100
AcDbLine
 10
373.719
 20
53.040305
 30
0.0
 11
384.383
 21
53.040305
 31
0.0
  0
LINE
  5
1C7
330
1F
100
AcDbEntity
  8
256
  6
CONTINUOUS
 62
     2
100
AcDbLine
 10
325.0
 20
51.0
 30
0.0
 11
325.0
 21
100.0
 31
0.0
  0
LINE
  5
1C8
330
1F
100
AcDbEntity
  8
256
  6
CONTINUOUS
 62
     2
100
AcDbLine
 10
246.25
 20
28.0
 30
0.0
 11
246.25
 21
10.0
 31
0.0
  0
LINE
  5
1C9
330
1F
100
AcDbEntity
  8
256
  6
CONTINUOUS
 62
     3
100
AcDbLine
 10
262.188
 20
28.0
 30
0.0
 11
262.188
 21
10.0
 31
0.0
  0
LINE
  5
1CA
330
1F
100
AcDbEntity
  8
256
  6
CONTINUOUS
 62
     2
100
AcDbLine
 10
246.25
 20
58.0
 30
0.0
 11
246.25
 21
27.9773
 31
0.0
  0
LINE
  5
1CB
330
1F
100
AcDbEntity
  8
256
  6
CONTINUOUS
 62
     3
100
AcDbLine
 10
365.0
 20
36.0
 30
0.0
 11
405.0
 21
36.0
 31
0.0
  0
LINE
  5
1CC
330
1F
100
AcDbEntity
  8
256
  6
CONTINUOUS
 62
     3
100
AcDbLine
 10
256.875
 20
22.0
 30
0.0
 11
267.5
 21
22.0
 31
0.0
  0
LINE
  5
1CD
330
1F
100
AcDbEntity
  8
256
  6
CONTINUOUS
 62
     2
100
AcDbLine
 10
267.5
 20
10.0
 30
0.0
 11
267.5
 21
79.88581
 31
0.0
  0
LINE
  5
1CE
330
1F
100
AcDbEntity
  8
256
  6
CONTINUOUS
 62
     2
100
AcDbLine
 10
256.875
 20
22.0
 30
0.0
 11
256.875
 21
28.0
 31
0.0
  0
LINE
  5
1CF
330
1F
100
AcDbEntity
  8
256
  6
CONTINUOUS
 62
     2
100
AcDbLine
 10
370.0
 20
107.0
 30
0.0
 11
405.0
 21
107.0
 31
0.0
  0
LINE
  5
1D0
102
{ACAD_REACTORS
330
2D4
102
}
330
1F
100
AcDbEntity
  8
255
  6
CONTINUOUS
 62
     3
100
AcDbLine
 10
157.939233
 20
206.385097
 30
0.0
 11
196.339233
 21
206.385097
 31
0.0
  0
LINE
  5
1D1
102
{ACAD_REACTORS
330
2D4
102
}
330
1F
100
AcDbEntity
  8
255
  6
CONTINUOUS
 62
     3
100
AcDbLine
 10
196.339233
 20
215.62437
 30
0.0
 11
196.339233
 21
204.385097
 31
0.0
  0
LINE
  5
1D2
102
{ACAD_REACTORS
330
2D4
102
}
330
1F
100
AcDbEntity
  8
255
  6
CONTINUOUS
 62
     3
100
AcDbLine
 10
157.939233
 20
228.565322
 30
0.0
 11
157.939233
 21
204.385097
 31
0.0
  0
LINE
  5
1D3
330
1F
100
AcDbEntity
  8
255
  6
CONTINUOUS
 62
     3
 60
     1
100
AcDbLine
 10
196.339233
 20
206.385097
 30
0.0
 11
192.839236
 21
205.447275
 31
0.0
  0
LINE
  5
1D4
330
1F
100
AcDbEntity
  8
255
  6
CONTINUOUS
 62
     3
 60
     1
100
AcDbLine
 10
192.839236
 20
205.447275
 30
0.0
 11
192.839229
 21
207.322919
 31
0.0
  0
LINE
  5
1D5
330
1F
100
AcDbEntity
  8
255
  6
CONTINUOUS
 62
     3
 60
     1
100
AcDbLine
 10
192.839229
 20
207.322919
 30
0.0
 11
196.339233
 21
206.385097
 31
0.0
  0
LINE
  5
1D6
330
1F
100
AcDbEntity
  8
255
  6
CONTINUOUS
 62
     3
 60
     1
100
AcDbLine
 10
157.939233
 20
206.385097
 30
0.0
 11
161.439229
 21
207.322919
 31
0.0
  0
LINE
  5
1D7
330
1F
100
AcDbEntity
  8
255
  6
CONTINUOUS
 62
     3
 60
     1
100
AcDbLine
 10
161.439229
 20
207.322919
 30
0.0
 11
161.439236
 21
205.447275
 31
0.0
  0
LINE
  5
1D8
330
1F
100
AcDbEntity
  8
255
  6
CONTINUOUS
 62
     3
 60
     1
100
AcDbLine
 10
161.439236
 20
205.447275
 30
0.0
 11
157.939233
 21
206.385097
 31
0.0
  0
LINE
  5
1D9
330
1F
100
AcDbEntity
  8
255
  6
CONTINUOUS
 62
   172
 60
     1
100
AcDbLine
 10
171.339233
 20
231.316018
 30
0.0
 11
171.339233
 21
231.315018
 31
0.0
  0
CIRCLE
  5
1DA
330
1F
100
AcDbEntity
  8
1
  6
CONTINUOUS
 62
     2
100
AcDbCircle
 10
99.927649
 20
228.565322
 30
0.0
 40
43.50000000000001
  0
ARC
  5
1DB
330
1F
100
AcDbEntity
  8
1
  6
CONTINUOUS
 62
     2
100
AcDbCircle
 10
51.631358
 20
115.121879
 30
0.0
 40
2.0
100
AcDbArc
 50
180.0
 51
270.0
  0
ARC
  5
1DC
330
1F
100
AcDbEntity
  8
1
  6
CONTINUOUS
 62
     2
100
AcDbCircle
 10
51.631358
 20
115.121879
 30
0.0
 40
0.5
100
AcDbArc
 50
180.0
 51
270.0
  0
CIRCLE
  5
1DD
330
1F
100
AcDbEntity
  8
1
  6
CONTINUOUS
 62
     2
100
AcDbCircle
 10
175.839233
 20
228.565322
 30
0.0
 40
1.65
  0
CIRCLE
  5
1DE
330
1F
100
AcDbEntity
  8
255
  6
CONTINUOUS
 62
   150
100
AcDbCircle
 10
239.170187
 20
197.059893
 30
0.0
 40
1.65
  0
CIRCLE
  5
1DF
330
1F
100
AcDbEntity
  8
255
  6
CONTINUOUS
 62
   150
100
AcDbCircle
 10
309.02942
 20
197.059893
 30
0.0
 40
43.50000000000001
  0
CIRCLE
  5
1E0
330
1F
100
AcDbEntity
  8
255
  6
CONTINUOUS
 62
   150
100
AcDbCircle
 10
343.953474
 20
136.55681
 30
0.0
 40
1.65
  0
CIRCLE
  5
1E1
330
1F
100
AcDbEntity
  8
255
  6
CONTINUOUS
 62
   150
100
AcDbCircle
 10
344.229291
 20
257.403733
 30
0.0
 40
1.65
  0
CIRCLE
  5
1E2
330
1F
100
AcDbEntity
  8
256
  6
CONTINUOUS
 62
     3
100
AcDbCircle
 10
391.579
 20
53.040305
 30
0.0
 40
1.78392
  0
CIRCLE
  5
1E3
330
1F
100
AcDbEntity
  8
256
  6
CONTINUOUS
 62
     3
100
AcDbCircle
 10
294.709666
 20
61.202391
 30
0.0
 40
0.197989
  0
CIRCLE
  5
1E4
330
1F
100
AcDbEntity
  8
256
  6
CONTINUOUS
 62
     3
100
AcDbCircle
 10
391.579
 20
53.040305
 30
0.0
 40
3.53955
  0
ELLIPSE
  5
1E5
330
1F
100
AcDbEntity
  8
1
  6
CONTINUOUS
 62
     2
100
AcDbEllipse
 10
119.745668
 20
115.121879
 30
0.0
 11
-7.070268080306770E-17
 21
-2.0
 31
0.0
210
0.0
220
0.0
230
1.0
 40
0.5
 41
0.0
 42
1.570796326794896
  0
ELLIPSE
  5
1E6
330
1F
100
AcDbEntity
  8
1
  6
CONTINUOUS
 62
     2
100
AcDbEllipse
 10
128.405922
 20
115.121879
 30
0.0
 11
1.224606353822377E-16
 21
2.0
 31
0.0
210
0.0
220
0.0
230
1.0
 40
0.5
 41
3.141592653589775
 42
4.712388980384672
  0
ELLIPSE
  5
1E7
330
1F
100
AcDbEntity
  8
1
  6
CONTINUOUS
 62
     2
100
AcDbEllipse
 10
119.745668
 20
115.121879
 30
0.0
 11
-1.767567020076693E-17
 21
-0.5
 31
0.0
210
0.0
220
0.0
230
1.0
 40
0.5
 41
0.0
 42
1.570796326794893
  0
ELLIPSE
  5
1E8
330
1F
100
AcDbEntity
  8
1
  6
CONTINUOUS
 62
     2
100
AcDbEllipse
 10
124.596049
 20
135.121879
 30
0.0
 11
1.010300241903461E-16
 21
1.65
 31
0.0
210
0.0
220
0.0
230
1.0
 40
0.866025
 41
3.407056898086206
 42
6.017622318918125
  0
ELLIPSE
  5
1E9
330
1F
100
AcDbEntity
  8
1
  6
CONTINUOUS
 62
     2
100
AcDbEllipse
 10
125.346049
 20
135.121879
 30
0.0
 11
1.010300241903461E-16
 21
1.65
 31
0.0
210
0.0
220
0.0
230
1.0
 40
0.866025
 41
0.0
 42
6.283185307179586
  0
ELLIPSE
  5
1EA
330
1F
100
AcDbEntity
  8
1
  6
CONTINUOUS
 62
     2
100
AcDbEllipse
 10
124.320232
 20
135.121879
 30
0.0
 11
1.010300241903461E-16
 21
1.65
 31
0.0
210
0.0
220
0.0
230
1.0
 40
0.866025
 41
3.508766214525062
 42
5.916109937595134
  0
ELLIPSE
  5
1EB
330
1F
100
AcDbEntity
  8
1
  6
CONTINUOUS
 62
     2
100
AcDbEllipse
 10
195.839233
 20
272.891137
 30
0.0
 11
-2.0
 21
-2.121080424092023E-16
 31
0.0
210
0.0
220
0.0
230
1.0
 40
0.866025
 41
4.459687065705608
 42
4.712388980384688
  0
ELLIPSE
  5
1EC
330
1F
100
AcDbEntity
  8
1
  6
CONTINUOUS
 62
     2
100
AcDbEllipse
 10
195.839233
 20
184.239507
 30
0.0
 11
2.0
 21
0.0
 31
0.0
210
0.0
220
0.0
230
1.0
 40
0.866025
 41
4.71238898038468
 42
4.965090895063757
  0
ELLIPSE
  5
1ED
330
1F
100
AcDbEntity
  8
1
  6
CONTINUOUS
 62
     2
100
AcDbEllipse
 10
195.839233
 20
272.891137
 30
0.0
 11
-0.5
 21
-5.302701060230057E-17
 31
0.0
210
0.0
220
0.0
230
1.0
 40
0.866025
 41
3.141592653589744
 42
4.712388980384686
  0
ELLIPSE
  5
1EE
330
1F
100
AcDbEntity
  8
1
  6
CONTINUOUS
 62
     2
100
AcDbEllipse
 10
195.839233
 20
267.891137
 30
0.0
 11
0.5
 21
0.0
 31
0.0
210
0.0
220
0.0
230
1.0
 40
0.866025
 41
0.0
 42
1.570796326794896
  0
ELLIPSE
  5
1EF
330
1F
100
AcDbEntity
  8
1
  6
CONTINUOUS
 62
     2
100
AcDbEllipse
 10
195.839233
 20
189.239507
 30
0.0
 11
-0.5
 21
-5.302701060230057E-17
 31
0.0
210
0.0
220
0.0
230
1.0
 40
0.866025
 41
1.570796326794901
 42
3.141592653589793
  0
ELLIPSE
  5
1F0
330
1F
100
AcDbEntity
  8
1
  6
CONTINUOUS
 62
     2
100
AcDbEllipse
 10
195.839233
 20
184.239507
 30
0.0
 11
0.5
 21
0.0
 31
0.0
210
0.0
220
0.0
230
1.0
 40
0.866025
 41
4.712388980384691
 42
6.283185307179586
  0
ELLIPSE
  5
1F1
330
1F
100
AcDbEntity
  8
1
  6
CONTINUOUS
 62
     2
100
AcDbEllipse
 10
175.839233
 20
270.668118
 30
0.0
 11
-1.65
 21
-1.749891349875919E-16
 31
0.0
210
0.0
220
0.0
230
1.0
 40
0.5
 41
0.0
 42
6.283185307179586
  0
ELLIPSE
  5
1F2
330
1F
100
AcDbEntity
  8
1
  6
CONTINUOUS
 62
     2
100
AcDbEllipse
 10
175.839233
 20
271.967157
 30
0.0
 11
-1.65
 21
-1.749891349875919E-16
 31
0.0
210
0.0
220
0.0
230
1.0
 40
0.5
 41
0.9064473027491327
 42
2.23524260239956
  0
ELLIPSE
  5
1F3
330
1F
100
AcDbEntity
  8
1
  6
CONTINUOUS
 62
     2
100
AcDbEllipse
 10
175.839233
 20
185.004244
 30
0.0
 11
1.65
 21
0.0
 31
0.0
210
0.0
220
0.0
230
1.0
 40
0.5
 41
0.9064473027491368
 42
2.235242602399564
  0
ELLIPSE
  5
1F4
330
1F
100
AcDbEntity
  8
1
  6
CONTINUOUS
 62
     2
100
AcDbEllipse
 10
175.839233
 20
186.303282
 30
0.0
 11
1.65
 21
0.0
 31
0.0
210
0.0
220
0.0
230
1.0
 40
0.5
 41
0.0
 42
6.283185307179586
  0
ELLIPSE
  5
1F5
330
1F
100
AcDbEntity
  8
1
  6
CONTINUOUS
 62
     2
100
AcDbEllipse
 10
167.335189
 20
52.747341
 30
0.0
 11
1.808029057994194
 21
0.8550034651676155
 31
-5.551115123125784E-17
210
1.360330288121580E-18
220
6.204844389895441E-17
230
0.9999999999999999
 40
0.782309
 41
4.618538614033001
 42
5.898860206678534
  0
ELLIPSE
  5
1F6
330
1F
100
AcDbEntity
  8
1
  6
CONTINUOUS
 62
     2
100
AcDbEllipse
 10
102.506462
 20
23.348915
 30
0.0
 11
-0.3420921121907303
 21
-1.970526068535224
 31
-1.110223024625156E-16
210
-2.316823481186936E-17
220
-5.231934442594233E-17
230
0.9999999999999998
 40
0.1889
 41
5.341021375159565
 42
6.283180423951343
  0
ELLIPSE
  5
1F7
330
1F
100
AcDbEntity
  8
1
  6
CONTINUOUS
 62
     2
100
AcDbEllipse
 10
112.181708
 20
21.669249
 30
0.0
 11
0.3420921121907303
 21
1.970526068535224
 31
1.110223024625156E-16
210
-2.316823481186936E-17
220
-5.231934442594233E-17
230
0.9999999999999998
 40
0.1889
 41
2.199428721569798
 42
3.770225048364695
  0
ELLIPSE
  5
1F8
330
1F
100
AcDbEntity
  8
1
  6
CONTINUOUS
 62
     2
100
AcDbEllipse
 10
119.414386
 20
47.596664
 30
0.0
 11
43.47273069462997
 21
-1.540027906298644
 31
-3.485985494878167E-16
210
9.973994065119667E-18
220
5.519264170949723E-17
230
0.9999999999999999
 40
0.577452
 41
2.908101743742349
 42
3.117213991988933
  0
ELLIPSE
  5
1F9
330
1F
100
AcDbEntity
  8
1
  6
CONTINUOUS
 62
     2
100
AcDbEllipse
 10
119.414386
 20
47.596664
 30
0.0
 11
43.47273069462997
 21
-1.540027906298644
 31
-3.485985494878167E-16
210
9.973994065119667E-18
220
5.519264170949723E-17
230
0.9999999999999999
 40
0.577452
 41
0.0243160341724024
 42
2.908101743742339
  0
ELLIPSE
  5
1FA
330
1F
100
AcDbEntity
  8
1
  6
CONTINUOUS
 62
     2
100
AcDbEllipse
 10
81.562553
 20
67.637853
 30
0.0
 11
0.9818243620027596
 21
-1.742418124956773
 31
1.110223024625157E-16
210
2.111071770044585E-17
220
7.561291834211427E-17
230
1.0
 40
0.593408
 41
3.912297753310578
 42
4.887418742887009
  0
ELLIPSE
  5
1FB
330
1F
100
AcDbEntity
  8
1
  6
CONTINUOUS
 62
     2
100
AcDbEllipse
 10
112.181708
 20
21.669249
 30
0.0
 11
0.08552302804768257
 21
0.492631517133806
 31
2.775557561562891E-17
210
-2.316823481186936E-17
220
-5.231934442594233E-17
230
0.9999999999999998
 40
0.1889
 41
2.199428721569775
 42
3.770225048364673
  0
ELLIPSE
  5
1FC
330
1F
100
AcDbEntity
  8
1
  6
CONTINUOUS
 62
     2
100
AcDbEllipse
 10
167.335189
 20
52.747341
 30
0.0
 11
0.4520072644985484
 21
0.2137508662919039
 31
-1.387778780781446E-17
210
1.360330288121580E-18
220
6.204844389895441E-17
230
0.9999999999999999
 40
0.782309
 41
4.32806387988359
 42
5.898860206678527
  0
ELLIPSE
  5
1FD
330
1F
100
AcDbEntity
  8
1
  6
CONTINUOUS
 62
     2
100
AcDbEllipse
 10
164.672318
 20
58.378367
 30
0.0
 11
-0.4520072644985484
 21
-0.2137508662919039
 31
1.387778780781446E-17
210
1.360330288121580E-18
220
6.204844389895441E-17
230
0.9999999999999999
 40
0.782309
 41
1.186471226293837
 42
2.757267553088746
  0
ELLIPSE
  5
1FE
330
1F
100
AcDbEntity
  8
1
  6
CONTINUOUS
 62
     2
100
AcDbEllipse
 10
88.574929
 20
71.589213
 30
0.0
 11
-0.2454560905006899
 21
0.4356045312391931
 31
-2.775557561562892E-17
210
2.111071770044585E-17
220
7.561291834211427E-17
230
1.0
 40
0.593408
 41
0.7707050997207963
 42
2.341501426515664
  0
ELLIPSE
  5
1FF
330
1F
100
AcDbEntity
  8
1
  6
CONTINUOUS
 62
     2
100
AcDbEllipse
 10
81.562553
 20
67.637853
 30
0.0
 11
0.2454560905006899
 21
-0.4356045312391931
 31
2.775557561562892E-17
210
2.111071770044585E-17
220
7.561291834211427E-17
230
1.0
 40
0.593408
 41
3.912297753310578
 42
5.483094080105494
  0
ELLIPSE
  5
200
330
1F
100
AcDbEntity
  8
1
  6
CONTINUOUS
 62
     2
100
AcDbEllipse
 10
119.457741
 20
48.820533
 30
0.0
 11
-43.47273069462997
 21
1.540027906298644
 31
3.485985494878167E-16
210
9.973994065119667E-18
220
5.519264170949723E-17
230
0.9999999999999999
 40
0.577452
 41
6.049694398351171
 42
6.283185307179586
  0
ELLIPSE
  5
201
330
1F
100
AcDbEntity
  8
1
  6
CONTINUOUS
 62
     2
100
AcDbEllipse
 10
119.457741
 20
48.820533
 30
0.0
 11
-43.47273069462997
 21
1.540027906298644
 31
3.485985494878167E-16
210
9.973994065119667E-18
220
5.519264170949723E-17
230
0.9999999999999999
 40
0.577452
 41
0.0
 42
1.181796569501693
  0
ELLIPSE
  5
202
330
1F
100
AcDbEntity
  8
1
  6
CONTINUOUS
 62
     2
100
AcDbEllipse
 10
119.457741
 20
48.820533
 30
0.0
 11
-43.47273069462997
 21
1.540027906298644
 31
3.485985494878167E-16
210
9.973994065119667E-18
220
5.519264170949723E-17
230
0.9999999999999999
 40
0.577452
 41
1.422619288694833
 42
6.049694398351104
  0
ELLIPSE
  5
203
330
1F
100
AcDbEntity
  8
1
  6
CONTINUOUS
 62
     2
100
AcDbEllipse
 10
107.796602
 20
38.550715
 30
0.0
 11
-1.502466221813606
 21
0.6819789236546451
 31
-4.579669976578770E-17
210
-4.821772727090864E-17
220
-3.907570428799389E-17
230
1.0
 40
0.79427
 41
0.3550318502374905
 42
1.886950780447254
  0
ELLIPSE
  5
204
330
1F
100
AcDbEntity
  8
1
  6
CONTINUOUS
 62
     2
100
AcDbEllipse
 10
107.796602
 20
38.550715
 30
0.0
 11
-1.502466221813606
 21
0.6819789236546451
 31
-4.579669976578770E-17
210
-4.821772727090864E-17
220
-3.907570428799389E-17
230
1.0
 40
0.79427
 41
1.886950780447254
 42
2.786525941909424
  0
ELLIPSE
  5
205
330
1F
100
AcDbEntity
  8
1
  6
CONTINUOUS
 62
     2
100
AcDbEllipse
 10
107.419924
 20
37.720856
 30
0.0
 11
1.502466221813606
 21
-0.6819789236546451
 31
4.579669976578770E-17
210
-4.821772727090864E-17
220
-3.907570428799389E-17
230
1.0
 40
0.79427
 41
0.0
 42
6.283185307179586
  0
ELLIPSE
  5
206
330
1F
100
AcDbEntity
  8
1
  6
CONTINUOUS
 62
     2
100
AcDbEllipse
 10
166.980462
 20
72.122409
 30
0.0
 11
-0.2225625734164476
 21
1.634920762885544
 31
-1.831867990631508E-16
210
-1.497539960162224E-17
220
1.100076772359549E-16
230
1.0
 40
0.233543
 41
0.0
 42
6.283185307179586
  0
ELLIPSE
  5
207
330
1F
100
AcDbEntity
  8
1
  6
CONTINUOUS
 62
     2
100
AcDbEllipse
 10
84.21763
 20
86.773414
 30
0.0
 11
-0.8411071438544563
 21
-1.419520613642858
 31
0.0
210
-5.969638140895199E-18
220
3.537183777590610E-18
230
0.9999999999999998
 40
0.560728
 41
0.7357412838995429
 42
0.7717715704454446
  0
ELLIPSE
  5
208
330
1F
100
AcDbEntity
  8
1
  6
CONTINUOUS
 62
     2
100
AcDbEllipse
 10
84.21763
 20
86.773414
 30
0.0
 11
-0.8411071438544563
 21
-1.419520613642858
 31
0.0
210
-5.969638140895199E-18
220
3.537183777590610E-18
230
0.9999999999999998
 40
0.560728
 41
0.7717715704454433
 42
2.405792443877062
  0
ELLIPSE
  5
209
330
1F
100
AcDbEntity
  8
1
  6
CONTINUOUS
 62
     2
100
AcDbEllipse
 10
85.286143
 20
86.140289
 30
0.0
 11
-0.8411071438544563
 21
-1.419520613642858
 31
0.0
210
-5.969638140895199E-18
220
3.537183777590610E-18
230
0.9999999999999998
 40
0.560728
 41
0.0
 42
6.283185307179586
  0
MTEXT
  5
20A
330
1F
100
AcDbEntity
  8
256
  6
CONTINUOUS
 62
     3
100
AcDbMText
 10
404.150173
 20
172.859201
 30
0.0
 40
2.0
 41
0.0
 71
     7
 72
     5
  1
\W00.772;MODIFICACIONES / 
  7
DEFAULT
 11
4.502122416191745E-15
 21
1.0
 31
0.0
1001
ACAD
1000
MTEXTBEGIN
1070
    73
1070
     2
1070
    44
1040
0.903614
1000
MTEXTEND
1000
ACAD_MTEXT_DEFINED_HEIGHT_BEGIN
1070
    46
1040
0.2
1000
ACAD_MTEXT_DEFINED_HEIGHT_END
  0
MTEXT
  5
20E
330
1F
100
AcDbEntity
  8
255
  6
CONTINUOUS
 62
     3
100
AcDbMText
 10
250.04089
 20
52.115912
 30
0.0
 40
3.0
 41
0.0
 71
     7
 72
     5
  1
\W00.727;C. Alvarez 
  7
DEFAULT
1001
ACAD
1000
MTEXTBEGIN
1070
    73
1070
     2
1070
    44
1040
0.903614
1000
MTEXTEND
1000
ACAD_MTEXT_DEFINED_HEIGHT_BEGIN
1070
    46
1040
0.2
1000
ACAD_MTEXT_DEFINED_HEIGHT_END
  0
MTEXT
  5
20F
330
1F
100
AcDbEntity
  8
256
  6
CONTINUOUS
 62
     3
100
AcDbMText
 10
404.150173
 20
195.041874
 30
0.0
 40
2.0
 41
0.0
 71
     7
 72
     5
  1
\W00.817;\Q20.000000;MODIFICATIONS\Q0; 
  7
DEFAULT
 11
2.503720971866463E-15
 21
1.0
 31
0.0
1001
ACAD
1000
MTEXTBEGIN
1070
    73
1070
     2
1070
    44
1040
0.903614
1000
MTEXTEND
1000
ACAD_MTEXT_DEFINED_HEIGHT_BEGIN
1070
    46
1040
0.2
1000
ACAD_MTEXT_DEFINED_HEIGHT_END
  0
MTEXT
  5
210
330
1F
100
AcDbEntity
  8
256
  6
CONTINUOUS
 62
     3
100
AcDbMText
 10
354.80185
 20
56.431485
 30
0.0
 40
3.5
 41
0.0
 71
     7
 72
     5
  1
\W01.000; 
  7
DEFAULT
1001
ACAD
1000
MTEXTBEGIN
1070
    73
1070
     2
1070
    44
1040
0.903614
1000
MTEXTEND
1000
ACAD_MTEXT_DEFINED_HEIGHT_BEGIN
1070
    46
1040
0.2
1000
ACAD_MTEXT_DEFINED_HEIGHT_END
  0
MTEXT
  5
211
330
1F
100
AcDbEntity
  8
255
  6
CONTINUOUS
 62
     3
100
AcDbMText
 10
287.178019
 20
122.329158
 30
0.0
 40
3.5
 41
0.0
 71
     7
 72
     5
  1
\W00.774;DESARROLLO PLANO 
  7
DEFAULT
1001
ACAD
1000
MTEXTBEGIN
1070
    73
1070
     2
1070
    44
1040
0.903614
1000
MTEXTEND
1000
ACAD_MTEXT_DEFINED_HEIGHT_BEGIN
1070
    46
1040
0.2
1000
ACAD_MTEXT_DEFINED_HEIGHT_END
  0
MTEXT
  5
212
330
1F
100
AcDbEntity
  8
255
  6
CONTINUOUS
 62
     2
100
AcDbMText
 10
373.918738
 20
14.511633
 30
0.0
 40
4.5
 41
0.0
 71
     7
 72
     5
  1
\W01.000; 
  7
DEFAULT
1001
ACAD
1000
MTEXTBEGIN
1070
    73
1070
     2
1070
    44
1040
0.903614
1000
MTEXTEND
1000
ACAD_MTEXT_DEFINED_HEIGHT_BEGIN
1070
    46
1040
0.2
1000
ACAD_MTEXT_DEFINED_HEIGHT_END
  0
MTEXT
  5
213
330
1F
100
AcDbEntity
  8
256
  6
CONTINUOUS
 62
     3
100
AcDbMText
 10
268.7503
 20
45.497799
 30
0.0
 40
1.4
 41
0.0
 71
     7
 72
     5
  1
\W00.695;\Q20.000000;It cancels and substitutes the precedents date\Q0; 
  7
DEFAULT
1001
ACAD
1000
MTEXTBEGIN
1070
    73
1070
     2
1070
    44
1040
0.903614
1000
MTEXTEND
1000
ACAD_MTEXT_DEFINED_HEIGHT_BEGIN
1070
    46
1040
0.2
1000
ACAD_MTEXT_DEFINED_HEIGHT_END
  0
MTEXT
  5
214
330
1F
100
AcDbEntity
  8
256
  6
CONTINUOUS
 62
     3
100
AcDbMText
 10
309.377174
 20
58.908527
 30
0.0
 40
1.7
 41
0.0
 71
     7
 72
     5
  1
\W00.797;50     0,25 
  7
DEFAULT
1001
ACAD
1000
MTEXTBEGIN
1070
    73
1070
     2
1070
    44
1040
0.903614
1000
MTEXTEND
1000
ACAD_MTEXT_DEFINED_HEIGHT_BEGIN
1070
    46
1040
0.2
1000
ACAD_MTEXT_DEFINED_HEIGHT_END
  0
MTEXT
  5
215
330
1F
100
AcDbEntity
  8
256
  6
CONTINUOUS
 62
     3
100
AcDbMText
 10
326.17134
 20
62.54831
 30
0.0
 40
1.5
 41
0.0
 71
     7
 72
     5
  1
\W00.794;\Q20.000000;DEMOULD\Q0; 
  7
DEFAULT
1001
ACAD
1000
MTEXTBEGIN
1070
    73
1070
     2
1070
    44
1040
0.903614
1000
MTEXTEND
1000
ACAD_MTEXT_DEFINED_HEIGHT_BEGIN
1070
    46
1040
0.2
1000
ACAD_MTEXT_DEFINED_HEIGHT_END
  0
MTEXT
  5
216
330
1F
100
AcDbEntity
  8
256
  6
CONTINUOUS
 62
     3
100
AcDbMText
 10
225.71949
 20
69.268308
 30
0.0
 40
1.5
 41
0.0
 71
     7
 72
     5
  1
\W00.777;ACABADO / TRATAMIENTO 
  7
DEFAULT
1001
ACAD
1000
MTEXTBEGIN
1070
    73
1070
     2
1070
    44
1040
0.903614
1000
MTEXTEND
1000
ACAD_MTEXT_DEFINED_HEIGHT_BEGIN
1070
    46
1040
0.2
1000
ACAD_MTEXT_DEFINED_HEIGHT_END
  0
MTEXT
  5
217
330
1F
100
AcDbEntity
  8
256
  6
CONTINUOUS
 62
     3
100
AcDbMText
 10
231.368239
 20
92.056025
 30
0.0
 40
1.7
 41
0.0
 71
     7
 72
     5
  1
\W00.733;PROPIEDAD DE J. FELIU DE LA PENYA, S.L. NO SERA REPRODUCIDO TOTAL O PARCIALMENTE\P NI ENTREGADO A TERCEROS SIN AUTORIZACION ESCRITA\P 
  7
DEFAULT
1001
ACAD
1000
MTEXTBEGIN
1070
    44
1040
0.903614
1000
MTEXTEND
1000
ACAD_MTEXT_DEFINED_HEIGHT_BEGIN
1070
    46
1040
0.2
1000
ACAD_MTEXT_DEFINED_HEIGHT_END
  0
MTEXT
  5
218
330
1F
100
AcDbEntity
  8
256
  6
CONTINUOUS
 62
     3
100
AcDbMText
 10
325.94083
 20
64.848826
 30
0.0
 40
1.5
 41
0.0
 71
     7
 72
     5
  1
\W00.790;DESMOLDEO 
  7
DEFAULT
1001
ACAD
1000
MTEXTBEGIN
1070
    73
1070
     2
1070
    44
1040
0.903614
1000
MTEXTEND
1000
ACAD_MTEXT_DEFINED_HEIGHT_BEGIN
1070
    46
1040
0.2
1000
ACAD_MTEXT_DEFINED_HEIGHT_END
  0
MTEXT
  5
219
330
1F
100
AcDbEntity
  8
256
  6
CONTINUOUS
 62
     3
100
AcDbMText
 10
326.17134
 20
53.861182
 30
0.0
 40
1.5
 41
0.0
 71
     7
 72
     5
  1
\W00.784;ESPESOR 
  7
DEFAULT
1001
ACAD
1000
MTEXTBEGIN
1070
    73
1070
     2
1070
    44
1040
0.903614
1000
MTEXTEND
1000
ACAD_MTEXT_DEFINED_HEIGHT_BEGIN
1070
    46
1040
0.2
1000
ACAD_MTEXT_DEFINED_HEIGHT_END
  0
MTEXT
  5
21A
330
1F
100
AcDbEntity
  8
256
  6
CONTINUOUS
 62
     3
100
AcDbMText
 10
305.617997
 20
64.087216
 30
0.0
 40
1.5
 41
0.0
 71
     7
 72
     5
  1
\W00.701;- 
  7
BLOCKFONT
1001
ACAD
1000
MTEXTBEGIN
1070
    73
1070
     2
1070
    44
1040
0.903614
1000
MTEXTEND
1000
ACAD_MTEXT_DEFINED_HEIGHT_BEGIN
1070
    46
1040
0.2
1000
ACAD_MTEXT_DEFINED_HEIGHT_END
  0
MTEXT
  5
21C
330
1F
100
AcDbEntity
  8
256
  6
CONTINUOUS
 62
     3
100
AcDbMText
 10
302.000916
 20
68.556001
 30
0.0
 40
1.7
 41
0.0
 71
     7
 72
     5
  1
\W00.744;0     20     0,1 
  7
DEFAULT
1001
ACAD
1000
MTEXTBEGIN
1070
    73
1070
     2
1070
    44
1040
0.903614
1000
MTEXTEND
1000
ACAD_MTEXT_DEFINED_HEIGHT_BEGIN
1070
    46
1040
0.2
1000
ACAD_MTEXT_DEFINED_HEIGHT_END
  0
MTEXT
  5
21D
330
1F
100
AcDbEntity
  8
256
  6
CONTINUOUS
 62
     3
100
AcDbMText
 10
234.377317
 20
29.687513
 30
0.0
 40
1.5
 41
0.0
 71
     8
 72
     5
  1
\W00.834;\Q20.000000;DATE\Q0; 
  7
DEFAULT
1001
ACAD
1000
MTEXTBEGIN
1070
    73
1070
     2
1070
    44
1040
0.903614
1000
MTEXTEND
1000
ACAD_MTEXT_DEFINED_HEIGHT_BEGIN
1070
    46
1040
0.2
1000
ACAD_MTEXT_DEFINED_HEIGHT_END
  0
MTEXT
  5
21E
330
1F
100
AcDbEntity
  8
255
  6
CONTINUOUS
 62
     3
100
AcDbMText
 10
248.54969
 20
29.669488
 30
0.0
 40
3.0
 41
0.0
 71
     7
 72
     5
  1
\W00.774;16/09/15 
  7
DEFAULT
1001
ACAD
1000
MTEXTBEGIN
1070
    73
1070
     2
1070
    44
1040
0.903614
1000
MTEXTEND
1000
ACAD_MTEXT_DEFINED_HEIGHT_BEGIN
1070
    46
1040
0.2
1000
ACAD_MTEXT_DEFINED_HEIGHT_END
  0
MTEXT
  5
21F
330
1F
100
AcDbEntity
  8
256
  6
CONTINUOUS
 62
     3
100
AcDbMText
 10
314.901997
 20
63.288016
 30
0.0
 40
1.5
 41
0.0
 71
     7
 72
     5
  1
\W00.701;- 
  7
BLOCKFONT
1001
ACAD
1000
MTEXTBEGIN
1070
    73
1070
     2
1070
    44
1040
0.903614
1000
MTEXTEND
1000
ACAD_MTEXT_DEFINED_HEIGHT_BEGIN
1070
    46
1040
0.2
1000
ACAD_MTEXT_DEFINED_HEIGHT_END
  0
MTEXT
  5
220
330
1F
100
AcDbEntity
  8
256
  6
CONTINUOUS
 62
     3
100
AcDbMText
 10
381.16911
 20
40.224858
 30
0.0
 40
1.5
 41
0.0
 71
     7
 72
     5
  1
\W00.811;\Q20.000000;SUBSTITUTES\Q0; 
  7
DEFAULT
1001
ACAD
1000
MTEXTBEGIN
1070
    73
1070
     2
1070
    44
1040
0.903614
1000
MTEXTEND
1000
ACAD_MTEXT_DEFINED_HEIGHT_BEGIN
1070
    46
1040
0.2
1000
ACAD_MTEXT_DEFINED_HEIGHT_END
  0
MTEXT
  5
221
330
1F
100
AcDbEntity
  8
256
  6
CONTINUOUS
 62
     3
100
AcDbMText
 10
366.16847
 20
25.078575
 30
0.0
 40
1.5
 41
0.0
 71
     7
 72
     5
  1
\W00.783;CODIGO/ 
  7
DEFAULT
1001
ACAD
1000
MTEXTBEGIN
1070
    73
1070
     2
1070
    44
1040
0.903614
1000
MTEXTEND
1000
ACAD_MTEXT_DEFINED_HEIGHT_BEGIN
1070
    46
1040
0.2
1000
ACAD_MTEXT_DEFINED_HEIGHT_END
  0
MTEXT
  5
222
330
1F
100
AcDbEntity
  8
256
  6
CONTINUOUS
 62
     3
100
AcDbMText
 10
314.901997
 20
64.558016
 30
0.0
 40
1.5
 41
0.0
 71
     7
 72
     5
  1
\W00.701;+ 
  7
BLOCKFONT
1001
ACAD
1000
MTEXTBEGIN
1070
    73
1070
     2
1070
    44
1040
0.903614
1000
MTEXTEND
1000
ACAD_MTEXT_DEFINED_HEIGHT_BEGIN
1070
    46
1040
0.2
1000
ACAD_MTEXT_DEFINED_HEIGHT_END
  0
MTEXT
  5
223
330
1F
100
AcDbEntity
  8
256
  6
CONTINUOUS
 62
     3
100
AcDbMText
 10
300.660916
 20
63.876001
 30
0.0
 40
1.7
 41
0.0
 71
     7
 72
     5
  1
\W00.758;20     50     0,15 
  7
DEFAULT
1001
ACAD
1000
MTEXTBEGIN
1070
    73
1070
     2
1070
    44
1040
0.903614
1000
MTEXTEND
1000
ACAD_MTEXT_DEFINED_HEIGHT_BEGIN
1070
    46
1040
0.2
1000
ACAD_MTEXT_DEFINED_HEIGHT_END
  0
MTEXT
  5
224
330
1F
100
AcDbEntity
  8
256
  6
CONTINUOUS
 62
     3
100
AcDbMText
 10
353.400865
 20
51.338002
 30
0.0
 40
3.0
 41
0.0
 71
     7
 72
     5
  1
\W01.000; 
  7
DEFAULT
1001
ACAD
1000
MTEXTBEGIN
1070
    73
1070
     2
1070
    44
1040
0.903614
1000
MTEXTEND
1000
ACAD_MTEXT_DEFINED_HEIGHT_BEGIN
1070
    46
1040
0.2
1000
ACAD_MTEXT_DEFINED_HEIGHT_END
  0
MTEXT
  5
225
330
1F
100
AcDbEntity
  8
256
  6
CONTINUOUS
 62
     3
100
AcDbMText
 10
326.17134
 20
57.065014
 30
0.0
 40
1.5
 41
0.0
 71
     7
 72
     5
  1
\W00.818;\Q20.000000;RADIUS\Q0; 
  7
DEFAULT
1001
ACAD
1000
MTEXTBEGIN
1070
    73
1070
     2
1070
    44
1040
0.903614
1000
MTEXTEND
1000
ACAD_MTEXT_DEFINED_HEIGHT_BEGIN
1070
    46
1040
0.2
1000
ACAD_MTEXT_DEFINED_HEIGHT_END
  0
MTEXT
  5
226
330
1F
100
AcDbEntity
  8
256
  6
CONTINUOUS
 62
     3
100
AcDbMText
 10
269.18386
 20
55.191929
 30
0.0
 40
1.5
 41
0.0
 71
     7
 72
     5
  1
\W00.768;DUREZA/ 
  7
DEFAULT
1001
ACAD
1000
MTEXTBEGIN
1070
    73
1070
     2
1070
    44
1040
0.903614
1000
MTEXTEND
1000
ACAD_MTEXT_DEFINED_HEIGHT_BEGIN
1070
    46
1040
0.2
1000
ACAD_MTEXT_DEFINED_HEIGHT_END
  0
MTEXT
  5
227
330
1F
100
AcDbEntity
  8
256
  6
CONTINUOUS
 62
     3
100
AcDbMText
 10
234.65774
 20
45.203784
 30
0.0
 40
1.5
 41
0.0
 71
     8
 72
     5
  1
\W00.793;\Q20.000000;PROJECTED\Q0; 
  7
DEFAULT
1001
ACAD
1000
MTEXTBEGIN
1070
    73
1070
     2
1070
    44
1040
0.903614
1000
MTEXTEND
1000
ACAD_MTEXT_DEFINED_HEIGHT_BEGIN
1070
    46
1040
0.2
1000
ACAD_MTEXT_DEFINED_HEIGHT_END
  0
MTEXT
  5
228
330
1F
100
AcDbEntity
  8
255
  6
CONTINUOUS
 62
     2
100
AcDbMText
 10
283.504494
 20
22.280028
 30
0.0
 40
6.0
 41
0.0
 71
     7
 72
     5
  1
\W00.747;FRONTAL LENTE 38 
  7
DEFAULT
1001
ACAD
1000
MTEXTBEGIN
1070
    73
1070
     2
1070
    44
1040
0.903614
1000
MTEXTEND
1000
ACAD_MTEXT_DEFINED_HEIGHT_BEGIN
1070
    46
1040
0.2
1000
ACAD_MTEXT_DEFINED_HEIGHT_END
  0
MTEXT
  5
229
330
1F
100
AcDbEntity
  8
256
  6
CONTINUOUS
 62
     3
100
AcDbMText
 10
366.65916
 20
32.604203
 30
0.0
 40
1.5
 41
0.0
 71
     7
 72
     5
  1
\W00.768;SUSTITUIDO POR/ 
  7
DEFAULT
1001
ACAD
1000
MTEXTBEGIN
1070
    73
1070
     2
1070
    44
1040
0.903614
1000
MTEXTEND
1000
ACAD_MTEXT_DEFINED_HEIGHT_BEGIN
1070
    46
1040
0.2
1000
ACAD_MTEXT_DEFINED_HEIGHT_END
  0
MTEXT
  5
22A
330
1F
100
AcDbEntity
  8
256
  6
CONTINUOUS
 62
     3
100
AcDbMText
 10
271.08378
 20
62.058932
 30
0.0
 40
1.7
 41
0.0
 71
     7
 72
     5
  1
\W00.732;ejes/axis\P 
  7
DEFAULT
1001
ACAD
1000
MTEXTBEGIN
1070
    44
1040
0.903614
1000
MTEXTEND
1000
ACAD_MTEXT_DEFINED_HEIGHT_BEGIN
1070
    46
1040
0.2
1000
ACAD_MTEXT_DEFINED_HEIGHT_END
  0
MTEXT
  5
22B
330
1F
100
AcDbEntity
  8
256
  6
CONTINUOUS
 62
     3
100
AcDbMText
 10
293.555666
 20
68.556001
 30
0.0
 40
1.7
 41
0.0
 71
     7
 72
     5
  1
\W01.006;11 
  7
DEFAULT
1001
ACAD
1000
MTEXTBEGIN
1070
    73
1070
     2
1070
    44
1040
0.903614
1000
MTEXTEND
1000
ACAD_MTEXT_DEFINED_HEIGHT_BEGIN
1070
    46
1040
0.2
1000
ACAD_MTEXT_DEFINED_HEIGHT_END
  0
MTEXT
  5
22C
330
1F
100
AcDbEntity
  8
256
  6
CONTINUOUS
 62
     3
100
AcDbMText
 10
235.140186
 20
48.128729
 30
0.0
 40
1.5
 41
0.0
 71
     8
 72
     5
  1
\W00.807;PROYECTADO 
  7
DEFAULT
1001
ACAD
1000
MTEXTBEGIN
1070
    73
1070
     2
1070
    44
1040
0.903614
1000
MTEXTEND
1000
ACAD_MTEXT_DEFINED_HEIGHT_BEGIN
1070
    46
1040
0.2
1000
ACAD_MTEXT_DEFINED_HEIGHT_END
  0
MTEXT
  5
22D
330
1F
100
AcDbEntity
  8
256
  6
CONTINUOUS
 62
     3
100
AcDbMText
 10
314.901997
 20
59.718016
 30
0.0
 40
1.5
 41
0.0
 71
     7
 72
     5
  1
\W00.701;+ 
  7
BLOCKFONT
1001
ACAD
1000
MTEXTBEGIN
1070
    73
1070
     2
1070
    44
1040
0.903614
1000
MTEXTEND
1000
ACAD_MTEXT_DEFINED_HEIGHT_BEGIN
1070
    46
1040
0.2
1000
ACAD_MTEXT_DEFINED_HEIGHT_END
  0
MTEXT
  5
22E
330
1F
100
AcDbEntity
  8
256
  6
CONTINUOUS
 62
     3
100
AcDbMText
 10
290.914666
 20
68.596001
 30
0.0
 40
1.7
 41
0.0
 71
     7
 72
     5
  1
\W00.930;H 
  7
DEFAULT
1001
ACAD
1000
MTEXTBEGIN
1070
    73
1070
     2
1070
    44
1040
0.903614
1000
MTEXTEND
1000
ACAD_MTEXT_DEFINED_HEIGHT_BEGIN
1070
    46
1040
0.2
1000
ACAD_MTEXT_DEFINED_HEIGHT_END
  0
MTEXT
  5
22F
330
1F
100
AcDbEntity
  8
256
  6
CONTINUOUS
 62
     3
100
AcDbMText
 10
276.246514
 20
80.076596
 30
0.0
 40
3.0
 41
0.0
 71
     7
 72
     5
  1
\W01.000; 
  7
DEFAULT
1001
ACAD
1000
MTEXTBEGIN
1070
    73
1070
     2
1070
    44
1040
0.903614
1000
MTEXTEND
1000
ACAD_MTEXT_DEFINED_HEIGHT_BEGIN
1070
    46
1040
0.2
1000
ACAD_MTEXT_DEFINED_HEIGHT_END
  0
MTEXT
  5
230
330
1F
100
AcDbEntity
  8
256
  6
CONTINUOUS
 62
     3
100
AcDbMText
 10
247.271915
 20
25.693186
 30
0.0
 40
1.2
 41
0.0
 71
     7
 72
     5
  1
\W00.815;MODIFIC. 
  7
DEFAULT
1001
ACAD
1000
MTEXTBEGIN
1070
    73
1070
     2
1070
    44
1040
0.903614
1000
MTEXTEND
1000
ACAD_MTEXT_DEFINED_HEIGHT_BEGIN
1070
    46
1040
0.2
1000
ACAD_MTEXT_DEFINED_HEIGHT_END
  0
MTEXT
  5
231
330
1F
100
AcDbEntity
  8
256
  6
CONTINUOUS
 62
     3
100
AcDbMText
 10
293.514666
 20
63.916001
 30
0.0
 40
1.7
 41
0.0
 71
     7
 72
     5
  1
\W01.006;11 
  7
DEFAULT
1001
ACAD
1000
MTEXTBEGIN
1070
    73
1070
     2
1070
    44
1040
0.903614
1000
MTEXTEND
1000
ACAD_MTEXT_DEFINED_HEIGHT_BEGIN
1070
    46
1040
0.2
1000
ACAD_MTEXT_DEFINED_HEIGHT_END
  0
MTEXT
  5
232
330
1F
100
AcDbEntity
  8
256
  6
CONTINUOUS
 62
     3
100
AcDbMText
 10
279.47946
 20
55.126635
 30
0.0
 40
1.5
 41
0.0
 71
     7
 72
     5
  1
\W00.795;\Q20.000000;HARDNESS\Q0; 
  7
DEFAULT
1001
ACAD
1000
MTEXTBEGIN
1070
    73
1070
     2
1070
    44
1040
0.903614
1000
MTEXTEND
1000
ACAD_MTEXT_DEFINED_HEIGHT_BEGIN
1070
    46
1040
0.2
1000
ACAD_MTEXT_DEFINED_HEIGHT_END
  0
MTEXT
  5
233
330
1F
100
AcDbEntity
  8
255
  6
CONTINUOUS
 62
     2
100
AcDbMText
 10
231.342694
 20
12.93072
 30
0.0
 40
6.0
 41
0.0
 71
     7
 72
     5
  1
\W00.928;1:1 
  7
DEFAULT
1001
ACAD
1000
MTEXTBEGIN
1070
    73
1070
     2
1070
    44
1040
0.903614
1000
MTEXTEND
1000
ACAD_MTEXT_DEFINED_HEIGHT_BEGIN
1070
    46
1040
0.2
1000
ACAD_MTEXT_DEFINED_HEIGHT_END
  0
MTEXT
  5
234
330
1F
100
AcDbEntity
  8
256
  6
CONTINUOUS
 62
     3
100
AcDbMText
 10
336.29453
 20
45.38736
 30
0.0
 40
1.4
 41
0.0
 71
     7
 72
     5
  1
\W00.746;\Q20.000000;signature\Q0; 
  7
DEFAULT
1001
ACAD
1000
MTEXTBEGIN
1070
    73
1070
     2
1070
    44
1040
0.903614
1000
MTEXTEND
1000
ACAD_MTEXT_DEFINED_HEIGHT_BEGIN
1070
    46
1040
0.2
1000
ACAD_MTEXT_DEFINED_HEIGHT_END
  0
MTEXT
  5
235
330
1F
100
AcDbEntity
  8
256
  6
CONTINUOUS
 62
     3
100
AcDbMText
 10
326.17134
 20
59.316586
 30
0.0
 40
1.5
 41
0.0
 71
     7
 72
     5
  1
\W00.819;RADIOS 
  7
DEFAULT
1001
ACAD
1000
MTEXTBEGIN
1070
    73
1070
     2
1070
    44
1040
0.903614
1000
MTEXTEND
1000
ACAD_MTEXT_DEFINED_HEIGHT_BEGIN
1070
    46
1040
0.2
1000
ACAD_MTEXT_DEFINED_HEIGHT_END
  0
MTEXT
  5
236
330
1F
100
AcDbEntity
  8
256
  6
CONTINUOUS
 62
     3
100
AcDbMText
 10
269.1176
 20
48.306201
 30
0.0
 40
1.4
 41
0.0
 71
     7
 72
     5
  1
\W00.688;anula y sustituye a los precedentes fecha 
  7
DEFAULT
1001
ACAD
1000
MTEXTBEGIN
1070
    73
1070
     2
1070
    44
1040
0.903614
1000
MTEXTEND
1000
ACAD_MTEXT_DEFINED_HEIGHT_BEGIN
1070
    46
1040
0.2
1000
ACAD_MTEXT_DEFINED_HEIGHT_END
  0
MTEXT
  5
237
330
1F
100
AcDbEntity
  8
256
  6
CONTINUOUS
 62
     3
100
AcDbMText
 10
314.901997
 20
68.028016
 30
0.0
 40
1.5
 41
0.0
 71
     7
 72
     5
  1
\W00.701;- 
  7
BLOCKFONT
1001
ACAD
1000
MTEXTBEGIN
1070
    73
1070
     2
1070
    44
1040
0.903614
1000
MTEXTEND
1000
ACAD_MTEXT_DEFINED_HEIGHT_BEGIN
1070
    46
1040
0.2
1000
ACAD_MTEXT_DEFINED_HEIGHT_END
  0
MTEXT
  5
238
330
1F
100
AcDbEntity
  8
256
  6
CONTINUOUS
 62
     3
100
AcDbMText
 10
305.617997
 20
68.747216
 30
0.0
 40
1.5
 41
0.0
 71
     7
 72
     5
  1
\W00.701;- 
  7
BLOCKFONT
1001
ACAD
1000
MTEXTBEGIN
1070
    73
1070
     2
1070
    44
1040
0.903614
1000
MTEXTEND
1000
ACAD_MTEXT_DEFINED_HEIGHT_BEGIN
1070
    46
1040
0.2
1000
ACAD_MTEXT_DEFINED_HEIGHT_END
  0
MTEXT
  5
239
330
1F
100
AcDbEntity
  8
256
  6
CONTINUOUS
 62
     3
100
AcDbMText
 10
384.51877
 20
32.651717
 30
0.0
 40
1.5
 41
0.0
 71
     7
 72
     5
  1
\W00.778;\Q20.000000;SUBSTITUTED BY\Q0; 
  7
DEFAULT
1001
ACAD
1000
MTEXTBEGIN
1070
    73
1070
     2
1070
    44
1040
0.903614
1000
MTEXTEND
1000
ACAD_MTEXT_DEFINED_HEIGHT_BEGIN
1070
    46
1040
0.2
1000
ACAD_MTEXT_DEFINED_HEIGHT_END
  0
MTEXT
  5
23A
330
1F
100
AcDbEntity
  8
256
  6
CONTINUOUS
 62
     3
100
AcDbMText
 10
245.278503
 20
60.490742
 30
0.0
 40
3.0
 41
0.0
 71
     7
 72
     5
  1
\W01.000; 
  7
DEFAULT
1001
ACAD
1000
MTEXTBEGIN
1070
    73
1070
     2
1070
    44
1040
0.903614
1000
MTEXTEND
1000
ACAD_MTEXT_DEFINED_HEIGHT_BEGIN
1070
    46
1040
0.2
1000
ACAD_MTEXT_DEFINED_HEIGHT_END
  0
MTEXT
  5
23B
330
1F
100
AcDbEntity
  8
256
  6
CONTINUOUS
 62
     3
100
AcDbMText
 10
305.382147
 20
69.798016
 30
0.0
 40
1.5
 41
0.0
 71
     7
 72
     5
  1
\W00.273;. 
  7
BLOCKFONT
1001
ACAD
1000
MTEXTBEGIN
1070
    73
1070
     2
1070
    44
1040
0.903614
1000
MTEXTEND
1000
ACAD_MTEXT_DEFINED_HEIGHT_BEGIN
1070
    46
1040
0.2
1000
ACAD_MTEXT_DEFINED_HEIGHT_END
  0
MTEXT
  5
23C
330
1F
100
AcDbEntity
  8
256
  6
CONTINUOUS
 62
     3
100
AcDbMText
 10
225.6298
 20
66.936464
 30
0.0
 40
1.5
 41
0.0
 71
     7
 72
     5
  1
\W00.757;\Q20.000000;FINISH / TREATMENT\Q0; 
  7
DEFAULT
1001
ACAD
1000
MTEXTBEGIN
1070
    73
1070
     2
1070
    44
1040
0.903614
1000
MTEXTEND
1000
ACAD_MTEXT_DEFINED_HEIGHT_BEGIN
1070
    46
1040
0.2
1000
ACAD_MTEXT_DEFINED_HEIGHT_END
  0
MTEXT
  5
23D
330
1F
100
AcDbEntity
  8
256
  6
CONTINUOUS
 62
     3
100
AcDbMText
 10
235.209972
 20
37.729159
 30
0.0
 40
3.0
 41
0.0
 71
     8
 72
     5
  1
\W00.693;V.B.  
  7
DEFAULT
1001
ACAD
1000
MTEXTBEGIN
1070
    73
1070
     2
1070
    44
1040
0.903614
1000
MTEXTEND
1000
ACAD_MTEXT_DEFINED_HEIGHT_BEGIN
1070
    46
1040
0.2
1000
ACAD_MTEXT_DEFINED_HEIGHT_END
  0
MTEXT
  5
23E
330
1F
100
AcDbEntity
  8
255
  6
CONTINUOUS
 62
     3
100
AcDbMText
 10
249.88392
 20
45.444772
 30
0.0
 40
3.0
 41
0.0
 71
     7
 72
     5
  1
\W00.727;C. Alvarez 
  7
DEFAULT
1001
ACAD
1000
MTEXTBEGIN
1070
    73
1070
     2
1070
    44
1040
0.903614
1000
MTEXTEND
1000
ACAD_MTEXT_DEFINED_HEIGHT_BEGIN
1070
    46
1040
0.2
1000
ACAD_MTEXT_DEFINED_HEIGHT_END
  0
MTEXT
  5
23F
330
1F
100
AcDbEntity
  8
256
  6
CONTINUOUS
 62
     3
100
AcDbMText
 10
314.901997
 20
58.448016
 30
0.0
 40
1.5
 41
0.0
 71
     7
 72
     5
  1
\W00.701;- 
  7
BLOCKFONT
1001
ACAD
1000
MTEXTBEGIN
1070
    73
1070
     2
1070
    44
1040
0.903614
1000
MTEXTEND
1000
ACAD_MTEXT_DEFINED_HEIGHT_BEGIN
1070
    46
1040
0.2
1000
ACAD_MTEXT_DEFINED_HEIGHT_END
  0
MTEXT
  5
240
330
1F
100
AcDbEntity
  8
256
  6
CONTINUOUS
 62
     3
100
AcDbMText
 10
233.600858
 20
52.763642
 30
0.0
 40
1.5
 41
0.0
 71
     8
 72
     5
  1
\W00.819;\Q20.000000;DRAWN\Q0; 
  7
DEFAULT
1001
ACAD
1000
MTEXTBEGIN
1070
    73
1070
     2
1070
    44
1040
0.903614
1000
MTEXTEND
1000
ACAD_MTEXT_DEFINED_HEIGHT_BEGIN
1070
    46
1040
0.2
1000
ACAD_MTEXT_DEFINED_HEIGHT_END
  0
MTEXT
  5
241
330
1F
100
AcDbEntity
  8
256
  6
CONTINUOUS
 62
     3
100
AcDbMText
 10
270.954666
 20
68.776001
 30
0.0
 40
1.7
 41
0.0
 71
     7
 72
     5
  1
\W00.735;agujeros/holes 
  7
DEFAULT
1001
ACAD
1000
MTEXTBEGIN
1070
    73
1070
     2
1070
    44
1040
0.903614
1000
MTEXTEND
1000
ACAD_MTEXT_DEFINED_HEIGHT_BEGIN
1070
    46
1040
0.2
1000
ACAD_MTEXT_DEFINED_HEIGHT_END
  0
MTEXT
  5
242
330
1F
100
AcDbEntity
  8
256
  6
CONTINUOUS
 62
     3
100
AcDbMText
 10
269.155
 20
40.400244
 30
0.0
 40
1.5
 41
0.0
 71
     7
 72
     5
  1
\W00.789;DENOMINACION/ 
  7
DEFAULT
1001
ACAD
1000
MTEXTBEGIN
1070
    73
1070
     2
1070
    44
1040
0.903614
1000
MTEXTEND
1000
ACAD_MTEXT_DEFINED_HEIGHT_BEGIN
1070
    46
1040
0.2
1000
ACAD_MTEXT_DEFINED_HEIGHT_END
  0
MTEXT
  5
243
330
1F
100
AcDbEntity
  8
256
  6
CONTINUOUS
 62
     3
100
AcDbMText
 10
238.356613
 20
77.001059
 30
0.0
 40
1.7
 41
0.0
 71
     8
 72
     5
  1
\W00.798;\Q20.000000;COLOUR\Q0; 
  7
DEFAULT
1001
ACAD
1000
MTEXTBEGIN
1070
    73
1070
     2
1070
    44
1040
0.903614
1000
MTEXTEND
1000
ACAD_MTEXT_DEFINED_HEIGHT_BEGIN
1070
    46
1040
0.2
1000
ACAD_MTEXT_DEFINED_HEIGHT_END
  0
MTEXT
  5
244
330
1F
100
AcDbEntity
  8
256
  6
CONTINUOUS
 62
     3
100
AcDbMText
 10
305.382147
 20
65.138016
 30
0.0
 40
1.5
 41
0.0
 71
     7
 72
     5
  1
\W00.273;. 
  7
BLOCKFONT
1001
ACAD
1000
MTEXTBEGIN
1070
    73
1070
     2
1070
    44
1040
0.903614
1000
MTEXTEND
1000
ACAD_MTEXT_DEFINED_HEIGHT_BEGIN
1070
    46
1040
0.2
1000
ACAD_MTEXT_DEFINED_HEIGHT_END
  0
MTEXT
  5
245
330
1F
100
AcDbEntity
  8
256
  6
CONTINUOUS
 62
     3
100
AcDbMText
 10
290.914666
 20
63.906001
 30
0.0
 40
1.7
 41
0.0
 71
     7
 72
     5
  1
\W00.919;h 
  7
DEFAULT
1001
ACAD
1000
MTEXTBEGIN
1070
    73
1070
     2
1070
    44
1040
0.903614
1000
MTEXTEND
1000
ACAD_MTEXT_DEFINED_HEIGHT_BEGIN
1070
    46
1040
0.2
1000
ACAD_MTEXT_DEFINED_HEIGHT_END
  0
MTEXT
  5
246
330
1F
100
AcDbEntity
  8
256
  6
CONTINUOUS
 62
     3
100
AcDbMText
 10
314.901997
 20
69.298016
 30
0.0
 40
1.5
 41
0.0
 71
     7
 72
     5
  1
\W00.701;+ 
  7
BLOCKFONT
1001
ACAD
1000
MTEXTBEGIN
1070
    73
1070
     2
1070
    44
1040
0.903614
1000
MTEXTEND
1000
ACAD_MTEXT_DEFINED_HEIGHT_BEGIN
1070
    46
1040
0.2
1000
ACAD_MTEXT_DEFINED_HEIGHT_END
  0
MTEXT
  5
247
330
1F
100
AcDbEntity
  8
256
  6
CONTINUOUS
 62
     3
100
AcDbMText
 10
246.379012
 20
72.649
 30
0.0
 40
2.5
 41
0.0
 71
     7
 72
     5
  1
\W01.000; 
  7
DEFAULT
1001
ACAD
1000
MTEXTBEGIN
1070
    73
1070
     2
1070
    44
1040
0.903614
1000
MTEXTEND
1000
ACAD_MTEXT_DEFINED_HEIGHT_BEGIN
1070
    46
1040
0.2
1000
ACAD_MTEXT_DEFINED_HEIGHT_END
  0
MTEXT
  5
248
330
1F
100
AcDbEntity
  8
256
  6
CONTINUOUS
 62
     3
100
AcDbMText
 10
229.32129
 20
77.090745
 30
0.0
 40
1.7
 41
0.0
 71
     8
 72
     5
  1
\W00.776;COLOR/ 
  7
DEFAULT
1001
ACAD
1000
MTEXTBEGIN
1070
    73
1070
     2
1070
    44
1040
0.903614
1000
MTEXTEND
1000
ACAD_MTEXT_DEFINED_HEIGHT_BEGIN
1070
    46
1040
0.2
1000
ACAD_MTEXT_DEFINED_HEIGHT_END
  0
MTEXT
  5
249
330
1F
100
AcDbEntity
  8
256
  6
CONTINUOUS
 62
     3
100
AcDbMText
 10
366.65916
 20
40.260901
 30
0.0
 40
1.5
 41
0.0
 71
     7
 72
     5
  1
\W00.776;SUSTITUYE A/ 
  7
DEFAULT
1001
ACAD
1000
MTEXTBEGIN
1070
    73
1070
     2
1070
    44
1040
0.903614
1000
MTEXTEND
1000
ACAD_MTEXT_DEFINED_HEIGHT_BEGIN
1070
    46
1040
0.2
1000
ACAD_MTEXT_DEFINED_HEIGHT_END
  0
MTEXT
  5
24A
330
1F
100
AcDbEntity
  8
256
  6
CONTINUOUS
 62
     3
100
AcDbMText
 10
229.092715
 20
24.484486
 30
0.0
 40
1.5
 41
0.0
 71
     7
 72
     5
  1
\W00.799;ESCALA/ 
  7
DEFAULT
1001
ACAD
1000
MTEXTBEGIN
1070
    73
1070
     2
1070
    44
1040
0.903614
1000
MTEXTEND
1000
ACAD_MTEXT_DEFINED_HEIGHT_BEGIN
1070
    46
1040
0.2
1000
ACAD_MTEXT_DEFINED_HEIGHT_END
  0
MTEXT
  5
24B
330
1F
100
AcDbEntity
  8
256
  6
CONTINUOUS
 62
     3
100
AcDbMText
 10
289.094349
 20
76.683737
 30
0.0
 40
1.5
 41
0.0
 71
     7
 72
     5
  1
\W00.769;COTAS SIN TOLERANCIA 
  7
DEFAULT
1001
ACAD
1000
MTEXTBEGIN
1070
    73
1070
     2
1070
    44
1040
0.903614
1000
MTEXTEND
1000
ACAD_MTEXT_DEFINED_HEIGHT_BEGIN
1070
    46
1040
0.2
1000
ACAD_MTEXT_DEFINED_HEIGHT_END
  0
MTEXT
  5
24C
330
1F
100
AcDbEntity
  8
256
  6
CONTINUOUS
 62
     3
100
AcDbMText
 10
231.003064
 20
88.849003
 30
0.0
 40
1.5
 41
0.0
 71
     7
 72
     5
  1
\W00.729;\Q20.000000;\Q40.000000;\Q20.000000;PROPERTY OF J. FELIU DE LA PENYA, S.L. IT WILL NOT BE TOTALLY OR PARTIALLY  REPRODUCED\P NOR GIVEN TO THIRDS WITHOUT WRITTEN AUTHORIZATION\Q0;\Q0;\Q0; 
  7
DEFAULT
1001
ACAD
1000
MTEXTBEGIN
1070
    44
1040
0.903614
1000
MTEXTEND
1000
ACAD_MTEXT_DEFINED_HEIGHT_BEGIN
1070
    46
1040
0.2
1000
ACAD_MTEXT_DEFINED_HEIGHT_END
  0
MTEXT
  5
24D
330
1F
100
AcDbEntity
  8
256
  6
CONTINUOUS
 62
     3
100
AcDbMText
 10
298.514728
 20
73.783401
 30
0.0
 40
1.5
 41
0.0
 71
     8
 72
     5
  1
\W00.771;\Q20.000000;DIMENSIONS WITHOUT TOLERANCE\Q0; 
  7
DEFAULT
1001
ACAD
1000
MTEXTBEGIN
1070
    73
1070
     2
1070
    44
1040
0.903614
1000
MTEXTEND
1000
ACAD_MTEXT_DEFINED_HEIGHT_BEGIN
1070
    46
1040
0.2
1000
ACAD_MTEXT_DEFINED_HEIGHT_END
  0
MTEXT
  5
24E
330
1F
100
AcDbEntity
  8
256
  6
CONTINUOUS
 62
     3
100
AcDbMText
 10
305.402147
 20
64.348016
 30
0.0
 40
1.5
 41
0.0
 71
     7
 72
     5
  1
\W00.273;. 
  7
BLOCKFONT
1001
ACAD
1000
MTEXTBEGIN
1070
    73
1070
     2
1070
    44
1040
0.903614
1000
MTEXTEND
1000
ACAD_MTEXT_DEFINED_HEIGHT_BEGIN
1070
    46
1040
0.2
1000
ACAD_MTEXT_DEFINED_HEIGHT_END
  0
MTEXT
  5
24F
330
1F
100
AcDbEntity
  8
256
  6
CONTINUOUS
 62
     3
100
AcDbMText
 10
234.679196
 20
55.275157
 30
0.0
 40
1.5
 41
0.0
 71
     8
 72
     5
  1
\W00.809;DIBUJADO 
  7
DEFAULT
1001
ACAD
1000
MTEXTBEGIN
1070
    73
1070
     2
1070
    44
1040
0.903614
1000
MTEXTEND
1000
ACAD_MTEXT_DEFINED_HEIGHT_BEGIN
1070
    46
1040
0.2
1000
ACAD_MTEXT_DEFINED_HEIGHT_END
  0
MTEXT
  5
250
330
1F
100
AcDbEntity
  8
256
  6
CONTINUOUS
 62
     3
100
AcDbMText
 10
290.864666
 20
60.002635
 30
0.0
 40
1.5
 41
0.0
 71
     7
 72
     5
  1
\W00.925;+ 
  7
DEFAULT
1001
ACAD
1000
MTEXTBEGIN
1070
    73
1070
     2
1070
    44
1040
0.903614
1000
MTEXTEND
1000
ACAD_MTEXT_DEFINED_HEIGHT_BEGIN
1070
    46
1040
0.2
1000
ACAD_MTEXT_DEFINED_HEIGHT_END
  0
MTEXT
  5
251
330
1F
100
AcDbEntity
  8
256
  6
CONTINUOUS
 62
     3
100
AcDbMText
 10
270.884666
 20
59.182635
 30
0.0
 40
1.5
 41
0.0
 71
     7
 72
     5
  1
\W00.730;angular 
  7
DEFAULT
1001
ACAD
1000
MTEXTBEGIN
1070
    73
1070
     2
1070
    44
1040
0.903614
1000
MTEXTEND
1000
ACAD_MTEXT_DEFINED_HEIGHT_BEGIN
1070
    46
1040
0.2
1000
ACAD_MTEXT_DEFINED_HEIGHT_END
  0
MTEXT
  5
252
330
1F
100
AcDbEntity
  8
256
  6
CONTINUOUS
 62
     3
100
AcDbMText
 10
290.864666
 20
58.392635
 30
0.0
 40
1.5
 41
0.0
 71
     7
 72
     5
  1
\W00.612;- 
  7
DEFAULT
1001
ACAD
1000
MTEXTBEGIN
1070
    73
1070
     2
1070
    44
1040
0.903614
1000
MTEXTEND
1000
ACAD_MTEXT_DEFINED_HEIGHT_BEGIN
1070
    46
1040
0.2
1000
ACAD_MTEXT_DEFINED_HEIGHT_END
  0
MTEXT
  5
253
330
1F
100
AcDbEntity
  8
256
  6
CONTINUOUS
 62
     3
100
AcDbMText
 10
288.9728
 20
40.400244
 30
0.0
 40
1.5
 41
0.0
 71
     7
 72
     5
  1
\W00.812;\Q20.000000;DENOMINATION\Q0; 
  7
DEFAULT
1001
ACAD
1000
MTEXTBEGIN
1070
    73
1070
     2
1070
    44
1040
0.903614
1000
MTEXTEND
1000
ACAD_MTEXT_DEFINED_HEIGHT_BEGIN
1070
    46
1040
0.2
1000
ACAD_MTEXT_DEFINED_HEIGHT_END
  0
MTEXT
  5
254
330
1F
100
AcDbEntity
  8
256
  6
CONTINUOUS
 62
     3
100
AcDbMText
 10
326.17134
 20
51.581718
 30
0.0
 40
1.5
 41
0.0
 71
     7
 72
     5
  1
\W00.797;\Q20.000000;THICKNESS\Q0; 
  7
DEFAULT
1001
ACAD
1000
MTEXTBEGIN
1070
    73
1070
     2
1070
    44
1040
0.903614
1000
MTEXTEND
1000
ACAD_MTEXT_DEFINED_HEIGHT_BEGIN
1070
    46
1040
0.2
1000
ACAD_MTEXT_DEFINED_HEIGHT_END
  0
MTEXT
  5
255
330
1F
100
AcDbEntity
  8
256
  6
CONTINUOUS
 62
     3
100
AcDbMText
 10
376.79999
 20
24.787301
 30
0.0
 40
1.5
 41
0.0
 71
     7
 72
     5
  1
\W00.794;\Q20.000000;CODE\Q0; 
  7
DEFAULT
1001
ACAD
1000
MTEXTBEGIN
1070
    73
1070
     2
1070
    44
1040
0.903614
1000
MTEXTEND
1000
ACAD_MTEXT_DEFINED_HEIGHT_BEGIN
1070
    46
1040
0.2
1000
ACAD_MTEXT_DEFINED_HEIGHT_END
  0
MTEXT
  5
256
330
1F
100
AcDbEntity
  8
256
  6
CONTINUOUS
 62
     3
100
AcDbMText
 10
336.29453
 20
47.955865
 30
0.0
 40
1.4
 41
0.0
 71
     7
 72
     5
  1
\W00.766;firma 
  7
DEFAULT
1001
ACAD
1000
MTEXTBEGIN
1070
    73
1070
     2
1070
    44
1040
0.903614
1000
MTEXTEND
1000
ACAD_MTEXT_DEFINED_HEIGHT_BEGIN
1070
    46
1040
0.2
1000
ACAD_MTEXT_DEFINED_HEIGHT_END
  0
MTEXT
  5
257
330
1F
100
AcDbEntity
  8
256
  6
CONTINUOUS
 62
     3
100
AcDbMText
 10
293.555666
 20
58.976001
 30
0.0
 40
1.7
 41
0.0
 71
     7
 72
     5
  1
\W01.402;1 
  7
DEFAULT
1001
ACAD
1000
MTEXTBEGIN
1070
    73
1070
     2
1070
    44
1040
0.903614
1000
MTEXTEND
1000
ACAD_MTEXT_DEFINED_HEIGHT_BEGIN
1070
    46
1040
0.2
1000
ACAD_MTEXT_DEFINED_HEIGHT_END
  0
MTEXT
  5
258
330
1F
100
AcDbEntity
  8
256
  6
CONTINUOUS
 62
     3
100
AcDbMText
 10
235.568839
 20
82.36733
 30
0.0
 40
1.7
 41
0.0
 71
     8
 72
     5
  1
\W00.809;MATERIAL/\Q20.000000;MATERIAL\Q0;\P                                                                              
  7
DEFAULT
1001
ACAD
1000
MTEXTBEGIN
1070
    44
1040
0.903614
1000
MTEXTEND
1000
ACAD_MTEXT_DEFINED_HEIGHT_BEGIN
1070
    46
1040
0.2
1000
ACAD_MTEXT_DEFINED_HEIGHT_END
  0
MTEXT
  5
259
330
1F
100
AcDbEntity
  8
256
  6
CONTINUOUS
 62
     2
100
AcDbMText
 10
378.959122
 20
57.84245
 30
0.0
 40
3.5
 41
0.0
 71
     7
 72
     5
  1
\W00.817;METRIC 
  7
DEFAULT
1001
ACAD
1000
MTEXTBEGIN
1070
    73
1070
     2
1070
    44
1040
0.903614
1000
MTEXTEND
1000
ACAD_MTEXT_DEFINED_HEIGHT_BEGIN
1070
    46
1040
0.2
1000
ACAD_MTEXT_DEFINED_HEIGHT_END
  0
MTEXT
  5
25A
330
1F
100
AcDbEntity
  8
256
  6
CONTINUOUS
 62
     3
100
AcDbMText
 10
234.733524
 20
32.781205
 30
0.0
 40
1.5
 41
0.0
 71
     8
 72
     5
  1
\W00.802;FECHA 
  7
DEFAULT
1001
ACAD
1000
MTEXTBEGIN
1070
    73
1070
     2
1070
    44
1040
0.903614
1000
MTEXTEND
1000
ACAD_MTEXT_DEFINED_HEIGHT_BEGIN
1070
    46
1040
0.2
1000
ACAD_MTEXT_DEFINED_HEIGHT_END
  0
MTEXT
  5
25B
330
1F
100
AcDbEntity
  8
256
  6
CONTINUOUS
 62
     3
100
AcDbMText
 10
305.402147
 20
69.008016
 30
0.0
 40
1.5
 41
0.0
 71
     7
 72
     5
  1
\W00.273;. 
  7
BLOCKFONT
1001
ACAD
1000
MTEXTBEGIN
1070
    73
1070
     2
1070
    44
1040
0.903614
1000
MTEXTEND
1000
ACAD_MTEXT_DEFINED_HEIGHT_BEGIN
1070
    46
1040
0.2
1000
ACAD_MTEXT_DEFINED_HEIGHT_END
  0
MTEXT
  5
25C
330
1F
100
AcDbEntity
  8
255
  6
CONTINUOUS
 62
     3
100
AcDbMText
 10
367.810766
 20
15.312792
 30
0.0
 40
3.5
 41
0.0
 71
     7
 72
     5
  1
\W00.787;101523.1416.000 
  7
DEFAULT
1001
ACAD
1000
MTEXTBEGIN
1070
    73
1070
     2
1070
    44
1040
0.903614
1000
MTEXTEND
1000
ACAD_MTEXT_DEFINED_HEIGHT_BEGIN
1070
    46
1040
0.2
1000
ACAD_MTEXT_DEFINED_HEIGHT_END
  0
MTEXT
  5
25D
330
1F
100
AcDbEntity
  8
255
  6
CONTINUOUS
 62
     3
100
AcDbMText
 10
263.70143
 20
81.620769
 30
0.0
 40
3.5
 41
0.0
 71
     7
 72
     5
  1
\W00.725;Chapa galvanizada 
  7
DEFAULT
1001
ACAD
1000
MTEXTBEGIN
1070
    73
1070
     2
1070
    44
1040
0.903614
1000
MTEXTEND
1000
ACAD_MTEXT_DEFINED_HEIGHT_BEGIN
1070
    46
1040
0.2
1000
ACAD_MTEXT_DEFINED_HEIGHT_END
  0
MTEXT
  5
25E
330
1F
100
AcDbEntity
  8
255
  6
CONTINUOUS
 62
     3
100
AcDbMText
 10
242.933183
 20
60.714543
 30
0.0
 40
3.5
 41
0.0
 71
     7
 72
     5
  1
\W00.760;Pintado 
  7
DEFAULT
1001
ACAD
1000
MTEXTBEGIN
1070
    73
1070
     2
1070
    44
1040
0.903614
1000
MTEXTEND
1000
ACAD_MTEXT_DEFINED_HEIGHT_BEGIN
1070
    46
1040
0.2
1000
ACAD_MTEXT_DEFINED_HEIGHT_END
  0
MTEXT
  5
25F
330
1F
100
AcDbEntity
  8
255
  6
CONTINUOUS
 62
     3
100
AcDbMText
 10
244.473366
 20
73.08916
 30
0.0
 40
3.5
 41
0.0
 71
     7
 72
     5
  1
\W00.724;Negro mate 
  7
DEFAULT
1001
ACAD
1000
MTEXTBEGIN
1070
    73
1070
     2
1070
    44
1040
0.903614
1000
MTEXTEND
1000
ACAD_MTEXT_DEFINED_HEIGHT_BEGIN
1070
    46
1040
0.2
1000
ACAD_MTEXT_DEFINED_HEIGHT_END
  0
MTEXT
  5
260
330
1F
100
AcDbEntity
  8
255
  6
CONTINUOUS
 62
     3
100
AcDbMText
 10
228.583151
 20
147.123535
 30
0.0
 40
3.5
 41
0.0
 71
     7
 72
     5
  1
\W00.773;(COTA IMPORTANTE)\P 
  7
DEFAULT
1001
ACAD
1000
MTEXTBEGIN
1070
    44
1040
0.903614
1000
MTEXTEND
1000
ACAD_MTEXT_DEFINED_HEIGHT_BEGIN
1070
    46
1040
0.2
1000
ACAD_MTEXT_DEFINED_HEIGHT_END
  0
MTEXT
  5
261
330
1F
100
AcDbEntity
  8
255
  6
CONTINUOUS
 62
     3
100
AcDbMText
 10
150.741598
 20
251.323671
 30
0.0
 40
3.5
 41
0.0
 71
     7
 72
     5
  1
\W00.773;(COTA IMPORTANTE)\P 
  7
DEFAULT
1001
ACAD
1000
MTEXTBEGIN
1070
    44
1040
0.903614
1000
MTEXTEND
1000
ACAD_MTEXT_DEFINED_HEIGHT_BEGIN
1070
    46
1040
0.2
1000
ACAD_MTEXT_DEFINED_HEIGHT_END
  0
MTEXT
  5
262
330
1F
100
AcDbEntity
  8
255
  6
CONTINUOUS
 62
     3
100
AcDbMText
 10
79.877031
 20
155.767267
 30
0.0
 40
3.5
 41
0.0
 71
     7
 72
     5
  1
\W00.773;(COTA IMPORTANTE)\P 
  7
DEFAULT
1001
ACAD
1000
MTEXTBEGIN
1070
    44
1040
0.903614
1000
MTEXTEND
1000
ACAD_MTEXT_DEFINED_HEIGHT_BEGIN
1070
    46
1040
0.2
1000
ACAD_MTEXT_DEFINED_HEIGHT_END
  0
MTEXT
  5
263
330
1F
100
AcDbEntity
  8
255
  6
CONTINUOUS
 62
     3
100
AcDbMText
 10
345.413548
 20
44.899581
 30
0.0
 40
3.5
 41
0.0
 71
     7
 72
     5
  1
\W00.727;C. Alvarez 
  7
DEFAULT
1001
ACAD
1000
MTEXTBEGIN
1070
    73
1070
     2
1070
    44
1040
0.903614
1000
MTEXTEND
1000
ACAD_MTEXT_DEFINED_HEIGHT_BEGIN
1070
    46
1040
0.2
1000
ACAD_MTEXT_DEFINED_HEIGHT_END
  0
MTEXT
  5
264
330
1F
100
AcDbEntity
  8
255
  6
CONTINUOUS
 62
     3
100
AcDbMText
 10
306.703669
 20
44.485767
 30
0.0
 40
3.5
 41
0.0
 71
     7
 72
     5
  1
\W00.775;18/09/2015 
  7
DEFAULT
1001
ACAD
1000
MTEXTBEGIN
1070
    73
1070
     2
1070
    44
1040
0.903614
1000
MTEXTEND
1000
ACAD_MTEXT_DEFINED_HEIGHT_BEGIN
1070
    46
1040
0.2
1000
ACAD_MTEXT_DEFINED_HEIGHT_END
  0
MTEXT
  5
265
330
1F
100
AcDbEntity
  8
255
  6
CONTINUOUS
 62
     3
100
AcDbMText
 10
287.940169
 20
180.665877
 30
0.0
 40
3.5
 41
0.0
 71
     7
 72
     5
  1
\W00.773;(COTA IMPORTANTE) 
  7
DEFAULT
 11
0.9396926207859086
 21
0.3420201433256682
 31
0.0
1001
ACAD
1000
MTEXTBEGIN
1070
    73
1070
     2
1070
    44
1040
0.903614
1000
MTEXTEND
1000
ACAD_MTEXT_DEFINED_HEIGHT_BEGIN
1070
    46
1040
0.2
1000
ACAD_MTEXT_DEFINED_HEIGHT_END
  0
SPLINE
  5
266
330
1F
100
AcDbEntity
  8
255
  6
CENTER
 62
     3
100
AcDbSpline
210
0.0
220
0.0
230
1.0
 70
    24
 71
     1
 72
     5
 73
     3
 74
     0
 42
0.000000001
 43
0.0000000001
 40
0.0
 40
0.0
 40
0.384333822240752
 40
1.0
 40
1.0
 10
43.9866969636239
 20
228.5653218114093
 30
0.0
 10
86.9866969636239
 20
228.5653218114093
 30
0.0
 10
155.868601473876
 20
228.5653218114093
 30
0.0
  0
SPLINE
  5
267
330
1F
100
AcDbEntity
  8
255
  6
CENTER
 62
     3
100
AcDbSpline
210
0.0
220
0.0
230
1.0
 70
    24
 71
     1
 72
     5
 73
     3
 74
     0
 42
0.000000001
 43
0.0000000001
 40
0.0
 40
0.0
 40
0.6333418266592769
 40
1.0
 40
1.0
 10
99.92764921874996
 20
279.5357979389723
 30
0.0
 10
99.92764921874996
 20
215.6243695562832
 30
0.0
 10
99.92764921874996
 20
178.6243695562832
 30
0.0
  0
SPLINE
  5
268
330
1F
100
AcDbEntity
  8
255
  6
CENTER
 62
     3
100
AcDbSpline
210
0.0
220
0.0
230
1.0
 70
    24
 71
     1
 72
     5
 73
     3
 74
     0
 42
0.000000001
 43
0.0000000001
 40
0.0
 40
0.0
 40
0.7094017094017095
 40
1.0
 40
1.0
 10
212.8392328125
 20
228.5653218114093
 30
0.0
 10
171.3392328124999
 20
228.5653218114093
 30
-0.0000000000000015
 10
154.3392328124999
 20
228.5653218114093
 30
-0.0000000000000015
  0
MTEXT
  5
269
102
{ACAD_REACTORS
330
2D4
102
}
330
1F
100
AcDbEntity
  8
255
  6
CONTINUOUS
 62
     3
100
AcDbMText
 10
173.508496
 20
206.969
 30
0.0
 40
3.5
 41
0.0
 71
     7
 72
     5
  1
\W00.791;38,4 
  7
DEFAULT
1001
ACAD
1000
MTEXTBEGIN
1070
    73
1070
     2
1070
    44
1040
0.903614
1000
MTEXTEND
1000
ACAD_MTEXT_DEFINED_HEIGHT_BEGIN
1070
    46
1040
0.2
1000
ACAD_MTEXT_DEFINED_HEIGHT_END
  0
LINE
  5
26A
102
{ACAD_REACTORS
330
26D
102
}
330
1F
100
AcDbEntity
  8
255
  6
CONTINUOUS
 62
     3
 60
     1
100
AcDbLine
 10
196.339233
 20
206.385097
 30
0.0
 11
192.839236
 21
205.447275
 31
0.0
  0
LINE
  5
26B
102
{ACAD_REACTORS
330
26D
102
}
330
1F
100
AcDbEntity
  8
255
  6
CONTINUOUS
 62
     3
 60
     1
100
AcDbLine
 10
192.839236
 20
205.447275
 30
0.0
 11
192.839229
 21
207.322919
 31
0.0
  0
LINE
  5
26C
102
{ACAD_REACTORS
330
26D
102
}
330
1F
100
AcDbEntity
  8
255
  6
CONTINUOUS
 62
     3
 60
     1
100
AcDbLine
 10
192.839229
 20
207.322919
 30
0.0
 11
196.339233
 21
206.385097
 31
0.0
  0
HATCH
  5
26D
102
{ACAD_REACTORS
330
2D4
102
}
330
1F
100
AcDbEntity
  8
255
  6
CONTINUOUS
 62
     3
100
AcDbHatch
 10
0.0
 20
0.0
 30
0.0
210
0.0
220
0.0
230
1.0
  2
ANSI31
 70
     0
 71
     1
 91
        1
 92
        0
 93
        3
 72
     1
 10
196.3392328124999
 20
206.3850972020349
 11
192.8392362573131
 21
205.4472750285323
 72
     1
 10
192.8392362573131
 20
205.4472750285323
 11
192.8392293676868
 21
207.3229193755375
 72
     1
 10
192.8392293676868
 20
207.3229193755375
 11
196.3392328124999
 21
206.3850972020349
 97
        3
330
26A
330
26B
330
26C
 75
     0
 76
     0
 52
45.0
 41
0.02
 77
     0
 78
     1
 53
44.99999999999994
 43
0.0
 44
0.0
 45
-0.0141421356237309
 46
0.014142135623731
 79
     0
 98
        0
  0
LINE
  5
26E
102
{ACAD_REACTORS
330
271
102
}
330
1F
100
AcDbEntity
  8
255
  6
CONTINUOUS
 62
     3
 60
     1
100
AcDbLine
 10
157.939233
 20
206.385097
 30
0.0
 11
161.439229
 21
207.322919
 31
0.0
  0
LINE
  5
26F
102
{ACAD_REACTORS
330
271
102
}
330
1F
100
AcDbEntity
  8
255
  6
CONTINUOUS
 62
     3
 60
     1
100
AcDbLine
 10
161.439229
 20
207.322919
 30
0.0
 11
161.439236
 21
205.447275
 31
0.0
  0
LINE
  5
270
102
{ACAD_REACTORS
330
271
102
}
330
1F
100
AcDbEntity
  8
255
  6
CONTINUOUS
 62
     3
 60
     1
100
AcDbLine
 10
161.439236
 20
205.447275
 30
0.0
 11
157.939233
 21
206.385097
 31
0.0
  0
HATCH
  5
271
102
{ACAD_REACTORS
330
2D4
102
}
330
1F
100
AcDbEntity
  8
255
  6
CONTINUOUS
 62
     3
100
AcDbHatch
 10
0.0
 20
0.0
 30
0.0
210
0.0
220
0.0
230
1.0
  2
ANSI31
 70
     0
 71
     1
 91
        1
 92
        0
 93
        3
 72
     1
 10
157.9392328124999
 20
206.3850972020349
 11
161.4392293676867
 21
207.3229193755375
 72
     1
 10
161.4392293676867
 20
207.3229193755375
 11
161.4392362573131
 21
205.4472750285323
 72
     1
 10
161.4392362573131
 20
205.4472750285323
 11
157.9392328124999
 21
206.3850972020349
 97
        3
330
26E
330
26F
330
270
 75
     0
 76
     0
 52
45.0
 41
0.02
 77
     0
 78
     1
 53
44.99999999999992
 43
0.0
 44
0.0
 45
-0.0141421356237309
 46
0.014142135623731
 79
     0
 98
        0
  0
DIMENSION
  5
27B
330
1F
100
AcDbEntity
  8
255
  6
CONTINUOUS
 62
     3
100
AcDbDimension
  2
DIMNDRAFT3D1
 10
211.624634
 20
192.059893
 30
0.0
 11
211.624634
 21
212.568422
 31
0.0
 70
   160
  1
\C3;10
  3
STANDARD
100
AcDbAlignedDimension
 13
234.670187
 23
202.059893
 33
0.0
 14
231.270187
 24
192.059893
 34
0.0
 50
90.0
100
AcDbRotatedDimension
1001
ACAD
1000
DSTYLE
1002
{
1070
   287
1070
     3
1070
     7
1000

1070
     6
1000

1070
    74
1070
     0
1070
   279
1070
     0
1070
   172
1070
     1
1070
   173
1070
     1
1070
   340
1005
20B
1070
   271
1070
     0
1070
   272
1070
     2
1070
    77
1070
     1
1070
    73
1070
     0
1070
   171
1070
     3
1070
   274
1070
     4
1070
   177
1070
     3
1070
   176
1070
     3
1070
   178
1070
     3
1070
    48
1040
-0.005
1070
    41
1041
3.5
1070
   147
1041
1.75
1070
    42
1041
0.0
1070
    44
1041
2.0
1070
   140
1041
3.5
1002
}
  0
DIMENSION
  5
285
330
1F
100
AcDbEntity
  8
255
  6
CONTINUOUS
 62
     3
100
AcDbDimension
  2
DIMNDRAFT3D2
 10
49.631358
 20
168.471733
 30
0.0
 11
98.927649
 21
168.471733
 31
0.0
 70
   160
  1
\C3;98,6
  3
STANDARD
100
AcDbAlignedDimension
 13
148.223941
 23
215.62437
 33
0.0
 14
49.631358
 24
223.565322
 34
0.0
100
AcDbRotatedDimension
1001
ACAD
1000
DSTYLE
1002
{
1070
   287
1070
     3
1070
     7
1000

1070
     6
1000

1070
   279
1070
     0
1070
   172
1070
     1
1070
   173
1070
     1
1070
   340
1005
20B
1070
   271
1070
     1
1070
   272
1070
     2
1070
    77
1070
     1
1070
    73
1070
     0
1070
   171
1070
     3
1070
   274
1070
     4
1070
   177
1070
     3
1070
   176
1070
     3
1070
   178
1070
     3
1070
    48
1040
-0.005
1070
    41
1041
3.5
1070
   147
1041
1.75
1070
    42
1041
0.0
1070
    44
1041
2.0
1070
   140
1041
3.5
1002
}
  0
INSERT
  5
28F
330
1F
100
AcDbEntity
  8
255
  6
CONTINUOUS
 62
     3
100
AcDbBlockReference
  2
DIMNDRAFT3D33
 10
0.0
 20
0.0
 30
0.0
  0
INSERT
  5
299
330
1F
100
AcDbEntity
  8
255
  6
CONTINUOUS
 62
     3
100
AcDbBlockReference
  2
DIMNDRAFT3D44
 10
0.0
 20
0.0
 30
0.0
  0
INSERT
  5
2A3
330
1F
100
AcDbEntity
  8
255
  6
CONTINUOUS
 62
     3
100
AcDbBlockReference
  2
DIMNDRAFT3D55
 10
0.0
 20
0.0
 30
0.0
  0
DIMENSION
  5
2AC
330
1F
100
AcDbEntity
  8
255
  6
CONTINUOUS
 62
     3
100
AcDbDimension
  2
DIMNDRAFT3D6
 10
345.861949
 20
257.642333
 30
0.0
 11
310.198805
 21
255.083319
 31
0.0
 70
   163
  1
\C3;%%c 3,3
  3
STANDARD
100
AcDbDiametricDimension
 15
342.596634
 25
257.165132
 35
0.0
 40
0.0
1001
ACAD
1000
DSTYLE
1002
{
1070
   287
1070
     3
1070
     7
1000

1070
     6
1000

1070
   172
1070
     1
1070
   279
1070
     0
1070
   173
1070
     1
1070
   340
1005
20B
1070
    75
1070
     1
1070
    76
1070
     1
1070
   271
1070
     1
1070
   272
1070
     2
1070
    77
1070
     1
1070
    73
1070
     0
1070
   171
1070
     3
1070
   274
1070
     4
1070
   177
1070
     3
1070
   176
1070
     3
1070
   178
1070
     3
1070
    48
1040
-0.005
1070
    41
1041
3.5
1070
   147
1041
1.75
1070
    42
1041
0.0
1070
    44
1041
2.0
1070
   140
1041
3.5
1002
}
  0
DIMENSION
  5
2B6
330
1F
100
AcDbEntity
  8
255
  6
CONTINUOUS
 62
     3
100
AcDbDimension
  2
DIMNDRAFT3D7
 10
349.329237
 20
213.435937
 30
0.0
 11
290.784698
 21
195.942301
 31
0.0
 70
   163
  1
\A1;\C3;%%c 87 \A1;\S+0,2^ -0,0;
  3
STANDARD
100
AcDbDiametricDimension
 15
268.729604
 25
180.683849
 35
0.0
 40
0.0
1001
ACAD
1000
DSTYLE
1002
{
1070
   287
1070
     3
1070
     7
1000

1070
     6
1000

1070
   172
1070
     1
1070
   279
1070
     0
1070
   173
1070
     1
1070
   340
1005
20B
1070
    75
1070
     1
1070
    76
1070
     1
1070
   271
1070
     0
1070
   272
1070
     1
1070
    77
1070
     1
1070
    73
1070
     0
1070
   171
1070
     3
1070
   274
1070
     4
1070
   177
1070
     3
1070
   176
1070
     3
1070
   178
1070
     3
1070
    48
1040
-0.005
1070
    41
1041
3.5
1070
   147
1041
1.75
1070
    42
1041
0.0
1070
    44
1041
2.0
1070
   140
1041
3.5
1002
}
  0
DIMENSION
  5
2BF
330
1F
100
AcDbEntity
  8
255
  6
CONTINUOUS
 62
     3
100
AcDbDimension
  2
DIMNDRAFT3D8
 10
260.733129
 20
202.059893
 30
0.0
 11
248.710938
 21
218.657473
 31
0.0
 70
    34
  1
\C3;90%%d
 53
35.91709
  3
STANDARD
100
AcDb2LineAngularDimension
 13
260.733129
 23
210.000845
 33
0.0
 14
260.733129
 24
202.059893
 34
0.0
 15
234.670187
 25
202.059893
 35
0.0
 16
248.716406
 26
214.076616
 36
0.0
1001
ACAD
1000
DSTYLE
1002
{
1070
     7
1000

1070
     6
1000

1070
   173
1070
     1
1070
   340
1005
20B
1070
   271
1070
     0
1070
   272
1070
     2
1070
    77
1070
     1
1070
    73
1070
     0
1070
   171
1070
     3
1070
   274
1070
     4
1070
   177
1070
     3
1070
   176
1070
     3
1070
   178
1070
     3
1070
    48
1040
-0.005
1070
    41
1041
3.5
1070
   147
1041
1.75
1070
    42
1041
0.0
1070
    44
1041
2.0
1070
   140
1041
3.5
1002
}
  0
DIMENSION
  5
2C9
330
1F
100
AcDbEntity
  8
255
  6
CONTINUOUS
 62
     3
100
AcDbDimension
  2
DIMNDRAFT3D9
 10
260.733129
 20
184.118941
 30
0.0
 11
250.716855
 21
182.043619
 31
0.0
 70
    34
  1
\C3;90%%d
 53
315.0
  3
STANDARD
100
AcDb2LineAngularDimension
 13
232.670187
 23
192.059893
 33
0.0
 14
231.270187
 24
192.059893
 34
0.0
 15
260.733129
 25
192.059893
 35
0.0
 16
248.241981
 26
179.568745
 36
0.0
1001
ACAD
1000
DSTYLE
1002
{
1070
     7
1000

1070
     6
1000

1070
   173
1070
     1
1070
   340
1005
20B
1070
   271
1070
     0
1070
   272
1070
     2
1070
    77
1070
     1
1070
    73
1070
     0
1070
   171
1070
     3
1070
   274
1070
     4
1070
   177
1070
     3
1070
   176
1070
     3
1070
   178
1070
     3
1070
    48
1040
-0.005
1070
    41
1041
3.5
1070
   147
1041
1.75
1070
    42
1041
0.0
1070
    44
1041
2.0
1070
   140
1041
3.5
1002
}
  0
DIMENSION
  5
2D3
330
1F
100
AcDbEntity
  8
255
  6
CONTINUOUS
 62
     3
100
AcDbDimension
  2
DIMNDRAFT3D10
 10
51.131358
 20
143.021879
 30
0.0
 11
74.834163
 21
138.324683
 31
0.0
 70
    34
  1
\C3;90%%d
 53
315.0
  3
STANDARD
100
AcDb2LineAngularDimension
 13
86.986697
 23
114.621879
 33
0.0
 14
112.868601
 24
114.621879
 34
0.0
 15
51.131358
 25
153.021879
 35
0.0
 16
72.359289
 26
135.84981
 36
0.0
1001
ACAD
1000
DSTYLE
1002
{
1070
     7
1000

1070
     6
1000

1070
   173
1070
     1
1070
   340
1005
20B
1070
   271
1070
     0
1070
   272
1070
     2
1070
    77
1070
     1
1070
    73
1070
     0
1070
   171
1070
     3
1070
   274
1070
     4
1070
   177
1070
     3
1070
   176
1070
     3
1070
   178
1070
     3
1070
    48
1040
-0.005
1070
    41
1041
3.5
1070
   147
1041
1.75
1070
    42
1041
0.0
1070
    44
1041
2.0
1070
   140
1041
3.5
1002
}
  0
ENDSEC
  0
SECTION
  2
OBJECTS
  0
DICTIONARY
  5
C
330
0
100
AcDbDictionary
  3
ACAD_GROUP
350
D
  3
ACAD_LAYOUT
350
1A
  3
ACAD_MATERIAL
350
3B
  3
ACAD_MLEADERSTYLE
350
307
  3
ACAD_MLINESTYLE
350
17
  3
ACAD_PLOTSETTINGS
350
19
  3
ACAD_VISUALSTYLE
350
2A
  3
ACDBHEADERROUNDTRIPXREC
350
2E5
  3
ACDBVARIABLEDICTIONARY
350
305
  0
DICTIONARY
  5
D
102
{ACAD_REACTORS
330
C
102
}
330
C
100
AcDbDictionary
  3
DIMENSION
350
2D4
  0
DICTIONARY
  5
1A
102
{ACAD_REACTORS
330
C
102
}
330
C
100
AcDbDictionary
  0
DICTIONARY
  5
3B
102
{ACAD_REACTORS
330
C
102
}
330
C
100
AcDbDictionary
  3
BYBLOCK
350
3D
  3
BYLAYER
350
3C
  3
GLOBAL
350
3E
  0
DICTIONARY
  5
307
102
{ACAD_REACTORS
330
C
102
}
330
C
100
AcDbDictionary
  0
DICTIONARY
  5
17
102
{ACAD_REACTORS
330
C
102
}
330
C
100
AcDbDictionary
  3
STANDARD
350
18
  0
DICTIONARY
  5
19
102
{ACAD_REACTORS
330
C
102
}
330
C
100
AcDbDictionary
  0
DICTIONARY
  5
2A
102
{ACAD_REACTORS
330
C
102
}
330
C
100
AcDbDictionary
  3
2DWIREFRAME
350
2F
  3
3D_HIDDEN
350
31
  3
3DWIREFRAME
350
30
  3
BASIC
350
32
  3
BRIGHTEN
350
36
  3
COLORCHANGE
350
3A
  3
CONCEPTUAL
350
34
  3
DIM
350
35
  3
FACEPATTERN
350
39
  3
FLAT
350
2B
  3
FLATWITHEDGES
350
2C
  3
GOURAUD
350
2D
  3
GOURAUDWITHEDGES
350
2E
  3
LINEPATTERN
350
38
  3
REALISTIC
350
33
  3
THICKEN
350
37
  0
DICTIONARY
  5
2E5
102
{ACAD_REACTORS
330
C
102
}
330
C
100
AcDbDictionary
  3
CEPSNTYPE
350
2EE
  3
DIMSTYLEDATA
350
304
  3
FINGERPRINTGUID
350
2EF
  3
HYPERLINKBASE
350
2E8
  3
INSUNITS
350
2ED
  3
LAYOUTDICT
350
2EA
  3
LWETCUNION
350
2EC
  3
PLOTSETDICT
350
2EB
  3
PSVPSCALE
350
2F1
  3
PUCSBASE
350
2F4
  3
PUCSORGBACK
350
2FA
  3
PUCSORGBOTTOM
350
2F6
  3
PUCSORGFRONT
350
2F9
  3
PUCSORGLEFT
350
2F7
  3
PUCSORGRIGHT
350
2F8
  3
PUCSORGTOP
350
2F5
  3
PUCSORTHOREF
350
2F2
  3
PUCSORTHOVIEW
350
2F3
  3
STYLESHEET
350
2E9
  3
TSTACKALIGN
350
2E6
  3
TSTACKSIZE
350
2E7
  3
UCSBASE
350
2FD
  3
UCSORGBACK
350
303
  3
UCSORGBOTTOM
350
2FF
  3
UCSORGFRONT
350
302
  3
UCSORGLEFT
350
300
  3
UCSORGRIGHT
350
301
  3
UCSORGTOP
350
2FE
  3
UCSORTHOREF
350
2FB
  3
UCSORTHOVIEW
350
2FC
  3
VERSIONGUID
350
2F0
  0
DICTIONARY
  5
305
102
{ACAD_REACTORS
330
C
102
}
330
C
100
AcDbDictionary
  3
DIMASSOC
350
308
  3
HIDETEXT
350
309
  0
GROUP
  5
2D4
102
{ACAD_REACTORS
330
D
102
}
330
D
100
AcDbGroup
300

 70
     0
 71
     1
340
1D0
340
1D1
340
1D2
340
269
340
26D
340
271
  0
MATERIAL
  5
3D
102
{ACAD_REACTORS
330
3B
102
}
102
{ACAD_XDICTIONARY
360
30C
102
}
330
3B
100
AcDbMaterial
  1
ByBlock
  0
MATERIAL
  5
3C
102
{ACAD_REACTORS
330
3B
102
}
102
{ACAD_XDICTIONARY
360
30A
102
}
330
3B
100
AcDbMaterial
  1
ByLayer
  0
MATERIAL
  5
3E
102
{ACAD_REACTORS
330
3B
102
}
102
{ACAD_XDICTIONARY
360
30E
102
}
330
3B
100
AcDbMaterial
  1
Global
  0
MLINESTYLE
  5
18
102
{ACAD_REACTORS
330
17
102
}
330
17
100
AcDbMlineStyle
  2
Standard
 70
     0
  3

 62
   256
 51
90.0
 52
90.0
 71
     2
 49
0.5
 62
   256
  6
BYLAYER
 49
-0.5
 62
   256
  6
BYLAYER
  0
ACAD_PROXY_OBJECT
  5
2F
102
{ACAD_REACTORS
330
2A
102
}
330
2A
100
AcDbProxyObject
 90
      499
 91
      501
 93
      436
310
42CC9915DA5C99599C985B595049028333333333333E3BF0000000000000FB0107901411070040501600405405064090741402480A0340
1001
ACAD
1000
AcDbSavedByObjectVersion
1070
     0
  0
ACAD_PROXY_OBJECT
  5
31
102
{ACAD_REACTORS
330
2A
102
}
330
2A
100
AcDbProxyObject
 90
      499
 91
      501
 93
      500
310
424CD108121A5919195B90640502408333333333333E3BF0000000000000FB01079024090700405020000000000001110200405405064090740C02480A0340
1001
ACAD
1000
AcDbSavedByObjectVersion
1070
     0
  0
ACAD_PROXY_OBJECT
  5
30
102
{ACAD_REACTORS
330
2A
102
}
330
2A
100
AcDbProxyObject
 90
      499
 91
      501
 93
      436
310
42CCD915DA5C99599C985B595059028333333333333E3BF0000000000000FB0107901411070040501600405405064090741402480A0340
1001
ACAD
1000
AcDbSavedByObjectVersion
1070
     0
  0
ACAD_PROXY_OBJECT
  5
32
102
{ACAD_REACTORS
330
2A
102
}
330
2A
100
AcDbProxyObject
 90
      499
 91
      501
 93
      388
310
4150985CDA58D07406404333333333333E3BF0000000000000FB0107A41107004050150841D405064090741402480A0350
1001
ACAD
1000
AcDbSavedByObjectVersion
1070
     0
  0
ACAD_PROXY_OBJECT
  5
36
102
{ACAD_REACTORS
330
2A
102
}
330
2A
100
AcDbProxyObject
 90
      499
 91
      501
 93
      428
310
42109C9A59DA1D195B90C409028333333333333E3BF0000000000000FB010790141107004050150841D405064090741402480A029950
1001
ACAD
1000
AcDbSavedByObjectVersion
1070
     0
  0
ACAD_PROXY_OBJECT
  5
3A
102
{ACAD_REACTORS
330
2A
102
}
330
2A
100
AcDbProxyObject
 90
      499
 91
      501
 93
      452
310
42D0DBDB1BDC90DA185B99D95104090240C333333333333E3BF0000000000000FB0108901411070040501508421405064090741402480A0350
1001
ACAD
1000
AcDbSavedByObjectVersion
1070
     0
  0
ACAD_PROXY_OBJECT
  5
34
102
{ACAD_REACTORS
330
2A
102
}
330
2A
100
AcDbProxyObject
 90
      499
 91
      501
 93
      500
310
4290DBDB98D95C1D1D585B10940D028333333333333E3BF0000000000000FB0107902409070040501000000000000111010841D405064090740C02480A0340
1001
ACAD
1000
AcDbSavedByObjectVersion
1070
     0
  0
ACAD_PROXY_OBJECT
  5
35
102
{ACAD_REACTORS
330
2A
102
}
330
2A
100
AcDbProxyObject
 90
      499
 91
      501
 93
      412
310
40D11A5B50B409028333333333333E3BF0000000000000FB010790141107004050150841D405064090741402480A02677FFFFFD0
1001
ACAD
1000
AcDbSavedByObjectVersion
1070
     0
  0
ACAD_PROXY_OBJECT
  5
39
102
{ACAD_REACTORS
330
2A
102
}
330
2A
100
AcDbProxyObject
 90
      499
 91
      501
 93
      444
310
42D19858D95C185D1D195C9B90F409028333333333333E3BF0000000000000FB010790141107004050150841D405064090741402480A0350
1001
ACAD
1000
AcDbSavedByObjectVersion
1070
     0
  0
ACAD_PROXY_OBJECT
  5
2B
102
{ACAD_REACTORS
330
2A
102
}
330
2A
100
AcDbProxyObject
 90
      499
 91
      501
 93
      388
310
41119B185D240901404333333333333E3BF0000000000000F9010740A41107004050150841D405064090741402480A1B50
1001
ACAD
1000
AcDbSavedByObjectVersion
1070
     0
  0
ACAD_PROXY_OBJECT
  5
2C
102
{ACAD_REACTORS
330
2A
102
}
330
2A
100
AcDbProxyObject
 90
      499
 91
      501
 93
      476
310
43519B185D15DA5D1A115919D95CD0140901404333333333333E3BF0000000000000F9010740901411070040501600405405064090741402480A1B50
1001
ACAD
1000
AcDbSavedByObjectVersion
1070
     0
  0
ACAD_PROXY_OBJECT
  5
2D
102
{ACAD_REACTORS
330
2A
102
}
330
2A
100
AcDbProxyObject
 90
      499
 91
      501
 93
      412
310
41D1DBDD5C985D5910240902404333333333333E3BF0000000000000F9010740A411070040501641D405064090741402480A1B50
1001
ACAD
1000
AcDbSavedByObjectVersion
1070
     0
  0
ACAD_PROXY_OBJECT
  5
2E
102
{ACAD_REACTORS
330
2A
102
}
330
2A
100
AcDbProxyObject
 90
      499
 91
      501
 93
      500
310
4411DBDD5C985D5915DA5D1A115919D95CD0340902404333333333333E3BF0000000000000F9010740901411070040501600405405064090741402480A1B50
1001
ACAD
1000
AcDbSavedByObjectVersion
1070
     0
  0
ACAD_PROXY_OBJECT
  5
38
102
{ACAD_REACTORS
330
2A
102
}
330
2A
100
AcDbProxyObject
 90
      499
 91
      501
 93
      444
310
42D31A5B995C185D1D195C9B90E409028333333333333E3BF0000000000000FB010790141107004050750841D405064090741402483A0350
1001
ACAD
1000
AcDbSavedByObjectVersion
1070
     0
  0
ACAD_PROXY_OBJECT
  5
33
102
{ACAD_REACTORS
330
2A
102
}
330
2A
100
AcDbProxyObject
 90
      499
 91
      501
 93
      420
310
425499585B1A5CDD1A58D08409028333333333333E3BF0000000000000FB01079019070040501508421405064090741402480A1B40
1001
ACAD
1000
AcDbSavedByObjectVersion
1070
     0
  0
ACAD_PROXY_OBJECT
  5
37
102
{ACAD_REACTORS
330
2A
102
}
330
2A
100
AcDbProxyObject
 90
      499
 91
      501
 93
      412
310
41D51A1A58DAD95B90D409028333333333333E3BF0000000000000FB010790141107004050150C41D405064090741402480A0350
1001
ACAD
1000
AcDbSavedByObjectVersion
1070
     0
  0
XRECORD
  5
2EE
102
{ACAD_REACTORS
330
2E5
102
}
330
2E5
100
AcDbXrecord
 90
        0
  0
XRECORD
  5
304
102
{ACAD_REACTORS
330
2E5
102
}
330
2E5
100
AcDbXrecord
1000
DSTYLE
1002
{
1070
   171
 70
     2
1070
   143
 40
25.4
1070
   274
 70
     2
1070
    41
 40
0.18
1070
   141
 40
0.09
1070
   271
 70
     4
1070
    43
 40
0.38
1070
   278
 70
    46
1070
    44
 40
0.18
1070
    42
 40
0.0625
1070
   147
 40
0.09
1070
    77
 70
     0
1070
   272
 70
     4
1070
    73
 70
     1
1070
   172
 70
     0
1070
    74
 70
     1
1070
   283
 70
     1
1070
   340
340
11
1070
   140
 40
0.18
1070
   284
 70
     0
1070
    78
 70
     0
1002
}
  0
XRECORD
  5
2EF
102
{ACAD_REACTORS
330
2E5
102
}
330
2E5
100
AcDbXrecord
  1
{302E2BEF-1938-4B1C-95E3-0DF527124F14}
  0
XRECORD
  5
2E8
102
{ACAD_REACTORS
330
2E5
102
}
330
2E5
100
AcDbXrecord
  1

  0
XRECORD
  5
2ED
102
{ACAD_REACTORS
330
2E5
102
}
330
2E5
100
AcDbXrecord
 90
        4
  0
XRECORD
  5
2EA
102
{ACAD_REACTORS
330
2E5
102
}
330
2E5
100
AcDbXrecord
340
1A
  0
XRECORD
  5
2EC
102
{ACAD_REACTORS
330
2E5
102
}
330
2E5
100
AcDbXrecord
 90
    10781
  0
XRECORD
  5
2EB
102
{ACAD_REACTORS
330
2E5
102
}
330
2E5
100
AcDbXrecord
340
19
  0
XRECORD
  5
2F1
102
{ACAD_REACTORS
330
2E5
102
}
330
2E5
100
AcDbXrecord
 40
0.0
  0
XRECORD
  5
2F4
102
{ACAD_REACTORS
330
2E5
102
}
330
2E5
100
AcDbXrecord
340
0
  0
XRECORD
  5
2FA
102
{ACAD_REACTORS
330
2E5
102
}
330
2E5
100
AcDbXrecord
 10
0.0
 20
0.0
 30
0.0
  0
XRECORD
  5
2F6
102
{ACAD_REACTORS
330
2E5
102
}
330
2E5
100
AcDbXrecord
 10
0.0
 20
0.0
 30
0.0
  0
XRECORD
  5
2F9
102
{ACAD_REACTORS
330
2E5
102
}
330
2E5
100
AcDbXrecord
 10
0.0
 20
0.0
 30
0.0
  0
XRECORD
  5
2F7
102
{ACAD_REACTORS
330
2E5
102
}
330
2E5
100
AcDbXrecord
 10
0.0
 20
0.0
 30
0.0
  0
XRECORD
  5
2F8
102
{ACAD_REACTORS
330
2E5
102
}
330
2E5
100
AcDbXrecord
 10
0.0
 20
0.0
 30
0.0
  0
XRECORD
  5
2F5
102
{ACAD_REACTORS
330
2E5
102
}
330
2E5
100
AcDbXrecord
 10
0.0
 20
0.0
 30
0.0
  0
XRECORD
  5
2F2
102
{ACAD_REACTORS
330
2E5
102
}
330
2E5
100
AcDbXrecord
340
0
  0
XRECORD
  5
2F3
102
{ACAD_REACTORS
330
2E5
102
}
330
2E5
100
AcDbXrecord
 70
     0
  0
XRECORD
  5
2E9
102
{ACAD_REACTORS
330
2E5
102
}
330
2E5
100
AcDbXrecord
  1

  0
XRECORD
  5
2E6
102
{ACAD_REACTORS
330
2E5
102
}
330
2E5
100
AcDbXrecord
 90
        1
  0
XRECORD
  5
2E7
102
{ACAD_REACTORS
330
2E5
102
}
330
2E5
100
AcDbXrecord
 90
       70
  0
XRECORD
  5
2FD
102
{ACAD_REACTORS
330
2E5
102
}
330
2E5
100
AcDbXrecord
340
0
  0
XRECORD
  5
303
102
{ACAD_REACTORS
330
2E5
102
}
330
2E5
100
AcDbXrecord
 10
0.0
 20
0.0
 30
0.0
  0
XRECORD
  5
2FF
102
{ACAD_REACTORS
330
2E5
102
}
330
2E5
100
AcDbXrecord
 10
0.0
 20
0.0
 30
0.0
  0
XRECORD
  5
302
102
{ACAD_REACTORS
330
2E5
102
}
330
2E5
100
AcDbXrecord
 10
0.0
 20
0.0
 30
0.0
  0
XRECORD
  5
300
102
{ACAD_REACTORS
330
2E5
102
}
330
2E5
100
AcDbXrecord
 10
0.0
 20
0.0
 30
0.0
  0
XRECORD
  5
301
102
{ACAD_REACTORS
330
2E5
102
}
330
2E5
100
AcDbXrecord
 10
0.0
 20
0.0
 30
0.0
  0
XRECORD
  5
2FE
102
{ACAD_REACTORS
330
2E5
102
}
330
2E5
100
AcDbXrecord
 10
0.0
 20
0.0
 30
0.0
  0
XRECORD
  5
2FB
102
{ACAD_REACTORS
330
2E5
102
}
330
2E5
100
AcDbXrecord
340
0
  0
XRECORD
  5
2FC
102
{ACAD_REACTORS
330
2E5
102
}
330
2E5
100
AcDbXrecord
 70
     0
  0
XRECORD
  5
2F0
102
{ACAD_REACTORS
330
2E5
102
}
330
2E5
100
AcDbXrecord
  1
{FAEB1C32-E019-11D5-929B-00C0DF256EC4}
  0
DICTIONARYVAR
  5
308
102
{ACAD_REACTORS
330
305
102
}
330
305
100
DictionaryVariables
280
     0
  1
2
  0
DICTIONARYVAR
  5
309
102
{ACAD_REACTORS
330
305
102
}
330
305
100
DictionaryVariables
280
     0
  1
1
  0
DICTIONARY
  5
30C
330
3D
100
AcDbDictionary
280
     1
  3
ACAD_XREC_ROUNDTRIP
360
30D
  0
DICTIONARY
  5
30A
330
3C
100
AcDbDictionary
280
     1
  3
ACAD_XREC_ROUNDTRIP
360
30B
  0
DICTIONARY
  5
30E
330
3E
100
AcDbDictionary
280
     1
  3
ACAD_XREC_ROUNDTRIP
360
30F
  0
XRECORD
  5
30D
102
{ACAD_REACTORS
330
30C
102
}
330
30C
100
AcDbXrecord
102
MATERIAL
148
0.0
149
0.0
149
0.0
 93
        0
 94
      127
282
     0
 72
     1
 77
     1
171
     1
175
     1
179
     1
273
     0
  0
XRECORD
  5
30B
102
{ACAD_REACTORS
330
30A
102
}
330
30A
100
AcDbXrecord
102
MATERIAL
148
0.0
149
0.0
149
0.0
 93
        0
 94
      127
282
     0
 72
     1
 77
     1
171
     1
175
     1
179
     1
273
     0
  0
XRECORD
  5
30F
102
{ACAD_REACTORS
330
30E
102
}
330
30E
100
AcDbXrecord
102
MATERIAL
148
0.0
149
0.0
149
0.0
 93
        0
 94
      127
282
     0
 72
     1
 77
     1
171
     1
175
     1
179
     1
273
     0
  0
ENDSEC
  0
EOF
