  0
SECTION
  2
HEADER
  9
$ACADVER
  1
AC1014
  9
$ACADMAINTVER
 70
     9
  9
$DWGCODEPAGE
  3
ANSI_1252
  9
$INSBASE
 10
0.0
 20
0.0
 30
0.0
  9
$EXTMIN
 10
-0.5
 20
-0.5
 30
-0.5
  9
$EXTMAX
 10
5.0
 20
5.0
 30
5.0
  9
$LIMMIN
 10
-0.5
 20
-0.5
  9
$LIMMAX
 10
5.0
 20
5.0
  9
$ORTHOMODE
 70
     0
  9
$REGENMODE
 70
     1
  9
$FILLMODE
 70
     1
  9
$QTEXTMODE
 70
     0
  9
$MIRRTEXT
 70
     1
  9
$DRAGMODE
 70
     2
  9
$LTSCALE
 40
1.0
  9
$OSMODE
 70
    37
  9
$ATTMODE
 70
     1
  9
$TEXTSIZE
 40
0.2
  9
$TRACEWID
 40
0.05
  9
$TEXTSTYLE
  7
STANDARD
  9
$CLAYER
  8
0
  9
$CELTYPE
  6
BYLAYER
  9
$CECOLOR
 62
   256
  9
$CELTSCALE
 40
1.0
  9
$DELOBJ
 70
     1
  9
$DISPSILH
 70
     0
  9
$DIMSCALE
 40
1.0
  9
$DIMASZ
 40
0.18
  9
$DIMEXO
 40
0.0625
  9
$DIMDLI
 40
0.38
  9
$DIMRND
 40
0.0
  9
$DIMDLE
 40
0.0
  9
$DIMEXE
 40
0.18
  9
$DIMTP
 40
0.0
  9
$DIMTM
 40
0.0
  9
$DIMTXT
 40
0.18
  9
$DIMCEN
 40
0.09
  9
$DIMTSZ
 40
0.0
  9
$DIMTOL
 70
     0
  9
$DIMLIM
 70
     0
  9
$DIMTIH
 70
     1
  9
$DIMTOH
 70
     1
  9
$DIMSE1
 70
     0
  9
$DIMSE2
 70
     0
  9
$DIMTAD
 70
     0
  9
$DIMZIN
 70
     0
  9
$DIMBLK
  1

  9
$DIMASO
 70
     1
  9
$DIMSHO
 70
     1
  9
$DIMPOST
  1

  9
$DIMAPOST
  1

  9
$DIMALT
 70
     0
  9
$DIMALTD
 70
     2
  9
$DIMALTF
 40
25.4
  9
$DIMLFAC
 40
1.0
  9
$DIMTOFL
 70
     0
  9
$DIMTVP
 40
0.0
  9
$DIMTIX
 70
     0
  9
$DIMSOXD
 70
     0
  9
$DIMSAH
 70
     0
  9
$DIMBLK1
  1

  9
$DIMBLK2
  1

  9
$DIMSTYLE
  2
STANDARD
  9
$DIMCLRD
 70
     0
  9
$DIMCLRE
 70
     0
  9
$DIMCLRT
 70
     0
  9
$DIMTFAC
 40
1.0
  9
$DIMGAP
 40
0.09
  9
$DIMJUST
 70
     0
  9
$DIMSD1
 70
     0
  9
$DIMSD2
 70
     0
  9
$DIMTOLJ
 70
     1
  9
$DIMTZIN
 70
     0
  9
$DIMALTZ
 70
     0
  9
$DIMALTTZ
 70
     0
  9
$DIMFIT
 70
     3
  9
$DIMUPT
 70
     0
  9
$DIMUNIT
 70
     2
  9
$DIMDEC
 70
     4
  9
$DIMTDEC
 70
     4
  9
$DIMALTU
 70
     2
  9
$DIMALTTD
 70
     2
  9
$DIMTXSTY
  7
STANDARD
  9
$DIMAUNIT
 70
     0
  9
$LUNITS
 70
     2
  9
$LUPREC
 70
     4
  9
$SKETCHINC
 40
0.1
  9
$FILLETRAD
 40
0.5
  9
$AUNITS
 70
     0
  9
$AUPREC
 70
     0
  9
$MENU
  1
.
  9
$ELEVATION
 40
0.0
  9
$PELEVATION
 40
0.0
  9
$THICKNESS
 40
0.0
  9
$LIMCHECK
 70
     0
  9
$CHAMFERA
 40
0.5
  9
$CHAMFERB
 40
0.5
  9
$CHAMFERC
 40
1.0
  9
$CHAMFERD
 40
0.0
  9
$SKPOLY
 70
     0
  9
$TDCREATE
 40
2457770.432588021
  9
$TDUPDATE
 40
2457770.432588032
  9
$TDINDWG
 40
0.0000000116
  9
$TDUSRTIMER
 40
0.0000000116
  9
$USRTIMER
 70
     1
  9
$ANGBASE
 50
0.0
  9
$ANGDIR
 70
     0
  9
$PDMODE
 70
     0
  9
$PDSIZE
 40
0.0
  9
$PLINEWID
 40
0.0
  9
$COORDS
 70
     1
  9
$SPLFRAME
 70
     0
  9
$SPLINETYPE
 70
     6
  9
$SPLINESEGS
 70
     8
  9
$ATTDIA
 70
     0
  9
$ATTREQ
 70
     1
  9
$HANDLING
 70
     1
  9
$HANDSEED
  5
24C
  9
$SURFTAB1
 70
     6
  9
$SURFTAB2
 70
     6
  9
$SURFTYPE
 70
     6
  9
$SURFU
 70
     6
  9
$SURFV
 70
     6
  9
$UCSNAME
  2

  9
$UCSORG
 10
0.0
 20
0.0
 30
0.0
  9
$UCSXDIR
 10
1.0
 20
0.0
 30
0.0
  9
$UCSYDIR
 10
0.0
 20
1.0
 30
0.0
  9
$PUCSNAME
  2

  9
$PUCSORG
 10
0.0
 20
0.0
 30
0.0
  9
$PUCSXDIR
 10
1.0
 20
0.0
 30
0.0
  9
$PUCSYDIR
 10
0.0
 20
1.0
 30
0.0
  9
$USERI1
 70
     0
  9
$USERI2
 70
     0
  9
$USERI3
 70
     0
  9
$USERI4
 70
     0
  9
$USERI5
 70
     0
  9
$USERR1
 40
0.0
  9
$USERR2
 40
0.0
  9
$USERR3
 40
0.0
  9
$USERR4
 40
0.0
  9
$USERR5
 40
0.0
  9
$WORLDVIEW
 70
     1
  9
$SHADEDGE
 70
     3
  9
$SHADEDIF
 70
    70
  9
$TILEMODE
 70
     1
  9
$MAXACTVP
 70
    64
  9
$PINSBASE
 10
0.0
 20
0.0
 30
0.0
  9
$PLIMCHECK
 70
     0
  9
$PEXTMIN
 10
-0.5
 20
-0.5
 30
-0.5
  9
$PEXTMAX
 10
5.0
 20
5.0
 30
5.0
  9
$PLIMMIN
 10
-0.5
 20
-0.5
  9
$PLIMMAX
 10
5.0
 20
5.0
  9
$UNITMODE
 70
     0
  9
$VISRETAIN
 70
     1
  9
$PLINEGEN
 70
     0
  9
$PSLTSCALE
 70
     1
  9
$TREEDEPTH
 70
  3020
  9
$PICKSTYLE
 70
     1
  9
$CMLSTYLE
  2
STANDARD
  9
$CMLJUST
 70
     0
  9
$CMLSCALE
 40
1.0
  9
$PROXYGRAPHICS
 70
     1
  9
$MEASUREMENT
 70
     1
  0
ENDSEC
  0
SECTION
  2
CLASSES
  0
CLASS
  1
ACDBDICTIONARYWDFLT
  2
AcDbDictionaryWithDefault
  3
ObjectDBX Classes
 90
        0
280
     0
281
     0
  0
CLASS
  1
VISUALSTYLE
  2
AcDbVisualStyle
  3
ObjectDBX Classes
 90
     4095
280
     0
281
     0
  0
CLASS
  1
MATERIAL
  2
AcDbMaterial
  3
ObjectDBX Classes
 90
     1153
280
     0
281
     0
  0
CLASS
  1
DICTIONARYVAR
  2
AcDbDictionaryVar
  3
ObjectDBX Classes
 90
        0
280
     0
281
     0
  0
CLASS
  1
XRECORD
  2
AcDbXrecord
  3
AutoCAD 2000
 90
        0
280
     0
281
     0
  0
CLASS
  1
LWPOLYLINE
  2
AcDbPolyline
  3
AutoCAD 2000
 90
        0
280
     0
281
     1
  0
CLASS
  1
HATCH
  2
AcDbHatch
  3
AutoCAD 2000
 90
        0
280
     0
281
     1
  0
CLASS
  1
ACDBPLACEHOLDER
  2
AcDbPlaceHolder
  3
ObjectDBX Classes
 90
        0
280
     0
281
     0
  0
CLASS
  1
LAYOUT
  2
AcDbLayout
  3
ObjectDBX Classes
 90
        0
280
     0
281
     0
  0
ENDSEC
  0
SECTION
  2
TABLES
  0
TABLE
  2
VPORT
  5
8
330
0
100
AcDbSymbolTable
 70
    17
  0
VPORT
  5
29
330
8
100
AcDbSymbolTableRecord
100
AcDbViewportTableRecord
  2
DUMMY
 70
     0
 10
0.0
 20
0.0
 11
1.0
 21
1.0
 12
10.429907
 22
4.5
 13
0.0
 23
0.0
 14
0.5
 24
0.5
 15
0.5
 25
0.5
 16
0.0
 26
0.0
 36
1.0
 17
0.0
 27
0.0
 37
0.0
 40
9.0
 41
1.972973
 42
50.0
 43
0.0
 44
0.0
 50
0.0
 51
0.0
 71
     0
 72
   100
 73
     1
 74
     3
 75
     0
 76
     0
 77
     0
 78
     0
  0
VPORT
  5
211
330
8
100
AcDbSymbolTableRecord
100
AcDbViewportTableRecord
  2
*ACTIVE
 70
     0
 10
0.0
 20
0.0
 11
1.0
 21
1.0
 12
99.747502
 22
148.5
 13
0.0
 23
0.0
 14
0.5
 24
0.5
 15
0.5
 25
0.5
 16
0.0
 26
0.0
 36
1.0
 17
0.0
 27
0.0
 37
0.0
 40
254.0
 41
0.069908
 42
50.0
 43
573.696132
 44
-573.696132
 50
0.0
 51
0.0
 71
     0
 72
   100
 73
     1
 74
     3
 75
     0
 76
     0
 77
     0
 78
     0
  0
VPORT
  5
212
330
8
100
AcDbSymbolTableRecord
100
AcDbViewportTableRecord
  2
L1
 70
     0
 10
0.0
 20
0.0
 11
1.0
 21
1.0
 12
99.747502
 22
148.5
 13
0.0
 23
0.0
 14
0.5
 24
0.5
 15
0.5
 25
0.5
 16
0.0
 26
0.0
 36
1.0
 17
0.0
 27
0.0
 37
0.0
 40
254.0
 41
0.069908
 42
50.0
 43
573.696132
 44
-573.696132
 50
0.0
 51
0.0
 71
     0
 72
   100
 73
     1
 74
     3
 75
     0
 76
     0
 77
     0
 78
     0
  0
VPORT
  5
213
330
8
100
AcDbSymbolTableRecord
100
AcDbViewportTableRecord
  2
L2
 70
     0
 10
0.0
 20
0.0
 11
0.5
 21
1.0
 12
0.0
 22
0.0
 13
0.0
 23
0.0
 14
0.5
 24
0.5
 15
0.5
 25
0.5
 16
0.0
 26
-1.0
 36
0.0
 17
0.0
 27
0.0
 37
0.0
 40
1319.822715
 41
0.013454
 42
50.0
 43
672.020833
 44
-672.020833
 50
0.0
 51
0.0
 71
     0
 72
   100
 73
     1
 74
     3
 75
     0
 76
     0
 77
     0
 78
     0
  0
VPORT
  5
214
330
8
100
AcDbSymbolTableRecord
100
AcDbViewportTableRecord
  2
L2
 70
     0
 10
0.5
 20
0.0
 11
1.0
 21
1.0
 12
0.0
 22
0.0
 13
0.0
 23
0.0
 14
0.5
 24
0.5
 15
0.5
 25
0.5
 16
1.0
 26
0.0
 36
0.0
 17
0.0
 27
0.0
 37
0.0
 40
1319.822715
 41
0.013454
 42
50.0
 43
672.020833
 44
-672.020833
 50
0.0
 51
0.0
 71
     0
 72
   100
 73
     1
 74
     3
 75
     0
 76
     0
 77
     0
 78
     0
  0
VPORT
  5
215
330
8
100
AcDbSymbolTableRecord
100
AcDbViewportTableRecord
  2
L3
 70
     0
 10
0.0
 20
0.5
 11
1.0
 21
1.0
 12
99.747502
 22
148.5
 13
0.0
 23
0.0
 14
0.5
 24
0.5
 15
0.5
 25
0.5
 16
0.0
 26
0.0
 36
1.0
 17
0.0
 27
0.0
 37
0.0
 40
254.0
 41
0.069908
 42
50.0
 43
573.696132
 44
-573.696132
 50
0.0
 51
0.0
 71
     0
 72
   100
 73
     1
 74
     3
 75
     0
 76
     0
 77
     0
 78
     0
  0
VPORT
  5
216
330
8
100
AcDbSymbolTableRecord
100
AcDbViewportTableRecord
  2
L3
 70
     0
 10
0.0
 20
0.0
 11
1.0
 21
0.5
 12
0.0
 22
0.0
 13
0.0
 23
0.0
 14
0.5
 24
0.5
 15
0.5
 25
0.5
 16
0.0
 26
-1.0
 36
0.0
 17
0.0
 27
0.0
 37
0.0
 40
1319.822715
 41
0.013454
 42
50.0
 43
672.020833
 44
-672.020833
 50
0.0
 51
0.0
 71
     0
 72
   100
 73
     1
 74
     3
 75
     0
 76
     0
 77
     0
 78
     0
  0
VPORT
  5
217
330
8
100
AcDbSymbolTableRecord
100
AcDbViewportTableRecord
  2
L4
 70
     0
 10
0.0
 20
0.5
 11
0.5
 21
1.0
 12
99.747502
 22
148.5
 13
0.0
 23
0.0
 14
0.5
 24
0.5
 15
0.5
 25
0.5
 16
0.0
 26
0.0
 36
1.0
 17
0.0
 27
0.0
 37
0.0
 40
254.0
 41
0.069908
 42
50.0
 43
573.696132
 44
-573.696132
 50
0.0
 51
0.0
 71
     0
 72
   100
 73
     1
 74
     3
 75
     0
 76
     0
 77
     0
 78
     0
  0
VPORT
  5
218
330
8
100
AcDbSymbolTableRecord
100
AcDbViewportTableRecord
  2
L4
 70
     0
 10
0.0
 20
0.0
 11
0.5
 21
0.5
 12
0.0
 22
0.0
 13
0.0
 23
0.0
 14
0.5
 24
0.5
 15
0.5
 25
0.5
 16
0.0
 26
-1.0
 36
0.0
 17
0.0
 27
0.0
 37
0.0
 40
1319.822715
 41
0.013454
 42
50.0
 43
672.020833
 44
-672.020833
 50
0.0
 51
0.0
 71
     0
 72
   100
 73
     1
 74
     3
 75
     0
 76
     0
 77
     0
 78
     0
  0
VPORT
  5
219
330
8
100
AcDbSymbolTableRecord
100
AcDbViewportTableRecord
  2
L4
 70
     0
 10
0.5
 20
0.0
 11
1.0
 21
0.5
 12
0.0
 22
0.0
 13
0.0
 23
0.0
 14
0.5
 24
0.5
 15
0.5
 25
0.5
 16
1.0
 26
0.0
 36
0.0
 17
0.0
 27
0.0
 37
0.0
 40
1319.822715
 41
0.013454
 42
50.0
 43
672.020833
 44
-672.020833
 50
0.0
 51
0.0
 71
     0
 72
   100
 73
     1
 74
     3
 75
     0
 76
     0
 77
     0
 78
     0
  0
VPORT
  5
21A
330
8
100
AcDbSymbolTableRecord
100
AcDbViewportTableRecord
  2
L4
 70
     0
 10
0.5
 20
0.5
 11
1.0
 21
1.0
 12
0.0
 22
0.0
 13
0.0
 23
0.0
 14
0.5
 24
0.5
 15
0.5
 25
0.5
 16
0.5773502691896258
 26
-0.5773502691896258
 36
0.5773502691896258
 17
0.0
 27
0.0
 37
0.0
 40
1285.020866
 41
0.013818
 42
50.0
 43
667.141407
 44
-667.141407
 50
0.0
 51
0.0
 71
     0
 72
   100
 73
     1
 74
     3
 75
     0
 76
     0
 77
     0
 78
     0
  0
VPORT
  5
21B
330
8
100
AcDbSymbolTableRecord
100
AcDbViewportTableRecord
  2
L6
 70
     0
 10
0.0
 20
0.5
 11
0.333333
 21
1.0
 12
0.0
 22
0.0
 13
0.0
 23
0.0
 14
0.5
 24
0.5
 15
0.5
 25
0.5
 16
0.7188730927569434
 26
-0.5850486126764431
 36
0.3754192287502549
 17
0.0
 27
0.0
 37
0.0
 40
1357.434192
 41
0.013081
 42
50.0
 43
701.839477
 44
-701.839477
 50
0.0
 51
0.0
 71
     0
 72
   100
 73
     1
 74
     3
 75
     0
 76
     0
 77
     0
 78
     0
  0
VPORT
  5
21C
330
8
100
AcDbSymbolTableRecord
100
AcDbViewportTableRecord
  2
L6
 70
     0
 10
0.0
 20
0.0
 11
0.333333
 21
0.5
 12
0.0
 22
0.0
 13
0.0
 23
0.0
 14
0.5
 24
0.5
 15
0.5
 25
0.5
 16
-1.0
 26
0.0
 36
0.0
 17
0.0
 27
0.0
 37
0.0
 40
1319.822715
 41
0.013454
 42
50.0
 43
672.020833
 44
-672.020833
 50
0.0
 51
0.0
 71
     0
 72
   100
 73
     1
 74
     3
 75
     0
 76
     0
 77
     0
 78
     0
  0
VPORT
  5
21D
330
8
100
AcDbSymbolTableRecord
100
AcDbViewportTableRecord
  2
L6
 70
     0
 10
0.333333
 20
0.5
 11
0.666667
 21
1.0
 12
99.747502
 22
148.5
 13
0.0
 23
0.0
 14
0.5
 24
0.5
 15
0.5
 25
0.5
 16
0.0
 26
0.0
 36
1.0
 17
0.0
 27
0.0
 37
0.0
 40
254.0
 41
0.069908
 42
50.0
 43
573.696132
 44
-573.696132
 50
0.0
 51
0.0
 71
     0
 72
   100
 73
     1
 74
     3
 75
     0
 76
     0
 77
     0
 78
     0
  0
VPORT
  5
21E
330
8
100
AcDbSymbolTableRecord
100
AcDbViewportTableRecord
  2
L6
 70
     0
 10
0.333333
 20
0.0
 11
0.666667
 21
0.5
 12
0.0
 22
0.0
 13
0.0
 23
0.0
 14
0.5
 24
0.5
 15
0.5
 25
0.5
 16
0.0
 26
-1.0
 36
0.0
 17
0.0
 27
0.0
 37
0.0
 40
1319.822715
 41
0.013454
 42
50.0
 43
672.020833
 44
-672.020833
 50
0.0
 51
0.0
 71
     0
 72
   100
 73
     1
 74
     3
 75
     0
 76
     0
 77
     0
 78
     0
  0
VPORT
  5
21F
330
8
100
AcDbSymbolTableRecord
100
AcDbViewportTableRecord
  2
L6
 70
     0
 10
0.666667
 20
0.5
 11
1.0
 21
1.0
 12
0.0
 22
0.0
 13
0.0
 23
0.0
 14
0.5
 24
0.5
 15
0.5
 25
0.5
 16
0.5773502691896258
 26
-0.5773502691896258
 36
0.5773502691896258
 17
0.0
 27
0.0
 37
0.0
 40
1285.020866
 41
0.013818
 42
50.0
 43
667.141407
 44
-667.141407
 50
0.0
 51
0.0
 71
     0
 72
   100
 73
     1
 74
     3
 75
     0
 76
     0
 77
     0
 78
     0
  0
VPORT
  5
220
330
8
100
AcDbSymbolTableRecord
100
AcDbViewportTableRecord
  2
L6
 70
     0
 10
0.666667
 20
0.0
 11
1.0
 21
0.5
 12
0.0
 22
0.0
 13
0.0
 23
0.0
 14
0.5
 24
0.5
 15
0.5
 25
0.5
 16
1.0
 26
0.0
 36
0.0
 17
0.0
 27
0.0
 37
0.0
 40
1319.822715
 41
0.013454
 42
50.0
 43
672.020833
 44
-672.020833
 50
0.0
 51
0.0
 71
     0
 72
   100
 73
     1
 74
     3
 75
     0
 76
     0
 77
     0
 78
     0
  0
ENDTAB
  0
TABLE
  2
LTYPE
  5
5
330
0
100
AcDbSymbolTable
 70
     7
  0
LTYPE
  5
14
330
5
100
AcDbSymbolTableRecord
100
AcDbLinetypeTableRecord
  2
BYBLOCK
 70
     0
  3

 72
    65
 73
     0
 40
0.0
  0
LTYPE
  5
15
330
5
100
AcDbSymbolTableRecord
100
AcDbLinetypeTableRecord
  2
BYLAYER
 70
     0
  3

 72
    65
 73
     0
 40
0.0
  0
LTYPE
  5
16
330
5
100
AcDbSymbolTableRecord
100
AcDbLinetypeTableRecord
  2
CONTINUOUS
 70
     0
  3
Solid line
 72
    65
 73
     0
 40
0.0
  0
LTYPE
  5
3F
330
5
100
AcDbSymbolTableRecord
100
AcDbLinetypeTableRecord
  2
DASHED
 70
     0
  3
__ __ __ __ __ __ __ __ __
 72
    65
 73
     2
 40
25.72
 49
12.86
 74
     4
 75
     0
340
0
 46
0.0
 50
0.0
 44
0.0
 45
0.0
 49
-12.86
 74
     4
 75
     0
340
0
 46
0.0
 50
0.0
 44
0.0
 45
0.0
  0
LTYPE
  5
40
330
5
100
AcDbSymbolTableRecord
100
AcDbLinetypeTableRecord
  2
HIDDEN
 70
     0
  3
_ _ _ _ _ _ _ _ _ _ _ _ _ _ _
 72
    65
 73
     2
 40
0.5
 49
0.25
 74
     4
 75
     0
340
0
 46
0.0
 50
0.0
 44
0.0
 45
0.0
 49
-0.25
 74
     4
 75
     0
340
0
 46
0.0
 50
0.0
 44
0.0
 45
0.0
  0
LTYPE
  5
41
330
5
100
AcDbSymbolTableRecord
100
AcDbLinetypeTableRecord
  2
PHANTOM
 70
     0
  3
____ _ _ ____ _ _ _____ _ _ ____
 72
    65
 73
     6
 40
50.5
 49
18.0
 74
     4
 75
     0
340
0
 46
0.0
 50
0.0
 44
0.0
 45
0.0
 49
-6.5
 74
     4
 75
     0
340
0
 46
0.0
 50
0.0
 44
0.0
 45
0.0
 49
6.5
 74
     4
 75
     0
340
0
 46
0.0
 50
0.0
 44
0.0
 45
0.0
 49
-6.5
 74
     4
 75
     0
340
0
 46
0.0
 50
0.0
 44
0.0
 45
0.0
 49
6.5
 74
     4
 75
     0
340
0
 46
0.0
 50
0.0
 44
0.0
 45
0.0
 49
-6.5
 74
     4
 75
     0
340
0
 46
0.0
 50
0.0
 44
0.0
 45
0.0
  0
LTYPE
  5
42
330
5
100
AcDbSymbolTableRecord
100
AcDbLinetypeTableRecord
  2
CENTER
 70
     0
  3
____ _ ____ _ ____ _ ____
 72
    65
 73
     4
 40
47.4
 49
22.0
 74
     4
 75
     0
340
0
 46
0.0
 50
0.0
 44
0.0
 45
0.0
 49
-8.5
 74
     4
 75
     0
340
0
 46
0.0
 50
0.0
 44
0.0
 45
0.0
 49
8.5
 74
     4
 75
     0
340
0
 46
0.0
 50
0.0
 44
0.0
 45
0.0
 49
-8.5
 74
     4
 75
     0
340
0
 46
0.0
 50
0.0
 44
0.0
 45
0.0
  0
LTYPE
  5
43
330
5
100
AcDbSymbolTableRecord
100
AcDbLinetypeTableRecord
  2
DOT
 70
     0
  3
.........................
 72
    65
 73
     2
 40
10.0
 49
0.0
 74
     4
 75
     0
340
0
 46
0.0
 50
0.0
 44
0.0
 45
0.0
 49
-10.0
 74
     4
 75
     0
340
0
 46
0.0
 50
0.0
 44
0.0
 45
0.0
  0
LTYPE
  5
44
330
5
100
AcDbSymbolTableRecord
100
AcDbLinetypeTableRecord
  2
DASHDOT
 70
     0
  3
_._._._._._._._._._._._._._._._.
 72
    65
 73
     4
 40
70.0
 49
31.0
 74
     4
 75
     0
340
0
 46
0.0
 50
0.0
 44
0.0
 45
0.0
 49
-13.0
 74
     4
 75
     0
340
0
 46
0.0
 50
0.0
 44
0.0
 45
0.0
 49
13.0
 74
     4
 75
     0
340
0
 46
0.0
 50
0.0
 44
0.0
 45
0.0
 49
-13.0
 74
     4
 75
     0
340
0
 46
0.0
 50
0.0
 44
0.0
 45
0.0
  0
ENDTAB
  0
TABLE
  2
LAYER
  5
2
330
0
100
AcDbSymbolTable
 70
     5
  0
LAYER
  5
10
330
2
100
AcDbSymbolTableRecord
100
AcDbLayerTableRecord
  2
0
 70
     0
 62
     7
  6
CONTINUOUS
  0
LAYER
  5
46
330
2
100
AcDbSymbolTableRecord
100
AcDbLayerTableRecord
  2
1
 70
     0
 62
     7
  6
CONTINUOUS
  0
LAYER
  5
74
330
2
100
AcDbSymbolTableRecord
100
AcDbLayerTableRecord
  2
256
 70
     0
 62
     7
  6
CONTINUOUS
  0
LAYER
  5
D5
330
2
100
AcDbSymbolTableRecord
100
AcDbLayerTableRecord
  2
TOP
 70
     0
 62
     7
  6
CONTINUOUS
  0
LAYER
  5
F1
330
2
100
AcDbSymbolTableRecord
100
AcDbLayerTableRecord
  2
255
 70
     0
 62
     7
  6
CONTINUOUS
  0
ENDTAB
  0
TABLE
  2
STYLE
  5
3
330
0
100
AcDbSymbolTable
 70
     4
  0
STYLE
  5
11
330
3
100
AcDbSymbolTableRecord
100
AcDbTextStyleTableRecord
  2
STANDARD
 70
     0
 40
0.0
 41
1.0
 50
0.0
 71
     0
 42
0.2
  3
txt
  4

  0
STYLE
  5
D0
330
3
100
AcDbSymbolTableRecord
100
AcDbTextStyleTableRecord
  2
DEFAULT
 70
     0
 40
0.0
 41
1.0
 50
0.0
 71
     0
 42
0.2
  3
simplex.shx
  4

  0
STYLE
  5
D1
330
3
100
AcDbSymbolTableRecord
100
AcDbTextStyleTableRecord
  2
DWGDIRECTTEXTSTYLE
 70
     0
 40
0.0
 41
1.0
 50
0.0
 71
     0
 42
0.2
  3
SIMPLEX
  4
bigfont
  0
STYLE
  5
ED
330
3
100
AcDbSymbolTableRecord
100
AcDbTextStyleTableRecord
  2
BLOCKFONT
 70
     0
 40
0.0
 41
1.0
 50
0.0
 71
     0
 42
0.2
  3
simplex.shx
  4

  0
ENDTAB
  0
TABLE
  2
VIEW
  5
6
330
0
100
AcDbSymbolTable
 70
     0
  0
ENDTAB
  0
TABLE
  2
UCS
  5
7
330
0
100
AcDbSymbolTable
 70
     0
  0
ENDTAB
  0
TABLE
  2
APPID
  5
9
330
0
100
AcDbSymbolTable
 70
     1
  0
APPID
  5
12
330
9
100
AcDbSymbolTableRecord
100
AcDbRegAppTableRecord
  2
ACAD
 70
     0
  0
ENDTAB
  0
TABLE
  2
DIMSTYLE
  5
A
330
0
100
AcDbSymbolTable
 70
     1
  0
DIMSTYLE
105
27
102
{ACAD_REACTORS
330
14B
330
154
330
15E
330
167
330
170
330
17A
330
184
330
18E
330
197
330
1A0
330
1A9
330
1B2
330
1BB
330
1C4
330
1CD
330
1D6
330
1DF
330
1E9
330
1F4
330
1FC
330
206
330
210
102
}
330
A
100
AcDbSymbolTableRecord
100
AcDbDimStyleTableRecord
  2
STANDARD
 70
     0
  3

  4

  5

  6

  7

 40
1.0
 41
0.18
 42
0.0625
 43
0.38
 44
0.18
 45
0.0
 46
0.0
 47
0.0
 48
0.0
140
0.18
141
0.09
142
0.0
143
25.4
144
1.0
145
0.0
146
1.0
147
0.09
 71
     0
 72
     0
 73
     1
 74
     1
 75
     0
 76
     0
 77
     0
 78
     0
170
     0
171
     2
172
     0
173
     0
174
     0
175
     0
176
     0
177
     0
178
     0
270
     2
271
     4
272
     4
273
     2
274
     2
340
11
275
     0
280
     0
281
     0
282
     0
283
     1
284
     0
285
     0
286
     0
287
     3
288
     0
  0
ENDTAB
  0
TABLE
  2
BLOCK_RECORD
  5
1
330
0
100
AcDbSymbolTable
 70
    26
  0
BLOCK_RECORD
  5
1F
330
1
100
AcDbSymbolTableRecord
100
AcDbBlockTableRecord
  2
*MODEL_SPACE
  0
BLOCK_RECORD
  5
1B
330
1
100
AcDbSymbolTableRecord
100
AcDbBlockTableRecord
  2
*PAPER_SPACE
  0
BLOCK_RECORD
  5
CD
330
1
100
AcDbSymbolTableRecord
100
AcDbBlockTableRecord
  2
LABLE3D_1
  0
BLOCK_RECORD
  5
D6
330
1
100
AcDbSymbolTableRecord
100
AcDbBlockTableRecord
  2
LABLE3D_2
  0
BLOCK_RECORD
  5
DD
330
1
100
AcDbSymbolTableRecord
100
AcDbBlockTableRecord
  2
LABLE3D_3
  0
BLOCK_RECORD
  5
143
330
1
100
AcDbSymbolTableRecord
100
AcDbBlockTableRecord
  2
DIMNDRAFT3D1
  0
BLOCK_RECORD
  5
14C
330
1
100
AcDbSymbolTableRecord
100
AcDbBlockTableRecord
  2
DIMNDRAFT3D2
  0
BLOCK_RECORD
  5
155
330
1
100
AcDbSymbolTableRecord
100
AcDbBlockTableRecord
  2
DIMNDRAFT3D3
  0
BLOCK_RECORD
  5
15F
330
1
100
AcDbSymbolTableRecord
100
AcDbBlockTableRecord
  2
DIMNDRAFT3D4
  0
BLOCK_RECORD
  5
168
330
1
100
AcDbSymbolTableRecord
100
AcDbBlockTableRecord
  2
DIMNDRAFT3D5
  0
BLOCK_RECORD
  5
171
330
1
100
AcDbSymbolTableRecord
100
AcDbBlockTableRecord
  2
DIMNDRAFT3D6
  0
BLOCK_RECORD
  5
17B
330
1
100
AcDbSymbolTableRecord
100
AcDbBlockTableRecord
  2
DIMNDRAFT3D7
  0
BLOCK_RECORD
  5
185
330
1
100
AcDbSymbolTableRecord
100
AcDbBlockTableRecord
  2
DIMNDRAFT3D8
  0
BLOCK_RECORD
  5
18F
330
1
100
AcDbSymbolTableRecord
100
AcDbBlockTableRecord
  2
DIMNDRAFT3D9
  0
BLOCK_RECORD
  5
198
330
1
100
AcDbSymbolTableRecord
100
AcDbBlockTableRecord
  2
DIMNDRAFT3D10
  0
BLOCK_RECORD
  5
1A1
330
1
100
AcDbSymbolTableRecord
100
AcDbBlockTableRecord
  2
DIMNDRAFT3D11
  0
BLOCK_RECORD
  5
1AA
330
1
100
AcDbSymbolTableRecord
100
AcDbBlockTableRecord
  2
DIMNDRAFT3D12
  0
BLOCK_RECORD
  5
1B3
330
1
100
AcDbSymbolTableRecord
100
AcDbBlockTableRecord
  2
DIMNDRAFT3D13
  0
BLOCK_RECORD
  5
1BC
330
1
100
AcDbSymbolTableRecord
100
AcDbBlockTableRecord
  2
DIMNDRAFT3D14
  0
BLOCK_RECORD
  5
1C5
330
1
100
AcDbSymbolTableRecord
100
AcDbBlockTableRecord
  2
DIMNDRAFT3D15
  0
BLOCK_RECORD
  5
1CE
330
1
100
AcDbSymbolTableRecord
100
AcDbBlockTableRecord
  2
DIMNDRAFT3D16
  0
BLOCK_RECORD
  5
1D7
330
1
100
AcDbSymbolTableRecord
100
AcDbBlockTableRecord
  2
DIMNDRAFT3D17
  0
BLOCK_RECORD
  5
1E0
330
1
100
AcDbSymbolTableRecord
100
AcDbBlockTableRecord
  2
DIMNDRAFT3D18
  0
BLOCK_RECORD
  5
1EA
330
1
100
AcDbSymbolTableRecord
100
AcDbBlockTableRecord
  2
DIMNDRAFT3D19
  0
BLOCK_RECORD
  5
1F5
330
1
100
AcDbSymbolTableRecord
100
AcDbBlockTableRecord
  2
DIMNDRAFT3D20
  0
BLOCK_RECORD
  5
1FD
330
1
100
AcDbSymbolTableRecord
100
AcDbBlockTableRecord
  2
DIMNDRAFT3D21
  0
BLOCK_RECORD
  5
207
330
1
100
AcDbSymbolTableRecord
100
AcDbBlockTableRecord
  2
DIMNDRAFT3D22
  0
ENDTAB
  0
ENDSEC
  0
SECTION
  2
BLOCKS
  0
BLOCK
  5
20
330
1F
100
AcDbEntity
  8
0
100
AcDbBlockBegin
  2
*MODEL_SPACE
 70
     0
 10
0.0
 20
0.0
 30
0.0
  3
*MODEL_SPACE
  1

  0
ENDBLK
  5
21
330
1F
100
AcDbEntity
  8
0
100
AcDbBlockEnd
  0
BLOCK
  5
1C
330
1B
100
AcDbEntity
 67
     1
  8
0
100
AcDbBlockBegin
  2
*PAPER_SPACE
 70
     0
 10
0.0
 20
0.0
 30
0.0
  3
*PAPER_SPACE
  1

  0
ENDBLK
  5
1D
330
1B
100
AcDbEntity
 67
     1
  8
0
100
AcDbBlockEnd
  0
BLOCK
  5
D3
330
CD
100
AcDbEntity
  8
0
100
AcDbBlockBegin
  2
LABLE3D_1
 70
     0
 10
0.0
 20
0.0
 30
0.0
  3
LABLE3D_1
  1

  0
MTEXT
  5
CF
330
CD
100
AcDbEntity
  8
1
  6
CONTINUOUS
 62
     3
100
AcDbMText
 10
25.886838
 20
176.987928
 30
0.0
 40
3.5
 41
0.0
 71
     7
 72
     5
  1
\W00.834;2a 
  7
DEFAULT
1001
ACAD
1000
MTEXTBEGIN
1070
    73
1070
     2
1070
    44
1040
0.903614
1000
MTEXTEND
1000
ACAD_MTEXT_DEFINED_HEIGHT_BEGIN
1070
    46
1040
0.2
1000
ACAD_MTEXT_DEFINED_HEIGHT_END
  0
ENDBLK
  5
D4
330
CD
100
AcDbEntity
  8
0
100
AcDbBlockEnd
  0
BLOCK
  5
DA
330
D6
100
AcDbEntity
  8
0
100
AcDbBlockBegin
  2
LABLE3D_2
 70
     0
 10
0.0
 20
0.0
 30
0.0
  3
LABLE3D_2
  1

  0
MTEXT
  5
D8
330
D6
100
AcDbEntity
  8
1
  6
CONTINUOUS
 62
     3
100
AcDbMText
 10
167.943932
 20
233.83987
 30
0.0
 40
3.5
 41
0.0
 71
     7
 72
     5
  1
\W00.834;5a 
  7
DEFAULT
1001
ACAD
1000
MTEXTBEGIN
1070
    73
1070
     2
1070
    44
1040
0.903614
1000
MTEXTEND
1000
ACAD_MTEXT_DEFINED_HEIGHT_BEGIN
1070
    46
1040
0.2
1000
ACAD_MTEXT_DEFINED_HEIGHT_END
  0
ENDBLK
  5
DB
330
D6
100
AcDbEntity
  8
0
100
AcDbBlockEnd
  0
BLOCK
  5
E1
330
DD
100
AcDbEntity
  8
0
100
AcDbBlockBegin
  2
LABLE3D_3
 70
     0
 10
0.0
 20
0.0
 30
0.0
  3
LABLE3D_3
  1

  0
MTEXT
  5
DF
330
DD
100
AcDbEntity
  8
1
  6
CONTINUOUS
 62
     3
100
AcDbMText
 10
63.877553
 20
241.405459
 30
0.0
 40
3.5
 41
0.0
 71
     7
 72
     5
  1
\W00.728;MARCAR LETRA "A" EN ESTA CARA 
  7
DEFAULT
1001
ACAD
1000
MTEXTBEGIN
1070
    73
1070
     2
1070
    44
1040
0.903614
1000
MTEXTEND
1000
ACAD_MTEXT_DEFINED_HEIGHT_BEGIN
1070
    46
1040
0.2
1000
ACAD_MTEXT_DEFINED_HEIGHT_END
  0
ENDBLK
  5
E2
330
DD
100
AcDbEntity
  8
0
100
AcDbBlockEnd
  0
BLOCK
  5
149
330
143
100
AcDbEntity
  8
0
100
AcDbBlockBegin
  2
DIMNDRAFT3D1
 70
     0
 10
0.0
 20
0.0
 30
0.0
  3
DIMNDRAFT3D1
  1

  0
MTEXT
  5
144
330
143
100
AcDbEntity
  8
1
  6
CONTINUOUS
 62
     3
100
AcDbMText
 10
23.783984
 20
168.072724
 30
0.0
 40
3.5
 41
0.0
 71
     7
 72
     5
  1
\W01.000;\W00.810;3,6 
  7
DEFAULT
 11
0.9881402466610111
 21
0.1535540716774264
 31
0.0
1001
ACAD
1000
MTEXTBEGIN
1070
    73
1070
     2
1070
    44
1040
0.903614
1000
MTEXTEND
1000
ACAD_MTEXT_DEFINED_HEIGHT_BEGIN
1070
    46
1040
0.2
1000
ACAD_MTEXT_DEFINED_HEIGHT_END
  0
MTEXT
  5
145
330
143
100
AcDbEntity
  8
1
  6
CONTINUOUS
 62
     3
100
AcDbMText
 10
16.867003
 20
166.997845
 30
0.0
 40
3.5
 41
0.0
 71
     7
 72
     5
  1
\W01.000;%%c 
  7
DEFAULT
 11
0.9881402466610111
 21
0.1535540716774264
 31
0.0
1001
ACAD
1000
MTEXTBEGIN
1070
    73
1070
     2
1070
    44
1040
0.903614
1000
MTEXTEND
1000
ACAD_MTEXT_DEFINED_HEIGHT_BEGIN
1070
    46
1040
0.2
1000
ACAD_MTEXT_DEFINED_HEIGHT_END
  0
LINE
  5
146
330
143
100
AcDbEntity
  8
1
  6
CONTINUOUS
 62
     3
100
AcDbLine
 10
16.2264
 20
165.421885
 30
0.0
 11
74.129685
 21
174.419884
 31
0.0
  0
SOLID
  5
147
330
143
100
AcDbEntity
  8
1
  6
CONTINUOUS
 62
     3
100
AcDbTrace
 10
65.483458
 20
173.076286
 30
0.0
 11
68.797939
 21
174.540424
 31
0.0
 12
69.085959
 22
172.687026
 32
0.0
 13
65.483458
 23
173.076286
 33
0.0
  0
SOLID
  5
148
330
143
100
AcDbEntity
  8
1
  6
CONTINUOUS
 62
     3
100
AcDbTrace
 10
61.926153
 20
172.523491
 30
0.0
 11
58.611672
 21
171.059353
 31
0.0
 12
58.323653
 22
172.912751
 32
0.0
 13
61.926153
 23
172.523491
 33
0.0
  0
ENDBLK
  5
14A
330
143
100
AcDbEntity
  8
0
100
AcDbBlockEnd
  0
BLOCK
  5
152
330
14C
100
AcDbEntity
  8
0
100
AcDbBlockBegin
  2
DIMNDRAFT3D2
 70
     0
 10
0.0
 20
0.0
 30
0.0
  3
DIMNDRAFT3D2
  1

  0
MTEXT
  5
14D
330
14C
100
AcDbEntity
  8
1
  6
CONTINUOUS
 62
     3
100
AcDbMText
 10
36.504231
 20
210.973746
 30
0.0
 40
3.5
 41
0.0
 71
     7
 72
     5
  1
\W01.000;\W00.810;2,6 
  7
DEFAULT
 11
0.8844319854782835
 21
-0.4666691151800613
 31
0.0
1001
ACAD
1000
MTEXTBEGIN
1070
    73
1070
     2
1070
    44
1040
0.903614
1000
MTEXTEND
1000
ACAD_MTEXT_DEFINED_HEIGHT_BEGIN
1070
    46
1040
0.2
1000
ACAD_MTEXT_DEFINED_HEIGHT_END
  0
MTEXT
  5
14E
330
14C
100
AcDbEntity
  8
1
  6
CONTINUOUS
 62
     3
100
AcDbMText
 10
30.313207
 20
214.24043
 30
0.0
 40
3.5
 41
0.0
 71
     7
 72
     5
  1
\W01.000;%%c 
  7
DEFAULT
 11
0.8844319854782835
 21
-0.4666691151800613
 31
0.0
1001
ACAD
1000
MTEXTBEGIN
1070
    73
1070
     2
1070
    44
1040
0.903614
1000
MTEXTEND
1000
ACAD_MTEXT_DEFINED_HEIGHT_BEGIN
1070
    46
1040
0.2
1000
ACAD_MTEXT_DEFINED_HEIGHT_END
  0
LINE
  5
14F
330
14C
100
AcDbEntity
  8
1
  6
CONTINUOUS
 62
     3
100
AcDbLine
 10
28.858504
 20
213.358465
 30
0.0
 11
87.99425
 21
182.155584
 31
0.0
  0
SOLID
  5
150
330
14C
100
AcDbEntity
  8
1
  6
CONTINUOUS
 62
     3
100
AcDbTrace
 10
80.25547
 20
186.238938
 30
0.0
 11
83.788632
 21
185.435038
 31
0.0
 12
82.913333
 22
183.776155
 32
0.0
 13
80.25547
 23
186.238938
 33
0.0
  0
SOLID
  5
151
330
14C
100
AcDbEntity
  8
1
  6
CONTINUOUS
 62
     3
100
AcDbTrace
 10
77.955947
 20
187.452278
 30
0.0
 11
74.422786
 21
188.256178
 31
0.0
 12
75.298085
 22
189.915062
 32
0.0
 13
77.955947
 23
187.452278
 33
0.0
  0
ENDBLK
  5
153
330
14C
100
AcDbEntity
  8
0
100
AcDbBlockEnd
  0
BLOCK
  5
15C
330
155
100
AcDbEntity
  8
0
100
AcDbBlockBegin
  2
DIMNDRAFT3D3
 70
     0
 10
0.0
 20
0.0
 30
0.0
  3
DIMNDRAFT3D3
  1

  0
MTEXT
  5
156
330
155
100
AcDbEntity
  8
1
  6
CONTINUOUS
 62
     3
100
AcDbMText
 10
52.850193
 20
229.123621
 30
0.0
 40
3.5
 41
0.0
 71
     7
 72
     5
  1
\W01.000;\W00.842;10 
  7
DEFAULT
1001
ACAD
1000
MTEXTBEGIN
1070
    73
1070
     2
1070
    44
1040
0.903614
1000
MTEXTEND
1000
ACAD_MTEXT_DEFINED_HEIGHT_BEGIN
1070
    46
1040
0.2
1000
ACAD_MTEXT_DEFINED_HEIGHT_END
  0
LINE
  5
157
330
155
100
AcDbEntity
  8
1
  6
CONTINUOUS
 62
     3
100
AcDbLine
 10
63.964536
 20
163.053667
 30
0.0
 11
63.964536
 21
230.539718
 31
0.0
  0
LINE
  5
158
330
155
100
AcDbEntity
  8
1
  6
CONTINUOUS
 62
     3
100
AcDbLine
 10
73.964536
 20
163.053667
 30
0.0
 11
73.964536
 21
230.539718
 31
0.0
  0
LINE
  5
159
330
155
100
AcDbEntity
  8
1
  6
CONTINUOUS
 62
     3
100
AcDbLine
 10
73.964536
 20
228.539718
 30
0.0
 11
51.975193
 21
228.539718
 31
0.0
  0
SOLID
  5
15A
330
155
100
AcDbEntity
  8
1
  6
CONTINUOUS
 62
     3
100
AcDbTrace
 10
63.964536
 20
228.539718
 30
0.0
 11
67.464533
 21
229.47754
 31
0.0
 12
67.464539
 22
227.601896
 32
0.0
 13
63.964536
 23
228.539718
 33
0.0
  0
SOLID
  5
15B
330
155
100
AcDbEntity
  8
1
  6
CONTINUOUS
 62
     3
100
AcDbTrace
 10
73.964536
 20
228.539718
 30
0.0
 11
70.464539
 21
227.601896
 31
0.0
 12
70.464533
 22
229.47754
 32
0.0
 13
73.964536
 23
228.539718
 33
0.0
  0
ENDBLK
  5
15D
330
155
100
AcDbEntity
  8
0
100
AcDbBlockEnd
  0
BLOCK
  5
165
330
15F
100
AcDbEntity
  8
0
100
AcDbBlockBegin
  2
DIMNDRAFT3D4
 70
     0
 10
0.0
 20
0.0
 30
0.0
  3
DIMNDRAFT3D4
  1

  0
MTEXT
  5
160
330
15F
100
AcDbEntity
  8
1
  6
CONTINUOUS
 62
     3
100
AcDbMText
 10
33.051761
 20
125.19652
 30
0.0
 40
3.5
 41
0.0
 71
     7
 72
     5
  1
\W01.000;\W00.810;2,6 
  7
DEFAULT
 11
0.7817144840686346
 21
0.6236364849792774
 31
0.0
1001
ACAD
1000
MTEXTBEGIN
1070
    73
1070
     2
1070
    44
1040
0.903614
1000
MTEXTEND
1000
ACAD_MTEXT_DEFINED_HEIGHT_BEGIN
1070
    46
1040
0.2
1000
ACAD_MTEXT_DEFINED_HEIGHT_END
  0
MTEXT
  5
161
330
15F
100
AcDbEntity
  8
1
  6
CONTINUOUS
 62
     3
100
AcDbMText
 10
27.579759
 20
120.831065
 30
0.0
 40
3.5
 41
0.0
 71
     7
 72
     5
  1
\W01.000;%%c 
  7
DEFAULT
 11
0.7817144840686346
 21
0.6236364849792774
 31
0.0
1001
ACAD
1000
MTEXTBEGIN
1070
    73
1070
     2
1070
    44
1040
0.903614
1000
MTEXTEND
1000
ACAD_MTEXT_DEFINED_HEIGHT_BEGIN
1070
    46
1040
0.2
1000
ACAD_MTEXT_DEFINED_HEIGHT_END
  0
LINE
  5
162
330
15F
100
AcDbEntity
  8
1
  6
CONTINUOUS
 62
     3
100
AcDbLine
 10
27.805584
 20
119.144937
 30
0.0
 11
89.847503
 21
168.640764
 31
0.0
  0
SOLID
  5
163
330
15F
100
AcDbEntity
  8
1
  6
CONTINUOUS
 62
     3
100
AcDbTrace
 10
83.007502
 20
163.183944
 30
0.0
 11
85.15864
 21
166.099779
 31
0.0
 12
86.328365
 22
164.633565
 32
0.0
 13
83.007502
 23
163.183944
 33
0.0
  0
SOLID
  5
164
330
15F
100
AcDbEntity
  8
1
  6
CONTINUOUS
 62
     3
100
AcDbTrace
 10
80.975044
 20
161.56249
 30
0.0
 11
78.823906
 21
158.646655
 31
0.0
 12
77.65418
 22
160.112869
 32
0.0
 13
80.975044
 23
161.56249
 33
0.0
  0
ENDBLK
  5
166
330
15F
100
AcDbEntity
  8
0
100
AcDbBlockEnd
  0
BLOCK
  5
16E
330
168
100
AcDbEntity
  8
0
100
AcDbBlockBegin
  2
DIMNDRAFT3D5
 70
     0
 10
0.0
 20
0.0
 30
0.0
  3
DIMNDRAFT3D5
  1

  0
MTEXT
  5
169
330
168
100
AcDbEntity
  8
1
  6
CONTINUOUS
 62
     3
100
AcDbMText
 10
61.329527
 20
215.693892
 30
0.0
 40
3.5
 41
0.0
 71
     7
 72
     5
  1
\W01.000;\W00.810;2,6 
  7
DEFAULT
 11
0.7905168203935213
 21
-0.612440329072896
 31
0.0
1001
ACAD
1000
MTEXTBEGIN
1070
    73
1070
     2
1070
    44
1040
0.903614
1000
MTEXTEND
1000
ACAD_MTEXT_DEFINED_HEIGHT_BEGIN
1070
    46
1040
0.2
1000
ACAD_MTEXT_DEFINED_HEIGHT_END
  0
MTEXT
  5
16A
330
168
100
AcDbEntity
  8
1
  6
CONTINUOUS
 62
     3
100
AcDbMText
 10
55.795909
 20
219.980974
 30
0.0
 40
3.5
 41
0.0
 71
     7
 72
     5
  1
\W01.000;%%c 
  7
DEFAULT
 11
0.7905168203935213
 21
-0.612440329072896
 31
0.0
1001
ACAD
1000
MTEXTBEGIN
1070
    73
1070
     2
1070
    44
1040
0.903614
1000
MTEXTEND
1000
ACAD_MTEXT_DEFINED_HEIGHT_BEGIN
1070
    46
1040
0.2
1000
ACAD_MTEXT_DEFINED_HEIGHT_END
  0
LINE
  5
16B
330
168
100
AcDbEntity
  8
1
  6
CONTINUOUS
 62
     3
100
AcDbLine
 10
54.210716
 20
219.363572
 30
0.0
 11
106.838518
 21
178.59102
 31
0.0
  0
SOLID
  5
16C
330
168
100
AcDbEntity
  8
1
  6
CONTINUOUS
 62
     3
100
AcDbTrace
 10
99.921496
 20
183.949873
 30
0.0
 11
103.262662
 21
182.547698
 31
0.0
 12
102.113947
 22
181.064966
 32
0.0
 13
99.921496
 23
183.949873
 33
0.0
  0
SOLID
  5
16D
330
168
100
AcDbEntity
  8
1
  6
CONTINUOUS
 62
     3
100
AcDbTrace
 10
97.866152
 20
185.542218
 30
0.0
 11
94.524986
 21
186.944393
 31
0.0
 12
95.6737
 22
188.427125
 32
0.0
 13
97.866152
 23
185.542218
 33
0.0
  0
ENDBLK
  5
16F
330
168
100
AcDbEntity
  8
0
100
AcDbBlockEnd
  0
BLOCK
  5
178
330
171
100
AcDbEntity
  8
0
100
AcDbBlockBegin
  2
DIMNDRAFT3D6
 70
     0
 10
0.0
 20
0.0
 30
0.0
  3
DIMNDRAFT3D6
  1

  0
MTEXT
  5
172
330
171
100
AcDbEntity
  8
1
  6
CONTINUOUS
 62
     3
100
AcDbMText
 10
191.051675
 20
107.972433
 30
0.0
 40
3.5
 41
0.0
 71
     7
 72
     5
  1
\W01.000;\W00.907;3 
  7
DEFAULT
1001
ACAD
1000
MTEXTBEGIN
1070
    73
1070
     2
1070
    44
1040
0.903614
1000
MTEXTEND
1000
ACAD_MTEXT_DEFINED_HEIGHT_BEGIN
1070
    46
1040
0.2
1000
ACAD_MTEXT_DEFINED_HEIGHT_END
  0
LINE
  5
173
330
171
100
AcDbEntity
  8
1
  6
CONTINUOUS
 62
     3
100
AcDbLine
 10
182.304112
 20
116.017045
 30
0.0
 11
182.304112
 21
105.38853
 31
0.0
  0
LINE
  5
174
330
171
100
AcDbEntity
  8
1
  6
CONTINUOUS
 62
     3
100
AcDbLine
 10
179.304112
 20
116.017045
 30
0.0
 11
179.304112
 21
105.38853
 31
0.0
  0
LINE
  5
175
330
171
100
AcDbEntity
  8
1
  6
CONTINUOUS
 62
     3
100
AcDbLine
 10
170.554112
 20
107.38853
 30
0.0
 11
192.797118
 21
107.38853
 31
0.0
  0
SOLID
  5
176
330
171
100
AcDbEntity
  8
1
  6
CONTINUOUS
 62
     3
100
AcDbTrace
 10
182.304112
 20
107.38853
 30
0.0
 11
185.804108
 21
108.326353
 31
0.0
 12
185.804115
 22
106.450708
 32
0.0
 13
182.304112
 23
107.38853
 33
0.0
  0
SOLID
  5
177
330
171
100
AcDbEntity
  8
1
  6
CONTINUOUS
 62
     3
100
AcDbTrace
 10
179.304112
 20
107.38853
 30
0.0
 11
175.804115
 21
106.450708
 31
0.0
 12
175.804108
 22
108.326353
 32
0.0
 13
179.304112
 23
107.38853
 33
0.0
  0
ENDBLK
  5
179
330
171
100
AcDbEntity
  8
0
100
AcDbBlockEnd
  0
BLOCK
  5
182
330
17B
100
AcDbEntity
  8
0
100
AcDbBlockBegin
  2
DIMNDRAFT3D7
 70
     0
 10
0.0
 20
0.0
 30
0.0
  3
DIMNDRAFT3D7
  1

  0
MTEXT
  5
17C
330
17B
100
AcDbEntity
  8
1
  6
CONTINUOUS
 62
     3
100
AcDbMText
 10
99.862337
 20
106.480479
 30
0.0
 40
3.5
 41
0.0
 71
     7
 72
     5
  1
\W01.000;\W00.842;30 
  7
DEFAULT
1001
ACAD
1000
MTEXTBEGIN
1070
    73
1070
     2
1070
    44
1040
0.903614
1000
MTEXTEND
1000
ACAD_MTEXT_DEFINED_HEIGHT_BEGIN
1070
    46
1040
0.2
1000
ACAD_MTEXT_DEFINED_HEIGHT_END
  0
LINE
  5
17D
330
17B
100
AcDbEntity
  8
1
  6
CONTINUOUS
 62
     3
100
AcDbLine
 10
86.608351
 20
137.941911
 30
0.0
 11
86.608351
 21
103.896576
 31
0.0
  0
LINE
  5
17E
330
17B
100
AcDbEntity
  8
1
  6
CONTINUOUS
 62
     3
100
AcDbLine
 10
116.607209
 20
138.203707
 30
0.0
 11
116.607209
 21
103.896576
 31
0.0
  0
LINE
  5
17F
330
17B
100
AcDbEntity
  8
1
  6
CONTINUOUS
 62
     3
100
AcDbLine
 10
86.608351
 20
105.896576
 30
0.0
 11
116.607209
 21
105.896576
 31
0.0
  0
SOLID
  5
180
330
17B
100
AcDbEntity
  8
1
  6
CONTINUOUS
 62
     3
100
AcDbTrace
 10
86.608351
 20
105.896576
 30
0.0
 11
90.108348
 21
106.834399
 31
0.0
 12
90.108355
 22
104.958754
 32
0.0
 13
86.608351
 23
105.896576
 33
0.0
  0
SOLID
  5
181
330
17B
100
AcDbEntity
  8
1
  6
CONTINUOUS
 62
     3
100
AcDbTrace
 10
116.607209
 20
105.896576
 30
0.0
 11
113.107212
 21
104.958754
 31
0.0
 12
113.107206
 22
106.834399
 32
0.0
 13
116.607209
 23
105.896576
 33
0.0
  0
ENDBLK
  5
183
330
17B
100
AcDbEntity
  8
0
100
AcDbBlockEnd
  0
BLOCK
  5
18C
330
185
100
AcDbEntity
  8
0
100
AcDbBlockBegin
  2
DIMNDRAFT3D8
 70
     0
 10
0.0
 20
0.0
 30
0.0
  3
DIMNDRAFT3D8
  1

  0
MTEXT
  5
186
330
185
100
AcDbEntity
  8
1
  6
CONTINUOUS
 62
     3
100
AcDbMText
 10
98.342417
 20
229.123621
 30
0.0
 40
3.5
 41
0.0
 71
     7
 72
     5
  1
\W01.000;\W00.842;10 
  7
DEFAULT
1001
ACAD
1000
MTEXTBEGIN
1070
    73
1070
     2
1070
    44
1040
0.903614
1000
MTEXTEND
1000
ACAD_MTEXT_DEFINED_HEIGHT_BEGIN
1070
    46
1040
0.2
1000
ACAD_MTEXT_DEFINED_HEIGHT_END
  0
LINE
  5
187
330
185
100
AcDbEntity
  8
1
  6
CONTINUOUS
 62
     3
100
AcDbLine
 10
117.499875
 20
165.240158
 30
0.0
 11
117.499875
 21
230.539718
 31
0.0
  0
LINE
  5
188
330
185
100
AcDbEntity
  8
1
  6
CONTINUOUS
 62
     3
100
AcDbLine
 10
107.499875
 20
165.240158
 30
0.0
 11
107.499875
 21
230.539718
 31
0.0
  0
LINE
  5
189
330
185
100
AcDbEntity
  8
1
  6
CONTINUOUS
 62
     3
100
AcDbLine
 10
117.499875
 20
228.539718
 30
0.0
 11
97.467417
 21
228.539718
 31
0.0
  0
SOLID
  5
18A
330
185
100
AcDbEntity
  8
1
  6
CONTINUOUS
 62
     3
100
AcDbTrace
 10
117.499875
 20
228.539718
 30
0.0
 11
113.999878
 21
227.601896
 31
0.0
 12
113.999871
 22
229.47754
 32
0.0
 13
117.499875
 23
228.539718
 33
0.0
  0
SOLID
  5
18B
330
185
100
AcDbEntity
  8
1
  6
CONTINUOUS
 62
     3
100
AcDbTrace
 10
107.499875
 20
228.539718
 30
0.0
 11
110.999871
 21
229.47754
 31
0.0
 12
110.999878
 22
227.601896
 32
0.0
 13
107.499875
 23
228.539718
 33
0.0
  0
ENDBLK
  5
18D
330
185
100
AcDbEntity
  8
0
100
AcDbBlockEnd
  0
BLOCK
  5
195
330
18F
100
AcDbEntity
  8
0
100
AcDbBlockBegin
  2
DIMNDRAFT3D9
 70
     0
 10
0.0
 20
0.0
 30
0.0
  3
DIMNDRAFT3D9
  1

  0
MTEXT
  5
190
330
18F
100
AcDbEntity
  8
1
  6
CONTINUOUS
 62
     3
100
AcDbMText
 10
163.18516
 20
184.635908
 30
0.0
 40
3.5
 41
0.0
 71
     7
 72
     5
  1
\W01.000;\W00.810;3,6 
  7
DEFAULT
 11
0.9823876937797
 21
0.1868540048010814
 31
0.0
1001
ACAD
1000
MTEXTBEGIN
1070
    73
1070
     2
1070
    44
1040
0.903614
1000
MTEXTEND
1000
ACAD_MTEXT_DEFINED_HEIGHT_BEGIN
1070
    46
1040
0.2
1000
ACAD_MTEXT_DEFINED_HEIGHT_END
  0
MTEXT
  5
191
330
18F
100
AcDbEntity
  8
1
  6
CONTINUOUS
 62
     3
100
AcDbMText
 10
156.308446
 20
183.32793
 30
0.0
 40
3.5
 41
0.0
 71
     7
 72
     5
  1
\W01.000;%%c 
  7
DEFAULT
 11
0.9823876937797
 21
0.1868540048010814
 31
0.0
1001
ACAD
1000
MTEXTBEGIN
1070
    73
1070
     2
1070
    44
1040
0.903614
1000
MTEXTEND
1000
ACAD_MTEXT_DEFINED_HEIGHT_BEGIN
1070
    46
1040
0.2
1000
ACAD_MTEXT_DEFINED_HEIGHT_END
  0
LINE
  5
192
330
18F
100
AcDbEntity
  8
1
  6
CONTINUOUS
 62
     3
100
AcDbLine
 10
119.089677
 20
174.763716
 30
0.0
 11
168.876643
 21
184.233393
 31
0.0
  0
SOLID
  5
193
330
18F
100
AcDbEntity
  8
1
  6
CONTINUOUS
 62
     3
100
AcDbTrace
 10
131.222165
 20
177.071363
 30
0.0
 11
134.485282
 21
178.646656
 31
0.0
 12
134.835761
 22
176.804047
 32
0.0
 13
131.222165
 23
177.071363
 33
0.0
  0
SOLID
  5
194
330
18F
100
AcDbEntity
  8
1
  6
CONTINUOUS
 62
     3
100
AcDbTrace
 10
127.685569
 20
176.398688
 30
0.0
 11
124.422451
 21
174.823395
 31
0.0
 12
124.071973
 22
176.666003
 32
0.0
 13
127.685569
 23
176.398688
 33
0.0
  0
ENDBLK
  5
196
330
18F
100
AcDbEntity
  8
0
100
AcDbBlockEnd
  0
BLOCK
  5
19E
330
198
100
AcDbEntity
  8
0
100
AcDbBlockBegin
  2
DIMNDRAFT3D10
 70
     0
 10
0.0
 20
0.0
 30
0.0
  3
DIMNDRAFT3D10
  1

  0
MTEXT
  5
199
330
198
100
AcDbEntity
  8
1
  6
CONTINUOUS
 62
     3
100
AcDbMText
 10
57.400415
 20
208.851912
 30
0.0
 40
3.5
 41
0.0
 71
     7
 72
     5
  1
\W01.000;\W00.907;6 
  7
DEFAULT
 11
0.7909209376137335
 21
-0.6119183527597555
 31
0.0
1001
ACAD
1000
MTEXTBEGIN
1070
    73
1070
     2
1070
    44
1040
0.903614
1000
MTEXTEND
1000
ACAD_MTEXT_DEFINED_HEIGHT_BEGIN
1070
    46
1040
0.2
1000
ACAD_MTEXT_DEFINED_HEIGHT_END
  0
MTEXT
  5
19A
330
198
100
AcDbEntity
  8
1
  6
CONTINUOUS
 62
     3
100
AcDbMText
 10
51.863968
 20
213.135341
 30
0.0
 40
3.5
 41
0.0
 71
     7
 72
     5
  1
\W01.000;%%c 
  7
DEFAULT
 11
0.7909209376137335
 21
-0.6119183527597555
 31
0.0
1001
ACAD
1000
MTEXTBEGIN
1070
    73
1070
     2
1070
    44
1040
0.903614
1000
MTEXTEND
1000
ACAD_MTEXT_DEFINED_HEIGHT_BEGIN
1070
    46
1040
0.2
1000
ACAD_MTEXT_DEFINED_HEIGHT_END
  0
LINE
  5
19B
330
198
100
AcDbEntity
  8
1
  6
CONTINUOUS
 62
     3
100
AcDbLine
 10
50.279183
 20
212.516892
 30
0.0
 11
98.60958
 21
175.124714
 31
0.0
  0
SOLID
  5
19C
330
198
100
AcDbEntity
  8
1
  6
CONTINUOUS
 62
     3
100
AcDbTrace
 10
91.689022
 20
180.478999
 30
0.0
 11
95.031113
 21
179.07903
 31
0.0
 12
93.883377
 22
177.59554
 32
0.0
 13
91.689022
 23
180.478999
 33
0.0
  0
SOLID
  5
19D
330
198
100
AcDbEntity
  8
1
  6
CONTINUOUS
 62
     3
100
AcDbTrace
 10
86.943496
 20
184.150509
 30
0.0
 11
83.601405
 21
185.550478
 31
0.0
 12
84.749141
 22
187.033969
 32
0.0
 13
86.943496
 23
184.150509
 33
0.0
  0
ENDBLK
  5
19F
330
198
100
AcDbEntity
  8
0
100
AcDbBlockEnd
  0
BLOCK
  5
1A7
330
1A1
100
AcDbEntity
  8
0
100
AcDbBlockBegin
  2
DIMNDRAFT3D11
 70
     0
 10
0.0
 20
0.0
 30
0.0
  3
DIMNDRAFT3D11
  1

  0
MTEXT
  5
1A2
330
1A1
100
AcDbEntity
  8
1
  6
CONTINUOUS
 62
     3
100
AcDbMText
 10
133.285327
 20
114.281185
 30
0.0
 40
3.5
 41
0.0
 71
     7
 72
     5
  1
\W01.000;\W00.907;6 
  7
DEFAULT
 11
0.5257035131538925
 21
-0.850667864831895
 31
0.0
1001
ACAD
1000
MTEXTBEGIN
1070
    73
1070
     2
1070
    44
1040
0.903614
1000
MTEXTEND
1000
ACAD_MTEXT_DEFINED_HEIGHT_BEGIN
1070
    46
1040
0.2
1000
ACAD_MTEXT_DEFINED_HEIGHT_END
  0
MTEXT
  5
1A3
330
1A1
100
AcDbEntity
  8
1
  6
CONTINUOUS
 62
     3
100
AcDbMText
 10
129.605402
 20
120.23586
 30
0.0
 40
3.5
 41
0.0
 71
     7
 72
     5
  1
\W01.000;%%c 
  7
DEFAULT
 11
0.5257035131538925
 21
-0.850667864831895
 31
0.0
1001
ACAD
1000
MTEXTBEGIN
1070
    73
1070
     2
1070
    44
1040
0.903614
1000
MTEXTEND
1000
ACAD_MTEXT_DEFINED_HEIGHT_BEGIN
1070
    46
1040
0.2
1000
ACAD_MTEXT_DEFINED_HEIGHT_END
  0
LINE
  5
1A4
330
1A1
100
AcDbEntity
  8
1
  6
CONTINUOUS
 62
     3
100
AcDbLine
 10
102.216336
 20
161.78037
 30
0.0
 11
132.96187
 21
112.029442
 31
0.0
  0
SOLID
  5
1A5
330
1A1
100
AcDbEntity
  8
1
  6
CONTINUOUS
 62
     3
100
AcDbTrace
 10
109.970463
 20
149.233019
 30
0.0
 11
112.608199
 21
146.748701
 31
0.0
 12
111.012652
 22
145.762662
 32
0.0
 13
109.970463
 23
149.233019
 33
0.0
  0
SOLID
  5
1A6
330
1A1
100
AcDbEntity
  8
1
  6
CONTINUOUS
 62
     3
100
AcDbTrace
 10
106.816242
 20
154.337026
 30
0.0
 11
104.178506
 21
156.821345
 31
0.0
 12
105.774053
 22
157.807383
 32
0.0
 13
106.816242
 23
154.337026
 33
0.0
  0
ENDBLK
  5
1A8
330
1A1
100
AcDbEntity
  8
0
100
AcDbBlockEnd
  0
BLOCK
  5
1B0
330
1AA
100
AcDbEntity
  8
0
100
AcDbBlockBegin
  2
DIMNDRAFT3D12
 70
     0
 10
0.0
 20
0.0
 30
0.0
  3
DIMNDRAFT3D12
  1

  0
MTEXT
  5
1AB
330
1AA
100
AcDbEntity
  8
1
  6
CONTINUOUS
 62
     3
100
AcDbMText
 10
53.918015
 20
130.517957
 30
0.0
 40
3.5
 41
0.0
 71
     7
 72
     5
  1
\W01.000;\W00.842;10 
  7
DEFAULT
 11
0.856265904432481
 21
0.5165352852481864
 31
0.0
1001
ACAD
1000
MTEXTBEGIN
1070
    73
1070
     2
1070
    44
1040
0.903614
1000
MTEXTEND
1000
ACAD_MTEXT_DEFINED_HEIGHT_BEGIN
1070
    46
1040
0.2
1000
ACAD_MTEXT_DEFINED_HEIGHT_END
  0
MTEXT
  5
1AC
330
1AA
100
AcDbEntity
  8
1
  6
CONTINUOUS
 62
     3
100
AcDbMText
 10
47.924154
 20
126.90221
 30
0.0
 40
3.5
 41
0.0
 71
     7
 72
     5
  1
\W01.000;%%c 
  7
DEFAULT
 11
0.856265904432481
 21
0.5165352852481864
 31
0.0
1001
ACAD
1000
MTEXTBEGIN
1070
    73
1070
     2
1070
    44
1040
0.903614
1000
MTEXTEND
1000
ACAD_MTEXT_DEFINED_HEIGHT_BEGIN
1070
    46
1040
0.2
1000
ACAD_MTEXT_DEFINED_HEIGHT_END
  0
LINE
  5
1AD
330
1AA
100
AcDbEntity
  8
1
  6
CONTINUOUS
 62
     3
100
AcDbLine
 10
74.669479
 20
141.332308
 30
0.0
 11
47.928496
 21
125.201032
 31
0.0
  0
SOLID
  5
1AE
330
1AA
100
AcDbEntity
  8
1
  6
CONTINUOUS
 62
     3
100
AcDbTrace
 10
74.669479
 20
141.332308
 30
0.0
 11
72.156969
 21
138.721411
 31
0.0
 12
71.188127
 22
140.327458
 32
0.0
 13
74.669479
 23
141.332308
 33
0.0
  0
SOLID
  5
1AF
330
1AA
100
AcDbEntity
  8
1
  6
CONTINUOUS
 62
     3
100
AcDbTrace
 10
66.10682
 20
136.166955
 30
0.0
 11
68.619329
 21
138.777852
 31
0.0
 12
69.588171
 22
137.171805
 32
0.0
 13
66.10682
 23
136.166955
 33
0.0
  0
ENDBLK
  5
1B1
330
1AA
100
AcDbEntity
  8
0
100
AcDbBlockEnd
  0
BLOCK
  5
1B9
330
1B3
100
AcDbEntity
  8
0
100
AcDbBlockBegin
  2
DIMNDRAFT3D13
 70
     0
 10
0.0
 20
0.0
 30
0.0
  3
DIMNDRAFT3D13
  1

  0
MTEXT
  5
1B4
330
1B3
100
AcDbEntity
  8
1
  6
CONTINUOUS
 62
     3
100
AcDbMText
 10
57.663968
 20
121.554708
 30
0.0
 40
3.5
 41
0.0
 71
     7
 72
     5
  1
\W01.000;\W00.810;2,6 
  7
DEFAULT
 11
0.8086415843784852
 21
0.5883016131321188
 31
0.0
1001
ACAD
1000
MTEXTBEGIN
1070
    73
1070
     2
1070
    44
1040
0.903614
1000
MTEXTEND
1000
ACAD_MTEXT_DEFINED_HEIGHT_BEGIN
1070
    46
1040
0.2
1000
ACAD_MTEXT_DEFINED_HEIGHT_END
  0
MTEXT
  5
1B5
330
1B3
100
AcDbEntity
  8
1
  6
CONTINUOUS
 62
     3
100
AcDbMText
 10
52.003477
 20
117.436597
 30
0.0
 40
3.5
 41
0.0
 71
     7
 72
     5
  1
\W01.000;%%c 
  7
DEFAULT
 11
0.8086415843784852
 21
0.5883016131321188
 31
0.0
1001
ACAD
1000
MTEXTBEGIN
1070
    73
1070
     2
1070
    44
1040
0.903614
1000
MTEXTEND
1000
ACAD_MTEXT_DEFINED_HEIGHT_BEGIN
1070
    46
1040
0.2
1000
ACAD_MTEXT_DEFINED_HEIGHT_END
  0
LINE
  5
1B6
330
1B3
100
AcDbEntity
  8
1
  6
CONTINUOUS
 62
     3
100
AcDbLine
 10
52.154191
 20
115.742104
 30
0.0
 11
107.020672
 21
155.658477
 31
0.0
  0
SOLID
  5
1B7
330
1B3
100
AcDbEntity
  8
1
  6
CONTINUOUS
 62
     3
100
AcDbTrace
 10
99.945058
 20
150.510838
 30
0.0
 11
102.223578
 21
153.328253
 31
0.0
 12
103.327029
 22
151.811533
 32
0.0
 13
99.945058
 23
150.510838
 33
0.0
  0
SOLID
  5
1B8
330
1B3
100
AcDbEntity
  8
1
  6
CONTINUOUS
 62
     3
100
AcDbTrace
 10
97.84259
 20
148.981253
 30
0.0
 11
95.564069
 21
146.163838
 31
0.0
 12
94.460619
 22
147.680558
 32
0.0
 13
97.84259
 23
148.981253
 33
0.0
  0
ENDBLK
  5
1BA
330
1B3
100
AcDbEntity
  8
0
100
AcDbBlockEnd
  0
BLOCK
  5
1C2
330
1BC
100
AcDbEntity
  8
0
100
AcDbBlockBegin
  2
DIMNDRAFT3D14
 70
     0
 10
0.0
 20
0.0
 30
0.0
  3
DIMNDRAFT3D14
  1

  0
MTEXT
  5
1BD
330
1BC
100
AcDbEntity
  8
1
  6
CONTINUOUS
 62
     3
100
AcDbMText
 10
149.662438
 20
109.110259
 30
0.0
 40
3.5
 41
0.0
 71
     7
 72
     5
  1
\W01.000;\W00.810;2,6 
  7
DEFAULT
 11
0.6069140212237273
 21
-0.7947674948323221
 31
0.0
1001
ACAD
1000
MTEXTBEGIN
1070
    73
1070
     2
1070
    44
1040
0.903614
1000
MTEXTEND
1000
ACAD_MTEXT_DEFINED_HEIGHT_BEGIN
1070
    46
1040
0.2
1000
ACAD_MTEXT_DEFINED_HEIGHT_END
  0
MTEXT
  5
1BE
330
1BC
100
AcDbEntity
  8
1
  6
CONTINUOUS
 62
     3
100
AcDbMText
 10
145.41404
 20
114.673631
 30
0.0
 40
3.5
 41
0.0
 71
     7
 72
     5
  1
\W01.000;%%c 
  7
DEFAULT
 11
0.6069140212237273
 21
-0.7947674948323221
 31
0.0
1001
ACAD
1000
MTEXTBEGIN
1070
    73
1070
     2
1070
    44
1040
0.903614
1000
MTEXTEND
1000
ACAD_MTEXT_DEFINED_HEIGHT_BEGIN
1070
    46
1040
0.2
1000
ACAD_MTEXT_DEFINED_HEIGHT_END
  0
LINE
  5
1BF
330
1BC
100
AcDbEntity
  8
1
  6
CONTINUOUS
 62
     3
100
AcDbLine
 10
112.604203
 20
155.235042
 30
0.0
 11
151.850706
 21
103.840867
 31
0.0
  0
SOLID
  5
1C0
330
1BC
100
AcDbEntity
  8
1
  6
CONTINUOUS
 62
     3
100
AcDbTrace
 10
119.492677
 20
146.214431
 30
0.0
 11
122.362224
 21
144.001925
 31
0.0
 12
120.871527
 22
142.863564
 32
0.0
 13
119.492677
 23
146.214431
 33
0.0
  0
SOLID
  5
1C1
330
1BC
100
AcDbEntity
  8
1
  6
CONTINUOUS
 62
     3
100
AcDbTrace
 10
117.9147
 20
148.280826
 30
0.0
 11
115.045153
 21
150.493332
 31
0.0
 12
116.53585
 22
151.631693
 32
0.0
 13
117.9147
 23
148.280826
 33
0.0
  0
ENDBLK
  5
1C3
330
1BC
100
AcDbEntity
  8
0
100
AcDbBlockEnd
  0
BLOCK
  5
1CB
330
1C5
100
AcDbEntity
  8
0
100
AcDbBlockBegin
  2
DIMNDRAFT3D15
 70
     0
 10
0.0
 20
0.0
 30
0.0
  3
DIMNDRAFT3D15
  1

  0
MTEXT
  5
1C6
330
1C5
100
AcDbEntity
  8
1
  6
CONTINUOUS
 62
     3
100
AcDbMText
 10
23.609416
 20
144.368167
 30
0.0
 40
3.5
 41
0.0
 71
     7
 72
     5
  1
\W01.000;\W00.810;2,6 
  7
DEFAULT
 11
0.9098330135882914
 21
0.4149745623346664
 31
0.0
1001
ACAD
1000
MTEXTBEGIN
1070
    73
1070
     2
1070
    44
1040
0.903614
1000
MTEXTEND
1000
ACAD_MTEXT_DEFINED_HEIGHT_BEGIN
1070
    46
1040
0.2
1000
ACAD_MTEXT_DEFINED_HEIGHT_END
  0
MTEXT
  5
1C7
330
1C5
100
AcDbEntity
  8
1
  6
CONTINUOUS
 62
     3
100
AcDbMText
 10
17.240585
 20
141.463345
 30
0.0
 40
3.5
 41
0.0
 71
     7
 72
     5
  1
\W01.000;%%c 
  7
DEFAULT
 11
0.9098330135882914
 21
0.4149745623346664
 31
0.0
1001
ACAD
1000
MTEXTBEGIN
1070
    73
1070
     2
1070
    44
1040
0.903614
1000
MTEXTEND
1000
ACAD_MTEXT_DEFINED_HEIGHT_BEGIN
1070
    46
1040
0.2
1000
ACAD_MTEXT_DEFINED_HEIGHT_END
  0
LINE
  5
1C8
330
1C5
100
AcDbEntity
  8
1
  6
CONTINUOUS
 62
     3
100
AcDbLine
 10
17.049888
 20
139.772884
 30
0.0
 11
85.998628
 21
171.220383
 31
0.0
  0
SOLID
  5
1C9
330
1C5
100
AcDbEntity
  8
1
  6
CONTINUOUS
 62
     3
100
AcDbTrace
 10
78.037589
 20
167.589355
 30
0.0
 11
80.832829
 21
169.895027
 31
0.0
 12
81.61118
 22
168.188506
 32
0.0
 13
78.037589
 23
167.589355
 33
0.0
  0
SOLID
  5
1CA
330
1C5
100
AcDbEntity
  8
1
  6
CONTINUOUS
 62
     3
100
AcDbTrace
 10
75.672023
 20
166.510422
 30
0.0
 11
72.876783
 21
164.20475
 31
0.0
 12
72.098432
 22
165.911271
 32
0.0
 13
75.672023
 23
166.510422
 33
0.0
  0
ENDBLK
  5
1CC
330
1C5
100
AcDbEntity
  8
0
100
AcDbBlockEnd
  0
BLOCK
  5
1D4
330
1CE
100
AcDbEntity
  8
0
100
AcDbBlockBegin
  2
DIMNDRAFT3D16
 70
     0
 10
0.0
 20
0.0
 30
0.0
  3
DIMNDRAFT3D16
  1

  0
MTEXT
  5
1CF
330
1CE
100
AcDbEntity
  8
1
  6
CONTINUOUS
 62
     3
100
AcDbMText
 10
35.446721
 20
138.591501
 30
0.0
 40
3.5
 41
0.0
 71
     7
 72
     5
  1
\W01.000;\W00.810;2,6 
  7
DEFAULT
 11
0.8325693424879609
 21
0.553920833647882
 31
0.0
1001
ACAD
1000
MTEXTBEGIN
1070
    73
1070
     2
1070
    44
1040
0.903614
1000
MTEXTEND
1000
ACAD_MTEXT_DEFINED_HEIGHT_BEGIN
1070
    46
1040
0.2
1000
ACAD_MTEXT_DEFINED_HEIGHT_END
  0
MTEXT
  5
1D0
330
1CE
100
AcDbEntity
  8
1
  6
CONTINUOUS
 62
     3
100
AcDbMText
 10
29.618736
 20
134.714055
 30
0.0
 40
3.5
 41
0.0
 71
     7
 72
     5
  1
\W01.000;%%c 
  7
DEFAULT
 11
0.8325693424879609
 21
0.553920833647882
 31
0.0
1001
ACAD
1000
MTEXTBEGIN
1070
    73
1070
     2
1070
    44
1040
0.903614
1000
MTEXTEND
1000
ACAD_MTEXT_DEFINED_HEIGHT_BEGIN
1070
    46
1040
0.2
1000
ACAD_MTEXT_DEFINED_HEIGHT_END
  0
LINE
  5
1D1
330
1CE
100
AcDbEntity
  8
1
  6
CONTINUOUS
 62
     3
100
AcDbLine
 10
29.698354
 20
133.014736
 30
0.0
 11
89.222128
 21
172.616793
 31
0.0
  0
SOLID
  5
1D2
330
1CE
100
AcDbEntity
  8
1
  6
CONTINUOUS
 62
     3
100
AcDbTrace
 10
81.937146
 20
167.769986
 30
0.0
 11
84.331657
 21
170.489509
 31
0.0
 12
85.370621
 22
168.927908
 32
0.0
 13
81.937146
 23
167.769986
 33
0.0
  0
SOLID
  5
1D3
330
1CE
100
AcDbEntity
  8
1
  6
CONTINUOUS
 62
     3
100
AcDbTrace
 10
79.772466
 20
166.329791
 30
0.0
 11
77.377955
 21
163.610268
 31
0.0
 12
76.338991
 22
165.171869
 32
0.0
 13
79.772466
 23
166.329791
 33
0.0
  0
ENDBLK
  5
1D5
330
1CE
100
AcDbEntity
  8
0
100
AcDbBlockEnd
  0
BLOCK
  5
1DD
330
1D7
100
AcDbEntity
  8
0
100
AcDbBlockBegin
  2
DIMNDRAFT3D17
 70
     0
 10
0.0
 20
0.0
 30
0.0
  3
DIMNDRAFT3D17
  1

  0
MTEXT
  5
1D8
330
1D7
100
AcDbEntity
  8
1
  6
CONTINUOUS
 62
     3
100
AcDbMText
 10
27.483955
 20
190.384925
 30
0.0
 40
3.5
 41
0.0
 71
     7
 72
     5
  1
\W01.000;\W00.800;102,7 
  7
DEFAULT
 11
0.9563449138217288
 21
-0.2922403220079496
 31
0.0
1001
ACAD
1000
MTEXTBEGIN
1070
    73
1070
     2
1070
    44
1040
0.903614
1000
MTEXTEND
1000
ACAD_MTEXT_DEFINED_HEIGHT_BEGIN
1070
    46
1040
0.2
1000
ACAD_MTEXT_DEFINED_HEIGHT_END
  0
MTEXT
  5
1D9
330
1D7
100
AcDbEntity
  8
1
  6
CONTINUOUS
 62
     3
100
AcDbMText
 10
20.789541
 20
192.430607
 30
0.0
 40
3.5
 41
0.0
 71
     7
 72
     5
  1
\W01.000;%%c 
  7
DEFAULT
 11
0.9563449138217288
 21
-0.2922403220079496
 31
0.0
1001
ACAD
1000
MTEXTBEGIN
1070
    73
1070
     2
1070
    44
1040
0.903614
1000
MTEXTEND
1000
ACAD_MTEXT_DEFINED_HEIGHT_BEGIN
1070
    46
1040
0.2
1000
ACAD_MTEXT_DEFINED_HEIGHT_END
  0
LINE
  5
1DA
330
1D7
100
AcDbEntity
  8
1
  6
CONTINUOUS
 62
     3
100
AcDbLine
 10
19.526389
 20
191.291103
 30
0.0
 11
156.331135
 21
149.486245
 31
0.0
  0
SOLID
  5
1DB
330
1D7
100
AcDbEntity
  8
1
  6
CONTINUOUS
 62
     3
100
AcDbTrace
 10
147.963117
 20
152.043348
 30
0.0
 11
151.58439
 21
151.917389
 31
0.0
 12
151.036258
 22
150.123624
 32
0.0
 13
147.963117
 23
152.043348
 33
0.0
  0
SOLID
  5
1DC
330
1D7
100
AcDbEntity
  8
1
  6
CONTINUOUS
 62
     3
100
AcDbTrace
 10
49.746494
 20
182.056429
 30
0.0
 11
46.125221
 21
182.182388
 31
0.0
 12
46.673353
 22
183.976153
 32
0.0
 13
49.746494
 23
182.056429
 33
0.0
  0
ENDBLK
  5
1DE
330
1D7
100
AcDbEntity
  8
0
100
AcDbBlockEnd
  0
BLOCK
  5
1E7
330
1E0
100
AcDbEntity
  8
0
100
AcDbBlockBegin
  2
DIMNDRAFT3D18
 70
     0
 10
0.0
 20
0.0
 30
0.0
  3
DIMNDRAFT3D18
  1

  0
MTEXT
  5
1E1
330
1E0
100
AcDbEntity
  8
1
  6
CONTINUOUS
 62
     3
100
AcDbMText
 10
158.745365
 20
204.135583
 30
0.0
 40
3.5
 41
0.0
 71
     7
 72
     5
  1
\W01.000;\W00.842;12 
  7
DEFAULT
 11
0.5000000000000947
 21
-0.866025403784384
 31
0.0
1001
ACAD
1000
MTEXTBEGIN
1070
    73
1070
     2
1070
    44
1040
0.903614
1000
MTEXTEND
1000
ACAD_MTEXT_DEFINED_HEIGHT_BEGIN
1070
    46
1040
0.2
1000
ACAD_MTEXT_DEFINED_HEIGHT_END
  0
LINE
  5
1E2
330
1E0
100
AcDbEntity
  8
1
  6
CONTINUOUS
 62
     3
100
AcDbLine
 10
137.382675
 20
196.714568
 30
0.0
 11
157.844462
 21
208.528186
 31
0.0
  0
LINE
  5
1E3
330
1E0
100
AcDbEntity
  8
1
  6
CONTINUOUS
 62
     3
100
AcDbLine
 10
143.382675
 20
186.322263
 30
0.0
 11
163.844462
 21
198.135882
 31
0.0
  0
LINE
  5
1E4
330
1E0
100
AcDbEntity
  8
1
  6
CONTINUOUS
 62
     3
100
AcDbLine
 10
156.112411
 20
207.528186
 30
0.0
 11
162.112411
 21
197.135882
 31
0.0
  0
SOLID
  5
1E5
330
1E0
100
AcDbEntity
  8
1
  6
CONTINUOUS
 62
     3
100
AcDbTrace
 10
156.112411
 20
207.528186
 30
0.0
 11
158.674587
 21
204.966012
 31
0.0
 12
157.050235
 22
204.028183
 32
0.0
 13
156.112411
 23
207.528186
 33
0.0
  0
SOLID
  5
1E6
330
1E0
100
AcDbEntity
  8
1
  6
CONTINUOUS
 62
     3
100
AcDbTrace
 10
162.112411
 20
197.135882
 30
0.0
 11
159.550235
 21
199.698056
 31
0.0
 12
161.174587
 22
200.635885
 32
0.0
 13
162.112411
 23
197.135882
 33
0.0
  0
ENDBLK
  5
1E8
330
1E0
100
AcDbEntity
  8
0
100
AcDbBlockEnd
  0
BLOCK
  5
1F2
330
1EA
100
AcDbEntity
  8
0
100
AcDbBlockBegin
  2
DIMNDRAFT3D19
 70
     0
 10
0.0
 20
0.0
 30
0.0
  3
DIMNDRAFT3D19
  1

  0
MTEXT
  5
1EB
330
1EA
100
AcDbEntity
  8
1
  6
CONTINUOUS
 62
     3
100
AcDbMText
 10
124.271111
 20
223.090771
 30
0.0
 40
3.5
 41
0.0
 71
     7
 72
     5
  1
\W01.000;\W00.810;2,7 
  7
DEFAULT
 11
0.8660254037843794
 21
0.5000000000001026
 31
0.0
1001
ACAD
1000
MTEXTBEGIN
1070
    73
1070
     2
1070
    44
1040
0.903614
1000
MTEXTEND
1000
ACAD_MTEXT_DEFINED_HEIGHT_BEGIN
1070
    46
1040
0.2
1000
ACAD_MTEXT_DEFINED_HEIGHT_END
  0
MTEXT
  5
1EC
330
1EA
100
AcDbEntity
  8
1
  6
CONTINUOUS
 62
     3
100
AcDbMText
 10
132.545472
 20
228.541222
 30
0.0
 40
3.5
 41
0.0
 71
     7
 72
     5
  1
\W01.000;\A1;\W00.795;\A1;\S+0,5^ -0,0; 
  7
DEFAULT
 11
0.8660254037843794
 21
0.5000000000001026
 31
0.0
1001
ACAD
1000
MTEXTBEGIN
1070
    73
1070
     2
1070
    44
1040
0.903614
1000
MTEXTEND
1000
ACAD_MTEXT_DEFINED_HEIGHT_BEGIN
1070
    46
1040
0.2
1000
ACAD_MTEXT_DEFINED_HEIGHT_END
  0
LINE
  5
1ED
330
1EA
100
AcDbEntity
  8
1
  6
CONTINUOUS
 62
     3
100
AcDbLine
 10
139.762363
 20
198.088482
 30
0.0
 11
126.396717
 21
221.23846
 31
0.0
  0
LINE
  5
1EE
330
1EA
100
AcDbEntity
  8
1
  6
CONTINUOUS
 62
     3
100
AcDbLine
 10
137.382675
 20
196.714568
 30
0.0
 11
124.017028
 21
219.864546
 31
0.0
  0
LINE
  5
1EF
330
1EA
100
AcDbEntity
  8
1
  6
CONTINUOUS
 62
     3
100
AcDbLine
 10
117.439306
 20
213.757495
 30
0.0
 11
142.902116
 21
228.458456
 31
0.0
  0
SOLID
  5
1F0
330
1EA
100
AcDbEntity
  8
1
  6
CONTINUOUS
 62
     3
100
AcDbTrace
 10
127.396717
 20
219.506409
 30
0.0
 11
129.958892
 21
222.068585
 31
0.0
 12
130.89672
 22
220.444233
 32
0.0
 13
127.396717
 23
219.506409
 33
0.0
  0
SOLID
  5
1F1
330
1EA
100
AcDbEntity
  8
1
  6
CONTINUOUS
 62
     3
100
AcDbTrace
 10
125.017028
 20
218.132495
 30
0.0
 11
122.454854
 21
215.570319
 31
0.0
 12
121.517025
 22
217.194672
 32
0.0
 13
125.017028
 23
218.132495
 33
0.0
  0
ENDBLK
  5
1F3
330
1EA
100
AcDbEntity
  8
0
100
AcDbBlockEnd
  0
BLOCK
  5
1FA
330
1F5
100
AcDbEntity
  8
0
100
AcDbBlockBegin
  2
DIMNDRAFT3D20
 70
     0
 10
0.0
 20
0.0
 30
0.0
  3
DIMNDRAFT3D20
  1

  0
MTEXT
  5
1F6
330
1F5
100
AcDbEntity
  8
1
  6
CONTINUOUS
 62
     3
100
AcDbMText
 10
162.064614
 20
155.839932
 30
0.0
 40
3.5
 41
0.0
 71
     7
 72
     5
  1
\W01.000;\W00.810;2,6 
  7
DEFAULT
 11
0.9554067207572318
 21
-0.2952930712561895
 31
0.0
1001
ACAD
1000
MTEXTBEGIN
1070
    73
1070
     2
1070
    44
1040
0.903614
1000
MTEXTEND
1000
ACAD_MTEXT_DEFINED_HEIGHT_BEGIN
1070
    46
1040
0.2
1000
ACAD_MTEXT_DEFINED_HEIGHT_END
  0
MTEXT
  5
1F7
330
1F5
100
AcDbEntity
  8
1
  6
CONTINUOUS
 62
     3
100
AcDbMText
 10
155.376767
 20
157.906983
 30
0.0
 40
3.5
 41
0.0
 71
     7
 72
     5
  1
\W01.000;%%c 
  7
DEFAULT
 11
0.9554067207572318
 21
-0.2952930712561895
 31
0.0
1001
ACAD
1000
MTEXTBEGIN
1070
    73
1070
     2
1070
    44
1040
0.903614
1000
MTEXTEND
1000
ACAD_MTEXT_DEFINED_HEIGHT_BEGIN
1070
    46
1040
0.2
1000
ACAD_MTEXT_DEFINED_HEIGHT_END
  0
LINE
  5
1F8
330
1F5
100
AcDbEntity
  8
1
  6
CONTINUOUS
 62
     3
100
AcDbLine
 10
122.096835
 20
166.666008
 30
0.0
 11
166.903864
 21
152.81724
 31
0.0
  0
SOLID
  5
1F9
330
1F5
100
AcDbEntity
  8
1
  6
CONTINUOUS
 62
     3
100
AcDbTrace
 10
122.096835
 20
166.666008
 30
0.0
 11
125.717687
 21
166.528484
 31
0.0
 12
125.163829
 22
164.736479
 32
0.0
 13
122.096835
 23
166.666008
 33
0.0
  0
ENDBLK
  5
1FB
330
1F5
100
AcDbEntity
  8
0
100
AcDbBlockEnd
  0
BLOCK
  5
204
330
1FD
100
AcDbEntity
  8
0
100
AcDbBlockBegin
  2
DIMNDRAFT3D21
 70
     0
 10
0.0
 20
0.0
 30
0.0
  3
DIMNDRAFT3D21
  1

  0
MTEXT
  5
1FE
330
1FD
100
AcDbEntity
  8
1
  6
CONTINUOUS
 62
     3
100
AcDbMText
 10
168.70188
 20
147.638196
 30
0.0
 40
3.5
 41
0.0
 71
     7
 72
     5
  1
\W01.000;\W00.857;4 
  7
DEFAULT
 11
6.123031769111886E-17
 21
1.0
 31
0.0
1001
ACAD
1000
MTEXTBEGIN
1070
    73
1070
     2
1070
    44
1040
0.903614
1000
MTEXTEND
1000
ACAD_MTEXT_DEFINED_HEIGHT_BEGIN
1070
    46
1040
0.2
1000
ACAD_MTEXT_DEFINED_HEIGHT_END
  0
LINE
  5
1FF
330
1FD
100
AcDbEntity
  8
1
  6
CONTINUOUS
 62
     3
100
AcDbLine
 10
116.607209
 20
138.203707
 30
0.0
 11
171.285783
 21
138.203707
 31
0.0
  0
LINE
  5
200
330
1FD
100
AcDbEntity
  8
1
  6
CONTINUOUS
 62
     3
100
AcDbLine
 10
116.572303
 20
142.203555
 30
0.0
 11
171.285783
 21
142.203555
 31
0.0
  0
LINE
  5
201
330
1FD
100
AcDbEntity
  8
1
  6
CONTINUOUS
 62
     3
100
AcDbLine
 10
169.285783
 20
149.383639
 30
0.0
 11
169.285783
 21
129.453707
 31
0.0
  0
SOLID
  5
202
330
1FD
100
AcDbEntity
  8
1
  6
CONTINUOUS
 62
     3
100
AcDbTrace
 10
169.285783
 20
138.203707
 30
0.0
 11
170.223605
 21
134.703711
 31
0.0
 12
168.34796
 22
134.703704
 32
0.0
 13
169.285783
 23
138.203707
 33
0.0
  0
SOLID
  5
203
330
1FD
100
AcDbEntity
  8
1
  6
CONTINUOUS
 62
     3
100
AcDbTrace
 10
169.285783
 20
142.203555
 30
0.0
 11
168.34796
 21
145.703551
 31
0.0
 12
170.223605
 22
145.703558
 32
0.0
 13
169.285783
 23
142.203555
 33
0.0
  0
ENDBLK
  5
205
330
1FD
100
AcDbEntity
  8
0
100
AcDbBlockEnd
  0
BLOCK
  5
20E
330
207
100
AcDbEntity
  8
0
100
AcDbBlockBegin
  2
DIMNDRAFT3D22
 70
     0
 10
0.0
 20
0.0
 30
0.0
  3
DIMNDRAFT3D22
  1

  0
MTEXT
  5
208
330
207
100
AcDbEntity
  8
1
  6
CONTINUOUS
 62
     3
100
AcDbMText
 10
34.939702
 20
155.116651
 30
0.0
 40
3.5
 41
0.0
 71
     7
 72
     5
  1
\W01.000;\W00.907;2 
  7
DEFAULT
 11
6.123031769111886E-17
 21
1.0
 31
0.0
1001
ACAD
1000
MTEXTBEGIN
1070
    73
1070
     2
1070
    44
1040
0.903614
1000
MTEXTEND
1000
ACAD_MTEXT_DEFINED_HEIGHT_BEGIN
1070
    46
1040
0.2
1000
ACAD_MTEXT_DEFINED_HEIGHT_END
  0
LINE
  5
209
330
207
100
AcDbEntity
  8
1
  6
CONTINUOUS
 62
     3
100
AcDbLine
 10
63.964536
 20
163.053667
 30
0.0
 11
33.523605
 21
163.053667
 31
0.0
  0
LINE
  5
20A
330
207
100
AcDbEntity
  8
1
  6
CONTINUOUS
 62
     3
100
AcDbLine
 10
63.964536
 20
165.240158
 30
0.0
 11
33.523605
 21
165.240158
 31
0.0
  0
LINE
  5
20B
330
207
100
AcDbEntity
  8
1
  6
CONTINUOUS
 62
     3
100
AcDbLine
 10
35.523605
 20
173.990158
 30
0.0
 11
35.523605
 21
154.241651
 31
0.0
  0
SOLID
  5
20C
330
207
100
AcDbEntity
  8
1
  6
CONTINUOUS
 62
     3
100
AcDbTrace
 10
35.523605
 20
163.053667
 30
0.0
 11
36.461427
 21
159.553671
 31
0.0
 12
34.585783
 22
159.553664
 32
0.0
 13
35.523605
 23
163.053667
 33
0.0
  0
SOLID
  5
20D
330
207
100
AcDbEntity
  8
1
  6
CONTINUOUS
 62
     3
100
AcDbTrace
 10
35.523605
 20
165.240158
 30
0.0
 11
34.585783
 21
168.740155
 31
0.0
 12
36.461427
 22
168.740162
 32
0.0
 13
35.523605
 23
165.240158
 33
0.0
  0
ENDBLK
  5
20F
330
207
100
AcDbEntity
  8
0
100
AcDbBlockEnd
  0
ENDSEC
  0
SECTION
  2
ENTITIES
  0
LINE
  5
45
330
1F
100
AcDbEntity
  8
1
  6
CONTINUOUS
 62
     2
100
AcDbLine
 10
73.964536
 20
165.240158
 30
0.0
 11
63.964536
 21
165.240158
 31
0.0
  0
LINE
  5
47
330
1F
100
AcDbEntity
  8
1
  6
CONTINUOUS
 62
     2
100
AcDbLine
 10
63.964536
 20
163.053667
 30
0.0
 11
73.964536
 21
163.053667
 31
0.0
  0
LINE
  5
48
330
1F
100
AcDbEntity
  8
1
  6
CONTINUOUS
 62
     2
100
AcDbLine
 10
143.382675
 20
186.322263
 30
0.0
 11
145.849263
 21
187.746349
 31
0.0
  0
LINE
  5
49
330
1F
100
AcDbEntity
  8
1
  6
CONTINUOUS
 62
     2
100
AcDbLine
 10
96.264828
 20
199.503895
 30
0.0
 11
97.305128
 21
199.503895
 31
0.0
  0
LINE
  5
4A
330
1F
100
AcDbEntity
  8
1
  6
CONTINUOUS
 62
     2
100
AcDbLine
 10
117.499875
 20
165.240158
 30
0.0
 11
107.499875
 21
165.240158
 31
0.0
  0
LINE
  5
4B
330
1F
100
AcDbEntity
  8
1
  6
CONTINUOUS
 62
     2
100
AcDbLine
 10
105.156438
 20
116.088021
 30
0.0
 11
105.156438
 21
118.779383
 31
0.0
  0
LINE
  5
4C
330
1F
100
AcDbEntity
  8
1
  6
CONTINUOUS
 62
     2
100
AcDbLine
 10
93.156438
 20
118.779383
 30
0.0
 11
93.156438
 21
116.017045
 31
0.0
  0
LINE
  5
4D
330
1F
100
AcDbEntity
  8
1
  6
CONTINUOUS
 62
     2
100
AcDbLine
 10
116.572303
 20
142.203555
 30
0.0
 11
86.573445
 21
141.941759
 31
0.0
  0
LINE
  5
4E
330
1F
100
AcDbEntity
  8
1
  6
CONTINUOUS
 62
     2
100
AcDbLine
 10
102.048047
 20
199.503895
 30
0.0
 11
99.754084
 21
207.503895
 31
0.0
  0
LINE
  5
4F
330
1F
100
AcDbEntity
  8
1
  6
CONTINUOUS
 62
     2
100
AcDbLine
 10
86.608351
 20
137.941911
 30
0.0
 11
116.607209
 21
138.203707
 31
0.0
  0
LINE
  5
50
330
1F
100
AcDbEntity
  8
1
  6
CONTINUOUS
 62
     2
100
AcDbLine
 10
105.156438
 20
118.779383
 30
0.0
 11
93.156438
 21
118.779383
 31
0.0
  0
LINE
  5
51
330
1F
100
AcDbEntity
  8
1
  6
CONTINUOUS
 62
     2
100
AcDbLine
 10
99.860766
 20
203.503895
 30
0.0
 11
98.452109
 21
203.503895
 31
0.0
  0
LINE
  5
52
330
1F
100
AcDbEntity
  8
1
  6
CONTINUOUS
 62
     2
100
AcDbLine
 10
107.499875
 20
165.240158
 30
0.0
 11
107.499875
 21
163.053667
 31
0.0
  0
LINE
  5
53
330
1F
100
AcDbEntity
  8
1
  6
CONTINUOUS
 62
     2
100
AcDbLine
 10
86.573445
 20
141.941759
 30
0.0
 11
86.608351
 21
137.941911
 31
0.0
  0
LINE
  5
54
330
1F
100
AcDbEntity
  8
1
  6
CONTINUOUS
 62
     2
100
AcDbLine
 10
101.007748
 20
199.503895
 30
0.0
 11
102.048047
 21
199.503895
 31
0.0
  0
LINE
  5
55
330
1F
100
AcDbEntity
  8
1
  6
CONTINUOUS
 62
     2
100
AcDbLine
 10
99.156438
 20
205.96018
 30
0.0
 11
99.860766
 21
203.503895
 31
0.0
  0
LINE
  5
56
330
1F
100
AcDbEntity
  8
1
  6
CONTINUOUS
 62
     2
100
AcDbLine
 10
59.775706
 20
196.04802
 30
0.0
 11
57.433917
 21
197.400052
 31
0.0
  0
LINE
  5
57
330
1F
100
AcDbEntity
  8
1
  6
CONTINUOUS
 62
     2
100
AcDbLine
 10
137.382675
 20
196.714568
 30
0.0
 11
143.382675
 21
186.322263
 31
0.0
  0
LINE
  5
58
330
1F
100
AcDbEntity
  8
1
  6
CONTINUOUS
 62
     2
100
AcDbLine
 10
63.964536
 20
165.240158
 30
0.0
 11
63.964536
 21
163.053667
 31
0.0
  0
LINE
  5
59
330
1F
100
AcDbEntity
  8
1
  6
CONTINUOUS
 62
     2
100
AcDbLine
 10
99.754084
 20
207.503895
 30
0.0
 11
98.558791
 21
207.503895
 31
0.0
  0
LINE
  5
5A
330
1F
100
AcDbEntity
  8
1
  6
CONTINUOUS
 62
     2
100
AcDbLine
 10
98.165364
 20
202.503895
 30
0.0
 11
100.147512
 21
202.503895
 31
0.0
  0
LINE
  5
5B
330
1F
100
AcDbEntity
  8
1
  6
CONTINUOUS
 62
     2
100
AcDbLine
 10
139.762363
 20
198.088482
 30
0.0
 11
137.382675
 21
196.714568
 31
0.0
  0
LINE
  5
5C
330
1F
100
AcDbEntity
  8
1
  6
CONTINUOUS
 62
     2
100
AcDbLine
 10
97.305128
 20
199.503895
 30
0.0
 11
98.165364
 21
202.503895
 31
0.0
  0
LINE
  5
5D
330
1F
100
AcDbEntity
  8
1
  6
CONTINUOUS
 62
     2
100
AcDbLine
 10
116.607209
 20
138.203707
 30
0.0
 11
116.572303
 21
142.203555
 31
0.0
  0
LINE
  5
5E
330
1F
100
AcDbEntity
  8
1
  6
CONTINUOUS
 62
     2
100
AcDbLine
 10
100.147512
 20
202.503895
 30
0.0
 11
101.007748
 21
199.503895
 31
0.0
  0
LINE
  5
5F
330
1F
100
AcDbEntity
  8
1
  6
CONTINUOUS
 62
     2
100
AcDbLine
 10
117.499875
 20
163.053667
 30
0.0
 11
117.499875
 21
165.240158
 31
0.0
  0
LINE
  5
60
330
1F
100
AcDbEntity
  8
1
  6
CONTINUOUS
 62
     2
100
AcDbLine
 10
73.964536
 20
163.053667
 30
0.0
 11
73.964536
 21
165.240158
 31
0.0
  0
LINE
  5
61
330
1F
100
AcDbEntity
  8
1
  6
CONTINUOUS
 62
     2
100
AcDbLine
 10
51.520817
 20
186.957576
 30
0.0
 11
53.775706
 21
185.655715
 31
0.0
  0
LINE
  5
62
330
1F
100
AcDbEntity
  8
1
  6
CONTINUOUS
 62
     2
100
AcDbLine
 10
53.775706
 20
185.655715
 30
0.0
 11
59.775706
 21
196.04802
 31
0.0
  0
LINE
  5
63
330
1F
100
AcDbEntity
  8
1
  6
CONTINUOUS
 62
     2
100
AcDbLine
 10
98.558791
 20
207.503895
 30
0.0
 11
96.264828
 21
199.503895
 31
0.0
  0
LINE
  5
64
330
1F
100
AcDbEntity
  8
1
  6
CONTINUOUS
 62
     2
100
AcDbLine
 10
107.499875
 20
163.053667
 30
0.0
 11
117.499875
 21
163.053667
 31
0.0
  0
LINE
  5
65
330
1F
100
AcDbEntity
  8
1
  6
CONTINUOUS
 62
     2
100
AcDbLine
 10
98.452109
 20
203.503895
 30
0.0
 11
99.156438
 21
205.96018
 31
0.0
  0
LINE
  5
66
330
1F
100
AcDbEntity
  8
1
  6
CONTINUOUS
 62
     2
100
AcDbLine
 10
182.304112
 20
218.399889
 30
0.0
 11
179.304112
 21
218.399889
 31
0.0
  0
LINE
  5
67
330
1F
100
AcDbEntity
  8
1
  6
CONTINUOUS
 62
     2
100
AcDbLine
 10
182.304112
 20
116.017045
 30
0.0
 11
182.304112
 21
186.957576
 31
0.0
  0
LINE
  5
68
330
1F
100
AcDbEntity
  8
1
  6
CONTINUOUS
 62
     2
100
AcDbLine
 10
182.304112
 20
196.04802
 30
0.0
 11
182.304112
 21
197.400052
 31
0.0
  0
LINE
  5
69
330
1F
100
AcDbEntity
  8
1
  6
CONTINUOUS
 62
     2
100
AcDbLine
 10
182.304112
 20
186.957676
 30
0.0
 11
182.304112
 21
196.04802
 31
0.0
  0
LINE
  5
6A
330
1F
100
AcDbEntity
  8
1
  6
CONTINUOUS
 62
     2
100
AcDbLine
 10
182.304112
 20
197.400052
 30
0.0
 11
182.304112
 21
218.399889
 31
0.0
  0
LINE
  5
6B
330
1F
100
AcDbEntity
  8
1
  6
CONTINUOUS
 62
     2
100
AcDbLine
 10
179.304112
 20
196.04802
 30
0.0
 11
179.304112
 21
186.957676
 31
0.0
  0
LINE
  5
6C
330
1F
100
AcDbEntity
  8
1
  6
CONTINUOUS
 62
     2
100
AcDbLine
 10
182.304112
 20
196.04802
 30
0.0
 11
179.304112
 21
196.04802
 31
0.0
  0
LINE
  5
6D
330
1F
100
AcDbEntity
  8
1
  6
CONTINUOUS
 62
     2
100
AcDbLine
 10
179.304112
 20
197.400052
 30
0.0
 11
179.304112
 21
196.04802
 31
0.0
  0
LINE
  5
6E
330
1F
100
AcDbEntity
  8
1
  6
CONTINUOUS
 62
     2
100
AcDbLine
 10
182.304112
 20
116.017045
 30
0.0
 11
179.304112
 21
116.017045
 31
0.0
  0
LINE
  5
6F
330
1F
100
AcDbEntity
  8
1
  6
CONTINUOUS
 62
     2
100
AcDbLine
 10
179.304112
 20
186.957576
 30
0.0
 11
182.304112
 21
186.957576
 31
0.0
  0
LINE
  5
70
330
1F
100
AcDbEntity
  8
1
  6
CONTINUOUS
 62
     2
100
AcDbLine
 10
182.304112
 20
197.400052
 30
0.0
 11
179.304112
 21
197.400052
 31
0.0
  0
LINE
  5
71
330
1F
100
AcDbEntity
  8
1
  6
CONTINUOUS
 62
     2
100
AcDbLine
 10
179.304112
 20
218.399889
 30
0.0
 11
179.304112
 21
197.400052
 31
0.0
  0
LINE
  5
72
330
1F
100
AcDbEntity
  8
1
  6
CONTINUOUS
 62
     2
100
AcDbLine
 10
179.304112
 20
186.957576
 30
0.0
 11
179.304112
 21
116.017045
 31
0.0
  0
LINE
  5
73
330
1F
100
AcDbEntity
  8
256
  6
CONTINUOUS
 62
    18
100
AcDbLine
 10
0.0
 20
0.0
 30
0.0
 11
205.0
 21
0.0
 31
0.0
  0
LINE
  5
75
330
1F
100
AcDbEntity
  8
256
  6
CONTINUOUS
 62
     3
100
AcDbLine
 10
-0.04
 20
148.5
 30
0.0
 11
15.0
 21
148.5
 31
0.0
  0
LINE
  5
76
330
1F
100
AcDbEntity
  8
256
  6
CONTINUOUS
 62
     2
100
AcDbLine
 10
15.0
 20
287.0
 30
0.0
 11
195.0
 21
287.0
 31
0.0
  0
LINE
  5
77
330
1F
100
AcDbEntity
  8
256
  6
CONTINUOUS
 62
    18
100
AcDbLine
 10
0.0
 20
0.0
 30
0.0
 11
0.0
 21
297.0
 31
0.0
  0
LINE
  5
78
330
1F
100
AcDbEntity
  8
256
  6
CONTINUOUS
 62
     2
100
AcDbLine
 10
22.0
 20
257.0
 30
0.0
 11
22.0
 21
287.0
 31
0.0
  0
LINE
  5
79
330
1F
100
AcDbEntity
  8
256
  6
CONTINUOUS
 62
     2
100
AcDbLine
 10
15.0
 20
257.0
 30
0.0
 11
195.0
 21
257.0
 31
0.0
  0
LINE
  5
7A
330
1F
100
AcDbEntity
  8
256
  6
CONTINUOUS
 62
     3
100
AcDbLine
 10
195.0
 20
282.0
 30
0.0
 11
15.0
 21
282.0
 31
0.0
  0
LINE
  5
7B
330
1F
100
AcDbEntity
  8
256
  6
CONTINUOUS
 62
     2
100
AcDbLine
 10
15.0
 20
287.0
 30
0.0
 11
15.0
 21
10.0
 31
0.0
  0
LINE
  5
7C
330
1F
100
AcDbEntity
  8
256
  6
CONTINUOUS
 62
     3
100
AcDbLine
 10
195.0
 20
262.0
 30
0.0
 11
15.0
 21
262.0
 31
0.0
  0
LINE
  5
7D
330
1F
100
AcDbEntity
  8
256
  6
CONTINUOUS
 62
     3
100
AcDbLine
 10
195.0
 20
277.0
 30
0.0
 11
15.0
 21
277.0
 31
0.0
  0
LINE
  5
7E
330
1F
100
AcDbEntity
  8
256
  6
CONTINUOUS
 62
     3
100
AcDbLine
 10
195.0
 20
267.0
 30
0.0
 11
15.0
 21
267.0
 31
0.0
  0
LINE
  5
7F
330
1F
100
AcDbEntity
  8
256
  6
CONTINUOUS
 62
     2
100
AcDbLine
 10
195.0
 20
10.0
 30
0.0
 11
195.0
 21
287.0
 31
0.0
  0
LINE
  5
80
330
1F
100
AcDbEntity
  8
256
  6
CONTINUOUS
 62
     3
100
AcDbLine
 10
195.0
 20
272.0
 30
0.0
 11
15.0
 21
272.0
 31
0.0
  0
LINE
  5
81
330
1F
100
AcDbEntity
  8
256
  6
CONTINUOUS
 62
    18
100
AcDbLine
 10
205.0
 20
0.0
 30
0.0
 11
205.0
 21
297.0
 31
0.0
  0
LINE
  5
82
330
1F
100
AcDbEntity
  8
256
  6
CONTINUOUS
 62
    18
100
AcDbLine
 10
0.0
 20
297.0
 30
0.0
 11
205.0
 21
297.0
 31
0.0
  0
LINE
  5
83
330
1F
100
AcDbEntity
  8
256
  6
CONTINUOUS
 62
     2
100
AcDbLine
 10
15.0
 20
252.0
 30
0.0
 11
195.0
 21
252.0
 31
0.0
  0
LINE
  5
84
330
1F
100
AcDbEntity
  8
256
  6
CONTINUOUS
 62
     2
100
AcDbLine
 10
115.0
 20
67.5
 30
0.0
 11
195.0
 21
67.5
 31
0.0
  0
LINE
  5
85
330
1F
100
AcDbEntity
  8
256
  6
CONTINUOUS
 62
     2
100
AcDbLine
 10
57.5
 20
51.0
 30
0.0
 11
155.0
 21
51.0
 31
0.0
  0
LINE
  5
86
330
1F
100
AcDbEntity
  8
256
  6
CONTINUOUS
 62
     3
100
AcDbLine
 10
173.0
 20
56.579805
 30
0.0
 11
173.0
 21
49.500705
 31
0.0
  0
LINE
  5
87
330
1F
100
AcDbEntity
  8
256
  6
CONTINUOUS
 62
     3
100
AcDbLine
 10
46.875
 20
22.0
 30
0.0
 11
46.875
 21
10.0
 31
0.0
  0
LINE
  5
88
330
1F
100
AcDbEntity
  8
256
  6
CONTINUOUS
 62
     2
100
AcDbLine
 10
15.0
 20
100.0
 30
0.0
 11
195.0
 21
100.0
 31
0.0
  0
LINE
  5
89
330
1F
100
AcDbEntity
  8
256
  6
CONTINUOUS
 62
     3
100
AcDbLine
 10
115.0
 20
62.0
 30
0.0
 11
155.0
 21
62.0
 31
0.0
  0
LINE
  5
8A
330
1F
100
AcDbEntity
  8
256
  6
CONTINUOUS
 62
     3
100
AcDbLine
 10
173.0
 20
49.500705
 30
0.0
 11
164.97
 21
51.256405
 31
0.0
  0
LINE
  5
8B
330
1F
100
AcDbEntity
  8
256
  6
CONTINUOUS
 62
     2
100
AcDbLine
 10
15.0
 20
10.0
 30
0.0
 11
195.0
 21
10.0
 31
0.0
  0
LINE
  5
8C
330
1F
100
AcDbEntity
  8
256
  6
CONTINUOUS
 62
     2
100
AcDbLine
 10
57.5
 20
44.0
 30
0.0
 11
195.0
 21
44.0
 31
0.0
  0
LINE
  5
8D
330
1F
100
AcDbEntity
  8
256
  6
CONTINUOUS
 62
     3
100
AcDbLine
 10
164.97
 20
54.824205
 30
0.0
 11
164.97
 21
51.256405
 31
0.0
  0
LINE
  5
8E
330
1F
100
AcDbEntity
  8
256
  6
CONTINUOUS
 62
     2
100
AcDbLine
 10
15.0
 20
28.0
 30
0.0
 11
57.5
 21
28.0
 31
0.0
  0
LINE
  5
8F
330
1F
100
AcDbEntity
  8
256
  6
CENTER
 62
     3
100
AcDbLine
 10
181.579
 20
57.640305
 30
0.0
 11
181.579
 21
48.487505
 31
0.0
  0
LINE
  5
90
330
1F
100
AcDbEntity
  8
256
  6
CONTINUOUS
 62
     3
100
AcDbLine
 10
173.0
 20
56.579805
 30
0.0
 11
164.97
 21
54.824205
 31
0.0
  0
LINE
  5
91
330
1F
100
AcDbEntity
  8
256
  6
CONTINUOUS
 62
     3
100
AcDbLine
 10
115.0
 20
56.5
 30
0.0
 11
155.0
 21
56.5
 31
0.0
  0
LINE
  5
92
330
1F
100
AcDbEntity
  8
256
  6
CENTER
 62
     3
100
AcDbLine
 10
176.745
 20
53.040305
 30
0.0
 11
186.158
 21
53.040305
 31
0.0
  0
LINE
  5
93
330
1F
100
AcDbEntity
  8
256
  6
CONTINUOUS
 62
     2
100
AcDbLine
 10
155.0
 20
67.5
 30
0.0
 11
155.0
 21
10.0
 31
0.0
  0
LINE
  5
94
330
1F
100
AcDbEntity
  8
256
  6
CONTINUOUS
 62
     3
100
AcDbLine
 10
155.0
 20
28.0
 30
0.0
 11
195.0
 21
28.0
 31
0.0
  0
LINE
  5
95
330
1F
100
AcDbEntity
  8
256
  6
CONTINUOUS
 62
     3
100
AcDbLine
 10
135.0
 20
51.0
 30
0.0
 11
135.0
 21
67.5
 31
0.0
  0
LINE
  5
96
330
1F
100
AcDbEntity
  8
256
  6
CONTINUOUS
 62
     2
100
AcDbLine
 10
15.0
 20
100.0
 30
0.0
 11
15.0
 21
10.0
 31
0.0
  0
LINE
  5
97
330
1F
100
AcDbEntity
  8
256
  6
CONTINUOUS
 62
     3
100
AcDbLine
 10
15.0
 20
35.9
 30
0.0
 11
57.5
 21
35.9
 31
0.0
  0
LINE
  5
98
330
1F
100
AcDbEntity
  8
256
  6
CONTINUOUS
 62
     3
100
AcDbLine
 10
36.25
 20
16.0
 30
0.0
 11
57.5
 21
16.0
 31
0.0
  0
LINE
  5
99
330
1F
100
AcDbEntity
  8
256
  6
CONTINUOUS
 62
     2
100
AcDbLine
 10
15.0
 20
58.0
 30
0.0
 11
57.5
 21
58.0
 31
0.0
  0
LINE
  5
9A
330
1F
100
AcDbEntity
  8
256
  6
CONTINUOUS
 62
     3
100
AcDbLine
 10
57.5
 20
43.8
 30
0.0
 11
15.0
 21
43.8
 31
0.0
  0
LINE
  5
9B
330
1F
100
AcDbEntity
  8
256
  6
CONTINUOUS
 62
     3
100
AcDbLine
 10
97.189666
 20
60.322391
 30
0.0
 11
95.409666
 21
59.762391
 31
0.0
  0
LINE
  5
9C
330
1F
100
AcDbEntity
  8
256
  6
CONTINUOUS
 62
     3
100
AcDbLine
 10
15.0
 20
71.88581
 30
0.0
 11
57.5
 21
71.88581
 31
0.0
  0
LINE
  5
9D
330
1F
100
AcDbEntity
  8
256
  6
CONTINUOUS
 62
     2
100
AcDbLine
 10
15.0
 20
79.88581
 30
0.0
 11
115.0
 21
79.88581
 31
0.0
  0
LINE
  5
9E
330
1F
100
AcDbEntity
  8
256
  6
CONTINUOUS
 62
     3
100
AcDbLine
 10
97.189666
 20
60.322391
 30
0.0
 11
95.409666
 21
60.882391
 31
0.0
  0
LINE
  5
9F
330
1F
100
AcDbEntity
  8
256
  6
CONTINUOUS
 62
     2
100
AcDbLine
 10
57.5
 20
58.0
 30
0.0
 11
115.0
 21
58.0
 31
0.0
  0
LINE
  5
A0
330
1F
100
AcDbEntity
  8
256
  6
CONTINUOUS
 62
     3
100
AcDbLine
 10
57.5
 20
51.0
 30
0.0
 11
15.0
 21
51.0
 31
0.0
  0
LINE
  5
A1
330
1F
100
AcDbEntity
  8
256
  6
CONTINUOUS
 62
     3
100
AcDbLine
 10
87.599666
 20
71.897391
 30
0.0
 11
87.599666
 21
58.842391
 31
0.0
  0
LINE
  5
A2
330
1F
100
AcDbEntity
  8
256
  6
CONTINUOUS
 62
     2
100
AcDbLine
 10
46.875
 20
22.0
 30
0.0
 11
36.25
 21
22.0
 31
0.0
  0
LINE
  5
A3
330
1F
100
AcDbEntity
  8
256
  6
CONTINUOUS
 62
     2
100
AcDbLine
 10
15.0
 20
87.88581
 30
0.0
 11
115.0
 21
87.88581
 31
0.0
  0
LINE
  5
A4
330
1F
100
AcDbEntity
  8
256
  6
CONTINUOUS
 62
     3
100
AcDbLine
 10
41.563
 20
22.0
 30
0.0
 11
41.563
 21
10.0
 31
0.0
  0
LINE
  5
A5
330
1F
100
AcDbEntity
  8
256
  6
CENTER
 62
     3
100
AcDbLine
 10
163.719
 20
53.040305
 30
0.0
 11
174.383
 21
53.040305
 31
0.0
  0
LINE
  5
A6
330
1F
100
AcDbEntity
  8
256
  6
CONTINUOUS
 62
     2
100
AcDbLine
 10
115.0
 20
51.0
 30
0.0
 11
115.0
 21
100.0
 31
0.0
  0
LINE
  5
A7
330
1F
100
AcDbEntity
  8
256
  6
CONTINUOUS
 62
     2
100
AcDbLine
 10
36.25
 20
28.0
 30
0.0
 11
36.25
 21
10.0
 31
0.0
  0
LINE
  5
A8
330
1F
100
AcDbEntity
  8
256
  6
CONTINUOUS
 62
     3
100
AcDbLine
 10
52.188
 20
28.0
 30
0.0
 11
52.188
 21
10.0
 31
0.0
  0
LINE
  5
A9
330
1F
100
AcDbEntity
  8
256
  6
CONTINUOUS
 62
     2
100
AcDbLine
 10
36.25
 20
58.0
 30
0.0
 11
36.25
 21
27.9773
 31
0.0
  0
LINE
  5
AA
330
1F
100
AcDbEntity
  8
256
  6
CONTINUOUS
 62
     3
100
AcDbLine
 10
155.0
 20
36.0
 30
0.0
 11
195.0
 21
36.0
 31
0.0
  0
LINE
  5
AB
330
1F
100
AcDbEntity
  8
256
  6
CONTINUOUS
 62
     3
100
AcDbLine
 10
46.875
 20
22.0
 30
0.0
 11
57.5
 21
22.0
 31
0.0
  0
LINE
  5
AC
330
1F
100
AcDbEntity
  8
256
  6
CONTINUOUS
 62
     2
100
AcDbLine
 10
57.5
 20
10.0
 30
0.0
 11
57.5
 21
79.88581
 31
0.0
  0
LINE
  5
AD
330
1F
100
AcDbEntity
  8
256
  6
CONTINUOUS
 62
     2
100
AcDbLine
 10
46.875
 20
22.0
 30
0.0
 11
46.875
 21
28.0
 31
0.0
  0
LINE
  5
AE
330
1F
100
AcDbEntity
  8
1
  6
CONTINUOUS
 62
   172
100
AcDbLine
 10
46.5
 20
22.0
 30
0.0
 11
52.057267
 21
27.754718
 31
0.0
  0
LINE
  5
AF
330
1F
100
AcDbEntity
  8
1
  6
CONTINUOUS
 62
   172
100
AcDbLine
 10
52.057267
 20
22.0
 30
0.0
 11
57.474709
 21
27.609925
 31
0.0
  0
LINE
  5
B0
330
1F
100
AcDbEntity
  8
1
  6
CONTINUOUS
 62
   172
100
AcDbLine
 10
36.0
 20
16.0
 30
0.0
 11
41.455987
 21
21.85083
 31
0.0
  0
LINE
  5
B1
330
1F
100
AcDbEntity
  8
1
  6
CONTINUOUS
 62
   172
100
AcDbLine
 10
41.5
 20
16.0
 30
0.0
 11
46.5
 21
22.0
 31
0.0
  0
CIRCLE
  5
B2
330
1F
100
AcDbEntity
  8
1
  6
CONTINUOUS
 62
     2
100
AcDbCircle
 10
135.825501
 20
162.991631
 30
0.0
 40
5.0
  0
CIRCLE
  5
B3
330
1F
100
AcDbEntity
  8
1
  6
CONTINUOUS
 62
     2
100
AcDbCircle
 10
108.393353
 20
151.785023
 30
0.0
 40
3.0
  0
CIRCLE
  5
B4
330
1F
100
AcDbEntity
  8
1
  6
CONTINUOUS
 62
     2
100
AcDbCircle
 10
120.854806
 20
167.049889
 30
0.0
 40
1.299999999999999
  0
CIRCLE
  5
B5
330
1F
100
AcDbEntity
  8
1
  6
CONTINUOUS
 62
     2
100
AcDbCircle
 10
89.316259
 20
182.314754
 30
0.0
 40
3.0
  0
CIRCLE
  5
B6
330
1F
100
AcDbEntity
  8
1
  6
CONTINUOUS
 62
     2
100
AcDbCircle
 10
82.971349
 20
129.433346
 30
0.0
 40
5.0
  0
CIRCLE
  5
B7
330
1F
100
AcDbEntity
  8
1
  6
CONTINUOUS
 62
     2
100
AcDbCircle
 10
118.703689
 20
147.247629
 30
0.0
 40
1.300000000000001
  0
ARC
  5
B8
330
1F
100
AcDbEntity
  8
1
  6
CONTINUOUS
 62
     2
100
AcDbCircle
 10
-98.854806
 20
167.049889
 30
0.0
 40
51.35
210
0.0
220
0.0
230
-1.0
100
AcDbArc
 50
276.371301
 51
22.810605
  0
CIRCLE
  5
B9
330
1F
100
AcDbEntity
  8
1
  6
CONTINUOUS
 62
     2
100
AcDbCircle
 10
129.453867
 20
176.735025
 30
0.0
 40
1.8
  0
CIRCLE
  5
BA
330
1F
100
AcDbEntity
  8
1
  6
CONTINUOUS
 62
     2
100
AcDbCircle
 10
63.704806
 20
172.799889
 30
0.0
 40
1.8
  0
CIRCLE
  5
BB
330
1F
100
AcDbEntity
  8
1
  6
CONTINUOUS
 62
     2
100
AcDbCircle
 10
-81.991273
 20
162.373217
 30
0.0
 40
1.300000000000002
210
0.0
220
0.0
230
-1.0
  0
CIRCLE
  5
BC
330
1F
100
AcDbEntity
  8
1
  6
CONTINUOUS
 62
     2
100
AcDbCircle
 10
70.388149
 20
138.749631
 30
0.0
 40
5.0
  0
CIRCLE
  5
BD
330
1F
100
AcDbEntity
  8
1
  6
CONTINUOUS
 62
     2
100
AcDbCircle
 10
-98.893824
 20
149.746046
 30
0.0
 40
1.3
210
0.0
220
0.0
230
-1.0
  0
CIRCLE
  5
BE
330
1F
100
AcDbEntity
  8
1
  6
CONTINUOUS
 62
     2
100
AcDbCircle
 10
79.105709
 20
186.845608
 30
0.0
 40
1.300000000000001
  0
CIRCLE
  5
BF
330
1F
100
AcDbEntity
  8
1
  6
CONTINUOUS
 62
     2
100
AcDbCircle
 10
76.854806
 20
167.049889
 30
0.0
 40
1.299999999999999
  0
CIRCLE
  5
C0
330
1F
100
AcDbEntity
  8
1
  6
CONTINUOUS
 62
     2
100
AcDbCircle
 10
80.854806
 20
167.049889
 30
0.0
 40
1.3
  0
CIRCLE
  5
C1
330
1F
100
AcDbEntity
  8
1
  6
CONTINUOUS
 62
     2
100
AcDbCircle
 10
131.980039
 20
148.51071
 30
0.0
 40
5.0
  0
CIRCLE
  5
C2
330
1F
100
AcDbEntity
  8
1
  6
CONTINUOUS
 62
     2
100
AcDbCircle
 10
-98.893824
 20
184.746046
 30
0.0
 40
1.3
210
0.0
220
0.0
230
-1.0
  0
ARC
  5
C3
330
1F
100
AcDbEntity
  8
1
  6
CONTINUOUS
 62
     2
100
AcDbCircle
 10
-98.854806
 20
167.049889
 30
0.0
 40
51.35
210
0.0
220
0.0
230
-1.0
100
AcDbArc
 50
36.231204
 51
142.810605
  0
ARC
  5
C4
330
1F
100
AcDbEntity
  8
1
  6
CONTINUOUS
 62
     2
100
AcDbCircle
 10
-98.854806
 20
167.049889
 30
0.0
 40
51.35
210
0.0
220
0.0
230
-1.0
100
AcDbArc
 50
156.231204
 51
262.950937
  0
CIRCLE
  5
C5
330
1F
100
AcDbEntity
  8
256
  6
CONTINUOUS
 62
     3
100
AcDbCircle
 10
181.579
 20
53.040305
 30
0.0
 40
1.78392
  0
CIRCLE
  5
C6
330
1F
100
AcDbEntity
  8
256
  6
CONTINUOUS
 62
     3
100
AcDbCircle
 10
84.709666
 20
61.202391
 30
0.0
 40
0.197989
  0
CIRCLE
  5
C7
330
1F
100
AcDbEntity
  8
256
  6
CONTINUOUS
 62
     3
100
AcDbCircle
 10
181.579
 20
53.040305
 30
0.0
 40
3.53955
  0
CIRCLE
  5
C8
330
1F
100
AcDbEntity
  8
1
  6
CONTINUOUS
 62
   172
100
AcDbCircle
 10
21.943608
 20
132.164512
 30
0.0
 40
4.931419408187852
  0
CIRCLE
  5
C9
330
1F
100
AcDbEntity
  8
1
  6
CONTINUOUS
 62
   172
100
AcDbCircle
 10
162.47852
 20
121.023306
 30
0.0
 40
5.204572331009286
  0
CIRCLE
  5
CA
330
1F
100
AcDbEntity
  8
1
  6
CONTINUOUS
 62
   172
100
AcDbCircle
 10
26.954096
 20
179.904025
 30
0.0
 40
4.904724751719682
  0
CIRCLE
  5
CB
330
1F
100
AcDbEntity
  8
1
  6
CONTINUOUS
 62
   172
100
AcDbCircle
 10
34.587558
 20
199.351973
 30
0.0
 40
4.881265818930378
  0
CIRCLE
  5
CC
330
1F
100
AcDbEntity
  8
1
  6
CONTINUOUS
 62
   172
100
AcDbCircle
 10
169.0
 20
237.0
 30
0.0
 40
4.123105625617661
  0
LEADER
  5
CE
330
1F
100
AcDbEntity
  8
1
  6
CONTINUOUS
 62
     3
100
AcDbLeader
  3
STANDARD
 73
     2
 76
     3
 10
48.126614
 20
175.250394
 30
0.0
 10
36.429156
 20
179.904025
 30
0.0
 10
31.429156
 20
179.904025
 30
0.0
340
D2
212
31.42915598551432
222
179.9040250778198
232
0.0
1001
ACAD
1000
DSTYLE
1002
{
1070
     5
1000

1070
   341
1005
0
1070
    41
1040
3.5
1002
}
  0
INSERT
  5
D2
102
{ACAD_REACTORS
330
CE
102
}
330
1F
100
AcDbEntity
  8
1
  6
CONTINUOUS
 62
     3
100
AcDbBlockReference
  2
LABLE3D_1
 10
0.0
 20
0.0
 30
0.0
  0
LEADER
  5
D7
330
1F
100
AcDbEntity
  8
1
  6
CONTINUOUS
 62
     3
100
AcDbLeader
  3
STANDARD
 73
     2
 76
     3
 10
92.675009
 20
164.314092
 30
0.0
 10
160.568932
 20
236.755967
 30
0.0
 10
165.568932
 20
236.755967
 30
0.0
340
D9
212
165.568932060944
222
236.7559667549804
232
0.0
1001
ACAD
1000
DSTYLE
1002
{
1070
     5
1000

1070
   341
1005
0
1070
    41
1040
3.5
1002
}
  0
INSERT
  5
D9
102
{ACAD_REACTORS
330
D7
102
}
330
1F
100
AcDbEntity
  8
1
  6
CONTINUOUS
 62
     3
100
AcDbBlockReference
  2
LABLE3D_2
 10
0.0
 20
0.0
 30
0.0
  0
MTEXT
  5
DC
330
1F
100
AcDbEntity
  8
256
  6
CONTINUOUS
 62
     3
100
AcDbMText
 10
83.757687
 20
252.893659
 30
0.0
 40
2.0
 41
0.0
 71
     7
 72
     5
  1
\W00.772;MODIFICACIONES / 
  7
DEFAULT
1001
ACAD
1000
MTEXTBEGIN
1070
    73
1070
     2
1070
    44
1040
0.903614
1000
MTEXTEND
1000
ACAD_MTEXT_DEFINED_HEIGHT_BEGIN
1070
    46
1040
0.2
1000
ACAD_MTEXT_DEFINED_HEIGHT_END
  0
LEADER
  5
DE
330
1F
100
AcDbEntity
  8
1
  6
CONTINUOUS
 62
     3
100
AcDbLeader
  3
STANDARD
 73
     2
 76
     3
 10
95.243972
 20
204.749984
 30
0.0
 10
56.502553
 20
244.321556
 30
0.0
 10
61.502553
 20
244.321556
 30
0.0
340
E0
212
61.50255342324575
222
244.3215560913086
232
0.0
1001
ACAD
1000
DSTYLE
1002
{
1070
     5
1000

1070
   341
1005
0
1070
    41
1040
3.5
1002
}
  0
INSERT
  5
E0
102
{ACAD_REACTORS
330
DE
102
}
330
1F
100
AcDbEntity
  8
1
  6
CONTINUOUS
 62
     3
100
AcDbBlockReference
  2
LABLE3D_3
 10
0.0
 20
0.0
 30
0.0
  0
MTEXT
  5
E3
330
1F
100
AcDbEntity
  8
1
  6
CONTINUOUS
 62
     3
100
AcDbMText
 10
19.442307
 20
261.996178
 30
0.0
 40
3.5
 41
0.0
 71
     7
 72
     5
  1
\W00.689;2  (a) Antes contorno poligonal / C. Alvarez / 30/11/2015 
  7
DEFAULT
1001
ACAD
1000
MTEXTBEGIN
1070
    73
1070
     2
1070
    44
1040
0.903614
1000
MTEXTEND
1000
ACAD_MTEXT_DEFINED_HEIGHT_BEGIN
1070
    46
1040
0.2
1000
ACAD_MTEXT_DEFINED_HEIGHT_END
  0
MTEXT
  5
E4
330
1F
100
AcDbEntity
  8
256
  6
CONTINUOUS
 62
     3
100
AcDbMText
 10
106.834347
 20
252.893659
 30
0.0
 40
2.0
 41
0.0
 71
     7
 72
     5
  1
\W00.817;\Q20.000000;MODIFICATIONS\Q0; 
  7
DEFAULT
1001
ACAD
1000
MTEXTBEGIN
1070
    73
1070
     2
1070
    44
1040
0.903614
1000
MTEXTEND
1000
ACAD_MTEXT_DEFINED_HEIGHT_BEGIN
1070
    46
1040
0.2
1000
ACAD_MTEXT_DEFINED_HEIGHT_END
  0
MTEXT
  5
E5
330
1F
100
AcDbEntity
  8
256
  6
CONTINUOUS
 62
     3
100
AcDbMText
 10
58.7503
 20
45.497799
 30
0.0
 40
1.4
 41
0.0
 71
     7
 72
     5
  1
\W00.695;\Q20.000000;It cancels and substitutes the precedents date\Q0; 
  7
DEFAULT
1001
ACAD
1000
MTEXTBEGIN
1070
    73
1070
     2
1070
    44
1040
0.903614
1000
MTEXTEND
1000
ACAD_MTEXT_DEFINED_HEIGHT_BEGIN
1070
    46
1040
0.2
1000
ACAD_MTEXT_DEFINED_HEIGHT_END
  0
MTEXT
  5
E6
330
1F
100
AcDbEntity
  8
256
  6
CONTINUOUS
 62
     3
100
AcDbMText
 10
99.377174
 20
58.908527
 30
0.0
 40
1.7
 41
0.0
 71
     7
 72
     5
  1
\W00.797;50     0,25 
  7
DEFAULT
1001
ACAD
1000
MTEXTBEGIN
1070
    73
1070
     2
1070
    44
1040
0.903614
1000
MTEXTEND
1000
ACAD_MTEXT_DEFINED_HEIGHT_BEGIN
1070
    46
1040
0.2
1000
ACAD_MTEXT_DEFINED_HEIGHT_END
  0
MTEXT
  5
E7
330
1F
100
AcDbEntity
  8
256
  6
CONTINUOUS
 62
     3
100
AcDbMText
 10
116.17134
 20
62.54831
 30
0.0
 40
1.5
 41
0.0
 71
     7
 72
     5
  1
\W00.794;\Q20.000000;DEMOULD\Q0; 
  7
DEFAULT
1001
ACAD
1000
MTEXTBEGIN
1070
    73
1070
     2
1070
    44
1040
0.903614
1000
MTEXTEND
1000
ACAD_MTEXT_DEFINED_HEIGHT_BEGIN
1070
    46
1040
0.2
1000
ACAD_MTEXT_DEFINED_HEIGHT_END
  0
MTEXT
  5
E8
330
1F
100
AcDbEntity
  8
256
  6
CONTINUOUS
 62
     3
100
AcDbMText
 10
15.71949
 20
69.268308
 30
0.0
 40
1.5
 41
0.0
 71
     7
 72
     5
  1
\W00.777;ACABADO / TRATAMIENTO 
  7
DEFAULT
1001
ACAD
1000
MTEXTBEGIN
1070
    73
1070
     2
1070
    44
1040
0.903614
1000
MTEXTEND
1000
ACAD_MTEXT_DEFINED_HEIGHT_BEGIN
1070
    46
1040
0.2
1000
ACAD_MTEXT_DEFINED_HEIGHT_END
  0
MTEXT
  5
E9
330
1F
100
AcDbEntity
  8
256
  6
CONTINUOUS
 62
     3
100
AcDbMText
 10
21.368239
 20
92.056025
 30
0.0
 40
1.7
 41
0.0
 71
     7
 72
     5
  1
\W00.733;PROPIEDAD DE J. FELIU DE LA PENYA, S.L. NO SERA REPRODUCIDO TOTAL O PARCIALMENTE\P NI ENTREGADO A TERCEROS SIN AUTORIZACION ESCRITA\P 
  7
DEFAULT
1001
ACAD
1000
MTEXTBEGIN
1070
    44
1040
0.903614
1000
MTEXTEND
1000
ACAD_MTEXT_DEFINED_HEIGHT_BEGIN
1070
    46
1040
0.2
1000
ACAD_MTEXT_DEFINED_HEIGHT_END
  0
MTEXT
  5
EA
330
1F
100
AcDbEntity
  8
256
  6
CONTINUOUS
 62
     3
100
AcDbMText
 10
115.94083
 20
64.848826
 30
0.0
 40
1.5
 41
0.0
 71
     7
 72
     5
  1
\W00.790;DESMOLDEO 
  7
DEFAULT
1001
ACAD
1000
MTEXTBEGIN
1070
    73
1070
     2
1070
    44
1040
0.903614
1000
MTEXTEND
1000
ACAD_MTEXT_DEFINED_HEIGHT_BEGIN
1070
    46
1040
0.2
1000
ACAD_MTEXT_DEFINED_HEIGHT_END
  0
MTEXT
  5
EB
330
1F
100
AcDbEntity
  8
256
  6
CONTINUOUS
 62
     3
100
AcDbMText
 10
116.17134
 20
53.861182
 30
0.0
 40
1.5
 41
0.0
 71
     7
 72
     5
  1
\W00.784;ESPESOR 
  7
DEFAULT
1001
ACAD
1000
MTEXTBEGIN
1070
    73
1070
     2
1070
    44
1040
0.903614
1000
MTEXTEND
1000
ACAD_MTEXT_DEFINED_HEIGHT_BEGIN
1070
    46
1040
0.2
1000
ACAD_MTEXT_DEFINED_HEIGHT_END
  0
MTEXT
  5
EC
330
1F
100
AcDbEntity
  8
256
  6
CONTINUOUS
 62
     3
100
AcDbMText
 10
95.617997
 20
64.087216
 30
0.0
 40
1.5
 41
0.0
 71
     7
 72
     5
  1
\W00.701;- 
  7
BLOCKFONT
1001
ACAD
1000
MTEXTBEGIN
1070
    73
1070
     2
1070
    44
1040
0.903614
1000
MTEXTEND
1000
ACAD_MTEXT_DEFINED_HEIGHT_BEGIN
1070
    46
1040
0.2
1000
ACAD_MTEXT_DEFINED_HEIGHT_END
  0
MTEXT
  5
EE
330
1F
100
AcDbEntity
  8
256
  6
CONTINUOUS
 62
     3
100
AcDbMText
 10
92.000916
 20
68.556001
 30
0.0
 40
1.7
 41
0.0
 71
     7
 72
     5
  1
\W00.744;0     20     0,1 
  7
DEFAULT
1001
ACAD
1000
MTEXTBEGIN
1070
    73
1070
     2
1070
    44
1040
0.903614
1000
MTEXTEND
1000
ACAD_MTEXT_DEFINED_HEIGHT_BEGIN
1070
    46
1040
0.2
1000
ACAD_MTEXT_DEFINED_HEIGHT_END
  0
MTEXT
  5
EF
330
1F
100
AcDbEntity
  8
256
  6
CONTINUOUS
 62
     3
100
AcDbMText
 10
24.377317
 20
29.687513
 30
0.0
 40
1.5
 41
0.0
 71
     8
 72
     5
  1
\W00.834;\Q20.000000;DATE\Q0; 
  7
DEFAULT
1001
ACAD
1000
MTEXTBEGIN
1070
    73
1070
     2
1070
    44
1040
0.903614
1000
MTEXTEND
1000
ACAD_MTEXT_DEFINED_HEIGHT_BEGIN
1070
    46
1040
0.2
1000
ACAD_MTEXT_DEFINED_HEIGHT_END
  0
MTEXT
  5
F0
330
1F
100
AcDbEntity
  8
255
  6
CONTINUOUS
 62
     3
100
AcDbMText
 10
38.54969
 20
29.669488
 30
0.0
 40
3.0
 41
0.0
 71
     7
 72
     5
  1
\W00.774;09/11/15 
  7
DEFAULT
1001
ACAD
1000
MTEXTBEGIN
1070
    73
1070
     2
1070
    44
1040
0.903614
1000
MTEXTEND
1000
ACAD_MTEXT_DEFINED_HEIGHT_BEGIN
1070
    46
1040
0.2
1000
ACAD_MTEXT_DEFINED_HEIGHT_END
  0
MTEXT
  5
F2
330
1F
100
AcDbEntity
  8
256
  6
CONTINUOUS
 62
     3
100
AcDbMText
 10
104.901997
 20
63.288016
 30
0.0
 40
1.5
 41
0.0
 71
     7
 72
     5
  1
\W00.701;- 
  7
BLOCKFONT
1001
ACAD
1000
MTEXTBEGIN
1070
    73
1070
     2
1070
    44
1040
0.903614
1000
MTEXTEND
1000
ACAD_MTEXT_DEFINED_HEIGHT_BEGIN
1070
    46
1040
0.2
1000
ACAD_MTEXT_DEFINED_HEIGHT_END
  0
MTEXT
  5
F3
330
1F
100
AcDbEntity
  8
256
  6
CONTINUOUS
 62
     3
100
AcDbMText
 10
171.16911
 20
40.224858
 30
0.0
 40
1.5
 41
0.0
 71
     7
 72
     5
  1
\W00.811;\Q20.000000;SUBSTITUTES\Q0; 
  7
DEFAULT
1001
ACAD
1000
MTEXTBEGIN
1070
    73
1070
     2
1070
    44
1040
0.903614
1000
MTEXTEND
1000
ACAD_MTEXT_DEFINED_HEIGHT_BEGIN
1070
    46
1040
0.2
1000
ACAD_MTEXT_DEFINED_HEIGHT_END
  0
MTEXT
  5
F4
330
1F
100
AcDbEntity
  8
256
  6
CONTINUOUS
 62
     3
100
AcDbMText
 10
156.16847
 20
25.078575
 30
0.0
 40
1.5
 41
0.0
 71
     7
 72
     5
  1
\W00.783;CODIGO/ 
  7
DEFAULT
1001
ACAD
1000
MTEXTBEGIN
1070
    73
1070
     2
1070
    44
1040
0.903614
1000
MTEXTEND
1000
ACAD_MTEXT_DEFINED_HEIGHT_BEGIN
1070
    46
1040
0.2
1000
ACAD_MTEXT_DEFINED_HEIGHT_END
  0
MTEXT
  5
F5
330
1F
100
AcDbEntity
  8
256
  6
CONTINUOUS
 62
     3
100
AcDbMText
 10
104.901997
 20
64.558016
 30
0.0
 40
1.5
 41
0.0
 71
     7
 72
     5
  1
\W00.701;+ 
  7
BLOCKFONT
1001
ACAD
1000
MTEXTBEGIN
1070
    73
1070
     2
1070
    44
1040
0.903614
1000
MTEXTEND
1000
ACAD_MTEXT_DEFINED_HEIGHT_BEGIN
1070
    46
1040
0.2
1000
ACAD_MTEXT_DEFINED_HEIGHT_END
  0
MTEXT
  5
F6
330
1F
100
AcDbEntity
  8
256
  6
CONTINUOUS
 62
     3
100
AcDbMText
 10
90.660916
 20
63.876001
 30
0.0
 40
1.7
 41
0.0
 71
     7
 72
     5
  1
\W00.758;20     50     0,15 
  7
DEFAULT
1001
ACAD
1000
MTEXTBEGIN
1070
    73
1070
     2
1070
    44
1040
0.903614
1000
MTEXTEND
1000
ACAD_MTEXT_DEFINED_HEIGHT_BEGIN
1070
    46
1040
0.2
1000
ACAD_MTEXT_DEFINED_HEIGHT_END
  0
MTEXT
  5
F7
330
1F
100
AcDbEntity
  8
256
  6
CONTINUOUS
 62
     3
100
AcDbMText
 10
143.400865
 20
51.338002
 30
0.0
 40
3.0
 41
0.0
 71
     7
 72
     5
  1
\W01.000; 
  7
DEFAULT
1001
ACAD
1000
MTEXTBEGIN
1070
    73
1070
     2
1070
    44
1040
0.903614
1000
MTEXTEND
1000
ACAD_MTEXT_DEFINED_HEIGHT_BEGIN
1070
    46
1040
0.2
1000
ACAD_MTEXT_DEFINED_HEIGHT_END
  0
MTEXT
  5
F8
330
1F
100
AcDbEntity
  8
256
  6
CONTINUOUS
 62
     3
100
AcDbMText
 10
116.17134
 20
57.065014
 30
0.0
 40
1.5
 41
0.0
 71
     7
 72
     5
  1
\W00.818;\Q20.000000;RADIUS\Q0; 
  7
DEFAULT
1001
ACAD
1000
MTEXTBEGIN
1070
    73
1070
     2
1070
    44
1040
0.903614
1000
MTEXTEND
1000
ACAD_MTEXT_DEFINED_HEIGHT_BEGIN
1070
    46
1040
0.2
1000
ACAD_MTEXT_DEFINED_HEIGHT_END
  0
MTEXT
  5
F9
330
1F
100
AcDbEntity
  8
256
  6
CONTINUOUS
 62
     3
100
AcDbMText
 10
59.18386
 20
55.191929
 30
0.0
 40
1.5
 41
0.0
 71
     7
 72
     5
  1
\W00.768;DUREZA/ 
  7
DEFAULT
1001
ACAD
1000
MTEXTBEGIN
1070
    73
1070
     2
1070
    44
1040
0.903614
1000
MTEXTEND
1000
ACAD_MTEXT_DEFINED_HEIGHT_BEGIN
1070
    46
1040
0.2
1000
ACAD_MTEXT_DEFINED_HEIGHT_END
  0
MTEXT
  5
FA
330
1F
100
AcDbEntity
  8
256
  6
CONTINUOUS
 62
     3
100
AcDbMText
 10
24.65774
 20
45.203784
 30
0.0
 40
1.5
 41
0.0
 71
     8
 72
     5
  1
\W00.793;\Q20.000000;PROJECTED\Q0; 
  7
DEFAULT
1001
ACAD
1000
MTEXTBEGIN
1070
    73
1070
     2
1070
    44
1040
0.903614
1000
MTEXTEND
1000
ACAD_MTEXT_DEFINED_HEIGHT_BEGIN
1070
    46
1040
0.2
1000
ACAD_MTEXT_DEFINED_HEIGHT_END
  0
MTEXT
  5
FB
330
1F
100
AcDbEntity
  8
255
  6
CONTINUOUS
 62
     2
100
AcDbMText
 10
60.657403
 20
21.741365
 30
0.0
 40
6.0
 41
0.0
 71
     7
 72
     5
  1
\W00.594;BASE DE MONTAJE LUXCAN LENTE 
  7
DEFAULT
1001
ACAD
1000
MTEXTBEGIN
1070
    73
1070
     2
1070
    44
1040
0.903614
1000
MTEXTEND
1000
ACAD_MTEXT_DEFINED_HEIGHT_BEGIN
1070
    46
1040
0.2
1000
ACAD_MTEXT_DEFINED_HEIGHT_END
  0
MTEXT
  5
FC
330
1F
100
AcDbEntity
  8
256
  6
CONTINUOUS
 62
     3
100
AcDbMText
 10
156.65916
 20
32.604203
 30
0.0
 40
1.5
 41
0.0
 71
     7
 72
     5
  1
\W00.768;SUSTITUIDO POR/ 
  7
DEFAULT
1001
ACAD
1000
MTEXTBEGIN
1070
    73
1070
     2
1070
    44
1040
0.903614
1000
MTEXTEND
1000
ACAD_MTEXT_DEFINED_HEIGHT_BEGIN
1070
    46
1040
0.2
1000
ACAD_MTEXT_DEFINED_HEIGHT_END
  0
MTEXT
  5
FD
330
1F
100
AcDbEntity
  8
256
  6
CONTINUOUS
 62
     3
100
AcDbMText
 10
61.08378
 20
62.058932
 30
0.0
 40
1.7
 41
0.0
 71
     7
 72
     5
  1
\W00.732;ejes/axis\P 
  7
DEFAULT
1001
ACAD
1000
MTEXTBEGIN
1070
    44
1040
0.903614
1000
MTEXTEND
1000
ACAD_MTEXT_DEFINED_HEIGHT_BEGIN
1070
    46
1040
0.2
1000
ACAD_MTEXT_DEFINED_HEIGHT_END
  0
MTEXT
  5
FE
330
1F
100
AcDbEntity
  8
256
  6
CONTINUOUS
 62
     3
100
AcDbMText
 10
83.555666
 20
68.556001
 30
0.0
 40
1.7
 41
0.0
 71
     7
 72
     5
  1
\W01.006;11 
  7
DEFAULT
1001
ACAD
1000
MTEXTBEGIN
1070
    73
1070
     2
1070
    44
1040
0.903614
1000
MTEXTEND
1000
ACAD_MTEXT_DEFINED_HEIGHT_BEGIN
1070
    46
1040
0.2
1000
ACAD_MTEXT_DEFINED_HEIGHT_END
  0
MTEXT
  5
FF
330
1F
100
AcDbEntity
  8
256
  6
CONTINUOUS
 62
     3
100
AcDbMText
 10
25.140186
 20
48.128729
 30
0.0
 40
1.5
 41
0.0
 71
     8
 72
     5
  1
\W00.807;PROYECTADO 
  7
DEFAULT
1001
ACAD
1000
MTEXTBEGIN
1070
    73
1070
     2
1070
    44
1040
0.903614
1000
MTEXTEND
1000
ACAD_MTEXT_DEFINED_HEIGHT_BEGIN
1070
    46
1040
0.2
1000
ACAD_MTEXT_DEFINED_HEIGHT_END
  0
MTEXT
  5
100
330
1F
100
AcDbEntity
  8
256
  6
CONTINUOUS
 62
     3
100
AcDbMText
 10
104.901997
 20
59.718016
 30
0.0
 40
1.5
 41
0.0
 71
     7
 72
     5
  1
\W00.701;+ 
  7
BLOCKFONT
1001
ACAD
1000
MTEXTBEGIN
1070
    73
1070
     2
1070
    44
1040
0.903614
1000
MTEXTEND
1000
ACAD_MTEXT_DEFINED_HEIGHT_BEGIN
1070
    46
1040
0.2
1000
ACAD_MTEXT_DEFINED_HEIGHT_END
  0
MTEXT
  5
101
330
1F
100
AcDbEntity
  8
256
  6
CONTINUOUS
 62
     3
100
AcDbMText
 10
80.914666
 20
68.596001
 30
0.0
 40
1.7
 41
0.0
 71
     7
 72
     5
  1
\W00.930;H 
  7
DEFAULT
1001
ACAD
1000
MTEXTBEGIN
1070
    73
1070
     2
1070
    44
1040
0.903614
1000
MTEXTEND
1000
ACAD_MTEXT_DEFINED_HEIGHT_BEGIN
1070
    46
1040
0.2
1000
ACAD_MTEXT_DEFINED_HEIGHT_END
  0
MTEXT
  5
102
330
1F
100
AcDbEntity
  8
256
  6
CONTINUOUS
 62
     3
100
AcDbMText
 10
66.246514
 20
80.076596
 30
0.0
 40
3.0
 41
0.0
 71
     7
 72
     5
  1
\W01.000; 
  7
DEFAULT
1001
ACAD
1000
MTEXTBEGIN
1070
    73
1070
     2
1070
    44
1040
0.903614
1000
MTEXTEND
1000
ACAD_MTEXT_DEFINED_HEIGHT_BEGIN
1070
    46
1040
0.2
1000
ACAD_MTEXT_DEFINED_HEIGHT_END
  0
MTEXT
  5
103
330
1F
100
AcDbEntity
  8
256
  6
CONTINUOUS
 62
     3
100
AcDbMText
 10
37.271915
 20
25.693186
 30
0.0
 40
1.2
 41
0.0
 71
     7
 72
     5
  1
\W00.815;MODIFIC. 
  7
DEFAULT
1001
ACAD
1000
MTEXTBEGIN
1070
    73
1070
     2
1070
    44
1040
0.903614
1000
MTEXTEND
1000
ACAD_MTEXT_DEFINED_HEIGHT_BEGIN
1070
    46
1040
0.2
1000
ACAD_MTEXT_DEFINED_HEIGHT_END
  0
MTEXT
  5
104
330
1F
100
AcDbEntity
  8
256
  6
CONTINUOUS
 62
     3
100
AcDbMText
 10
83.514666
 20
63.916001
 30
0.0
 40
1.7
 41
0.0
 71
     7
 72
     5
  1
\W01.006;11 
  7
DEFAULT
1001
ACAD
1000
MTEXTBEGIN
1070
    73
1070
     2
1070
    44
1040
0.903614
1000
MTEXTEND
1000
ACAD_MTEXT_DEFINED_HEIGHT_BEGIN
1070
    46
1040
0.2
1000
ACAD_MTEXT_DEFINED_HEIGHT_END
  0
MTEXT
  5
105
330
1F
100
AcDbEntity
  8
256
  6
CONTINUOUS
 62
     3
100
AcDbMText
 10
69.47946
 20
55.126635
 30
0.0
 40
1.5
 41
0.0
 71
     7
 72
     5
  1
\W00.795;\Q20.000000;HARDNESS\Q0; 
  7
DEFAULT
1001
ACAD
1000
MTEXTBEGIN
1070
    73
1070
     2
1070
    44
1040
0.903614
1000
MTEXTEND
1000
ACAD_MTEXT_DEFINED_HEIGHT_BEGIN
1070
    46
1040
0.2
1000
ACAD_MTEXT_DEFINED_HEIGHT_END
  0
MTEXT
  5
106
330
1F
100
AcDbEntity
  8
255
  6
CONTINUOUS
 62
     2
100
AcDbMText
 10
21.342694
 20
12.93072
 30
0.0
 40
6.0
 41
0.0
 71
     7
 72
     5
  1
\W00.928;1:1 
  7
DEFAULT
1001
ACAD
1000
MTEXTBEGIN
1070
    73
1070
     2
1070
    44
1040
0.903614
1000
MTEXTEND
1000
ACAD_MTEXT_DEFINED_HEIGHT_BEGIN
1070
    46
1040
0.2
1000
ACAD_MTEXT_DEFINED_HEIGHT_END
  0
MTEXT
  5
107
330
1F
100
AcDbEntity
  8
256
  6
CONTINUOUS
 62
     3
100
AcDbMText
 10
126.29453
 20
45.38736
 30
0.0
 40
1.4
 41
0.0
 71
     7
 72
     5
  1
\W00.746;\Q20.000000;signature\Q0; 
  7
DEFAULT
1001
ACAD
1000
MTEXTBEGIN
1070
    73
1070
     2
1070
    44
1040
0.903614
1000
MTEXTEND
1000
ACAD_MTEXT_DEFINED_HEIGHT_BEGIN
1070
    46
1040
0.2
1000
ACAD_MTEXT_DEFINED_HEIGHT_END
  0
MTEXT
  5
108
330
1F
100
AcDbEntity
  8
256
  6
CONTINUOUS
 62
     3
100
AcDbMText
 10
116.17134
 20
59.316586
 30
0.0
 40
1.5
 41
0.0
 71
     7
 72
     5
  1
\W00.819;RADIOS 
  7
DEFAULT
1001
ACAD
1000
MTEXTBEGIN
1070
    73
1070
     2
1070
    44
1040
0.903614
1000
MTEXTEND
1000
ACAD_MTEXT_DEFINED_HEIGHT_BEGIN
1070
    46
1040
0.2
1000
ACAD_MTEXT_DEFINED_HEIGHT_END
  0
MTEXT
  5
109
330
1F
100
AcDbEntity
  8
256
  6
CONTINUOUS
 62
     3
100
AcDbMText
 10
59.1176
 20
48.306201
 30
0.0
 40
1.4
 41
0.0
 71
     7
 72
     5
  1
\W00.688;anula y sustituye a los precedentes fecha 
  7
DEFAULT
1001
ACAD
1000
MTEXTBEGIN
1070
    73
1070
     2
1070
    44
1040
0.903614
1000
MTEXTEND
1000
ACAD_MTEXT_DEFINED_HEIGHT_BEGIN
1070
    46
1040
0.2
1000
ACAD_MTEXT_DEFINED_HEIGHT_END
  0
MTEXT
  5
10A
330
1F
100
AcDbEntity
  8
256
  6
CONTINUOUS
 62
     3
100
AcDbMText
 10
104.901997
 20
68.028016
 30
0.0
 40
1.5
 41
0.0
 71
     7
 72
     5
  1
\W00.701;- 
  7
BLOCKFONT
1001
ACAD
1000
MTEXTBEGIN
1070
    73
1070
     2
1070
    44
1040
0.903614
1000
MTEXTEND
1000
ACAD_MTEXT_DEFINED_HEIGHT_BEGIN
1070
    46
1040
0.2
1000
ACAD_MTEXT_DEFINED_HEIGHT_END
  0
MTEXT
  5
10B
330
1F
100
AcDbEntity
  8
256
  6
CONTINUOUS
 62
     3
100
AcDbMText
 10
95.617997
 20
68.747216
 30
0.0
 40
1.5
 41
0.0
 71
     7
 72
     5
  1
\W00.701;- 
  7
BLOCKFONT
1001
ACAD
1000
MTEXTBEGIN
1070
    73
1070
     2
1070
    44
1040
0.903614
1000
MTEXTEND
1000
ACAD_MTEXT_DEFINED_HEIGHT_BEGIN
1070
    46
1040
0.2
1000
ACAD_MTEXT_DEFINED_HEIGHT_END
  0
MTEXT
  5
10C
330
1F
100
AcDbEntity
  8
256
  6
CONTINUOUS
 62
     3
100
AcDbMText
 10
174.51877
 20
32.651717
 30
0.0
 40
1.5
 41
0.0
 71
     7
 72
     5
  1
\W00.778;\Q20.000000;SUBSTITUTED BY\Q0; 
  7
DEFAULT
1001
ACAD
1000
MTEXTBEGIN
1070
    73
1070
     2
1070
    44
1040
0.903614
1000
MTEXTEND
1000
ACAD_MTEXT_DEFINED_HEIGHT_BEGIN
1070
    46
1040
0.2
1000
ACAD_MTEXT_DEFINED_HEIGHT_END
  0
MTEXT
  5
10D
330
1F
100
AcDbEntity
  8
256
  6
CONTINUOUS
 62
     3
100
AcDbMText
 10
35.278503
 20
60.490742
 30
0.0
 40
3.0
 41
0.0
 71
     7
 72
     5
  1
\W01.000; 
  7
DEFAULT
1001
ACAD
1000
MTEXTBEGIN
1070
    73
1070
     2
1070
    44
1040
0.903614
1000
MTEXTEND
1000
ACAD_MTEXT_DEFINED_HEIGHT_BEGIN
1070
    46
1040
0.2
1000
ACAD_MTEXT_DEFINED_HEIGHT_END
  0
MTEXT
  5
10E
330
1F
100
AcDbEntity
  8
256
  6
CONTINUOUS
 62
     3
100
AcDbMText
 10
95.382147
 20
69.798016
 30
0.0
 40
1.5
 41
0.0
 71
     7
 72
     5
  1
\W00.273;. 
  7
BLOCKFONT
1001
ACAD
1000
MTEXTBEGIN
1070
    73
1070
     2
1070
    44
1040
0.903614
1000
MTEXTEND
1000
ACAD_MTEXT_DEFINED_HEIGHT_BEGIN
1070
    46
1040
0.2
1000
ACAD_MTEXT_DEFINED_HEIGHT_END
  0
MTEXT
  5
10F
330
1F
100
AcDbEntity
  8
256
  6
CONTINUOUS
 62
     3
100
AcDbMText
 10
15.6298
 20
66.936464
 30
0.0
 40
1.5
 41
0.0
 71
     7
 72
     5
  1
\W00.757;\Q20.000000;FINISH / TREATMENT\Q0; 
  7
DEFAULT
1001
ACAD
1000
MTEXTBEGIN
1070
    73
1070
     2
1070
    44
1040
0.903614
1000
MTEXTEND
1000
ACAD_MTEXT_DEFINED_HEIGHT_BEGIN
1070
    46
1040
0.2
1000
ACAD_MTEXT_DEFINED_HEIGHT_END
  0
MTEXT
  5
110
330
1F
100
AcDbEntity
  8
255
  6
CONTINUOUS
 62
     3
100
AcDbMText
 10
40.04089
 20
52.115912
 30
0.0
 40
3.0
 41
0.0
 71
     7
 72
     5
  1
\W00.727;C. Alvarez 
  7
DEFAULT
1001
ACAD
1000
MTEXTBEGIN
1070
    73
1070
     2
1070
    44
1040
0.903614
1000
MTEXTEND
1000
ACAD_MTEXT_DEFINED_HEIGHT_BEGIN
1070
    46
1040
0.2
1000
ACAD_MTEXT_DEFINED_HEIGHT_END
  0
MTEXT
  5
111
330
1F
100
AcDbEntity
  8
256
  6
CONTINUOUS
 62
     3
100
AcDbMText
 10
25.209972
 20
37.729159
 30
0.0
 40
3.0
 41
0.0
 71
     8
 72
     5
  1
\W00.693;V.B.  
  7
DEFAULT
1001
ACAD
1000
MTEXTBEGIN
1070
    73
1070
     2
1070
    44
1040
0.903614
1000
MTEXTEND
1000
ACAD_MTEXT_DEFINED_HEIGHT_BEGIN
1070
    46
1040
0.2
1000
ACAD_MTEXT_DEFINED_HEIGHT_END
  0
MTEXT
  5
112
330
1F
100
AcDbEntity
  8
255
  6
CONTINUOUS
 62
     3
100
AcDbMText
 10
39.88392
 20
45.444772
 30
0.0
 40
3.0
 41
0.0
 71
     7
 72
     5
  1
\W00.727;C. Alvarez 
  7
DEFAULT
1001
ACAD
1000
MTEXTBEGIN
1070
    73
1070
     2
1070
    44
1040
0.903614
1000
MTEXTEND
1000
ACAD_MTEXT_DEFINED_HEIGHT_BEGIN
1070
    46
1040
0.2
1000
ACAD_MTEXT_DEFINED_HEIGHT_END
  0
MTEXT
  5
113
330
1F
100
AcDbEntity
  8
256
  6
CONTINUOUS
 62
     3
100
AcDbMText
 10
104.901997
 20
58.448016
 30
0.0
 40
1.5
 41
0.0
 71
     7
 72
     5
  1
\W00.701;- 
  7
BLOCKFONT
1001
ACAD
1000
MTEXTBEGIN
1070
    73
1070
     2
1070
    44
1040
0.903614
1000
MTEXTEND
1000
ACAD_MTEXT_DEFINED_HEIGHT_BEGIN
1070
    46
1040
0.2
1000
ACAD_MTEXT_DEFINED_HEIGHT_END
  0
MTEXT
  5
114
330
1F
100
AcDbEntity
  8
256
  6
CONTINUOUS
 62
     3
100
AcDbMText
 10
23.600858
 20
52.763642
 30
0.0
 40
1.5
 41
0.0
 71
     8
 72
     5
  1
\W00.819;\Q20.000000;DRAWN\Q0; 
  7
DEFAULT
1001
ACAD
1000
MTEXTBEGIN
1070
    73
1070
     2
1070
    44
1040
0.903614
1000
MTEXTEND
1000
ACAD_MTEXT_DEFINED_HEIGHT_BEGIN
1070
    46
1040
0.2
1000
ACAD_MTEXT_DEFINED_HEIGHT_END
  0
MTEXT
  5
115
330
1F
100
AcDbEntity
  8
256
  6
CONTINUOUS
 62
     3
100
AcDbMText
 10
60.954666
 20
68.776001
 30
0.0
 40
1.7
 41
0.0
 71
     7
 72
     5
  1
\W00.735;agujeros/holes 
  7
DEFAULT
1001
ACAD
1000
MTEXTBEGIN
1070
    73
1070
     2
1070
    44
1040
0.903614
1000
MTEXTEND
1000
ACAD_MTEXT_DEFINED_HEIGHT_BEGIN
1070
    46
1040
0.2
1000
ACAD_MTEXT_DEFINED_HEIGHT_END
  0
MTEXT
  5
116
330
1F
100
AcDbEntity
  8
256
  6
CONTINUOUS
 62
     3
100
AcDbMText
 10
59.155
 20
40.400244
 30
0.0
 40
1.5
 41
0.0
 71
     7
 72
     5
  1
\W00.789;DENOMINACION/ 
  7
DEFAULT
1001
ACAD
1000
MTEXTBEGIN
1070
    73
1070
     2
1070
    44
1040
0.903614
1000
MTEXTEND
1000
ACAD_MTEXT_DEFINED_HEIGHT_BEGIN
1070
    46
1040
0.2
1000
ACAD_MTEXT_DEFINED_HEIGHT_END
  0
MTEXT
  5
117
330
1F
100
AcDbEntity
  8
256
  6
CONTINUOUS
 62
     3
100
AcDbMText
 10
28.356613
 20
77.001059
 30
0.0
 40
1.7
 41
0.0
 71
     8
 72
     5
  1
\W00.798;\Q20.000000;COLOUR\Q0; 
  7
DEFAULT
1001
ACAD
1000
MTEXTBEGIN
1070
    73
1070
     2
1070
    44
1040
0.903614
1000
MTEXTEND
1000
ACAD_MTEXT_DEFINED_HEIGHT_BEGIN
1070
    46
1040
0.2
1000
ACAD_MTEXT_DEFINED_HEIGHT_END
  0
MTEXT
  5
118
330
1F
100
AcDbEntity
  8
256
  6
CONTINUOUS
 62
     3
100
AcDbMText
 10
95.382147
 20
65.138016
 30
0.0
 40
1.5
 41
0.0
 71
     7
 72
     5
  1
\W00.273;. 
  7
BLOCKFONT
1001
ACAD
1000
MTEXTBEGIN
1070
    73
1070
     2
1070
    44
1040
0.903614
1000
MTEXTEND
1000
ACAD_MTEXT_DEFINED_HEIGHT_BEGIN
1070
    46
1040
0.2
1000
ACAD_MTEXT_DEFINED_HEIGHT_END
  0
MTEXT
  5
119
330
1F
100
AcDbEntity
  8
256
  6
CONTINUOUS
 62
     3
100
AcDbMText
 10
80.914666
 20
63.906001
 30
0.0
 40
1.7
 41
0.0
 71
     7
 72
     5
  1
\W00.919;h 
  7
DEFAULT
1001
ACAD
1000
MTEXTBEGIN
1070
    73
1070
     2
1070
    44
1040
0.903614
1000
MTEXTEND
1000
ACAD_MTEXT_DEFINED_HEIGHT_BEGIN
1070
    46
1040
0.2
1000
ACAD_MTEXT_DEFINED_HEIGHT_END
  0
MTEXT
  5
11A
330
1F
100
AcDbEntity
  8
256
  6
CONTINUOUS
 62
     3
100
AcDbMText
 10
144.80185
 20
56.431485
 30
0.0
 40
3.5
 41
0.0
 71
     7
 72
     5
  1
\W01.000; 
  7
DEFAULT
1001
ACAD
1000
MTEXTBEGIN
1070
    73
1070
     2
1070
    44
1040
0.903614
1000
MTEXTEND
1000
ACAD_MTEXT_DEFINED_HEIGHT_BEGIN
1070
    46
1040
0.2
1000
ACAD_MTEXT_DEFINED_HEIGHT_END
  0
MTEXT
  5
11B
330
1F
100
AcDbEntity
  8
256
  6
CONTINUOUS
 62
     3
100
AcDbMText
 10
104.901997
 20
69.298016
 30
0.0
 40
1.5
 41
0.0
 71
     7
 72
     5
  1
\W00.701;+ 
  7
BLOCKFONT
1001
ACAD
1000
MTEXTBEGIN
1070
    73
1070
     2
1070
    44
1040
0.903614
1000
MTEXTEND
1000
ACAD_MTEXT_DEFINED_HEIGHT_BEGIN
1070
    46
1040
0.2
1000
ACAD_MTEXT_DEFINED_HEIGHT_END
  0
MTEXT
  5
11C
330
1F
100
AcDbEntity
  8
256
  6
CONTINUOUS
 62
     3
100
AcDbMText
 10
36.379012
 20
72.649
 30
0.0
 40
2.5
 41
0.0
 71
     7
 72
     5
  1
\W01.000; 
  7
DEFAULT
1001
ACAD
1000
MTEXTBEGIN
1070
    73
1070
     2
1070
    44
1040
0.903614
1000
MTEXTEND
1000
ACAD_MTEXT_DEFINED_HEIGHT_BEGIN
1070
    46
1040
0.2
1000
ACAD_MTEXT_DEFINED_HEIGHT_END
  0
MTEXT
  5
11D
330
1F
100
AcDbEntity
  8
256
  6
CONTINUOUS
 62
     3
100
AcDbMText
 10
19.32129
 20
77.090745
 30
0.0
 40
1.7
 41
0.0
 71
     8
 72
     5
  1
\W00.776;COLOR/ 
  7
DEFAULT
1001
ACAD
1000
MTEXTBEGIN
1070
    73
1070
     2
1070
    44
1040
0.903614
1000
MTEXTEND
1000
ACAD_MTEXT_DEFINED_HEIGHT_BEGIN
1070
    46
1040
0.2
1000
ACAD_MTEXT_DEFINED_HEIGHT_END
  0
MTEXT
  5
11E
330
1F
100
AcDbEntity
  8
256
  6
CONTINUOUS
 62
     3
100
AcDbMText
 10
156.65916
 20
40.260901
 30
0.0
 40
1.5
 41
0.0
 71
     7
 72
     5
  1
\W00.776;SUSTITUYE A/ 
  7
DEFAULT
1001
ACAD
1000
MTEXTBEGIN
1070
    73
1070
     2
1070
    44
1040
0.903614
1000
MTEXTEND
1000
ACAD_MTEXT_DEFINED_HEIGHT_BEGIN
1070
    46
1040
0.2
1000
ACAD_MTEXT_DEFINED_HEIGHT_END
  0
MTEXT
  5
11F
330
1F
100
AcDbEntity
  8
256
  6
CONTINUOUS
 62
     3
100
AcDbMText
 10
19.092715
 20
24.484486
 30
0.0
 40
1.5
 41
0.0
 71
     7
 72
     5
  1
\W00.799;ESCALA/ 
  7
DEFAULT
1001
ACAD
1000
MTEXTBEGIN
1070
    73
1070
     2
1070
    44
1040
0.903614
1000
MTEXTEND
1000
ACAD_MTEXT_DEFINED_HEIGHT_BEGIN
1070
    46
1040
0.2
1000
ACAD_MTEXT_DEFINED_HEIGHT_END
  0
MTEXT
  5
120
330
1F
100
AcDbEntity
  8
256
  6
CONTINUOUS
 62
     3
100
AcDbMText
 10
79.094349
 20
76.683737
 30
0.0
 40
1.5
 41
0.0
 71
     7
 72
     5
  1
\W00.769;COTAS SIN TOLERANCIA 
  7
DEFAULT
1001
ACAD
1000
MTEXTBEGIN
1070
    73
1070
     2
1070
    44
1040
0.903614
1000
MTEXTEND
1000
ACAD_MTEXT_DEFINED_HEIGHT_BEGIN
1070
    46
1040
0.2
1000
ACAD_MTEXT_DEFINED_HEIGHT_END
  0
MTEXT
  5
121
330
1F
100
AcDbEntity
  8
256
  6
CONTINUOUS
 62
     3
100
AcDbMText
 10
21.003064
 20
88.849003
 30
0.0
 40
1.5
 41
0.0
 71
     7
 72
     5
  1
\W00.729;\Q20.000000;\Q40.000000;\Q20.000000;PROPERTY OF J. FELIU DE LA PENYA, S.L. IT WILL NOT BE TOTALLY OR PARTIALLY  REPRODUCED\P NOR GIVEN TO THIRDS WITHOUT WRITTEN AUTHORIZATION\Q0;\Q0;\Q0; 
  7
DEFAULT
1001
ACAD
1000
MTEXTBEGIN
1070
    44
1040
0.903614
1000
MTEXTEND
1000
ACAD_MTEXT_DEFINED_HEIGHT_BEGIN
1070
    46
1040
0.2
1000
ACAD_MTEXT_DEFINED_HEIGHT_END
  0
MTEXT
  5
122
330
1F
100
AcDbEntity
  8
256
  6
CONTINUOUS
 62
     3
100
AcDbMText
 10
88.514728
 20
73.783401
 30
0.0
 40
1.5
 41
0.0
 71
     8
 72
     5
  1
\W00.771;\Q20.000000;DIMENSIONS WITHOUT TOLERANCE\Q0; 
  7
DEFAULT
1001
ACAD
1000
MTEXTBEGIN
1070
    73
1070
     2
1070
    44
1040
0.903614
1000
MTEXTEND
1000
ACAD_MTEXT_DEFINED_HEIGHT_BEGIN
1070
    46
1040
0.2
1000
ACAD_MTEXT_DEFINED_HEIGHT_END
  0
MTEXT
  5
123
330
1F
100
AcDbEntity
  8
256
  6
CONTINUOUS
 62
     3
100
AcDbMText
 10
95.402147
 20
64.348016
 30
0.0
 40
1.5
 41
0.0
 71
     7
 72
     5
  1
\W00.273;. 
  7
BLOCKFONT
1001
ACAD
1000
MTEXTBEGIN
1070
    73
1070
     2
1070
    44
1040
0.903614
1000
MTEXTEND
1000
ACAD_MTEXT_DEFINED_HEIGHT_BEGIN
1070
    46
1040
0.2
1000
ACAD_MTEXT_DEFINED_HEIGHT_END
  0
MTEXT
  5
124
330
1F
100
AcDbEntity
  8
256
  6
CONTINUOUS
 62
     3
100
AcDbMText
 10
24.679196
 20
55.275157
 30
0.0
 40
1.5
 41
0.0
 71
     8
 72
     5
  1
\W00.809;DIBUJADO 
  7
DEFAULT
1001
ACAD
1000
MTEXTBEGIN
1070
    73
1070
     2
1070
    44
1040
0.903614
1000
MTEXTEND
1000
ACAD_MTEXT_DEFINED_HEIGHT_BEGIN
1070
    46
1040
0.2
1000
ACAD_MTEXT_DEFINED_HEIGHT_END
  0
MTEXT
  5
125
330
1F
100
AcDbEntity
  8
256
  6
CONTINUOUS
 62
     3
100
AcDbMText
 10
80.864666
 20
60.002635
 30
0.0
 40
1.5
 41
0.0
 71
     7
 72
     5
  1
\W00.925;+ 
  7
DEFAULT
1001
ACAD
1000
MTEXTBEGIN
1070
    73
1070
     2
1070
    44
1040
0.903614
1000
MTEXTEND
1000
ACAD_MTEXT_DEFINED_HEIGHT_BEGIN
1070
    46
1040
0.2
1000
ACAD_MTEXT_DEFINED_HEIGHT_END
  0
MTEXT
  5
126
330
1F
100
AcDbEntity
  8
256
  6
CONTINUOUS
 62
     3
100
AcDbMText
 10
60.884666
 20
59.182635
 30
0.0
 40
1.5
 41
0.0
 71
     7
 72
     5
  1
\W00.730;angular 
  7
DEFAULT
1001
ACAD
1000
MTEXTBEGIN
1070
    73
1070
     2
1070
    44
1040
0.903614
1000
MTEXTEND
1000
ACAD_MTEXT_DEFINED_HEIGHT_BEGIN
1070
    46
1040
0.2
1000
ACAD_MTEXT_DEFINED_HEIGHT_END
  0
MTEXT
  5
127
330
1F
100
AcDbEntity
  8
256
  6
CONTINUOUS
 62
     3
100
AcDbMText
 10
80.864666
 20
58.392635
 30
0.0
 40
1.5
 41
0.0
 71
     7
 72
     5
  1
\W00.612;- 
  7
DEFAULT
1001
ACAD
1000
MTEXTBEGIN
1070
    73
1070
     2
1070
    44
1040
0.903614
1000
MTEXTEND
1000
ACAD_MTEXT_DEFINED_HEIGHT_BEGIN
1070
    46
1040
0.2
1000
ACAD_MTEXT_DEFINED_HEIGHT_END
  0
MTEXT
  5
128
330
1F
100
AcDbEntity
  8
256
  6
CONTINUOUS
 62
     3
100
AcDbMText
 10
78.9728
 20
40.400244
 30
0.0
 40
1.5
 41
0.0
 71
     7
 72
     5
  1
\W00.812;\Q20.000000;DENOMINATION\Q0; 
  7
DEFAULT
1001
ACAD
1000
MTEXTBEGIN
1070
    73
1070
     2
1070
    44
1040
0.903614
1000
MTEXTEND
1000
ACAD_MTEXT_DEFINED_HEIGHT_BEGIN
1070
    46
1040
0.2
1000
ACAD_MTEXT_DEFINED_HEIGHT_END
  0
MTEXT
  5
129
330
1F
100
AcDbEntity
  8
256
  6
CONTINUOUS
 62
     3
100
AcDbMText
 10
116.17134
 20
51.581718
 30
0.0
 40
1.5
 41
0.0
 71
     7
 72
     5
  1
\W00.797;\Q20.000000;THICKNESS\Q0; 
  7
DEFAULT
1001
ACAD
1000
MTEXTBEGIN
1070
    73
1070
     2
1070
    44
1040
0.903614
1000
MTEXTEND
1000
ACAD_MTEXT_DEFINED_HEIGHT_BEGIN
1070
    46
1040
0.2
1000
ACAD_MTEXT_DEFINED_HEIGHT_END
  0
MTEXT
  5
12A
330
1F
100
AcDbEntity
  8
256
  6
CONTINUOUS
 62
     3
100
AcDbMText
 10
166.79999
 20
24.787301
 30
0.0
 40
1.5
 41
0.0
 71
     7
 72
     5
  1
\W00.794;\Q20.000000;CODE\Q0; 
  7
DEFAULT
1001
ACAD
1000
MTEXTBEGIN
1070
    73
1070
     2
1070
    44
1040
0.903614
1000
MTEXTEND
1000
ACAD_MTEXT_DEFINED_HEIGHT_BEGIN
1070
    46
1040
0.2
1000
ACAD_MTEXT_DEFINED_HEIGHT_END
  0
MTEXT
  5
12B
330
1F
100
AcDbEntity
  8
256
  6
CONTINUOUS
 62
     3
100
AcDbMText
 10
126.29453
 20
47.955865
 30
0.0
 40
1.4
 41
0.0
 71
     7
 72
     5
  1
\W00.766;firma 
  7
DEFAULT
1001
ACAD
1000
MTEXTBEGIN
1070
    73
1070
     2
1070
    44
1040
0.903614
1000
MTEXTEND
1000
ACAD_MTEXT_DEFINED_HEIGHT_BEGIN
1070
    46
1040
0.2
1000
ACAD_MTEXT_DEFINED_HEIGHT_END
  0
MTEXT
  5
12C
330
1F
100
AcDbEntity
  8
256
  6
CONTINUOUS
 62
     3
100
AcDbMText
 10
83.555666
 20
58.976001
 30
0.0
 40
1.7
 41
0.0
 71
     7
 72
     5
  1
\W01.402;1 
  7
DEFAULT
1001
ACAD
1000
MTEXTBEGIN
1070
    73
1070
     2
1070
    44
1040
0.903614
1000
MTEXTEND
1000
ACAD_MTEXT_DEFINED_HEIGHT_BEGIN
1070
    46
1040
0.2
1000
ACAD_MTEXT_DEFINED_HEIGHT_END
  0
MTEXT
  5
12D
330
1F
100
AcDbEntity
  8
256
  6
CONTINUOUS
 62
     3
100
AcDbMText
 10
25.568839
 20
82.36733
 30
0.0
 40
1.7
 41
0.0
 71
     8
 72
     5
  1
\W00.809;MATERIAL/\Q20.000000;MATERIAL\Q0;\P                                                                              
  7
DEFAULT
1001
ACAD
1000
MTEXTBEGIN
1070
    44
1040
0.903614
1000
MTEXTEND
1000
ACAD_MTEXT_DEFINED_HEIGHT_BEGIN
1070
    46
1040
0.2
1000
ACAD_MTEXT_DEFINED_HEIGHT_END
  0
MTEXT
  5
12E
330
1F
100
AcDbEntity
  8
256
  6
CONTINUOUS
 62
     2
100
AcDbMText
 10
168.959122
 20
57.84245
 30
0.0
 40
3.5
 41
0.0
 71
     7
 72
     5
  1
\W00.817;METRIC 
  7
DEFAULT
1001
ACAD
1000
MTEXTBEGIN
1070
    73
1070
     2
1070
    44
1040
0.903614
1000
MTEXTEND
1000
ACAD_MTEXT_DEFINED_HEIGHT_BEGIN
1070
    46
1040
0.2
1000
ACAD_MTEXT_DEFINED_HEIGHT_END
  0
MTEXT
  5
12F
330
1F
100
AcDbEntity
  8
256
  6
CONTINUOUS
 62
     3
100
AcDbMText
 10
24.733524
 20
32.781205
 30
0.0
 40
1.5
 41
0.0
 71
     8
 72
     5
  1
\W00.802;FECHA 
  7
DEFAULT
1001
ACAD
1000
MTEXTBEGIN
1070
    73
1070
     2
1070
    44
1040
0.903614
1000
MTEXTEND
1000
ACAD_MTEXT_DEFINED_HEIGHT_BEGIN
1070
    46
1040
0.2
1000
ACAD_MTEXT_DEFINED_HEIGHT_END
  0
MTEXT
  5
130
330
1F
100
AcDbEntity
  8
256
  6
CONTINUOUS
 62
     3
100
AcDbMText
 10
95.402147
 20
69.008016
 30
0.0
 40
1.5
 41
0.0
 71
     7
 72
     5
  1
\W00.273;. 
  7
BLOCKFONT
1001
ACAD
1000
MTEXTBEGIN
1070
    73
1070
     2
1070
    44
1040
0.903614
1000
MTEXTEND
1000
ACAD_MTEXT_DEFINED_HEIGHT_BEGIN
1070
    46
1040
0.2
1000
ACAD_MTEXT_DEFINED_HEIGHT_END
  0
MTEXT
  5
131
330
1F
100
AcDbEntity
  8
1
  6
CONTINUOUS
 62
     2
100
AcDbMText
 10
173.46299
 20
15.317748
 30
0.0
 40
3.5
 41
0.0
 71
     7
 72
     5
  1
\W01.000; 
  7
DEFAULT
1001
ACAD
1000
MTEXTBEGIN
1070
    73
1070
     2
1070
    44
1040
0.903614
1000
MTEXTEND
1000
ACAD_MTEXT_DEFINED_HEIGHT_BEGIN
1070
    46
1040
0.2
1000
ACAD_MTEXT_DEFINED_HEIGHT_END
  0
MTEXT
  5
132
330
1F
100
AcDbEntity
  8
1
  6
CONTINUOUS
 62
     3
100
AcDbMText
 10
157.347499
 20
15.832209
 30
0.0
 40
3.5
 41
0.0
 71
     7
 72
     5
  1
\W00.787;101523.1418.000 
  7
DEFAULT
1001
ACAD
1000
MTEXTBEGIN
1070
    73
1070
     2
1070
    44
1040
0.903614
1000
MTEXTEND
1000
ACAD_MTEXT_DEFINED_HEIGHT_BEGIN
1070
    46
1040
0.2
1000
ACAD_MTEXT_DEFINED_HEIGHT_END
  0
MTEXT
  5
133
330
1F
100
AcDbEntity
  8
1
  6
CONTINUOUS
 62
     3
100
AcDbMText
 10
67.881601
 20
81.351708
 30
0.0
 40
3.5
 41
0.0
 71
     7
 72
     5
  1
\W00.781;Aluminio 
  7
DEFAULT
1001
ACAD
1000
MTEXTBEGIN
1070
    73
1070
     2
1070
    44
1040
0.903614
1000
MTEXTEND
1000
ACAD_MTEXT_DEFINED_HEIGHT_BEGIN
1070
    46
1040
0.2
1000
ACAD_MTEXT_DEFINED_HEIGHT_END
  0
MTEXT
  5
134
330
1F
100
AcDbEntity
  8
1
  6
CONTINUOUS
 62
     3
100
AcDbMText
 10
20.579833
 20
129.377372
 30
0.0
 40
3.5
 41
0.0
 71
     7
 72
     5
  1
\W00.834;4a 
  7
DEFAULT
1001
ACAD
1000
MTEXTBEGIN
1070
    73
1070
     2
1070
    44
1040
0.903614
1000
MTEXTEND
1000
ACAD_MTEXT_DEFINED_HEIGHT_BEGIN
1070
    46
1040
0.2
1000
ACAD_MTEXT_DEFINED_HEIGHT_END
  0
MTEXT
  5
135
330
1F
100
AcDbEntity
  8
1
  6
CONTINUOUS
 62
     3
100
AcDbMText
 10
161.028506
 20
118.156951
 30
0.0
 40
3.5
 41
0.0
 71
     7
 72
     5
  1
\W00.834;4a 
  7
DEFAULT
1001
ACAD
1000
MTEXTBEGIN
1070
    73
1070
     2
1070
    44
1040
0.903614
1000
MTEXTEND
1000
ACAD_MTEXT_DEFINED_HEIGHT_BEGIN
1070
    46
1040
0.2
1000
ACAD_MTEXT_DEFINED_HEIGHT_END
  0
MTEXT
  5
136
330
1F
100
AcDbEntity
  8
1
  6
CONTINUOUS
 62
     3
100
AcDbMText
 10
19.47411
 20
256.833876
 30
0.0
 40
3.5
 41
0.0
 71
     7
 72
     5
  1
\W00.688;1  (a) Antes 1,6 / C. Alvarez / 12/11/2015 
  7
DEFAULT
1001
ACAD
1000
MTEXTBEGIN
1070
    73
1070
     2
1070
    44
1040
0.903614
1000
MTEXTEND
1000
ACAD_MTEXT_DEFINED_HEIGHT_BEGIN
1070
    46
1040
0.2
1000
ACAD_MTEXT_DEFINED_HEIGHT_END
  0
MTEXT
  5
137
330
1F
100
AcDbEntity
  8
1
  6
CONTINUOUS
 62
     3
100
AcDbMText
 10
48.975246
 20
22.073729
 30
0.0
 40
3.5
 41
0.0
 71
     7
 72
     5
  1
\W01.402;1 
  7
DEFAULT
1001
ACAD
1000
MTEXTBEGIN
1070
    73
1070
     2
1070
    44
1040
0.903614
1000
MTEXTEND
1000
ACAD_MTEXT_DEFINED_HEIGHT_BEGIN
1070
    46
1040
0.2
1000
ACAD_MTEXT_DEFINED_HEIGHT_END
  0
MTEXT
  5
138
330
1F
100
AcDbEntity
  8
1
  6
CONTINUOUS
 62
     3
100
AcDbMText
 10
99.818709
 20
44.985376
 30
0.0
 40
3.5
 41
0.0
 71
     7
 72
     5
  1
\W00.776;22/11/16 
  7
DEFAULT
1001
ACAD
1000
MTEXTBEGIN
1070
    73
1070
     2
1070
    44
1040
0.903614
1000
MTEXTEND
1000
ACAD_MTEXT_DEFINED_HEIGHT_BEGIN
1070
    46
1040
0.2
1000
ACAD_MTEXT_DEFINED_HEIGHT_END
  0
MTEXT
  5
139
330
1F
100
AcDbEntity
  8
1
  6
CONTINUOUS
 62
     3
100
AcDbMText
 10
135.658982
 20
44.570169
 30
0.0
 40
3.5
 41
0.0
 71
     7
 72
     5
  1
\W00.727;C. Alvarez 
  7
DEFAULT
1001
ACAD
1000
MTEXTBEGIN
1070
    73
1070
     2
1070
    44
1040
0.903614
1000
MTEXTEND
1000
ACAD_MTEXT_DEFINED_HEIGHT_BEGIN
1070
    46
1040
0.2
1000
ACAD_MTEXT_DEFINED_HEIGHT_END
  0
MTEXT
  5
13A
330
1F
100
AcDbEntity
  8
1
  6
CONTINUOUS
 62
     3
100
AcDbMText
 10
54.344805
 20
21.926611
 30
0.0
 40
3.5
 41
0.0
 71
     7
 72
     5
  1
\W00.907;2 
  7
DEFAULT
1001
ACAD
1000
MTEXTBEGIN
1070
    73
1070
     2
1070
    44
1040
0.903614
1000
MTEXTEND
1000
ACAD_MTEXT_DEFINED_HEIGHT_BEGIN
1070
    46
1040
0.2
1000
ACAD_MTEXT_DEFINED_HEIGHT_END
  0
MTEXT
  5
13B
330
1F
100
AcDbEntity
  8
1
  6
CONTINUOUS
 62
     3
100
AcDbMText
 10
19.392619
 20
266.742306
 30
0.0
 40
3.5
 41
0.0
 71
     7
 72
     5
  1
\W00.693;3  (a) Antes 102,5 / C. Alvarez / 07/01/2016 
  7
DEFAULT
1001
ACAD
1000
MTEXTBEGIN
1070
    73
1070
     2
1070
    44
1040
0.903614
1000
MTEXTEND
1000
ACAD_MTEXT_DEFINED_HEIGHT_BEGIN
1070
    46
1040
0.2
1000
ACAD_MTEXT_DEFINED_HEIGHT_END
  0
MTEXT
  5
13C
330
1F
100
AcDbEntity
  8
1
  6
CONTINUOUS
 62
     3
100
AcDbMText
 10
33.127939
 20
196.772385
 30
0.0
 40
3.5
 41
0.0
 71
     7
 72
     5
  1
\W00.834;3a 
  7
DEFAULT
1001
ACAD
1000
MTEXTBEGIN
1070
    73
1070
     2
1070
    44
1040
0.903614
1000
MTEXTEND
1000
ACAD_MTEXT_DEFINED_HEIGHT_BEGIN
1070
    46
1040
0.2
1000
ACAD_MTEXT_DEFINED_HEIGHT_END
  0
MTEXT
  5
13D
330
1F
100
AcDbEntity
  8
1
  6
CONTINUOUS
 62
     3
100
AcDbMText
 10
38.377545
 20
15.893107
 30
0.0
 40
3.5
 41
0.0
 71
     7
 72
     5
  1
\W00.907;3 
  7
DEFAULT
1001
ACAD
1000
MTEXTBEGIN
1070
    73
1070
     2
1070
    44
1040
0.903614
1000
MTEXTEND
1000
ACAD_MTEXT_DEFINED_HEIGHT_BEGIN
1070
    46
1040
0.2
1000
ACAD_MTEXT_DEFINED_HEIGHT_END
  0
MTEXT
  5
13E
330
1F
100
AcDbEntity
  8
1
  6
CONTINUOUS
 62
     3
100
AcDbMText
 10
43.365333
 20
15.727425
 30
0.0
 40
3.5
 41
0.0
 71
     7
 72
     5
  1
\W00.857;4 
  7
DEFAULT
1001
ACAD
1000
MTEXTBEGIN
1070
    73
1070
     2
1070
    44
1040
0.903614
1000
MTEXTEND
1000
ACAD_MTEXT_DEFINED_HEIGHT_BEGIN
1070
    46
1040
0.2
1000
ACAD_MTEXT_DEFINED_HEIGHT_END
  0
MTEXT
  5
13F
330
1F
100
AcDbEntity
  8
1
  6
CONTINUOUS
 62
     3
100
AcDbMText
 10
19.356834
 20
272.015448
 30
0.0
 40
3.5
 41
0.0
 71
     7
 72
     5
  1
\W00.686;4  (a) Antes 2 / C. Alvarez / 03/02/2016 
  7
DEFAULT
1001
ACAD
1000
MTEXTBEGIN
1070
    73
1070
     2
1070
    44
1040
0.903614
1000
MTEXTEND
1000
ACAD_MTEXT_DEFINED_HEIGHT_BEGIN
1070
    46
1040
0.2
1000
ACAD_MTEXT_DEFINED_HEIGHT_END
  0
MTEXT
  5
140
330
1F
100
AcDbEntity
  8
1
  6
CONTINUOUS
 62
     3
100
AcDbMText
 10
19.580627
 20
276.68487
 30
0.0
 40
3.5
 41
0.0
 71
     7
 72
     5
  1
\W00.691;5  (a) Antes posicin taladros rectangulares no alineada / C. Alvarez / 22/11/2016 
  7
DEFAULT
1001
ACAD
1000
MTEXTBEGIN
1070
    73
1070
     2
1070
    44
1040
0.903614
1000
MTEXTEND
1000
ACAD_MTEXT_DEFINED_HEIGHT_BEGIN
1070
    46
1040
0.2
1000
ACAD_MTEXT_DEFINED_HEIGHT_END
  0
MTEXT
  5
141
330
1F
100
AcDbEntity
  8
1
  6
CONTINUOUS
 62
     3
100
AcDbMText
 10
48.91229
 20
16.176374
 30
0.0
 40
3.5
 41
0.0
 71
     7
 72
     5
  1
\W00.907;5 
  7
DEFAULT
1001
ACAD
1000
MTEXTBEGIN
1070
    73
1070
     2
1070
    44
1040
0.903614
1000
MTEXTEND
1000
ACAD_MTEXT_DEFINED_HEIGHT_BEGIN
1070
    46
1040
0.2
1000
ACAD_MTEXT_DEFINED_HEIGHT_END
  0
SPLINE
  5
142
330
1F
100
AcDbEntity
  8
1
  6
CENTER
 62
     3
100
AcDbSpline
210
0.0
220
0.0
230
1.0
 70
    24
 71
     1
 72
     5
 73
     3
 74
     0
 42
0.000000001
 43
0.0000000001
 40
0.0
 40
0.0
 40
0.2343750000000009
 40
1.0
 40
1.0
 10
58.96453595348837
 20
164.1469127716094
 30
0.0
 10
73.96453595348845
 20
164.1469127716105
 30
0.0
 10
122.9645359534885
 20
164.1469127716105
 30
0.0
  0
DIMENSION
  5
14B
330
1F
100
AcDbEntity
  8
1
  6
CONTINUOUS
 62
     3
100
AcDbDimension
  2
DIMNDRAFT3D1
 10
65.483458
 20
173.076286
 30
0.0
 11
22.740303
 21
169.090631
 31
0.0
 70
   163
  1
\C3;%%c 3,6
  3
STANDARD
100
AcDbDiametricDimension
 15
61.926153
 25
172.523491
 35
0.0
 40
0.0
1001
ACAD
1000
DSTYLE
1002
{
1070
   287
1070
     3
1070
     7
1000

1070
     6
1000

1070
   172
1070
     1
1070
   279
1070
     0
1070
   173
1070
     1
1070
   340
1005
D0
1070
    75
1070
     1
1070
    76
1070
     1
1070
   271
1070
     1
1070
   272
1070
     2
1070
    77
1070
     1
1070
    73
1070
     0
1070
   171
1070
     3
1070
   274
1070
     4
1070
   177
1070
     3
1070
   176
1070
     3
1070
   178
1070
     3
1070
    48
1040
-0.005
1070
    41
1041
3.5
1070
   147
1041
1.75
1070
    42
1041
0.0
1070
    44
1041
2.0
1070
   140
1041
3.5
1002
}
  0
DIMENSION
  5
154
330
1F
100
AcDbEntity
  8
1
  6
CONTINUOUS
 62
     3
100
AcDbDimension
  2
DIMNDRAFT3D2
 10
80.25547
 20
186.238938
 30
0.0
 11
36.274535
 21
212.413415
 31
0.0
 70
   163
  1
\C3;%%c 2,6
  3
STANDARD
100
AcDbDiametricDimension
 15
77.955947
 25
187.452278
 35
0.0
 40
0.0
1001
ACAD
1000
DSTYLE
1002
{
1070
   287
1070
     3
1070
     7
1000

1070
     6
1000

1070
   172
1070
     1
1070
   279
1070
     0
1070
   173
1070
     1
1070
   340
1005
D0
1070
    75
1070
     1
1070
    76
1070
     1
1070
   271
1070
     1
1070
   272
1070
     2
1070
    77
1070
     1
1070
    73
1070
     0
1070
   171
1070
     3
1070
   274
1070
     4
1070
   177
1070
     3
1070
   176
1070
     3
1070
   178
1070
     3
1070
    48
1040
-0.005
1070
    41
1041
3.5
1070
   147
1041
1.75
1070
    42
1041
0.0
1070
    44
1041
2.0
1070
   140
1041
3.5
1002
}
  0
DIMENSION
  5
15E
330
1F
100
AcDbEntity
  8
1
  6
CONTINUOUS
 62
     3
100
AcDbDimension
  2
DIMNDRAFT3D3
 10
73.964536
 20
228.539718
 30
0.0
 11
54.595635
 21
228.539718
 31
0.0
 70
   160
  1
\C3;10
  3
STANDARD
100
AcDbAlignedDimension
 13
63.964536
 23
163.053667
 33
0.0
 14
73.964536
 24
163.053667
 34
0.0
100
AcDbRotatedDimension
1001
ACAD
1000
DSTYLE
1002
{
1070
   287
1070
     3
1070
     7
1000

1070
     6
1000

1070
   279
1070
     0
1070
   172
1070
     1
1070
   173
1070
     1
1070
   340
1005
D0
1070
   271
1070
     0
1070
   272
1070
     2
1070
    77
1070
     1
1070
    73
1070
     0
1070
   171
1070
     3
1070
   274
1070
     4
1070
   177
1070
     3
1070
   176
1070
     3
1070
   178
1070
     3
1070
    48
1040
-0.005
1070
    41
1041
3.5
1070
   147
1041
1.75
1070
    42
1041
0.0
1070
    44
1041
2.0
1070
   140
1041
3.5
1002
}
  0
DIMENSION
  5
167
330
1F
100
AcDbEntity
  8
1
  6
CONTINUOUS
 62
     3
100
AcDbDimension
  2
DIMNDRAFT3D4
 10
83.007502
 20
163.183944
 30
0.0
 11
31.64054
 21
125.562393
 31
0.0
 70
   163
  1
\C3;%%c 2,6
  3
STANDARD
100
AcDbDiametricDimension
 15
80.975044
 25
161.56249
 35
0.0
 40
0.0
1001
ACAD
1000
DSTYLE
1002
{
1070
   287
1070
     3
1070
     7
1000

1070
     6
1000

1070
   172
1070
     1
1070
   279
1070
     0
1070
   173
1070
     1
1070
   340
1005
D0
1070
    75
1070
     1
1070
    76
1070
     1
1070
   271
1070
     1
1070
   272
1070
     2
1070
    77
1070
     1
1070
    73
1070
     0
1070
   171
1070
     3
1070
   274
1070
     4
1070
   177
1070
     3
1070
   176
1070
     3
1070
   178
1070
     3
1070
    48
1040
-0.005
1070
    41
1041
3.5
1070
   147
1041
1.75
1070
    42
1041
0.0
1070
    44
1041
2.0
1070
   140
1041
3.5
1002
}
  0
DIMENSION
  5
170
330
1F
100
AcDbEntity
  8
1
  6
CONTINUOUS
 62
     3
100
AcDbDimension
  2
DIMNDRAFT3D5
 10
99.921496
 20
183.949873
 30
0.0
 11
61.35199
 21
217.151597
 31
0.0
 70
   163
  1
\C3;%%c 2,6
  3
STANDARD
100
AcDbDiametricDimension
 15
97.866152
 25
185.542218
 35
0.0
 40
0.0
1001
ACAD
1000
DSTYLE
1002
{
1070
   287
1070
     3
1070
     7
1000

1070
     6
1000

1070
   172
1070
     1
1070
   279
1070
     0
1070
   173
1070
     1
1070
   340
1005
D0
1070
    75
1070
     1
1070
    76
1070
     1
1070
   271
1070
     1
1070
   272
1070
     2
1070
    77
1070
     1
1070
    73
1070
     0
1070
   171
1070
     3
1070
   274
1070
     4
1070
   177
1070
     3
1070
   176
1070
     3
1070
   178
1070
     3
1070
    48
1040
-0.005
1070
    41
1041
3.5
1070
   147
1041
1.75
1070
    42
1041
0.0
1070
    44
1041
2.0
1070
   140
1041
3.5
1002
}
  0
DIMENSION
  5
17A
330
1F
100
AcDbEntity
  8
1
  6
CONTINUOUS
 62
     3
100
AcDbDimension
  2
DIMNDRAFT3D6
 10
179.304112
 20
107.38853
 30
0.0
 11
191.486897
 21
107.38853
 31
0.0
 70
   160
  1
\C3;3
  3
STANDARD
100
AcDbAlignedDimension
 13
182.304112
 23
116.017045
 33
0.0
 14
179.304112
 24
116.017045
 34
0.0
100
AcDbRotatedDimension
1001
ACAD
1000
DSTYLE
1002
{
1070
   287
1070
     3
1070
     7
1000

1070
     6
1000

1070
   279
1070
     0
1070
   172
1070
     1
1070
   173
1070
     1
1070
   340
1005
D0
1070
   271
1070
     0
1070
   272
1070
     2
1070
    77
1070
     1
1070
    73
1070
     0
1070
   171
1070
     3
1070
   274
1070
     4
1070
   177
1070
     3
1070
   176
1070
     3
1070
   178
1070
     3
1070
    48
1040
-0.005
1070
    41
1041
3.5
1070
   147
1041
1.75
1070
    42
1041
0.0
1070
    44
1041
2.0
1070
   140
1041
3.5
1002
}
  0
DIMENSION
  5
184
330
1F
100
AcDbEntity
  8
1
  6
CONTINUOUS
 62
     3
100
AcDbDimension
  2
DIMNDRAFT3D7
 10
116.607209
 20
105.896576
 30
0.0
 11
101.60778
 21
105.896576
 31
0.0
 70
   160
  1
\C3;30
  3
STANDARD
100
AcDbAlignedDimension
 13
86.608351
 23
137.941911
 33
0.0
 14
116.607209
 24
138.203707
 34
0.0
100
AcDbRotatedDimension
1001
ACAD
1000
DSTYLE
1002
{
1070
   287
1070
     3
1070
     7
1000

1070
     6
1000

1070
   279
1070
     0
1070
   172
1070
     1
1070
   173
1070
     1
1070
   340
1005
D0
1070
   271
1070
     0
1070
   272
1070
     2
1070
    77
1070
     1
1070
    73
1070
     0
1070
   171
1070
     3
1070
   274
1070
     4
1070
   177
1070
     3
1070
   176
1070
     3
1070
   178
1070
     3
1070
    48
1040
-0.005
1070
    41
1041
3.5
1070
   147
1041
1.75
1070
    42
1041
0.0
1070
    44
1041
2.0
1070
   140
1041
3.5
1002
}
  0
DIMENSION
  5
18E
330
1F
100
AcDbEntity
  8
1
  6
CONTINUOUS
 62
     3
100
AcDbDimension
  2
DIMNDRAFT3D8
 10
107.499875
 20
228.539718
 30
0.0
 11
100.08786
 21
228.539718
 31
0.0
 70
   160
  1
\C3;10
  3
STANDARD
100
AcDbAlignedDimension
 13
117.499875
 23
165.240158
 33
0.0
 14
107.499875
 24
165.240158
 34
0.0
100
AcDbRotatedDimension
1001
ACAD
1000
DSTYLE
1002
{
1070
   287
1070
     3
1070
     7
1000

1070
     6
1000

1070
   279
1070
     0
1070
   172
1070
     1
1070
   173
1070
     1
1070
   340
1005
D0
1070
   271
1070
     0
1070
   272
1070
     2
1070
    77
1070
     1
1070
    73
1070
     0
1070
   171
1070
     3
1070
   274
1070
     4
1070
   177
1070
     3
1070
   176
1070
     3
1070
   178
1070
     3
1070
    48
1040
-0.005
1070
    41
1041
3.5
1070
   147
1041
1.75
1070
    42
1041
0.0
1070
    44
1041
2.0
1070
   140
1041
3.5
1002
}
  0
DIMENSION
  5
197
330
1F
100
AcDbEntity
  8
1
  6
CONTINUOUS
 62
     3
100
AcDbDimension
  2
DIMNDRAFT3D9
 10
127.685569
 20
176.398688
 30
0.0
 11
162.107681
 21
185.61797
 31
0.0
 70
   163
  1
\C3;%%c 3,6
  3
STANDARD
100
AcDbDiametricDimension
 15
131.222165
 25
177.071363
 35
0.0
 40
0.0
1001
ACAD
1000
DSTYLE
1002
{
1070
   287
1070
     3
1070
     7
1000

1070
     6
1000

1070
   172
1070
     1
1070
   279
1070
     0
1070
   173
1070
     1
1070
   340
1005
D0
1070
    75
1070
     1
1070
    76
1070
     1
1070
   271
1070
     1
1070
   272
1070
     2
1070
    77
1070
     1
1070
    73
1070
     0
1070
   171
1070
     3
1070
   274
1070
     4
1070
   177
1070
     3
1070
   176
1070
     3
1070
   178
1070
     3
1070
    48
1040
-0.005
1070
    41
1041
3.5
1070
   147
1041
1.75
1070
    42
1041
0.0
1070
    44
1041
2.0
1070
   140
1041
3.5
1002
}
  0
DIMENSION
  5
1A0
330
1F
100
AcDbEntity
  8
1
  6
CONTINUOUS
 62
     3
100
AcDbDimension
  2
DIMNDRAFT3D10
 10
91.689022
 20
180.478999
 30
0.0
 11
57.421915
 21
210.309631
 31
0.0
 70
   163
  1
\C3;%%c 6
  3
STANDARD
100
AcDbDiametricDimension
 15
86.943496
 25
184.150509
 35
0.0
 40
0.0
1001
ACAD
1000
DSTYLE
1002
{
1070
   287
1070
     3
1070
     7
1000

1070
     6
1000

1070
   172
1070
     1
1070
   279
1070
     0
1070
   173
1070
     1
1070
   340
1005
D0
1070
    75
1070
     1
1070
    76
1070
     1
1070
   271
1070
     0
1070
   272
1070
     2
1070
    77
1070
     1
1070
    73
1070
     0
1070
   171
1070
     3
1070
   274
1070
     4
1070
   177
1070
     3
1070
   176
1070
     3
1070
   178
1070
     3
1070
    48
1040
-0.005
1070
    41
1041
3.5
1070
   147
1041
1.75
1070
    42
1041
0.0
1070
    44
1041
2.0
1070
   140
1041
3.5
1002
}
  0
DIMENSION
  5
1A9
330
1F
100
AcDbEntity
  8
1
  6
CONTINUOUS
 62
     3
100
AcDbDimension
  2
DIMNDRAFT3D11
 10
106.816242
 20
154.337026
 30
0.0
 11
133.817297
 21
115.63854
 31
0.0
 70
   163
  1
\C3;%%c 6
  3
STANDARD
100
AcDbDiametricDimension
 15
109.970463
 25
149.233019
 35
0.0
 40
0.0
1001
ACAD
1000
DSTYLE
1002
{
1070
   287
1070
     3
1070
     7
1000

1070
     6
1000

1070
   172
1070
     1
1070
   279
1070
     0
1070
   173
1070
     1
1070
   340
1005
D0
1070
    75
1070
     1
1070
    76
1070
     1
1070
   271
1070
     0
1070
   272
1070
     2
1070
    77
1070
     1
1070
    73
1070
     0
1070
   171
1070
     3
1070
   274
1070
     4
1070
   177
1070
     3
1070
   176
1070
     3
1070
   178
1070
     3
1070
    48
1040
-0.005
1070
    41
1041
3.5
1070
   147
1041
1.75
1070
    42
1041
0.0
1070
    44
1041
2.0
1070
   140
1041
3.5
1002
}
  0
DIMENSION
  5
1B2
330
1F
100
AcDbEntity
  8
1
  6
CONTINUOUS
 62
     3
100
AcDbDimension
  2
DIMNDRAFT3D12
 10
74.669479
 20
141.332308
 30
0.0
 11
52.566452
 21
131.064477
 31
0.0
 70
   163
  1
\C3;%%c 10
  3
STANDARD
100
AcDbDiametricDimension
 15
66.10682
 25
136.166955
 35
0.0
 40
0.0
1001
ACAD
1000
DSTYLE
1002
{
1070
   287
1070
     3
1070
     7
1000

1070
     6
1000

1070
   172
1070
     1
1070
   279
1070
     0
1070
   173
1070
     1
1070
   340
1005
D0
1070
    75
1070
     1
1070
    76
1070
     1
1070
   271
1070
     0
1070
   272
1070
     2
1070
    77
1070
     1
1070
    73
1070
     0
1070
   171
1070
     3
1070
   274
1070
     4
1070
   177
1070
     3
1070
   176
1070
     3
1070
   178
1070
     3
1070
    48
1040
-0.005
1070
    41
1041
3.5
1070
   147
1041
1.75
1070
    42
1041
0.0
1070
    44
1041
2.0
1070
   140
1041
3.5
1002
}
  0
DIMENSION
  5
1BB
330
1F
100
AcDbEntity
  8
1
  6
CONTINUOUS
 62
     3
100
AcDbDimension
  2
DIMNDRAFT3D13
 10
99.945058
 20
150.510838
 30
0.0
 11
56.27039
 21
121.982899
 31
0.0
 70
   163
  1
\C3;%%c 2,6
  3
STANDARD
100
AcDbDiametricDimension
 15
97.84259
 25
148.981253
 35
0.0
 40
0.0
1001
ACAD
1000
DSTYLE
1002
{
1070
   287
1070
     3
1070
     7
1000

1070
     6
1000

1070
   172
1070
     1
1070
   279
1070
     0
1070
   173
1070
     1
1070
   340
1005
D0
1070
    75
1070
     1
1070
    76
1070
     1
1070
   271
1070
     1
1070
   272
1070
     2
1070
    77
1070
     1
1070
    73
1070
     0
1070
   171
1070
     3
1070
   274
1070
     4
1070
   177
1070
     3
1070
   176
1070
     3
1070
   178
1070
     3
1070
    48
1040
-0.005
1070
    41
1041
3.5
1070
   147
1041
1.75
1070
    42
1041
0.0
1070
    44
1041
2.0
1070
   140
1041
3.5
1002
}
  0
DIMENSION
  5
1C4
330
1F
100
AcDbEntity
  8
1
  6
CONTINUOUS
 62
     3
100
AcDbDimension
  2
DIMNDRAFT3D14
 10
117.9147
 20
148.280826
 30
0.0
 11
150.058164
 21
110.513401
 31
0.0
 70
   163
  1
\C3;%%c 2,6
  3
STANDARD
100
AcDbDiametricDimension
 15
119.492677
 25
146.214431
 35
0.0
 40
0.0
1001
ACAD
1000
DSTYLE
1002
{
1070
   287
1070
     3
1070
     7
1000

1070
     6
1000

1070
   172
1070
     1
1070
   279
1070
     0
1070
   173
1070
     1
1070
   340
1005
D0
1070
    75
1070
     1
1070
    76
1070
     1
1070
   271
1070
     1
1070
   272
1070
     2
1070
    77
1070
     1
1070
    73
1070
     0
1070
   171
1070
     3
1070
   274
1070
     4
1070
   177
1070
     3
1070
   176
1070
     3
1070
   178
1070
     3
1070
    48
1040
-0.005
1070
    41
1041
3.5
1070
   147
1041
1.75
1070
    42
1041
0.0
1070
    44
1041
2.0
1070
   140
1041
3.5
1002
}
  0
DIMENSION
  5
1CD
330
1F
100
AcDbEntity
  8
1
  6
CONTINUOUS
 62
     3
100
AcDbDimension
  2
DIMNDRAFT3D15
 10
78.037589
 20
167.589355
 30
0.0
 11
22.329411
 21
145.066017
 31
0.0
 70
   163
  1
\C3;%%c 2,6
  3
STANDARD
100
AcDbDiametricDimension
 15
75.672023
 25
166.510422
 35
0.0
 40
0.0
1001
ACAD
1000
DSTYLE
1002
{
1070
   287
1070
     3
1070
     7
1000

1070
     6
1000

1070
   172
1070
     1
1070
   279
1070
     0
1070
   173
1070
     1
1070
   340
1005
D0
1070
    75
1070
     1
1070
    76
1070
     1
1070
   271
1070
     1
1070
   272
1070
     2
1070
    77
1070
     1
1070
    73
1070
     0
1070
   171
1070
     3
1070
   274
1070
     4
1070
   177
1070
     3
1070
   176
1070
     3
1070
   178
1070
     3
1070
    48
1040
-0.005
1070
    41
1041
3.5
1070
   147
1041
1.75
1070
    42
1041
0.0
1070
    44
1041
2.0
1070
   140
1041
3.5
1002
}
  0
DIMENSION
  5
1D6
330
1F
100
AcDbEntity
  8
1
  6
CONTINUOUS
 62
     3
100
AcDbDimension
  2
DIMNDRAFT3D16
 10
81.937146
 20
167.769986
 30
0.0
 11
34.072297
 21
139.077677
 31
0.0
 70
   163
  1
\C3;%%c 2,6
  3
STANDARD
100
AcDbDiametricDimension
 15
79.772466
 25
166.329791
 35
0.0
 40
0.0
1001
ACAD
1000
DSTYLE
1002
{
1070
   287
1070
     3
1070
     7
1000

1070
     6
1000

1070
   172
1070
     1
1070
   279
1070
     0
1070
   173
1070
     1
1070
   340
1005
D0
1070
    75
1070
     1
1070
    76
1070
     1
1070
   271
1070
     1
1070
   272
1070
     2
1070
    77
1070
     1
1070
    73
1070
     0
1070
   171
1070
     3
1070
   274
1070
     4
1070
   177
1070
     3
1070
   176
1070
     3
1070
   178
1070
     3
1070
    48
1040
-0.005
1070
    41
1041
3.5
1070
   147
1041
1.75
1070
    42
1041
0.0
1070
    44
1041
2.0
1070
   140
1041
3.5
1002
}
  0
DIMENSION
  5
1DF
330
1F
100
AcDbEntity
  8
1
  6
CONTINUOUS
 62
     3
100
AcDbDimension
  2
DIMNDRAFT3D17
 10
147.963117
 20
152.043348
 30
0.0
 11
26.987934
 21
191.755826
 31
0.0
 70
   163
  1
\C3;%%c 102,7
  3
STANDARD
100
AcDbDiametricDimension
 15
49.746494
 25
182.056429
 35
0.0
 40
0.0
1001
ACAD
1000
DSTYLE
1002
{
1070
   287
1070
     3
1070
     7
1000

1070
     6
1000

1070
   172
1070
     1
1070
   279
1070
     0
1070
   173
1070
     1
1070
   340
1005
D0
1070
    75
1070
     1
1070
    76
1070
     1
1070
   271
1070
     1
1070
   272
1070
     2
1070
    77
1070
     1
1070
    73
1070
     0
1070
   171
1070
     3
1070
   274
1070
     4
1070
   177
1070
     3
1070
   176
1070
     3
1070
   178
1070
     3
1070
    48
1040
-0.005
1070
    41
1041
3.5
1070
   147
1041
1.75
1070
    42
1041
0.0
1070
    44
1041
2.0
1070
   140
1041
3.5
1002
}
  0
DIMENSION
  5
1E9
330
1F
100
AcDbEntity
  8
1
  6
CONTINUOUS
 62
     3
100
AcDbDimension
  2
DIMNDRAFT3D18
 10
163.844462
 20
198.135882
 30
0.0
 11
159.317734
 21
205.476404
 31
0.0
 70
   161
  1
\C3;12
  3
STANDARD
100
AcDbAlignedDimension
 13
137.382675
 23
196.714568
 33
0.0
 14
143.382675
 24
186.322263
 34
0.0
1001
ACAD
1000
DSTYLE
1002
{
1070
   287
1070
     3
1070
     7
1000

1070
     6
1000

1070
   279
1070
     0
1070
    74
1070
     0
1070
   173
1070
     1
1070
   340
1005
D0
1070
   271
1070
     0
1070
   272
1070
     2
1070
    77
1070
     1
1070
    73
1070
     0
1070
   171
1070
     3
1070
   274
1070
     4
1070
   177
1070
     3
1070
   176
1070
     3
1070
   178
1070
     3
1070
    48
1040
-0.005
1070
    41
1041
3.5
1070
   147
1041
1.75
1070
    42
1041
0.0
1070
    44
1041
2.0
1070
   140
1041
3.5
1002
}
  0
DIMENSION
  5
1F4
330
1F
100
AcDbEntity
  8
1
  6
CONTINUOUS
 62
     3
100
AcDbDimension
  2
DIMNDRAFT3D19
 10
124.017028
 20
219.864546
 30
0.0
 11
122.93029
 21
223.663141
 31
0.0
 70
   161
  1
\A1;\C3;2,7 \A1;\S+0,5^ -0,0;
  3
STANDARD
100
AcDbAlignedDimension
 13
139.762363
 23
198.088482
 33
0.0
 14
137.382675
 24
196.714568
 34
0.0
1001
ACAD
1000
DSTYLE
1002
{
1070
   287
1070
     3
1070
     7
1000

1070
     6
1000

1070
   279
1070
     0
1070
    74
1070
     0
1070
   173
1070
     1
1070
   340
1005
D0
1070
   271
1070
     1
1070
   272
1070
     1
1070
    77
1070
     1
1070
    73
1070
     0
1070
   171
1070
     3
1070
   274
1070
     4
1070
   177
1070
     3
1070
   176
1070
     3
1070
   178
1070
     3
1070
    48
1040
-0.005
1070
    41
1041
3.5
1070
   147
1041
1.75
1070
    42
1041
0.0
1070
    44
1041
2.0
1070
   140
1041
3.5
1002
}
  0
DIMENSION
  5
1FC
330
1F
100
AcDbEntity
  8
1
  6
CONTINUOUS
 62
     3
100
AcDbDimension
  2
DIMNDRAFT3D20
 10
119.612777
 20
167.43377
 30
0.0
 11
161.572973
 21
157.21241
 31
0.0
 70
   163
  1
\C3;%%c 2,6
  3
STANDARD
100
AcDbDiametricDimension
 15
122.096835
 25
166.666008
 35
0.0
 40
0.0
1001
ACAD
1000
DSTYLE
1002
{
1070
   287
1070
     3
1070
     7
1000

1070
     6
1000

1070
   279
1070
     0
1070
   173
1070
     1
1070
   340
1005
D0
1070
    75
1070
     1
1070
    76
1070
     1
1070
   271
1070
     1
1070
   272
1070
     2
1070
    77
1070
     1
1070
    73
1070
     0
1070
   171
1070
     3
1070
   274
1070
     4
1070
   177
1070
     3
1070
   176
1070
     3
1070
   178
1070
     3
1070
    48
1040
-0.005
1070
    41
1041
3.5
1070
   147
1041
1.75
1070
    42
1041
0.0
1070
    44
1041
2.0
1070
   140
1041
3.5
1002
}
  0
DIMENSION
  5
206
330
1F
100
AcDbEntity
  8
1
  6
CONTINUOUS
 62
     3
100
AcDbDimension
  2
DIMNDRAFT3D21
 10
169.285783
 20
142.203555
 30
0.0
 11
169.285783
 21
148.073417
 31
0.0
 70
   160
  1
\C3;4
  3
STANDARD
100
AcDbAlignedDimension
 13
116.607209
 23
138.203707
 33
0.0
 14
116.572303
 24
142.203555
 34
0.0
 50
90.0
100
AcDbRotatedDimension
1001
ACAD
1000
DSTYLE
1002
{
1070
   287
1070
     3
1070
     7
1000

1070
     6
1000

1070
    74
1070
     0
1070
   279
1070
     0
1070
   172
1070
     1
1070
   173
1070
     1
1070
   340
1005
D0
1070
   271
1070
     0
1070
   272
1070
     2
1070
    77
1070
     1
1070
    73
1070
     0
1070
   171
1070
     3
1070
   274
1070
     4
1070
   177
1070
     3
1070
   176
1070
     3
1070
   178
1070
     3
1070
    48
1040
-0.005
1070
    41
1041
3.5
1070
   147
1041
1.75
1070
    42
1041
0.0
1070
    44
1041
2.0
1070
   140
1041
3.5
1002
}
  0
DIMENSION
  5
210
330
1F
100
AcDbEntity
  8
1
  6
CONTINUOUS
 62
     3
100
AcDbDimension
  2
DIMNDRAFT3D22
 10
35.523605
 20
165.240158
 30
0.0
 11
35.523605
 21
155.551872
 31
0.0
 70
   160
  1
\C3;2
  3
STANDARD
100
AcDbAlignedDimension
 13
63.964536
 23
163.053667
 33
0.0
 14
63.964536
 24
165.240158
 34
0.0
 50
90.0
100
AcDbRotatedDimension
1001
ACAD
1000
DSTYLE
1002
{
1070
   287
1070
     3
1070
     7
1000

1070
     6
1000

1070
    74
1070
     0
1070
   279
1070
     0
1070
   172
1070
     1
1070
   173
1070
     1
1070
   340
1005
D0
1070
   271
1070
     0
1070
   272
1070
     2
1070
    77
1070
     1
1070
    73
1070
     0
1070
   171
1070
     3
1070
   274
1070
     4
1070
   177
1070
     3
1070
   176
1070
     3
1070
   178
1070
     3
1070
    48
1040
-0.005
1070
    41
1041
3.5
1070
   147
1041
1.75
1070
    42
1041
0.0
1070
    44
1041
2.0
1070
   140
1041
3.5
1002
}
  0
ENDSEC
  0
SECTION
  2
OBJECTS
  0
DICTIONARY
  5
C
330
0
100
AcDbDictionary
  3
ACAD_GROUP
350
D
  3
ACAD_LAYOUT
350
1A
  3
ACAD_MATERIAL
350
3B
  3
ACAD_MLEADERSTYLE
350
243
  3
ACAD_MLINESTYLE
350
17
  3
ACAD_PLOTSETTINGS
350
19
  3
ACAD_VISUALSTYLE
350
2A
  3
ACDBHEADERROUNDTRIPXREC
350
221
  3
ACDBVARIABLEDICTIONARY
350
241
  0
DICTIONARY
  5
D
102
{ACAD_REACTORS
330
C
102
}
330
C
100
AcDbDictionary
  0
DICTIONARY
  5
1A
102
{ACAD_REACTORS
330
C
102
}
330
C
100
AcDbDictionary
  0
DICTIONARY
  5
3B
102
{ACAD_REACTORS
330
C
102
}
330
C
100
AcDbDictionary
  3
BYBLOCK
350
3D
  3
BYLAYER
350
3C
  3
GLOBAL
350
3E
  0
DICTIONARY
  5
243
102
{ACAD_REACTORS
330
C
102
}
330
C
100
AcDbDictionary
  0
DICTIONARY
  5
17
102
{ACAD_REACTORS
330
C
102
}
330
C
100
AcDbDictionary
  3
STANDARD
350
18
  0
DICTIONARY
  5
19
102
{ACAD_REACTORS
330
C
102
}
330
C
100
AcDbDictionary
  0
DICTIONARY
  5
2A
102
{ACAD_REACTORS
330
C
102
}
330
C
100
AcDbDictionary
  3
2DWIREFRAME
350
2F
  3
3D_HIDDEN
350
31
  3
3DWIREFRAME
350
30
  3
BASIC
350
32
  3
BRIGHTEN
350
36
  3
COLORCHANGE
350
3A
  3
CONCEPTUAL
350
34
  3
DIM
350
35
  3
FACEPATTERN
350
39
  3
FLAT
350
2B
  3
FLATWITHEDGES
350
2C
  3
GOURAUD
350
2D
  3
GOURAUDWITHEDGES
350
2E
  3
LINEPATTERN
350
38
  3
REALISTIC
350
33
  3
THICKEN
350
37
  0
DICTIONARY
  5
221
102
{ACAD_REACTORS
330
C
102
}
330
C
100
AcDbDictionary
  3
CEPSNTYPE
350
22A
  3
DIMSTYLEDATA
350
240
  3
FINGERPRINTGUID
350
22B
  3
HYPERLINKBASE
350
224
  3
INSUNITS
350
229
  3
LAYOUTDICT
350
226
  3
LWETCUNION
350
228
  3
PLOTSETDICT
350
227
  3
PSVPSCALE
350
22D
  3
PUCSBASE
350
230
  3
PUCSORGBACK
350
236
  3
PUCSORGBOTTOM
350
232
  3
PUCSORGFRONT
350
235
  3
PUCSORGLEFT
350
233
  3
PUCSORGRIGHT
350
234
  3
PUCSORGTOP
350
231
  3
PUCSORTHOREF
350
22E
  3
PUCSORTHOVIEW
350
22F
  3
STYLESHEET
350
225
  3
TSTACKALIGN
350
222
  3
TSTACKSIZE
350
223
  3
UCSBASE
350
239
  3
UCSORGBACK
350
23F
  3
UCSORGBOTTOM
350
23B
  3
UCSORGFRONT
350
23E
  3
UCSORGLEFT
350
23C
  3
UCSORGRIGHT
350
23D
  3
UCSORGTOP
350
23A
  3
UCSORTHOREF
350
237
  3
UCSORTHOVIEW
350
238
  3
VERSIONGUID
350
22C
  0
DICTIONARY
  5
241
102
{ACAD_REACTORS
330
C
102
}
330
C
100
AcDbDictionary
  3
DIMASSOC
350
244
  3
HIDETEXT
350
245
  0
MATERIAL
  5
3D
102
{ACAD_REACTORS
330
3B
102
}
102
{ACAD_XDICTIONARY
360
248
102
}
330
3B
100
AcDbMaterial
  1
ByBlock
  0
MATERIAL
  5
3C
102
{ACAD_REACTORS
330
3B
102
}
102
{ACAD_XDICTIONARY
360
246
102
}
330
3B
100
AcDbMaterial
  1
ByLayer
  0
MATERIAL
  5
3E
102
{ACAD_REACTORS
330
3B
102
}
102
{ACAD_XDICTIONARY
360
24A
102
}
330
3B
100
AcDbMaterial
  1
Global
  0
MLINESTYLE
  5
18
102
{ACAD_REACTORS
330
17
102
}
330
17
100
AcDbMlineStyle
  2
Standard
 70
     0
  3

 62
   256
 51
90.0
 52
90.0
 71
     2
 49
0.5
 62
   256
  6
BYLAYER
 49
-0.5
 62
   256
  6
BYLAYER
  0
ACAD_PROXY_OBJECT
  5
2F
102
{ACAD_REACTORS
330
2A
102
}
330
2A
100
AcDbProxyObject
 90
      499
 91
      501
 93
      436
310
42CC9915DA5C99599C985B595049028333333333333E3BF0000000000000FB0107901411070040501600405405064090741402480A0340
1001
ACAD
1000
AcDbSavedByObjectVersion
1070
     0
  0
ACAD_PROXY_OBJECT
  5
31
102
{ACAD_REACTORS
330
2A
102
}
330
2A
100
AcDbProxyObject
 90
      499
 91
      501
 93
      500
310
424CD108121A5919195B90640502408333333333333E3BF0000000000000FB01079024090700405020000000000001110200405405064090740C02480A0340
1001
ACAD
1000
AcDbSavedByObjectVersion
1070
     0
  0
ACAD_PROXY_OBJECT
  5
30
102
{ACAD_REACTORS
330
2A
102
}
330
2A
100
AcDbProxyObject
 90
      499
 91
      501
 93
      436
310
42CCD915DA5C99599C985B595059028333333333333E3BF0000000000000FB0107901411070040501600405405064090741402480A0340
1001
ACAD
1000
AcDbSavedByObjectVersion
1070
     0
  0
ACAD_PROXY_OBJECT
  5
32
102
{ACAD_REACTORS
330
2A
102
}
330
2A
100
AcDbProxyObject
 90
      499
 91
      501
 93
      388
310
4150985CDA58D07406404333333333333E3BF0000000000000FB0107A41107004050150841D405064090741402480A0350
1001
ACAD
1000
AcDbSavedByObjectVersion
1070
     0
  0
ACAD_PROXY_OBJECT
  5
36
102
{ACAD_REACTORS
330
2A
102
}
330
2A
100
AcDbProxyObject
 90
      499
 91
      501
 93
      428
310
42109C9A59DA1D195B90C409028333333333333E3BF0000000000000FB010790141107004050150841D405064090741402480A029950
1001
ACAD
1000
AcDbSavedByObjectVersion
1070
     0
  0
ACAD_PROXY_OBJECT
  5
3A
102
{ACAD_REACTORS
330
2A
102
}
330
2A
100
AcDbProxyObject
 90
      499
 91
      501
 93
      452
310
42D0DBDB1BDC90DA185B99D95104090240C333333333333E3BF0000000000000FB0108901411070040501508421405064090741402480A0350
1001
ACAD
1000
AcDbSavedByObjectVersion
1070
     0
  0
ACAD_PROXY_OBJECT
  5
34
102
{ACAD_REACTORS
330
2A
102
}
330
2A
100
AcDbProxyObject
 90
      499
 91
      501
 93
      500
310
4290DBDB98D95C1D1D585B10940D028333333333333E3BF0000000000000FB0107902409070040501000000000000111010841D405064090740C02480A0340
1001
ACAD
1000
AcDbSavedByObjectVersion
1070
     0
  0
ACAD_PROXY_OBJECT
  5
35
102
{ACAD_REACTORS
330
2A
102
}
330
2A
100
AcDbProxyObject
 90
      499
 91
      501
 93
      412
310
40D11A5B50B409028333333333333E3BF0000000000000FB010790141107004050150841D405064090741402480A02677FFFFFD0
1001
ACAD
1000
AcDbSavedByObjectVersion
1070
     0
  0
ACAD_PROXY_OBJECT
  5
39
102
{ACAD_REACTORS
330
2A
102
}
330
2A
100
AcDbProxyObject
 90
      499
 91
      501
 93
      444
310
42D19858D95C185D1D195C9B90F409028333333333333E3BF0000000000000FB010790141107004050150841D405064090741402480A0350
1001
ACAD
1000
AcDbSavedByObjectVersion
1070
     0
  0
ACAD_PROXY_OBJECT
  5
2B
102
{ACAD_REACTORS
330
2A
102
}
330
2A
100
AcDbProxyObject
 90
      499
 91
      501
 93
      388
310
41119B185D240901404333333333333E3BF0000000000000F9010740A41107004050150841D405064090741402480A1B50
1001
ACAD
1000
AcDbSavedByObjectVersion
1070
     0
  0
ACAD_PROXY_OBJECT
  5
2C
102
{ACAD_REACTORS
330
2A
102
}
330
2A
100
AcDbProxyObject
 90
      499
 91
      501
 93
      476
310
43519B185D15DA5D1A115919D95CD0140901404333333333333E3BF0000000000000F9010740901411070040501600405405064090741402480A1B50
1001
ACAD
1000
AcDbSavedByObjectVersion
1070
     0
  0
ACAD_PROXY_OBJECT
  5
2D
102
{ACAD_REACTORS
330
2A
102
}
330
2A
100
AcDbProxyObject
 90
      499
 91
      501
 93
      412
310
41D1DBDD5C985D5910240902404333333333333E3BF0000000000000F9010740A411070040501641D405064090741402480A1B50
1001
ACAD
1000
AcDbSavedByObjectVersion
1070
     0
  0
ACAD_PROXY_OBJECT
  5
2E
102
{ACAD_REACTORS
330
2A
102
}
330
2A
100
AcDbProxyObject
 90
      499
 91
      501
 93
      500
310
4411DBDD5C985D5915DA5D1A115919D95CD0340902404333333333333E3BF0000000000000F9010740901411070040501600405405064090741402480A1B50
1001
ACAD
1000
AcDbSavedByObjectVersion
1070
     0
  0
ACAD_PROXY_OBJECT
  5
38
102
{ACAD_REACTORS
330
2A
102
}
330
2A
100
AcDbProxyObject
 90
      499
 91
      501
 93
      444
310
42D31A5B995C185D1D195C9B90E409028333333333333E3BF0000000000000FB010790141107004050750841D405064090741402483A0350
1001
ACAD
1000
AcDbSavedByObjectVersion
1070
     0
  0
ACAD_PROXY_OBJECT
  5
33
102
{ACAD_REACTORS
330
2A
102
}
330
2A
100
AcDbProxyObject
 90
      499
 91
      501
 93
      420
310
425499585B1A5CDD1A58D08409028333333333333E3BF0000000000000FB01079019070040501508421405064090741402480A1B40
1001
ACAD
1000
AcDbSavedByObjectVersion
1070
     0
  0
ACAD_PROXY_OBJECT
  5
37
102
{ACAD_REACTORS
330
2A
102
}
330
2A
100
AcDbProxyObject
 90
      499
 91
      501
 93
      412
310
41D51A1A58DAD95B90D409028333333333333E3BF0000000000000FB010790141107004050150C41D405064090741402480A0350
1001
ACAD
1000
AcDbSavedByObjectVersion
1070
     0
  0
XRECORD
  5
22A
102
{ACAD_REACTORS
330
221
102
}
330
221
100
AcDbXrecord
 90
        0
  0
XRECORD
  5
240
102
{ACAD_REACTORS
330
221
102
}
330
221
100
AcDbXrecord
1000
DSTYLE
1002
{
1070
   171
 70
     2
1070
   143
 40
25.4
1070
   274
 70
     2
1070
    41
 40
0.18
1070
   141
 40
0.09
1070
   271
 70
     4
1070
    43
 40
0.38
1070
   278
 70
    46
1070
    44
 40
0.18
1070
    42
 40
0.0625
1070
   147
 40
0.09
1070
    77
 70
     0
1070
   272
 70
     4
1070
    73
 70
     1
1070
   172
 70
     0
1070
    74
 70
     1
1070
   283
 70
     1
1070
   340
340
11
1070
   140
 40
0.18
1070
   284
 70
     0
1070
    78
 70
     0
1002
}
  0
XRECORD
  5
22B
102
{ACAD_REACTORS
330
221
102
}
330
221
100
AcDbXrecord
  1
{4DDC565D-4E08-4CAA-851B-2C2C1DC0C8E6}
  0
XRECORD
  5
224
102
{ACAD_REACTORS
330
221
102
}
330
221
100
AcDbXrecord
  1

  0
XRECORD
  5
229
102
{ACAD_REACTORS
330
221
102
}
330
221
100
AcDbXrecord
 90
        4
  0
XRECORD
  5
226
102
{ACAD_REACTORS
330
221
102
}
330
221
100
AcDbXrecord
340
1A
  0
XRECORD
  5
228
102
{ACAD_REACTORS
330
221
102
}
330
221
100
AcDbXrecord
 90
    10781
  0
XRECORD
  5
227
102
{ACAD_REACTORS
330
221
102
}
330
221
100
AcDbXrecord
340
19
  0
XRECORD
  5
22D
102
{ACAD_REACTORS
330
221
102
}
330
221
100
AcDbXrecord
 40
0.0
  0
XRECORD
  5
230
102
{ACAD_REACTORS
330
221
102
}
330
221
100
AcDbXrecord
340
0
  0
XRECORD
  5
236
102
{ACAD_REACTORS
330
221
102
}
330
221
100
AcDbXrecord
 10
0.0
 20
0.0
 30
0.0
  0
XRECORD
  5
232
102
{ACAD_REACTORS
330
221
102
}
330
221
100
AcDbXrecord
 10
0.0
 20
0.0
 30
0.0
  0
XRECORD
  5
235
102
{ACAD_REACTORS
330
221
102
}
330
221
100
AcDbXrecord
 10
0.0
 20
0.0
 30
0.0
  0
XRECORD
  5
233
102
{ACAD_REACTORS
330
221
102
}
330
221
100
AcDbXrecord
 10
0.0
 20
0.0
 30
0.0
  0
XRECORD
  5
234
102
{ACAD_REACTORS
330
221
102
}
330
221
100
AcDbXrecord
 10
0.0
 20
0.0
 30
0.0
  0
XRECORD
  5
231
102
{ACAD_REACTORS
330
221
102
}
330
221
100
AcDbXrecord
 10
0.0
 20
0.0
 30
0.0
  0
XRECORD
  5
22E
102
{ACAD_REACTORS
330
221
102
}
330
221
100
AcDbXrecord
340
0
  0
XRECORD
  5
22F
102
{ACAD_REACTORS
330
221
102
}
330
221
100
AcDbXrecord
 70
     0
  0
XRECORD
  5
225
102
{ACAD_REACTORS
330
221
102
}
330
221
100
AcDbXrecord
  1

  0
XRECORD
  5
222
102
{ACAD_REACTORS
330
221
102
}
330
221
100
AcDbXrecord
 90
        1
  0
XRECORD
  5
223
102
{ACAD_REACTORS
330
221
102
}
330
221
100
AcDbXrecord
 90
       70
  0
XRECORD
  5
239
102
{ACAD_REACTORS
330
221
102
}
330
221
100
AcDbXrecord
340
0
  0
XRECORD
  5
23F
102
{ACAD_REACTORS
330
221
102
}
330
221
100
AcDbXrecord
 10
0.0
 20
0.0
 30
0.0
  0
XRECORD
  5
23B
102
{ACAD_REACTORS
330
221
102
}
330
221
100
AcDbXrecord
 10
0.0
 20
0.0
 30
0.0
  0
XRECORD
  5
23E
102
{ACAD_REACTORS
330
221
102
}
330
221
100
AcDbXrecord
 10
0.0
 20
0.0
 30
0.0
  0
XRECORD
  5
23C
102
{ACAD_REACTORS
330
221
102
}
330
221
100
AcDbXrecord
 10
0.0
 20
0.0
 30
0.0
  0
XRECORD
  5
23D
102
{ACAD_REACTORS
330
221
102
}
330
221
100
AcDbXrecord
 10
0.0
 20
0.0
 30
0.0
  0
XRECORD
  5
23A
102
{ACAD_REACTORS
330
221
102
}
330
221
100
AcDbXrecord
 10
0.0
 20
0.0
 30
0.0
  0
XRECORD
  5
237
102
{ACAD_REACTORS
330
221
102
}
330
221
100
AcDbXrecord
340
0
  0
XRECORD
  5
238
102
{ACAD_REACTORS
330
221
102
}
330
221
100
AcDbXrecord
 70
     0
  0
XRECORD
  5
22C
102
{ACAD_REACTORS
330
221
102
}
330
221
100
AcDbXrecord
  1
{FAEB1C32-E019-11D5-929B-00C0DF256EC4}
  0
DICTIONARYVAR
  5
244
102
{ACAD_REACTORS
330
241
102
}
330
241
100
DictionaryVariables
280
     0
  1
2
  0
DICTIONARYVAR
  5
245
102
{ACAD_REACTORS
330
241
102
}
330
241
100
DictionaryVariables
280
     0
  1
1
  0
DICTIONARY
  5
248
330
3D
100
AcDbDictionary
280
     1
  3
ACAD_XREC_ROUNDTRIP
360
249
  0
DICTIONARY
  5
246
330
3C
100
AcDbDictionary
280
     1
  3
ACAD_XREC_ROUNDTRIP
360
247
  0
DICTIONARY
  5
24A
330
3E
100
AcDbDictionary
280
     1
  3
ACAD_XREC_ROUNDTRIP
360
24B
  0
XRECORD
  5
249
102
{ACAD_REACTORS
330
248
102
}
330
248
100
AcDbXrecord
102
MATERIAL
148
0.0
149
0.0
149
0.0
 93
        0
 94
      127
282
     0
 72
     1
 77
     1
171
     1
175
     1
179
     1
273
     0
  0
XRECORD
  5
247
102
{ACAD_REACTORS
330
246
102
}
330
246
100
AcDbXrecord
102
MATERIAL
148
0.0
149
0.0
149
0.0
 93
        0
 94
      127
282
     0
 72
     1
 77
     1
171
     1
175
     1
179
     1
273
     0
  0
XRECORD
  5
24B
102
{ACAD_REACTORS
330
24A
102
}
330
24A
100
AcDbXrecord
102
MATERIAL
148
0.0
149
0.0
149
0.0
 93
        0
 94
      127
282
     0
 72
     1
 77
     1
171
     1
175
     1
179
     1
273
     0
  0
ENDSEC
  0
EOF
